<svg xmlns="http://www.w3.org/2000/svg" xmlns:xlink="http://www.w3.org/1999/xlink" version="1.1" width="1000" height="1000" viewBox="0 0 1000 1000" xml:space="preserve">
<desc>Created with Fabric.js 3.5.0</desc>
<defs>
</defs>
<rect x="0" y="0" width="100%" height="100%" fill="#ffffff"/>
<g transform="matrix(7.4074 0 0 7.4074 499.996 499.996)" id="422696">
<g style="" vector-effect="non-scaling-stroke">
		<g transform="matrix(1 0 0 1 -490 -490)">
<rect style="stroke: none; stroke-width: 1; stroke-dasharray: none; stroke-linecap: butt; stroke-dashoffset: 0; stroke-linejoin: miter; stroke-miterlimit: 4; is-custom-font: none; font-file-url: none; fill: rgb(255,255,255); fill-opacity: 0; fill-rule: nonzero; opacity: 1;" x="-50" y="-50" rx="0" ry="0" width="100" height="100"/>
</g>
		<g transform="matrix(1 0 0 1 0 0)" id="f898ad16-f5d6-4ac4-9449-3c7e850e570e">
<rect style="stroke: none; stroke-width: 1; stroke-dasharray: none; stroke-linecap: butt; stroke-dashoffset: 0; stroke-linejoin: miter; stroke-miterlimit: 4; is-custom-font: none; font-file-url: none; fill: rgb(255,255,255); fill-rule: nonzero; opacity: 1; visibility: hidden;" vector-effect="non-scaling-stroke" x="-540" y="-540" rx="0" ry="0" width="1080" height="1080"/>
</g>
		<g transform="matrix(1 0 0 1 -32.337 -10.424)" id="Path_97">
<path style="stroke: none; stroke-width: 1; stroke-dasharray: none; stroke-linecap: butt; stroke-dashoffset: 0; stroke-linejoin: miter; stroke-miterlimit: 4; is-custom-font: none; font-file-url: none; fill: rgb(255,128,1); fill-rule: nonzero; opacity: 1;" vector-effect="non-scaling-stroke" transform=" translate(-14.053, -1.606)" d="M 1.606 3.212 L 26.5 3.212 C 27.386969308228256 3.212 28.106 2.4929693082282545 28.106 1.606 C 28.106 0.7190306917717457 27.386969308228256 0 26.5 0 L 1.606 0 C 0.7190306917717457 0 0 0.7190306917717457 0 1.606 C 0 2.4929693082282545 0.7190306917717457 3.212 1.606 3.212 Z M 1.606 3.212" stroke-linecap="round"/>
</g>
		<g transform="matrix(1 0 0 1 -21.1795 -0.024)" id="Path_480">
<path style="stroke: none; stroke-width: 1; stroke-dasharray: none; stroke-linecap: butt; stroke-dashoffset: 0; stroke-linejoin: miter; stroke-miterlimit: 4; is-custom-font: none; font-file-url: none; fill: rgb(255,128,1); fill-rule: nonzero; opacity: 1;" vector-effect="non-scaling-stroke" transform=" translate(-11.3905, -1.606)" d="M 1.3 3.212 L 21.481 3.212 C 22.278702928730507 3.1187844177738873 22.85598184133865 2.4056229303518277 22.781000000000002 1.6059999999999997 C 22.85598184133865 0.806377069648172 22.278702928730507 0.09321558222611293 21.481 2.220446049250313e-16 L 1.3 0 C 0.5022970712694956 0.09321558222611351 -0.07498184133864716 0.8063770696481726 0 1.606 C -0.07498184133864705 2.4056229303518277 0.5022970712694953 3.1187844177738873 1.2999999999999998 3.2120000000000006 Z M 1.3 3.212" stroke-linecap="round"/>
</g>
		<g transform="matrix(1 0 0 1 -11.834 10.416)" id="Path_98">
<path style="stroke: none; stroke-width: 1; stroke-dasharray: none; stroke-linecap: butt; stroke-dashoffset: 0; stroke-linejoin: miter; stroke-miterlimit: 4; is-custom-font: none; font-file-url: none; fill: rgb(255,128,1); fill-rule: nonzero; opacity: 1;" vector-effect="non-scaling-stroke" transform=" translate(-9.056, -1.606)" d="M 16.507 0 L 1.606 0 C 0.7190306917717457 0 0 0.7190306917717457 0 1.606 C 0 2.4929693082282545 0.7190306917717457 3.212 1.606 3.212 L 16.506 3.212 C 17.392969308228256 3.212 18.112000000000002 2.4929693082282545 18.112000000000002 1.606 C 18.112000000000002 0.7190306917717457 17.392969308228256 0 16.506 0 Z M 16.507 0" stroke-linecap="round"/>
</g>
		<g transform="matrix(1 0 0 1 10.45 -0.001)" id="Subtraction_1">
<path style="stroke: none; stroke-width: 1; stroke-dasharray: none; stroke-linecap: butt; stroke-dashoffset: 0; stroke-linejoin: miter; stroke-miterlimit: 4; is-custom-font: none; font-file-url: none; fill: rgb(255,128,1); fill-rule: nonzero; opacity: 1;" vector-effect="non-scaling-stroke" transform=" translate(-35.95, -37.739)" d="M 54.226 75.477 C 46.95042951602339 75.47153011598417 40.42130702219269 71.00885187363514 37.774 64.232 L 8.052 64.232 C 7.952 64.232 7.851999999999999 64.232 7.752 64.226 L 7.752 61.012 C 7.872 61.019 7.9719999999999995 61.023 8.067 61.023 L 36.876 61.023 C 35.931125983336266 55.863861806979 37.324207546660595 50.55142412480103 40.67916843263223 46.519832471910746 C 44.03412931860387 42.48824081902046 49.00505700439011 40.1531715884017 54.24999999999999 40.145 L 54.3 40.145 L 54.3 19.785 L 3.25 19.785 L 3.25 19.969 L 0 19.969 L 0 19.785 L 0.021 12.7 C 0.02265641664969805 8.266325077026734 3.6173247676089293 4.6729996905821825 8.051 4.672999999999998 L 14.633 4.673 L 14.633 1.607 C 14.632999988516971 1.033231454952138 14.93910185673152 0.5030474505764622 15.435999990721568 0.21616317473766666 C 15.932898124711613 -0.07072110110112884 16.545101875288385 -0.07072110110112884 17.042000009278432 0.21616317473766644 C 17.538898143268476 0.5030474505764617 17.845000011483027 1.033231454952138 17.845 1.6069999999999998 L 17.845 4.675 L 39.687 4.675 L 39.687 1.607 C 39.687 0.7205829765215763 40.40558297652157 0.0019999999999997797 41.292 0.0019999999999997797 C 42.178417023478424 0.0019999999999997797 42.897 0.7205829765215759 42.897 1.6069999999999995 L 42.897 4.675 L 49.48 4.675 C 53.913675232391064 4.674999690582182 57.508343583350296 8.268325077026734 57.51 12.701999999999998 L 57.51 40.452 C 63.60267347033207 41.607398042893756 68.6473814982827 45.86505575821299 70.81 51.67699999999999 C 71.53758818811305 53.63993387747182 71.90678017943154 55.71757027632284 71.9 57.81100000000001 C 71.89392840897769 67.56827017708468 63.98327192595365 75.4753459623683 54.226 75.477 Z M 54.25 43.358000000000004 C 48.40403432415592 43.3567865566038 43.13302541307573 46.877377505819574 40.89503034594377 52.277997306831764 C 38.65703527881182 57.67861710784396 39.89283199910274 63.89560207151446 44.02612497630463 68.0297531718258 C 48.15941795350653 72.16390427213715 54.376146243059786 73.40099155533709 59.77723051512687 71.16411765598076 C 65.17831478719395 68.92724375662445 68.69999987406317 63.656965801780906 68.7 57.81099999999999 C 68.69118658901044 49.8334909604212 62.22750629465449 43.36802141200452 54.25 43.357 Z M 8.068 7.885 C 5.410314369490187 7.889947094452034 3.2566024565399028 10.042317966360631 3.25 12.7 L 3.25 16.587 L 54.314 16.587 L 54.314 12.7 C 54.29817166915627 10.047722440526437 52.15227421462415 7.901379224163299 49.5 7.885 L 42.913 7.885 L 42.913 10.951 C 42.913 11.837417023478425 42.19441702347842 12.556000000000001 41.30799999999999 12.556000000000001 C 40.42158297652157 12.556000000000001 39.702999999999996 11.837417023478425 39.702999999999996 10.951 L 39.702999999999996 7.885 L 17.862 7.885 L 17.862 10.951 C 17.862 11.837140881103508 17.143640881103508 12.5555 16.2575 12.5555 C 15.37135911889649 12.5555 14.652999999999999 11.837140881103508 14.652999999999999 10.951 L 14.652999999999999 7.885 Z" stroke-linecap="round"/>
</g>
		<g transform="matrix(1 0 0 1 28.9432 20.5451)" id="Path_100">
<path style="stroke: none; stroke-width: 1; stroke-dasharray: none; stroke-linecap: butt; stroke-dashoffset: 0; stroke-linejoin: miter; stroke-miterlimit: 4; is-custom-font: none; font-file-url: none; fill: rgb(255,128,1); fill-rule: nonzero; opacity: 1;" vector-effect="non-scaling-stroke" transform=" translate(-9.9632, -6.6951)" d="M 17.2 0.448 L 7.663 9.553 L 2.733 4.607 C 2.107813663191542 3.981813663191542 1.0941863368084581 3.981813663191542 0.46899999999999986 4.607 C -0.1561863368084584 5.232186336808459 -0.1561863368084584 6.245813663191543 0.46899999999999986 6.871 L 6.522 12.925 C 6.823504141046522 13.228483557440594 7.2352440360690995 13.396643759965151 7.663 13.391 C 8.077595313663878 13.39491867238561 8.476543916617965 13.232890810175016 8.771 12.941 L 19.434 2.7410000000000014 C 20.07113630144084 2.1296876976487993 20.092618183142854 1.1178015616435568 19.482 0.47999999999999954 C 18.85625942507117 -0.1486483600085542 17.84312187178643 -0.16285537214926904 17.2 0.4480000000000004 Z M 17.2 0.448" stroke-linecap="round"/>
</g>
</g>
</g>
</svg>