<?xml version="1.0" encoding="UTF-8" standalone="no" ?>
<!DOCTYPE svg PUBLIC "-//W3C//DTD SVG 1.1//EN" "http://www.w3.org/Graphics/SVG/1.1/DTD/svg11.dtd">
<svg xmlns="http://www.w3.org/2000/svg" xmlns:xlink="http://www.w3.org/1999/xlink" version="1.1" width="1080" height="1080" viewBox="0 0 1080 1080" xml:space="preserve">
<desc>Created with Fabric.js 5.2.4</desc>
<defs>
</defs>
<g transform="matrix(1 0 0 1 540 540)" id="f898ad16-f5d6-4ac4-9449-3c7e850e570e"  >
<rect style="stroke: none; stroke-width: 1; stroke-dasharray: none; stroke-linecap: butt; stroke-dashoffset: 0; stroke-linejoin: miter; stroke-miterlimit: 4; fill: rgb(255,255,255); fill-rule: nonzero; opacity: 1; visibility: hidden;" vector-effect="non-scaling-stroke"  x="-540" y="-540" rx="0" ry="0" width="1080" height="1080" />
</g>
<g transform="matrix(1 0 0 1 540 540)" id="d75343a0-a3a7-482d-b5f7-066ddefbc946"  >
</g>
<g transform="matrix(7.67 0 0 7.67 569.59 540)"  >
<g style="" vector-effect="non-scaling-stroke"   >
		<g transform="matrix(1 0 0 1 0 0)" id="Path_481"  >
<path style="stroke: none; stroke-width: 1; stroke-dasharray: none; stroke-linecap: butt; stroke-dashoffset: 0; stroke-linejoin: miter; stroke-miterlimit: 4; fill: rgb(255,128,1); fill-rule: nonzero; opacity: 1;" vector-effect="non-scaling-stroke"  transform=" translate(-41.03, 431.5)" d="M 4.869 -464.824 C 3.8443545983838097 -464.4390561525327 2.9495506453748424 -463.77202678190537 2.2880000000000003 -462.9 C 1.2939999999999998 -461.505 1.2779999999999998 -461.265 1.2779999999999998 -451.24699999999996 L 1.2779999999999998 -442.22299999999996 L 0.7969999999999998 -441.614 C 0.5147849870864942 -441.27161615866896 0.2975466571998413 -440.88051938380283 0.15599999999999936 -440.46 C 0.0559999999999998 -440.123 -0.004000000000000198 -432.52599999999995 -0.004000000000000198 -419.83099999999996 C -0.004000000000000198 -397.55099999999993 -0.0680000000000002 -398.97799999999995 1.0219999999999998 -398.304 C 1.5029999999999997 -398.015 2.497 -398.00399999999996 33.416 -398.00399999999996 C 65.116 -398.00399999999996 65.316 -398.00399999999996 65.842 -398.325 C 66.82 -398.918 66.836 -399.062 66.836 -406.307 L 66.836 -412.84700000000004 L 70.507 -416.165 C 72.527 -417.992 74.482 -419.82 74.851 -420.22 C 76.1327607297035 -421.63782983230334 76.71470645855553 -423.5538137221911 76.438 -425.44500000000005 C 76.33800000000001 -426.2950000000001 75.989 -427.112 74.29 -430.5450000000001 C 71.677 -435.78600000000006 71.64500000000001 -436.0270000000001 73.18400000000001 -438.63900000000007 C 73.77700000000002 -439.64900000000006 73.84100000000001 -439.69700000000006 74.32200000000002 -439.6170000000001 C 75.60816666394672 -439.55853798440563 76.8894437814336 -439.8113629470798 78.05700000000002 -440.3540000000001 C 79.36450404294052 -441.0198660107793 80.44637318535295 -442.05686019519453 81.16700000000002 -443.3350000000001 C 82.01700000000001 -445.00200000000007 82.06700000000002 -445.5150000000001 82.06700000000002 -451.8620000000001 C 82.06700000000002 -458.3860000000001 82.05100000000002 -458.4620000000001 80.96100000000003 -459.18700000000007 C 80.46100000000003 -459.52400000000006 80.24000000000002 -459.5560000000001 78.28400000000002 -459.5560000000001 L 76.133 -459.5560000000001 L 76.133 -462.6 L 78.7 -462.6 C 81.217 -462.6 81.281 -462.61600000000004 81.665 -463 C 81.89600471081535 -463.1946951617949 82.03451909233398 -463.47753485177185 82.04669251606366 -463.77939771831876 C 82.05886593979335 -464.08126058486573 81.94357685100147 -464.3743355754727 81.729 -464.587 L 81.406 -465 L 17.964 -465 L 17.627 -464.567 C 17.393440970549452 -464.3182310621972 17.297652813741593 -463.97025064879364 17.371 -463.637 C 17.595 -462.595 15.171 -462.675 45.837999999999994 -462.627 L 73.728 -462.595 L 73.728 -459.55 L 71.645 -459.55 C 69.38499999999999 -459.55 69 -459.45 68.279 -458.668 L 67.87899999999999 -458.235 L 67.87899999999999 -451.647 C 67.87899999999999 -445.075 67.87899999999999 -445.04699999999997 68.264 -444.113 C 68.79867423351614 -442.877370627788 69.63654707251321 -441.79666600540344 70.69999999999999 -440.971 L 71.43699999999998 -440.442 L 70.74799999999999 -439.224 C 69.74977731378148 -437.7046765020806 69.46865158932248 -435.82380283193555 69.97899999999998 -434.079 C 70.62122317491861 -432.4771055233476 71.34346560935151 -430.9084643764739 72.14299999999997 -429.379 C 73.94299999999998 -425.757 74.04999999999998 -425.48400000000004 74.04999999999998 -424.586 C 74.04999999999998 -422.786 73.76099999999998 -422.386 70.18699999999998 -419.152 C 68.43999999999998 -417.565 66.98099999999998 -416.267 66.93299999999998 -416.267 C 66.88499999999998 -416.267 66.83299999999998 -421.573 66.83299999999998 -428.067 C 66.83299999999998 -436.947 66.78499999999998 -440.04 66.64099999999999 -440.53700000000003 C 66.24971525970551 -441.518198414035 65.47714712420115 -442.2987051291662 64.5 -442.7 C 63.646488162625545 -442.83420219548356 62.78282893232277 -442.89309565713927 61.91899999999999 -442.876 L 59.944 -442.876 L 59.844 -443.325 C 59.796 -443.565 59.684000000000005 -444.014 59.604 -444.319 C 59.364 -445.26500000000004 59.444 -446.146 59.957 -448.454 C 60.598 -451.307 60.47 -452.076 59.252 -452.814 C 58.579 -453.231 57.874 -453.214 55.806000000000004 -452.75 C 53.24100000000001 -452.157 52.648 -452.125 51.36600000000001 -452.477 C 50.43600000000001 -452.73299999999995 50.166000000000004 -452.75 49.766000000000005 -452.589 C 49.378564568534514 -452.4183112871036 49.112651288662775 -452.0526941159597 49.06962345687041 -451.63151783937667 C 49.02659562507804 -451.2103415627937 49.213083538373304 -450.79850658802565 49.55800000000001 -450.553 C 50.62287130143702 -450.1230723759358 51.74717460451768 -449.8583518921571 52.892 -449.768 C 53.834874908120796 -449.8710433294181 54.77131187763303 -450.0262815436153 55.69700000000002 -450.23299999999995 C 56.403827396764996 -450.41159269268894 57.12126633194175 -450.54519398415573 57.845 -450.6329999999999 C 57.77760443043963 -449.8980085486848 57.6542466435219 -449.169228127328 57.47600000000001 -448.4529999999999 C 56.963000000000015 -446.01699999999994 56.93100000000001 -445.13499999999993 57.332000000000015 -443.49999999999994 C 57.588000000000015 -442.44199999999995 57.621000000000016 -441.47999999999996 57.621000000000016 -434.86099999999993 C 57.621000000000016 -428.1289999999999 57.58900000000002 -427.27899999999994 57.32100000000002 -426.1089999999999 L 57.02100000000002 -424.8089999999999 L 55.803000000000026 -425.6749999999999 C 54.52054961910278 -426.65092590228267 53.07754844253368 -427.39543870445243 51.53900000000002 -427.8749999999999 C 49.648000000000025 -428.48399999999987 48.526000000000025 -428.6119999999999 44.855000000000025 -428.6119999999999 L 41.511 -428.6119999999999 L 41.511 -429.2209999999999 C 41.479763751966885 -429.60509347330395 41.634890303857674 -429.9808196541425 41.928000000000004 -430.2309999999999 C 43.182086106535465 -431.5995539433005 44.11327112226923 -433.23194690482717 44.653000000000006 -435.00799999999987 C 44.909000000000006 -435.92199999999985 44.99000000000001 -436.01799999999986 45.74300000000001 -436.45099999999985 C 47.35498682577439 -437.404107218693 48.49006005760275 -438.99306450035675 48.86900000000001 -440.8269999999998 C 49.11153860856276 -442.05655945702495 48.88272178277375 -443.3323649724226 48.22800000000001 -444.40099999999984 C 47.62646768221045 -445.2592920048932 46.7502563663925 -445.88682015740534 45.74400000000001 -446.17999999999984 L 45.23100000000001 -446.27999999999986 L 45.16700000000001 -449.82199999999983 C 45.10300000000001 -452.9639999999998 45.05500000000001 -453.4769999999998 44.76700000000001 -454.2139999999998 C 44.28962085670048 -455.4073289678579 43.48381983609921 -456.4409317399802 42.44300000000001 -457.1949999999998 C 40.77600000000001 -458.3489999999998 40.84300000000001 -458.3329999999998 33.98000000000001 -458.3949999999998 C 31.601787158549477 -458.48338594116734 29.220510587713104 -458.4406544956231 26.84700000000002 -458.2669999999998 C 24.5060146568526 -457.8445543947238 22.602582984605746 -456.1395499624409 21.926000000000013 -453.8589999999998 L 21.654000000000014 -453.0589999999998 L 19.202000000000012 -452.9589999999998 C 18.19220211655686 -452.9330052821384 17.185437079971273 -452.83677284585013 16.18900000000002 -452.67099999999976 C 14.554000000000014 -452.14199999999977 13.737000000000014 -452.14199999999977 11.428000000000015 -452.65499999999975 C 10.513173199051133 -452.86599678560754 9.587444773703874 -453.02657210929743 8.65500000000002 -453.13599999999974 C 7.861957361241533 -453.08147725766554 7.142110020193853 -452.6530585719672 6.716000000000015 -451.98199999999974 C 6.316000000000015 -451.30899999999974 6.3470000000000155 -450.57099999999974 6.9720000000000155 -447.66999999999973 L 7.437000000000015 -445.4899999999997 L 7.1370000000000156 -444.1899999999997 L 6.848000000000016 -442.8759999999997 L 3.667 -442.8759999999997 L 3.715 -451.8199999999997 L 3.763 -460.7639999999997 L 4.163 -461.35699999999974 C 4.423694623230715 -461.7210147365863 4.75662112451834 -462.02738881752583 5.141 -462.2569999999997 C 5.686 -462.57799999999975 5.991 -462.5939999999997 9.501000000000001 -462.5939999999997 C 13.059000000000001 -462.5939999999997 13.284 -462.60999999999973 13.684000000000001 -462.9309999999997 C 13.9382155262834 -463.14364934178036 14.093162627400789 -463.45196951052003 14.11210295391129 -463.7828570146585 C 14.131043280421789 -464.1137445187969 14.012290066709694 -464.4377315630277 13.784 -464.6779999999997 C 13.484 -464.9779999999997 13.255 -464.99899999999974 9.424 -464.9779999999997 C 7.903994259940576 -465.00979215857996 6.383387558934362 -464.9583819649566 4.868999999999993 -464.824 Z M 79.659 -455.463 L 79.659 -453.78000000000003 L 70.2 -453.78000000000003 L 70.2 -457.146 L 79.65700000000001 -457.146 Z M 40.46900000000001 -455.591 C 41.32168777455923 -455.1365891708013 42.00256398237184 -454.4160332252461 42.40800000000001 -453.539 C 42.70543957359804 -452.52535241965955 42.81956258177531 -451.4667514595345 42.74500000000001 -450.413 C 42.42820048757972 -450.5794728523949 42.12285624422837 -450.76688873917834 41.83100000000001 -450.974 C 40.23100000000001 -452.048 39.87500000000001 -452.096 33.41600000000001 -452.096 C 26.98800000000001 -452.096 26.73200000000001 -452.064 24.969000000000012 -450.99 L 24.039000000000012 -450.42900000000003 L 24.039000000000012 -451.519 C 23.888816716364065 -453.0474869980327 24.62265637172061 -454.5279726062745 25.930000000000014 -455.334 C 26.31137506467117 -455.5541606607321 26.71326891738456 -455.73668745217276 27.13000000000001 -455.879 C 27.419000000000015 -455.94300000000004 30.384000000000015 -455.99100000000004 33.73000000000001 -455.97900000000004 C 39.651 -455.944 39.844 -455.928 40.469 -455.591 Z M 79.62700000000001 -448.458 C 79.56300000000002 -445.076 79.403 -444.547 78.12 -443.358 C 77.28660764492615 -442.4877445265115 76.11765525187285 -442.02030941487885 74.914 -442.076 C 73.09402449429243 -442.03275276664516 71.4182546058786 -443.0620983359536 70.634 -444.70500000000004 C 70.313 -445.29800000000006 70.281 -445.63500000000005 70.234 -448.37600000000003 L 70.17 -451.37600000000003 L 79.691 -451.37600000000003 Z M 11.409000000000006 -450.173 C 13.685000000000006 -449.692 14.309000000000006 -449.673 15.865000000000006 -450.109 C 17.011158330219995 -450.3739523809582 18.18267983900365 -450.513770488904 19.358999999999995 -450.52599999999995 L 21.635000000000005 -450.626 L 21.635000000000005 -446.31399999999996 L 20.802000000000007 -446.09 C 19.485728886915034 -445.66140808181456 18.4583743181416 -444.6221291945063 18.045000000000005 -443.301 C 17.423681012903312 -441.0963021373126 18.173346661409482 -438.7333025499132 19.95200000000001 -437.28999999999996 C 20.377770301226835 -436.8701121344362 20.857673086999547 -436.5089239130488 21.379000000000005 -436.21599999999995 C 21.700000000000006 -436.13599999999997 21.844000000000005 -435.8949999999999 22.179000000000006 -434.82099999999997 C 22.634224132465242 -433.31391683631847 23.404578412852192 -431.92080270183106 24.439000000000007 -430.734 C 25.04800000000001 -430.061 25.160000000000007 -429.834 25.160000000000007 -429.275 L 25.160000000000007 -428.618 L 21.76000000000001 -428.618 C 20.124272574655397 -428.6961180548941 18.484904507970818 -428.5955227552407 16.870999999999995 -428.318 C 14.517954735819382 -427.80499189756966 12.310247592422314 -426.769830142562 10.411000000000016 -425.289 L 9.786000000000008 -424.76 L 9.626000000000008 -425.36899999999997 C 9.526000000000009 -425.70599999999996 9.386000000000008 -426.299 9.305000000000009 -426.69899999999996 C 9.205000000000009 -427.13199999999995 9.129000000000008 -430.32099999999997 9.129000000000008 -434.64899999999994 C 9.129000000000008 -441.26899999999995 9.161000000000008 -442.02199999999993 9.450000000000008 -443.44899999999996 C 9.607924978301341 -444.1672517931139 9.715189094176939 -444.89571214392015 9.771000000000006 -445.62899999999996 C 9.571312542415281 -447.23203051754047 9.276796219334761 -448.82181760845475 8.88900000000001 -450.39 C 8.809000000000008 -450.69 8.857000000000008 -450.743 9.161000000000008 -450.662 C 9.373 -450.606 10.383 -450.4 11.409 -450.173 Z M 40.14800000000001 -449.179 C 41.69625802689807 -448.32409249086976 42.67769070976164 -446.7148623033926 42.72900000000001 -444.94699999999995 C 42.829000000000015 -444.03299999999996 42.921000000000014 -443.69699999999995 43.210000000000015 -443.40799999999996 C 43.40988533324626 -443.1781613306691 43.702424004382884 -443.05024116395 44.006879958351966 -443.0595434464392 C 44.31133591232105 -443.06884572892835 44.59551930269304 -443.2143869389017 44.78100000000001 -443.45599999999996 C 45.18100000000001 -443.85599999999994 45.21400000000001 -443.87299999999993 45.59800000000001 -443.616 C 46.22909507400103 -443.21849091557647 46.58259416901615 -442.4995031501135 46.512000000000015 -441.757 C 46.423960740266054 -440.14363734306437 45.35454513605465 -438.74978336208335 43.81900000000002 -438.247 C 42.95300000000002 -438.023 42.79300000000001 -437.814 42.53700000000002 -436.516 C 42.03243138537867 -434.1400423222174 40.65368702109554 -432.04033921709765 38.67400000000002 -430.63300000000004 C 36.10420133469634 -428.86352068807895 32.81949299638768 -428.49716970355064 29.922984081994958 -429.65697931049345 C 27.02647516760224 -430.81678891743627 24.902366107048472 -433.3489189714605 24.26400000000002 -436.403 C 23.97500000000002 -437.71700000000004 23.62300000000002 -438.23 23.030000000000022 -438.23 C 22.108927807231012 -438.5082221007087 21.32457159056224 -439.11966342415724 20.830000000000023 -439.945 C 19.964000000000024 -441.291 20.045000000000023 -442.84499999999997 21.022000000000023 -443.567 L 21.455000000000023 -443.88800000000003 L 21.955000000000023 -443.45500000000004 C 23.045000000000023 -442.55500000000006 24.039000000000023 -443.21500000000003 24.039000000000023 -444.85 C 24.004516189505225 -446.6412346656728 25.00019363967743 -448.2935693643186 26.599999999999998 -449.1 L 27.610000000000003 -449.629 L 33.557 -449.581 C 39.315 -449.532 39.523 -449.516 40.148 -449.18 Z M 6.76 -433.472 C 6.808 -427.157 6.84 -426.339 7.1129999999999995 -425.34499999999997 C 7.545999999999999 -423.78999999999996 7.305 -422.39599999999996 6.247 -420.2 C 5.399087108172253 -418.51918510397724 4.857294675779663 -416.7007942527596 4.6469999999999985 -414.83 L 4.487 -413.484 L 3.4450000000000003 -412.426 L 2.4 -411.384 L 2.4 -425.617 C 2.4 -439.62600000000003 2.4 -439.834 2.721 -440.15500000000003 C 3.0100000000000002 -440.444 3.25 -440.47600000000006 4.885 -440.47600000000006 L 6.712 -440.47600000000006 Z M 64.111 -440.156 C 64.432 -439.835 64.432 -439.627 64.432 -426.868 L 64.432 -413.9 L 63.759 -413.339 L 63.086 -412.778 L 62.669 -413.09900000000005 C 62.284 -413.37100000000004 62.22 -413.54800000000006 62.13999999999999 -414.63800000000003 C 61.96799595133676 -416.5201728269299 61.44032526135532 -418.35259837413236 60.584999999999994 -420.038 C 59.36699999999999 -422.555 59.270999999999994 -423.42 59.84799999999999 -426.449 C 60.03999999999999 -427.475 60.087999999999994 -429.04900000000004 60.10399999999999 -434.111 L 60.10399999999999 -440.474 L 61.94699999999999 -440.474 C 63.582 -440.476 63.823 -440.444 64.111 -440.156 Z M 29.169 -427.365 C 32.08489523173396 -426.2240477962293 35.3373040448196 -426.30478134832714 38.193 -427.589 C 38.641999999999996 -427.797 39.025999999999996 -427.974 39.059 -427.974 C 39.10979369474506 -427.55403852876475 39.12584816329238 -427.13060192082906 39.107 -426.70799999999997 C 39.107 -425.28099999999995 38.963 -425.008 38.097 -424.849 C 37.808 -424.801 35.484 -424.769 32.904 -424.801 C 27.342000000000002 -424.865 27.679000000000002 -424.73699999999997 27.582000000000004 -426.724 C 27.534000000000006 -427.782 27.566000000000006 -428.006 27.742000000000004 -427.924 C 27.87 -427.878 28.511 -427.621 29.169 -427.365 Z M 25.306 -425.233 C 25.389381276349116 -424.5483996816711 25.73404471383154 -423.92248801297904 26.268 -423.486 C 27.374000000000002 -422.38 27.727 -422.332 33.898 -422.396 C 39.027 -422.444 39.027 -422.444 39.748000000000005 -422.845 C 40.69947321664071 -423.3767250776468 41.34190807618569 -424.32868661128794 41.479000000000006 -425.41 L 41.559000000000005 -426.24300000000005 L 45.342000000000006 -426.16300000000007 C 49.62200000000001 -426.0830000000001 50.16700000000001 -425.9870000000001 52.49100000000001 -424.84900000000005 C 55.083946424852584 -423.6025867658842 57.17558676588418 -421.51094642485265 58.422 -418.91800000000006 C 58.982357356778195 -417.8535172215649 59.36666344502298 -416.70532679974394 59.56 -415.5180000000001 C 59.10167745824734 -415.70021913745103 58.66170116466858 -415.92556468203134 58.246 -416.1910000000001 C 55.33285629870967 -417.7795696830725 52.16512001880173 -418.8482280712735 48.88500000000001 -419.3490000000001 C 47.827000000000005 -419.5090000000001 44.63700000000001 -419.55700000000013 34.668000000000006 -419.55700000000013 L 21.811 -419.55700000000013 L 21.458 -419.2040000000001 C 21.023273754474076 -418.7485931429633 20.995832458955316 -418.0406934726278 21.394 -417.5530000000001 C 21.683 -417.2320000000001 21.858999999999998 -417.2320000000001 33.079 -417.2320000000001 C 45.405 -417.2320000000001 48.05 -417.12000000000006 50.662 -416.5270000000001 C 54.891729925404256 -415.5409296261216 58.78160757141144 -413.4437511827871 61.92999999999999 -410.4520000000001 C 63.837 -408.5770000000001 64.43 -406.8130000000001 64.43 -402.8520000000001 L 64.43 -400.4000000000001 L 2.369 -400.4000000000001 L 2.4330000000000003 -403.41300000000007 C 2.5330000000000004 -406.69900000000007 2.705 -407.54800000000006 3.6830000000000003 -409.03900000000004 C 5.283 -411.53900000000004 10.094 -414.72900000000004 14.102 -415.94700000000006 C 14.935 -416.20300000000003 16.058 -416.5400000000001 16.586 -416.70000000000005 C 17.676 -417.0210000000001 17.979999999999997 -417.48500000000007 17.692 -418.30000000000007 C 17.403 -419.1330000000001 16.892 -419.21400000000006 15.063 -418.7490000000001 C 12.576334595887328 -418.12145994854666 10.191009574770803 -417.1451095517594 7.977999999999994 -415.8490000000001 C 7.757668316811688 -415.69546196973056 7.521275568892521 -415.56636805774633 7.273000000000001 -415.4640000000001 C 7.097 -415.4640000000001 7.385000000000001 -416.6340000000001 7.882000000000001 -417.9160000000001 C 9.035331982313837 -420.7382504598479 11.108451677799833 -423.0879975496831 13.764999999999995 -424.5840000000001 C 16.394000000000002 -425.94600000000014 17.465 -426.1710000000001 21.795 -426.18400000000014 L 25.095000000000002 -426.20000000000016 Z" stroke-linecap="round" />
</g>
		<g transform="matrix(1 0 0 1 -12.57 -11.02)" id="Path_482"  >
<path style="stroke: none; stroke-width: 1; stroke-dasharray: none; stroke-linecap: butt; stroke-dashoffset: 0; stroke-linejoin: miter; stroke-miterlimit: 4; fill: rgb(255,128,1); fill-rule: nonzero; opacity: 1;" vector-effect="non-scaling-stroke"  transform=" translate(-170.24, 332.27)" d="M 169.822 -333.639 C 169.34689388381477 -333.466474301769 168.99258638372095 -333.0635536713537 168.88222905984819 -332.5702868072179 C 168.77187173597545 -332.07701994308206 168.92070620077843 -331.56153265795876 169.27700000000002 -331.20300000000003 C 169.68800344283412 -330.8497596718231 170.26354635520732 -330.7596180096273 170.76286876130808 -330.9702828957326 C 171.26219116740887 -331.180947781838 171.5992316115614 -331.6561097565917 171.633 -332.19700000000006 C 171.63246283150784 -332.6474752954891 171.42692627585637 -333.0732174455405 171.07451936607382 -333.353819744771 C 170.72211245629128 -333.6344220440015 170.26115015831556 -333.73937638590496 169.822 -333.639 Z" stroke-linecap="round" />
</g>
		<g transform="matrix(1 0 0 1 -2.7 -11.01)" id="Path_483"  >
<path style="stroke: none; stroke-width: 1; stroke-dasharray: none; stroke-linecap: butt; stroke-dashoffset: 0; stroke-linejoin: miter; stroke-miterlimit: 4; fill: rgb(255,128,1); fill-rule: nonzero; opacity: 1;" vector-effect="non-scaling-stroke"  transform=" translate(-231.69, 332.19)" d="M 231.043 -333.463 C 230.64976534313854 -333.27573415021214 230.3701131294959 -332.9113358628619 230.29094627899724 -332.48304320166415 C 230.21177942849857 -332.0547505404664 230.34269109032545 -331.6144624424933 230.643 -331.29900000000004 C 231.0089310156921 -330.84179305367206 231.62273016611763 -330.6639126960643 232.17642525941295 -330.85460995266925 C 232.7301203527083 -331.04530720927426 233.10421173946494 -331.56342539370735 233.111 -332.14900000000006 C 233.11563088402713 -332.64745940311445 232.86266839271087 -333.11300970533006 232.44193504169078 -333.38034221173257 C 232.0212016906707 -333.6476747181351 231.49228728715747 -333.67892627269214 231.043 -333.463 Z" stroke-linecap="round" />
</g>
		<g transform="matrix(1 0 0 1 -7.85 -4.57)" id="Path_484"  >
<path style="stroke: none; stroke-width: 1; stroke-dasharray: none; stroke-linecap: butt; stroke-dashoffset: 0; stroke-linejoin: miter; stroke-miterlimit: 4; fill: rgb(255,128,1); fill-rule: nonzero; opacity: 1;" vector-effect="non-scaling-stroke"  transform=" translate(-189.46, 290.8)" d="M 186.439 -291.631 C 186.13679236341315 -291.3164764204205 186.03387180980567 -290.86033392469733 186.17174164110332 -290.4465145832682 C 186.30961147240095 -290.03269524183906 186.66554115170712 -289.72942526286243 187.096 -289.659 C 188.0137143606786 -289.5976947598683 188.93410994579676 -289.5870118948978 189.853 -289.627 C 192.097 -289.675 192.22500000000002 -289.69100000000003 192.514 -290.06 C 192.9107728266203 -290.52900533868683 192.90396445118802 -291.21792782773997 192.49800000000002 -291.67900000000003 C 192.20900000000003 -291.96700000000004 191.96900000000002 -292.00000000000006 189.485 -292.00000000000006 C 186.872 -292 186.776 -291.984 186.439 -291.631 Z" stroke-linecap="round" />
</g>
</g>
</g>
</svg>