<svg id="nurse" xmlns="http://www.w3.org/2000/svg" width="54.019" height="76.893" viewBox="0 0 54.019 76.893">
  <path id="Path_488" data-name="Path 488" d="M101.274-492.594a1.237,1.237,0,0,0-.406.681c0,.162.422,1.849.941,3.764l.957,3.488-1.428,1.379a19.714,19.714,0,0,0-5.451,11.209c-.357,2.125-.5,22.873-.178,23.522a8.016,8.016,0,0,0,2.482,1.541,33.1,33.1,0,0,0,10.106,3.342,3.408,3.408,0,0,1,1.33.324c0,.324-.779.633-1.622.633a21.042,21.042,0,0,0-2.433.243,18.537,18.537,0,0,0-15.411,15.9c-.081.616-.162,3.082-.162,5.467v4.331l.422.324.438.341h52.495l.324-.422c.324-.406.341-.633.341-4.218,0-2.076-.081-4.348-.178-5.045a19.535,19.535,0,0,0-8.306-13.837,18.765,18.765,0,0,0-8.792-2.952c-1.833-.162-2.644-.438-2.433-.779a3.759,3.759,0,0,1,1.168-.243,31.916,31.916,0,0,0,6.294-1.622c2.433-.892,6.148-2.774,6.391-3.212.162-.292.178-2.92.13-11.647-.065-10.739-.081-11.339-.406-12.864a19.536,19.536,0,0,0-5.532-10.528,8.2,8.2,0,0,1-1.152-1.249c0-.065.406-1.655.892-3.52.487-1.882.892-3.536.892-3.682a1.26,1.26,0,0,0-.406-.665l-.389-.406h-30.53Zm28.956,2.385c-.081.292-.665,2.466-1.3,4.834s-1.184,4.429-1.233,4.575c-.081.243-.146.243-1.006-.049a29.158,29.158,0,0,0-9.766-1.606,29.711,29.711,0,0,0-9.766,1.606c-.86.292-.925.292-1.006.049-.049-.146-.6-2.206-1.233-4.575s-1.217-4.542-1.3-4.834l-.13-.519h26.864Zm-26.2,10.155c.665,2.45.795,2.5,3.731,1.411a26.357,26.357,0,0,1,18.088-.065c1.022.357,2.06.7,2.32.746.73.146,1.168-.276,1.476-1.444.162-.568.389-1.411.535-1.882l.243-.876.568.552a16.751,16.751,0,0,1,3.91,6.538c.665,2,1.282,5.872.99,6.164a11.748,11.748,0,0,1-2.076-.081c-4.234-.341-6.716-1.866-9.766-5.937-1.557-2.076-1.72-2.109-3.326-.7-4.656,4.153-11.777,6.392-21.154,6.667l-1.687.049.032-.811A20.555,20.555,0,0,1,101-479.357c.876-1.314,2.336-2.839,2.466-2.579A18.281,18.281,0,0,1,104.032-480.055Zm21.478,10.139a11.086,11.086,0,0,0,4.023,2.32l1.346.422v3.115c0,3.828-.195,5.58-.827,7.478a13.29,13.29,0,0,1-3.326,5.337,13.778,13.778,0,0,1-22.208-3.812c-1.071-2.271-1.249-3.309-1.33-7.8l-.081-3.991.941-.114a41.282,41.282,0,0,0,12.686-3.326,32.257,32.257,0,0,0,4.964-3.131l.487-.389,1.314,1.638A29.415,29.415,0,0,0,125.51-469.916Zm-24.593,7.284c.081,4.429.243,5.483,1.184,7.754a16.015,16.015,0,0,0,6.537,7.641c.827.454.973.616.99.99,0,.568-.227.584-2.466.13a33.163,33.163,0,0,1-8.095-2.92l-1.282-.649v-16.855l.454-.065c.243-.032.925-.081,1.509-.1l1.087-.016Zm34.407-3.991.746.114v16.839l-1.979.957a32.373,32.373,0,0,1-9.084,2.839c-.779.114-.779.114-.779-.341,0-.389.13-.552.811-.925a15.983,15.983,0,0,0,7.073-8.614c.714-2.076.876-3.455.876-7.332v-3.634h.795C134.205-466.72,134.9-466.672,135.324-466.623Zm-21.478,21.4a19.186,19.186,0,0,0,7.673-.324l.438-.114v1.282a4.011,4.011,0,0,0,.422,2.141,3.415,3.415,0,0,0,.973,1.2,1.711,1.711,0,0,1,.535.438c-.016.146-6.619,6-6.862,6.1a23.333,23.333,0,0,1-3.65-3.034l-3.423-3.115.438-.276c1.1-.681,1.509-1.606,1.509-3.423v-1.33l.454.114C112.6-445.518,113.262-445.356,113.846-445.226Zm-2.839,8.7c2.271,2.06,4.137,3.8,4.137,3.845s-.681.714-1.492,1.492l-1.509,1.411-.049,5.791-.049,5.775H92.271v-3.812c0-4.266.146-5.337,1.038-7.738a16.665,16.665,0,0,1,7.965-8.841,16.984,16.984,0,0,1,5.321-1.655A41.544,41.544,0,0,1,111.008-436.531Zm18.9-3.147a16.494,16.494,0,0,1,11.031,10.788,27.046,27.046,0,0,1,.7,9.425l-.1,1.087h-27.2v-5.24l.016-5.223,6.278-5.71,6.278-5.71.811.1A15.45,15.45,0,0,1,129.906-439.678Z" transform="translate(-90 493)" fill="#2c704f"/>
  <path id="Path_489" data-name="Path 489" d="M239.547-474.629c-.373.1-.762.876-.762,1.509,0,.454-.049.487-.568.487a1.134,1.134,0,0,0-1.217,1.1c0,.616.47,1.006,1.282,1.119.633.081.665.114.665.649a1.229,1.229,0,0,0,.406.941c.779.795,1.817.341,1.979-.844.081-.616.13-.665.714-.762a1.222,1.222,0,0,0,1.119-1.249c0-.6-.47-.957-1.265-.957h-.681v-.649A1.246,1.246,0,0,0,239.547-474.629Z" transform="translate(-213.154 477.662)" fill="#2c704f"/>
  <path id="Path_490" data-name="Path 490" d="M133.672-142.367a17.318,17.318,0,0,0-1.8,1.736c-1.119,1.233-1.3,1.866-.681,2.417.681.616,1.1.406,2.985-1.476,1.46-1.444,1.768-1.833,1.768-2.239a1.144,1.144,0,0,0-1.1-1.071A2.778,2.778,0,0,0,133.672-142.367Z" transform="translate(-124.215 199.777)" fill="#2c704f"/>
  <path id="Path_491" data-name="Path 491" d="M303.538-99.594a.924.924,0,0,0-.065,1.444l.324.422h3.455c3.7,0,3.747-.016,4.039-.86a1.424,1.424,0,0,0-.616-1.314c-.146-.049-1.72-.1-3.5-.1C303.944-100,303.928-100,303.538-99.594Z" transform="translate(-268.58 163.753)" fill="#2c704f"/>
</svg>
