<svg xmlns="http://www.w3.org/2000/svg" xmlns:xlink="http://www.w3.org/1999/xlink" version="1.1" width="1000" height="1000" viewBox="0 0 1000 1000" xml:space="preserve">
<desc>Created with Fabric.js 3.5.0</desc>
<defs>
</defs>
<rect x="0" y="0" width="100%" height="100%" fill="#ffffff"/>
<g transform="matrix(7.4074 0 0 7.4074 499.996 499.996)" id="520584">
<g style="" vector-effect="non-scaling-stroke">
		<g transform="matrix(1 0 0 1 -490 -490)">
<rect style="stroke: none; stroke-width: 1; stroke-dasharray: none; stroke-linecap: butt; stroke-dashoffset: 0; stroke-linejoin: miter; stroke-miterlimit: 4; is-custom-font: none; font-file-url: none; fill: rgb(255,255,255); fill-opacity: 0; fill-rule: nonzero; opacity: 1;" x="-50" y="-50" rx="0" ry="0" width="100" height="100"/>
</g>
		<g transform="matrix(1 0 0 1 0 0)" id="f898ad16-f5d6-4ac4-9449-3c7e850e570e">
<rect style="stroke: none; stroke-width: 1; stroke-dasharray: none; stroke-linecap: butt; stroke-dashoffset: 0; stroke-linejoin: miter; stroke-miterlimit: 4; is-custom-font: none; font-file-url: none; fill: rgb(255,255,255); fill-rule: nonzero; opacity: 1; visibility: hidden;" vector-effect="non-scaling-stroke" x="-540" y="-540" rx="0" ry="0" width="1080" height="1080"/>
</g>
		<g transform="matrix(1 0 0 1 -0.001 -0.0005)" id="Path_488">
<path style="stroke: none; stroke-width: 1; stroke-dasharray: none; stroke-linecap: butt; stroke-dashoffset: 0; stroke-linejoin: miter; stroke-miterlimit: 4; is-custom-font: none; font-file-url: none; fill: rgb(255,128,1); fill-rule: nonzero; opacity: 1;" vector-effect="non-scaling-stroke" transform=" translate(-117.009, 454.5505)" d="M 101.274 -492.594 C 101.06761528185154 -492.4176931014739 100.92495099788775 -492.17839660546565 100.868 -491.913 C 100.868 -491.75100000000003 101.28999999999999 -490.064 101.809 -488.149 L 102.76599999999999 -484.661 L 101.338 -483.282 C 98.35658702208603 -480.233505394016 96.44395507296302 -476.30052217667605 95.887 -472.073 C 95.53 -469.948 95.387 -449.2 95.709 -448.551 C 96.43495407481103 -447.88963416652507 97.27625691811825 -447.3672942464862 98.191 -447.01 C 101.35731558544555 -445.35810209645734 104.7700998562564 -444.22951264137623 108.297 -443.668 C 108.7576838741654 -443.65106512700277 109.21014311855174 -443.5408419727312 109.627 -443.344 C 109.627 -443.02 108.848 -442.711 108.005 -442.711 C 107.18997545078449 -442.67722787772345 106.37760429822893 -442.5960909315373 105.57199999999999 -442.468 C 97.48607697634175 -441.15537744400854 91.22047994221197 -434.6909693690839 90.161 -426.56800000000004 C 90.08 -425.95200000000006 89.999 -423.48600000000005 89.999 -421.10100000000006 L 89.999 -416.77000000000004 L 90.42099999999999 -416.446 L 90.859 -416.105 L 143.35399999999998 -416.105 L 143.678 -416.52700000000004 C 144.002 -416.93300000000005 144.019 -417.16 144.019 -420.74500000000006 C 144.019 -422.8210000000001 143.93800000000002 -425.0930000000001 143.841 -425.7900000000001 C 143.1959766916533 -431.3838641956694 140.16851459240985 -436.427325918187 135.535 -439.62700000000007 C 132.8974906871475 -441.33112944972123 129.87449859875127 -442.34612861315907 126.74299999999998 -442.57900000000006 C 124.91 -442.74100000000004 124.09899999999999 -443.01700000000005 124.31 -443.35800000000006 C 124.6839153542692 -443.5006596689365 125.07821341776263 -443.5826925708448 125.47800000000001 -443.60100000000006 C 127.62572989933382 -443.9260742106119 129.73466285054425 -444.46955836168644 131.77200000000002 -445.22300000000007 C 134.205 -446.11500000000007 137.92000000000002 -447.99700000000007 138.163 -448.43500000000006 C 138.32500000000002 -448.72700000000003 138.341 -451.3550000000001 138.293 -460.08200000000005 C 138.228 -470.821 138.21200000000002 -471.42100000000005 137.887 -472.946 C 137.18196055023316 -476.9449757446525 135.24833465547633 -480.62487694132636 132.355 -483.47400000000005 C 131.92878479921737 -483.84931775233105 131.54271267168852 -484.2678976892092 131.203 -484.72300000000007 C 131.203 -484.78800000000007 131.609 -486.37800000000004 132.095 -488.24300000000005 C 132.582 -490.12500000000006 132.987 -491.77900000000005 132.987 -491.92500000000007 C 132.9253221945107 -492.183993340375 132.78319134345446 -492.41679387227754 132.581 -492.5900000000001 L 132.19199999999998 -492.9960000000001 L 101.66199999999998 -492.9960000000001 Z M 130.23 -490.209 C 130.149 -489.91700000000003 129.565 -487.743 128.92999999999998 -485.375 C 128.29499999999996 -483.007 127.74599999999998 -480.946 127.69699999999997 -480.8 C 127.61599999999997 -480.557 127.55099999999997 -480.557 126.69099999999997 -480.849 C 123.55097037106083 -481.9369414948209 120.2480667874712 -482.4800976647211 116.92499999999995 -482.455 C 113.60277138491641 -482.46944490790946 110.3016469924967 -481.9265813225904 107.15899999999996 -480.849 C 106.29899999999996 -480.557 106.23399999999997 -480.557 106.15299999999996 -480.8 C 106.10399999999996 -480.946 105.55299999999997 -483.00600000000003 104.91999999999996 -485.375 C 104.28699999999995 -487.74399999999997 103.70299999999996 -489.917 103.61999999999996 -490.209 L 103.48999999999997 -490.728 L 130.35399999999996 -490.728 Z M 104.02999999999999 -480.05400000000003 C 104.695 -477.60400000000004 104.82499999999999 -477.55400000000003 107.76099999999998 -478.64300000000003 C 113.59390132143248 -480.7976469808015 120.00076389173529 -480.8206703148943 125.84899999999996 -478.708 C 126.871 -478.351 127.90899999999999 -478.00800000000004 128.16899999999998 -477.96200000000005 C 128.89899999999997 -477.81600000000003 129.337 -478.23800000000006 129.64499999999998 -479.40600000000006 C 129.807 -479.97400000000005 130.034 -480.81700000000006 130.17999999999998 -481.28800000000007 L 130.42299999999997 -482.16400000000004 L 130.99099999999999 -481.612 C 132.77916837481462 -479.7618868211544 134.11709684365056 -477.52470617428753 134.90099999999998 -475.074 C 135.56599999999997 -473.074 136.183 -469.202 135.891 -468.91 C 135.19796582921708 -468.8756384420096 134.50324997560077 -468.90274440739637 133.815 -468.99100000000004 C 129.581 -469.33200000000005 127.099 -470.857 124.04899999999999 -474.92800000000005 C 122.49199999999999 -477.0040000000001 122.329 -477.03700000000003 120.723 -475.62800000000004 C 116.067 -471.475 108.946 -469.23600000000005 99.569 -468.96100000000007 L 97.882 -468.9120000000001 L 97.914 -469.72300000000007 C 98.12403215746764 -473.14127187699944 99.1848237372624 -476.452894067454 101 -479.357 C 101.876 -480.67100000000005 103.336 -482.196 103.466 -481.93600000000004 C 103.68824054268649 -481.3195966327713 103.87717988928031 -480.69169042969185 104.032 -480.055 Z M 125.50799999999998 -469.915 C 126.67016585811781 -468.866311414077 128.04124493476075 -468.07563195650516 129.53099999999998 -467.595 L 130.87699999999998 -467.173 L 130.87699999999998 -464.058 C 130.87699999999998 -460.23 130.682 -458.478 130.04999999999998 -456.58 C 129.3842510125282 -454.56054093385546 128.24365573678753 -452.7303073239252 126.72399999999999 -451.243 C 123.56044058512282 -448.06658088289987 119.04927103144853 -446.6279100875281 114.63083909019878 -447.38633329358197 C 110.21240714894901 -448.14475649963583 106.43922042925213 -451.0054358556205 104.51599999999999 -455.055 C 103.445 -457.326 103.267 -458.36400000000003 103.18599999999999 -462.855 L 103.10499999999999 -466.846 L 104.04599999999999 -466.96 C 108.42488071152138 -467.38559614092156 112.707578506189 -468.50842862279643 116.73199999999999 -470.286 C 118.47837024317144 -471.1766580249304 120.13991225651036 -472.22466125695377 121.696 -473.417 L 122.18299999999999 -473.806 L 123.49699999999999 -472.168 C 124.12898986422016 -471.3833544401201 124.80087546408393 -470.6316970278533 125.51 -469.916 Z M 100.91499999999998 -462.63100000000003 C 100.99599999999998 -458.20200000000006 101.15799999999997 -457.148 102.09899999999998 -454.877 C 103.40112672988083 -451.6942256616376 105.69315278142142 -449.01511122690886 108.63599999999998 -447.236 C 109.46299999999998 -446.782 109.60899999999998 -446.62 109.62599999999998 -446.246 C 109.62599999999998 -445.678 109.39899999999997 -445.662 107.15999999999998 -446.116 C 104.34629695821278 -446.73361778145295 101.62505844874951 -447.71521338956074 99.06499999999997 -449.036 L 97.78299999999999 -449.685 L 97.78299999999999 -466.54 L 98.23699999999998 -466.605 C 98.47999999999998 -466.637 99.16199999999998 -466.68600000000004 99.74599999999998 -466.70500000000004 L 100.83299999999998 -466.72100000000006 Z M 135.32199999999997 -466.622 L 136.06799999999998 -466.50800000000004 L 136.06799999999998 -449.66900000000004 L 134.08899999999997 -448.71200000000005 C 131.2174012486862 -447.3233048906653 128.15632944675352 -446.36663570906177 125.00499999999997 -445.87300000000005 C 124.22599999999997 -445.75900000000007 124.22599999999997 -445.75900000000007 124.22599999999997 -446.21400000000006 C 124.22599999999997 -446.60300000000007 124.35599999999997 -446.7660000000001 125.03699999999998 -447.13900000000007 C 128.3518879650322 -449.0686247175273 130.86230704773513 -452.1259907543438 132.10999999999999 -455.75300000000004 C 132.82399999999998 -457.82900000000006 132.986 -459.208 132.986 -463.08500000000004 L 132.986 -466.71900000000005 L 133.78099999999998 -466.71900000000005 C 134.205 -466.72 134.9 -466.672 135.324 -466.623 Z M 113.84399999999997 -445.22200000000004 C 116.39736375541071 -444.81176894985015 119.00730866611228 -444.92197645031507 121.51699999999997 -445.54600000000005 L 121.95499999999997 -445.66 L 121.95499999999997 -444.37800000000004 C 121.89509673256342 -443.63904780201744 122.04116989341047 -442.89795150492375 122.37699999999997 -442.237 C 122.60540973470347 -441.76792620772454 122.93825940378031 -441.3574230187295 123.34999999999997 -441.03700000000003 C 123.55628219958429 -440.9289295952344 123.73833205839232 -440.7798869070888 123.88499999999996 -440.59900000000005 C 123.86899999999996 -440.45300000000003 117.26599999999996 -434.59900000000005 117.02299999999997 -434.499 C 115.70636756641159 -435.38363716750115 114.4833751568245 -436.40022866631955 113.37299999999996 -437.533 L 109.94999999999996 -440.648 L 110.38799999999996 -440.92400000000004 C 111.48799999999996 -441.605 111.89699999999996 -442.53000000000003 111.89699999999996 -444.34700000000004 L 111.89699999999996 -445.677 L 112.35099999999996 -445.56300000000005 C 112.6 -445.518 113.262 -445.356 113.846 -445.226 Z M 111.00499999999997 -436.52200000000005 C 113.27599999999997 -434.46200000000005 115.14199999999997 -432.72200000000004 115.14199999999997 -432.677 C 115.14199999999997 -432.632 114.46099999999997 -431.963 113.64999999999996 -431.185 L 112.14099999999996 -429.774 L 112.09199999999996 -423.983 L 112.04299999999995 -418.208 L 92.271 -418.208 L 92.271 -422.02000000000004 C 92.271 -426.28600000000006 92.417 -427.357 93.309 -429.75800000000004 C 94.78551001831259 -433.5847899976918 97.62145481041782 -436.73263530930546 101.274 -438.59900000000005 C 102.94445203647686 -439.4398580428862 104.74231207266514 -439.99904961587845 106.59499999999998 -440.254 C 108.15055972118098 -439.1168432184029 109.62511981009747 -437.87283977153317 111.00800000000001 -436.531 Z M 129.90499999999997 -439.66900000000004 C 135.14096007014885 -438.12050466703727 139.27127658028743 -434.08117418826157 140.93599999999998 -428.88100000000003 C 141.72069151271677 -425.8047669294556 141.95764176302796 -422.61440105919394 141.63599999999997 -419.456 L 141.53599999999997 -418.369 L 114.33599999999997 -418.369 L 114.33599999999997 -423.60900000000004 L 114.35199999999998 -428.83200000000005 L 120.62999999999998 -434.54200000000003 L 126.90799999999999 -440.252 L 127.719 -440.152 C 128.4584990437495 -440.0470712642388 129.18941574848176 -439.8886558467522 129.906 -439.678 Z" stroke-linecap="round"/>
</g>
		<g transform="matrix(1 0 0 1 -0.0773 -32.3473)" id="Path_489">
<path style="stroke: none; stroke-width: 1; stroke-dasharray: none; stroke-linecap: butt; stroke-dashoffset: 0; stroke-linejoin: miter; stroke-miterlimit: 4; is-custom-font: none; font-file-url: none; fill: rgb(255,128,1); fill-rule: nonzero; opacity: 1;" vector-effect="non-scaling-stroke" transform=" translate(-240.0827, 471.5673)" d="M 239.547 -474.629 C 239.174 -474.529 238.785 -473.75300000000004 238.785 -473.12 C 238.785 -472.666 238.736 -472.633 238.21699999999998 -472.633 C 237.90796585840536 -472.65579561857453 237.603064252014 -472.55113537006366 237.37317888094103 -472.3433507289952 C 237.14329350986802 -472.13556608792675 237.00845113901443 -471.8427584851891 236.99999999999997 -471.53299999999996 C 236.99999999999997 -470.917 237.46999999999997 -470.527 238.28199999999998 -470.41399999999993 C 238.915 -470.3329999999999 238.94699999999997 -470.29999999999995 238.94699999999997 -469.76499999999993 C 238.93885636073958 -469.4071788126493 239.0871022000025 -469.0635843920916 239.35299999999998 -468.82399999999996 C 240.13199999999998 -468.02899999999994 241.17 -468.48299999999995 241.332 -469.66799999999995 C 241.41299999999998 -470.28399999999993 241.462 -470.33299999999997 242.046 -470.42999999999995 C 242.69088861323317 -470.4843364813702 243.18158432519527 -471.0320388444092 243.165 -471.679 C 243.165 -472.279 242.695 -472.63599999999997 241.9 -472.63599999999997 L 241.219 -472.63599999999997 L 241.219 -473.28499999999997 C 241.28187048497148 -473.7210696120137 241.1097780071425 -474.15792266319096 240.7663861209033 -474.4339505908856 C 240.4229942346641 -474.70997851858033 239.9593602440421 -474.7841400449139 239.547 -474.629 Z" stroke-linecap="round"/>
</g>
		<g transform="matrix(1 0 0 1 -17.8283 20.8779)" id="Path_490">
<path style="stroke: none; stroke-width: 1; stroke-dasharray: none; stroke-linecap: butt; stroke-dashoffset: 0; stroke-linejoin: miter; stroke-miterlimit: 4; is-custom-font: none; font-file-url: none; fill: rgb(255,128,1); fill-rule: nonzero; opacity: 1;" vector-effect="non-scaling-stroke" transform=" translate(-133.3917, 140.4521)" d="M 133.672 -142.367 C 133.03094932609713 -141.83246639017594 132.42938135970525 -141.25228750703354 131.87199999999999 -140.631 C 130.753 -139.398 130.57199999999997 -138.765 131.19099999999997 -138.214 C 131.87199999999999 -137.59799999999998 132.29099999999997 -137.808 134.176 -139.69 C 135.636 -141.134 135.944 -141.523 135.944 -141.929 C 135.9068868617928 -142.51556160345166 135.43134364659807 -142.9785677702458 134.844 -143 C 134.4077797416001 -142.88716831606772 134.0055511192437 -142.66992367617726 133.672 -142.367 Z" stroke-linecap="round"/>
</g>
		<g transform="matrix(1 0 0 1 11.6371 26.435)" id="Path_491">
<path style="stroke: none; stroke-width: 1; stroke-dasharray: none; stroke-linecap: butt; stroke-dashoffset: 0; stroke-linejoin: miter; stroke-miterlimit: 4; is-custom-font: none; font-file-url: none; fill: rgb(255,128,1); fill-rule: nonzero; opacity: 1;" vector-effect="non-scaling-stroke" transform=" translate(-307.2271, 98.865)" d="M 303.538 -99.594 C 303.31025391589327 -99.42876135066278 303.1702098748066 -99.16875297762331 303.1575568992314 -98.8876622586911 C 303.14490392365616 -98.60657153975889 303.2610209631696 -98.335032370155 303.473 -98.14999999999999 L 303.797 -97.728 L 307.252 -97.728 C 310.952 -97.728 310.999 -97.744 311.291 -98.588 C 311.3409998613999 -99.10562100416439 311.10485953843295 -99.60933591386987 310.675 -99.90199999999999 C 310.529 -99.951 308.955 -100.00199999999998 307.175 -100.00199999999998 C 303.944 -100 303.928 -100 303.538 -99.594 Z" stroke-linecap="round"/>
</g>
</g>
</g>
</svg>