<svg xmlns="http://www.w3.org/2000/svg" xmlns:xlink="http://www.w3.org/1999/xlink" version="1.1" width="1000" height="1000" viewBox="0 0 1000 1000" xml:space="preserve">
<desc>Created with Fabric.js 3.5.0</desc>
<defs>
</defs>
<rect x="0" y="0" width="100%" height="100%" fill="#ffffff"/>
<g transform="matrix(7.4074 0 0 7.4074 499.996 499.996)" id="690708">
<g style="" vector-effect="non-scaling-stroke">
		<g transform="matrix(1 0 0 1 -490 -490)">
<rect style="stroke: none; stroke-width: 1; stroke-dasharray: none; stroke-linecap: butt; stroke-dashoffset: 0; stroke-linejoin: miter; stroke-miterlimit: 4; is-custom-font: none; font-file-url: none; fill: rgb(255,255,255); fill-opacity: 0; fill-rule: nonzero; opacity: 1;" x="-50" y="-50" rx="0" ry="0" width="100" height="100"/>
</g>
		<g transform="matrix(1 0 0 1 0 0)" id="f898ad16-f5d6-4ac4-9449-3c7e850e570e">
<rect style="stroke: none; stroke-width: 1; stroke-dasharray: none; stroke-linecap: butt; stroke-dashoffset: 0; stroke-linejoin: miter; stroke-miterlimit: 4; is-custom-font: none; font-file-url: none; fill: rgb(255,255,255); fill-rule: nonzero; opacity: 1; visibility: hidden;" vector-effect="non-scaling-stroke" x="-540" y="-540" rx="0" ry="0" width="1080" height="1080"/>
</g>
		<g transform="matrix(1 0 0 1 8.023 -19.7352)" id="Path_485">
<path style="stroke: none; stroke-width: 1; stroke-dasharray: none; stroke-linecap: butt; stroke-dashoffset: 0; stroke-linejoin: miter; stroke-miterlimit: 4; is-custom-font: none; font-file-url: none; fill: rgb(255,128,1); fill-rule: nonzero; opacity: 1;" vector-effect="non-scaling-stroke" transform=" translate(-197.343, 495.1952)" d="M 186.614 -511.735 C 184.49868743667338 -511.30579558305254 182.57344934357707 -510.2182110820979 181.114 -508.628 C 180.1009838673909 -507.60578178200825 179.33126322076254 -506.36848660403547 178.862 -505.008 C 177.7007418378001 -501.75725476477413 178.22945806036435 -498.142049863782 180.273 -495.35999999999996 C 180.615 -494.87499999999994 182.368 -493.037 184.164 -491.25999999999993 C 187.01399999999998 -488.4239999999999 187.48499999999999 -488.0109999999999 187.869 -488.0109999999999 C 188.14394704009507 -487.9938224972496 188.41415131400572 -488.08858951354125 188.61813712763868 -488.2737400719911 C 188.82212294127163 -488.4588906304409 188.94254305086687 -488.7186792641828 188.952 -488.9939999999999 C 188.952 -489.3939999999999 188.567 -489.8349999999999 185.603 -492.8279999999999 C 184.23851206745857 -494.15152923460164 182.94916281540992 -495.5503830321376 181.741 -497.0179999999999 C 179.61366263680867 -500.2785671729141 180.07876421586892 -504.58661237464133 182.853 -507.3179999999999 C 185.3600936027554 -509.90056614437987 189.26479405111286 -510.5319039680445 192.458 -508.8709999999999 C 193.89445948308696 -508.11062050328104 195.08171626357174 -506.9528715667557 195.878 -505.53599999999994 C 196.47799999999998 -504.38199999999995 196.84699999999998 -503.96799999999996 197.278 -503.96799999999996 C 197.878 -503.96799999999996 198.16199999999998 -504.239 198.689 -505.29299999999995 C 199.09429836942394 -506.0552034418916 199.6185473056719 -506.7479006841201 200.242 -507.34499999999997 C 202.149517659291 -509.27130779355014 204.88581799811533 -510.1303422570069 207.55204528087307 -509.63991651066243 C 210.2182725636308 -509.14949076431805 212.46979386118343 -507.3729965762264 213.56699999999998 -504.89399999999995 C 214.5950870039673 -502.59029116973943 214.53229232818762 -499.94630482112177 213.396 -497.69399999999996 C 212.98299999999998 -496.85299999999995 212.196 -496.01199999999994 205.17299999999997 -488.972 L 197.40599999999998 -481.162 L 194.62699999999998 -483.92699999999996 C 193.65986873270933 -484.9353671853436 192.62657677094668 -485.8781249985005 191.534 -486.74899999999997 C 191.1597877398783 -486.8312506890332 190.76973799124818 -486.7128586544102 190.50438097850724 -486.4364791196016 C 190.2390239657663 -486.16009958479293 190.13659575639988 -485.7655568847026 190.23399999999998 -485.395 C 191.30415833046945 -484.11978638140727 192.44600345964625 -482.9064924634457 193.65399999999997 -481.76099999999997 C 196.17599999999996 -479.26699999999994 197.07399999999996 -478.455 197.33099999999996 -478.455 C 197.58799999999997 -478.455 199.58299999999997 -480.365 206.16699999999997 -486.977 C 214.36099999999996 -495.186 214.67499999999998 -495.52799999999996 215.259 -496.654 C 217.15605698973675 -500.3388039951033 216.72109832454635 -504.7928276646387 214.147 -508.041 C 212.57032108536663 -509.9296398430566 210.40601002946462 -511.2351979031322 208 -511.749 C 204.29319197369966 -512.4419905516082 200.4988578049091 -511.0992684973062 198.053 -508.22900000000004 L 197.383 -507.40200000000004 L 196.483 -508.40200000000004 C 194.02097225798363 -511.1902510390078 190.2624058231601 -512.4596098319216 186.614 -511.735 Z" stroke-linecap="round"/>
</g>
		<g transform="matrix(1 0 0 1 8.2407 -19.8802)" id="Path_486">
<path style="stroke: none; stroke-width: 1; stroke-dasharray: none; stroke-linecap: butt; stroke-dashoffset: 0; stroke-linejoin: miter; stroke-miterlimit: 4; is-custom-font: none; font-file-url: none; fill: rgb(255,128,1); fill-rule: nonzero; opacity: 1;" vector-effect="non-scaling-stroke" transform=" translate(-267.2206, 442.1603)" d="M 264.62 -449.794 C 264.05 -449.58 263.993 -449.32399999999996 263.95 -447.35699999999997 L 263.907 -445.44699999999995 L 261.969 -445.40399999999994 C 259.33299999999997 -445.3469999999999 259.489 -445.54599999999994 259.489 -442.13999999999993 L 259.489 -439.5039999999999 L 259.88899999999995 -439.1619999999999 C 260.27399999999994 -438.83399999999995 260.38899999999995 -438.81999999999994 262.14099999999996 -438.81999999999994 L 263.979 -438.81999999999994 L 263.979 -436.91999999999996 C 263.979 -434.28399999999993 263.822 -434.39799999999997 267.243 -434.39799999999997 C 269.808 -434.39799999999997 269.837 -434.39799999999997 270.179 -434.75399999999996 C 270.52099999999996 -435.08199999999994 270.53499999999997 -435.167 270.53499999999997 -436.96299999999997 L 270.53499999999997 -438.816 L 272.388 -438.816 C 274.188 -438.816 274.26899999999995 -438.83 274.597 -439.17199999999997 C 274.953 -439.51399999999995 274.953 -439.54299999999995 274.953 -442.13599999999997 C 274.953 -445.542 275.08099999999996 -445.371 272.45899999999995 -445.371 L 270.53499999999997 -445.371 L 270.53499999999997 -447.152 C 270.53499999999997 -449.062 270.421 -449.518 269.86499999999995 -449.774 C 268.1222887755332 -449.9660482297248 266.3641251448121 -449.9727523808429 264.62 -449.794 Z M 268.397 -445.775 C 268.497 -443.21 268.383 -443.32399999999996 270.891 -443.267 L 272.815 -443.21 L 272.815 -440.95799999999997 L 270.934 -440.95799999999997 C 268.355 -440.95799999999997 268.39700000000005 -441.001 268.39700000000005 -438.436 L 268.39700000000005 -436.536 L 266.14500000000004 -436.536 L 266.088 -438.474 C 266.031 -441.01099999999997 266.088 -440.954 263.53700000000003 -440.954 L 261.7 -440.954 L 261.7 -443.206 L 263.567 -443.26300000000003 C 265.40500000000003 -443.30600000000004 265.434 -443.30600000000004 265.776 -443.70500000000004 C 266.118 -444.10400000000004 266.118 -444.20500000000004 266.118 -445.95700000000005 L 266.118 -447.81000000000006 L 267.23 -447.76700000000005 L 268.33000000000004 -447.72400000000005 Z" stroke-linecap="round"/>
</g>
		<g transform="matrix(1 0 0 1 -0.0028 16.7153)" id="Path_487">
<path style="stroke: none; stroke-width: 1; stroke-dasharray: none; stroke-linecap: butt; stroke-dashoffset: 0; stroke-linejoin: miter; stroke-miterlimit: 4; is-custom-font: none; font-file-url: none; fill: rgb(255,128,1); fill-rule: nonzero; opacity: 1;" vector-effect="non-scaling-stroke" transform=" translate(-54.4772, 257.6147)" d="M 83.306 -277.315 C 82.579 -277.173 82.79299999999999 -277.301 74.741 -272.641 C 71.335 -270.67400000000004 68.499 -269.064 68.456 -269.064 C 68.41300000000001 -269.064 68.242 -269.321 68.10000000000001 -269.634 C 67.87566554118135 -270.05963078142196 67.58197724330087 -270.4449065692053 67.23100000000001 -270.774 C 66.11900000000001 -271.8 66.00500000000001 -271.814 61.54500000000001 -271.9 C 58.21000000000001 -271.971 57.48300000000001 -272.02799999999996 57.12700000000001 -272.214 C 55.47077077955831 -272.91316410718224 53.754807283257115 -273.4613888403481 51.99999999999998 -273.852 C 50.00680169837605 -274.1726981958726 47.96870572056082 -274.0756460064528 46.01499999999999 -273.56699999999995 C 42.44731794916678 -272.36052460606555 39.37364349675092 -270.017506480624 37.265 -266.89699999999993 C 36.973346933633096 -266.44739751070136 36.63841925034352 -266.0273981958562 36.265 -265.6429999999999 C 35.82873425167347 -265.99219378689133 35.41894545856473 -266.37323719973307 35.039 -266.7829999999999 C 33.5 -268.3219999999999 33.429 -268.3219999999999 31.761000000000003 -266.63999999999993 L 30.493000000000002 -265.37199999999996 L 29.752000000000002 -266.07199999999995 C 29.125000000000004 -266.67199999999997 28.911 -266.78499999999997 28.452 -266.78499999999997 C 27.939 -266.78499999999997 27.752000000000002 -266.628 24.462000000000003 -263.32199999999995 C 21.312000000000005 -260.17199999999997 20.999000000000002 -259.816 20.999000000000002 -259.37399999999997 C 20.999000000000002 -258.93199999999996 21.241000000000003 -258.647 23.322000000000003 -256.56699999999995 C 25.816000000000003 -254.05899999999994 26.001 -253.94499999999994 26.757 -254.54299999999995 C 27.01649610827561 -254.7227369029892 27.15843612649386 -255.02880702313638 27.128 -255.34299999999996 C 27.128 -255.81299999999996 26.957 -256.027 25.389 -257.62299999999993 L 23.65 -259.3759999999999 L 26.058 -261.7989999999999 L 28.481 -264.2219999999999 L 37.93 -254.7729999999999 L 47.364 -245.3389999999999 L 44.940999999999995 -242.9159999999999 L 42.517999999999994 -240.4929999999999 L 36.28999999999999 -246.72099999999992 C 32.01499999999999 -250.9819999999999 29.91999999999999 -252.97699999999992 29.648999999999994 -253.04799999999992 C 29.348385376207982 -253.10720345330495 29.03711364972649 -253.02744670535046 28.802009870249034 -252.83097682522563 C 28.566906090771575 -252.63450694510078 28.433131236981914 -252.34235028328285 28.437999999999995 -252.03599999999992 C 28.394999999999996 -251.49399999999991 28.394999999999996 -251.4799999999999 35.206999999999994 -244.66799999999992 C 41.10699999999999 -238.76799999999992 42.07599999999999 -237.8559999999999 42.446999999999996 -237.8559999999999 C 42.818 -237.8559999999999 43.388 -238.36899999999991 46.394999999999996 -241.37599999999992 C 50.669999999999995 -245.65099999999993 50.513999999999996 -245.23799999999991 48.68899999999999 -247.13299999999992 L 47.44899999999999 -248.4159999999999 L 48.68899999999999 -249.65599999999992 C 50.398999999999994 -251.3799999999999 50.398999999999994 -251.3799999999999 48.84599999999999 -252.96199999999993 L 47.59199999999999 -254.24499999999992 L 54.07599999999999 -254.24499999999992 L 54.41799999999999 -254.6009999999999 C 54.63526862709379 -254.78082072771542 54.76341260993146 -255.04637746516013 54.768982968487414 -255.32835285688947 C 54.77455332704338 -255.6103282486188 54.65699725255439 -255.88073873379 54.446999999999996 -256.0689999999999 C 54.11899999999999 -256.3829999999999 54.034 -256.3829999999999 49.772999999999996 -256.3829999999999 L 45.441 -256.3829999999999 L 41.664 -260.1599999999999 L 37.887 -263.9369999999999 L 38.158 -264.3929999999999 C 38.99324472179767 -265.72681365156734 39.97281375102498 -266.9646052595365 41.07899999999999 -268.0839999999999 C 43.148468354515884 -270.3086417898558 45.98597521815717 -271.6637675797354 49.017 -271.8749999999999 C 51.53597376352182 -271.9067086115479 54.02818268889814 -271.3556983987141 56.29899999999999 -270.2649999999999 L 57.468 -269.7809999999999 L 61 -269.7809999999999 C 62.34131839734141 -269.8133022564005 63.68336933111134 -269.7655507551492 65.01899999999999 -269.6379999999999 C 65.51921377419112 -269.51829089695445 65.94238426538682 -269.18645607088604 66.17791976770822 -268.72921749378577 C 66.41345527002962 -268.2719789166855 66.4379490923281 -267.73477535277334 66.245 -267.2579999999999 C 65.845 -266.2579999999999 66.174 -266.30299999999994 58.293000000000006 -266.2179999999999 L 51.18200000000001 -266.1469999999999 L 50.84000000000001 -265.7469999999999 C 50.64377919437067 -265.59133031542535 50.52589297069025 -265.3572863877653 50.51761269350305 -265.10695242629174 C 50.50933241631584 -264.8566184648181 50.6114949824077 -264.61529600026563 50.79700000000001 -264.4469999999999 L 51.09700000000001 -264.0619999999999 L 58.46500000000001 -264.1049999999999 L 65.84700000000001 -264.1479999999999 L 66.531 -264.5759999999999 C 67.0123031818515 -264.9078708402318 67.44424779332728 -265.3061486854195 67.81400000000001 -265.7589999999999 C 68.34100000000001 -266.4429999999999 68.85400000000001 -266.7709999999999 74.58300000000001 -270.0769999999999 C 83.561 -275.2639999999999 83.433 -275.19299999999987 84.046 -275.19299999999987 C 84.64384266954268 -275.1354773044219 85.17292853383866 -274.7818011475774 85.45464601215335 -274.2513673812649 C 85.73636349046804 -273.7209336149524 85.73311605798791 -273.0845311244636 85.44600000000001 -272.55699999999985 C 85.07500000000002 -271.97299999999984 66.846 -257.7069999999998 65.72200000000001 -257.1229999999998 C 64.49600000000001 -256.4959999999998 63.72200000000001 -256.38199999999983 60.62200000000001 -256.38199999999983 C 58.028000000000006 -256.38199999999983 57.95700000000001 -256.3679999999998 57.65800000000001 -256.05399999999986 C 57.457912558934666 -255.85546034466654 57.35019711276705 -255.58214773102355 57.36103041246254 -255.30048193894072 C 57.37186371215804 -255.0188161468579 57.500253936785185 -254.75458452055315 57.71500000000001 -254.57199999999986 L 58.07100000000001 -254.21599999999987 L 61.30600000000001 -254.27299999999985 C 64.81200000000001 -254.34399999999985 65.52400000000002 -254.47299999999984 67.00600000000001 -255.34199999999984 C 68.23200000000001 -256.05499999999984 86.27400000000002 -270.20599999999985 86.98600000000002 -271.03299999999984 C 87.68700045883325 -271.82590676358853 88.0321868358006 -272.87158654219223 87.94100000000002 -273.9259999999998 C 87.79331314175417 -274.99844156389537 87.21640531079662 -275.9649173756951 86.34252297786462 -276.60387902106874 C 85.4686406449326 -277.24284066644236 84.3727263086274 -277.49949200132085 83.306 -277.315 Z M 46.681 -250.651 L 45.94 -249.89600000000002 L 38.957 -256.879 L 31.974 -263.862 L 32.715 -264.603 L 33.470000000000006 -265.358 L 40.453 -258.375 L 47.436 -251.392 Z" stroke-linecap="round"/>
</g>
</g>
</g>
</svg>