<svg xmlns="http://www.w3.org/2000/svg" width="93.559" height="108.915"><defs><filter id="h" x="26.738" y="45.867" width="22.662" height="28.264" filterUnits="userSpaceOnUse"><feOffset dy="3"/><feGaussianBlur stdDeviation="3" result="blur-8"/><feFlood flood-opacity=".322"/><feComposite operator="in" in2="blur-8"/><feComposite in="SourceGraphic"/></filter><filter id="a" x="17.827" y="0" width="56.952" height="68.754" filterUnits="userSpaceOnUse"><feOffset dy="3"/><feGaussianBlur stdDeviation="3" result="blur"/><feFlood flood-opacity=".322"/><feComposite operator="in" in2="blur"/><feComposite in="SourceGraphic"/></filter><filter id="c" x="0" y="57.889" width="93.559" height="51.026" filterUnits="userSpaceOnUse"><feOffset dy="3"/><feGaussianBlur stdDeviation="3" result="blur-3"/><feFlood flood-opacity=".322"/><feComposite operator="in" in2="blur-3"/><feComposite in="SourceGraphic"/></filter><filter id="d" x="40.821" y="53.534" width="34.923" height="55.381" filterUnits="userSpaceOnUse"><feOffset dy="3"/><feGaussianBlur stdDeviation="3" result="blur-4"/><feFlood flood-opacity=".322"/><feComposite operator="in" in2="blur-4"/><feComposite in="SourceGraphic"/></filter><filter id="e" x="17.66" y="53.538" width="34.924" height="55.377" filterUnits="userSpaceOnUse"><feOffset dy="3"/><feGaussianBlur stdDeviation="3" result="blur-5"/><feFlood flood-opacity=".322"/><feComposite operator="in" in2="blur-5"/><feComposite in="SourceGraphic"/></filter><filter id="f" x="28.22" y="63.599" width="36.934" height="21.101" filterUnits="userSpaceOnUse"><feOffset dy="3"/><feGaussianBlur stdDeviation="3" result="blur-6"/><feFlood flood-opacity=".322"/><feComposite operator="in" in2="blur-6"/><feComposite in="SourceGraphic"/></filter><filter id="g" x="44.026" y="45.87" width="22.655" height="28.26" filterUnits="userSpaceOnUse"><feOffset dy="3"/><feGaussianBlur stdDeviation="3" result="blur-7"/><feFlood flood-opacity=".322"/><feComposite operator="in" in2="blur-7"/><feComposite in="SourceGraphic"/></filter><filter id="b" x="21.83" y="11.132" width="49.381" height="35.483" filterUnits="userSpaceOnUse"><feOffset dy="3"/><feGaussianBlur stdDeviation="3" result="blur-2"/><feFlood flood-opacity=".322"/><feComposite operator="in" in2="blur-2"/><feComposite in="SourceGraphic"/></filter><filter id="i" x="58.673" y="57.981" width="24.582" height="32.731" filterUnits="userSpaceOnUse"><feOffset dy="3"/><feGaussianBlur stdDeviation="3" result="blur-9"/><feFlood flood-opacity=".322"/><feComposite operator="in" in2="blur-9"/><feComposite in="SourceGraphic"/></filter><filter id="j" x="58.827" y="70.112" width="28.268" height="28.268" filterUnits="userSpaceOnUse"><feOffset dy="3"/><feGaussianBlur stdDeviation="3" result="blur-10"/><feFlood flood-opacity=".322"/><feComposite operator="in" in2="blur-10"/><feComposite in="SourceGraphic"/></filter><filter id="k" x="9.25" y="58.052" width="25.019" height="32.659" filterUnits="userSpaceOnUse"><feOffset dy="3"/><feGaussianBlur stdDeviation="3" result="blur-11"/><feFlood flood-opacity=".322"/><feComposite operator="in" in2="blur-11"/><feComposite in="SourceGraphic"/></filter><filter id="l" x="5.226" y="69.808" width="33.198" height="31.303" filterUnits="userSpaceOnUse"><feOffset dy="3"/><feGaussianBlur stdDeviation="3" result="blur-12"/><feFlood flood-opacity=".322"/><feComposite operator="in" in2="blur-12"/><feComposite in="SourceGraphic"/></filter><filter id="m" x="16.282" y="77.676" width="22.062" height="20.772" filterUnits="userSpaceOnUse"><feOffset dy="3"/><feGaussianBlur stdDeviation="3" result="blur-13"/><feFlood flood-opacity=".322"/><feComposite operator="in" in2="blur-13"/><feComposite in="SourceGraphic"/></filter><filter id="n" x="6.684" y="79.948" width="22.162" height="21.175" filterUnits="userSpaceOnUse"><feOffset dy="3"/><feGaussianBlur stdDeviation="3" result="blur-14"/><feFlood flood-opacity=".322"/><feComposite operator="in" in2="blur-14"/><feComposite in="SourceGraphic"/></filter></defs><g filter="url(#a)"><path data-name="Path 110" d="M46.747 56.752C35.034 56.37 32.225 46.341 31.623 43.1a5.085 5.085 0 0 1-2.848-1.809 5.724 5.724 0 0 1-1.066-3.9 5.374 5.374 0 0 1 1.268-4.178 3.93 3.93 0 0 1 .947-.714 20.657 20.657 0 0 1-3.078-11.733c1.356-9.689 9.164-10.632 11.61-10.686a11.448 11.448 0 0 1 4.114-3.029 14.5 14.5 0 0 1 9.324-.52c6.055 1.581 10.096 4.613 12.008 9.012 2.727 6.252.335 13.449-1.039 16.68a3.978 3.978 0 0 1 1.418.814 5.209 5.209 0 0 1 1.45 4.363 5.714 5.714 0 0 1-1.065 3.9 5.092 5.092 0 0 1-2.849 1.809c-.602 3.232-3.404 13.261-15.07 13.643ZM32.09 34.582a1.757 1.757 0 0 0-1.255.447 3.1 3.1 0 0 0-.531 2.323 1.334 1.334 0 0 1-.009.26 3.207 3.207 0 0 0 .544 2.11 2.965 2.965 0 0 0 2.078.984 1.3 1.3 0 0 1 1.142 1.179c.043.483 1.195 11.893 12.688 12.269 11.429-.377 12.586-11.786 12.629-12.272a1.3 1.3 0 0 1 1.142-1.177 2.962 2.962 0 0 0 2.078-.984 3.213 3.213 0 0 0 .544-2.121 1.36 1.36 0 0 1-.009-.252 3.1 3.1 0 0 0-.586-2.385 1.97 1.97 0 0 0-1.41-.369 1.3 1.3 0 0 1-1.37-1.895c.048-.091 4.805-9.12 1.748-16.137-1.583-3.626-5.039-6.157-10.274-7.524a11.9 11.9 0 0 0-7.628.39 8.734 8.734 0 0 0-3.5 2.738 1.287 1.287 0 0 1-1.152.52c-.336-.027-8.289-.542-9.535 8.348s-.36 7.072 3.737 11.358a1.3 1.3 0 0 1 .247 1.429 1.23 1.23 0 0 1-1.23.768Z" fill="#fff"/></g><g filter="url(#b)"><path data-name="Path 111" d="M60.91 34.613a1.3 1.3 0 0 1-1.3-1.244c-.016-.336-.418-8.182-6.276-8.937a19.775 19.775 0 0 1-15.08-4.372c-1.656 1.246-5.472 5.031-4.738 13.106a1.3 1.3 0 0 1-2.582.235c-1.077-11.841 6.53-15.955 6.854-16.124a1.3 1.3 0 0 1 1.5.213 17.345 17.345 0 0 0 13.8 4.355 1.452 1.452 0 0 1 .36-.013c6.6.687 8.62 7.781 8.763 11.429a1.3 1.3 0 0 1-1.244 1.348Z" fill="#fff"/></g><g filter="url(#c)"><path data-name="Path 112" d="M83.261 96.92H10.3a1.3 1.3 0 0 1-1.3-1.3V81.14a17.284 17.284 0 0 1 17.274-17.249h2.494a1.3 1.3 0 0 1 0 2.6h-2.494A14.684 14.684 0 0 0 11.599 81.14v13.18h70.363V81.14a14.668 14.668 0 0 0-14.651-14.651h-2.673a1.3 1.3 0 0 1 0-2.6h2.673A17.273 17.273 0 0 1 84.56 81.14v14.48a1.3 1.3 0 0 1-1.299 1.3Z" fill="#fff"/></g><g filter="url(#d)"><path data-name="Path 113" d="M51.121 96.92a1.3 1.3 0 0 1-1.284-1.492l5.256-34.785a1.3 1.3 0 0 1 1.658-1.049l9.071 2.734a1.3 1.3 0 0 1 .79 1.818l-3.605 7.234 2.091 2.347a1.3 1.3 0 0 1 .13 1.547l-13 21.031a1.3 1.3 0 0 1-1.107.615Zm6.317-34.407-4.085 27.03 9.16-14.806-2.033-2.279a1.3 1.3 0 0 1-.19-1.438l3.309-6.642Z" fill="#fff"/></g><g filter="url(#e)"><path data-name="Path 114" d="M42.288 96.92a1.3 1.3 0 0 1-1.105-.616L28.177 75.275a1.3 1.3 0 0 1 .13-1.547l2.091-2.347-3.605-7.234a1.3 1.3 0 0 1 .79-1.818l9.067-2.733a1.3 1.3 0 0 1 1.657 1.049l5.262 34.785a1.3 1.3 0 0 1-1.281 1.49ZM30.896 74.733l9.16 14.806-4.085-27.028-6.161 1.858 3.308 6.642a1.3 1.3 0 0 1-.192 1.443Z" fill="#fff"/></g><g filter="url(#f)"><path data-name="Path 115" d="M46.801 72.698a70.413 70.413 0 0 1-8.4-.509 1.3 1.3 0 1 1 .309-2.578 65.479 65.479 0 0 0 15.984 0 1.3 1.3 0 1 1 .325 2.577 65.587 65.587 0 0 1-8.216.51Z" fill="#fff"/></g><g filter="url(#g)"><path data-name="Path 116" d="M56.382 62.127a1.3 1.3 0 0 1-1.039-.526c-1.93-2.609-2.279-7.781-2.312-8.361a1.3 1.3 0 0 1 1.221-1.371 1.313 1.313 0 0 1 1.368 1.22c.079 1.366.56 5.282 1.807 6.968a1.3 1.3 0 0 1-1.039 2.07Z" fill="#fff"/></g><g filter="url(#h)"><path data-name="Path 117" d="M37.031 62.128a1.3 1.3 0 0 1-1.039-2.07c1.248-1.689 1.729-5.608 1.808-6.968a1.302 1.302 0 1 1 2.6.151c-.032.581-.39 5.752-2.312 8.361a1.3 1.3 0 0 1-1.055.526Z" fill="#fff"/></g><g filter="url(#i)"><path data-name="Path 118" d="M72.96 78.713a1.3 1.3 0 0 1-1.3-1.261c-.243-8.457-3.459-11.119-3.49-11.145a1.308 1.308 0 0 1-.226-1.818 1.291 1.291 0 0 1 1.8-.249c.171.13 4.23 3.282 4.514 13.137a1.3 1.3 0 0 1-1.26 1.335Z" fill="#fff"/></g><g filter="url(#j)"><path data-name="Path 119" d="M72.961 86.38a5.134 5.134 0 1 1 5.133-5.134 5.134 5.134 0 0 1-5.133 5.134Zm0-7.67a2.536 2.536 0 1 0 2.535 2.536 2.536 2.536 0 0 0-2.535-2.536Z" fill="#fff"/></g><g filter="url(#k)"><path data-name="Path 120" d="M19.62 78.716a1.3 1.3 0 0 1-1.3-1.207c-.711-9.967 4.781-13.149 5.015-13.284a1.3 1.3 0 1 1 1.277 2.262c-.2.117-4.286 2.64-3.705 10.839a1.3 1.3 0 0 1-1.2 1.387Z" fill="#fff"/></g><g filter="url(#l)"><path data-name="Path 121" d="M16.984 89.111a1.3 1.3 0 0 1-1.039-.512 8.118 8.118 0 0 1-1.375-2.79 7.808 7.808 0 0 1 5.1-9.73 7.273 7.273 0 0 1 5.585.691 8.335 8.335 0 0 1 4.054 8.59 1.3 1.3 0 1 1-2.562-.426 5.743 5.743 0 0 0-2.761-5.9 4.7 4.7 0 0 0-3.608-.458 5.213 5.213 0 0 0-3.309 6.541 5.542 5.542 0 0 0 .943 1.909 1.3 1.3 0 0 1-1.033 2.085Z" fill="#fff"/></g><g filter="url(#m)"><path data-name="Path 122" d="M28.042 86.446a1.035 1.035 0 0 1-.155-.008l-1.463-.168a1.3 1.3 0 1 1 .307-2.581l1.464.174a1.3 1.3 0 0 1-.152 2.588Z" fill="#fff"/></g><g filter="url(#n)"><path data-name="Path 123" d="M16.988 89.12a1.3 1.3 0 0 1-.452-2.517l1.559-.575a1.3 1.3 0 0 1 .909 2.435l-1.559.577a1.3 1.3 0 0 1-.457.08Z" fill="#fff"/></g></svg>