<svg xmlns="http://www.w3.org/2000/svg" width="121.654" height="105.633"><defs><filter id="k" x="37.23" y="16.156" width="22.06" height="22.05" filterUnits="userSpaceOnUse"><feOffset dy="3"/><feGaussianBlur stdDeviation="3" result="blur-11"/><feFlood flood-opacity=".322"/><feComposite operator="in" in2="blur-11"/><feComposite in="SourceGraphic"/></filter><filter id="a" x="0" y="49.292" width="86.106" height="56.341" filterUnits="userSpaceOnUse"><feOffset dy="3"/><feGaussianBlur stdDeviation="3" result="blur"/><feFlood flood-opacity=".322"/><feComposite operator="in" in2="blur"/><feComposite in="SourceGraphic"/></filter><filter id="c" x="61.467" y="67.655" width="22.071" height="22.06" filterUnits="userSpaceOnUse"><feOffset dy="3"/><feGaussianBlur stdDeviation="3" result="blur-3"/><feFlood flood-opacity=".322"/><feComposite operator="in" in2="blur-3"/><feComposite in="SourceGraphic"/></filter><filter id="d" x="66.727" y="64.62" width="22.06" height="22.051" filterUnits="userSpaceOnUse"><feOffset dy="3"/><feGaussianBlur stdDeviation="3" result="blur-4"/><feFlood flood-opacity=".322"/><feComposite operator="in" in2="blur-4"/><feComposite in="SourceGraphic"/></filter><filter id="e" x="55.677" y="69.515" width="22.067" height="22.052" filterUnits="userSpaceOnUse"><feOffset dy="3"/><feGaussianBlur stdDeviation="3" result="blur-5"/><feFlood flood-opacity=".322"/><feComposite operator="in" in2="blur-5"/><feComposite in="SourceGraphic"/></filter><filter id="f" x="71.226" y="60.516" width="22.062" height="22.064" filterUnits="userSpaceOnUse"><feOffset dy="3"/><feGaussianBlur stdDeviation="3" result="blur-6"/><feFlood flood-opacity=".322"/><feComposite operator="in" in2="blur-6"/><feComposite in="SourceGraphic"/></filter><filter id="g" x="77.155" y="49.98" width="22.055" height="22.063" filterUnits="userSpaceOnUse"><feOffset dy="3"/><feGaussianBlur stdDeviation="3" result="blur-7"/><feFlood flood-opacity=".322"/><feComposite operator="in" in2="blur-7"/><feComposite in="SourceGraphic"/></filter><filter id="h" x="78.344" y="37.933" width="22.052" height="22.067" filterUnits="userSpaceOnUse"><feOffset dy="3"/><feGaussianBlur stdDeviation="3" result="blur-8"/><feFlood flood-opacity=".322"/><feComposite operator="in" in2="blur-8"/><feComposite in="SourceGraphic"/></filter><filter id="i" x="78.304" y="44.003" width="22.05" height="22.069" filterUnits="userSpaceOnUse"><feOffset dy="3"/><feGaussianBlur stdDeviation="3" result="blur-9"/><feFlood flood-opacity=".322"/><feComposite operator="in" in2="blur-9"/><feComposite in="SourceGraphic"/></filter><filter id="j" x="74.756" y="55.564" width="22.06" height="22.078" filterUnits="userSpaceOnUse"><feOffset dy="3"/><feGaussianBlur stdDeviation="3" result="blur-10"/><feFlood flood-opacity=".322"/><feComposite operator="in" in2="blur-10"/><feComposite in="SourceGraphic"/></filter><filter id="b" x="35.548" y="0" width="86.106" height="56.341" filterUnits="userSpaceOnUse"><feOffset dy="3"/><feGaussianBlur stdDeviation="3" result="blur-2"/><feFlood flood-opacity=".322"/><feComposite operator="in" in2="blur-2"/><feComposite in="SourceGraphic"/></filter><filter id="l" x="42.917" y="14.04" width="22.073" height="22.056" filterUnits="userSpaceOnUse"><feOffset dy="3"/><feGaussianBlur stdDeviation="3" result="blur-12"/><feFlood flood-opacity=".322"/><feComposite operator="in" in2="blur-12"/><feComposite in="SourceGraphic"/></filter><filter id="m" x="32.108" y="19.44" width="22.063" height="22.058" filterUnits="userSpaceOnUse"><feOffset dy="3"/><feGaussianBlur stdDeviation="3" result="blur-13"/><feFlood flood-opacity=".322"/><feComposite operator="in" in2="blur-13"/><feComposite in="SourceGraphic"/></filter><filter id="n" x="22.368" y="34.525" width="22.055" height="22.067" filterUnits="userSpaceOnUse"><feOffset dy="3"/><feGaussianBlur stdDeviation="3" result="blur-14"/><feFlood flood-opacity=".322"/><feComposite operator="in" in2="blur-14"/><feComposite in="SourceGraphic"/></filter><filter id="o" x="21.498" y="40.542" width="22.049" height="22.067" filterUnits="userSpaceOnUse"><feOffset dy="3"/><feGaussianBlur stdDeviation="3" result="blur-15"/><feFlood flood-opacity=".322"/><feComposite operator="in" in2="blur-15"/><feComposite in="SourceGraphic"/></filter><filter id="p" x="24.504" y="28.833" width="22.058" height="22.065" filterUnits="userSpaceOnUse"><feOffset dy="3"/><feGaussianBlur stdDeviation="3" result="blur-16"/><feFlood flood-opacity=".322"/><feComposite operator="in" in2="blur-16"/><feComposite in="SourceGraphic"/></filter><filter id="q" x="27.803" y="23.728" width="22.061" height="22.062" filterUnits="userSpaceOnUse"><feOffset dy="3"/><feGaussianBlur stdDeviation="3" result="blur-17"/><feFlood flood-opacity=".322"/><feComposite operator="in" in2="blur-17"/><feComposite in="SourceGraphic"/></filter><filter id="r" x="21.911" y="46.608" width="22.049" height="22.059" filterUnits="userSpaceOnUse"><feOffset dy="3"/><feGaussianBlur stdDeviation="3" result="blur-18"/><feFlood flood-opacity=".322"/><feComposite operator="in" in2="blur-18"/><feComposite in="SourceGraphic"/></filter><filter id="s" x="35.745" y="32.91" width="50.432" height="44.224" filterUnits="userSpaceOnUse"><feOffset dy="3"/><feGaussianBlur stdDeviation="3" result="blur-19"/><feFlood flood-opacity=".322"/><feComposite operator="in" in2="blur-19"/><feComposite in="SourceGraphic"/></filter><filter id="t" x=".007" y="71.511" width="22.034" height="22.034" filterUnits="userSpaceOnUse"><feOffset dy="3"/><feGaussianBlur stdDeviation="3" result="blur-20"/><feFlood flood-opacity=".322"/><feComposite operator="in" in2="blur-20"/><feComposite in="SourceGraphic"/></filter><filter id="u" x="99.612" y="12.088" width="22.034" height="22.034" filterUnits="userSpaceOnUse"><feOffset dy="3"/><feGaussianBlur stdDeviation="3" result="blur-21"/><feFlood flood-opacity=".322"/><feComposite operator="in" in2="blur-21"/><feComposite in="SourceGraphic"/></filter></defs><g data-name="Group 313"><g filter="url(#a)" transform="translate(-.001 .002)"><path data-name="Path 125" d="M70.859 81.143H63a2.025 2.025 0 0 0 0 4.049h7.855a2.2 2.2 0 1 1 0 4.4H49.714a10.636 10.636 0 0 1-8.2-3.845l-5.057-6.078a14.668 14.668 0 0 0-10.887-5.292V62.415h7.453a14.042 14.042 0 0 1 9.8 3.958l10.914 10.534a1.99 1.99 0 0 1-2.725 2.9l-8.568-7.857a2.024 2.024 0 0 0-2.735 2.984l8.568 7.854a6.037 6.037 0 0 0 8.272-8.794L45.636 63.461a18.071 18.071 0 0 0-12.612-5.094h-7.846a5.025 5.025 0 0 0-4.625-3.071h-9.529A2.024 2.024 0 0 0 9 57.32v14.8a2.025 2.025 0 1 0 4.049 0V59.344h7.5a.97.97 0 0 1 .969.969v16.225a.97.97 0 0 1-.969.969h-2.1a2.025 2.025 0 0 0 0 4.049h2.1a5.025 5.025 0 0 0 4.653-3.144 10.636 10.636 0 0 1 8.139 3.843l5.057 6.078a14.674 14.674 0 0 0 11.312 5.3h21.149a6.247 6.247 0 0 0 0-12.494Z" fill="#fff"/></g><g filter="url(#b)" transform="translate(-.001 .002)"><path data-name="Path 126" d="M110.632 24.697a2.024 2.024 0 0 0-2.024 2.024v13.57h-7.5a.97.97 0 0 1-.969-.969V23.097a.97.97 0 0 1 .969-.969h1.952a2.025 2.025 0 1 0 0-4.049h-1.954a5.025 5.025 0 0 0-4.654 3.144 10.636 10.636 0 0 1-8.139-3.843l-5.057-6.078a14.674 14.674 0 0 0-11.312-5.3H50.797a6.247 6.247 0 1 0 0 12.494h8.646a2.025 2.025 0 0 0 0-4.049h-8.646a2.2 2.2 0 1 1 0-4.4h21.144a10.637 10.637 0 0 1 8.2 3.845l5.057 6.078a14.668 14.668 0 0 0 10.887 5.293V37.22h-7.453a14.042 14.042 0 0 1-9.8-3.958L67.918 22.73a1.99 1.99 0 0 1 2.725-2.9l8.568 7.854a2.024 2.024 0 1 0 2.736-2.984l-8.569-7.854a6.037 6.037 0 0 0-8.272 8.794L76.02 36.174a18.071 18.071 0 0 0 12.612 5.094h7.846a5.026 5.026 0 0 0 4.625 3.071h9.529a2.024 2.024 0 0 0 2.024-2.024V26.721a2.024 2.024 0 0 0-2.024-2.024Z" fill="#fff"/></g><g filter="url(#c)" transform="translate(-.001 .002)"><path data-name="Path 127" d="M74.358 74.844a2.045 2.045 0 1 0-1.058 2.7l.044-.019a2.027 2.027 0 0 0 1.014-2.681Z" fill="#fff"/></g><g filter="url(#d)" transform="translate(-.001 .002)"><path data-name="Path 128" d="M79.386 71.437a2.032 2.032 0 1 0-.442 2.84l.025-.019a2.016 2.016 0 0 0 .417-2.821Z" fill="#fff"/></g><g filter="url(#e)" transform="translate(-.001 .002)"><path data-name="Path 129" d="M68.699 77.125a2.042 2.042 0 1 0-1.618 2.411l.06-.012a2.022 2.022 0 0 0 1.558-2.399Z" fill="#fff"/></g><g filter="url(#f)" transform="translate(-.001 .002)"><path data-name="Path 130" d="M83.623 67.038a2.024 2.024 0 0 0-2.859.147l-.043.049a2.024 2.024 0 1 0 2.9-.2Zm-1.131 1.707-.225-.2.244.22Z" fill="#fff"/></g><g filter="url(#g)" transform="translate(-.001 .002)"><path data-name="Path 131" d="M88.775 56.07a2.033 2.033 0 1 0 1.343 2.546l.009-.028a2.019 2.019 0 0 0-1.352-2.518Z" fill="#fff"/></g><g filter="url(#h)" transform="translate(-.001 .002)"><path data-name="Path 132" d="M91.36 45.615c0-.026-.009-.051-.015-.077a2.04 2.04 0 1 0 .015.077Z" fill="#fff"/></g><g filter="url(#i)" transform="translate(-.001 .002)"><path data-name="Path 133" d="M89.507 50.011a2.026 2.026 0 0 0-2.194 1.838c0 .02 0 .06-.006.079a2.024 2.024 0 0 0 1.9 2.14h.121a2.035 2.035 0 0 0 .178-4.061Z" fill="#fff"/></g><g filter="url(#j)" transform="translate(-.001 .002)"><path data-name="Path 134" d="M86.792 61.828a2.024 2.024 0 0 0-2.759.763l-.028.051a2.028 2.028 0 0 0 1.779 3 2.008 2.008 0 0 0 1.77-1.053l-1.76-1 1.761 1a2.024 2.024 0 0 0-.763-2.761Z" fill="#fff"/></g><g filter="url(#k)" transform="translate(-.001 .002)"><path data-name="Path 135" d="M50.074 23.279a2.024 2.024 0 0 0-2.716-.905l-.018.009a2.024 2.024 0 1 0 2.734.9Z" fill="#fff"/></g><g filter="url(#l)" transform="translate(-.001 .002)"><path data-name="Path 136" d="M55.93 21.586a2.024 2.024 0 0 0-2.444-1.49l-.047.012a2.024 2.024 0 1 0 2.491 1.478Z" fill="#fff"/></g><g filter="url(#m)" transform="translate(-.001 .002)"><path data-name="Path 137" d="M44.724 26.199a2.027 2.027 0 0 0-2.846-.308l1.255 1.588-1.261-1.584a2.024 2.024 0 0 0 2.522 3.167l.027-.022a2.022 2.022 0 0 0 .303-2.841Z" fill="#fff"/></g><g filter="url(#n)" transform="translate(-.001 .002)"><path data-name="Path 138" d="M33.929 40.598a2.024 2.024 0 0 0-2.485 1.42 2.059 2.059 0 0 0-.019.075 2.024 2.024 0 1 0 2.5-1.5Z" fill="#fff"/></g><g filter="url(#o)" transform="translate(-.001 .002)"><path data-name="Path 139" d="M32.643 46.547a2.025 2.025 0 0 0-2.138 1.9v.078a2.023 2.023 0 0 0 1.963 2.081h.061a2.034 2.034 0 0 0 .117-4.064Z" fill="#fff"/></g><g filter="url(#p)" transform="translate(-.001 .002)"><path data-name="Path 140" d="M36.481 35.061a2.024 2.024 0 0 0-2.733.852l-.033.065a2.024 2.024 0 1 0 2.766-.917Z" fill="#fff"/></g><g filter="url(#q)" transform="translate(-.001 .002)"><path data-name="Path 141" d="M40.129 30.19a2.024 2.024 0 0 0-2.85.264l-.042.051a2.024 2.024 0 1 0 2.892-.316Z" fill="#fff"/></g><g filter="url(#r)" transform="translate(-.001 .002)"><path data-name="Path 142" d="M34.927 54.278a2.024 2.024 0 0 0-3.985.714v.02a2.013 2.013 0 0 0 1.985 1.658 2.027 2.027 0 0 0 2-2.392Z" fill="#fff"/></g><g filter="url(#s)" transform="translate(-.001 .002)"><path data-name="Path 143" d="M67.78 38.905a9.374 9.374 0 0 0-6.816 2.92 9.4 9.4 0 1 0-12.832 13.7l.04.032 11.536 9.133a2.025 2.025 0 0 0 2.518 0l12.024-9.578a2.007 2.007 0 0 0 .168-.15 9.4 9.4 0 0 0-6.638-16.056Zm3.852 13.115-10.672 8.5-10.254-8.118a5.352 5.352 0 1 1 8.388-6.144 2.024 2.024 0 0 0 3.74 0 5.352 5.352 0 1 1 8.8 5.761Z" fill="#fff"/></g><g filter="url(#t)" transform="translate(-.001 .002)"><circle data-name="Ellipse 3" cx="2.017" cy="2.017" r="2.017" transform="translate(9.01 77.51)" fill="#fff"/></g><g filter="url(#u)" transform="translate(-.001 .002)"><circle data-name="Ellipse 4" cx="2.017" cy="2.017" r="2.017" transform="translate(108.61 18.09)" fill="#fff"/></g></g></svg>