<svg xmlns="http://www.w3.org/2000/svg" width="75.638" height="84.046" viewBox="0 0 75.638 84.046">
  <g id="goal" transform="translate(-26.1 511.907)">
    <path id="Path_504" data-name="Path 504" d="M83.252-511.808c-.575.23-.607.673-.69,9.293l-.082,8.521-4.925,2.676c-2.709,1.478-4.975,2.643-5.04,2.594-.082-.033-.131-.181-.131-.312a19.95,19.95,0,0,0-2.5-4.614c-1.281-1.231-2.873-1.412-4.778-.509-2.085,1-3.07,2.463-2.857,4.269A16.485,16.485,0,0,0,64.9-484.7l.509.443-.427.887a12.5,12.5,0,0,0-1.231,4.351,1.082,1.082,0,0,0,.657.69c.476.23.607.246,1.018.049.394-.2.542-.443.854-1.461.657-2.1.887-2.66,1.33-3.136.246-.279,3.842-2.331,8.39-4.794,8.669-4.712,8.357-4.6,7.8-2.89-.525,1.56-1.379,2.233-7.881,6.157-3.251,1.954-6.009,3.678-6.108,3.809a1.5,1.5,0,0,0-.213.788,1.219,1.219,0,0,0,1.264,1.166c.213-.033.378.016.361.115,0,.1-.46,1.51-1.018,3.119l-1.018,2.955-2.693,1.116a23.323,23.323,0,0,1-2.775,1.034,18.086,18.086,0,0,1,.558-2.282c.509-1.872.575-2.3.427-2.643a1.249,1.249,0,0,0-2.085-.181,37.425,37.425,0,0,0-1.149,3.628c-1.018,3.579-1,3.415-1.379,10.918l-.148,3.037-2.66,5.582c-1.478,3.07-2.742,5.681-2.84,5.779-.115.148-.837.213-2.561.213-2.266,0-2.463.033-3.267.427-1.79.887-2.331,2.085-2.331,5.188v2.1l-.427-.164c-.246-.1-2.906-.164-6.4-.164-6.666,0-6.682,0-7.848,1.116-1.116,1.067-1.248,1.543-1.248,4.663v2.758H28.628c-1.625,0-1.757.033-2.134.41a1.052,1.052,0,0,0,0,1.642l.394.41h73.521l.345-.378a1.2,1.2,0,0,0-.016-1.724c-.345-.328-.558-.361-2.216-.361H96.682v-32.771l-.427-.854a4.838,4.838,0,0,0-1.018-1.346c-1.084-.9-1.642-.985-6.14-.985H85.025v-21.262l.657-1.313a7.478,7.478,0,0,0,.837-4.449c-.181-1.281-.378-1.625-1-1.839-.476-.181-.493-.213-.493-1.248v-1.084h7.552c8.455,0,8.423,0,8.932-1.067.525-1.084.246-1.576-2.036-3.546-1.494-1.3-1.921-1.74-1.757-1.872.115-.1,1-.854,1.97-1.708,2.019-1.757,2.331-2.331,1.855-3.316-.509-1.084-.213-1.051-8.751-1.1l-7.766-.049v-.542A1.266,1.266,0,0,0,83.252-511.808ZM98-507.49c0,.082-.049.164-.115.164a11.424,11.424,0,0,0-1.576,1.363c-1.313,1.215-1.461,1.412-1.543,2.069l-.1.722,1.707,1.625,1.708,1.609-6.485-.033-6.485-.049-.049-3.612c-.016-1.987,0-3.694.033-3.809C85.206-507.7,98-507.752,98-507.49Zm-29.734,15.7a15.627,15.627,0,0,1,1.822,3.711c0,.575-.427,1.084-1.313,1.527-.9.46-1.576.525-2.052.181a9.694,9.694,0,0,1-1.215-2.036c-1-2.036-1.018-2.381-.1-3.087C66.588-492.4,67.7-492.516,68.262-491.794Zm14.3,15.909v9.6h-.443a5.049,5.049,0,0,0-2.627,1.313c-1.084,1.116-1.116,1.248-1.166,6.354-.033,2.561-.1,4.646-.164,4.646s-.394-.082-.722-.164c-.542-.164-.607-.23-.542-.624.246-1.346.919-7.306.919-8.094.016-1.363-.427-2.085-3.53-5.763l-2.709-3.218,1.478-4.433,1.478-4.433,3.07-1.855c1.691-1.018,3.448-2.1,3.891-2.381a5.121,5.121,0,0,1,.952-.542C82.513-485.489,82.563-481.171,82.563-475.884ZM67.523-463.653c-.887,4.893-1.133,5.911-1.461,6.4-.23.312-2.167,2.906-4.318,5.746-3.415,4.531-4.466,5.746-4.466,5.122,0-.1,1.116-2.512,2.463-5.369,2.84-5.976,2.643-5.139,2.972-11.657a32.9,32.9,0,0,1,.3-3.825c.493-.23,5.533-2.282,5.549-2.266S68.114-466.854,67.523-463.653Zm5.434-2.693c2.249,2.66,2.381,2.857,2.381,3.694,0,.624-.673,6.469-.9,7.815-.082.443-.181.542-.493.542-.23,0-.41-.016-.41-.049,0-.016-.181-1.691-.394-3.727a19.512,19.512,0,0,0-.657-4.236,4.169,4.169,0,0,0-1.313-1.215l-1.034-.657.2-1.084c.115-.607.3-1.642.41-2.315.164-.969.246-1.182.394-.985C71.234-468.43,72.055-467.429,72.958-466.345Zm20.326,2.709a2.211,2.211,0,0,1,.64.542c.263.328.3,1.445.3,16.55v16.221H80.757v-3.793c0-4.466-.082-4.745-1.264-4.745a1.291,1.291,0,0,0-.87.328c-.312.312-.328.542-.328,4.269v3.94H64.65l.049-10.13c.049-11.148,0-10.639,1.051-11.132.772-.361,10.853-.361,11.558,0,.9.46.985.854.985,4.679,0,3.464,0,3.464.41,3.858a1.052,1.052,0,0,0,1.642,0l.41-.394V-462.7l.558-.558.558-.558h5.533A41.638,41.638,0,0,1,93.284-463.636ZM70.1-461.3c.213.164.345.936.607,3.563.181,1.855.312,3.382.279,3.415-.016.016-.936.016-2.019,0l-1.987-.049.8-1.067c.87-1.149,1.116-1.888,1.576-4.482a8.456,8.456,0,0,1,.378-1.593A1.133,1.133,0,0,1,70.1-461.3Zm-7.9,14.333v.919l-.525-.115a2.8,2.8,0,0,1-.607-.181,7.968,7.968,0,0,1,1.084-1.543A3.923,3.923,0,0,1,62.2-446.972Zm-.476,3.661.476.476v12.511H48.741v-6.091c0-6.321.016-6.518.722-7.076.312-.263.887-.3,6.058-.3h5.73Zm-16.254,7.076c.657.361.8,1,.8,3.53v2.381H32.815v-5.123l.476-.476.476-.476h5.7A52.193,52.193,0,0,1,45.474-436.234Z" fill="#2c704f"/>
  </g>
</svg>
