<svg xmlns="http://www.w3.org/2000/svg" width="85.701" height="79.021" viewBox="0 0 85.701 79.021">
  <g id="target_2_" data-name="target (2)" transform="translate(-0.205 491.904)">
    <path id="Path_502" data-name="Path 502" d="M32.907-491.719a36.729,36.729,0,0,0-27.295,17.13,37.033,37.033,0,0,0-5.007,24.7A36.637,36.637,0,0,0,16.53-424.974l1.021.7-2.579,4.555c-2.88,5.124-3,5.442-2.093,6.346l.486.486h4.789a29.642,29.642,0,0,0,5.208-.2c.486-.218.452-.167,2.646-4.069l1.608-2.863,1.892.385a35.908,35.908,0,0,0,8.507.67,41.182,41.182,0,0,0,7.15-.938l.536-.151,1.624,2.863c2.21,3.935,2.177,3.885,2.662,4.1a29.642,29.642,0,0,0,5.208.2h4.789l.486-.486c.9-.9.787-1.222-2.093-6.3-2.395-4.22-2.545-4.538-2.277-4.772.167-.134.971-.72,1.775-1.289q10.248-7.159,14.233-20.781c.05-.151,1.457-.2,6.363-.2h6.3l.569-.569a1.421,1.421,0,0,0,.385-1.825c-.1-.2-1.507-1.708-3.131-3.349l-2.964-2.964L82.59-458.4a45.405,45.405,0,0,0,3.131-3.332,1.582,1.582,0,0,0-.653-2.11c-.419-.251-1.189-.285-6.681-.285-4.839,0-6.229-.05-6.279-.218-2.6-8.858-6.9-15.288-13.614-20.328A36.7,36.7,0,0,0,32.907-491.719Zm6.966,3.332a33.007,33.007,0,0,1,17.566,7.133,43.474,43.474,0,0,1,5.844,6.078,33.912,33.912,0,0,1,4.89,9.427c.268.82.486,1.524.486,1.557a1.474,1.474,0,0,1-.6.067,2.615,2.615,0,0,0-.954.184,32.234,32.234,0,0,0-2.646,2.445l-2.277,2.261-.285-1.457c-.536-2.7-2.227-6.9-3.081-7.669a1.691,1.691,0,0,0-2.612.9c-.117.5-.033.787.62,2.16a22.737,22.737,0,0,1,2.127,7.636v.569H51.578v-.385c0-1.641-1.524-5.224-3.064-7.234a16.027,16.027,0,0,0-8.071-5.308,18.425,18.425,0,0,0-7.535,0,15.319,15.319,0,0,0-9.712,7.954,12.568,12.568,0,0,0-1.49,6.648,12.568,12.568,0,0,0,1.49,6.648,15.31,15.31,0,0,0,9.712,7.954,18.425,18.425,0,0,0,7.535-.017,15.247,15.247,0,0,0,9.9-8.272,15.494,15.494,0,0,0,1.239-4.253v-.385h7.368v.569a20.761,20.761,0,0,1-1,4.789,22.24,22.24,0,0,1-5.442,8.791,22.3,22.3,0,0,1-11.638,6.229,29.222,29.222,0,0,1-8.373,0,22.3,22.3,0,0,1-11.638-6.229,22.248,22.248,0,0,1-6.229-11.638,30.729,30.729,0,0,1-.067-8.038,22.682,22.682,0,0,1,6.212-11.906,20.589,20.589,0,0,1,5.693-4.17,20.31,20.31,0,0,1,10.215-2.411,20.876,20.876,0,0,1,9.88,2.194c1.373.653,1.658.737,2.16.62a1.691,1.691,0,0,0,.9-2.612c-.821-.9-5.057-2.562-8.038-3.148a25.844,25.844,0,0,0-19.558,4.069,32.088,32.088,0,0,0-6.564,6.564,25.6,25.6,0,0,0-4.337,11.3,25.773,25.773,0,0,0,4.337,18,32.009,32.009,0,0,0,6.564,6.547,25.563,25.563,0,0,0,11.253,4.337,25.67,25.67,0,0,0,6.8,0,24.764,24.764,0,0,0,14.769-7.368,24.871,24.871,0,0,0,7.016-12.676l.368-1.624,2.16,2.177c2.361,2.361,2.763,2.663,3.684,2.663a1.426,1.426,0,0,1,.586.067c0,.033-.218.737-.486,1.557A33.292,33.292,0,0,1,47.14-423.969a33.576,33.576,0,0,1-21.183-.084,32.125,32.125,0,0,1-12.19-7.485A32.119,32.119,0,0,1,5.88-443.125,33.069,33.069,0,0,1,12.8-478.34,32.865,32.865,0,0,1,39.873-488.387ZM38.885-466.9a11.784,11.784,0,0,1,8.339,6.43,12.872,12.872,0,0,1,1,3.2c0,.134-.921.184-2.981.184H42.268l.067-.586c.067-.486-.017-.67-.519-1.172a1.625,1.625,0,0,0-1.038-.586,20.086,20.086,0,0,0-5.543,3.215c-.653,1.256-.234,1.792,2.662,3.433a13.013,13.013,0,0,0,2.88,1.39,1.625,1.625,0,0,0,1.038-.586c.5-.5.586-.687.519-1.172l-.067-.586h2.981c2.06,0,2.981.05,2.981.184a12.872,12.872,0,0,1-1,3.2,11.831,11.831,0,0,1-8.322,6.43,11.468,11.468,0,0,1-10.248-3.014,11.552,11.552,0,0,1-1.792-14.819A11.676,11.676,0,0,1,38.885-466.9Zm39.4,7.971-1.842,1.842H64.89l1.842-1.842,1.842-1.842H80.128Zm0,7.033,1.842,1.842H68.574L66.732-451.9l-1.842-1.842H76.444ZM22.659-421.725a10.749,10.749,0,0,1,1.624.787c-.017.05-.6,1.122-1.306,2.361l-1.289,2.261-2.411.05a9.373,9.373,0,0,1-2.328-.1c.017-.067.837-1.507,1.792-3.2,1.356-2.411,1.792-3.031,2.009-2.947C20.9-422.462,21.755-422.093,22.659-421.725Zm32.033,2.311,1.741,3.1-2.21.05a20.8,20.8,0,0,1-2.411-.034,47.761,47.761,0,0,1-2.746-4.689,3.468,3.468,0,0,1,.887-.4c.469-.184,1.289-.536,1.792-.77a3.67,3.67,0,0,1,1.055-.385A31.46,31.46,0,0,1,54.692-419.414Z" transform="translate(0)" fill="#2c704f"/>
    <path id="Path_503" data-name="Path 503" d="M310.865-385.443a1.651,1.651,0,0,0,.787,3.064,1.43,1.43,0,0,0,1.507-.837,1.462,1.462,0,0,0-.2-1.842A1.633,1.633,0,0,0,310.865-385.443Z" transform="translate(-257.981 -88.443)" fill="#2c704f"/>
  </g>
</svg>
