<svg xmlns="http://www.w3.org/2000/svg" width="77.22" height="85.892" viewBox="0 0 77.22 85.892">
  <g id="shared-vision" transform="translate(-26 511.868)">
    <path id="Path_492" data-name="Path 492" d="M247.074-511.722a2.094,2.094,0,0,0-.722.6c-.353.436-.353.571-.353,6.463v6.027l.47.5a1.8,1.8,0,0,0,1.058.6,1.132,1.132,0,0,0,1.175-.4l.571-.5v-12.49l-.554-.487A1.377,1.377,0,0,0,247.074-511.722Z" transform="translate(-183.069)" fill="#2c704f"/>
    <path id="Path_493" data-name="Path 493" d="M57.5-435.22a1.745,1.745,0,0,0-.923,1.847c.134.722,7.638,8.226,8.36,8.36a1.71,1.71,0,0,0,1.83-.923c.453-1.074.285-1.326-3.492-5.137-1.947-1.981-3.727-3.727-3.962-3.878A1.734,1.734,0,0,0,57.5-435.22Z" transform="translate(-25.422 -63.66)" fill="#2c704f"/>
    <path id="Path_494" data-name="Path 494" d="M401.848-435.8c-.638.118-8.158,7.705-8.276,8.36a1.709,1.709,0,0,0,1.981,1.981c.722-.134,8.226-7.638,8.36-8.36a1.71,1.71,0,0,0-.957-1.847c-.336-.134-.621-.235-.638-.235A2.7,2.7,0,0,1,401.848-435.8Z" transform="translate(-305.846 -63.215)" fill="#2c704f"/>
    <path id="Path_495" data-name="Path 495" d="M61-395.678c-9.7.974-19.507,6.127-28.219,14.823C28.971-377.044,26-373.335,26-372.378s2.971,4.667,6.782,8.477c8.847,8.83,18.55,13.866,28.538,14.84,11.986,1.175,24.291-4.029,35.118-14.84,3.811-3.811,6.782-7.521,6.782-8.477s-2.971-4.667-6.782-8.477C85.51-391.75,73.188-396.9,61-395.678Zm9.149,3.66c9.585,1.746,18.65,7.353,26.809,16.6.856.957,1.746,2.031,2,2.384l.453.655-.453.655a62.289,62.289,0,0,1-5.372,5.959Q82.707-355.087,70.066-352.7a37.143,37.143,0,0,1-10.912,0q-14.63-2.745-26.893-16.636c-.856-.957-1.746-2.031-2-2.384l-.453-.655.453-.655a62.288,62.288,0,0,1,5.372-5.959c7.235-7.1,15.31-11.6,23.435-13.01a23.661,23.661,0,0,1,6.3-.436A32.029,32.029,0,0,1,70.15-392.018Z" transform="translate(0 -96.538)" fill="#2c704f"/>
    <path id="Path_496" data-name="Path 496" d="M178.9-345.452c-1.763.336-3.122.873-3.441,1.36a2.1,2.1,0,0,0-.269,1.024,1.274,1.274,0,0,0,.537,1.108c.621.554,1.058.554,2.854.034a11.646,11.646,0,0,1,8.226.873,8.859,8.859,0,0,1,3.055,2.233,8.842,8.842,0,0,1,2.2,3.039,11.152,11.152,0,0,1,0,10.391,8.967,8.967,0,0,1-2.216,3.038,8.967,8.967,0,0,1-3.038,2.216,11.186,11.186,0,0,1-10.408,0,8.648,8.648,0,0,1-3.055-2.233,8.842,8.842,0,0,1-2.2-3.038,10.991,10.991,0,0,1-1.209-6.245l.1-1.964-.5-.5a1.369,1.369,0,0,0-1.142-.5c-1.46,0-1.813.806-1.8,4.113a12.607,12.607,0,0,0,1.494,6.547,15.527,15.527,0,0,0,9.736,7.991,17.906,17.906,0,0,0,7.554,0,15.379,15.379,0,0,0,10.945-11.214,18.824,18.824,0,0,0-.1-7.185A15.476,15.476,0,0,0,185.382-345.2,17.586,17.586,0,0,0,178.9-345.452Z" transform="translate(-116.995 -138.32)" fill="#2c704f"/>
    <path id="Path_497" data-name="Path 497" d="M187.074-315.645A2.037,2.037,0,0,0,186-314.1a1.922,1.922,0,0,0,1.528,1.595,1.132,1.132,0,0,0,1.175-.4,1.28,1.28,0,0,0,.571-1.192A1.652,1.652,0,0,0,187.074-315.645Z" transform="translate(-133.141 -163.192)" fill="#2c704f"/>
    <path id="Path_498" data-name="Path 498" d="M221.292-295.623a6.61,6.61,0,0,0-4.952,5.456,6.637,6.637,0,0,0,1.88,5.708,6.637,6.637,0,0,0,5.708,1.88,6.661,6.661,0,0,0,5.573-5.573,6.68,6.68,0,0,0-1.847-5.691,6.21,6.21,0,0,0-3.173-1.779A5.724,5.724,0,0,0,221.292-295.623Zm3.408,3.643a5.093,5.093,0,0,1,1.041,1.041,2.453,2.453,0,0,1,.453,1.779,2.453,2.453,0,0,1-.453,1.779,3.037,3.037,0,0,1-2.82,1.494,2.543,2.543,0,0,1-1.729-.42,3.465,3.465,0,0,1-1.477-3.811,4.087,4.087,0,0,1,2.1-2.233A4.142,4.142,0,0,1,224.7-291.981Z" transform="translate(-158.311 -179.755)" fill="#2c704f"/>
    <path id="Path_499" data-name="Path 499" d="M64.848-128.8c-.638.118-8.158,7.705-8.276,8.36a1.709,1.709,0,0,0,1.981,1.981c.722-.134,8.226-7.638,8.36-8.36a1.71,1.71,0,0,0-.957-1.847c-.336-.134-.621-.235-.638-.235A2.7,2.7,0,0,1,64.848-128.8Z" transform="translate(-25.418 -318.679)" fill="#2c704f"/>
    <path id="Path_500" data-name="Path 500" d="M394.5-128.22a1.745,1.745,0,0,0-.923,1.847c.134.722,7.638,8.226,8.36,8.36a1.71,1.71,0,0,0,1.83-.923c.453-1.074.285-1.326-3.492-5.137-1.947-1.981-3.727-3.727-3.962-3.878A1.734,1.734,0,0,0,394.5-128.22Z" transform="translate(-305.85 -319.124)" fill="#2c704f"/>
    <path id="Path_501" data-name="Path 501" d="M247.074-85.722a2.1,2.1,0,0,0-.722.6c-.353.436-.353.571-.353,6.463v6.027l.47.5a1.8,1.8,0,0,0,1.058.6,1.132,1.132,0,0,0,1.175-.4l.571-.5v-12.49l-.554-.487A1.377,1.377,0,0,0,247.074-85.722Z" transform="translate(-183.069 -354.487)" fill="#2c704f"/>
  </g>
</svg>
