<svg xmlns="http://www.w3.org/2000/svg" width="225.909" height="285" viewBox="0 0 225.909 285">
  <g id="achievement" transform="translate(-53.222 511.663)">
    <path id="Path_528" data-name="Path 528" d="M161-511.294a28.336,28.336,0,0,0-8.523,4.233,15.906,15.906,0,0,1-8.356,3.008,32.961,32.961,0,0,1-5.626-.891,20.777,20.777,0,0,0-15.04,1.727c-4.011,1.95-6.183,4.011-10.361,9.692-2.228,3.119-5.737,4.958-10.751,5.682a22.278,22.278,0,0,0-19.218,17.324c-1.281,5.069-3.287,8.356-6.35,10.249-1.337.891-3.621,2.34-5.013,3.231-3.231,2.005-6.684,6.517-8.188,10.7-1,2.9-1.114,4.066-.78,10.027.39,7.966-.167,10.194-3.621,14.26-6.907,8.244-7.8,16.711-2.674,26.961,2.729,5.515,3.008,8.913,1.114,14.371-3.175,9.024-.334,18.215,7.8,25.345,4.233,3.732,5.236,5.9,6.016,13.09,1.114,10.751,6.072,16.822,16.711,20.443,3.342,1.17,6.74,3.509,6.74,4.623,0,.39-5.292,13.48-11.753,29.077-11.085,26.738-11.753,28.52-11.531,31.25a9.562,9.562,0,0,0,5.9,8.077c3.342,1.5,4.456,1.281,19.775-3.454,9.692-3.008,12.923-3.788,13.48-3.342.446.39,3.565,5.96,7.019,12.422,3.4,6.517,6.852,12.533,7.687,13.425a9.553,9.553,0,0,0,14.149-.056c1.058-1.17,5.4-10.974,13.7-31.027,6.74-16.154,12.366-29.523,12.533-29.69a.418.418,0,0,1,.668,0c.167.167,5.793,13.536,12.533,29.69,8.3,20.053,12.645,29.857,13.7,31.027a9.553,9.553,0,0,0,14.149.056c.836-.891,4.289-6.907,7.687-13.425,3.454-6.462,6.573-12.032,7.019-12.422.557-.446,3.732.334,13.48,3.342,15.374,4.735,16.433,4.958,19.775,3.454a9.562,9.562,0,0,0,5.9-8.077c.223-2.729-.446-4.512-11.531-31.25-6.462-15.6-11.753-28.687-11.753-29.077,0-1.114,3.4-3.454,6.74-4.623,4.846-1.671,7.687-3.286,10.472-6.127,3.9-3.844,5.57-7.687,6.239-14.316.78-7.186,1.783-9.358,6.016-13.09,8.133-7.13,10.974-16.377,7.8-25.345-1.95-5.4-1.671-8.8,1.114-14.427,5.125-10.194,4.233-18.661-2.674-26.9-3.454-4.066-4.011-6.294-3.621-14.26.334-5.96.223-7.13-.78-10.027-1.5-4.178-4.9-8.634-8.133-10.7-1.393-.891-3.676-2.34-5.069-3.175-3.064-1.95-5.069-5.18-6.35-10.305a22.34,22.34,0,0,0-19.218-17.324c-4.958-.724-8.523-2.562-10.751-5.682-4.178-5.682-6.35-7.743-10.361-9.692a20.777,20.777,0,0,0-15.04-1.727,32.961,32.961,0,0,1-5.626.891,16.47,16.47,0,0,1-8.523-3.119,21.68,21.68,0,0,0-12.31-4.456A30,30,0,0,0,161-511.294Zm9.581,8.634a17.083,17.083,0,0,1,4.122,2.172c5.57,4.289,11.976,5.515,19.886,3.9,4.289-.836,5.459-.891,7.687-.279a14.765,14.765,0,0,1,8.968,6.629c4.122,6.072,8.968,9.191,16.377,10.472,8.913,1.56,11.809,4.456,14.371,14.316,1.393,5.459,5.9,10.862,11.419,13.647a15.382,15.382,0,0,1,6.963,7.13c.891,1.894,1,3.565.891,10.305-.111,7.464,0,8.244,1.281,11.085a30.414,30.414,0,0,0,3.676,5.9c3.732,4.568,4.345,6.127,4.345,10.528,0,3.454-.223,4.4-2.34,8.356-3.565,6.963-4.066,12.756-1.56,19.719,1.17,3.231,1.114,8.133-.167,10.918a17.235,17.235,0,0,1-3.454,4.456c-7.576,6.963-9.135,9.8-10.194,18.549a33.243,33.243,0,0,1-1.671,7.743,14.3,14.3,0,0,1-7.8,6.629c-7.743,2.507-12.478,6.462-15.541,13.035-2.4,5.069-3.844,6.8-7.186,8.634-2.562,1.393-3.454,1.56-9.024,1.671-8.578.167-11.7,1.393-17.881,6.963a30.766,30.766,0,0,1-5.626,4.233c-3.175,1.337-7.631,1-12.366-1-3.788-1.56-4.9-1.782-9.581-1.782s-5.793.223-9.581,1.782c-4.735,2.005-9.191,2.34-12.366,1a30.767,30.767,0,0,1-5.626-4.233c-6.183-5.57-9.3-6.8-17.881-6.963-5.57-.111-6.462-.279-9.024-1.671-3.342-1.838-4.79-3.565-7.186-8.634-3.064-6.573-7.8-10.528-15.6-13.035a13.619,13.619,0,0,1-8.133-7.631,44.514,44.514,0,0,1-1.393-7.576c-.891-7.687-2.785-11.029-10.082-17.714a17.236,17.236,0,0,1-3.454-4.456c-1.281-2.785-1.337-7.687-.167-10.918,2.507-6.963,2.005-12.756-1.56-19.719-2.117-3.955-2.34-4.9-2.34-8.356,0-4.4.613-5.96,4.345-10.528a30.412,30.412,0,0,0,3.676-5.9c1.281-2.841,1.393-3.621,1.281-11.085-.111-6.74,0-8.411.891-10.305a16.07,16.07,0,0,1,7.241-7.3c5.96-3.064,9.748-8.021,11.753-15.541,1.281-4.735,2.34-6.629,5.125-8.968,2.228-1.894,3.565-2.4,8.8-3.286a22.848,22.848,0,0,0,16.21-10.472,14.765,14.765,0,0,1,8.968-6.629c2.228-.613,3.4-.557,7.687.279,7.91,1.615,14.149.446,19.663-3.788A13.968,13.968,0,0,1,170.577-502.659ZM101.171-306.639c.557,1.448,5.9,5.236,9.135,6.462,2.507,1,4.568,1.281,9.358,1.337,7.241.167,9.024.836,14.316,5.737a32.414,32.414,0,0,0,6.517,4.568c2.729,1.281,3.844,1.448,8.857,1.448,4.846,0,5.626.111,5.4.836-1.95,5.236-20.722,50.077-21.223,50.634a1.529,1.529,0,0,1-1.448.446c-.446-.111-3.676-5.737-7.186-12.366-3.454-6.684-7.186-12.979-8.133-13.982a10.054,10.054,0,0,0-8.188-2.785c-1,.167-7.464,2.117-14.483,4.289-7.019,2.117-13.09,3.788-13.536,3.565-.557-.167-.78-.78-.613-1.56.39-1.894,20.165-49.409,20.555-49.409C100.725-307.419,101-307.085,101.171-306.639Zm140.985,23.284c5.515,13.257,10.138,24.677,10.249,25.345.167.78-.056,1.393-.557,1.56-.5.223-6.517-1.448-13.48-3.565-6.963-2.172-13.48-4.066-14.483-4.233a9.77,9.77,0,0,0-8.3,2.729c-.947,1-4.679,7.3-8.133,13.982-3.509,6.629-6.74,12.255-7.186,12.366a1.529,1.529,0,0,1-1.448-.446c-.5-.557-19.273-45.4-21.223-50.634-.223-.724.557-.836,5.4-.836,5.013,0,6.127-.167,8.857-1.448a32.415,32.415,0,0,0,6.517-4.568c5.292-4.9,7.074-5.57,14.316-5.737,4.79-.056,6.852-.334,9.358-1.337,3.231-1.225,8.578-5.013,9.135-6.462.167-.446.446-.78.668-.78C232.018-307.419,236.7-296.557,242.156-283.355Z" fill="#2c704f"/>
    <path id="Path_529" data-name="Path 529" d="M177.539-464.493c-19.942,3.008-35.817,10.528-49.242,23.34a86.283,86.283,0,0,0-25.4,45.51c-1.56,7.966-.78,11.029,2.952,11.029,3.008,0,3.788-1.17,4.846-7.074a78.27,78.27,0,0,1,52.361-60.828,71.793,71.793,0,0,1,24.788-3.955,71.183,71.183,0,0,1,24.565,3.9,73.149,73.149,0,0,1,30.581,18.939,77.3,77.3,0,0,1,22,41.945c1.058,5.849,1.894,7.074,4.735,7.074,2.562,0,3.9-1.448,3.9-4.233,0-5.515-3.454-17.992-7.241-26.125a88.237,88.237,0,0,0-50.8-45.454c-9.3-3.119-14.2-3.9-25.791-4.122C184-464.66,178.486-464.6,177.539-464.493Z" transform="translate(-21.668 -20.843)" fill="#2c704f"/>
    <path id="Path_530" data-name="Path 530" d="M168.592-419.132a24.769,24.769,0,0,0-9.692,6.573c-4.122,5.459-4.846,9.135-4.846,25.4,0,11.252.111,12.867,1.114,14.984a8.356,8.356,0,0,0,2.729,3.342,3.6,3.6,0,0,1,2.005,3.008c.613,3.621,4.011,9.86,7.241,13.2l3.064,3.231v3.676a16.6,16.6,0,0,1-.223,3.732c-2.005,0-11.586,2.562-12.7,3.342a49.16,49.16,0,0,1-8.913,3.4,58.72,58.72,0,0,0-10.027,3.9,23.9,23.9,0,0,0-10.918,18.1c-.167,2.284-.39,4.122-.613,4.122-.613,0-5.96-7.91-8.3-12.255a86.784,86.784,0,0,1-8.745-26.849c-.446-3.454-1.783-5.069-4.178-5.069a3.723,3.723,0,0,0-3.175,1.5c-1.17,1.337-1.281,1.95-.947,4.178,4.679,33.812,27.128,60.828,59.157,71.356,9.637,3.119,15.987,4.122,26.849,4.122,10.918,0,17.268-1,27.016-4.178a83.72,83.72,0,0,0,34.258-21.112,86.286,86.286,0,0,0,24.732-50.189c.334-2.228.223-2.841-.947-4.178a3.723,3.723,0,0,0-3.175-1.5c-2.4,0-3.732,1.615-4.178,5.069a88.3,88.3,0,0,1-9.8,28.743c-2.674,4.456-6.74,10.305-7.241,10.361-.223,0-.446-1.838-.613-4.122a23.23,23.23,0,0,0-10.806-17.936,52.693,52.693,0,0,0-10.194-4.066,49.83,49.83,0,0,1-8.857-3.4c-1.114-.78-10.7-3.342-12.7-3.342a16.6,16.6,0,0,1-.223-3.732v-3.676l3.064-3.231c3.231-3.342,6.629-9.581,7.241-13.2a3.6,3.6,0,0,1,2.005-3.008,8.356,8.356,0,0,0,2.729-3.342c1-2.117,1.114-3.732,1.114-14.984,0-14.26-.446-16.934-3.454-19.83a16.624,16.624,0,0,0-4.456-2.9c-1.838-.78-2.674-1.448-2.674-2.172,0-1.783-3.119-5.459-5.682-6.74-2.34-1.114-3.231-1.17-18.048-1.114C175.054-419.911,170.43-419.689,168.592-419.132Zm32.976,8.3a6.408,6.408,0,0,1,1.114,2.952,6.863,6.863,0,0,0,5.9,5.57c3.454.446,3.955,1.56,3.955,8.634v6.016h-6.684v-2.4c-.056-3.008-1.671-6.573-3.732-8.077-2.785-2.005-6.072-2.451-16.1-2.228-7.854.111-9.748.334-11.531,1.226-3.231,1.615-4.9,4.178-5.236,8.133l-.334,3.342h-6.517v-6.295c0-7.854.891-11.085,3.732-13.87,3.732-3.621,4.4-3.732,20.332-3.788C198.171-411.612,200.9-411.444,201.569-410.832Zm-4.846,19.162c.334.223.724,1.838.891,3.621.446,5.793,4.233,8.745,11.141,8.745h3.788v1.615c0,1.281-.334,1.727-1.727,2.284-2.117.891-3.064,2.34-3.565,5.57-1.058,6.629-4.846,12.31-10.138,15.151a19.762,19.762,0,0,1-29.133-14.037c-.836-4.4-1.615-5.737-3.844-6.684-1.393-.557-1.727-1-1.727-2.284V-379.3H166.2c6.907,0,10.7-2.952,11.141-8.745.167-1.783.557-3.4.891-3.621s4.512-.446,9.247-.446S196.388-391.893,196.722-391.67Zm-9.247,47.738a53.633,53.633,0,0,0,6.016-.446l2.9-.5v2.172c0,1.95-.334,2.4-4.345,5.793l-4.345,3.732-4.568-3.732c-4.289-3.454-4.568-3.788-4.568-5.793v-2.172l2.952.5A51.691,51.691,0,0,0,187.476-343.932Zm-10.7,12.589a19.629,19.629,0,0,1,3.454,3.286c0,.724-9.08,6.183-9.525,5.737-1-1.114-7.241-9.748-7.074-9.915.111-.056,2.172-.5,4.623-.947,2.451-.5,4.568-.891,4.735-.947A31.567,31.567,0,0,1,176.781-331.343Zm30.191-1.727c2.284.39,4.289.836,4.4.891.5.446-7.353,10.194-7.91,9.86-.39-.223-2.507-1.56-4.735-3.064l-4.011-2.729,3.454-3.064c1.95-1.671,3.788-2.9,4.066-2.785C202.571-333.85,204.688-333.46,206.972-333.07ZM160.459-322.1c4.958,6.8,6.629,8.3,9.525,8.634,1.058.111,2.841,1.17,4.679,2.785l2.952,2.618-3.788,12.7c-2.117,6.963-3.9,12.812-4.011,12.923-.279.39-5.292-1.17-11.029-3.342a80.5,80.5,0,0,1-19.552-11.141l-3.565-2.841v-7.3c.056-7.966.557-10.249,3.064-13.48,2.172-2.952,5.236-4.735,11.029-6.462,2.785-.836,5.292-1.56,5.515-1.56C155.5-328.613,157.786-325.661,160.459-322.1Zm65.563-4.623c5.682,1.727,8.913,3.955,11.308,7.854C239-316.192,239-316.136,239-307.78v8.411l-5.013,3.788a85.465,85.465,0,0,1-11.7,7.019c-6.963,3.454-16.21,6.629-16.99,5.793-.279-.223-2.172-6.072-4.233-12.923l-3.788-12.478,3.064-2.618c2.117-1.894,3.621-2.785,5.125-2.952,2.729-.39,4.289-1.838,9.748-9.135,2.841-3.844,4.512-5.682,5.125-5.515C220.786-328.224,223.349-327.5,226.022-326.72Zm-34.369,6.629,3.565,2.4-2.061,2.061c-2.005,1.95-2.284,2.061-5.737,2.061-3.4,0-3.732-.111-5.57-2.005-1.56-1.615-1.727-2.061-1.058-2.451.446-.279,2.117-1.393,3.621-2.451a19.59,19.59,0,0,1,3.231-1.95A18.963,18.963,0,0,1,191.653-320.091Zm1.5,26.96,3.621,12.143-2.284.39a73.859,73.859,0,0,1-14.037,0l-2.228-.39,3.621-12.143,3.621-12.088h4.011Z" transform="translate(-21.299 -40.636)" fill="#2c704f"/>
  </g>
</svg>
