<svg xmlns="http://www.w3.org/2000/svg" width="63.738" height="37.596" viewBox="0 0 63.738 37.596">
  <g id="mail_6_" data-name="mail (6)" transform="translate(-0.16 407)">
    <path id="Path_531" data-name="Path 531" d="M93.808-406.651a1.443,1.443,0,0,0-.349,1.693c.373.884-1.519.822,24.487.822,25.645,0,24-.05,24.4.71.261.486.261,29.965,0,30.45-.4.759,1.245.71-24.4.71-26.006,0-24.114-.062-24.487.822a1.443,1.443,0,0,0,.349,1.693l.373.349h47.842l.7-.286a4.215,4.215,0,0,0,2.54-2.838c.274-1.008.274-30.338,0-31.347a4.215,4.215,0,0,0-2.54-2.838l-.7-.286H94.181Z" transform="translate(-81.567)" fill="#2c704f"/>
    <path id="Path_532" data-name="Path 532" d="M139.829-360.435a1.69,1.69,0,0,0-.56,2.216c.486.585,16.059,12.25,16.918,12.673a7.2,7.2,0,0,0,6.386.075c.672-.324,16.084-12.026,16.657-12.636a1.82,1.82,0,0,0,.361-.747c.212-1.344-1.245-2.067-2.415-1.22-.286.2-3.747,2.851-7.706,5.876s-7.507,5.689-7.868,5.913a4.487,4.487,0,0,1-4.357.112c-.324-.174-4.033-2.95-8.241-6.175s-7.743-5.9-7.843-5.963A2.082,2.082,0,0,0,139.829-360.435Z" transform="translate(-121.601 -40.714)" fill="#2c704f"/>
    <path id="Path_533" data-name="Path 533" d="M1.2-325.84a1.43,1.43,0,0,0-.548,2.452l.386.324H13.809l.386-.386a1.064,1.064,0,0,0,.386-.971,1.275,1.275,0,0,0-.971-1.382C13.149-325.927,1.7-325.964,1.2-325.84Z" transform="translate(0 -70.989)" fill="#2c704f"/>
    <path id="Path_534" data-name="Path 534" d="M36.358-267.6a1.289,1.289,0,0,0-1.033.921,1.539,1.539,0,0,0,.5,1.681c.311.224.7.237,6.573.237,6.8,0,6.722.012,7.1-.71a1.511,1.511,0,0,0-.436-1.93c-.3-.212-.809-.224-6.361-.237C39.371-267.645,36.52-267.633,36.358-267.6Z" transform="translate(-30.728 -122.013)" fill="#2c704f"/>
    <path id="Path_535" data-name="Path 535" d="M373.2-243.7a1.553,1.553,0,0,0-.535,1.419,113.159,113.159,0,0,0,9.7,9.7,1.422,1.422,0,0,0,1.581-2.1c-.3-.448-8.366-8.553-8.938-8.976A1.353,1.353,0,0,0,373.2-243.7Z" transform="translate(-326.113 -142.684)" fill="#2c704f"/>
    <path id="Path_536" data-name="Path 536" d="M70.785-208.852a1.467,1.467,0,0,0,.286,2.589c.3.087,2.577.137,6.262.137s5.963-.05,6.262-.137a1.446,1.446,0,0,0,.249-2.589C83.446-209.039,71.158-209.027,70.785-208.852Z" transform="translate(-61.258 -173.362)" fill="#2c704f"/>
  </g>
</svg>
