<svg xmlns="http://www.w3.org/2000/svg" width="26.325" height="19.424" viewBox="0 0 26.325 19.424">
  <g id="pointing-right" transform="translate(-0.625 444.691)">
    <path id="Path_539" data-name="Path 539" d="M9.939-444.655a6.791,6.791,0,0,0-3.27,1.267,58.692,58.692,0,0,0-4.439,4.475,8.84,8.84,0,0,0-1.54,3.759,12.4,12.4,0,0,0,0,2.549,8.547,8.547,0,0,0,2.451,4.815,8.581,8.581,0,0,0,4.892,2.456c.36.051,1.452.067,4.892.067,4.2,0,4.444-.005,4.712-.1a2.615,2.615,0,0,0,1.674-1.679,2.67,2.67,0,0,0-.2-1.916c-.057-.108-.1-.2-.082-.206s.154-.088.319-.17a2.5,2.5,0,0,0,1.04-3.337,1.737,1.737,0,0,1-.118-.263,2.621,2.621,0,0,0,1.545-1.648,2.67,2.67,0,0,0-.077-1.648c-.077-.165-.139-.309-.139-.319s.726-.021,1.617-.021a6.659,6.659,0,0,0,1.952-.1,2.512,2.512,0,0,0,1.7-2.961,2.542,2.542,0,0,0-1.8-1.849,33.306,33.306,0,0,0-4.4-.082H16.6l-.778-.752a8.068,8.068,0,0,0-2.07-1.6A6.824,6.824,0,0,0,9.939-444.655Zm2.034,1.385a5.521,5.521,0,0,1,2.472,1.38l.324.3-1.885.026-1.88.026-.134.124a.623.623,0,0,0,0,.937l.134.124,6.88.026,6.885.026.206.108a1.238,1.238,0,0,1,.572,1.684,1.3,1.3,0,0,1-.314.417c-.386.3-.242.288-4.825.288a28.33,28.33,0,0,0-4.4.082A.615.615,0,0,0,16-436.642a7.329,7.329,0,0,0,1.761.072c.891,0,1.741.021,1.885.052a1.237,1.237,0,0,1,.288,2.348c-.242.118-.314.124-1.365.124-1.267,0-1.4.031-1.565.376a.575.575,0,0,0,.124.7c.165.165.391.216,1,.216a1.17,1.17,0,0,1,.942.366,1.217,1.217,0,0,1,.34.87,1.159,1.159,0,0,1-.711,1.112c-.232.113-.33.124-1.03.124-.886.005-1.076.051-1.246.3a.573.573,0,0,0-.015.659c.124.206.216.257.618.319a1.333,1.333,0,0,1,.953.592.927.927,0,0,1,.154.649.927.927,0,0,1-.154.649,1.392,1.392,0,0,1-.407.407l-.252.154-4.305.015c-3.069.01-4.434,0-4.763-.041a7.391,7.391,0,0,1-5.629-4.042,7.352,7.352,0,0,1,.062-6.607c.489-.942.757-1.262,2.678-3.182,1.947-1.952,2.24-2.194,3.11-2.565a6.46,6.46,0,0,1,1.37-.407,9.48,9.48,0,0,1,.953-.01A4.894,4.894,0,0,1,11.974-443.27Z" transform="translate(0 0)" fill="#2c704f"/>
  </g>
</svg>
