<svg xmlns="http://www.w3.org/2000/svg" width="78.296" height="76.991" fill="#fff" xmlns:v="https://vecta.io/nano"><path d="M42.681 38.225c-.329-.334-.811-.466-1.264-.346s-.807.474-.927.926.011.935.345 1.264l1.3 1.3c.511.503 1.332.501 1.839-.006s.51-1.328.007-1.839zm-7.066 0l-1.3 1.3c-.503.511-.5 1.332.007 1.839s1.328.51 1.839.006l1.3-1.3c.334-.329.465-.811.345-1.264s-.474-.806-.927-.926-.935.012-1.264.346zM77.285 70.5l-16.733-3.862-1.649-1.1a11.02 11.02 0 0 0 1.124-4.86c.008-4.681 3.801-8.472 8.482-8.478h8.482c.721 0 1.305-.584 1.305-1.305s-.584-1.305-1.305-1.305h-8.482c-6.123.004-11.086 4.966-11.092 11.089a8.43 8.43 0 0 1-.711 3.395l-3.3-2.2-.848-5.934a15.96 15.96 0 0 0 1.368-2.647 24.81 24.81 0 0 0 6.089-15.58c3.043-.62 5.23-3.295 5.232-6.4v-2.61c-.004-3.099-2.184-5.769-5.22-6.393v-2.736A18.85 18.85 0 0 0 53.866 5.42C49.805 1.845 44.557-.087 39.148 0 33.739-.087 28.491 1.845 24.43 5.42a18.85 18.85 0 0 0-6.161 14.154v2.741c-3.036.624-5.216 3.294-5.22 6.393v2.61c.002 3.105 2.188 5.78 5.231 6.4a24.81 24.81 0 0 0 6.089 15.58 15.96 15.96 0 0 0 1.368 2.647l-.848 5.934-7.146 4.764L1.011 70.5A1.3 1.3 0 0 0 0 71.771v3.915a1.3 1.3 0 0 0 1.3 1.3h75.691a1.3 1.3 0 0 0 1.3-1.3v-3.915a1.3 1.3 0 0 0-1.006-1.271zM60.027 25.017a3.92 3.92 0 0 1 2.61 3.691v2.61a3.92 3.92 0 0 1-2.61 3.691zM18.269 35.01a3.92 3.92 0 0 1-2.61-3.691v-2.61a3.92 3.92 0 0 1 2.61-3.691zM55.3 66.274c-2.022 2.305-5.131 3.338-8.13 2.702a8.48 8.48 0 0 1-6.334-5.769 15.85 15.85 0 0 0 9.479-4.5l.588 4.116a1.3 1.3 0 0 0 .568.9zm2.115-29.736v.455a22.21 22.21 0 0 1-2.236 9.717A26.02 26.02 0 0 0 52.9 35.07a12.68 12.68 0 0 0 4.521-1.662zM20.879 19.574a16.27 16.27 0 0 1 5.306-12.222A19.15 19.15 0 0 1 39.148 2.61a19.15 19.15 0 0 1 12.964 4.742c3.433 3.13 5.363 7.577 5.306 12.222v10.633l-.344.272c-1.55 1.219-3.425 1.953-5.39 2.112l-.036-.073c-2.366-4.736-7.206-7.728-12.5-7.728s-10.134 2.992-12.5 7.728l-.036.073c-1.965-.159-3.84-.893-5.39-2.112l-.345-.272zm2.235 27.132c-1.471-3.027-2.236-6.348-2.235-9.713v-3.585A12.68 12.68 0 0 0 25.4 35.07a26.02 26.02 0 0 0-2.286 11.636zM28.2 35.251l.783-1.566c1.925-3.85 5.86-6.281 10.164-6.281s8.239 2.432 10.164 6.281l.783 1.566a23.48 23.48 0 0 1 2.217 14.142c-.923 6.013-5.805 10.636-11.86 11.23v-.6a1.3 1.3 0 0 0 1.266-.988l1.117-4.467a2.61 2.61 0 0 0 1.534-2.368v-6.527a1.3 1.3 0 0 0-1.3-1.3h-7.83a1.3 1.3 0 0 0-1.3 1.3V52.2a2.61 2.61 0 0 0 1.532 2.374l1.117 4.467a1.3 1.3 0 0 0 1.266.988v.6c-6.06-.591-10.947-5.217-11.869-11.235-.752-4.83.023-9.774 2.216-14.143zM36.538 52.2v-5.22h5.22v5.22zm3.548 2.61l-.652 2.61h-.572l-.652-2.61zm35.6 19.574H2.61v-1.575l15.953-3.681a1.3 1.3 0 0 0 .43-.186l7.83-5.22a1.3 1.3 0 0 0 .568-.9l.588-4.116a15.84 15.84 0 0 0 10.172 4.561c.979 4.09 4.189 7.274 8.286 8.22a11.09 11.09 0 0 0 11.052-3.753l1.811 1.209a1.33 1.33 0 0 0 .43.186l15.953 3.681zM30.008 49.588a1.3 1.3 0 0 0 1.3-1.3v-4.873a11.27 11.27 0 0 1 1.184-5.016l.159-.318a11.26 11.26 0 0 1 6.487-5.625 11.26 11.26 0 0 1 6.487 5.625l.159.317a11.27 11.27 0 0 1 1.184 5.017v4.873c0 .721.584 1.305 1.305 1.305s1.305-.584 1.305-1.305v-4.873a13.9 13.9 0 0 0-1.46-6.184l-.159-.317c-1.719-3.425-4.777-5.986-8.451-7.077a1.3 1.3 0 0 0-.739 0c-3.674 1.091-6.732 3.652-8.451 7.077l-.159.318a13.9 13.9 0 0 0-1.46 6.184v4.873a1.3 1.3 0 0 0 1.309 1.299z"/><ellipse cx="28.417" cy="22.475" rx="3" ry=".5"/><ellipse cx="49.417" cy="22.475" rx="3" ry=".5"/></svg>