<svg xmlns="http://www.w3.org/2000/svg" width="63.849" height="63.631" fill="#fff" xmlns:v="https://vecta.io/nano"><path d="M38.338 14.749c-.016-.016-.033-.033-.049-.033-4.778-3.46-5.816-11.516-5.832-11.632a1.32 1.32 0 1 0-2.62.313c.049.362 1.12 8.93 6.541 13.18a13.864 13.864 0 0 1-1.021 2.158c-.181.33-.33.593-.428.807a.278.278 0 0 0-.033.082l-.758 2.208a28.3 28.3 0 0 1-3.2 7.266 28.3 28.3 0 0 1-6.03 6.458 24 24 0 0 1-3.987 2.076 30.812 30.812 0 0 0-3.954 2.01 19.177 19.177 0 0 0-1.977 1.466 7.73 7.73 0 0 1-3.9 2.125c-.247.016-.478.049-.708.066a10.435 10.435 0 0 0-4.731 1.237C-.182 47.98-.05 55.904.016 59.71a1.318 1.318 0 0 0 1.318 1.3h.016a1.333 1.333 0 0 0 1.3-1.335v-.016c-.113-5.32.35-10.542 4.302-12.863a8.007 8.007 0 0 1 3.625-.873c.247-.016.494-.049.741-.066 2.241-.214 3.855-1.532 5.305-2.685a16.807 16.807 0 0 1 1.73-1.285 25.724 25.724 0 0 1 3.625-1.829 26.424 26.424 0 0 0 4.415-2.323 31.7 31.7 0 0 0 6.689-7.117 30.9 30.9 0 0 0 3.542-7.941l.725-2.109c.066-.115.181-.346.313-.56.938-1.701 2.225-4.024.676-5.259zm22.468 4.283a16.269 16.269 0 0 0-12.571-8.814h-.066a9.262 9.262 0 0 0-.939-.033 3.479 3.479 0 0 1-1.5-.214c-.016 0-.016-.016-.033-.016-1.054-.593-5.206-5.355-5.437-8.732a1.313 1.313 0 1 0-2.62.181c.28 4.382 4.926 9.8 6.755 10.857a5.436 5.436 0 0 0 2.8.577 5.341 5.341 0 0 1 .741.033 13.465 13.465 0 0 1 10.544 7.463 26.8 26.8 0 0 1 2.726 13.345c-.511 12.587-6.738 21.715-17.546 25.718-3.064 1.153-13.724 3.476-22.308-.972a.016.016 0 0 1-.016-.016 13.725 13.725 0 0 1-4.614-4.169l-.016-.033c-1.236-1.664-2.916-3.954-6.228-2.653-3.672 1.386-3.672 6.706-3.672 8.964a1.318 1.318 0 0 0 2.636 0c0-1.582 0-5.75 1.977-6.508h.016c1.3-.511 1.8-.1 3.163 1.746l.033.033.016.016a16.036 16.036 0 0 0 5.519 4.926 27.835 27.835 0 0 0 12.917 2.9 42.73 42.73 0 0 0 2.043-.049 34.555 34.555 0 0 0 9.457-1.763A28.163 28.163 0 0 0 58.57 51.028a32.939 32.939 0 0 0 5.256-17.3 29.541 29.541 0 0 0-3.02-14.696zm-3.947 12.571a3.414 3.414 0 0 0-2.389-2.125h-.049c-.708-.066-2.076.115-3.246 2.175a20.768 20.768 0 0 1-10.1 7.711c-4.91 1.911-9.885 2.241-15.157 2.57a14.125 14.125 0 0 0-4.448.857 6.908 6.908 0 0 0-2.718 11.5 12.82 12.82 0 0 0 5.074 3.081 24.5 24.5 0 0 0 8.5 1.483 26.926 26.926 0 0 0 6.277-.758 28.716 28.716 0 0 0 12.9-7.2 21.217 21.217 0 0 0 5.75-8.683 13.8 13.8 0 0 0-.394-10.611zM54.75 41.34a.057.057 0 0 1-.016.033 18.6 18.6 0 0 1-5.074 7.612 26.046 26.046 0 0 1-11.7 6.557 22.869 22.869 0 0 1-13.246-.643 10.5 10.5 0 0 1-4.036-2.405 4.281 4.281 0 0 1 1.73-7.249c.016 0 .016 0 .033-.016a11.611 11.611 0 0 1 3.641-.675c5.223-.33 10.643-.676 15.915-2.735a22.739 22.739 0 0 0 11.385-8.765.36.36 0 0 0 .049-.082 2.6 2.6 0 0 1 .643-.824 1.9 1.9 0 0 1 .346.544c0 .016.016.033.033.049a11.152 11.152 0 0 1 .294 8.599z"/></svg>