<svg xmlns="http://www.w3.org/2000/svg" width="53.554" height="74.92" fill="#fff" xmlns:v="https://vecta.io/nano"><path d="M49.141 45.9v.01a1.444 1.444 0 1 0 0-.01zm4.037 4.265a1.463 1.463 0 0 0-2.89.457 27.71 27.71 0 0 1 .268 6.3 16.534 16.534 0 0 1-6.75 12.188l-.989.722a11.243 11.243 0 0 1-9.219 1.861l-3.878-.916a36.4 36.4 0 0 1-19.25-11.71A21.075 21.075 0 0 1 6.545 52.7a1.455 1.455 0 0 0 .054-.623c-.008-.063-.728-6.383 8.185-10.44a20.645 20.645 0 0 0 9.968-9.593c6.7.925 9.008 2.811 9.179 2.959a1.372 1.372 0 0 0 1.347.382l.362-.079a10.366 10.366 0 0 1 11.5 5.935 1.463 1.463 0 0 0 2.672-1.194 13.406 13.406 0 0 0-5.347-6.014.152.152 0 0 1 .005-.015 9.772 9.772 0 0 0 .444-2.921c0-.2-.008-.4-.019-.594h1.015a1.464 1.464 0 0 0 0-2.927h-1.652a9.781 9.781 0 0 0-1.55-2.66l.662-.662a1.463 1.463 0 0 0-2.069-2.07l-.766.766a9.719 9.719 0 0 0-4.027-1.53 11.18 11.18 0 0 1 7.59-2.179 1.463 1.463 0 0 0 1.513-1.462v-5.573a1.463 1.463 0 0 0-1.343-1.458 35.3 35.3 0 0 0-6.54.2A14.783 14.783 0 0 0 31.314 4.3l1.036-1.546a1.463 1.463 0 0 0-2.432-1.624l-1.483 2.214a10.456 10.456 0 0 0-3.05-.118V1.463a1.464 1.464 0 0 0-2.927 0v2.5a12.55 12.55 0 0 0-3.86 2.524 15.831 15.831 0 0 0-2.39 2.876 3.329 3.329 0 0 0-2.967-1.827H9.268a3.329 3.329 0 0 0-3.326 3.326V25.82a15.4 15.4 0 0 0-2.124 2.017C.61 31.5-.029 36.29-.002 39.668A21.9 21.9 0 0 0 2.417 49.88l.612 1.714a25.158 25.158 0 0 0 5.217 9.369 39.341 39.341 0 0 0 20.806 12.663l3.877.916a14.17 14.17 0 0 0 11.613-2.348l.989-.722a19.455 19.455 0 0 0 7.943-14.341 30.607 30.607 0 0 0-.3-6.964zM35.322 32.387a14.307 14.307 0 0 0-3.167-1.582 16.3 16.3 0 0 1 1.9-6.469 6.983 6.983 0 0 1 1.083-.086 6.851 6.851 0 0 1 6.632 8.56 13.139 13.139 0 0 0-6.452-.424zm7.363-18.771v2.707a13.1 13.1 0 0 0-8.905 3.607c-3.216 3.147-4.186 7.518-4.477 10a40.756 40.756 0 0 0-5.029-.9q-.667-.618-1.329-1.168c0-.035.005-.07.005-.106a12.222 12.222 0 0 1 3.774-9.4c4.763-4.393 12.792-4.769 15.961-4.738zM26.507 6.092a7.687 7.687 0 0 1 2.159.313 10.734 10.734 0 0 1 6 5.052 21.129 21.129 0 0 0-9.918 4.743 14.547 14.547 0 0 0-4.632 9.615 17.3 17.3 0 0 0-3.551-1.71v-8.466a1.6 1.6 0 0 0 .067-.182c1.614-5.6 5.582-9.366 9.874-9.366zm-17.638 4.77a.4.4 0 0 1 .4-.4h3.972a.4.4 0 0 1 .4.4V23.47a11.053 11.053 0 0 0-1.46-.033 10.335 10.335 0 0 0-3.31.7zM6.018 29.766a8.891 8.891 0 0 1 6.291-3.4c2.911-.13 6.261 1.452 9.715 4.582a17.931 17.931 0 0 1-8.453 8.031c-5.6 2.549-7.99 6.007-9.01 8.458l-.05.123c-1.85-4.1-2.844-12.827 1.507-17.79zm12.538 29.081a1.463 1.463 0 1 0-1.869 2.252 33.717 33.717 0 0 0 13.709 6.828 1.463 1.463 0 0 0 .673-2.848 30.782 30.782 0 0 1-12.513-6.232zm-5.699-3.734a1.474 1.474 0 1 0 2.1.186l-.03-.035a1.467 1.467 0 0 0-2.07-.151zm0 0"/></svg>