<svg xmlns="http://www.w3.org/2000/svg" width="69.522" height="67.1" fill="#fff" xmlns:v="https://vecta.io/nano"><path d="M68.5 55.046h-6.515a11.036 11.036 0 0 0-21.978 0H1.018a1.018 1.018 0 1 0 0 2.037h38.989a11.036 11.036 0 0 0 16.333 8.636 1.018 1.018 0 0 0-.988-1.781 9 9 0 1 1 4.642-7.874 8.911 8.911 0 0 1-1.862 5.479 1.019 1.019 0 1 0 1.615 1.242 10.916 10.916 0 0 0 2.239-5.7H68.5a1.018 1.018 0 0 0 0-2.037zM1.018 26.41H8.1a1.018 1.018 0 1 0 0-2.037H1.018a1.018 1.018 0 1 0 0 2.037zm67.481 4.13a10.331 10.331 0 0 0-4.417.889 9.387 9.387 0 0 1-7.309 0 11.42 11.42 0 0 0-8.834 0 8.448 8.448 0 0 1-2.288.661 11.071 11.071 0 0 0 .044-3.389 1.965 1.965 0 0 1 .471-1.585 2.048 2.048 0 0 1 1.548-.707h20.785a1.018 1.018 0 1 0 0-2.037H47.718a4.085 4.085 0 0 0-3.086 1.408 4.027 4.027 0 0 0-.949 3.207 8.963 8.963 0 0 1 .089 1.259 8.875 8.875 0 0 1-9.075 8.873 8.9 8.9 0 0 1-8.664-8.4 8.994 8.994 0 0 1 .071-1.694 4.107 4.107 0 0 0-.969-3.262 4.058 4.058 0 0 0-3.061-1.392h-9.9a1.018 1.018 0 1 0 0 2.037h9.9a2 2 0 0 1 1.525.693 2.071 2.071 0 0 1 .487 1.645 11.062 11.062 0 0 0-.087 2.081 10.826 10.826 0 0 0 .146 1.295 8.231 8.231 0 0 1-2.567-.692 10.329 10.329 0 0 0-4.417-.889 10.329 10.329 0 0 0-4.417.889 8.267 8.267 0 0 1-3.654.741 8.268 8.268 0 0 1-3.655-.741 10.33 10.33 0 0 0-4.417-.889 1.019 1.019 0 0 0 0 2.037 8.268 8.268 0 0 1 3.655.741 10.329 10.329 0 0 0 4.417.889 10.331 10.331 0 0 0 4.417-.889 8.266 8.266 0 0 1 3.655-.741 8.267 8.267 0 0 1 3.654.741 10.191 10.191 0 0 0 3.91.88 10.962 10.962 0 0 0 9.926 6.959 10.938 10.938 0 0 0 10.428-6.972 10.172 10.172 0 0 0 3.625-.867 9.386 9.386 0 0 1 7.309 0 11.42 11.42 0 0 0 8.834 0 8.267 8.267 0 0 1 3.655-.741 1.018 1.018 0 1 0 0-2.037zM56.297 52.8h-2.042v-2.042a1.6 1.6 0 0 0-1.6-1.6h-3.322a1.6 1.6 0 0 0-1.6 1.6V52.8h-2.042a1.6 1.6 0 0 0-1.6 1.6v3.322a1.6 1.6 0 0 0 1.6 1.6h2.042v2.042a1.6 1.6 0 0 0 1.6 1.6h3.322a1.6 1.6 0 0 0 1.6-1.6v-2.042h2.042a1.6 1.6 0 0 0 1.6-1.6V54.4a1.6 1.6 0 0 0-1.6-1.6zm-.434 4.491h-2.042a1.6 1.6 0 0 0-1.6 1.6v2.042h-2.454v-2.042a1.6 1.6 0 0 0-1.6-1.6h-2.042v-2.454h2.042a1.6 1.6 0 0 0 1.6-1.6v-2.042h2.454v2.042a1.6 1.6 0 0 0 1.6 1.6h2.042zM9.305 46.442a2.543 2.543 0 0 0 3.337 0c.211-.165.244-.191.413-.191s.2.026.413.191a2.481 2.481 0 0 0 1.669.624 1.018 1.018 0 1 0 0-2.037c-.169 0-.2-.026-.413-.191a2.543 2.543 0 0 0-3.337 0c-.211.166-.244.191-.413.191s-.2-.026-.413-.191a2.481 2.481 0 0 0-1.668-.624 1.018 1.018 0 1 0 0 2.037c.165 0 .198.023.412.191zm54.83-8.433c-.169 0-.2-.026-.413-.191a2.543 2.543 0 0 0-3.337 0c-.211.165-.244.191-.413.191s-.2-.026-.413-.191a2.481 2.481 0 0 0-1.668-.624 1.018 1.018 0 1 0 0 2.037c.169 0 .2.026.413.191a2.543 2.543 0 0 0 3.337 0c.211-.165.244-.191.413-.191s.2.026.413.191a2.481 2.481 0 0 0 1.669.624 1.018 1.018 0 0 0 0-2.037zM29.361 50.977a2.543 2.543 0 0 0 3.337 0c.211-.165.244-.191.413-.191s.2.026.413.191a2.481 2.481 0 0 0 1.669.624 1.018 1.018 0 1 0 0-2.037c-.169 0-.2-.026-.413-.191a2.543 2.543 0 0 0-3.337 0c-.211.166-.244.191-.413.191s-.2-.026-.413-.191a2.481 2.481 0 0 0-1.668-.624 1.018 1.018 0 1 0 0 2.037c.168 0 .201.026.412.191zM18.419 40.64a1.019 1.019 0 0 0 .94-.625l.921-2.2a1.018 1.018 0 0 0-1.878-.788l-.921 2.2a1.019 1.019 0 0 0 .939 1.412zm31.058.535a1.018 1.018 0 0 0 1.387-1.491l-1.744-1.623a1.019 1.019 0 0 0-1.388 1.491zM5.843 39.753a1.018 1.018 0 1 0 1.273-1.59l-1.86-1.489a1.018 1.018 0 1 0-1.273 1.59zm11.023 11.331a1.017 1.017 0 0 0 1.347.509l2.172-.98a1.018 1.018 0 1 0-.838-1.856l-2.172.98a1.018 1.018 0 0 0-.509 1.347zm46.33-5.431l-.921 2.2a1.018 1.018 0 1 0 1.878.788l.921-2.2a1.018 1.018 0 1 0-1.878-.788zM28.788 26.217a6.317 6.317 0 0 0 1.079 6.736 6.23 6.23 0 0 0 4.688 2.141 6.378 6.378 0 0 0 5.921-3.986 12.4 12.4 0 0 0-.119-8.765 27.4 27.4 0 0 0-4.877-8.412l-.052-.065-.041-.051a1.018 1.018 0 0 0-1.59 1.273l.032.041.079.1c4.535 5.5 6.284 11.154 4.68 15.116a4.3 4.3 0 1 1-7.929-3.32c1.556-3.608 1.482-7.639-.221-11.979-2.25-5.736-.848-9.281.672-11.22a16.524 16.524 0 0 0 .556 7.307 1.018 1.018 0 1 0 1.935-.635 15.954 15.954 0 0 1 .139-9.137A1.018 1.018 0 0 0 32.308.117a10.028 10.028 0 0 0-3.6 3.644c-2.419 4.13-1.426 8.821-.168 12.029 1.5 3.822 1.582 7.331.247 10.428z"/></svg>