<svg xmlns="http://www.w3.org/2000/svg" width="64.738" height="67.489" fill="#fff" xmlns:v="https://vecta.io/nano"><path d="M37.298 19.932H20.651a.991.991 0 0 0 0 1.981h16.648a.991.991 0 0 0 0-1.981zm-16.647 5.535h9.357a.991.991 0 0 0 0-1.981h-9.357a.991.991 0 0 0 0 1.981zm-4.986-5.94l-3.646 3.739-1.577-1.534a.992.992 0 1 0-1.382 1.423l2.286 2.223a1 1 0 0 0 1.4-.019l4.337-4.447a.991.991 0 1 0-1.418-1.383zM37.298 30.02H20.651a.991.991 0 0 0 0 1.981h16.648a.991.991 0 0 0 0-1.981zm-7.291 3.554H20.65a.991.991 0 0 0 0 1.981h9.357a.991.991 0 0 0 0-1.981zm-14.342-3.958l-3.646 3.739-1.577-1.534a.991.991 0 0 0-1.381 1.42l2.286 2.223a1 1 0 0 0 1.4-.019l4.337-4.447a.991.991 0 1 0-1.418-1.383zm0 10.088l-3.646 3.739-1.577-1.534a.991.991 0 0 0-1.381 1.42l2.286 2.223a1 1 0 0 0 1.4-.019l4.337-4.447a.99.99 0 1 0-1.418-1.383zm0 10.088l-3.646 3.739-1.577-1.534A.992.992 0 1 0 9.06 53.42l2.286 2.223a1 1 0 0 0 1.4-.019l4.337-4.447a.991.991 0 0 0-1.418-1.383zm40.88-15.261c2.1-3.152 1.624-7.49 1.6-7.7a.991.991 0 0 0-.87-.87c-.23-.027-5.681-.619-8.8 2.5a6.946 6.946 0 0 0-.473.529v-6.851a.991.991 0 0 0-1.981 0v9.45a12.567 12.567 0 0 0-2.715-3.048V11.215a.991.991 0 0 0-.991-.991h-6.907V7.455h9.037A1.577 1.577 0 0 1 46.02 9.03v9.146a.991.991 0 0 0 1.981 0V9.03a3.56 3.56 0 0 0-3.556-3.556h-9.231a2.683 2.683 0 0 0-2.487-1.685h-3.278V2.332A2.334 2.334 0 0 0 27.117 0h-6.233a2.334 2.334 0 0 0-2.332 2.332v1.457h-3.278a2.683 2.683 0 0 0-2.487 1.685H3.556A3.56 3.56 0 0 0 0 9.03v54.877a3.56 3.56 0 0 0 3.556 3.556h38.832a6.341 6.341 0 0 0 4.623-1.476 6.355 6.355 0 0 0 4.08 1.5 6.679 6.679 0 0 0 .873-.058c3.316-.438 6.645-3.272 9.135-7.776a.99.99 0 1 0-1.736-.953c-2.15 3.89-5.014 6.42-7.66 6.77a4.517 4.517 0 0 1-3.98-1.513 1 1 0 0 0-1.426 0 4.53 4.53 0 0 1-5.183 1.21c-2.243-.826-4.553-3.1-6.338-6.252a29.047 29.047 0 0 1-3.488-12.294 9.4 9.4 0 0 1 2.447-7.321c2.413-2.568 6.616-4.142 11.684-4.414.093.269.179.543.253.824a12.262 12.262 0 0 1 .4 3.076 7.017 7.017 0 0 1-3.047-1.174.99.99 0 1 0-1.228 1.554 8.971 8.971 0 0 0 5.213 1.666h.007a8.971 8.971 0 0 0 5.207-1.666 1 1 0 0 0 0-1.546 8.625 8.625 0 0 0 2.891-1.508c6.668 2.349 7.832 6.987 7.613 10.51a30.19 30.19 0 0 1-1.785 8.6.991.991 0 0 0 1.858.687 32.168 32.168 0 0 0 1.9-9.167c.352-5.664-2.536-9.955-8.164-12.211zM14.574 6.469a.7.7 0 0 1 .7-.7h4.269a.99.99 0 0 0 .991-.991V2.332a.351.351 0 0 1 .351-.351h6.233a.351.351 0 0 1 .351.351v2.447a.991.991 0 0 0 .991.991h4.269a.7.7 0 0 1 .7.7v4.652a.7.7 0 0 1-.7.7H15.274a.7.7 0 0 1-.7-.7zm17.717 31.472a11.042 11.042 0 0 0-1.592 2.168H20.651a.991.991 0 0 0 0 1.981h9.188a11.358 11.358 0 0 0-.381 1.573h-8.807a.991.991 0 0 0 0 1.981h8.636c0 .36 0 .726.025 1.1a33.823 33.823 0 0 0 .394 3.455h-9.055a.991.991 0 0 0 0 1.981H30.1q.184.8.406 1.573h-9.855a.991.991 0 0 0 0 1.981h10.5a27.4 27.4 0 0 0 1.9 4.158q.245.432.5.842H6.677V40a.991.991 0 1 0-1.981 0v21.722a.991.991 0 0 0 .991.991h29.255a15.966 15.966 0 0 0 2.761 2.77H3.556a1.577 1.577 0 0 1-1.575-1.575V9.03a1.577 1.577 0 0 1 1.575-1.575h9.037v2.77H5.686a.99.99 0 0 0-.991.991v24.821a.991.991 0 1 0 1.981 0V12.206h6.148a2.683 2.683 0 0 0 2.449 1.6h17.454a2.683 2.683 0 0 0 2.449-1.6h6.148v15.016a.99.99 0 0 0-.8 1.8 11.38 11.38 0 0 1 .8.511v3.874a16.849 16.849 0 0 0-9.033 4.535zm11.014-4.856v-1.824a10.27 10.27 0 0 1 1.236 1.7q-.627.05-1.236.126zm4.749 5.684c0-.174 0-.364-.013-.568h.1a15.226 15.226 0 0 0 2.11-.146 7.32 7.32 0 0 1-2.2.713zm-.158-2.554c-.025-1.465.162-4.529 1.978-6.346s4.885-2 6.346-1.978c.025 1.465-.162 4.529-1.978 6.346s-4.879 2.002-6.345 1.978z"/></svg>