<svg xmlns="http://www.w3.org/2000/svg" width="74.41" height="48.369" fill="#fff" xmlns:v="https://vecta.io/nano"><path d="M73.17 3.721H24.8a1.24 1.24 0 0 0-1.24 1.24v3.721H18.6a1.24 1.24 0 0 0-1.136.744l-1.873 4.286a5.3 5.3 0 0 0-4.093 3.35L8.89 24.014l-6.426 4.59A5.9 5.9 0 0 0 0 33.398v6.288a1.24 1.24 0 0 0 .552 1.035l3.721 2.48a1.239 1.239 0 0 0 .688.208h1.365a6.2 6.2 0 0 0 12.152 0h32.494a6.2 6.2 0 0 0 12.152 0H73.17a1.24 1.24 0 0 0 1.24-1.24V4.961a1.24 1.24 0 0 0-1.24-1.24zm-47.126 2.48H71.93v29.764H29.137l-3.094-4.053zM12.4 35.965H2.48v-2.476l21.083.078v7.359h-5.084a6.211 6.211 0 0 0-6.079-4.961zm7.012-24.8h4.149v2.48H18.33zm-5.592 6.771a2.8 2.8 0 0 1 2.613-1.811h7.128v7.441h-11.85zm-3.5 8.111h13.243v5.043l-20.109-.075a3.4 3.4 0 0 1 .454-.39zM2.48 39.021v-.577h4.964a6.176 6.176 0 0 0-1.119 2.48h-.989zm9.921 6.864a3.721 3.721 0 1 1 3.721-3.721 3.721 3.721 0 0 1-3.722 3.723zm13.642-9.886l1.495 1.958a1.24 1.24 0 0 0 .986.488h23.567a6.177 6.177 0 0 0-1.119 2.48H26.044zm31 9.886a3.721 3.721 0 1 1 3.721-3.721 3.721 3.721 0 0 1-3.716 3.723zm6.077-4.961a6.177 6.177 0 0 0-1.119-2.48h9.929v2.48zm-17.233-16.12v2.48a1.24 1.24 0 0 0 1.24 1.24h4.961a1.24 1.24 0 0 0 1.24-1.24v-2.48h2.48a1.24 1.24 0 0 0 1.24-1.24v-4.961a1.24 1.24 0 0 0-1.24-1.24h-2.48v-2.48a1.24 1.24 0 0 0-1.24-1.24h-4.961a1.24 1.24 0 0 0-1.24 1.24v2.48h-2.48a1.24 1.24 0 0 0-1.24 1.24v4.961a1.24 1.24 0 0 0 1.24 1.24zm-1.24-4.961h2.48a1.24 1.24 0 0 0 1.24-1.24v-2.48h2.48v2.48a1.24 1.24 0 0 0 1.24 1.24h2.48v2.48h-2.48a1.24 1.24 0 0 0-1.24 1.24v2.48h-2.481v-2.48a1.24 1.24 0 0 0-1.24-1.24h-2.48zm4.958 13.638a12.4 12.4 0 1 0-12.4-12.4 12.4 12.4 0 0 0 12.4 12.4zm0-22.323a9.921 9.921 0 1 1-9.921 9.921 9.921 9.921 0 0 1 9.921-9.921zM21.083 3.721v-2.48a1.24 1.24 0 0 0-2.48 0v2.48a1.24 1.24 0 0 0 2.48 0zm-4.961 3.72a1.24 1.24 0 0 0 .877-2.117l-2.48-2.48a1.24 1.24 0 0 0-1.754 1.754l2.48 2.48a1.236 1.236 0 0 0 .877.363zm-7.441 2.48a1.24 1.24 0 0 0 1.24 1.24h3.721a1.24 1.24 0 1 0 0-2.48H9.921a1.24 1.24 0 0 0-1.24 1.24z"/></svg>