<svg xmlns="http://www.w3.org/2000/svg" width="66.453" height="69.433" fill="#fff" xmlns:v="https://vecta.io/nano"><path d="M61.269 20.26c-2.995-3.563-6.388-7.6-6.388-11a6.64 6.64 0 0 1 1.39-3.612A3.648 3.648 0 0 0 53.213 0H20.164C12.202 0 .492 22.011.492 28.93a35.914 35.914 0 0 0 .323 4.079A122.61 122.61 0 0 1 1.649 48.6 79.26 79.26 0 0 1 .08 65.216a3.474 3.474 0 0 0 3.392 4.214h5.12a3.475 3.475 0 0 0 3.472-3.472V37.031a40.589 40.589 0 0 0-.742-7.139 21.668 21.668 0 0 1-.415-3.276c0-3.413 0-6.943 11.572-6.943 4.028 0 6.943-2.765 6.943-4.629a5.276 5.276 0 0 0-.271-1.5 1.151 1.151 0 0 1 .127-.952 1.083 1.083 0 0 1 .77-.5 71.661 71.661 0 0 1 9.79-.52c8.7 0 16.143 13.357 16.2 15.044a4.338 4.338 0 0 1-4.625 4.629H23.636c-4.379 0-9.258 4.277-9.258 10.526a2.6 2.6 0 0 0 1.935 2.518 2.67 2.67 0 0 0 3.02-1.223c1.927-3.237 4.542-4.878 7.772-4.878h15.046c3.78 0 9.258 2.438 9.258 3.472v.27a1.4 1.4 0 0 1-.7 1.219 1.343 1.343 0 0 1-1.356.01 23.663 23.663 0 0 0-11.83-2.659c-11.031 0-17.358 3.8-17.358 10.415a19.541 19.541 0 0 0 1.192 7.159 18.8 18.8 0 0 1-2.688-2.191 1.157 1.157 0 0 0-1.916.452c-.078.233-1.887 5.756-.668 10.478a3.485 3.485 0 0 0 3.372 2.618H46.78c8.089 0 12.729-2.952 12.729-8.1a10.252 10.252 0 0 0-1.909-6.3 16.767 16.767 0 0 1-.36-.556 9.333 9.333 0 0 1 .817-.707c1.1-.886 2.609-2.1 2.609-4.01a4.723 4.723 0 0 0-1.312-3.228 4.539 4.539 0 0 0 2.469-3.716 5.059 5.059 0 0 0-.7-2.253 3.494 3.494 0 0 1-.457-1.218V36.4a1.514 1.514 0 0 1 .785-1.34 13.166 13.166 0 0 0 3.562-2.691 5.21 5.21 0 0 0 1.44-3.439c0-2.502-2.402-5.36-5.184-8.67zm2 10.586a10.893 10.893 0 0 1-2.916 2.183 3.829 3.829 0 0 0-2 3.376v2.941a5.059 5.059 0 0 0 .7 2.253 3.494 3.494 0 0 1 .457 1.218c0 1.2-1.987 2.139-2.681 2.374a1.16 1.16 0 0 0-.158 2.13 3.154 3.154 0 0 1 1.682 2.44c0 .8-.928 1.548-1.746 2.207-.887.714-1.726 1.388-1.726 2.422a3.488 3.488 0 0 0 .794 1.928 7.964 7.964 0 0 1 1.52 5.015c0 5.222-7.284 5.786-10.415 5.786H19.457a1.17 1.17 0 0 1-1.131-.882 17.006 17.006 0 0 1 .163-7.408 27.643 27.643 0 0 0 5.849 3.571 1.157 1.157 0 0 0 1.275-1.885c-2.078-2.079-3.133-5.308-3.133-9.6 0-5.148 5.483-8.1 15.044-8.1a21.38 21.38 0 0 1 10.684 2.353 3.639 3.639 0 0 0 3.664-.021 3.688 3.688 0 0 0 1.853-3.22v-.27c0-3.541-8.137-5.786-11.572-5.786H27.108a11.221 11.221 0 0 0-9.761 6.008.356.356 0 0 1-.424.173c-.229-.062-.231-.234-.231-.395 0-5.019 4.044-8.1 6.943-8.1h27.778a6.643 6.643 0 0 0 6.943-6.943c0-3.2-8.773-17.358-18.515-17.358a75.237 75.237 0 0 0-10.122.544 3.407 3.407 0 0 0-2.394 1.544 3.459 3.459 0 0 0-.389 2.87 3.331 3.331 0 0 1 .172.8 5.019 5.019 0 0 1-4.63 2.339c-11.614 0-13.887 3.394-13.887 9.258a23.082 23.082 0 0 0 .448 3.667 38.043 38.043 0 0 1 .71 6.748v28.93a1.158 1.158 0 0 1-1.157 1.157h-5.12a1.135 1.135 0 0 1-.9-.428 1.164 1.164 0 0 1-.232-.983A81.6 81.6 0 0 0 3.963 48.6a124.493 124.493 0 0 0-.85-15.857 33.953 33.953 0 0 1-.307-3.815c0-6.461 11.273-26.616 17.358-26.616h33.049a1.333 1.333 0 0 1 1.118 2.063 8.837 8.837 0 0 0-1.767 4.88c0 4.244 3.682 8.625 6.931 12.491 2.282 2.715 4.641 5.522 4.641 7.181a2.99 2.99 0 0 1-.869 1.919zM40.655 15.862a1.157 1.157 0 1 0-1.636-1.636c-1.942 1.941-6.086 1.975-6.126 1.975a1.157 1.157 0 0 0 0 2.314c.21.001 5.139-.029 7.762-2.653zm-14.066 5.09a1.158 1.158 0 0 0 .152 2.133 37.221 37.221 0 0 0 10.781 1.217c7.572 0 10.186-5.053 10.293-5.269a1.157 1.157 0 1 0-2.07-1.035c-.02.04-2.066 3.989-8.223 3.989a36.033 36.033 0 0 1-10.051-1.1 1.154 1.154 0 0 0-.882.065zm3.197 4.566a1.159 1.159 0 1 0-.73 2.2 32.966 32.966 0 0 0 9.624 1.216c9.463 0 12.119-2.382 12.39-2.654a1.143 1.143 0 0 0 .011-1.6 1.171 1.171 0 0 0-1.623-.059c-.022.02-2.346 2-10.779 2a31.434 31.434 0 0 1-8.893-1.103z"/></svg>