<svg xmlns="http://www.w3.org/2000/svg" width="46.774" height="67.489" fill="#fff" xmlns:v="https://vecta.io/nano"><path d="M2.25.386A1.318 1.318 0 0 0 0 1.318 1.318 1.318 0 1 0 2.25.386zm42.859 32.622a1.305 1.305 0 0 0-.15-.368 23.228 23.228 0 0 0-2.006-3.784l-.725-1.107a1.323 1.323 0 0 0-.124-.158 3.733 3.733 0 0 0 .34-1.558 5.608 5.608 0 0 0-5.6-5.6h-3.1a6.286 6.286 0 0 0 1.191-3.686 6.65 6.65 0 0 0-2.211-4.939L19.994.367a1.318 1.318 0 1 0-1.762 1.961l12.734 11.438a4.01 4.01 0 0 1 1.329 2.98 3.69 3.69 0 0 1-3.686 3.686h-.137a1.312 1.312 0 0 0-.22.019l-13.139 2.228a.074.074 0 0 1-.089-.071V8.436a1.318 1.318 0 0 0-2.636 0v14.172a2.71 2.71 0 0 0 3.163 2.672l13.029-2.21h8.259a2.969 2.969 0 0 1 2.966 2.966 1.122 1.122 0 0 1-1.12 1.12h-9.952a1.318 1.318 0 0 0-.5.1l-14.15 5.814a8.293 8.293 0 0 1-11.447-7.671V5.408a1.318 1.318 0 1 0-2.636 0v20a10.93 10.93 0 0 0 5.6 9.542v5.049a9.75 9.75 0 0 1-.5 3.082 38.255 38.255 0 0 0-.576 22.303l.313 1.137a1.318 1.318 0 0 0 2.542-.7l-.313-1.137a35.627 35.627 0 0 1 .539-20.776 12.382 12.382 0 0 0 .634-3.914v-4a10.974 10.974 0 0 0 6.847-.48l13.91-5.719h9.692a3.736 3.736 0 0 0 1.516-.321l.545.832a20.992 20.992 0 0 1 1.751 3.267 3.43 3.43 0 0 1-3.415 3.172 6.071 6.071 0 0 0-5.916 4.745l-.249.008a4.167 4.167 0 0 0-3.021 1.962 1.178 1.178 0 0 1-.912.37 6.082 6.082 0 1 0-9.848-1.094 1.318 1.318 0 0 0-.038.151 11.9 11.9 0 0 0 .109 4.187 9.009 9.009 0 0 0 5.2 6.613 12.716 12.716 0 0 0 5.28 1.3 6.629 6.629 0 0 0 6.043-3.333 1.392 1.392 0 0 1 .2.325 1.987 1.987 0 0 0 2.313 1.275 3.47 3.47 0 0 0 3.051-3.462 6.189 6.189 0 0 0-2.659-4.879 4.895 4.895 0 0 0-2.448-.952 3.226 3.226 0 0 0-.53-1.239 3.429 3.429 0 0 1 3.424-3.345 6.049 6.049 0 0 0 4.6-2.117 20.637 20.637 0 0 1-5.222 18.648 9.48 9.48 0 0 0-2.609 6.546v3.719a1.318 1.318 0 1 0 2.636 0v-3.721a6.856 6.856 0 0 1 1.886-4.733 23.334 23.334 0 0 0 4.734-24.71zm-20.656 3.321a3.446 3.446 0 1 1-3.446 3.447 3.45 3.45 0 0 1 3.446-3.446zm11.371 10.258a2.246 2.246 0 0 1 1.281.467 3.685 3.685 0 0 1 1.561 2.663.934.934 0 0 1-.284.714.851.851 0 0 1-.209.136 3.247 3.247 0 0 0-2.313-1.765 2.376 2.376 0 0 0-2.388 1.506c-.936 1.81-3.517 3.017-7.952.978a6.764 6.764 0 0 1-3.909-6.137 6.053 6.053 0 0 0 3.857.623c.641.264 4.7 1.8 6.569-.771a1.909 1.909 0 0 1 1.094-.88.56.56 0 0 1 .417.173 1.189 1.189 0 0 1-.007.931c-.407 1.122-2.03 2.146-4.451 2.809a1.319 1.319 0 1 0 .7 2.543c3.734-1.023 5.352-2.613 6.034-3.99z"/></svg>