<svg xmlns="http://www.w3.org/2000/svg" xmlns:xlink="http://www.w3.org/1999/xlink" width="67.928" height="66.829" xmlns:v="https://vecta.io/nano"><g fill="#fff"><path d="M40.211 23.119a1 1 0 0 0 1.386-.244l2.117-3.023a.995.995 0 1 0-1.63-1.141l-2.117 3.023a1 1 0 0 0 .244 1.385zm5.119-2.424l-.719 3.62a1 1 0 0 0 1.952.388l.718-3.62a.995.995 0 1 0-1.952-.387zm-4.256-4.582a.994.994 0 0 0-1.367-.335l-3.156 1.913a.995.995 0 1 0 1.032 1.7l3.156-1.913a.994.994 0 0 0 .335-1.365zM11.098 20.19a1.353 1.353 0 0 0 1.19 0c.929-.458 3.958-2.19 3.958-5.236a2.78 2.78 0 0 0-4.552-2.133 2.782 2.782 0 0 0-4.554 2.133c0 3.054 3.031 4.78 3.958 5.236zm-.5-5.621a1.273 1.273 0 0 0 2.187.008.786.786 0 0 1 1.472.378c0 1.683-1.776 2.861-2.564 3.3-.787-.437-2.562-1.611-2.562-3.3a.786.786 0 0 1 1.467-.386zm0 0"/><use xlink:href="#B"/><use xlink:href="#B" y="3.504"/><use xlink:href="#B" y="7.008"/><path d="M65.774 1.991a1 1 0 0 0 0-1.99h-9.825a.993.993 0 0 0-.868.422l-3.435 4.905-4.357-3.048A9.882 9.882 0 0 0 39.383.749l-.345-.242a2.814 2.814 0 0 0-3.914.69l-.792 1.131a2.813 2.813 0 0 0 .69 3.913l.272.19a4.66 4.66 0 0 0 7.055 4.94l.556.389a4.659 4.659 0 0 0 7.06 4.94l.556.389a4.66 4.66 0 0 0 7.055 4.94l.273.191a2.813 2.813 0 0 0 3.913-.69l.792-1.131a2.813 2.813 0 0 0-.69-3.913l-.434-.3a9.883 9.883 0 0 0-4.143-6.906l-4.006-2.805 3.138-4.481zM37.189 7.759l3.267 2.288a2.659 2.659 0 0 1-3.267-2.288zm7.611 5.329l3.267 2.288a2.659 2.659 0 0 1-3.267-2.288zm7.611 5.33l3.267 2.288a2.659 2.659 0 0 1-3.266-2.288zm8.508.842l-.792 1.131a.821.821 0 0 1-1.142.2L36.165 4.612a.825.825 0 0 1-.2-1.142l.792-1.131a.825.825 0 0 1 1.142-.2l22.822 15.98a.824.824 0 0 1 .2 1.142zm-1.977-4.815L41.865 2.488a7.872 7.872 0 0 1 4.282 1.423l9.993 7a7.875 7.875 0 0 1 2.8 3.537zm6.176 26.752h-4.287a3.221 3.221 0 0 0-2.977-4.455h-5.72a2.284 2.284 0 0 0-2.159-1.551H28.369a.313.313 0 0 1-.069-.008l-4.621-1.13a2.269 2.269 0 0 0-2.42.927l-2.7-.66a3.229 3.229 0 0 0-3.5 1.429h-.417a6.771 6.771 0 0 0 .7-7.791h12.103a3.931 3.931 0 0 0 3.926-3.926v-5.454a1 1 0 1 0-1.99 0v5.458a1.938 1.938 0 0 1-1.936 1.936H13.592a6.789 6.789 0 0 0-8.257 0H3.926a1.938 1.938 0 0 1-1.936-1.936V8.477a1.938 1.938 0 0 1 1.936-1.936h23.52a1.938 1.938 0 0 1 1.936 1.936v5.458a1 1 0 0 0 1.991 0V8.477a3.931 3.931 0 0 0-3.927-3.924H3.926A3.93 3.93 0 0 0 0 8.477v15.559a3.931 3.931 0 0 0 3.6 3.911 6.769 6.769 0 0 0 .687 7.806H2.81A2.813 2.813 0 0 0 0 38.563v1.815a2.8 2.8 0 0 0 .669 1.815A2.794 2.794 0 0 0 0 44.007v1.815a2.811 2.811 0 0 0 2.672 2.8v.877a2.813 2.813 0 0 0 2.81 2.81H8.23v12.625a1.9 1.9 0 0 0 1.9 1.9H12a1.9 1.9 0 0 0 1.9-1.9V52.312h6.958v8.132a2.283 2.283 0 0 0 2.281 2.281h11.485a1 1 0 1 0 0-1.99H23.139a.291.291 0 0 1-.291-.291V36.277a.127.127 0 0 0 0-.014.289.289 0 0 1 .359-.274l4.621 1.127a2.288 2.288 0 0 0 .541.065h21.606a.291.291 0 0 1 .291.291v22.972a.291.291 0 0 1-.291.291H39.267a1 1 0 1 0 0 1.99h10.708a2.283 2.283 0 0 0 2.281-2.281v-8.132h1.772v12.621a1.9 1.9 0 0 0 1.9 1.9H57.8a1.9 1.9 0 0 0 1.9-1.9V52.312h2.748a2.813 2.813 0 0 0 2.81-2.81v-.877a2.811 2.811 0 0 0 2.672-2.8v-1.818a2.813 2.813 0 0 0-2.81-2.81zm-47.034-4.944l2.774.677v2.537l-1.176-.287-2.182-.527a1.235 1.235 0 1 1 .584-2.4zm-8.621-.093a4.8 4.8 0 1 1 4.8-4.8 4.809 4.809 0 0 1-4.8 4.804zM1.99 38.563a.821.821 0 0 1 .82-.82h4.325a6.81 6.81 0 0 0 4.656 0h2.79a3.232 3.232 0 0 0 2.447 2.842l1.243.3a.819.819 0 0 1-.641.309H2.81a.821.821 0 0 1-.82-.819zm0 7.259v-1.815a.821.821 0 0 1 .82-.819h18.048v3.454H2.81a.821.821 0 0 1-.82-.82zm9.919 19.018H10.22V52.312h1.689zM5.481 50.322a.821.821 0 0 1-.82-.82v-.87h16.2v1.69H5.481zm53.6-10.358a1.233 1.233 0 0 1-1.232 1.232h-5.6v-2.464h5.6a1.233 1.233 0 0 1 1.237 1.232zM57.708 64.84h-1.69V52.312h1.69zm5.558-15.338a.821.821 0 0 1-.82.82h-10.19v-1.69h11.01zm2.672-3.68a.821.821 0 0 1-.82.82H52.256v-3.455h12.862a.821.821 0 0 1 .82.82zM4.613 8.169a1 1 0 0 0-1 1v14.18a1 1 0 0 0 1 1h22.145a1 1 0 0 0 1-1V9.164a1 1 0 0 0-1-1zm21.15 14.184H5.608V10.159h20.155zm0 0"/></g><defs ><path id="B" d="M18.725 13.747h3.932a1 1 0 0 0 0-1.99h-3.932a1 1 0 0 0 0 1.99Zm0 0"/></defs></svg>