<svg xmlns="http://www.w3.org/2000/svg" xmlns:xlink="http://www.w3.org/1999/xlink" width="68.968" height="73.895" xmlns:v="https://vecta.io/nano"><g fill="#fff"><path d="M66.037 25.383A38.179 38.179 0 0 0 59.165 14.5l-1.281-1.416V9.853h1.232a1.232 1.232 0 0 0 1.232-1.232V3.695A3.706 3.706 0 0 0 56.652 0H44.337a3.706 3.706 0 0 0-3.695 3.695v4.926a1.232 1.232 0 0 0 1.232 1.232h1.232v3.227l-1.282 1.42a38.137 38.137 0 0 0-9.8 25.543V46.8h-2.466V33.253a8.479 8.479 0 0 0-2.525-6.084 8.787 8.787 0 0 0-6.109-2.525 1.232 1.232 0 0 1-1.219-1.219v-1.257h1.232a1.232 1.232 0 0 0 1.232-1.232V16.01a3.706 3.706 0 0 0-3.695-3.695h-7.39a3.706 3.706 0 0 0-3.695 3.695v4.926a1.232 1.232 0 0 0 1.232 1.232h1.232v1.269a1.232 1.232 0 0 1-1.145 1.219C3.658 25.013 0 28.622 0 33.253v24.631a3.706 3.706 0 0 0 3.695 3.695h4.926v6.158a6.158 6.158 0 0 0 6.158 6.158h39.41a6.179 6.179 0 0 0 6.035-4.926h2.586a6.158 6.158 0 0 0 6.158-6.158V40.039a38.011 38.011 0 0 0-2.931-14.656zM43.105 3.695a1.232 1.232 0 0 1 1.232-1.232h12.315a1.232 1.232 0 0 1 1.232 1.232v3.694H43.105zm12.316 6.158v2.463h-9.853V9.853zm-11.774 6.293l1.232-1.367h11.232l1.232 1.367a35.954 35.954 0 0 1 5.665 8.486H37.982a35.953 35.953 0 0 1 5.665-8.486zM9.853 16.01a1.232 1.232 0 0 1 1.232-1.232h7.389a1.232 1.232 0 0 1 1.232 1.232v3.695H9.853zm-7.39 17.243c0-3.35 2.636-5.875 6.417-6.133a3.707 3.707 0 0 0 3.436-3.682v-1.27h4.926v1.256a3.708 3.708 0 0 0 3.558 3.683 6.4 6.4 0 0 1 4.5 1.8 6.1 6.1 0 0 1 1.8 4.347V46.8h-4.932V35.716a1.232 1.232 0 0 0-1.232-1.232H2.463zm6.158 25.863H3.695a1.232 1.232 0 0 1-1.232-1.232v-3.695h6.158zm.123-7.389H2.463v-14.78h17.242V46.8h-4.926a6.179 6.179 0 0 0-6.035 4.926zm49.14 16.01a3.706 3.706 0 0 1-3.695 3.695h-39.41a3.706 3.706 0 0 1-3.695-3.695V52.958a3.706 3.706 0 0 1 3.695-3.695h39.41a3.706 3.706 0 0 1 3.695 3.695zm8.621-4.926a3.706 3.706 0 0 1-3.695 3.695h-2.463V52.958a6.064 6.064 0 0 0-1.269-3.695h7.426zm0-16.01H34.484v-6.762a35.733 35.733 0 0 1 2.427-12.946h27.168a35.73 35.73 0 0 1 2.426 12.944zm-12.316-6.159h2.463a1.232 1.232 0 0 0 1.232-1.232v-4.926a1.232 1.232 0 0 0-1.232-1.232h-2.463V30.79a1.232 1.232 0 0 0-1.231-1.232h-4.927a1.232 1.232 0 0 0-1.232 1.232v2.463h-2.462a1.232 1.232 0 0 0-1.232 1.231v4.926a1.232 1.232 0 0 0 1.232 1.232H46.8v2.463a1.232 1.232 0 0 0 1.232 1.232h4.926a1.232 1.232 0 0 0 1.232-1.232zm-1.232-2.463a1.232 1.232 0 0 0-1.232 1.232v2.463h-2.462v-2.463a1.232 1.232 0 0 0-1.232-1.232h-2.463v-2.463h2.463a1.232 1.232 0 0 0 1.232-1.232v-2.463h2.463v2.463a1.232 1.232 0 0 0 1.232 1.232h2.463v2.463z"/><use xlink:href="#B"/><use xlink:href="#B" y="9.853"/><use xlink:href="#B" x="9.853"/><use xlink:href="#B" x="9.853" y="9.853"/><use xlink:href="#B" x="-9.853"/><use xlink:href="#B" x="-9.853" y="9.853"/><use xlink:href="#B" x="19.705"/><use xlink:href="#B" x="19.705" y="9.853"/><path d="M16.011 39.41H4.927a1.232 1.232 0 0 0 0 2.463h11.084a1.232 1.232 0 0 0 0-2.463zm-4.927 4.927H4.927a1.232 1.232 0 1 0 0 2.463h6.158a1.232 1.232 0 1 0 0-2.463z"/></g><defs ><path id="B" d="M29.558 51.726a3.695 3.695 0 1 0 3.695 3.695 3.695 3.695 0 0 0-3.695-3.695Zm0 4.926a1.232 1.232 0 1 1 1.232-1.232 1.232 1.232 0 0 1-1.232 1.232Z"/></defs></svg>