<svg xmlns="http://www.w3.org/2000/svg" width="48.149" height="76.824" fill="#fff" xmlns:v="https://vecta.io/nano"><path d="M30.391 71.914a1.5 1.5 0 0 0-1.951.835 1.753 1.753 0 0 1-1.625 1.074h-5.482a1.753 1.753 0 0 1-1.625-1.074 1.5 1.5 0 1 0-2.785 1.117 4.718 4.718 0 0 0 4.411 2.959h5.482a4.717 4.717 0 0 0 4.411-2.959 1.5 1.5 0 0 0-.836-1.952zm17.622-7.729a7.4 7.4 0 0 0-3.553-4.995 7.456 7.456 0 0 0 2.666-6.9 18.917 18.917 0 0 0-10.491-14.23 17.21 17.21 0 0 0-7.864-28.337 6.491 6.491 0 0 0 1.52-4.191A5.539 5.539 0 0 0 24.759 0a5.026 5.026 0 0 0-3.247 1.127 4.1 4.1 0 0 0-1.479 3.179 1.5 1.5 0 0 0 3 0 1.11 1.11 0 0 1 .412-.884A2.033 2.033 0 0 1 24.758 3a2.535 2.535 0 0 1 2.532 2.532 3.54 3.54 0 0 1-3.539 3.54c-.037 0-.073 0-.109.006A17.211 17.211 0 0 0 11.514 38.06 18.918 18.918 0 0 0 1.022 52.288a7.456 7.456 0 0 0 2.666 6.9 7.406 7.406 0 0 0-2.115 10.969l3.213 4.106a6.689 6.689 0 0 0 5.271 2.551 6.619 6.619 0 0 0 3.316-.885 6.7 6.7 0 0 0 2.851-8.269l-1.949-4.836a7.392 7.392 0 0 0-.456-.931h11.005a1.5 1.5 0 1 0 0-3H10.967v-3.162a.739.739 0 0 1 .739-.739h24.739a.74.74 0 0 1 .739.739V59.1a7.4 7.4 0 0 0-3.309 3.724l-1.949 4.836a6.7 6.7 0 0 0 2.851 8.269 6.618 6.618 0 0 0 3.316.885 6.69 6.69 0 0 0 5.271-2.551l3.213-4.106a7.4 7.4 0 0 0 1.436-5.972zM9.854 26.293a14.22 14.22 0 1 1 14.22 14.22 14.236 14.236 0 0 1-14.22-14.22zm1.638 37.655l1.953 4.835a3.668 3.668 0 0 1-6.291 3.632l-3.213-4.106a4.405 4.405 0 1 1 7.555-4.362zM36.453 48.99a1.5 1.5 0 0 0-1.5 1.5v1.5H13.206v-1.5a1.5 1.5 0 1 0-3 0v1.816a3.744 3.744 0 0 0-2.239 3.424v2.12a4.471 4.471 0 0 1-3.976-5.115A15.842 15.842 0 0 1 14 40.25a17.182 17.182 0 0 0 20.149 0A15.842 15.842 0 0 1 44.16 52.735a4.471 4.471 0 0 1-3.977 5.115v-2.119a3.744 3.744 0 0 0-2.229-3.42v-1.82a1.5 1.5 0 0 0-1.501-1.501zm7.758 19.319l-3.213 4.106a3.668 3.668 0 0 1-6.291-3.632l1.949-4.836a4.405 4.405 0 1 1 7.555 4.362zm-12.366-8.975a1.5 1.5 0 1 0 .44 1.061 1.512 1.512 0 0 0-.44-1.061zm-3.634-27.918a1.5 1.5 0 0 0-2.11.221 2.605 2.605 0 0 1-4.053 0 1.5 1.5 0 0 0-2.331 1.89 5.606 5.606 0 0 0 8.715 0 1.5 1.5 0 0 0-.221-2.111zm-7.928-6.184a3.5 3.5 0 0 0-4.937 0 1.5 1.5 0 0 0 2.122 2.122.491.491 0 0 1 .693 0 1.5 1.5 0 1 0 2.122-2.122zm12.52-.001a3.5 3.5 0 0 0-4.937 0 1.5 1.5 0 1 0 2.12 2.123.491.491 0 0 1 .693 0 1.5 1.5 0 0 0 2.122-2.122z"/></svg>