<svg xmlns="http://www.w3.org/2000/svg" width="180.722" height="208.457" xmlns:v="https://vecta.io/nano"><path d="M54.753.632a48.532 48.532 0 0 0-14.137 4.441 33.039 33.039 0 0 0-10.389 7.293 29.578 29.578 0 0 0-9.126 19.271c-.693 6.763 1.059 11.734 6.111 17.4l2.852 3.219-3.341 2.241a35.26 35.26 0 0 0-8.352 7.13c-2.445 2.852-3.667 5.785-4.4 10.348-.856 5.378-.978 5.785-5.133 14.178-5.5 11.163-7.7 18.863-8.637 30.027a60.743 60.743 0 0 0 1.548 19.515c1.222 4.808 2 6.885 5.133 13.445 2.607 5.459 2.933 6.885 4.2 16.46a76.759 76.759 0 0 0 6.722 22.815c5.256 11.123 12.426 18.13 20.289 19.8 4.319.9 16.419-.774 23.467-3.259l2.322-.815.693 1.019a8.693 8.693 0 0 0 2.526 2.119l1.874 1.1h42.779l1.874-1.1a8.693 8.693 0 0 0 2.526-2.119l.693-1.019 2.322.815c7.048 2.485 19.149 4.156 23.467 3.259 7.863-1.67 15.034-8.678 20.289-19.8a76.759 76.759 0 0 0 6.722-22.815c1.263-9.574 1.589-11 4.2-16.46 3.137-6.559 3.911-8.637 5.133-13.445a60.743 60.743 0 0 0 1.548-19.515c-.937-11.163-3.137-18.863-8.637-30.027-4.156-8.393-4.278-8.8-5.133-14.178-.733-4.563-1.956-7.5-4.4-10.348a35.26 35.26 0 0 0-8.352-7.13l-3.347-2.246 2.852-3.219c5.052-5.663 6.8-10.634 6.111-17.4a29.578 29.578 0 0 0-9.126-19.271 33.039 33.039 0 0 0-10.389-7.293 48.646 48.646 0 0 0-14.5-4.482c-9.982-1.507-16.134-.163-20.493 4.4-2.648 2.852-3.87 5.3-6.193 12.63-2.119 6.519-3.178 8.515-5.174 9.452a10.138 10.138 0 0 1-6.763 0c-2-.937-3.056-2.933-5.174-9.452-2.322-7.334-3.545-9.778-6.193-12.63C71.253.428 64.775-.916 54.753.632zm11.9 6.885a10.026 10.026 0 0 1 5.826 4.767c.448.856 1.711 4.359 2.811 7.782 2.689 8.352 4.685 11.326 8.841 13.363 1.67.856 2.567.978 6.234.978s4.563-.122 6.234-.978c4.156-2.037 6.152-5.011 8.841-13.363 2.4-7.374 3.137-8.963 5.052-10.634 2.282-2 5.3-2.689 10.308-2.363 10.348.652 20.9 5.337 26.116 11.571a23.76 23.76 0 0 1 5.826 15.482c.081 5.3-.652 6.4-10.43 16.378-4.522 4.6-9.167 9.534-10.348 10.96a92.918 92.918 0 0 0-7.7 11.245c-1.752 3.422-1.711 3.382-4.2 1.752-9.534-6.274-22.123-9.248-34.753-8.108-9.7.856-17.152 3.3-24.608 8.026a22.463 22.463 0 0 1-2.282 1.385 12.074 12.074 0 0 1-1.507-2.363c-4.319-7.619-7.741-11.9-18.334-22.693-9.941-10.185-10.674-11.286-10.593-16.582.081-9.778 5.541-17.723 15.6-22.775 7.254-3.626 17.766-5.378 23.062-3.829zM39.434 61.46a74.694 74.694 0 0 1 15.2 23.467c2 4.808 3.748 10.308 3.463 10.634a5.929 5.929 0 0 1-2-.448c-2.933-1.059-7.252-1.467-8.719-.856a3.3 3.3 0 0 0-1.833 4.319c.652 1.63 1.426 2 4.93 2.4 2.77.367 6.478 1.833 6.763 2.689.081.244-.856 1.222-2.078 2.159-3.626 2.893-3.993 5.622-.978 7.13 1.793.9 2.73.57 5.378-1.711a46.392 46.392 0 0 1 15.2-8.148c7.7-2.567 20.33-2.852 29.253-.57a45.838 45.838 0 0 1 17.112 8.637 12.156 12.156 0 0 0 3.3 2.241 3.822 3.822 0 0 0 3.952-2.322c.53-1.67-.244-3.219-2.811-5.256-1.222-.937-2.159-1.915-2.078-2.159.285-.856 3.993-2.322 6.763-2.689 3.5-.407 4.278-.774 4.93-2.4a3.3 3.3 0 0 0-1.833-4.319c-1.467-.611-5.785-.2-8.719.856a4.624 4.624 0 0 1-2 .407c-.326-.326 1.915-6.967 3.952-11.734a77.145 77.145 0 0 1 15.2-22.856l3.382-3.626 1.426.733a47.157 47.157 0 0 1 8.678 6.111c3.137 3.056 3.911 4.6 4.767 9.778.978 5.622 1.67 7.578 5.663 15.4a70.287 70.287 0 0 1 6.6 18.049c2.933 14.1 1.548 25.912-4.482 38.053a42.067 42.067 0 0 0-4.522 15.278c-1.96 18.252-10.149 35.244-19.112 39.644-2.078.978-2.689 1.1-6.356 1.019a58.79 58.79 0 0 1-16.012-2.893l-3.545-1.141-.122-13.526c-.041-7.456.041-13.526.163-13.526a6.942 6.942 0 0 1 1.589.978 19.6 19.6 0 0 0 9.452 3.422c3.911.244 4.889-.041 5.7-1.752 1.344-2.77-.856-5.093-4.848-5.093-1.833 0-6.234-1.793-7.13-2.933-.448-.489-.082-.937 2.078-2.689 3.1-2.526 3.83-3.952 3.056-5.826a3.481 3.481 0 0 0-4.115-2 25.32 25.32 0 0 0-3.993 2.852c-7.415 6.071-18.089 9.452-29.742 9.452-12.345 0-23.264-3.667-30.964-10.389a13.137 13.137 0 0 0-2.77-1.956 3.6 3.6 0 0 0-4.115 2.037c-.774 1.874-.041 3.3 3.056 5.826 2.159 1.752 2.526 2.2 2.078 2.689-.9 1.141-5.3 2.933-7.13 2.933-3.993 0-6.193 2.322-4.848 5.093.815 1.711 1.793 2 5.7 1.752a19.6 19.6 0 0 0 9.452-3.422 6.942 6.942 0 0 1 1.589-.978c.122 0 .2 6.071.163 13.526l-.122 13.526-3.545 1.141a58.79 58.79 0 0 1-16.012 2.893c-3.667.081-4.278-.041-6.356-1.019-8.954-4.396-17.143-21.388-19.099-39.64a42.067 42.067 0 0 0-4.522-15.278c-6.03-12.141-7.415-23.956-4.482-38.053a70.288 70.288 0 0 1 6.6-18.049c3.993-7.822 4.685-9.778 5.663-15.4.978-5.908 2.078-7.741 7.048-11.734 1.752-1.426 7.13-4.767 7.659-4.767a40.364 40.364 0 0 1 4.035 4.034zm55.9 11.856a49.024 49.024 0 0 1 15.6 4.033c3.463 1.63 8.352 4.767 8.352 5.378a30.759 30.759 0 0 1-1.1 3.3 134.19 134.19 0 0 0-2.363 7.659c-1.507 5.419-1.059 5.174-6.356 3.341a60.7 60.7 0 0 0-38.216 0c-5.3 1.833-4.848 2.078-6.356-3.341a133.687 133.687 0 0 0-2.363-7.659 30.754 30.754 0 0 1-1.1-3.3c0-.611 4.889-3.748 8.352-5.378a49.475 49.475 0 0 1 14.871-3.993 40.733 40.733 0 0 1 10.677-.04zm-19.845 98.595a63.1 63.1 0 0 0 29.7 0c2.485-.611 4.848-1.263 5.256-1.426.652-.285.693.163.693 5.419v5.7l-2.73.652a89.556 89.556 0 0 1-36.057 0l-2.77-.652v-5.7c0-5.256.041-5.7.733-5.419.369.122 2.732.774 5.175 1.426zm-.081 18.008c7.252 1.344 22.652 1.344 29.9 0l5.378-.9c.285 0 .448 1.874.448 5.663 0 4.645-.122 5.826-.652 6.315-.57.57-2.933.652-20.127.652s-19.556-.081-20.126-.652c-.53-.489-.652-1.67-.652-6.315 0-3.789.163-5.663.448-5.663.25.004 2.695.411 5.384.9z" fill="#fff"/></svg>