<svg xmlns="http://www.w3.org/2000/svg" width="68.717" height="68.717" fill="#fff" xmlns:v="https://vecta.io/nano"><path d="M34.358 0a34.358 34.358 0 1 0 34.359 34.358A34.358 34.358 0 0 0 34.358 0zm0 66.426a32.068 32.068 0 1 1 32.068-32.068 32.068 32.068 0 0 1-32.068 32.068zm29.778-34.693a13.593 13.593 0 0 0-1.069-5.268A29.77 29.77 0 0 0 4.61 33.222l-.031.427c0 .064.014.123.015.187l-.013.518a29.777 29.777 0 1 0 59.555 0q0-.765-.039-1.52l.025-.358.014-.743zm-6.1-11.3A13.014 13.014 0 0 0 46.4 19.157a13.149 13.149 0 0 0-7.431 7.039 13.534 13.534 0 0 0-1.148 6.224 9.1 9.1 0 0 0-4.832-.036 4.525 4.525 0 0 0-1.489.782L31.23 33c2.76-1.882 4.274-4.188 4.274-6.66a7.239 7.239 0 0 0-3.049-5.975 6.274 6.274 0 0 1-2.674-5.477 8.67 8.67 0 0 1 4.807-8.008 27.5 27.5 0 0 1 23.453 13.549zM30.453 7.153a10.88 10.88 0 0 0-2.966 7.735 8.528 8.528 0 0 0 3.436 7.184c1.329 1.189 2.291 2.048 2.291 4.268 0 2.814-3.06 4.81-4.974 5.786l-.752-.06H14.316l-.082-.321c-.347-1.382-1.063-4.26-5.014-4.26a3.681 3.681 0 0 0-1.564.373 27.555 27.555 0 0 1 22.8-20.707zm-19 42.363a26.955 26.955 0 0 1-4.052-9.875 8.458 8.458 0 0 0 5.255 1.589 48.463 48.463 0 0 1 5.367.446 36.892 36.892 0 0 0-3.894 3.335 13.845 13.845 0 0 0-2.675 4.506zm1.678 2.25a12.572 12.572 0 0 1 2.634-5.154 42.5 42.5 0 0 1 5.883-4.741 58.597 58.597 0 0 1 3-1.954 1.145 1.145 0 1 0-1.18-1.963l-2.743 1.776a66.953 66.953 0 0 0-8.067-.791 5.779 5.779 0 0 1-4.491-1.685 5.277 5.277 0 0 1-1.28-3.41l.019-.766c.171-1.863 1.14-3.3 2.316-3.3 2.015 0 2.4.954 2.791 2.526.192.767.514 2.055 1.79 2.055h13.684a5.276 5.276 0 0 1 2.672.66 5.278 5.278 0 0 0-.229.738c-.47 2.062.17 4.62 1.8 7.481a24.643 24.643 0 0 1-.836 2.042c-1.006 1.907-4.1 4.083-7.37 5.172a1.147 1.147 0 0 0 .725 2.176c3.894-1.3 7.379-3.823 8.679-6.3.066-.132.183-.388.328-.724a47.817 47.817 0 0 0 6.331 7.01 1.145 1.145 0 0 0 1.558-1.679c-7.502-6.962-9.564-12.14-8.985-14.668a2.135 2.135 0 0 1 1.512-1.694c3.633-1.122 8.819 2.425 8.867 2.46a1.146 1.146 0 0 0 1.308-1.881 21.2 21.2 0 0 0-3.635-1.94 11.216 11.216 0 0 1 .856-6.091 10.88 10.88 0 0 1 6.142-5.82 10.614 10.614 0 0 1 8.255.317 10.965 10.965 0 0 1 5.445 5.638 27.352 27.352 0 0 1 .892 5.574 24.35 24.35 0 0 1-1 5.638c-1.006 2.212-3.521 4.342-7.486 6.323a3.436 3.436 0 0 0-1.176.959 5.875 5.875 0 0 0-2.381-2.114l-9.162-4.581a1.146 1.146 0 0 0-1.024 2.05l9.162 4.575c1.031.512 2.184 1.441 2.092 4.061a16.414 16.414 0 0 1-1.46 4.709 29.994 29.994 0 0 1-4.117 5.13 27.41 27.41 0 0 1-32.119-7.814zm37.864 4.449a8.65 8.65 0 0 0 .423-.734 19.66 19.66 0 0 0 1.745-5.764c.325-1.832.511-2.552 1.177-2.885a24.165 24.165 0 0 0 6.241-4.252 27.592 27.592 0 0 1-9.591 13.643zm3.308-17.276a3.436 3.436 0 0 0 2.429-5.864 1.145 1.145 0 1 0-1.619 1.619 1.146 1.146 0 0 1-1.621 1.619 1.145 1.145 0 0 0-1.619 1.619 3.426 3.426 0 0 0 2.43 1.007z"/></svg>