<svg xmlns="http://www.w3.org/2000/svg" width="74.05" height="74.05" fill="#fff" xmlns:v="https://vecta.io/nano"><path d="M22.306 17.294a1.085 1.085 0 1 0 1.534-1.534L8.409.328a1.085 1.085 0 1 0-1.534 1.534zm1.821 9.908a4.959 4.959 0 0 1 1.352 4.7 5 5 0 1 0 9.832.909 5 5 0 1 0-.919-9.83 4.941 4.941 0 0 1-4.688-1.355l-2.805-2.805a1.085 1.085 0 1 0-1.534 1.534l2.805 2.805a7.119 7.119 0 0 0 6.765 1.921 2.806 2.806 0 0 1 2.759.781 2.858 2.858 0 0 1 .146 3.753 2.823 2.823 0 0 1-2.625 1 1.839 1.839 0 0 0-2.095 2.095 2.821 2.821 0 0 1-1.006 2.627 2.857 2.857 0 0 1-3.754-.152 2.806 2.806 0 0 1-.779-2.749 7.137 7.137 0 0 0-1.919-6.771L1.881 1.888A1.085 1.085 0 0 0 .347 3.422zm27.438 5.548a5.193 5.193 0 0 0-3.177-3.805 5.1 5.1 0 0 0-4.841.548l-.089.063a5.089 5.089 0 0 0-1.855 2.5 19.379 19.379 0 0 1-10.092 11.652 4.037 4.037 0 0 0-2.277 4.358 3.974 3.974 0 0 0 3.449 3.4c.438.059 2.556.063 2.931.037a1.62 1.62 0 0 1 1.232.431 1.526 1.526 0 0 1 .489 1.126v19.906a1.085 1.085 0 1 0 2.169 0V53.059a3.673 3.673 0 0 0-1.177-2.711 3.814 3.814 0 0 0-2.86-1.01 37.6 37.6 0 0 1-2.495-.023 1.827 1.827 0 0 1-1.594-1.583 1.89 1.89 0 0 1 1.069-2.064 21.5 21.5 0 0 0 11.212-12.912 2.971 2.971 0 0 1 1.069-1.441l.067-.048a2.9 2.9 0 0 1 2.788-.309 3.031 3.031 0 0 1 1.856 2.219 10.963 10.963 0 0 1-4.242 10.537 3.722 3.722 0 0 0-1.431 2.938v26.313a1.085 1.085 0 0 0 2.169 0V46.652a1.564 1.564 0 0 1 .6-1.234 13.148 13.148 0 0 0 5.03-12.668zM28.471 56.039a1.085 1.085 0 1 0-2.113.489 80.436 80.436 0 0 1 1.854 16.457 1.085 1.085 0 0 0 1.084 1.064h.021a1.085 1.085 0 0 0 1.064-1.105 82.6 82.6 0 0 0-1.91-16.905zm-1.131-4.15c-2.757-8.7-7.36-14.763-13.68-18.026A20.657 20.657 0 0 1 3.636 23.02a19.634 19.634 0 0 1-1.466-6.495 1.085 1.085 0 0 0-2.169 0 21.352 21.352 0 0 0 1.587 7.212 23.026 23.026 0 0 0 11.079 12.051c5.788 2.988 10.03 8.625 12.607 16.754a1.085 1.085 0 0 0 2.068-.656zm40.607 1.193h-2.174v-2.174a1.709 1.709 0 0 0-1.707-1.707h-3.539a1.709 1.709 0 0 0-1.707 1.707v2.174h-2.175a1.709 1.709 0 0 0-1.707 1.707v3.538a1.709 1.709 0 0 0 1.707 1.707h2.175v2.174a1.709 1.709 0 0 0 1.707 1.707h3.539a1.709 1.709 0 0 0 1.707-1.707v-2.174h2.174a1.709 1.709 0 0 0 1.707-1.707v-3.538a1.709 1.709 0 0 0-1.707-1.707zm-.462 4.783H65.31a1.709 1.709 0 0 0-1.707 1.707v2.175h-2.618v-2.175a1.709 1.709 0 0 0-1.707-1.707h-2.174v-2.614h2.181a1.709 1.709 0 0 0 1.707-1.707v-2.175h2.614v2.175a1.709 1.709 0 0 0 1.707 1.707h2.172zM62.295 44.8a11.69 11.69 0 0 0-4.535.91v-7.103A36.765 36.765 0 0 0 39.51 6.844L28.023.147a1.086 1.086 0 1 0-1.1 1.874l11.49 6.7a34.6 34.6 0 0 1 17.173 29.888v8.3a11.745 11.745 0 0 0 0 19.3v6.757a1.085 1.085 0 0 0 2.169 0V67.4a11.755 11.755 0 0 0 10.227-.56 1.086 1.086 0 0 0-1.052-1.9 9.585 9.585 0 1 1 4.945-8.387 9.491 9.491 0 0 1-1.984 5.835 1.085 1.085 0 0 0 1.72 1.323 11.644 11.644 0 0 0 2.433-7.158A11.767 11.767 0 0 0 62.295 44.8z"/></svg>