<svg xmlns="http://www.w3.org/2000/svg" width="50.063" height="74.051" fill="#fff" xmlns:v="https://vecta.io/nano"><path d="M25.5.006h-.469A25.032 25.032 0 0 0 0 25.031c0 12.79 2.241 23.753 6.662 32.587 4.272 8.537 9.5 12.812 12.229 14.6a11.207 11.207 0 0 0 12.267.009c2.724-1.78 7.93-6.034 12.2-14.53 4.418-8.787 6.673-19.689 6.7-32.4A25.174 25.174 0 0 0 25.5.006zm18.306 12.682v4.834a24.753 24.753 0 0 1-2.269 10.357 6.293 6.293 0 0 0-1.378-1.511 17.511 17.511 0 0 0-.382-18.3 22.872 22.872 0 0 1 4.029 4.62zM25.032 43.394L17.095 38q-.593-.4-1.156-.838a6.292 6.292 0 0 0 3.416-3.055 17.606 17.606 0 0 0 11.355 0 6.292 6.292 0 0 0 3.416 3.055q-.565.433-1.156.838zM10.013 17.522A15.036 15.036 0 0 1 25.032 2.5h.399a15.64 15.64 0 0 1 .574.027 1.251 1.251 0 0 0 .279 2.471 1.253 1.253 0 0 1 1.252 1.252v1.26a1.253 1.253 0 0 1-1.252 1.252h-3.129a.626.626 0 1 1 0-1.252h.626a1.252 1.252 0 0 0 0-2.5h-.626a3.129 3.129 0 1 0 0 6.258h3.129a3.759 3.759 0 0 0 3.755-3.755V6.258a3.761 3.761 0 0 0-2.536-3.55 15.018 15.018 0 0 1 10.41 22.538 6.255 6.255 0 0 0-7.874 6.045c0 .132.005.262.013.391a15.079 15.079 0 0 1-10.04 0c.008-.13.013-.26.013-.391a6.255 6.255 0 0 0-7.874-6.045 14.926 14.926 0 0 1-2.138-7.724zm3.755 10.013a3.755 3.755 0 0 1 0 7.51c-.085 0-.17 0-.254-.011a24.725 24.725 0 0 1-3.456-4.332 3.758 3.758 0 0 1 3.71-3.167zm22.783 7.5a3.57 3.57 0 0 1-.254.011 3.755 3.755 0 1 1 3.71-4.342 24.726 24.726 0 0 1-3.456 4.332zM9.136 9.067q.608-.606 1.254-1.159a17.508 17.508 0 0 0-.486 18.459 6.293 6.293 0 0 0-1.38 1.506 24.746 24.746 0 0 1-2.266-10.351v-4.955a22.761 22.761 0 0 1 2.879-3.5zm20.652 61.066a8.7 8.7 0 0 1-9.527-.008c-2.522-1.65-7.352-5.615-11.361-13.626-4.245-8.483-6.4-19.07-6.4-31.466a22.556 22.556 0 0 1 1.253-7.44 27.238 27.238 0 0 0 11.932 22.474l8.52 5.794A24.737 24.737 0 0 1 35.03 65.576a27.76 27.76 0 0 1-5.241 4.557zm11.334-13.559a42.278 42.278 0 0 1-3.807 6.222 27.229 27.229 0 0 0-10.123-17.845l7.183-4.885a27.237 27.237 0 0 0 11.929-22.309 22.791 22.791 0 0 1 1.255 7.531c-.03 12.323-2.2 22.849-6.437 31.286zM16.27 15.234a2.273 2.273 0 0 1 1.618.67 1.252 1.252 0 0 0 1.77-1.77 4.792 4.792 0 0 0-6.776 0 1.252 1.252 0 1 0 1.77 1.77 2.274 2.274 0 0 1 1.618-.67zm15.904.67a2.288 2.288 0 0 1 3.236 0 1.252 1.252 0 0 0 1.77-1.77 4.792 4.792 0 0 0-6.776 0 1.252 1.252 0 0 0 1.77 1.77zm-8.394 2.87a1.248 1.248 0 0 0 .885-.367.518.518 0 0 1 .733 0 1.252 1.252 0 0 0 1.77-1.77 3.021 3.021 0 0 0-4.273 0 1.252 1.252 0 0 0 .885 2.137zm-2.899 4.942a13.206 13.206 0 0 0 8.3 0 1.252 1.252 0 1 0-.792-2.375 10.688 10.688 0 0 1-6.718 0 1.252 1.252 0 1 0-.791 2.375z"/></svg>