<svg xmlns="http://www.w3.org/2000/svg" width="71.732" height="69.375" xmlns:v="https://vecta.io/nano"><path d="M70.006 51.687h-4.255a6.936 6.936 0 0 0 2.239-3.853 9.382 9.382 0 0 0 .018-3.361 12.118 12.118 0 0 1 .085-4.4 2.894 2.894 0 0 0-.652-3c-.888-.781-2.338-.814-4.311-.1a4.941 4.941 0 0 0-1.66 1.008 7.894 7.894 0 0 0-9.506 3.16A16.3 16.3 0 0 0 47 38.978a1.051 1.051 0 1 0-.531 2.033A13.94 13.94 0 0 1 51 43.027a8.392 8.392 0 0 0-.094.266 7.6 7.6 0 0 0-.364 3.152 8.692 8.692 0 0 0 2.421 5.24H42.677v-3.269h2.793a1.051 1.051 0 1 0 0-2.1H33.376v-3.929a3.9 3.9 0 0 0 .4-.2 15.9 15.9 0 0 1 8.016-1.8h.018a1.051 1.051 0 0 0 .017-2.1 21.684 21.684 0 0 0-3.518.226V32.93a8.863 8.863 0 0 0 2.491-2.743 7.883 7.883 0 0 0 1.117-4.431l.042-.919v-2.635a5.549 5.549 0 0 0-5.542-5.543h-.367a8.4 8.4 0 0 0 2.6-5.51V8.993a9.169 9.169 0 0 0-2.508-6.656 7.993 7.993 0 0 0-5.571-2.338h-.033a8 8 0 0 0-5.573 2.338 9.165 9.165 0 0 0-2.511 6.656v2.156a8.4 8.4 0 0 0 2.6 5.51h-.369a5.423 5.423 0 0 0-4.838 2.918l-6.118 9.936c-.692-1.243-2.407-3.915-4.436-4.07a2.032 2.032 0 0 0-1.745.5 1.915 1.915 0 0 0-.282 1.744l1.478 8.43a2.606 2.606 0 0 0 .728 1.739 2.245 2.245 0 0 0 1.8.283l.481-.049a11.9 11.9 0 0 1 5.944.956 17.72 17.72 0 0 1 2.356 1.311v5.63H11.5c-1.236 0-1.269-.07-1.429-.406-.206-.436-2.083-4.263-4.643-4.459a2.03 2.03 0 0 0-1.748.5 1.9 1.9 0 0 0-.276 1.752l1.46 8.313H1.722A1.724 1.724 0 0 0 0 53.406v8.237a1.726 1.726 0 0 0 1.722 1.726h2.619v1.952a4.058 4.058 0 0 0 4.053 4.053h54.94a4.058 4.058 0 0 0 4.053-4.053v-1.952h2.619a1.728 1.728 0 0 0 1.726-1.726v-8.237a1.726 1.726 0 0 0-1.726-1.719zm-7.374-6.25a6.168 6.168 0 0 1-.475-4.85 2.862 2.862 0 0 1 1.691-1.639 5.36 5.36 0 0 1 1.75-.388.8.8 0 0 1 .455.089c.036.032.14.288-.011.961a14.246 14.246 0 0 0-.122 5.1 7.732 7.732 0 0 1 .026 2.633c-.6 2.507-2.049 3.715-5.473 4.147l.027-.023c2.906-2.507 2.763-4.664 2.132-6.03zm-10.005.784a5.481 5.481 0 0 1 .27-2.269 6.32 6.32 0 0 1 5.076-4.355 6 6 0 0 1 2.243.186 8.2 8.2 0 0 0 .508 6.533c1.028 2.227-2.886 4.6-4.127 5.278a6.306 6.306 0 0 1-3.969-5.373zm-12.052 2.2v3.266H31.43a1.638 1.638 0 0 1 .156-3.268zm-4.368-9.474a14.29 14.29 0 0 0-3.495 1.423l-.056.033a17.4 17.4 0 0 1-.408-.512l-.639-.805a22.365 22.365 0 0 0-2.127-2.192l5.787-2.335.938-.407v4.8zm-9.126-3.351a1.304 1.304 0 0 1-.967-2.422l.028-.012 5.308-2.3 1.25 2.468zm3.473-33.495a6.076 6.076 0 0 1 5.912 5.624l-7.523-1.516a3.384 3.384 0 0 0-.849-.113 3.9 3.9 0 0 0-2.293.9 5.834 5.834 0 0 1-1.156.677 6.073 6.073 0 0 1 5.91-5.575zm-6 9.049V9.897A6.658 6.658 0 0 0 27 8.724c.689-.479.911-.612 1.416-.481.377.1 5.827 1.212 8.132 1.637v1.27c0 1.806-1.724 4.453-4.1 5.584a1.066 1.066 0 0 0-.1.044 5.49 5.49 0 0 1-.4.165 4 4 0 0 1-1.4.289 4.046 4.046 0 0 1-1.4-.287 4.799 4.799 0 0 1-.381-.159 1.068 1.068 0 0 0-.1-.048c-2.208-1.06-4.112-3.594-4.112-5.587zm8.423 7.648v.315a2.62 2.62 0 0 1-2.423 2.774 2.621 2.621 0 0 1-2.428-2.774v-.316q.149.063.3.119a5.627 5.627 0 0 0 4.258 0q.148-.055.295-.117zm-11.342 1.883a3.318 3.318 0 0 1 3.049-1.919h1.34v.351a4.717 4.717 0 0 0 4.53 4.875 4.716 4.716 0 0 0 4.526-4.875v-.351h1.34a3.445 3.445 0 0 1 3.441 3.441v2.551l-.042.913a5.826 5.826 0 0 1-.838 3.47 8.145 8.145 0 0 1-4.327 3.4l-1.281-2.53a4.7 4.7 0 0 0 1.327-1.043 1.041 1.041 0 0 0 .137-.179l1.267-2.085a1.052 1.052 0 0 0-1.8-1.091L33.1 27.594a2.9 2.9 0 0 1-1.189.777l-6.6 2.858a3.369 3.369 0 0 0-1.459 1.138 13.5 13.5 0 0 0-2.985-1.18l2.139-3.478a1.051 1.051 0 1 0-1.79-1.1l-2.533 4.118a38.4 38.4 0 0 0-3.021-.345zm-6.9 15.376a14.28 14.28 0 0 0-3.174-.063l-.691.071-1.485-8.457c.83.353 2.081 1.988 2.767 3.428a2.013 2.013 0 0 0 1.36 1.308c.654.084 1.13.07 1.346.085l.844.065zm7.42 5.968a8.24 8.24 0 0 1 2.448 3.6 7.848 7.848 0 0 1-2.448.323zm-8.814 6.062h6.618c4.079 0 5.483-.241 6.258-1.073a1.886 1.886 0 0 0 .493-1.463c-.133-1.939-2.808-5.955-8.129-8.416a12.44 12.44 0 0 0-1.781-.648l1.02-3.76a14.036 14.036 0 0 1 5.375 1.687 3.4 3.4 0 0 0 4.046 3.32 22.1 22.1 0 0 1 2.742 2.687l.608.766a8.76 8.76 0 0 0 .684.81v4.336a3.737 3.737 0 0 0-3.053 5.354H13.341zm-5.166-1.609c.708 1.492 1.931 1.6 3.064 1.608v3.6H7l-1.474-8.409a7.206 7.206 0 0 1 2.649 3.2zm61.455 14.79H38.374a1.051 1.051 0 1 0 0 2.1h26.912v1.952a1.954 1.954 0 0 1-1.952 1.952H8.394a1.954 1.954 0 0 1-1.952-1.952v-1.951h27.309a1.051 1.051 0 0 0 0-2.1H2.1v-7.482h67.53z" fill="#fff"/></svg>