<svg xmlns="http://www.w3.org/2000/svg" width="67.859" height="74.051" fill="#fff" xmlns:v="https://vecta.io/nano"><path d="M34.958 49.48l-1.057-.8a9.02 9.02 0 0 0-6.093 0l-1.057.8a1.446 1.446 0 0 0-.194 2.136l.4.435a5.3 5.3 0 0 0 7.793 0l.4-.435a1.446 1.446 0 0 0-.194-2.136zm-13.926-8.925a8.269 8.269 0 0 1-.984-.057 1.446 1.446 0 1 0-.338 2.873 11.3 11.3 0 0 0 1.316.077h.008a1.446 1.446 0 0 0 0-2.893zm6.924.491a11.389 11.389 0 0 0 .991-.882 1.446 1.446 0 1 0-2.045-2.046 8.422 8.422 0 0 1-.738.656 1.446 1.446 0 1 0 1.792 2.271zm2.878-15.712a1.446 1.446 0 0 0 1.446-1.446v-1.132a1.446 1.446 0 0 0-2.893 0v1.132a1.446 1.446 0 0 0 1.447 1.446zm0 7.808a1.446 1.446 0 0 0 1.446-1.446V30.25a1.446 1.446 0 0 0-2.893 0v1.446a1.446 1.446 0 0 0 1.447 1.446z"/><path d="M67.435 61.921L52.27 46.755a25.753 25.753 0 0 0 9.4-19.555 25.356 25.356 0 0 0-6.921-17.178A31.79 31.79 0 0 0 37.592.654a1.447 1.447 0 1 0-.56 2.84c12.6 2.484 21.743 12.455 21.743 23.708a22.528 22.528 0 0 1-6.613 15.692 24.268 24.268 0 0 0 .183-2.948v-8.113a14.9 14.9 0 0 0-.327-3.108 13.131 13.131 0 0 0 2.724-5.055 1.446 1.446 0 0 0-2.785-.782 10.257 10.257 0 0 1-1.081 2.506 14.56 14.56 0 0 0-6.523-6.639l-.446-.219a11.408 11.408 0 0 0 1.412-5.532 1.447 1.447 0 0 0-2.893 0 8.536 8.536 0 0 1-1.193 4.39 29.96 29.96 0 0 0-20.8 0 8.536 8.536 0 0 1-1.195-4.385 1.447 1.447 0 0 0-2.893 0 11.408 11.408 0 0 0 1.412 5.532l-.446.219a14.56 14.56 0 0 0-6.519 6.634 10.257 10.257 0 0 1-1.082-2.505 1.446 1.446 0 0 0-2.785.782 13.131 13.131 0 0 0 2.724 5.055 14.9 14.9 0 0 0-.327 3.108v8.113a24.286 24.286 0 0 0 .18 2.949A22.489 22.489 0 0 1 2.892 27.2c0-11.254 9.145-21.224 21.744-23.706a1.446 1.446 0 1 0-.56-2.838 31.789 31.789 0 0 0-17.155 9.368A25.355 25.355 0 0 0 0 27.202c0 7.9 3.863 15.359 10.61 20.533A24.164 24.164 0 0 0 21.13 60.69v.884a10.053 10.053 0 0 1-7.116 9.65 1.446 1.446 0 1 0 .855 2.763 12.992 12.992 0 0 0 9.14-11.84 24.114 24.114 0 0 0 6.658 1.756 1.448 1.448 0 0 0 .332 0 24.061 24.061 0 0 0 6.7-1.782 12.993 12.993 0 0 0 9.141 11.865 1.446 1.446 0 1 0 .855-2.763 10.053 10.053 0 0 1-7.116-9.65v-.921a24.165 24.165 0 0 0 6.28-5.4l13.62 13.62a1.446 1.446 0 0 0 2.045 0l4.909-4.909a1.446 1.446 0 0 0 0-2.045zm-24.566-15.5l-2.238-4.345 4.345 2.238zM32.28 60.777v-2.275a1.447 1.447 0 1 0-2.893 0v2.278a21.221 21.221 0 0 1-17.172-20.834v-8.113a11.713 11.713 0 0 1 6.411-10.5 27.011 27.011 0 0 1 24.416 0 11.713 11.713 0 0 1 6.411 10.5v8.113a21.329 21.329 0 0 1-.32 3.673l-.71-.71a1.447 1.447 0 0 0-.36-.263l-10.125-5.217a1.446 1.446 0 0 0-1.946 1.948l5.216 10.124a1.452 1.452 0 0 0 .263.36l3.337 3.337a21.287 21.287 0 0 1-12.525 7.578zm29.224 5.03L44.537 48.84l2.864-2.864 16.966 16.967zM30.834 2.893a1.447 1.447 0 0 0 1.451-1.447 1.446 1.446 0 1 0-1.446 1.446z"/></svg>