<svg xmlns="http://www.w3.org/2000/svg" xmlns:xlink="http://www.w3.org/1999/xlink" width="67.985" height="67.985" xmlns:v="https://vecta.io/nano"><g fill="#fff"><use xlink:href="#B"/><use xlink:href="#B" y="-4.533"/><use xlink:href="#B" y="-9.065"/><use xlink:href="#B" y="-13.597"/><use xlink:href="#B" y="-18.13"/><use xlink:href="#B" y="-22.662"/><use xlink:href="#B" y="-27.194"/><use xlink:href="#B" y="-31.727"/><use xlink:href="#B" y="-54.388"/><use xlink:href="#B" y="-36.259"/><use xlink:href="#B" y="-40.791"/><use xlink:href="#B" y="-45.324"/><use xlink:href="#B" y="-49.856"/><path d="M66.853 67.985a1.133 1.133 0 0 0 1.133-1.133V1.133A1.133 1.133 0 0 0 66.853 0a7.941 7.941 0 0 0-7.932 7.932v52.122a7.941 7.941 0 0 0 7.932 7.931zM61.188 7.931a5.675 5.675 0 0 1 4.532-5.552v63.227a5.675 5.675 0 0 1-4.532-5.552zM21.904 31.725h-.372v-3.4h.077c2.5-.006 5.886-.012 6.78.362a1.133 1.133 0 0 0 2.208-.36 1.668 1.668 0 0 0-.508-1.2c-1.037-1.035-3.488-1.077-8.484-1.066h-.073a1.133 1.133 0 0 0-2.266 0h-.072c-5-.011-7.448.031-8.485 1.066a1.668 1.668 0 0 0-.508 1.2 1.133 1.133 0 0 0 2.208.36c.895-.373 4.276-.367 6.78-.362h.077v3.4h-.375c-6.467-.011-9.375.031-10.471 1.125a1.611 1.611 0 0 0-.488 1.142 1.133 1.133 0 0 0 2.184.423c1.057-.437 5.313-.432 8.768-.425h.378v3.4h-.072c-5-.011-7.448.031-8.485 1.066a1.668 1.668 0 0 0-.508 1.2 1.133 1.133 0 0 0 2.208.36c.895-.373 4.276-.368 6.78-.362h.077v3.4h-3.4a1.133 1.133 0 0 0-1.133 1.133 5.666 5.666 0 0 0 11.331 0 1.133 1.133 0 0 0-1.128-1.13h-3.4v-3.4h.077c2.5-.006 5.886-.012 6.78.362a1.133 1.133 0 0 0 2.208-.36 1.668 1.668 0 0 0-.508-1.2c-1.037-1.035-3.488-1.076-8.484-1.066h-.073v-3.4h.378c3.453-.006 7.711-.012 8.768.425a1.133 1.133 0 0 0 2.184-.423 1.61 1.61 0 0 0-.486-1.143c-1.097-1.096-4.001-1.138-10.472-1.127zm1.7 13.6a3.4 3.4 0 0 1-6.41 0zM1.133 54.388H10.2v9.065a4.533 4.533 0 1 0 9.065 0v-9.065h2.266v9.065a4.532 4.532 0 1 0 9.065 0v-9.065h9.065a1.133 1.133 0 0 0 1.133-1.133V21.529a1.133 1.133 0 0 0-1.136-1.129h-3.481a7.943 7.943 0 0 0-7.849-6.8h-3.743a10.277 10.277 0 0 0 .769-1.046 11.36 11.36 0 0 0 1.84-5.753 6.8 6.8 0 0 0-13.6 0 11.36 11.36 0 0 0 1.84 5.753 10.277 10.277 0 0 0 .769 1.046h-3.739a7.943 7.943 0 0 0-7.849 6.8H1.133A1.133 1.133 0 0 0 0 21.529v31.726a1.133 1.133 0 0 0 1.133 1.133zM17 63.453a2.266 2.266 0 1 1-4.532 0v-9.065H17zm11.331 0a2.266 2.266 0 1 1-4.532 0v-9.065h4.532zM15.863 6.8a4.532 4.532 0 0 1 9.065 0c0 2.808-2.344 6.8-4.532 6.8s-4.533-3.993-4.533-6.8zm-3.4 9.065h15.864a5.675 5.675 0 0 1 5.552 4.535H6.913a5.675 5.675 0 0 1 5.551-4.532zm-10.2 6.8h36.262v29.46H2.266zM52.122 62.32V7.932a1.133 1.133 0 0 0-1.133-1.133h-20.4a1.133 1.133 0 0 0 0 2.266H49.86v52.122H37.392a1.133 1.133 0 1 0 0 2.266h13.6a1.133 1.133 0 0 0 1.13-1.133z"/></g><defs ><path id="B" d="M55.532 61.187h-.011a1.139 1.139 0 1 0 .011 0Z"/></defs></svg>