<svg xmlns="http://www.w3.org/2000/svg" width="74.282" height="74.282" fill="#fff" xmlns:v="https://vecta.io/nano"><path d="M71.029 23.001l-.409-.681a13.949 13.949 0 0 0-10.475-6.653 12.247 12.247 0 0 0-1.438-.092 11.975 11.975 0 0 0-9.517 19.252 11.8 11.8 0 0 0-1.909 3.658l-3.884 3.884a13.36 13.36 0 0 0-1.464 1.756v-4.589h-2.396v10.783h.073a13.3 13.3 0 0 0-.073 1.369v22.593h2.4V51.689a10.712 10.712 0 0 1 3.158-7.625l1.655-1.653a11.757 11.757 0 0 0 .555 3.244l-.514.514a8.323 8.323 0 0 0-2.457 5.929v22.183h2.4V52.099a5.938 5.938 0 0 1 1.64-4.1 11.993 11.993 0 0 0 10.341 5.911 12.206 12.206 0 0 0 1.421-.09 13.957 13.957 0 0 0 10.493-6.655l.409-.681a22.826 22.826 0 0 0 0-23.488zm-2.055 22.254l-.409.681a11.56 11.56 0 0 1-8.7 5.506 9.71 9.71 0 0 1-1.157.077 9.548 9.548 0 0 1-9.585-9.488 9.356 9.356 0 0 1 1.736-5.429 11.933 11.933 0 0 0 7.849 2.935v-2.4a9.582 9.582 0 1 1 1.175-19.092 11.546 11.546 0 0 1 8.684 5.5l.409.681a20.427 20.427 0 0 1 0 21.021zM66.92 25.468l-.41-.684a9.128 9.128 0 0 0-6.859-4.35 8.108 8.108 0 0 0-.944-.066v2.4a5.745 5.745 0 0 1 .684.053 6.737 6.737 0 0 1 5.066 3.2l.41.684a15.627 15.627 0 0 1 1.58 3.594l2.3-.683a17.975 17.975 0 0 0-1.827-4.148zm2.387 6.711l-2.373.339a15.751 15.751 0 0 1 .159 2.227h2.4a18.38 18.38 0 0 0-.186-2.566zm-48.94-4.622a4.8 4.8 0 0 1-1.552 3.525l1.622 1.765a7.186 7.186 0 0 0-4.862-12.479v2.4a4.8 4.8 0 0 1 4.792 4.789zm-2.876 4.392a4.73 4.73 0 0 1-1.916.4v2.4a7.117 7.117 0 0 0 2.877-.6zM39.282 0h3v37h-3zm-6.933 44.126a13.36 13.36 0 0 0-1.464-1.756L27 38.485a11.831 11.831 0 0 0-1.909-3.659 11.976 11.976 0 0 0-9.518-19.251 12.241 12.241 0 0 0-1.422.09A13.957 13.957 0 0 0 3.66 22.321L3.252 23a22.829 22.829 0 0 0 0 23.488l.409.681a13.946 13.946 0 0 0 10.475 6.653 12.249 12.249 0 0 0 1.439.092A11.993 11.993 0 0 0 25.916 48a5.942 5.942 0 0 1 1.64 4.1v22.182h2.4V52.1a8.333 8.333 0 0 0-2.456-5.931l-.514-.514a11.72 11.72 0 0 0 .555-3.244l1.655 1.653a10.717 10.717 0 0 1 3.158 7.625v22.593h2.4V51.69a13.335 13.335 0 0 0-.073-1.369h.073V0h-2.4zM14.4 51.44a11.547 11.547 0 0 1-8.684-5.5l-.409-.682a20.425 20.425 0 0 1 0-21.019l.409-.681a11.56 11.56 0 0 1 8.7-5.506 9.711 9.711 0 0 1 1.157-.077 9.585 9.585 0 0 1 0 19.17v2.4a11.934 11.934 0 0 0 7.85-2.937 9.375 9.375 0 0 1 1.735 5.43A9.577 9.577 0 0 1 14.4 51.44z"/></svg>