<svg xmlns="http://www.w3.org/2000/svg" width="68.359" height="94.608" viewBox="0 0 68.359 94.608">
  <g id="data_1_" data-name="data (1)" transform="translate(-71 512.05)">
    <path id="Path_402" data-name="Path 402" d="M102.039-511.745a3.936,3.936,0,0,0-2.4,3.4l-.092,1.016-3.972.092a26.609,26.609,0,0,0-4.434.314,8.77,8.77,0,0,0-1.33.85l-.868.665-7.446.055c-7.224.055-7.464.074-8.185.462a4.3,4.3,0,0,0-2.014,2.125c-.259.61-.3,5.007-.3,41.385,0,38.983.018,40.738.351,41.441a4.8,4.8,0,0,0,2.55,2.291c.979.277,61.579.277,62.558,0a4.8,4.8,0,0,0,2.55-2.291c.333-.7.351-2.457.351-41.441,0-36.378-.037-40.775-.3-41.385a4.3,4.3,0,0,0-2.014-2.125c-.721-.388-.961-.406-8.185-.462l-7.446-.055-.868-.665a8.769,8.769,0,0,0-1.33-.85,26.608,26.608,0,0,0-4.434-.314l-3.972-.092-.092-1.016a3.9,3.9,0,0,0-2.439-3.4A16.141,16.141,0,0,0,102.039-511.745Zm5.487,2.753c.333.24.388.5.462,1.94.092,2.587-.148,2.476,5.561,2.587,5.21.111,5.247.111,5.857,1.4a5.818,5.818,0,0,1,.37,2.808c0,2.439-.148,2.919-1.016,3.27-.942.406-26.217.406-27.159,0-.868-.351-1.016-.831-1.016-3.27a5.818,5.818,0,0,1,.37-2.808c.61-1.293.647-1.293,5.857-1.4,5.709-.111,5.469,0,5.561-2.587.092-2.162.166-2.217,2.808-2.217A4.977,4.977,0,0,1,107.526-508.992Zm-19.713,8.037v1.663H83.526c-3.972,0-4.36.037-4.914.37a3.4,3.4,0,0,0-.961.961c-.351.591-.37.961-.37,8.111,0,7.021.018,7.538.333,7.944A1.315,1.315,0,0,0,79.628-482l.425-.5v-14.023H84.21a19.671,19.671,0,0,1,4.157.185c0,.425,1.367,1.663,2.18,1.977s1.792.333,14.633.333,13.82-.018,14.633-.333,2.18-1.552,2.18-1.977a19.671,19.671,0,0,1,4.157-.185h4.157v70.392H80.053v-50.641l-.462-.443a1.359,1.359,0,0,0-1.94-.092c-.37.37-.37.61-.37,26.124v25.736l.425.61a4.812,4.812,0,0,0,.924,1l.517.388h52.064l.517-.388a5.44,5.44,0,0,0,.942-1l.406-.61V-461.4c0-35.547,0-35.953-.37-36.563a3.4,3.4,0,0,0-.961-.961c-.554-.333-.942-.37-4.9-.37h-4.3v-3.344l6.67.055,6.67.055.351.443c.351.425.351,1.33.351,40.757v40.351l-.48.37-.5.388H74.751l-.5-.388-.48-.37v-80.738l.462-.443.443-.462H87.813Z" fill="#2c704f"/>
    <path id="Path_403" data-name="Path 403" d="M7.661.249A10.415,10.415,0,0,0,.03,9.524a9.707,9.707,0,0,0,3.067,8,9.356,9.356,0,0,0,7.132,3.011,9.745,9.745,0,0,0,7.39-3.085,9.924,9.924,0,0,0,1.9-11.732A10.2,10.2,0,0,0,12.815.249,13.439,13.439,0,0,0,7.661.249Zm5.857,3.178a7.534,7.534,0,1,1-10.4,9.09A5.7,5.7,0,0,1,2.8,9.82,7.343,7.343,0,0,1,7.679,3.187a5.348,5.348,0,0,1,2.827-.406A6.112,6.112,0,0,1,13.517,3.427Z" transform="translate(90.622 -478.799) rotate(-45)" fill="#2c704f"/>
    <path id="Path_404" data-name="Path 404" d="M.388.513A1.729,1.729,0,0,0,0,1.345,5.107,5.107,0,0,0,1.035,2.9L2.069,4.116,1.035,5.206C-.037,6.333-.129,6.555.2,7.294a1.7,1.7,0,0,0,1.386.868A4.566,4.566,0,0,0,2.975,7.109l1.09-1.035,1.09,1.035c1.2,1.146,1.607,1.256,2.309.628C8.3,7,8.185,6.351,7.021,5.132A5.852,5.852,0,0,1,6.1,3.987a6.519,6.519,0,0,1,.942-1.109c.7-.7.924-1.09.942-1.515A1.21,1.21,0,0,0,6.67.033c-.536,0-.813.166-1.626.961l-.961.961L3.067.993C1.848-.152,1.035-.3.388.513Z" transform="translate(99.445 -478.824) rotate(-45)" fill="#2c704f"/>
    <path id="Path_405" data-name="Path 405" d="M133.182-261.553c-1.109.48-1.182.776-1.182,4.3v3.2l.536.591.536.61,12.748.055c12.674.037,12.73.037,13.21-.351a1.237,1.237,0,0,0,.018-2c-.48-.37-.7-.388-6.577-.388h-6.078l.055-1.718.055-1.7L157-259l10.476-.037v3.51h-1.644c-1.367,0-1.7.055-2.125.388a1.285,1.285,0,0,0-.055,1.977c.425.406.536.406,5.746.406,7.261,0,7,.166,6.91-4.73l-.055-3.03-.61-.591-.591-.61-20.656-.037C137.266-261.793,133.663-261.756,133.182-261.553Zm10.457,4.268v1.755h-8.868v-3.51h8.868Zm29.93,0v1.755h-3.326v-3.51h3.326Z" transform="translate(-49.73 -204.041)" fill="#2c704f"/>
    <path id="Path_406" data-name="Path 406" d="M135.395-197.52a1.2,1.2,0,0,0,.369,2.014c.425.222,1.644.277,6.8.277h6.282l.5-.425a1.315,1.315,0,0,0,.092-2.014c-.406-.314-.887-.333-7.039-.333h-6.633Z" transform="translate(-52.183 -256.028)" fill="#2c704f"/>
    <path id="Path_407" data-name="Path 407" d="M238.518-197.52c-.517.665-.48,1.109.148,1.755l.536.536h11.215c9.459,0,11.27-.037,11.713-.277a1.2,1.2,0,0,0,.37-2.014l-.37-.48H238.888Z" transform="translate(-136.276 -256.028)" fill="#2c704f"/>
    <path id="Path_408" data-name="Path 408" d="M135.388-165.52a1.782,1.782,0,0,0-.388.924,1.551,1.551,0,0,0,1.145,1.275c.24.055,3.233.092,6.651.055,6.134-.055,6.245-.055,6.633-.462a1.338,1.338,0,0,0,0-1.94c-.406-.314-.887-.333-7.039-.333h-6.633Z" transform="translate(-52.176 -282.116)" fill="#2c704f"/>
    <path id="Path_409" data-name="Path 409" d="M238.518-165.52c-.517.665-.48,1.109.148,1.755l.536.536h11.215c9.459,0,11.27-.037,11.713-.277a1.2,1.2,0,0,0,.37-2.014l-.37-.48H238.888Z" transform="translate(-136.276 -282.116)" fill="#2c704f"/>
    <path id="Path_410" data-name="Path 410" d="M135.474-133.52a1.247,1.247,0,0,0,.48,2.069c.3.166,5.69.222,21.025.222,17.736,0,20.693-.037,21.136-.277a1.2,1.2,0,0,0,.37-2.014l-.37-.48H135.844Z" transform="translate(-52.262 -308.203)" fill="#2c704f"/>
    <path id="Path_411" data-name="Path 411" d="M135.388-101.52a1.741,1.741,0,0,0-.388.887,1.584,1.584,0,0,0,1.33,1.312c.333.055,6.614.092,13.931.055,12.822-.055,13.358-.074,13.727-.406a1.468,1.468,0,0,0,.018-1.958c-.37-.37-.61-.37-14.3-.37H135.758Z" transform="translate(-52.176 -334.291)" fill="#2c704f"/>
  </g>
</svg>
