<svg xmlns="http://www.w3.org/2000/svg" width="89.265" height="90.904" viewBox="0 0 89.265 90.904">
  <g id="microscope" transform="translate(-8.6 503.89)">
    <path id="Path_396" data-name="Path 396" d="M15.636-503.273c-.559.162-1.281.74-3.229,2.652-2.6,2.544-3.193,3.356-3.193,4.42,0,1.1.343,1.606,2.76,4.023l2.363,2.381-.4.722a3.358,3.358,0,0,0-.216,2.67,68.862,68.862,0,0,0,5.069,5.376l4.853,4.889-.523.974a10.115,10.115,0,0,0-.758,1.894,4.073,4.073,0,0,1-1.227,1.984A27.909,27.909,0,0,0,13.6-457.126a38.482,38.482,0,0,0,0,10.283A27.428,27.428,0,0,0,26.388-428.6l1.461.884H23.808a26.69,26.69,0,0,0-5.2.271,9.172,9.172,0,0,0-6.044,4.817,10.813,10.813,0,0,0-1.01,5.214v1.75l-1.082.072c-1.353.09-1.876.523-1.876,1.515A1.212,1.212,0,0,0,9.105-413l.487.433H71.128l.523-.523a1.25,1.25,0,0,0,0-2.021c-.469-.451-.667-.523-1.533-.523h-1.01v-1.984a9.9,9.9,0,0,0-.938-4.979,9.271,9.271,0,0,0-5.105-4.582c-.992-.4-1.425-.433-5.593-.523l-4.51-.108,1.191-.667a27.866,27.866,0,0,0,9.652-9.634l.992-1.7h2.49c3.59,0,4.871-.559,5.863-2.562a4.374,4.374,0,0,0-.667-4.979c-1.173-1.263-1.786-1.479-4.528-1.479H65.644l.126-.415a14.614,14.614,0,0,0,.216-1.678,3.575,3.575,0,0,0-.343-2.273,4.957,4.957,0,0,0-4.51-3.175,4.756,4.756,0,0,0-4.041,1.479,4.66,4.66,0,0,0-1.461,4.041,10.739,10.739,0,0,0,.216,1.606l.126.415h-2.49c-2.039,0-2.634.072-3.229.343a5.435,5.435,0,0,0-2.417,2.652,4.578,4.578,0,0,0,3.031,5.809l.974.325-1.335,1.137a16.79,16.79,0,0,1-8.1,3.879,16.568,16.568,0,0,1-17.806-9,13.681,13.681,0,0,1-1.624-6.711,12.257,12.257,0,0,1,.289-4.24,16.034,16.034,0,0,1,4.474-8.1l1.227-1.191,1.533-.2a8.869,8.869,0,0,0,2.688-.776l1.137-.559.884.866c.74.74.884.974.884,1.533,0,1.1.307,1.624,1.858,3.193,1.732,1.75,2.165,2.021,3.283,2.021,1.01,0,1.389-.18,2.4-1.137l.758-.74L46.25-457.9a22.349,22.349,0,0,0,2.237,2.021,3.851,3.851,0,0,0,2.544-.054,34.8,34.8,0,0,0,3.139-2.941c2.183-2.2,2.652-2.8,2.76-3.356.271-1.389.018-1.876-2-3.915a19.619,19.619,0,0,1-1.876-2.093,2.591,2.591,0,0,1,.631-.794,3.132,3.132,0,0,0,.884-3.7,16.558,16.558,0,0,0-3.752-3.7,4.787,4.787,0,0,0-1.245-.18h-.758L37.627-487.776c-9.886-9.868-11.257-11.185-11.853-11.293a3.02,3.02,0,0,0-2.345.451l-.415.325-2.363-2.327a23.185,23.185,0,0,0-2.8-2.49A3.666,3.666,0,0,0,15.636-503.273Zm3.139,9.255a19.241,19.241,0,0,1-2.255,2.075,19.241,19.241,0,0,1-2.255-2.075l-2.075-2.075,2.165-2.165,2.165-2.165,2.165,2.165,2.165,2.165ZM35.823-485.3l10.626,10.7-4.276,4.276L37.9-466.056l-.812-.83-.83-.812.415-.884a5.665,5.665,0,0,0,.415-2.886,5.426,5.426,0,0,0-.577-3.211,7.618,7.618,0,0,0-9.85-3.752l-.794.343-4.33-4.348c-2.363-2.4-4.456-4.546-4.654-4.781l-.343-.415,4.221-4.221c2.327-2.327,4.276-4.221,4.33-4.2C25.143-496.021,29.978-491.186,35.823-485.3Zm-3.933,9.652a6.147,6.147,0,0,1,1.082.884,4.452,4.452,0,0,1-1.01,7.054,4.222,4.222,0,0,1-3.464.415,4.273,4.273,0,0,1-2.8-2.381,3.312,3.312,0,0,1-.4-2.2,6.208,6.208,0,0,1,.379-1.786,5.55,5.55,0,0,1,1.966-1.966A5.255,5.255,0,0,1,31.89-475.653Zm14.577,9.507-5.322,5.322-1.028-1.046L39.07-462.9l5.322-5.322,5.322-5.322,1.028,1.028,1.046,1.046Zm-23.543-2.183a9.046,9.046,0,0,0,2.129,2.58l.722.559-1.245,1.533a19.71,19.71,0,0,0-4.312,14.234,19.167,19.167,0,0,0,2.075,7,19.431,19.431,0,0,0,19.321,10.716,19.982,19.982,0,0,0,13.079-6.747l1.137-1.353H58.5a14.1,14.1,0,0,1,2.67.126,19.646,19.646,0,0,1-2.526,3.572,24.894,24.894,0,0,1-13.711,7.974,31.085,31.085,0,0,1-9.146,0,26.612,26.612,0,0,1-5.917-2.021A24.321,24.321,0,0,1,16.5-448.087a28.384,28.384,0,0,1,.361-9.507,24.529,24.529,0,0,1,4.709-9.543C22.563-468.4,22.924-468.725,22.924-468.329Zm29.045,7.5a19.244,19.244,0,0,1-2.255,2.075A10.22,10.22,0,0,1,48-460.283l-1.533-1.533,2.165-2.165,2.165-2.165,1.624,1.624,1.624,1.624Zm9.471,7.487c.451,0,1.335.92,1.515,1.551a2.236,2.236,0,0,1-2.742,2.76,2.246,2.246,0,0,1-.956-3.752,2.257,2.257,0,0,1,1.7-.631A2.449,2.449,0,0,0,61.44-453.337Zm8.371,7.667c.6.289.74.6.74,1.443a1.1,1.1,0,0,1-.469.974c-.469.379-.649.379-9.255.379-9.543,0-9.381.018-9.76-1.01a1.573,1.573,0,0,1,.7-1.786C52.474-446.049,69.071-446.067,69.811-445.67Zm-7.162,21.612a6.547,6.547,0,0,1,3.013,3.3,7.481,7.481,0,0,1,.379,3.049v2.075H14.589l.072-2.309a10.1,10.1,0,0,1,.379-2.923,6.644,6.644,0,0,1,3.807-3.536c.6-.18,5-.216,21.757-.2l21.017.036Z" transform="translate(0 -0.42)" fill="#2c704f"/>
    <path id="Path_397" data-name="Path 397" d="M240.747-503.657a7.62,7.62,0,0,0-5.34,8.425,7.86,7.86,0,0,0,2.273,4.294,7.442,7.442,0,0,0,8.479,1.317l1.119-.523.92.794.938.794-.722.956a13.569,13.569,0,0,0,.072,15.876,13.245,13.245,0,0,0,13.4,5.43c.776-.144,1.425-.271,1.443-.271,0,0,.433.577.956,1.263l.938,1.263-.487,1.227a11.55,11.55,0,0,0-.451,5.683,10.447,10.447,0,0,0,4.727,6.4,9.894,9.894,0,0,0,13.621-4.149,9.8,9.8,0,0,0-8.3-14.162l-1.588-.108-.974-1.353a10.226,10.226,0,0,1-.992-1.5,4.771,4.771,0,0,1,.523-1.01,14.5,14.5,0,0,0,1.66-5.142,14.005,14.005,0,0,0-1.84-8.515l-.758-1.245.7-.613c.4-.325.956-.794,1.245-1.046l.541-.433,1.1.541a6.769,6.769,0,0,0,8.984-3.049,6.733,6.733,0,0,0-3.1-9.092,4.8,4.8,0,0,0-2.923-.6,4.8,4.8,0,0,0-2.923.6,7.267,7.267,0,0,0-3.41,3.608,7.469,7.469,0,0,0-.036,4.817l.361.92-1.335,1.118L268.241-490l-.668-.523a13.79,13.79,0,0,0-6.693-2.6,13.151,13.151,0,0,0-8.335,1.822,3.1,3.1,0,0,1-1.353.577,8.382,8.382,0,0,1-1.028-.866l-.812-.758.451-1.137a7.549,7.549,0,0,0-4.8-10.139A9.189,9.189,0,0,0,240.747-503.657Zm3.41,3.067a4.289,4.289,0,0,1,3.121,3.951,4.7,4.7,0,0,1-.108,1.624l-.2.505-1.01-.848c-.776-.667-1.155-.866-1.624-.866a1.437,1.437,0,0,0-1.443,1.281c-.108.523-.018.686.9,1.642l1.01,1.064-.7.2a4.465,4.465,0,0,1-5.358-2.417,3.218,3.218,0,0,1-.4-2.147A4.423,4.423,0,0,1,244.157-500.59Zm34.944,2a3.759,3.759,0,0,1-.343,6.368,4.356,4.356,0,0,1-2.941.307c-.379-.126-.325-.2.7-1.155.956-.884,1.118-1.119,1.118-1.66a1.293,1.293,0,0,0-.4-1.01c-.884-.776-1.443-.686-2.832.487a5.246,5.246,0,0,1-.974.722c-.235,0-.325-1.245-.126-1.966a4.79,4.79,0,0,1,2.075-2.49,4.56,4.56,0,0,1,1.75-.18A2.94,2.94,0,0,1,279.1-498.588Zm-17.193,8.659a11.209,11.209,0,0,1,6.513,4.672,10.685,10.685,0,0,1,.83,9.634l-.451.956-.6-.451a4.566,4.566,0,0,0-2.959-1.01,4.412,4.412,0,0,0-4.294,3.139,4.206,4.206,0,0,0,.361,3.572c.108.289-.018.325-1.66.325a14.608,14.608,0,0,1-2.832-.271,11.023,11.023,0,0,1-7.6-7.6,13.735,13.735,0,0,1,.018-5.358,10.955,10.955,0,0,1,5.538-6.837A11.818,11.818,0,0,1,261.908-489.928Zm4.131,16.958A49.072,49.072,0,0,1,269.7-468.1a2.318,2.318,0,0,1-.7.433,8.783,8.783,0,0,0-1.245.83l-.559.469-1.714-2.417c-1.93-2.688-2.075-3.157-1.263-3.987A1.371,1.371,0,0,1,266.04-472.97Zm10.626,7.649a6.371,6.371,0,0,1,3.283,3.229,4.843,4.843,0,0,1,.667,2.923,4.843,4.843,0,0,1-.667,2.923,6.353,6.353,0,0,1-3.374,3.265,4.935,4.935,0,0,1-2.742.559,4.813,4.813,0,0,1-2.923-.667,6.707,6.707,0,0,1-2.977-9.381,6.955,6.955,0,0,1,4.546-3.374A7.354,7.354,0,0,1,276.665-465.321Z" transform="translate(-185.801)" fill="#2c704f"/>
    <path id="Path_398" data-name="Path 398" d="M331.71-410.285a9.032,9.032,0,0,0-3.337,3.049,8.251,8.251,0,0,0-1.028,4.131,1.735,1.735,0,0,0,1.533,1.245c.848,0,1.245-.505,1.533-1.876a5.236,5.236,0,0,1,3.1-4c.992-.433,1.317-.83,1.317-1.588a1.2,1.2,0,0,0-.74-1.281C333.352-411.006,332.865-410.934,331.71-410.285Z" transform="translate(-261.213 -76.252)" fill="#2c704f"/>
  </g>
</svg>
