<svg xmlns="http://www.w3.org/2000/svg" width="83.43" height="90.905" viewBox="0 0 83.43 90.905">
  <g id="healthcare_1_" data-name="healthcare (1)" transform="translate(-21 511.94)">
    <path id="Path_399" data-name="Path 399" d="M188.669-511.684a12.74,12.74,0,0,0-6.854,3.871,11.937,11.937,0,0,0-2.806,4.51,12.949,12.949,0,0,0,1.758,12.021c.426.6,2.61,2.894,4.848,5.114,3.551,3.534,4.137,4.049,4.617,4.049a1.271,1.271,0,0,0,1.35-1.225c0-.5-.479-1.048-4.173-4.777a63.464,63.464,0,0,1-4.812-5.221,10.194,10.194,0,0,1,1.385-12.838,10.151,10.151,0,0,1,11.968-1.935,10.549,10.549,0,0,1,4.262,4.155c.746,1.438,1.207,1.953,1.74,1.953.746,0,1.1-.337,1.758-1.651a10.116,10.116,0,0,1,1.936-2.557,10.211,10.211,0,0,1,16.6,3.054,10.456,10.456,0,0,1-.213,8.967c-.515,1.048-1.492,2.1-10.246,10.867l-9.678,9.731-3.463-3.445a39.165,39.165,0,0,0-3.853-3.516,1.364,1.364,0,0,0-1.616,1.687,54.674,54.674,0,0,0,4.262,4.528c3.143,3.107,4.262,4.12,4.581,4.12.337,0,2.806-2.379,11.009-10.619,10.21-10.228,10.6-10.654,11.329-12.057a13.151,13.151,0,0,0-1.385-14.188,13.7,13.7,0,0,0-7.653-4.617,13.117,13.117,0,0,0-12.394,4.386l-.835,1.03-1.119-1.243A13.021,13.021,0,0,0,188.669-511.684Z" transform="translate(-129.332)" fill="#2c704f"/>
    <path id="Path_400" data-name="Path 400" d="M265.882-449.762c-.71.266-.781.586-.835,3.036l-.053,2.379-2.415.053c-3.285.071-3.09-.178-3.09,4.066v3.285l.5.426c.479.408.621.426,2.806.426h2.291v2.362c0,3.285-.2,3.143,4.066,3.143,3.2,0,3.232,0,3.658-.444.426-.408.444-.515.444-2.752v-2.308h2.308c2.237,0,2.344-.018,2.752-.444.444-.426.444-.462.444-3.693,0-4.244.16-4.031-3.107-4.031h-2.4v-2.22c0-2.379-.142-2.948-.835-3.267A30.906,30.906,0,0,0,265.882-449.762Zm4.706,5.007c.124,3.2-.018,3.054,3.107,3.125l2.4.071v2.806h-2.344c-3.214,0-3.161-.053-3.161,3.143v2.362h-2.806l-.071-2.415c-.071-3.161,0-3.09-3.178-3.09h-2.291v-2.806l2.326-.071c2.291-.053,2.326-.053,2.752-.55.408-.479.426-.622.426-2.806v-2.308l1.385.053,1.367.053Z" transform="translate(-196.14 -51.002)" fill="#2c704f"/>
    <path id="Path_401" data-name="Path 401" d="M98.633-277.3c-.906.178-.639.018-10.672,5.824-4.244,2.45-7.778,4.457-7.831,4.457-.071,0-.266-.32-.444-.71a5.4,5.4,0,0,0-1.083-1.421c-1.385-1.278-1.527-1.3-7.085-1.4-4.155-.089-5.061-.16-5.5-.391a37.22,37.22,0,0,0-6.392-2.042,18.153,18.153,0,0,0-7.458.355,21.452,21.452,0,0,0-10.9,8.31,10.243,10.243,0,0,1-1.243,1.563,14.1,14.1,0,0,1-1.527-1.421c-1.918-1.918-2.007-1.918-4.084.178l-1.58,1.58-.923-.87c-.781-.746-1.048-.888-1.616-.888-.639,0-.87.2-4.972,4.315C21.391-255.937,21-255.493,21-254.942c0,.533.3.906,2.894,3.5,3.107,3.125,3.338,3.267,4.279,2.521a1.086,1.086,0,0,0,.462-.994c0-.586-.213-.852-2.166-2.841L24.3-254.942l3-3.019,3.019-3.019L42.1-249.207,53.85-237.452l-3.019,3.019-3.019,3.019-7.76-7.76c-5.327-5.309-7.937-7.8-8.275-7.884a1.265,1.265,0,0,0-1.509,1.261c-.053.675-.053.693,8.435,9.18,7.351,7.351,8.559,8.488,9.021,8.488.444,0,1.172-.639,4.919-4.386,5.327-5.327,5.132-4.812,2.859-7.174l-1.545-1.6,1.545-1.545c2.131-2.149,2.131-2.149.2-4.12l-1.563-1.6h8.079l.426-.444a1.207,1.207,0,0,0,.036-1.829c-.408-.391-.515-.391-5.824-.391h-5.4l-4.706-4.706-4.706-4.706.337-.568a26.709,26.709,0,0,1,3.64-4.6,14.926,14.926,0,0,1,9.891-4.723c2.61-.142,5.292.444,9.074,2.007l1.456.6h4.4a42.036,42.036,0,0,1,5.007.178,2.2,2.2,0,0,1,1.527,2.965c-.5,1.243-.089,1.19-9.908,1.3l-8.861.089-.426.5a1.063,1.063,0,0,0-.053,1.616l.373.479,9.18-.053,9.2-.053.852-.533a7.724,7.724,0,0,0,1.6-1.474c.657-.852,1.3-1.261,8.435-5.38,11.187-6.464,11.027-6.375,11.791-6.375a2.229,2.229,0,0,1,1.74,3.285c-.462.728-23.173,18.5-24.576,19.231-1.527.781-2.486.923-6.357.923-3.232,0-3.321.018-3.693.408a1.255,1.255,0,0,0,.071,1.847l.444.444,4.031-.071c4.368-.089,5.256-.249,7.1-1.332,1.527-.888,24.007-18.52,24.9-19.55a4.816,4.816,0,0,0,1.19-3.6A4.974,4.974,0,0,0,98.633-277.3ZM53-244.075l-.923.941-8.7-8.7-8.7-8.7.923-.923.941-.941,8.7,8.7,8.7,8.7Z" transform="translate(0 -192.906)" fill="#2c704f"/>
  </g>
</svg>
