<svg xmlns="http://www.w3.org/2000/svg" xmlns:xlink="http://www.w3.org/1999/xlink" width="1080" zoomAndPan="magnify" viewBox="0 0 810 809.999993" height="1080" preserveAspectRatio="xMidYMid meet" version="1.0"><path fill="#ffffff" d="M 618.726562 376.703125 C 614.246094 372.222656 608.097656 370.242188 601.949219 371.285156 C 595.699219 372.324219 590.488281 376.078125 587.671875 381.703125 L 559.222656 438.601562 C 557.558594 442.042969 555.265625 445.0625 552.136719 448.292969 C 551.617188 448.917969 551.199219 449.546875 550.679688 450.171875 C 537.339844 439.539062 518.375 437.664062 502.429688 446.628906 C 491.28125 456.007812 475.648438 464.65625 455.429688 472.574219 C 442.820312 479.558594 434.277344 492.269531 432.503906 506.546875 L 425.523438 562.402344 L 414.894531 562.402344 L 414.894531 612.738281 L 535.671875 612.738281 L 535.671875 562.402344 L 531.710938 562.402344 L 589.132812 496.855469 C 593.40625 491.957031 596.53125 486.332031 598.40625 480.078125 L 623.625 395.980469 C 625.605469 389.101562 623.730469 381.703125 618.726562 376.703125 Z M 525.566406 602.628906 L 424.898438 602.628906 L 424.898438 572.40625 L 525.566406 572.40625 Z M 613.933594 393.0625 L 588.714844 477.054688 C 587.257812 481.953125 584.859375 486.332031 581.523438 490.082031 L 518.375 562.300781 L 435.839844 562.300781 L 442.613281 507.695312 C 443.96875 496.542969 450.636719 486.746094 459.808594 481.539062 C 480.441406 473.511719 497.011719 464.238281 508.265625 454.652344 C 519.9375 448.191406 534.421875 449.648438 544.636719 457.882812 C 529.109375 477.265625 513.683594 491.957031 497.742188 502.691406 L 493.570312 505.503906 L 499.199219 513.84375 L 503.367188 511.027344 C 522.960938 498.003906 541.613281 479.347656 559.847656 454.652344 C 563.289062 451.210938 566.101562 447.253906 568.289062 442.875 L 596.738281 385.976562 C 598.09375 383.269531 600.59375 381.390625 603.617188 380.976562 C 606.640625 380.558594 609.558594 381.496094 611.640625 383.582031 C 614.039062 386.1875 614.871094 389.730469 613.933594 393.0625 Z M 613.933594 393.0625 " fill-opacity="1" fill-rule="nonzero"/><path fill="#ffffff" d="M 377.273438 506.546875 C 375.503906 492.269531 366.957031 479.558594 353.722656 472.261719 C 334.027344 464.550781 318.5 455.902344 306.515625 446 C 291.300781 437.5625 272.441406 439.4375 259.101562 450.171875 C 258.476562 449.335938 257.851562 448.605469 257.226562 447.773438 C 254.515625 445.0625 252.328125 442.042969 250.660156 438.601562 L 222.210938 381.703125 C 219.398438 376.078125 214.1875 372.222656 208.039062 371.285156 C 201.785156 370.242188 195.636719 372.222656 191.261719 376.703125 C 186.257812 381.703125 184.382812 389.101562 186.363281 395.980469 L 211.476562 479.972656 C 213.351562 486.226562 216.480469 491.855469 220.75 496.75 L 278.171875 562.402344 L 274.003906 562.402344 L 274.003906 612.738281 L 394.78125 612.738281 L 394.78125 562.402344 L 384.257812 562.402344 Z M 228.359375 490.1875 C 225.023438 486.332031 222.628906 481.953125 221.167969 477.160156 L 195.847656 393.0625 C 194.90625 389.730469 195.742188 386.1875 198.136719 383.789062 C 200.328125 381.601562 203.246094 380.664062 206.265625 381.183594 C 209.289062 381.703125 211.789062 383.476562 213.144531 386.1875 L 241.59375 443.082031 C 243.78125 447.460938 246.597656 451.421875 249.617188 454.339844 C 268.375 479.558594 287.027344 498.210938 306.621094 511.238281 L 310.789062 514.050781 L 316.417969 505.714844 L 312.246094 502.898438 C 296.304688 492.269531 280.984375 477.679688 265.355469 458.089844 C 275.566406 449.859375 289.945312 448.292969 300.992188 454.234375 C 312.976562 464.34375 329.546875 473.617188 349.660156 481.328125 C 359.453125 486.746094 366.125 496.648438 367.480469 507.796875 L 374.253906 562.402344 L 291.71875 562.402344 Z M 384.671875 602.628906 L 284.109375 602.628906 L 284.109375 572.40625 L 384.777344 572.40625 L 384.777344 602.628906 Z M 384.671875 602.628906 " fill-opacity="1" fill-rule="nonzero"/><path fill="#ffffff" d="M 532.027344 360.027344 C 567.144531 324.910156 567.144531 267.59375 532.027344 232.476562 C 497.011719 197.460938 440.007812 197.359375 404.890625 232.058594 C 369.667969 197.253906 312.769531 197.359375 277.753906 232.476562 C 242.636719 267.59375 242.636719 324.910156 277.753906 360.027344 L 388.632812 471.011719 C 393.113281 475.492188 398.949219 477.679688 404.890625 477.679688 C 410.828125 477.679688 416.664062 475.492188 421.148438 471.011719 Z M 395.71875 463.925781 L 284.738281 352.941406 C 269.625 337.832031 261.289062 317.71875 261.289062 296.253906 C 261.289062 274.785156 269.625 254.671875 284.738281 239.5625 C 300.367188 223.929688 320.898438 216.117188 341.425781 216.117188 C 361.957031 216.117188 382.484375 223.929688 398.117188 239.5625 C 401.867188 243.316406 407.910156 243.316406 411.558594 239.5625 C 442.820312 208.300781 493.675781 208.300781 524.9375 239.5625 C 540.050781 254.671875 548.386719 274.785156 548.386719 296.253906 C 548.386719 317.71875 540.050781 337.832031 524.9375 352.941406 L 413.957031 463.925781 C 409.058594 468.71875 400.617188 468.71875 395.71875 463.925781 Z M 395.71875 463.925781 " fill-opacity="1" fill-rule="nonzero"/><path fill="#ffffff" d="M 425.003906 280.621094 L 384.777344 280.621094 L 384.777344 310.84375 L 354.558594 310.84375 L 354.558594 351.066406 L 384.777344 351.066406 L 384.777344 381.289062 L 425.003906 381.289062 L 425.003906 351.066406 L 455.222656 351.066406 L 455.222656 310.84375 L 425.003906 310.84375 Z M 445.113281 320.847656 L 445.113281 340.957031 L 414.894531 340.957031 L 414.894531 371.179688 L 394.78125 371.179688 L 394.78125 340.957031 L 364.5625 340.957031 L 364.5625 320.847656 L 394.78125 320.847656 L 394.78125 290.625 L 414.894531 290.625 L 414.894531 320.847656 Z M 445.113281 320.847656 " fill-opacity="1" fill-rule="nonzero"/></svg>