<svg xmlns="http://www.w3.org/2000/svg" xmlns:xlink="http://www.w3.org/1999/xlink" width="1080" zoomAndPan="magnify" viewBox="0 0 810 809.999993" height="1080" preserveAspectRatio="xMidYMid meet" version="1.0"><defs><clipPath id="51bd859bf7"><path d="M 225.023438 449 L 536 449 L 536 603.902344 L 225.023438 603.902344 Z M 225.023438 449 " clip-rule="nonzero"/></clipPath><clipPath id="a262cac79f"><path d="M 522 563 L 536 563 L 536 603.902344 L 522 603.902344 Z M 522 563 " clip-rule="nonzero"/></clipPath><clipPath id="a53db6d1b5"><path d="M 299 206.402344 L 461 206.402344 L 461 294 L 299 294 Z M 299 206.402344 " clip-rule="nonzero"/></clipPath><clipPath id="64134c59a6"><path d="M 268 535 L 281 535 L 281 603.902344 L 268 603.902344 Z M 268 535 " clip-rule="nonzero"/></clipPath><clipPath id="fd4a1ed8dd"><path d="M 479 561 L 492 561 L 492 603.902344 L 479 603.902344 Z M 479 561 " clip-rule="nonzero"/></clipPath><clipPath id="815b2ad95d"><path d="M 436 429 L 585.023438 429 L 585.023438 579 L 436 579 Z M 436 429 " clip-rule="nonzero"/></clipPath></defs><g clip-path="url(#51bd859bf7)"><path fill="#ff6100" d="M 529.101562 603.546875 L 231.25 603.546875 C 227.824219 603.546875 225.046875 600.769531 225.046875 597.34375 L 225.046875 547.707031 C 225.046875 529.441406 236.78125 513.640625 254.257812 508.359375 L 338.214844 480.714844 L 347.738281 453.855469 C 348.882812 450.625 352.429688 448.9375 355.65625 450.082031 C 358.886719 451.226562 360.578125 454.773438 359.433594 458.003906 L 348.894531 487.730469 C 348.25 489.539062 346.808594 490.953125 344.984375 491.550781 L 258.066406 520.171875 C 258.011719 520.1875 257.960938 520.203125 257.90625 520.21875 C 245.863281 523.835938 237.457031 535.136719 237.457031 547.707031 L 237.457031 591.136719 L 529.101562 591.136719 C 532.527344 591.136719 535.304688 593.917969 535.304688 597.34375 C 535.304688 600.769531 532.527344 603.546875 529.101562 603.546875 Z M 529.101562 603.546875 " fill-opacity="1" fill-rule="nonzero"/></g><path fill="#ff6100" d="M 443.074219 500.300781 C 442.429688 500.300781 441.773438 500.203125 441.128906 499.988281 L 415.558594 491.550781 C 413.746094 490.953125 412.3125 489.558594 411.664062 487.765625 L 400.945312 458.066406 C 400.871094 457.859375 400.804688 457.644531 400.753906 457.429688 C 399.941406 454.101562 401.980469 450.730469 405.308594 449.917969 C 408.488281 449.140625 411.695312 450.957031 412.679688 454.023438 L 422.3125 480.710938 L 445.015625 488.203125 C 448.269531 489.277344 450.039062 492.785156 448.964844 496.039062 C 448.105469 498.648438 445.679688 500.300781 443.074219 500.300781 Z M 443.074219 500.300781 " fill-opacity="1" fill-rule="nonzero"/><g clip-path="url(#a262cac79f)"><path fill="#ff6100" d="M 529.1875 603.546875 L 529.101562 603.546875 C 527.457031 603.546875 525.878906 602.894531 524.714844 601.730469 C 523.550781 600.566406 522.894531 598.988281 522.898438 597.339844 L 522.90625 569.972656 C 522.90625 566.542969 525.683594 563.769531 529.109375 563.769531 C 532.539062 563.769531 535.316406 566.546875 535.3125 569.972656 L 535.304688 596.3125 C 535.363281 596.648438 535.390625 596.992188 535.390625 597.34375 C 535.390625 600.769531 532.613281 603.546875 529.1875 603.546875 Z M 529.1875 603.546875 " fill-opacity="1" fill-rule="nonzero"/></g><path fill="#ff6100" d="M 380.222656 467.042969 C 370.277344 467.042969 360.570312 465.253906 351.367188 461.722656 C 336.289062 455.949219 323.40625 445.878906 314.105469 432.597656 C 304.589844 419.011719 299.5625 403.027344 299.5625 386.382812 L 299.5625 342.949219 C 299.5625 339.523438 302.339844 336.742188 305.765625 336.742188 C 309.191406 336.742188 311.96875 339.523438 311.96875 342.949219 L 311.96875 386.382812 C 311.96875 414.472656 329.585938 440.09375 355.808594 450.136719 C 363.589844 453.121094 371.800781 454.632812 380.214844 454.632812 C 388.640625 454.632812 396.855469 453.121094 404.632812 450.136719 C 430.855469 440.085938 448.476562 414.464844 448.476562 386.382812 L 448.476562 342.351562 C 448.476562 338.925781 451.253906 336.148438 454.679688 336.148438 C 458.105469 336.148438 460.882812 338.925781 460.882812 342.351562 L 460.882812 386.382812 C 460.882812 403.027344 455.855469 419.007812 446.339844 432.597656 C 437.042969 445.871094 424.15625 455.945312 409.078125 461.722656 C 399.875 465.253906 390.167969 467.042969 380.222656 467.042969 Z M 380.222656 467.042969 " fill-opacity="1" fill-rule="nonzero"/><path fill="#ff6100" d="M 479.46875 349.152344 L 461.464844 349.152344 C 458.8125 349.152344 456.160156 348.917969 453.585938 348.460938 C 446.085938 347.128906 438.988281 343.855469 433.0625 339 C 428.683594 335.410156 425.050781 331.03125 422.328125 326.140625 L 421.570312 327.402344 C 413.523438 340.816406 398.808594 349.152344 383.164062 349.152344 L 280.914062 349.152344 C 277.488281 349.152344 274.710938 346.375 274.710938 342.949219 C 274.710938 339.523438 277.488281 336.742188 280.914062 336.742188 L 383.164062 336.742188 C 394.472656 336.742188 405.109375 330.71875 410.929688 321.019531 L 418.304688 308.730469 C 419.625 306.53125 422.160156 305.375 424.6875 305.8125 C 427.210938 306.25 429.207031 308.195312 429.710938 310.710938 C 431.171875 318.03125 435.15625 324.667969 440.929688 329.402344 C 445.214844 332.914062 450.347656 335.28125 455.765625 336.242188 C 457.628906 336.574219 459.542969 336.742188 461.46875 336.742188 L 479.46875 336.742188 C 482.894531 336.742188 485.675781 339.523438 485.675781 342.949219 C 485.675781 346.375 482.894531 349.152344 479.46875 349.152344 Z M 479.46875 349.152344 " fill-opacity="1" fill-rule="nonzero"/><g clip-path="url(#a53db6d1b5)"><path fill="#ff6100" d="M 429.855469 293.308594 L 330.582031 293.308594 C 327.910156 293.308594 325.539062 291.601562 324.695312 289.066406 L 299.875 214.609375 C 299.246094 212.71875 299.5625 210.640625 300.730469 209.019531 C 301.894531 207.402344 303.765625 206.445312 305.761719 206.445312 L 454.675781 206.445312 C 456.667969 206.445312 458.542969 207.402344 459.710938 209.019531 C 460.875 210.636719 461.191406 212.71875 460.5625 214.609375 L 435.742188 289.066406 C 434.898438 291.601562 432.527344 293.308594 429.855469 293.308594 Z M 335.054688 280.902344 L 425.386719 280.902344 L 446.066406 218.851562 L 314.371094 218.851562 Z M 335.054688 280.902344 " fill-opacity="1" fill-rule="nonzero"/></g><path fill="#ff6100" d="M 479.496094 449.703125 C 476.066406 449.703125 473.289062 446.921875 473.289062 443.496094 L 473.289062 342.949219 C 473.289062 318.09375 463.609375 294.722656 446.03125 277.136719 C 442.476562 273.582031 438.597656 270.289062 434.503906 267.351562 C 431.722656 265.351562 431.085938 261.472656 433.085938 258.691406 C 435.085938 255.90625 438.960938 255.269531 441.746094 257.269531 C 446.382812 260.601562 450.777344 264.332031 454.804688 268.363281 C 474.726562 288.292969 485.699219 314.78125 485.699219 342.949219 L 485.699219 443.496094 C 485.699219 446.921875 482.921875 449.703125 479.496094 449.703125 Z M 479.496094 449.703125 " fill-opacity="1" fill-rule="nonzero"/><path fill="#ff6100" d="M 280.941406 512.308594 C 277.515625 512.308594 274.738281 509.527344 274.738281 506.101562 L 274.738281 342.949219 C 274.738281 309.09375 291.167969 277.066406 318.691406 257.273438 C 321.472656 255.273438 325.351562 255.90625 327.351562 258.6875 C 329.351562 261.46875 328.71875 265.347656 325.9375 267.347656 C 301.648438 284.816406 287.148438 313.078125 287.148438 342.949219 L 287.148438 506.101562 C 287.148438 509.527344 284.371094 512.308594 280.941406 512.308594 Z M 280.941406 512.308594 " fill-opacity="1" fill-rule="nonzero"/><path fill="#ff6100" d="M 380.21875 268.492188 C 376.792969 268.492188 374.015625 265.714844 374.015625 262.285156 L 374.015625 237.46875 C 374.015625 234.042969 376.792969 231.261719 380.21875 231.261719 C 383.644531 231.261719 386.421875 234.042969 386.421875 237.46875 L 386.421875 262.285156 C 386.421875 265.714844 383.644531 268.492188 380.21875 268.492188 Z M 380.21875 268.492188 " fill-opacity="1" fill-rule="nonzero"/><path fill="#ff6100" d="M 392.628906 256.082031 L 367.808594 256.082031 C 364.382812 256.082031 361.605469 253.304688 361.605469 249.878906 C 361.605469 246.449219 364.382812 243.671875 367.808594 243.671875 L 392.628906 243.671875 C 396.054688 243.671875 398.832031 246.449219 398.832031 249.878906 C 398.832031 253.304688 396.054688 256.082031 392.628906 256.082031 Z M 392.628906 256.082031 " fill-opacity="1" fill-rule="nonzero"/><path fill="#ff6100" d="M 380.277344 522.886719 C 378.5 522.886719 376.734375 522.128906 375.507812 520.652344 C 373.3125 518.019531 373.667969 514.109375 376.300781 511.914062 L 413.53125 480.890625 C 416.164062 478.699219 420.074219 479.050781 422.269531 481.683594 C 424.460938 484.316406 424.105469 488.230469 421.472656 490.421875 L 384.246094 521.449219 C 383.085938 522.414062 381.675781 522.886719 380.277344 522.886719 Z M 380.277344 522.886719 " fill-opacity="1" fill-rule="nonzero"/><path fill="#ff6100" d="M 355.398438 541.5 C 354.699219 541.5 353.996094 541.382812 353.316406 541.140625 C 351.359375 540.445312 349.882812 538.8125 349.378906 536.792969 L 337.023438 487.15625 C 336.375 484.550781 337.476562 481.824219 339.75 480.398438 C 342.023438 478.972656 344.957031 479.175781 347.015625 480.890625 L 384.246094 511.914062 C 385.703125 513.128906 386.523438 514.945312 386.476562 516.84375 C 386.425781 518.742188 385.511719 520.511719 383.992188 521.648438 L 359.117188 540.261719 C 358.027344 541.078125 356.722656 541.5 355.398438 541.5 Z M 353.648438 502.570312 L 359.164062 524.730469 L 370.265625 516.421875 Z M 353.648438 502.570312 " fill-opacity="1" fill-rule="nonzero"/><path fill="#ff6100" d="M 405.039062 541.5 C 403.710938 541.5 402.398438 541.074219 401.308594 540.253906 L 376.542969 521.640625 C 375.03125 520.503906 374.117188 518.734375 374.070312 516.839844 C 374.023438 514.941406 374.84375 513.128906 376.300781 511.914062 L 413.53125 480.890625 C 415.59375 479.171875 418.53125 478.976562 420.804688 480.40625 C 423.078125 481.835938 424.175781 484.5625 423.519531 487.167969 L 411.054688 536.808594 C 410.550781 538.824219 409.066406 540.453125 407.109375 541.144531 C 406.433594 541.382812 405.734375 541.5 405.039062 541.5 Z M 390.265625 516.429688 L 401.296875 524.71875 L 406.847656 502.613281 Z M 390.265625 516.429688 " fill-opacity="1" fill-rule="nonzero"/><g clip-path="url(#64134c59a6)"><path fill="#ff6100" d="M 274.792969 603.546875 C 271.367188 603.546875 268.585938 600.769531 268.585938 597.34375 L 268.585938 541.5 C 268.585938 538.074219 271.367188 535.296875 274.792969 535.296875 C 278.21875 535.296875 280.996094 538.074219 280.996094 541.5 L 280.996094 597.34375 C 280.996094 600.769531 278.21875 603.546875 274.792969 603.546875 Z M 274.792969 603.546875 " fill-opacity="1" fill-rule="nonzero"/></g><g clip-path="url(#fd4a1ed8dd)"><path fill="#ff6100" d="M 485.753906 603.546875 C 482.328125 603.546875 479.550781 600.769531 479.550781 597.34375 L 479.550781 567.871094 C 479.550781 564.445312 482.328125 561.664062 485.753906 561.664062 C 489.179688 561.664062 491.957031 564.445312 491.957031 567.871094 L 491.957031 597.34375 C 491.957031 600.769531 489.179688 603.546875 485.753906 603.546875 Z M 485.753906 603.546875 " fill-opacity="1" fill-rule="nonzero"/></g><path fill="#ff6100" d="M 467.140625 529.089844 C 463.714844 529.089844 460.933594 526.3125 460.933594 522.886719 L 460.933594 491.863281 C 460.933594 488.4375 463.714844 485.65625 467.140625 485.65625 C 470.566406 485.65625 473.34375 488.4375 473.34375 491.863281 L 473.34375 522.886719 C 473.34375 526.3125 470.566406 529.089844 467.140625 529.089844 Z M 467.140625 529.089844 " fill-opacity="1" fill-rule="nonzero"/><path fill="#ff6100" d="M 506.109375 526.367188 C 494.886719 526.367188 485.753906 517.234375 485.753906 506.011719 C 485.753906 494.789062 494.886719 485.65625 506.109375 485.65625 C 509.535156 485.65625 512.3125 488.4375 512.3125 491.863281 C 512.3125 495.289062 509.535156 498.066406 506.109375 498.066406 C 501.726562 498.066406 498.164062 501.632812 498.164062 506.011719 C 498.164062 510.394531 501.726562 513.957031 506.109375 513.957031 C 509.535156 513.957031 512.3125 516.734375 512.3125 520.164062 C 512.3125 523.589844 509.535156 526.367188 506.109375 526.367188 Z M 506.109375 526.367188 " fill-opacity="1" fill-rule="nonzero"/><path fill="#ff6100" d="M 541.597656 529.089844 C 531.332031 529.089844 522.980469 520.738281 522.980469 510.476562 L 522.980469 491.863281 C 522.980469 488.4375 525.761719 485.65625 529.1875 485.65625 C 532.613281 485.65625 535.390625 488.4375 535.390625 491.863281 L 535.390625 510.476562 C 535.390625 513.898438 538.175781 516.679688 541.597656 516.679688 C 545.019531 516.679688 547.800781 513.898438 547.800781 510.476562 L 547.800781 491.863281 C 547.800781 488.4375 550.578125 485.65625 554.007812 485.65625 C 557.433594 485.65625 560.210938 488.4375 560.210938 491.863281 L 560.210938 510.476562 C 560.210938 520.738281 551.859375 529.089844 541.597656 529.089844 Z M 541.597656 529.089844 " fill-opacity="1" fill-rule="nonzero"/><g clip-path="url(#815b2ad95d)"><path fill="#ff6100" d="M 510.574219 578.730469 C 469.515625 578.730469 436.117188 545.328125 436.117188 504.273438 C 436.117188 463.214844 469.515625 429.816406 510.574219 429.816406 C 551.628906 429.816406 585.03125 463.214844 585.03125 504.273438 C 585.03125 545.328125 551.628906 578.730469 510.574219 578.730469 Z M 510.574219 442.222656 C 476.359375 442.222656 448.527344 470.058594 448.527344 504.273438 C 448.527344 538.484375 476.359375 566.320312 510.574219 566.320312 C 544.785156 566.320312 572.621094 538.484375 572.621094 504.273438 C 572.621094 470.058594 544.785156 442.222656 510.574219 442.222656 Z M 510.574219 442.222656 " fill-opacity="1" fill-rule="nonzero"/></g></svg>