<svg xmlns="http://www.w3.org/2000/svg" xmlns:xlink="http://www.w3.org/1999/xlink" width="1080" zoomAndPan="magnify" viewBox="0 0 810 809.999993" height="1080" preserveAspectRatio="xMidYMid meet" version="1.0"><defs><clipPath id="e7ed54511e"><path d="M 190 186.152344 L 389 186.152344 L 389 379 L 190 379 Z M 190 186.152344 " clip-rule="nonzero"/></clipPath></defs><g clip-path="url(#e7ed54511e)"><path fill="#ffffff" d="M 323.804688 356.457031 C 331.992188 364.777344 341.238281 367.324219 349.523438 363.726562 L 363.402344 377.785156 C 364.0625 378.453125 364.953125 378.820312 365.875 378.820312 C 366.105469 378.820312 366.335938 378.796875 366.566406 378.746094 L 385.53125 374.894531 C 386.78125 374.644531 387.789062 373.726562 388.164062 372.503906 C 388.535156 371.28125 388.210938 369.960938 387.3125 369.050781 C 387.3125 369.050781 372.429688 353.996094 365.796875 347.304688 C 369.46875 338.792969 367.136719 329.214844 359.332031 321.132812 C 359.324219 321.125 359.316406 321.121094 359.308594 321.109375 C 359.226562 321.023438 359.160156 320.929688 359.074219 320.839844 L 281.835938 242.621094 L 287.027344 237.386719 C 288.367188 236.03125 288.371094 233.855469 287.03125 232.5 L 269.933594 215.203125 C 269.28125 214.546875 268.398438 214.171875 267.464844 214.171875 C 267.460938 214.171875 267.460938 214.171875 267.457031 214.171875 C 266.527344 214.171875 265.636719 214.546875 264.984375 215.214844 L 261.796875 218.457031 L 236.839844 193.179688 C 232.363281 188.652344 226.417969 186.152344 220.089844 186.152344 C 213.757812 186.152344 207.808594 188.652344 203.335938 193.179688 L 197.746094 198.84375 C 188.542969 208.164062 188.542969 223.332031 197.75 232.660156 L 222.773438 257.96875 L 219.492188 261.292969 C 218.152344 262.648438 218.15625 264.824219 219.496094 266.175781 L 236.585938 283.476562 C 237.238281 284.132812 238.125 284.507812 239.054688 284.507812 C 239.984375 284.507812 240.875 284.136719 241.527344 283.472656 L 246.628906 278.300781 Z M 276.953125 247.5625 L 349.976562 321.515625 L 310.023438 332.617188 L 251.507812 273.359375 Z M 202.691406 203.722656 L 208.28125 198.0625 C 211.433594 194.863281 215.628906 193.101562 220.089844 193.101562 C 224.546875 193.101562 228.738281 194.863281 231.890625 198.0625 L 256.921875 223.410156 L 227.65625 253.027344 L 202.6875 227.777344 C 196.144531 221.144531 196.144531 210.355469 202.691406 203.722656 Z M 202.691406 203.722656 " fill-opacity="1" fill-rule="nonzero"/></g><path fill="#ffffff" d="M 613.449219 320.136719 C 608.164062 314.816406 601.1875 311.882812 593.785156 311.882812 L 443.515625 311.882812 C 441.488281 305.339844 435.507812 300.683594 429.179688 301.308594 C 424.378906 301.824219 420.03125 305.480469 418.101562 310.632812 C 417.957031 311.019531 417.882812 311.429688 417.882812 311.851562 L 417.882812 365.339844 C 413.335938 368.769531 409.382812 372.835938 406.171875 377.554688 C 403.109375 382.128906 400.859375 387.171875 399.359375 392.542969 L 366.644531 392.542969 C 360.039062 392.542969 354.660156 397.96875 354.660156 404.628906 C 354.660156 411.3125 360.039062 416.75 366.644531 416.75 L 367.441406 416.75 L 367.441406 502.660156 L 300.035156 588 C 299.960938 588.097656 299.890625 588.195312 299.824219 588.300781 C 297.894531 591.355469 295.5 596.351562 295.027344 602.8125 C 294.332031 611.878906 297.726562 618.839844 299.8125 622.179688 C 300.453125 623.199219 301.5625 623.816406 302.761719 623.816406 L 507.191406 623.816406 C 508.390625 623.816406 509.5 623.199219 510.140625 622.179688 C 512.226562 618.839844 515.621094 611.878906 514.925781 602.824219 C 514.453125 596.355469 512.058594 591.355469 510.128906 588.300781 C 510.0625 588.195312 509.996094 588.097656 509.917969 588 L 442.507812 502.664062 L 442.507812 416.753906 L 443.304688 416.753906 C 449.910156 416.753906 455.289062 411.316406 455.289062 404.632812 C 455.289062 397.96875 449.910156 392.546875 443.304688 392.546875 L 428.921875 392.546875 L 428.921875 378.761719 C 429.011719 378.773438 429.097656 378.796875 429.191406 378.808594 C 429.582031 378.847656 429.980469 378.867188 430.371094 378.867188 C 436.234375 378.867188 441.617188 374.402344 443.519531 368.230469 L 593.78125 368.230469 C 609.105469 368.230469 621.574219 355.589844 621.574219 340.058594 C 621.574219 332.539062 618.691406 325.464844 613.449219 320.136719 Z M 443.304688 399.488281 C 446.082031 399.488281 448.339844 401.796875 448.339844 404.628906 C 448.339844 407.53125 446.128906 409.800781 443.304688 409.800781 L 439.035156 409.800781 C 437.113281 409.800781 435.5625 411.355469 435.5625 413.277344 L 435.5625 503.871094 C 435.5625 504.652344 435.824219 505.410156 436.308594 506.023438 L 504.347656 592.160156 C 505.832031 594.554688 507.632812 598.398438 507.996094 603.34375 C 508.445312 609.191406 506.714844 613.921875 505.171875 616.871094 L 304.777344 616.871094 C 303.238281 613.921875 301.507812 609.191406 301.953125 603.339844 C 302.3125 598.402344 304.117188 594.558594 305.601562 592.164062 L 373.640625 506.027344 C 374.125 505.410156 374.390625 504.652344 374.390625 503.875 L 374.390625 413.28125 C 374.390625 411.359375 372.835938 409.804688 370.914062 409.804688 L 366.644531 409.804688 C 363.820312 409.804688 361.609375 407.535156 361.609375 404.632812 C 361.609375 401.800781 363.867188 399.492188 366.644531 399.492188 L 397.867188 399.492188 C 397.640625 401.109375 397.472656 402.746094 397.386719 404.425781 L 397.386719 452.152344 C 397.386719 457.496094 401.707031 461.84375 407.015625 461.84375 C 408.488281 461.84375 409.6875 463.074219 409.6875 464.589844 L 409.6875 489.496094 C 409.6875 494.859375 414.003906 499.222656 419.3125 499.222656 C 424.617188 499.222656 428.9375 494.859375 428.9375 489.496094 L 428.9375 399.492188 L 443.304688 399.492188 Z M 440.699219 361.277344 C 438.917969 361.277344 437.429688 362.621094 437.242188 364.390625 C 436.742188 369.207031 432.953125 372.1875 429.878906 371.886719 C 429.0625 371.8125 428.253906 371.488281 427.453125 370.90625 C 426.394531 370.160156 425.460938 368.976562 424.828125 367.597656 L 424.828125 312.53125 C 425.898438 310.140625 427.886719 308.433594 429.882812 308.222656 C 432.9375 307.910156 436.746094 310.929688 437.246094 315.71875 C 437.429688 317.488281 438.917969 318.832031 440.699219 318.832031 L 561.667969 318.832031 C 550.5 326.640625 539.011719 333.5625 527.371094 339.378906 C 507.101562 349.558594 485.925781 356.921875 464.429688 361.277344 Z M 440.699219 361.277344 " fill-opacity="1" fill-rule="nonzero"/><path fill="#ffffff" d="M 392.695312 490.917969 C 399.109375 490.917969 404.332031 485.632812 404.332031 479.136719 C 404.332031 472.640625 399.109375 467.359375 392.695312 467.359375 C 386.257812 467.359375 381.023438 472.644531 381.023438 479.136719 C 381.023438 485.628906 386.257812 490.917969 392.695312 490.917969 Z M 392.695312 490.917969 " fill-opacity="1" fill-rule="nonzero"/><path fill="#ffffff" d="M 409.683594 516.484375 C 409.683594 522.976562 414.921875 528.261719 421.351562 528.261719 C 427.785156 528.261719 433.019531 522.976562 433.019531 516.484375 C 433.019531 509.988281 427.785156 504.707031 421.351562 504.707031 C 414.921875 504.707031 409.683594 509.992188 409.683594 516.484375 Z M 409.683594 516.484375 " fill-opacity="1" fill-rule="nonzero"/><path fill="#ffffff" d="M 433.019531 545.558594 C 433.019531 539.066406 427.785156 533.78125 421.351562 533.78125 C 418.246094 533.78125 415.316406 535.007812 413.101562 537.226562 C 410.894531 539.425781 409.683594 542.382812 409.683594 545.554688 C 409.683594 546.867188 409.191406 548.082031 408.300781 548.96875 C 407.65625 549.613281 406.550781 550.382812 404.957031 550.382812 C 403.71875 550.382812 402.554688 549.890625 401.648438 548.964844 C 400.757812 548.078125 400.269531 546.867188 400.269531 545.554688 L 400.269531 520.648438 C 400.269531 514.15625 395.03125 508.871094 388.601562 508.871094 C 385.488281 508.871094 382.46875 510.140625 380.34375 512.320312 C 378.140625 514.523438 376.933594 517.476562 376.933594 520.644531 L 376.933594 545.550781 C 376.933594 548.214844 374.8125 550.382812 372.207031 550.382812 L 358.175781 550.382812 C 354.753906 550.382812 351.507812 551.894531 349.253906 554.550781 L 327.613281 580.53125 C 327.535156 580.625 327.460938 580.726562 327.394531 580.824219 C 325.917969 583.039062 324.082031 586.675781 323.699219 591.453125 C 323.230469 597.667969 325.433594 602.546875 327.367188 605.550781 C 328.007812 606.542969 329.105469 607.140625 330.289062 607.140625 L 479.695312 607.140625 C 480.875 607.140625 481.972656 606.542969 482.613281 605.550781 C 484.546875 602.550781 486.75 597.667969 486.285156 591.4375 C 485.898438 586.679688 484.058594 583.042969 482.585938 580.828125 C 482.519531 580.726562 482.445312 580.628906 482.367188 580.535156 L 464.199219 558.71875 C 461.972656 556.046875 458.710938 554.515625 455.246094 554.515625 L 437.773438 554.515625 C 435.167969 554.515625 433.050781 552.351562 433.050781 549.6875 L 433.050781 545.558594 Z M 437.75 561.464844 L 455.222656 561.464844 C 456.613281 561.464844 457.933594 562.089844 458.835938 563.167969 L 476.878906 584.832031 C 477.878906 586.371094 479.082031 588.824219 479.335938 591.984375 C 479.585938 595.320312 478.707031 598.128906 477.664062 600.199219 L 332.28125 600.199219 C 331.234375 598.125 330.355469 595.328125 330.609375 592.003906 C 330.863281 588.828125 332.066406 586.371094 333.066406 584.835938 L 354.5625 559.027344 C 355.476562 557.953125 356.789062 557.335938 358.164062 557.335938 L 372.195312 557.335938 C 378.632812 557.335938 383.867188 552.054688 383.867188 545.558594 L 383.867188 520.652344 C 383.867188 519.339844 384.359375 518.125 385.277344 517.207031 C 386.132812 516.328125 387.34375 515.824219 388.589844 515.824219 C 391.195312 515.824219 393.3125 517.988281 393.3125 520.65625 L 393.3125 545.5625 C 393.3125 548.730469 394.53125 551.695312 396.703125 553.863281 C 398.859375 556.070312 401.871094 557.339844 404.949219 557.339844 C 408.050781 557.339844 410.980469 556.113281 413.203125 553.894531 C 415.410156 551.695312 416.621094 548.734375 416.621094 545.5625 C 416.621094 544.25 417.113281 543.039062 418.003906 542.148438 C 418.914062 541.238281 420.101562 540.738281 421.347656 540.738281 C 423.953125 540.738281 426.066406 542.902344 426.066406 545.566406 L 426.066406 549.703125 C 426.074219 556.183594 431.3125 561.464844 437.75 561.464844 Z M 437.75 561.464844 " fill-opacity="1" fill-rule="nonzero"/><path fill="#ffffff" d="M 388.59375 571.125 C 377.265625 571.125 368.722656 576.183594 368.722656 582.898438 C 368.722656 589.613281 377.265625 594.679688 388.59375 594.679688 C 399.898438 594.679688 408.425781 589.613281 408.425781 582.898438 C 408.425781 576.183594 399.898438 571.125 388.59375 571.125 Z M 388.59375 571.125 " fill-opacity="1" fill-rule="nonzero"/><path fill="#ffffff" d="M 417.878906 578.765625 C 417.878906 585.480469 426.421875 590.542969 437.75 590.542969 C 449.078125 590.542969 457.617188 585.480469 457.617188 578.765625 C 457.617188 572.050781 449.078125 566.988281 437.75 566.988281 C 426.421875 566.988281 417.878906 572.054688 417.878906 578.765625 Z M 417.878906 578.765625 " fill-opacity="1" fill-rule="nonzero"/></svg>