<svg xmlns="http://www.w3.org/2000/svg" xmlns:xlink="http://www.w3.org/1999/xlink" width="1080" zoomAndPan="magnify" viewBox="0 0 810 809.999993" height="1080" preserveAspectRatio="xMidYMid meet" version="1.0"><defs><clipPath id="e1ad3fcaa0"><path d="M 190 188.984375 L 620.773438 188.984375 L 620.773438 620.984375 L 190 620.984375 Z M 190 188.984375 " clip-rule="nonzero"/></clipPath></defs><g clip-path="url(#e1ad3fcaa0)"><path fill="#ff6100" d="M 372.203125 188.902344 C 330.96875 188.890625 296.574219 217.863281 286.894531 261.53125 C 281.753906 285.863281 273.699219 314.902344 262.53125 341.4375 C 257.464844 353.46875 265.195312 367.152344 278.058594 369.367188 C 302.984375 373.675781 441.117188 373.675781 466.054688 369.367188 C 478.917969 367.152344 486.644531 353.480469 481.582031 341.4375 C 471.0625 316.457031 463.402344 289.398438 458.25 265.980469 C 451.1875 222.230469 415.394531 188.910156 372.203125 188.902344 Z M 555.667969 210.585938 C 549.703125 210.585938 544.867188 215.425781 544.867188 221.386719 L 544.867188 253.789062 L 512.464844 253.789062 C 506.5 253.789062 501.664062 258.628906 501.664062 264.589844 L 501.664062 275.390625 C 501.664062 281.351562 506.5 286.191406 512.464844 286.191406 L 544.867188 286.191406 L 544.867188 318.59375 C 544.867188 324.554688 549.703125 329.394531 555.667969 329.394531 L 566.464844 329.394531 C 572.429688 329.394531 577.265625 324.554688 577.265625 318.59375 L 577.265625 286.191406 L 609.667969 286.191406 C 615.632812 286.191406 620.46875 281.351562 620.46875 275.390625 L 620.46875 264.589844 C 620.46875 258.628906 615.632812 253.789062 609.667969 253.789062 L 577.265625 253.789062 L 577.265625 221.386719 C 577.265625 215.425781 572.429688 210.585938 566.464844 210.585938 Z M 396.230469 242.714844 L 396.230469 242.734375 C 424.746094 271.25 437.980469 277.191406 442.472656 278.492188 C 440.925781 318.71875 409.976562 350.953125 372.054688 350.953125 C 334.25 350.953125 303.378906 318.910156 301.664062 278.851562 C 307.464844 278.753906 361.890625 277.054688 396.230469 242.714844 Z M 372.054688 394.195312 C 251.304688 394.195312 207.554688 482.96875 192.328125 535.890625 C 189.410156 545.933594 191.253906 556.410156 197.515625 564.726562 C 203.78125 573.042969 213.285156 577.804688 223.652344 577.804688 L 364.378906 577.804688 C 363.40625 574.351562 362.757812 570.679688 362.542969 567.007812 L 223.652344 567.007812 C 216.742188 567.007812 210.378906 563.867188 206.164062 558.25 C 201.953125 552.742188 200.761719 545.625 202.707031 538.929688 C 217.179688 488.921875 258.433594 404.996094 372.054688 404.996094 C 415.796875 404.996094 448.851562 417.417969 473.691406 435.5625 C 474.371094 433.761719 475.167969 431.976562 476.03125 430.226562 C 476.820312 428.628906 477.667969 427.066406 478.542969 425.523438 C 452.296875 406.945312 417.632812 394.195312 372.054688 394.195312 Z M 534.066406 404.996094 C 507.613281 404.996094 485.589844 424.132812 480.988281 449.273438 C 469.019531 450.410156 457.867188 455.375 449.261719 463.976562 L 388.152344 525.070312 C 367.933594 545.289062 367.933594 578.175781 388.152344 598.394531 L 395.535156 605.777344 C 405.339844 615.574219 418.351562 620.945312 432.199219 620.945312 C 446.054688 620.945312 459.066406 615.574219 468.839844 605.777344 L 529.929688 544.667969 C 538.792969 535.804688 543.796875 524.277344 544.71875 511.925781 C 569.40625 506.964844 588.066406 485.128906 588.066406 459 C 588.066406 429.222656 563.84375 404.996094 534.066406 404.996094 Z M 534.066406 415.796875 C 557.890625 415.796875 577.265625 435.175781 577.265625 459 C 577.265625 482.828125 557.890625 502.203125 534.066406 502.203125 C 510.238281 502.203125 490.863281 482.828125 490.863281 459 C 490.863281 435.175781 510.238281 415.796875 534.066406 415.796875 Z M 480.125 460.160156 C 480.75 489.320312 504.554688 512.855469 533.832031 512.980469 C 532.742188 522.042969 528.863281 530.460938 522.292969 537.03125 L 461.203125 598.140625 C 445.695312 613.652344 418.671875 613.640625 403.171875 598.140625 L 395.789062 590.757812 C 379.792969 574.753906 379.792969 548.710938 395.789062 532.707031 L 456.898438 471.613281 C 463.253906 465.25 471.367188 461.394531 480.125 460.160156 Z M 480.125 460.160156 " fill-opacity="1" fill-rule="nonzero"/></g></svg>