<svg xmlns="http://www.w3.org/2000/svg" xmlns:xlink="http://www.w3.org/1999/xlink" width="1080" zoomAndPan="magnify" viewBox="0 0 810 809.999993" height="1080" preserveAspectRatio="xMidYMid meet" version="1.0"><defs><clipPath id="636b97d097"><path d="M 221 324 L 591.253906 324 L 591.253906 586.117188 L 221 586.117188 Z M 221 324 " clip-rule="nonzero"/></clipPath><clipPath id="04e6a254a7"><path d="M 432 223.867188 L 553 223.867188 L 553 343 L 432 343 Z M 432 223.867188 " clip-rule="nonzero"/></clipPath></defs><g clip-path="url(#636b97d097)"><path fill="#ffffff" d="M 443.46875 478.710938 L 420.183594 449.992188 L 460.613281 449.992188 Z M 495.625 555.4375 C 496.457031 555.410156 497.289062 555.179688 498.03125 554.722656 C 498.777344 554.578125 499.554688 554.492188 500.34375 554.492188 C 507.148438 554.492188 512.667969 560.011719 512.667969 566.824219 C 512.667969 573.625 507.148438 579.136719 500.34375 579.136719 C 493.539062 579.136719 488.019531 573.625 488.019531 566.824219 C 488.019531 561.6875 491.167969 557.289062 495.625 555.4375 Z M 411.757812 566.824219 C 411.757812 573.625 406.246094 579.136719 399.441406 579.136719 C 392.628906 579.136719 387.113281 573.625 387.113281 566.824219 C 387.113281 560.011719 392.628906 554.492188 399.441406 554.492188 C 406.246094 554.492188 411.757812 560.011719 411.757812 566.824219 Z M 566.972656 401.453125 L 333.636719 401.453125 L 260.417969 331.003906 C 251.191406 322.117188 236.503906 322.40625 227.625 331.632812 C 218.746094 340.859375 219.027344 355.546875 228.253906 364.425781 L 306.796875 440 C 311.085938 445.867188 317.929688 449.746094 325.695312 449.976562 C 325.832031 449.984375 325.96875 449.984375 326.09375 449.984375 C 326.207031 449.984375 326.316406 449.992188 326.425781 449.992188 L 407.691406 449.992188 L 438.160156 487.589844 L 402.230469 547.765625 C 401.320312 547.628906 400.386719 547.550781 399.441406 547.550781 C 388.804688 547.550781 380.171875 556.175781 380.171875 566.824219 C 380.171875 577.460938 388.804688 586.085938 399.441406 586.085938 C 410.074219 586.085938 418.703125 577.460938 418.703125 566.824219 C 418.703125 560.632812 415.777344 555.128906 411.246094 551.601562 L 444.675781 495.617188 L 489.492188 550.902344 C 484.414062 554.371094 481.082031 560.207031 481.082031 566.824219 C 481.082031 577.460938 489.707031 586.085938 500.34375 586.085938 C 510.984375 586.085938 519.605469 577.460938 519.605469 566.824219 C 519.605469 556.175781 510.984375 547.550781 500.34375 547.550781 C 499.996094 547.550781 499.648438 547.570312 499.296875 547.585938 C 499.289062 547.570312 499.28125 547.550781 499.265625 547.535156 L 449.972656 486.738281 L 471.921875 449.992188 L 566.972656 449.992188 C 580.375 449.992188 591.246094 439.132812 591.246094 425.722656 C 591.246094 412.320312 580.375 401.453125 566.972656 401.453125 " fill-opacity="1" fill-rule="nonzero"/></g><g clip-path="url(#04e6a254a7)"><path fill="#ffffff" d="M 531.886719 223.910156 C 536.886719 224.472656 541.886719 225.035156 547.355469 225.644531 C 545.847656 245.484375 539.597656 263.15625 525.175781 277.648438 C 528.433594 281.179688 531.792969 284.570312 534.863281 288.203125 C 543.164062 298.023438 549.992188 308.6875 552.203125 321.648438 C 553.519531 329.335938 552.578125 336.597656 547.355469 342.652344 C 546.964844 338.105469 547.089844 333.4375 546.097656 329.023438 C 543.699219 318.398438 537.710938 309.554688 530.679688 301.503906 C 511.976562 280.125 489.46875 264.390625 461.972656 256.363281 C 451.140625 253.207031 445.125 253.191406 432.371094 255.632812 C 436.765625 250.351562 442.285156 247.96875 448.503906 246.941406 C 462.058594 244.6875 474.773438 248.105469 487.042969 253.308594 C 493.957031 256.242188 500.503906 260.003906 507.871094 263.71875 C 519.511719 253.4375 524.664062 239.730469 525.210938 223.910156 C 527.4375 223.910156 529.65625 223.910156 531.886719 223.910156 " fill-opacity="1" fill-rule="nonzero"/></g><path fill="#ffffff" d="M 463.878906 306.09375 C 458.078125 305.957031 455.519531 309.207031 458.128906 314.300781 C 463.554688 324.863281 472.511719 331.054688 484.1875 332.867188 C 489.238281 333.648438 491.730469 329.914062 490.019531 325.074219 C 486.96875 316.488281 472.945312 306.308594 463.878906 306.09375 Z M 526.230469 341.371094 C 532.089844 341.558594 534.625 338.035156 531.808594 332.78125 C 526.339844 322.601562 517.589844 316.511719 506.238281 314.589844 C 500.835938 313.671875 498.210938 317.550781 500.191406 322.738281 C 503.429688 331.214844 517.207031 341.074219 526.230469 341.371094 Z M 505.140625 304.113281 C 510.421875 304.097656 512.617188 300.976562 510.445312 296.070312 C 509.375 293.628906 507.871094 291.230469 506.042969 289.300781 C 499.894531 282.792969 492.828125 277.683594 483.4375 277.335938 C 478.9375 277.171875 477.035156 280.125 478.34375 284.453125 C 481.046875 293.382812 495.710938 304.140625 505.140625 304.113281 Z M 462.992188 295.558594 C 468.179688 295.558594 470.578125 292.183594 468.15625 287.410156 C 462.78125 276.808594 453.894531 270.574219 442.226562 268.710938 C 437.105469 267.894531 434.589844 271.464844 436.199219 276.355469 C 439.046875 285.023438 453.765625 295.566406 462.992188 295.558594 Z M 445.6875 255.902344 C 459.160156 256.40625 471.550781 260.757812 483.335938 266.933594 C 505.582031 278.585938 524.808594 293.804688 538.027344 315.527344 C 541.164062 320.679688 543.339844 326.683594 544.753906 332.585938 C 547.347656 343.453125 540.730469 352.027344 529.648438 353.785156 C 521.222656 355.128906 513.050781 353.878906 505.191406 351.3125 C 475.425781 341.574219 451.019531 324.199219 432.949219 298.527344 C 429.121094 293.09375 426.222656 286.644531 424.394531 280.242188 C 420.378906 266.21875 427.785156 256.660156 442.355469 255.914062 C 443.460938 255.851562 444.574219 255.902344 445.6875 255.902344 " fill-opacity="1" fill-rule="nonzero"/></svg>