<svg xmlns="http://www.w3.org/2000/svg" xmlns:xlink="http://www.w3.org/1999/xlink" width="1080" zoomAndPan="magnify" viewBox="0 0 810 809.999993" height="1080" preserveAspectRatio="xMidYMid meet" version="1.0"><defs><clipPath id="a70280373b"><path d="M 262.300781 243.074219 L 548 243.074219 L 548 567 L 262.300781 567 Z M 262.300781 243.074219 " clip-rule="nonzero"/></clipPath></defs><g clip-path="url(#a70280373b)"><path fill="#ff6100" d="M 398.0625 412.71875 L 378.507812 412.71875 L 378.507812 393.164062 C 378.507812 390.28125 376.167969 387.941406 373.285156 387.941406 L 347.976562 387.941406 C 345.09375 387.941406 342.753906 390.28125 342.753906 393.164062 L 342.753906 412.71875 L 323.199219 412.71875 C 320.316406 412.71875 317.976562 415.058594 317.976562 417.941406 L 317.976562 443.25 C 317.976562 446.132812 320.316406 448.472656 323.199219 448.472656 L 342.753906 448.472656 L 342.753906 468.027344 C 342.753906 470.914062 345.09375 473.25 347.976562 473.25 L 373.285156 473.25 C 376.167969 473.25 378.507812 470.914062 378.507812 468.027344 L 378.507812 448.472656 L 398.0625 448.472656 C 400.949219 448.472656 403.285156 446.132812 403.285156 443.25 L 403.285156 417.941406 C 403.285156 415.058594 400.949219 412.71875 398.0625 412.71875 Z M 392.839844 438.027344 L 373.285156 438.027344 C 370.398438 438.027344 368.0625 440.363281 368.0625 443.25 L 368.0625 462.804688 L 353.203125 462.804688 L 353.203125 443.25 C 353.203125 440.363281 350.863281 438.027344 347.976562 438.027344 L 328.421875 438.027344 L 328.421875 423.167969 L 347.976562 423.167969 C 350.863281 423.167969 353.203125 420.828125 353.203125 417.941406 L 353.203125 398.386719 L 368.0625 398.386719 L 368.0625 417.941406 C 368.0625 420.828125 370.398438 423.167969 373.285156 423.167969 L 392.839844 423.167969 Z M 529.304688 492.582031 C 530.511719 490.15625 531.488281 487.589844 532.207031 484.90625 C 535.011719 474.425781 533.589844 463.515625 528.199219 454.175781 C 522.816406 444.851562 514.074219 438.167969 503.585938 435.355469 C 493.097656 432.546875 482.183594 433.964844 472.859375 439.347656 L 458.925781 447.390625 L 458.925781 358.378906 C 458.925781 342.414062 454.523438 329.816406 445.078125 318.734375 C 436.828125 309.058594 425.617188 301.671875 413.753906 293.855469 C 411.421875 292.320312 409.0625 290.765625 406.683594 289.167969 C 410.550781 287.4375 413.257812 283.5625 413.257812 279.058594 L 413.257812 254.148438 C 413.257812 248.039062 408.289062 243.070312 402.183594 243.070312 L 319.078125 243.070312 C 312.972656 243.070312 308.003906 248.039062 308.003906 254.148438 L 308.003906 279.054688 C 308.003906 283.558594 310.710938 287.4375 314.578125 289.167969 C 312.199219 290.765625 309.839844 292.320312 307.511719 293.855469 C 295.644531 301.671875 284.433594 309.054688 276.183594 318.734375 C 266.738281 329.8125 262.335938 342.410156 262.335938 358.378906 L 262.335938 511.027344 C 262.335938 534.402344 281.355469 553.421875 304.734375 553.421875 L 372.835938 553.421875 C 378.03125 559.234375 384.824219 563.433594 392.574219 565.511719 C 396.097656 566.457031 399.667969 566.921875 403.210938 566.921875 C 403.261719 566.921875 507.074219 566.917969 507.074219 566.917969 C 529.414062 566.917969 547.589844 548.746094 547.589844 526.40625 C 547.589844 512.765625 540.5625 500.027344 529.304688 492.582031 Z M 467.636719 523.859375 L 457.917969 507.027344 L 477.667969 518.070312 Z M 488.203125 511.988281 L 447.71875 489.359375 L 439.34375 474.851562 L 496.847656 506.996094 Z M 508.148438 500.472656 L 507.378906 500.914062 L 446.273438 466.757812 L 454.921875 461.765625 L 514.808594 495.242188 C 512.867188 497.269531 510.636719 499.035156 508.148438 500.472656 Z M 522.933594 477.992188 C 522.757812 479.398438 522.488281 480.808594 522.113281 482.203125 C 521.714844 483.691406 521.210938 485.132812 520.609375 486.515625 L 465.453125 455.6875 L 474.097656 450.695312 Z M 500.882812 445.445312 C 508.675781 447.535156 515.164062 452.488281 519.152344 459.398438 C 520.257812 461.3125 521.128906 463.316406 521.777344 465.378906 L 485.820312 445.277344 C 490.699219 444.066406 495.855469 444.097656 500.882812 445.445312 Z M 382.789062 491.347656 C 381.175781 492.28125 379.660156 493.3125 378.230469 494.421875 L 272.785156 494.421875 L 272.785156 367.085938 L 448.480469 367.085938 L 448.480469 453.421875 Z M 318.449219 254.148438 C 318.449219 253.8125 318.746094 253.519531 319.078125 253.519531 L 402.183594 253.519531 C 402.519531 253.519531 402.8125 253.8125 402.8125 254.148438 L 402.8125 279.054688 C 402.8125 279.390625 402.519531 279.6875 402.183594 279.6875 L 319.078125 279.6875 C 318.746094 279.6875 318.449219 279.390625 318.449219 279.054688 Z M 313.257812 302.578125 C 319.144531 298.699219 325.222656 294.6875 331.398438 290.132812 L 389.863281 290.132812 C 396.039062 294.6875 402.117188 298.699219 408.003906 302.578125 C 431.027344 317.746094 447.777344 328.800781 448.449219 356.640625 L 272.816406 356.640625 C 273.484375 328.800781 290.238281 317.746094 313.257812 302.578125 Z M 272.785156 511.027344 L 272.785156 504.871094 L 368.765625 504.871094 C 361.75 516.066406 360.414062 530.371094 366.0625 542.976562 L 304.734375 542.976562 C 287.117188 542.976562 272.785156 528.644531 272.785156 511.027344 Z M 395.28125 555.421875 C 387.484375 553.332031 380.996094 548.378906 377.007812 541.46875 C 368.71875 527.109375 373.65625 508.6875 388.011719 500.394531 L 428.523438 477.007812 L 458.589844 529.082031 L 418.078125 552.472656 C 411.171875 556.460938 403.074219 557.511719 395.28125 555.421875 Z M 449.851562 546.191406 L 449.851562 556.472656 L 432.042969 556.472656 Z M 507.078125 556.472656 L 460.296875 556.472656 L 460.296875 540.160156 L 513.371094 509.519531 C 517.21875 507.296875 520.609375 504.496094 523.472656 501.25 C 531.886719 506.773438 537.140625 516.257812 537.140625 526.40625 C 537.140625 542.984375 523.65625 556.472656 507.078125 556.472656 Z M 507.078125 556.472656 " fill-opacity="1" fill-rule="nonzero"/></g></svg>