<svg xmlns="http://www.w3.org/2000/svg" width="49.48" height="113.839" viewBox="0 0 49.48 113.839">
  <g id="pregnant_1_" data-name="pregnant (1)" transform="translate(-147.068 506.711)">
    <path id="Path_437" data-name="Path 437" d="M168.825-506.118a16.018,16.018,0,0,0,4.657.682,11.8,11.8,0,0,1,6.225,1.613,5.676,5.676,0,0,1,2.226,7.747,10.682,10.682,0,0,0-.818,2.885c-.273,1.772-.273,1.795.545,3.885a13.321,13.321,0,0,1,.818,2.635,2,2,0,0,1-1.908,1.795c-.931.136-1,.2-1.136,1a16.132,16.132,0,0,0-.136,1.954,3.159,3.159,0,0,1-1.908,3.067,3.306,3.306,0,0,1-3.5-.114c-1.386-.682-1.658-.568-2.34.931-.682,1.477-.568,2.363.5,3.953a18.065,18.065,0,0,0,7.519,6.588c5.566,2.635,8.224,7.5,6.2,11.4a1.857,1.857,0,0,0-.3.75c.045.023.682.227,1.408.454,3.158.954,4.952,4.362,3.635,6.974-.273.545-.227.613.772,1.408a14.894,14.894,0,0,1,4.907,7.338,16.056,16.056,0,0,1-.091,7.042,27.485,27.485,0,0,1-4.18,8.315c-1.363,1.817-1.454,2.022-1.272,2.7a2.285,2.285,0,0,1-.977,2.5c-.523.227-.568.341-.454,1.545a4.318,4.318,0,0,1-1.477,3.885l-.682.522,1.522,1.954c4.044,5.134,6.225,8.928,6.247,10.859a2.09,2.09,0,0,1-.841,2.067c-1.681,1.727-6.156,3.385-11.881,4.384a35.993,35.993,0,0,1-7.588.522c-5.066,0-7.656-.386-10.836-1.568a18.342,18.342,0,0,1-10.7-11.7,19.7,19.7,0,0,1-.954-6.883,23.482,23.482,0,0,1,3.817-13.153,33.494,33.494,0,0,0,4.589-10.177l.273-1.249-2.408-6.929L155.9-451.46l-1.863-1.954a24.6,24.6,0,0,1-6.565-11.245,13.908,13.908,0,0,1-.363-4.748,15.509,15.509,0,0,1,3.271-9.519,21.436,21.436,0,0,0,3-5.52c.409-1.2.477-1.976.477-5.111,0-4.316.273-5.793,1.59-9.064C158.307-505.777,162.055-507.89,168.825-506.118Zm-6.861,2.817c-1.795,1.068-2.84,2.613-4.294,6.429l-.954,2.476-.136,4.771c-.114,4.384-.182,4.907-.727,6.429a24.421,24.421,0,0,1-3.271,5.861,14.094,14.094,0,0,0-2.817,8.633,15.838,15.838,0,0,0,1.772,7.292c.886,1.749,3.18,5.066,3.5,5.066.114,0,.182-.7.182-1.59,0-3.612.75-5.18,3.612-7.5a16.053,16.053,0,0,0,4.566-5.452c.977-1.954,1.159-2.794,1.363-6.7a27.427,27.427,0,0,1,1.7-9.087,9.777,9.777,0,0,0,.682-3.567c.114-2.885.841-3.953,2.181-3.271.522.25.545.386.568,2.294a16.773,16.773,0,0,0,.182,2.726c.182.659.2.636.954-.931a9.572,9.572,0,0,1,4.68-4.862c3.135-1.636,4.521-3.317,4.18-5.066-.227-1.136-.727-1.7-2.135-2.408a8.463,8.463,0,0,0-4.816-.977,14.033,14.033,0,0,1-4.43-.636C165.372-504.232,163.509-504.209,161.964-503.3ZM174.8-490.306a8.4,8.4,0,0,0-1.886,3.657c-.432,1.817-1.477,2.317-3.271,1.59l-.772-.341-.341,1.068a23.335,23.335,0,0,0-1.045,7.088,28.463,28.463,0,0,1-.545,4.862,8.24,8.24,0,0,0-.363,1.363c0,.363,2.612,2.045,4.021,2.612a13.864,13.864,0,0,0,2.294.659l1.181.2-1.454-1.522a24.814,24.814,0,0,1-3.885-5.293c-.954-2.294.318-6.134,2.453-7.429a3.1,3.1,0,0,1,3.408.136,1.89,1.89,0,0,0,1.386.454c.5-.114.545-.3.682-2.34.227-2.908.772-3.93,2.158-3.93.591,0,.591-.068.045-1.5a12.485,12.485,0,0,1-.613-2.317l-.136-1.159-1.318.659A7.878,7.878,0,0,0,174.8-490.306Zm-10.859,23.649a22.757,22.757,0,0,1-3.317,3.294c-1.795,1.408-2.022,1.681-2.34,2.749a19.62,19.62,0,0,0-.114,6.588c.114.727,1.318,4.543,2.658,8.5l2.453,7.156,10.291,11.586c5.657,6.361,10.541,11.677,10.859,11.79a1.6,1.6,0,0,0,2.135-1.59,3.465,3.465,0,0,0-.523-1.363c-.477-.863-.477-.931-.114-1.59l.386-.682h-1.022a4.059,4.059,0,0,1-3.18-1.386c-1.386-1.5-13.562-18.287-14.107-19.469-.591-1.249-.8-3.658-1.908-22.195-.227-3.794-.409-5.111-.772-5.111C165.3-468.384,164.69-467.612,163.941-466.658Zm4.771,1.84c.068.727.386,5.7.7,11.086.318,5.361.7,10.246.863,10.859.2.841,1.749,3.09,7.088,10.382,4.248,5.793,7,9.36,7.27,9.428.25.045,1.022.159,1.727.227l1.295.136,1.7-2.272a25.449,25.449,0,0,0,4.157-7.974,11.485,11.485,0,0,0-.5-7.042,13.18,13.18,0,0,0-3.794-4.657l-1.295-1.068-1.113.477c-2.931,1.249-5.861-.045-6.633-2.953a3.152,3.152,0,0,1,0-2.045c.159-.545.386-1.5.522-2.135a7.474,7.474,0,0,1,1.772-3.567c2.158-2.84,1.454-5.407-2.135-7.951L178.752-465l-2.181.159a16.47,16.47,0,0,1-6.679-.931C168.643-466.317,168.552-466.249,168.711-464.818Zm15.561,13.176a4.014,4.014,0,0,0-1.568,2.567,2.01,2.01,0,0,0,1.772,1.59,6.81,6.81,0,0,0,3.589-1.7c.568-.863-.25-2.363-1.613-2.976C185.454-452.6,185.295-452.573,184.273-451.641ZM162.3-432.99a37.626,37.626,0,0,1-3.907,7.86,19.369,19.369,0,0,0-3.567,11.291c-.25,6.179,1.431,10.541,5.429,14.176,3.339,3.021,8.837,4.453,15.857,4.135,6.315-.3,13.4-2.022,15.448-3.771l.7-.591-.7-1.477c-1.636-3.43-6.974-10.5-8.451-11.177-.909-.432-1.454-1.022-12.744-13.744-4.021-4.521-7.36-8.246-7.451-8.246A6.549,6.549,0,0,0,162.3-432.99Z" transform="translate(0)" fill="#347053"/>
    <path id="Path_438" data-name="Path 438" d="M181.721-212.5a5.686,5.686,0,0,1,1.454,1.249c1,1.249,1.068,2.635.273,5.089-.886,2.7-1.113,2.931-2.749,2.862a10.653,10.653,0,0,1-4.7-1.045c-2.794-1.886-2.408-6.134.659-6.861a3.541,3.541,0,0,0,1.386-.841A3.349,3.349,0,0,1,181.721-212.5Zm-2.135,3.021a1.657,1.657,0,0,1-1.931,1.022c-.523-.114-.682-.045-.8.318a1.519,1.519,0,0,0,.772,1.613,8.058,8.058,0,0,0,1.681.363l1.227.136.386-1.09c.454-1.363.454-2.113-.023-2.635C180.381-210.346,179.995-210.255,179.586-209.483Z" transform="translate(6.413 -227.097)" fill="#347053"/>
    <path id="Path_439" data-name="Path 439" d="M293.123-154.522c.454.682.3,1.408-.454,2.226-.659.7-1.5.8-2.022.2-.545-.591-.477-1.363.2-2.249C291.579-155.295,292.556-155.386,293.123-154.522Z" transform="translate(-129.365 -271.721)" fill="#347053"/>
    <path id="Path_440" data-name="Path 440" d="M303.959-136.492c.454.5.409.8-.341,3.521a27.624,27.624,0,0,0-.454,9.337c.3,2.045.136,2.658-.7,2.931a1.245,1.245,0,0,1-1.09-.273c-.772-.591-1.136-2.453-1.159-6.111,0-4,1.068-9.11,2.045-9.632A1.3,1.3,0,0,1,303.959-136.492Z" transform="translate(-142.495 -285.776)" fill="#347053"/>
  </g>
</svg>
