<svg xmlns="http://www.w3.org/2000/svg" width="72.901" height="101.627" viewBox="0 0 72.901 101.627">
  <g id="breast-cancer" transform="translate(-0.5 0)">
    <path id="Path_429" data-name="Path 429" d="M133.887,23.129a23.3,23.3,0,1,0,23.3,23.3,23.323,23.323,0,0,0-23.3-23.3Zm0,43.617a20.32,20.32,0,1,1,20.32-20.32A20.343,20.343,0,0,1,133.887,66.746Zm0,0" transform="translate(-88.238 -18.538)" fill="#347053"/>
    <path id="Path_430" data-name="Path 430" d="M200.819,161.707a6.355,6.355,0,1,0,6.356,6.355A6.362,6.362,0,0,0,200.819,161.707Zm0,9.732a3.377,3.377,0,1,1,3.378-3.377A3.382,3.382,0,0,1,200.819,171.439Zm0,0" transform="translate(-155.464 -129.61)" fill="#347053"/>
    <path id="Path_431" data-name="Path 431" d="M251.986,125.243a4.243,4.243,0,1,0-4.244,4.244A4.248,4.248,0,0,0,251.986,125.243Zm-4.244,1.266a1.266,1.266,0,1,1,1.266-1.266A1.267,1.267,0,0,1,247.743,126.509Zm0,0" transform="translate(-194.766 -96.983)" fill="#347053"/>
    <path id="Path_432" data-name="Path 432" d="M180.275,92.063a7.041,7.041,0,1,0-7.041-7.041A7.049,7.049,0,0,0,180.275,92.063Zm0-11.1a4.064,4.064,0,1,1-4.064,4.064A4.069,4.069,0,0,1,180.275,80.958Zm0,0" transform="translate(-138.448 -62.503)" fill="#347053"/>
    <path id="Path_433" data-name="Path 433" d="M152.548,147.828a3.83,3.83,0,1,0,3.83,3.83A3.834,3.834,0,0,0,152.548,147.828Zm0,4.682a.853.853,0,1,1,.853-.852A.853.853,0,0,1,152.548,152.51Zm0,0" transform="translate(-118.799 -118.486)" fill="#347053"/>
    <path id="Path_434" data-name="Path 434" d="M256.528,65.488a4.657,4.657,0,1,0,4.656,4.657A4.662,4.662,0,0,0,256.528,65.488Zm0,6.335a1.679,1.679,0,1,1,1.679-1.679A1.68,1.68,0,0,1,256.528,71.824Zm0,0" transform="translate(-201.476 -52.49)" fill="#347053"/>
    <path id="Path_435" data-name="Path 435" d="M271.981,171.741l-.941.941a1.489,1.489,0,0,0,2.106,2.105l.941-.941a1.489,1.489,0,0,0-2.106-2.106Zm0,0" transform="translate(-216.49 -137.303)" fill="#347053"/>
    <path id="Path_436" data-name="Path 436" d="M71.942,25.092a1.489,1.489,0,0,0,1.23-1.709A27.872,27.872,0,0,0,26.819,7.336a36.224,36.224,0,0,1-.628-3.916A3.79,3.79,0,0,0,22.417,0H4.294A3.8,3.8,0,0,0,.5,3.793v94.04a3.8,3.8,0,0,0,3.794,3.794H15.776a1.489,1.489,0,0,0,0-2.977H4.294a.818.818,0,0,1-.816-.816V3.793a.817.817,0,0,1,.816-.816H22.417a.821.821,0,0,1,.812.747,36.874,36.874,0,0,0,1.16,6.135C9.053,27.926,21.96,55.776,45.649,55.776a27.812,27.812,0,0,0,13.256-3.36l.01-.005c.888.747,1.781,1.486,2.669,2.211-1.338,4.312.1,9.252,3.559,11.675-2.878,10.115-8.438,16.429-16.537,18.775a25.731,25.731,0,0,1-12.02.447l-8.635-2.09a1.489,1.489,0,0,0-.7,2.894l7.5,1.814v9.7a.817.817,0,0,1-.816.816H22.724a1.489,1.489,0,1,0,0,2.977H33.932a3.8,3.8,0,0,0,3.794-3.794V88.748C51.114,90.6,63.71,83.736,68.317,65.972h0a9.443,9.443,0,0,1,1.237-2.221,10.773,10.773,0,0,0,1.968-4.145,4.228,4.228,0,0,0-1.606-3.968c-1.138-.872-4.282-1.571-5.632-2.66l0,0c-.895-.722-1.8-1.464-2.7-2.214A27.876,27.876,0,0,0,73.394,30.72a1.489,1.489,0,1,0-2.962-.3,24.911,24.911,0,1,1-.2-6.558,1.487,1.487,0,0,0,1.709,1.23ZM64.211,56.4a.158.158,0,0,1,0-.019c1.477.7,3.5,1.341,3.892,1.625,1.129.865.06,2.456-1.033,4.1-.277.417-.557.84-.811,1.268A7.769,7.769,0,0,1,64.211,56.4Zm0,0" fill="#347053"/>
  </g>
</svg>
