<svg xmlns="http://www.w3.org/2000/svg" width="114.176" height="112.392" viewBox="0 0 114.176 112.392">
  <g id="Delivery" transform="translate(-157.225 -1650.29)">
    <g id="surgery-room_4_" data-name="surgery-room (4)" transform="translate(157.225 1650.29)">
      <g id="Group_487" data-name="Group 487" transform="translate(72.265 0)">
        <path id="Path_447" data-name="Path 447" d="M258.344-507.823c-1.127.338-3.043,2.85-3.188,4.218a3.179,3.179,0,0,0,.95,2.721c.66.692.66.692.692,1.98a5.359,5.359,0,0,0,3.011,4.911,4.329,4.329,0,0,0,2.319.612,4.169,4.169,0,0,0,2.319-.338c1.465-.6,1.61-.483,1.61,1.24a3.979,3.979,0,0,0,.58,2.48,5.368,5.368,0,0,0,2.641,2.624,4.116,4.116,0,0,0,2.335.386,4.533,4.533,0,0,0,2.335-.354c.6-.306.757-.338,1.014-.161s.306.419.338,1.562a4.32,4.32,0,0,0,.451,2.254,6.055,6.055,0,0,0,2.85,2.785,5.247,5.247,0,0,0,4.4.081l.9-.419.789.4a3.485,3.485,0,0,0,3.333-.113,9.663,9.663,0,0,0,2.27-2.963,3.531,3.531,0,0,0-1.063-3.993,1.934,1.934,0,0,1-.805-1.4,13.017,13.017,0,0,0-3.542-6.36c-.451-.419-1.98-1.546-3.381-2.528-1.4-.966-2.592-1.835-2.641-1.916a18.9,18.9,0,0,1,1.787-2.8l1.868-2.673h5.845c5.651,0,5.845-.016,6.263-.338a1.087,1.087,0,0,0,0-1.739c-.419-.322-.6-.338-6.762-.338h-6.328l-.4.354c-.209.209-1.288,1.642-2.367,3.188s-1.98,2.834-2,2.866c-.032.032-1.449-.934-3.172-2.125-3.236-2.27-4.637-2.995-6.553-3.413a17.1,17.1,0,0,0-4.6-.08,1.916,1.916,0,0,1-1.352-.338A3.443,3.443,0,0,0,258.344-507.823Zm1.594,2.4c.982.531,27.967,19.546,28.08,19.8.209.451,0,1.014-.708,1.916-.483.612-.757.821-1.079.821-.306,0-4.492-2.85-14.362-9.757-7.664-5.362-14.04-9.87-14.137-10.015-.338-.419-.242-.805.435-1.8C258.94-505.585,259.278-505.778,259.938-505.424Zm6.634.66a10.9,10.9,0,0,1,1.884.644c1.352.612,14.024,9.483,15.07,10.562a9.817,9.817,0,0,1,1.948,2.914c-.064.048-19.756-13.654-20.223-14.072-.193-.193-.177-.225.113-.225A8.625,8.625,0,0,1,266.571-504.764Zm-4.621,8.131,1.127.789-.692.048a2.906,2.906,0,0,1-2.624-1.385,2.956,2.956,0,0,1-.467-1.047c0-.258.1-.225.773.258C260.485-497.679,261.323-497.067,261.951-496.633Zm9.822,6.875.644.467-1-.064a2.846,2.846,0,0,1-1.642-.515,3.606,3.606,0,0,1-1.3-2.013C268.471-492.06,269.6-491.336,271.772-489.758Zm9.371,6.569c.37.274.37.274.032.354a3.448,3.448,0,0,1-3.124-1.658c-.612-1.208-.5-1.224,1.143-.08C280.08-483.961,280.949-483.349,281.143-483.188Z" transform="translate(-255.128 508)" fill="#347053"/>
        <path id="Path_454" data-name="Path 454" d="M274.621-388.712a16.642,16.642,0,0,0-2.286,1.562,1.208,1.208,0,0,0,.9,1.819,20.564,20.564,0,0,0,4.75-2.721,1.161,1.161,0,0,0-.853-1.948A11.394,11.394,0,0,0,274.621-388.712Z" transform="translate(-269.409 408.999)" fill="#347053"/>
        <path id="Path_455" data-name="Path 455" d="M303.281-369.678a21.118,21.118,0,0,0-3.059,4.524,1.136,1.136,0,0,0,2.061.741,23.774,23.774,0,0,0,2.834-4.218.852.852,0,0,0-.322-.869A1.1,1.1,0,0,0,303.281-369.678Z" transform="translate(-292.949 392.138)" fill="#347053"/>
        <path id="Path_456" data-name="Path 456" d="M337.779-357.429c-.386.322-.5.692-.918,2.785a15.09,15.09,0,0,0-.4,2.769,1.177,1.177,0,0,0,2.029.37,21.956,21.956,0,0,0,1.111-5.072A1.07,1.07,0,0,0,337.779-357.429Z" transform="translate(-323.358 381.935)" fill="#347053"/>
      </g>
      <path id="Path_457" data-name="Path 457" d="M0-229.34c0,2.163.067,2.587.535,3.5l.513,1.048-.513,1.048c-.468.892-.535,1.36-.535,3.523,0,2.208.067,2.609.557,3.613a4.458,4.458,0,0,0,3.1,2.453c.78.111.8.156.8,1.137a5.081,5.081,0,0,0,2.765,4.75c.736.334,1.472.424,3.769.424h2.832v10.994c0,12.488-.045,12.087,1.784,13.023a5.426,5.426,0,0,0,2.988.513c2.564,0,3.679-.468,4.348-1.873.446-.914.468-1.293.468-11.8v-10.86H90.761v10.86c0,10.5.022,10.882.468,11.8.669,1.4,1.784,1.873,4.348,1.873a5.426,5.426,0,0,0,2.988-.513c1.829-.937,1.784-.535,1.784-13.023v-10.994H103.2c2.275,0,3.01-.089,3.746-.424a5.081,5.081,0,0,0,2.765-4.75c0-.981.022-1.026.8-1.137a4.458,4.458,0,0,0,3.1-2.453c.491-1,.557-1.4.557-3.59-.022-3.39-.691-4.772-2.854-5.865-.781-.379-1.985-.4-25.868-.4H60.388l-.535.624a2.177,2.177,0,0,0-.535.937A1.927,1.927,0,0,0,60.5-223.23c.446.156,8.63.223,25.132.223,23.415,0,24.485.022,24.82.4.29.312.379.87.379,2.431,0,1.762-.067,2.052-.468,2.431-.468.424-1.65.424-53.275.424s-52.806,0-53.275-.424c-.4-.379-.468-.669-.468-2.475,0-1.695.067-2.118.4-2.408.379-.357,2.431-.379,24.842-.379,16.48,0,24.641-.067,25.087-.223a1.927,1.927,0,0,0,1.182-1.673,2.177,2.177,0,0,0-.535-.937l-.535-.624L44-226.53,34.23-226.6S.6-234.338,0-229.34Zm17.171,2.877c-15.253,0-13.826.29-13.826-2.9C3.345-231.481,32.424-226.463,17.171-226.463Zm89.2,13.447a2.633,2.633,0,0,1-.357,1.338l-.335.491H8.5l-.334-.491a2.633,2.633,0,0,1-.357-1.338v-.847h98.566ZM20.07-197.25v10.592h-2.9v-21.185h2.9Zm76.935,0v10.592h-2.9v-21.185H97Z" transform="translate(0 295.705)" fill="#347053"/>
    </g>
    <g id="pregnant-_1_" transform="translate(162.223 1726.045) rotate(-90)">
      <path id="Path_446" data-name="Path 446" d="M12.91.22A8.916,8.916,0,0,0,6.368,8.87c0,1.119,0,1.119-.494,1.41a3.05,3.05,0,0,0-1.4,2.035,33.656,33.656,0,0,0-.116,4.492l.044,3.751.407.683a2.782,2.782,0,0,0,.683.843c.16.087.291.218.291.291s-1.279,2.37-2.849,5.117C-.2,32.958-.319,33.249.292,34.15c.291.436.727.669,2.995,1.672,2.559,1.119,2.631,1.163,2.428,1.454a12.476,12.476,0,0,0-2.4,7.051c0,2.631.8,5.2,3.155,10.1,1.948,4.041,2.617,5.8,2.806,7.312.233,1.774-.393,1.628,7.065,1.628H22.8l.2-.334a32.065,32.065,0,0,0,1.4-5.524c.6-3.518.654-6.934.145-8.664-.131-.48-.116-.523.465-1.018.32-.291.683-.567.785-.64A14.77,14.77,0,0,0,28.2,43.948c1.73-3.678.581-7.85-3.256-11.906a12.675,12.675,0,0,1-1.119-1.279,8.565,8.565,0,0,1,.872-.436,4.022,4.022,0,0,0,2.457-3.445c0-.6-.32-.93-2.5-2.762-1.207-.989-1.541-1.454-1.076-1.454a.706.706,0,0,0,.436-.32c.2-.276.233-.93.233-4.289V14.1l.363-.538c.523-.785.654-1.4.654-3.256,0-1.992-.145-2.6-.8-3.329a4.89,4.89,0,0,1-.8-1.352A9.076,9.076,0,0,0,17.635.205,13.23,13.23,0,0,0,12.91.22ZM16.952,2.1a6.8,6.8,0,0,1,4.972,4.579,3.25,3.25,0,0,0,.814,1.4l.494.465v3.605l-.509.538-.509.538V17c0,4.259-.044,4.4-.887,2.878a2.36,2.36,0,0,0-2.471-1.57h-1V16.851h1.294c1.09,0,1.337-.044,1.672-.305l.393-.305-.044-4.9-.044-4.885-.465-.974a6.959,6.959,0,0,0-1.207-1.73c-.654-.654-.785-.727-1.265-.683s-.581.131-1.018.872c-1.076,1.846-2.878,2.777-5.786,2.966a5.583,5.583,0,0,0-1.643.305l-.334.2.044,2.937c.044,2.878.058,2.951.451,3.765a5.2,5.2,0,0,0,.974,1.337l.582.523V18.3h-.93a3.478,3.478,0,0,0-3.285,1.7l-.407.64L6.6,20.311c-.2-.276-.233-.887-.233-4.056,0-4.2-.015-4.158,1.1-4.463.8-.233.93-.567.93-2.573a8.082,8.082,0,0,1,.276-2.53A6.941,6.941,0,0,1,16.952,2.1Zm2.137,4.783a19.048,19.048,0,0,1,.218,4.347V14.83l-3.038-.044-3.038-.044-.625-.436c-.959-.683-1.119-1.134-1.178-3.416l-.044-1.963.9-.1a8.794,8.794,0,0,0,5.422-2.37C18.623,5.541,18.7,5.555,19.089,6.878Zm-4.1,9.973h.829v1.236c0,1.992.276,2.253,2.413,2.253,1.047,0,1.207.029,1.294.276a13.666,13.666,0,0,0,.8,1.468c.451.756.64,1.207.538,1.236a8.791,8.791,0,0,1-2.719.233c-1.526-.247-2.181-.945-2.689-2.922a2.636,2.636,0,0,0-1.4-2.035c-.552-.291-.567-.305-.567-1.1s.015-.814.334-.727A6.727,6.727,0,0,0,14.989,16.851ZM11.18,21.1a3.625,3.625,0,0,1-.015,3.082A7.768,7.768,0,0,1,9,26.445a53.183,53.183,0,0,0-4.245,5c-.16.334-.145.436.1.756a50.257,50.257,0,0,0,6.091,3.344l5.815,2.966h1.294c1.163,0,1.265.029,1.178.247-.378.872-.305,1.047.887,2.181.64.611,1.047,1.061.93,1.032-2.413-.756-2.6-.858-2.937-1.468-.305-.552-.48-.654-2.152-1.381-1-.436-4.536-1.963-7.85-3.387a65.429,65.429,0,0,1-5.989-2.762c.1-.407,6.92-12.153,7.181-12.386a1.564,1.564,0,0,1,.916-.247C10.831,20.34,10.846,20.354,11.18,21.1Zm2.253-.363a5.849,5.849,0,0,0,1.541,3.329,5.6,5.6,0,0,0,1.41,1.032A4.121,4.121,0,0,0,18.8,25.5a10.243,10.243,0,0,0,2.646-.276l1.032-.276L23.8,26.009a6.912,6.912,0,0,1,1.323,1.25c0,.363-.741,1.047-1.468,1.352a8.879,8.879,0,0,1-1.628.48c-1.076.174-1.41.436-1.41,1.061,0,.393.2.64,1.468,1.817,3.387,3.14,5.088,6.266,4.885,8.984-.131,1.715-.814,2.98-2.486,4.608a17.259,17.259,0,0,1-4.012,2.893c-3.067,1.8-3.344,2.021-3.344,2.573a1.237,1.237,0,0,0,1,1,18.37,18.37,0,0,0,2.311-1.25c1.585-.945,2.137-1.207,2.253-1.09.276.276.2,4.739-.087,6.556-.276,1.585-.7,3.605-.974,4.637l-.16.6H16.4c-4.71,0-5.074-.015-5.132-.262-.044-.131-.16-.611-.262-1.047-.291-1.294-.785-2.486-2.515-6.106a33.24,33.24,0,0,1-2.849-7.022,12.768,12.768,0,0,1-.073-4.972,11.967,11.967,0,0,1,1.846-3.736l.48-.552,4.259,1.846C16.21,41.39,16.443,41.506,16.69,42a2.966,2.966,0,0,0,.48.712,50.288,50.288,0,0,0,6.222,2.05c.654,0,.93-.48.93-1.628V42.117l-1.337-1.265c-1.323-1.221-1.337-1.265-1.134-1.614a1.848,1.848,0,0,0-.2-2.064l-.422-.48L19.2,36.622,17.2,36.549l-3.416-1.774L10.366,33V27.943l.625-.494A7.959,7.959,0,0,0,13.143,24.6a5.772,5.772,0,0,0,.131-3.533c-.262-.727-.262-.727-.073-.727C13.274,20.34,13.375,20.514,13.434,20.732ZM8.491,30.981a5.211,5.211,0,0,1-.145.959c-.1.087-.959-.451-.959-.6a3.9,3.9,0,0,1,1.076-1.25C8.535,30.08,8.549,30.472,8.491,30.981Z" transform="translate(2.096 0)" fill="#347053"/>
      <path id="Path_458" data-name="Path 458" d="M24.6-.172,0,.183.566,39.922h15.96Z" transform="translate(0 61.136)" fill="#fbfbfb" stroke="#347053" stroke-width="3"/>
      <path id="Path_459" data-name="Path 459" d="M4.049.48S8.7,1.442,9.465,2.019s.966.772.769,1.347-1.25.576-1.827.673-2.692-.1-3.173,0-4.038,0-4.038,0H.427s-.962-1.25,0-2.019S.427.77.427.77V0H5.759Z" transform="translate(6.389 100.865)" fill="none" stroke="#347053" stroke-width="2"/>
      <path id="Path_460" data-name="Path 460" d="M13.2,0H4.26S-.452,23.561.035,23.723,8,24.374,8,24.374Z" transform="translate(9.833 69.056)" fill="none" stroke="#347053" stroke-width="2"/>
    </g>
  </g>
</svg>
