<svg xmlns="http://www.w3.org/2000/svg" width="69.119" height="96.696" viewBox="0 0 69.119 96.696">
  <g id="heart_1_" data-name="heart (1)" transform="translate(-0.002)">
    <path id="Path_366" data-name="Path 366" d="M335.114,302.22l.006.013a1.867,1.867,0,1,0-.006-.013Zm0,0" transform="translate(-271.688 -242.979)" fill="#347053"/>
    <path id="Path_367" data-name="Path 367" d="M68.637,64.745a1.888,1.888,0,0,0-3.73.59,35.764,35.764,0,0,1,.345,8.128,21.34,21.34,0,0,1-8.712,15.73l-1.277.932A14.51,14.51,0,0,1,43.371,92.53l-5-1.182A46.975,46.975,0,0,1,13.522,76.235,27.2,27.2,0,0,1,8.45,68.019a1.877,1.877,0,0,0,.069-.8c-.01-.081-.94-8.238,10.564-13.475A26.645,26.645,0,0,0,31.947,41.359c8.649,1.194,11.626,3.628,11.847,3.819a1.771,1.771,0,0,0,1.739.493q.236-.053.468-.1A13.379,13.379,0,0,1,60.846,53.23a1.889,1.889,0,0,0,3.449-1.541,17.3,17.3,0,0,0-6.9-7.762.2.2,0,0,1,.007-.019,12.612,12.612,0,0,0,.573-3.771c0-.257-.01-.513-.025-.767h1.31a1.889,1.889,0,0,0,0-3.777H57.124a12.624,12.624,0,0,0-2-3.433l.855-.855a1.889,1.889,0,0,0-2.671-2.671l-.989.989a12.544,12.544,0,0,0-5.2-1.975c2.5-2,5.79-2.949,9.8-2.813a1.888,1.888,0,0,0,1.953-1.887V15.753a1.888,1.888,0,0,0-1.733-1.882,45.562,45.562,0,0,0-8.441.259,19.08,19.08,0,0,0-8.279-8.575l1.337-2a1.889,1.889,0,0,0-3.138-2.1L36.7,4.316a13.5,13.5,0,0,0-3.937-.153V1.889a1.889,1.889,0,0,0-3.777,0v3.23A16.2,16.2,0,0,0,24,8.372a20.432,20.432,0,0,0-3.084,3.712,4.3,4.3,0,0,0-3.83-2.359H11.964a4.3,4.3,0,0,0-4.292,4.292V33.324a19.878,19.878,0,0,0-2.743,2.6C.789,40.65-.035,46.838,0,51.2c.043,4.931,1.235,9.958,3.119,13.181.285.763.541,1.5.789,2.212a32.47,32.47,0,0,0,6.733,12.092A50.775,50.775,0,0,0,37.5,95.025l5,1.182A18.288,18.288,0,0,0,57.49,93.176l1.277-.932A25.109,25.109,0,0,0,69.02,73.734a39.5,39.5,0,0,0-.383-8.989ZM45.59,41.8A18.466,18.466,0,0,0,41.5,39.759,21.039,21.039,0,0,1,43.96,31.41a9.012,9.012,0,0,1,1.4-.111,8.842,8.842,0,0,1,8.559,11.048A16.958,16.958,0,0,0,45.59,41.8Zm9.5-24.226v3.494A16.905,16.905,0,0,0,43.6,25.724c-4.15,4.061-5.4,9.7-5.778,12.908a52.6,52.6,0,0,0-6.491-1.16q-.861-.8-1.715-1.507c0-.046.007-.091.007-.137,0-5.073,1.639-9.157,4.871-12.138,6.147-5.669,16.51-6.155,20.6-6.115ZM34.213,7.862a9.921,9.921,0,0,1,2.786.4h0a13.853,13.853,0,0,1,7.74,6.521,27.269,27.269,0,0,0-12.8,6.114,18.775,18.775,0,0,0-5.978,12.41A22.327,22.327,0,0,0,21.383,31.1V20.184a2.066,2.066,0,0,0,.086-.235c2.083-7.23,7.2-12.088,12.744-12.088ZM11.449,14.018a.515.515,0,0,1,.515-.515h5.126a.515.515,0,0,1,.515.515V30.292a14.266,14.266,0,0,0-1.885-.042,13.339,13.339,0,0,0-4.271.9Zm-3.68,24.4c2.441-2.785,5.173-4.263,8.119-4.395,3.757-.168,8.08,1.874,12.539,5.914A23.143,23.143,0,0,1,17.518,50.3C10.29,53.592,7.205,58.055,5.889,61.219c-.022.054-.043.106-.065.159C3.437,56.09,2.153,44.824,7.77,38.418Zm0,0" transform="translate(0 0)" fill="#347053"/>
    <path id="Path_368" data-name="Path 368" d="M113.53,400.3a1.888,1.888,0,1,0-2.412,2.907,43.517,43.517,0,0,0,17.694,8.813,1.889,1.889,0,0,0,.868-3.676,39.729,39.729,0,0,1-16.15-8.043Zm0,0" transform="translate(-89.578 -324.346)" fill="#347053"/>
    <path id="Path_369" data-name="Path 369" d="M85.056,374.664a1.9,1.9,0,1,0,2.707.241l-.038-.045A1.894,1.894,0,0,0,85.056,374.664Zm0,0" transform="translate(-68.46 -303.533)" fill="#347053"/>
  </g>
</svg>
