<svg xmlns="http://www.w3.org/2000/svg" width="79.377" height="88.346" viewBox="0 0 79.377 88.346">
  <g id="sugar-blood-level" transform="translate(0 0)">
    <path id="Path_562" data-name="Path 562" d="M75.243-511.677a7.919,7.919,0,0,0-5.748,6.041c-.121.6-.173,5.333-.138,14.688.069,15.4,0,14.464,1.329,17.243a13.365,13.365,0,0,0,7.094,6.611,14.305,14.305,0,0,0,4.022.9h.639v6.9H73.552c-4.885,0-8.889-.052-8.889-.138,0-.069.121-.708.276-1.415a13.269,13.269,0,0,0-2.468-10.391c-1.381-1.8-2.779-2.71-4.384-2.848a3.95,3.95,0,0,0-4.108,2.969c-.086.38-.293,1.484-.449,2.468-.828,5.3-2.848,7.595-7.767,8.854a13.542,13.542,0,0,1-3.884.4l-2.33.017L39.5-459.9a1.8,1.8,0,0,0-.932-1.571c-.6-.311-10.977-.362-11.582-.052-1,.518-.984.328-.984,7.871v6.939l.449.345a1.033,1.033,0,0,0,1.571-.052l.483-.414.052-6.145.052-6.145h8.268v30.205H28.606l-.052-6.49-.052-6.49-.5-.431a1.17,1.17,0,0,0-1.691.069c-.293.259-.311.846-.311,7.594v7.336l.5.5.5.5h11.34l.5-.4a1.542,1.542,0,0,0,.6-1.174l.1-.759,2.071.017c2.485,0,3.124.242,5.523,2.037a14.8,14.8,0,0,0,5.368,2.693c1.346.345,1.83.362,13.981.311l12.583-.052.984-.483a5.716,5.716,0,0,0,2.606-2.693,6,6,0,0,0-.086-4.539l-.466-.984.6-.362a5.562,5.562,0,0,0,1.847-7.059c-.328-.673-.4-.967-.242-1.018a5.46,5.46,0,0,0,2.106-2.037,5.716,5.716,0,0,0,.259-5.092l-.242-.5h2.969c3.228,0,4.436-.207,5.592-.932a4.944,4.944,0,0,0,2.347-4.5,4.78,4.78,0,0,0-1.605-3.935,6.359,6.359,0,0,0-3.124-1.5c-.328,0-.345-.138-.345-3.452V-466.2h.587a14.669,14.669,0,0,0,4.47-1.036,13.135,13.135,0,0,0,7.715-9.079c.345-1.346.345-1.8.311-15.62l-.052-14.222-.552-1.174a9.215,9.215,0,0,0-3.3-3.625c-1.8-.984-1.881-.984-14.1-.967C78.281-511.918,75.968-511.867,75.243-511.677Zm24.786,2.934a7.507,7.507,0,0,1,1.588,1.26c1.26,1.433,1.208.742,1.156,16.363l-.052,13.963-.4,1.122a10.85,10.85,0,0,1-8.941,7.18l-1.1.121V-471.1c0-3.9-.19-4.073-4.8-4.073-4.764,0-4.9.1-5.005,3.918l-.069,2.468h-.57a12.789,12.789,0,0,1-4.246-1.225,12.934,12.934,0,0,1-3.884-3.556,15.314,15.314,0,0,1-1.191-2.382L72-477.329l-.052-13.636c-.035-9.614,0-13.86.138-14.412a5.48,5.48,0,0,1,3.521-3.728c.552-.173,3.141-.224,12.1-.19l11.392.035ZM89.655-465.35,89.6-458.1l-.5.518a2.191,2.191,0,0,1-3.5-.1l-.483-.621-.052-6.9c-.035-3.8-.017-7.008.035-7.128.069-.19.6-.242,2.347-.242h2.261ZM59-471.081a9.678,9.678,0,0,1,3.331,5.54,10.23,10.23,0,0,1-.535,6.11c-.552,1.312-.535,1.916.035,2.365.449.362.6.362,10.822.362H82.993l.708.777a4.859,4.859,0,0,0,4.764,1.64,5.072,5.072,0,0,0,2.8-1.812c.466-.673.967-.777,1.933-.362a2.842,2.842,0,0,1,.414,4.9l-.708.466-14.067.086-14.084.086-.863.414a5.358,5.358,0,0,0-3.021,4.919A4.943,4.943,0,0,0,62-442.222l.6.708-.6.777a5.7,5.7,0,0,0,.155,7.042l.449.483-.535.69a5.808,5.808,0,0,0-.88,5.454l.311.915H57.862c-5.161,0-6.093-.276-9.251-2.624a10.43,10.43,0,0,0-7.543-2.555H39.463V-456.7h1.968a19.873,19.873,0,0,0,6.231-.949,10.433,10.433,0,0,0,4.936-2.831c2.019-2.019,3.141-4.643,3.625-8.527C56.55-471.46,57.465-472.151,59-471.081ZM83.079-448.09a2.438,2.438,0,0,1,1.45,1.864,2.94,2.94,0,0,1-1.916,3.331c-.345.1-3.935.173-8.716.173-8.078,0-8.13,0-8.889-.4a2.537,2.537,0,0,1-1.553-2.416,2.732,2.732,0,0,1,1.45-2.537c.673-.328,1.018-.345,9.079-.345C81.819-448.418,82.406-448.384,83.079-448.09Zm-2.019,8.337a3.055,3.055,0,0,1,1.553,2.468,3.073,3.073,0,0,1-1.536,2.451c-.759.4-.794.4-7.957.4a70.976,70.976,0,0,1-7.784-.19,2.665,2.665,0,0,1-1.881-2.658,2.808,2.808,0,0,1,1.726-2.658c.259-.1,3.331-.173,7.767-.173C80.231-440.133,80.3-440.133,81.06-439.753Zm-2.14,8.233a2.784,2.784,0,0,1,.069,4.988c-.777.4-.811.4-7.284.345-6.283-.052-6.507-.069-6.99-.414a2.86,2.86,0,0,1-1.26-2.347,2.82,2.82,0,0,1,1.726-2.71,66.342,66.342,0,0,1,6.731-.173C77.694-431.848,78.264-431.814,78.92-431.52Z" transform="translate(-26 511.922)" fill="#347053"/>
    <path id="Path_563" data-name="Path 563" d="M318.553-472.6a2.549,2.549,0,0,0-1.07.673l-.483.535v10.356l.587.656.587.639,3.815.052,3.814.052.431-.432a1.124,1.124,0,0,0,0-1.743c-.414-.431-.449-.431-3.538-.431h-3.107v-7.94l8.6.035,8.578.052.052,3.918.035,3.935H334.1a27.844,27.844,0,0,0-3.038.1,1.488,1.488,0,0,0-.587,1.605c.328.811.552.863,3.953.88,5.144,0,5.005.173,5.005-6.524,0-5.247-.069-5.644-1.1-6.214-.483-.259-1.433-.293-9.856-.328C323.352-472.733,318.881-472.681,318.553-472.6Z" transform="translate(-266.773 479.486)" fill="#347053"/>
    <path id="Path_564" data-name="Path 564" d="M320.749-368.272a4.469,4.469,0,0,0-2.727,1.553,4.647,4.647,0,0,0,1.381,7.249,5.2,5.2,0,0,0,4.125.052,4.756,4.756,0,0,0,2.606-3.849A4.677,4.677,0,0,0,320.749-368.272Zm2.088,2.952a2.188,2.188,0,0,1,.138,3.107,2.075,2.075,0,0,1-3.193-.259,2.089,2.089,0,0,1,2.227-3.193A2.492,2.492,0,0,1,322.838-365.321Z" transform="translate(-266.639 393.113)" fill="#347053"/>
    <path id="Path_565" data-name="Path 565" d="M396.382-368.174A4.665,4.665,0,0,0,393-361.529a4.625,4.625,0,0,0,7.594,1.122A4.651,4.651,0,0,0,396.382-368.174Zm2.261,3.124a2.035,2.035,0,0,1-.38,3.245,2.044,2.044,0,0,1-3.038-1.1A2.077,2.077,0,0,1,398.644-365.05Z" transform="translate(-329.258 393.032)" fill="#347053"/>
  </g>
</svg>
