<svg xmlns="http://www.w3.org/2000/svg" width="59.497" height="87.473" viewBox="0 0 59.497 87.473">
  <g id="heart-_1_" transform="translate(0 0)">
    <path id="Path_561" data-name="Path 561" d="M112.993-511.507a12.492,12.492,0,0,0-6.6,3.61l-1.42,1.386v-1.523c0-1.779-.24-2.481-1.044-3.063-.582-.411-.633-.411-4.6-.411-4.483,0-4.62.034-5.3,1.163-.325.513-.342.907-.342,6.9v6.331l-1.009.034a5.92,5.92,0,0,0-3.7,1.437,22.17,22.17,0,0,0-3.234,4.517,1.307,1.307,0,0,0,.7,1.42c.821.376,1.2.086,2.618-2.036,1.2-1.779,1.454-2.07,2.241-2.464a3.262,3.262,0,0,1,2.994-.12,66.617,66.617,0,0,1,7.631,7.46l.291.53-1.2.582a11.794,11.794,0,0,0-3.918,3.114c-1.677,2.087-7.22,11.942-7.614,13.534a1.383,1.383,0,0,1-.24.548,91.51,91.51,0,0,1-4.038-8.983,16.375,16.375,0,0,1-.154-6.331c.445-1.95.428-2.7-.12-3.114a1.129,1.129,0,0,0-1.625.274c-.787,1.215-1.283,5.253-.941,7.631.325,2.207.736,3.285,3.353,9.085l2.464,5.407-.24,1.352a30.4,30.4,0,0,0,7.34,24.894,32.481,32.481,0,0,0,8.726,6.69c3.456,1.745,14.475,6.844,15.313,7.118a12.9,12.9,0,0,0,5.663-.034,10.733,10.733,0,0,0,6.057-4.876,13.826,13.826,0,0,0,1.471-3.969,1.272,1.272,0,0,0-1.2-1.181c-.65,0-1.061.548-1.779,2.4a14.09,14.09,0,0,1-1.215,2.447,8.335,8.335,0,0,1-3.8,2.686,9.023,9.023,0,0,1-4.517.1c-1.163-.359-14.919-6.861-16.391-7.751a27.348,27.348,0,0,1-12.165-15.245,23.525,23.525,0,0,1-1.283-8.589,23.432,23.432,0,0,1,1.283-8.572,32.122,32.122,0,0,1,3.353-6.981,2.276,2.276,0,0,1,.7.445,6.88,6.88,0,0,0,3.1,1.437l1.061.222v2.173c0,1.814.051,2.224.308,2.532a1.29,1.29,0,0,0,1.745.1c.308-.274.342-.53.342-2.6v-2.276h1.266a8.686,8.686,0,0,0,1.557-.1,1.388,1.388,0,0,0,.616-1.489c-.342-.873-.719-.975-3.679-.975a18.658,18.658,0,0,1-3.388-.205c-.838-.24-2.241-1.454-2.1-1.8.051-.154.633-1.163,1.3-2.293,1.95-3.268,3.884-4.774,6.912-5.407,2.207-.445,3.542-.188,7.289,1.42l3.063,1.317v9.667l-.65.513a5.3,5.3,0,0,0-1.728,3.319c-.325,2.293-.855,2.7-3.7,2.874a7.09,7.09,0,0,0-2.481.411,15.8,15.8,0,0,0-2.19,1.865l-1.574,1.54-1.163-.086c-2.019-.154-2.772-.89-2.772-2.738,0-.753-.068-1.009-.394-1.3a1.183,1.183,0,0,0-1.66-.034c-.274.274-.342.565-.342,1.557a7.916,7.916,0,0,0,.205,1.9,4.939,4.939,0,0,0,3.285,2.943l.479.12L99-457.8a5.566,5.566,0,0,0-1.215,1.608,1.384,1.384,0,0,0,1.232,1.232c.462,0,1.044-.5,4.414-3.85,2.139-2.122,3.918-3.85,3.952-3.867.034,0,.992-.068,2.122-.137a6.83,6.83,0,0,0,2.738-.5,5.662,5.662,0,0,0,2.31-2.43l.342-.77-.034,3.251c-.051,2.806-.1,3.336-.376,3.935a22.63,22.63,0,0,1-2.515,2.909,17.09,17.09,0,0,0-2.293,2.652,1.2,1.2,0,0,0,1.2,1.369c.462,0,.787-.188,1.591-.941l1.009-.941,1.454,1.506a6.629,6.629,0,0,1,1.728,2.344,4.723,4.723,0,0,1,.291,1.1,14.548,14.548,0,0,1-1.968,2.241,13.152,13.152,0,0,0-2.31,2.772,9.942,9.942,0,0,0-.6,3.4,1.732,1.732,0,0,1-.086.821,1.809,1.809,0,0,1-1.471,1.386A1.456,1.456,0,0,0,108.99-437c.291.924,1.711,1.1,3.148.359,1.643-.838,2.276-1.985,2.412-4.38a8.543,8.543,0,0,1,.325-2.139,10.666,10.666,0,0,1,2.1-2.224c.068,0,.137.428.137.941,0,1.745.582,3.045,2.344,5.2.975,1.2,1.249,2.207,1.249,4.551,0,1.779.034,1.933.394,2.276a1.172,1.172,0,0,0,2.019-.6,13.976,13.976,0,0,0-.376-5.407A7.124,7.124,0,0,0,121-441.273c-1.266-1.437-1.386-1.882-1.489-5.749l-.086-3.439-.633-1.283a12.173,12.173,0,0,0-2.122-2.857l-1.471-1.557.548-.633a7.078,7.078,0,0,0,1.557-3.525c.086-.582.154-3.011.154-5.389v-4.312h6.5v1.951L121.907-466c-2.258,2.276-2.43,2.635-1.625,3.422.7.719,1.2.548,2.7-.907l.975-.958v5.287c0,2.926.086,6.005.171,6.878.308,2.926,1.3,4.893,3.679,7.357,1.317,1.369,1.625,1.591,2.1,1.591a1.192,1.192,0,0,0,1.232-1.215c0-.445-.257-.8-1.335-1.933-1.42-1.471-2.087-2.276-2.087-2.515a5.358,5.358,0,0,1,1.8-.154,5.947,5.947,0,0,0,2.293-.257,1.082,1.082,0,0,0,.274-1.882c-.394-.411-.5-.428-2.874-.428h-2.464l-.12-.53c-.051-.291-.1-2-.1-3.781v-3.251l.6.445a6.09,6.09,0,0,0,3.935,1.266c1.557.068,1.745.034,2.19-.308a1.153,1.153,0,0,0,.017-1.865c-.376-.308-.7-.359-1.9-.359-1.762,0-2.156-.171-3.679-1.677l-1.163-1.129v-6.553c0-3.61.051-6.553.137-6.553a19.372,19.372,0,0,1,3.9,3.3,23.12,23.12,0,0,1,6.142,12.25,20.709,20.709,0,0,1,.205,4.688c-.12,3.8-.359,4.739-3.011,11.908-1.146,3.063-2.07,5.646-2.07,5.749a1.6,1.6,0,0,0,.359.667,1.193,1.193,0,0,0,1.762.12c.411-.445,4.294-10.984,4.808-13.02a26.412,26.412,0,0,0-.633-14.714,27.441,27.441,0,0,0-4.209-7.665l-.582-.719h3.319c3.182,0,3.371-.017,3.918-.394,1.1-.719,1.181-1.129,1.181-5.253,0-4.055-.086-4.483-1.078-5.2-.445-.325-.753-.359-4.141-.411l-3.661-.051-.462-.8a13.687,13.687,0,0,0-1.027-1.506l-.565-.719,1.574-.068c1.848-.068,2.6-.411,3.063-1.335.274-.513.308-1.112.308-4.363,0-4.243-.1-4.654-1.2-5.3-.53-.308-.89-.342-3.011-.342-2.139,0-2.464.034-2.789.325a1.36,1.36,0,0,0-.017,1.814c.308.308.565.342,2.481.342h2.139l-.034,3.114-.051,3.131-4.791.086-4.791.086-1.078.582a6.022,6.022,0,0,0-2.738,2.909,4.934,4.934,0,0,0-.445,2.7l.017,1.745-.53-.222c-.291-.12-2.43-1.044-4.739-2.036a53.965,53.965,0,0,0-5.424-2.1l-1.215-.274,1.4-1.728c3.353-4.141,6.091-6.108,10.129-7.272a18.978,18.978,0,0,1,4.5-.719c1.027,0,1.574-.428,1.574-1.266,0-.958-.479-1.215-2.1-1.163a20.21,20.21,0,0,0-8.024,2.019l-1.163.582v-1.4c.017-2.19.428-2.532,3.131-2.532,1.574,0,1.848-.051,2.361-.394,1.1-.719,1.181-1.129,1.181-5.253,0-4.038-.086-4.483-1.078-5.2-.428-.325-.753-.359-2.909-.393A19.006,19.006,0,0,0,112.993-511.507Zm4.979,5.475v3.165h-1.711c-2.532,0-3.679.633-4.551,2.481-.359.77-.411,1.1-.411,3.217v2.344l-1.215,1.163a45.1,45.1,0,0,0-3.131,3.456l-1.9,2.31L105-493.765c-.034-4.654.017-6.108.222-7.083a10.562,10.562,0,0,1,5.561-7.237,9.507,9.507,0,0,1,5.1-1.1l2.087-.017Zm-15.57,6.45v9.444l-3.148-3.08-3.131-3.063-.034-6.382-.017-6.365H102.4Zm25.955,13.055c2.515,2.31,3.08,4.277,2.276,7.973-.205.975-.411,1.8-.428,1.831a13.32,13.32,0,0,1-1.66-1.044,27.434,27.434,0,0,0-5.133-2.857c-1.506-.65-1.506-.65-1.506-3.028a4.1,4.1,0,0,1,.992-3.2,3.281,3.281,0,0,1,2.772-.958h1.283ZM139.188-479v3.165h-6.553l.1-.565c.051-.291.257-1.283.445-2.173a16.481,16.481,0,0,0,.359-2.618v-.975h5.646Zm-18.341-.017,3.114,1.352v5.082h-6.5v-3.952a28.263,28.263,0,0,1,.137-3.884C117.681-480.4,119.136-479.752,120.847-479.016Z" transform="translate(-82.257 511.715)" fill="#347053"/>
  </g>
</svg>
