<svg xmlns="http://www.w3.org/2000/svg" width="99.676" height="99.714" viewBox="0 0 99.676 99.714">
  <g id="examination" transform="translate(-15.982 496.1)">
    <path id="Path_461" data-name="Path 461" d="M290.792-495.581c-.5.5-.519.644-.519,2.845,0,3.032.228,3.758,1.64,5.171l1.121,1.121-1.37,4.174a46.01,46.01,0,0,0-1.391,4.631,1.622,1.622,0,0,0,.519.976c.415.436.706.519,1.661.519H293.6v2.8c0,2.72.021,2.845.519,3.322.457.478.664.519,2.492.519h1.973v1.287a2.961,2.961,0,0,1-.934,2.492,21.647,21.647,0,0,0-3.343,6.5c-.54,1.765-.561,2.16-.664,6.915-.083,4.942-.083,5.025-.54,5.129-.228.042-2.949.291-6.043.54l-5.607.436-3.675,1.848a22.389,22.389,0,0,0-3.9,2.243,18.448,18.448,0,0,0-.208,3.447c0,2.949.021,3.052.519,3.53.457.478.644.519,2.658.519a10.771,10.771,0,0,0,4.61-.831l2.471-.831h11.026c11.089,0,11.566-.021,13.248-.727.291-.125.353-.021.353.623a6.7,6.7,0,0,1-.249,1.64,6.167,6.167,0,0,1-3.2,3.2c-.623.187-3.758.249-11.483.249H282.985l-.5.519a1.583,1.583,0,0,0-.519.872c0,.208,1.038,5.524,2.284,11.795,1.267,6.271,2.284,11.483,2.284,11.566a8.641,8.641,0,0,1-2.45.166h-2.45L278.873-418.9c-1.516-6.873-2.8-12.708-2.866-12.978-.1-.457-.187-.478-1.7-.415l-1.578.062.062.831c.062.6,4.465,20.89,5.337,24.544.1.436.042.478-.851.478a4.632,4.632,0,0,0-3.717,1.557A4.543,4.543,0,0,0,272-401.39a5.5,5.5,0,0,0,3.447,4.734,51.205,51.205,0,0,0,7.351.249h6.479l.561-.6c.54-.581.561-.581,1.059-.228a4.714,4.714,0,0,0,5.648-.228l.768-.6h12.5l.768.6a4.539,4.539,0,0,0,6.375-.5,4.543,4.543,0,0,0,1.557-3.426,5.3,5.3,0,0,0-3.53-4.714c-.519-.145-2.18-.54-3.675-.914l-2.762-.644V-418.21h-3.322v10.175H301.9v-13.29h6.188c7.247,0,7.6-.062,9.033-1.661a5.674,5.674,0,0,0,1.142-1.827,24.731,24.731,0,0,0,.249-4.381v-3.551h-3.322v3.53c0,3.489,0,3.551-.519,4.049l-.5.519H287.968l-.5-.519a1.526,1.526,0,0,1,0-2.284l.5-.519h22.883l.5-.519.519-.5v-29.528l.519-.5a1.526,1.526,0,0,1,2.284,0l.519.5v22.239h3.322v-11.13c0-8.14-.062-11.379-.249-12a5.229,5.229,0,0,0-1.308-1.91,4.489,4.489,0,0,0-4.049-1.474l-1.017.125-.062-13.539-.062-13.539-.664-1.391a7.981,7.981,0,0,0-3.966-4.07l-1.578-.768-7.122-.062-7.122-.062Zm14.307,3.073a5.229,5.229,0,0,1,1.91,1.308,4.579,4.579,0,0,1,1.5,3.945l-.062,1.018-1.1-1.474a7.591,7.591,0,0,0-1.412-1.6c-.187-.062-2.8-.125-5.814-.125h-5.5l-.5-.519c-.436-.415-.519-.706-.519-1.661v-1.142h5.316A38.907,38.907,0,0,1,305.1-492.508Zm1.37,9.157,2.077,2.783v12.729H301.9v-1.973c0-1.827-.042-2.035-.519-2.492-.457-.478-.664-.519-2.492-.519h-1.973v-2.8c0-2.72-.021-2.845-.519-3.322a1.625,1.625,0,0,0-1.329-.519h-.831l1.038-3.073c.561-1.682,1.059-3.177,1.121-3.322.062-.187,1.08-.249,4.049-.249h3.945Zm1.329,19.644c.644.644.644.664.706,3.239l.083,2.6h-5.067l.083-2.575c.062-2.43.1-2.616.581-3.136a2.167,2.167,0,0,1,2.16-.851A2.329,2.329,0,0,1,307.8-463.706Zm-7.517,7.953-.062,8.057h-.685a13.815,13.815,0,0,0-1.682.145l-.976.125.1-4.755c.1-5.129.291-6.209,1.5-8.638a19.259,19.259,0,0,1,1.869-3.011C300.344-463.81,300.324-460.176,300.282-455.753Zm8.223,7.621c-.062,6.126-.083,6.458-.5,7a5.661,5.661,0,0,1-1,1c-.561.415-.851.436-12.438.54l-11.878.1-2.16.789a14.975,14.975,0,0,1-2.866.768h-.685v-2.284l2.72-1.35,2.72-1.371,9.78-.81c5.4-.457,9.926-.831,10.071-.831a1.632,1.632,0,0,0,.768-.519c.519-.5.519-.5.519-4.984v-4.464h5Zm-15.262,26.808h5.337v13.663l-2.741.644c-4.07.976-4.361,1.059-5,1.516-.436.311-.581.332-.664.125-.042-.145-.748-3.634-1.557-7.745s-1.537-7.7-1.6-7.974c-.1-.436-.062-.478.374-.374C287.657-421.387,290.294-421.325,293.243-421.325ZM310-403.882c1.827.457,3.509.831,3.738.831a1.82,1.82,0,0,1,1.454,1.661,1.754,1.754,0,0,1-1.661,1.661c-.478,0-.851-.208-1.454-.831l-.81-.831H295.859l-.81.831c-.6.623-.976.831-1.454.831a1.754,1.754,0,0,1-1.661-1.661,1.8,1.8,0,0,1,1.5-1.661c.27,0,1.89-.374,3.592-.81a18.319,18.319,0,0,1,6.4-.831A17.99,17.99,0,0,1,310-403.882Zm-23.049,2.492v1.661H276.34l-.5-.519a1.619,1.619,0,0,1-.519-1.142,1.619,1.619,0,0,1,.519-1.142l.5-.519h10.611Z" transform="translate(-202.855)" fill="#347053"/>
    <path id="Path_462" data-name="Path 462" d="M32.7-487.616a5.937,5.937,0,0,0-3.073,1.993,6.573,6.573,0,0,0,1.5,10.009,4.71,4.71,0,0,0,1.184.581,7.178,7.178,0,0,0,1.121-2.845c0-.145-.27-.395-.6-.581a3.359,3.359,0,0,1-1.08-4.548,3.366,3.366,0,0,1,4.485-1.08l.519.332-.519.831c-2.367,3.758-2.16,8.14.748,14.619L38-466.041l-5.98,12.667-5.96,12.646-.1-5.98c-.125-6.79-.145-6.915-1.786-8.368a4.569,4.569,0,0,0-6.624.291c-1.287,1.267-1.557,2.1-1.557,4.755v1.993h3.322v-1.973c0-1.827.042-2.035.519-2.492a1.526,1.526,0,0,1,2.284,0l.519.5v33.868H21.489c-.955,0-1.246-.083-1.661-.519l-.519-.5v-25.562H15.986v12.791c0,9.448.062,13.02.249,13.663a6.167,6.167,0,0,0,3.2,3.2,8.524,8.524,0,0,0,2.035.249h1.163v1.973c0,1.827.042,2.035.519,2.492.415.436.706.519,1.661.519h1.142v8.68l-2.762.644c-1.5.374-3.156.768-3.675.914a5.8,5.8,0,0,0-3.281,3.177,4.548,4.548,0,0,0,1.308,4.963,4.539,4.539,0,0,0,6.375.5l.768-.6h12.5l.768.6a4.539,4.539,0,0,0,6.375-.5,4.548,4.548,0,0,0,1.308-4.963,5.8,5.8,0,0,0-3.281-3.177c-.519-.145-2.18-.54-3.675-.914l-2.762-.644v-8.68h2.8c2.72,0,2.845-.021,3.322-.519.478-.457.519-.665.519-2.492v-1.973h2.866a30.554,30.554,0,0,0,3.322-.125l.457-.125v24.15l.519.5.5.519h5.856c6.624,0,7.122-.083,8.389-1.35a4.191,4.191,0,0,0,.914-4.88c-.748-1.661-1.516-2.18-4.215-2.886a9.474,9.474,0,0,1-1.724-.519,46.191,46.191,0,0,1,.436-4.818c.291-2.616.478-4.776.436-4.818a18.475,18.475,0,0,0-3.156-.395c-.042.062-1.1,9.054-1.1,9.49,0,.125-.789.208-1.765.208H52.533v-23.9l-.519-.5c-.415-.436-.706-.519-1.661-.519H49.21v-6.686l2.554.083c2.243.062,2.658.145,3.592.623a6.315,6.315,0,0,1,3.405,5.4c0,.519-.291,3.509-.644,6.6-.332,3.115-.6,5.669-.561,5.71a11.954,11.954,0,0,0,1.578.249c1.08.145,1.557.125,1.62-.021.166-.478,1.329-11.421,1.329-12.542a9.558,9.558,0,0,0-7.164-9.074c-.955-.249-2.471-.311-6.79-.311H42.565v-4.465l1.246-1.869,1.246-1.869,1.287-.228,1.308-.228,2.762,2.513c4.257,3.883,5.316,4.278,11.151,4.34,3.177.042,3.675,0,5.087-.436a15,15,0,0,0,10.3-10.362c.934-2.824.54-2.7,5.274-1.516,1.827.457,3.509.831,3.738.831a1.588,1.588,0,0,0,.934-.519l.519-.5V-460.31l-.519-.5a1.588,1.588,0,0,0-.934-.519c-.228,0-1.91.374-3.738.831a19.2,19.2,0,0,1-6.832.831H71.844l-6.271,5.5-6.292,5.482-3.489-3.468c-2.6-2.554-3.655-3.779-4.111-4.651a12.076,12.076,0,0,1-.6-1.308,4.5,4.5,0,0,1,1.017-.6,10.982,10.982,0,0,0,1.62-1.038,8.237,8.237,0,0,0,2.035-3.862,2.514,2.514,0,0,1,.748-1.474l.6-.561v-5.71l1.038-1.1a3.843,3.843,0,0,0,1.038-1.537,12.263,12.263,0,0,0-1.017-2.45,7.47,7.47,0,0,1-1.1-3.53,8.618,8.618,0,0,0-4.34-6.749c-1.661-.976-3.26-1.246-6.52-1.121-3.115.125-4.527.415-6.022,1.267l-.955.519-.851-.6A6.666,6.666,0,0,0,32.7-487.616Zm15.262,3.136a21.508,21.508,0,0,1-1.391,1.973l-1.412,1.869h-1.08a3.6,3.6,0,0,0-2.824,1,4.078,4.078,0,0,0-.062,6.043l.519.5-.851,1.661-.872,1.682-.478-1.08a19.373,19.373,0,0,1-1.537-6.063c.021-3.966,2.346-6.832,6.063-7.455A14.568,14.568,0,0,1,47.964-484.48Zm5.565,3.572a7.606,7.606,0,0,1,.249,1.91,5.719,5.719,0,0,0,.872,2.8l.872,1.765-.872.934-.872.955v4.568H51.411c-2.99,0-3.115.083-4.174,2.907-.581,1.474-.872,2.014-1.017,1.869s-.249-2.43-.291-6.645l-.062-6.437h-1.35c-1.287,0-1.35-.021-1.287-.457.083-.581.623-.706,1.64-.374,1.35.457,1.6.249,4.236-3.26l2.45-3.26.872.955A6.057,6.057,0,0,1,53.529-480.909Zm-10.9,15.989.062,1.931H41.465c-.664,0-1.184-.083-1.142-.187a24.189,24.189,0,0,1,2.18-3.9C42.524-466.934,42.586-465.958,42.628-464.919Zm9.9.6a3.817,3.817,0,0,1-1.329,2.263c-.6.457-1.786.893-1.786.664,0-.125,1.038-2.886,1.163-3.094a2.192,2.192,0,0,1,1.038-.166C52.325-464.649,52.533-464.566,52.533-464.317Zm-9.074,4.942a18.556,18.556,0,0,1,2.8,2.45l2.139,2.18-2.077,1.91-2.1,1.931-2.2-2.014c-2.471-2.3-2.886-2.907-2.72-4.112A2.951,2.951,0,0,1,43.458-459.375ZM84.1-454.7v2.886l-1.661-.415-1.661-.415v-4.07l1.62-.415c.872-.228,1.62-.415,1.661-.436C84.075-457.589,84.1-456.3,84.1-454.7Zm-6.645.021v1.661H75.457c-1.89,0-2.014.021-2.533.561-.311.332-2.7,3.073-5.316,6.126-5.461,6.4-5.316,6.292-8.534,6.292a6,6,0,0,1-2.8-.436,46.417,46.417,0,0,1-5.233-4.34L46.718-448.7l1.184-1.059c.664-.6,1.578-1.433,2.035-1.848l.831-.768,3.862,3.842c3.343,3.322,3.925,3.821,4.506,3.821.727,0,.6.1,8.555-6.915l5.3-4.693h2.243l2.222-.021Zm-40.617,1.121a30.948,30.948,0,0,0,3.966,3.987l3.426,3.073-.581.228c-.374.166-1.184,1.184-2.492,3.136l-1.91,2.907v27.078H25.953v-19.561l5.108-10.881c2.824-5.98,5.15-10.881,5.191-10.881A8.319,8.319,0,0,1,36.834-453.561Zm36.152,7.309a10.533,10.533,0,0,1-2.139,2.969c-1.2,1.2-3.26,2.7-3.468,2.471-.021-.021,1.35-1.7,3.094-3.738a30.417,30.417,0,0,1,3.2-3.468A7.135,7.135,0,0,1,72.986-446.251ZM45.888-428.1v3.322H42.565v-6.645h3.322Zm2.8,7.164a1.619,1.619,0,0,1,.519,1.142,1.619,1.619,0,0,1-.519,1.142c-.478.5-.6.519-3.322.519h-2.8v-3.322h2.8C48.089-421.458,48.213-421.437,48.691-420.939ZM32.6-405.676v4.153H29.276v-8.306H32.6Zm5.316,8.41c4.236,1,4.651,1.225,4.651,2.43a1.765,1.765,0,0,1-1.661,1.62c-.478,0-.851-.208-1.454-.831l-.81-.831H23.233l-.81.831c-.6.623-.976.831-1.454.831a1.765,1.765,0,0,1-1.661-1.62c0-1.163.478-1.454,3.738-2.2,1.661-.395,3.343-.81,3.738-.914a24.036,24.036,0,0,1,3.966-.228A20.766,20.766,0,0,1,37.914-397.267ZM59.551-396a12.427,12.427,0,0,1,2.6.872,1.031,1.031,0,0,1,0,1.537c-.311.332-.748.374-4.984.374H52.533v-3.322h2.388A17.046,17.046,0,0,1,59.551-396Z" transform="translate(0 -6.512)" fill="#347053"/>
    <path id="Path_463" data-name="Path 463" d="M80-214.339v1.661h6.645V-216H80Z" transform="translate(-50.724 -221.937)" fill="#347053"/>
  </g>
</svg>
