<svg id="health" xmlns="http://www.w3.org/2000/svg" width="73.579" height="87.19" viewBox="0 0 73.579 87.19">
  <path id="Path_551" data-name="Path 551" d="M42.13-511.591a2.872,2.872,0,0,0-1.772,1.806c-.341.767-.358.954-.358,35.368V-439.8l.477.9a3.241,3.241,0,0,0,1.312,1.431c.818.511.869.511,3.51.562l2.675.051.068,2.59c.051,2.385.085,2.675.494,3.441a3.137,3.137,0,0,0,1.261,1.363l.818.511,19.524.051,19.507.034.613.579a14.764,14.764,0,0,0,3.97,2.453,14.211,14.211,0,0,0,15.521-3.373,14,14,0,0,0,1.857-16.781,16.53,16.53,0,0,0-4.855-4.924l-1.141-.647-.051-8.058-.051-8.058-.409-.443a1.662,1.662,0,0,0-2.607.136c-.273.324-.307,1.005-.307,7.786v7.411l-2.334-.051-2.351-.051V-500.5h4.6l.085,9.507.085,9.524.477.409a1.938,1.938,0,0,0,2.027.221c.8-.426.818-.733.818-10.461,0-6.44-.051-9.37-.2-9.932a3.982,3.982,0,0,0-2.556-2.556,17.953,17.953,0,0,0-3.1-.2H97.414V-506.6c0-2.13-.068-2.709-.324-3.271a3.8,3.8,0,0,0-2.181-1.942C94.467-511.949,86-512,68.622-512H42.981Zm51.877,31.416v28.4l-.886.426a16.26,16.26,0,0,0-4.157,3.186,14.183,14.183,0,0,0-3.237,6.491l-.29,1.4-20.972-.034-20.972-.051-.051-33.9c-.017-18.655,0-34.005.051-34.125.051-.153,5.281-.2,25.3-.2H94.007Zm8.74,31.194a10.8,10.8,0,0,1,4.31,2.675,10.567,10.567,0,0,1,1.653,12.829,11.334,11.334,0,0,1-6.1,4.838,11.822,11.822,0,0,1-6.44-.1,10.848,10.848,0,0,1-7.019-7.53,13.686,13.686,0,0,1,.017-5.264,11.239,11.239,0,0,1,7.82-7.684A13.363,13.363,0,0,1,102.746-448.981Zm-16.9,13.493a15.852,15.852,0,0,0,.733,2.249l.426.971L69.252-432.3,51.5-432.353l-.051-2.266-.051-2.249,17.071.034,17.071.051Z" transform="translate(-40 512)" fill="#347053"/>
  <path id="Path_552" data-name="Path 552" d="M110.771-469.584a9.88,9.88,0,0,0-7.087,7.172,12.481,12.481,0,0,0-.136,2.539l.051,1.584-.92.068c-.75.068-1.005.17-1.329.545a1.774,1.774,0,0,0,.017,2.266c.392.443.511.477,2.027.528l1.618.068,6.951,6.968,6.968,6.968h1.533l6.985-6.985,6.985-6.985h1.056c.937,0,1.141-.068,1.618-.494a1.288,1.288,0,0,0,.562-1.21,1.288,1.288,0,0,0-.562-1.21,1.921,1.921,0,0,0-.9-.494c-.358,0-.358-.051-.256-1.159a10.42,10.42,0,0,0-.954-5.094,11.054,11.054,0,0,0-3.39-3.816,9.645,9.645,0,0,0-11.057.545l-.852.681-.818-.664a7.948,7.948,0,0,0-2.913-1.6A11.62,11.62,0,0,0,110.771-469.584Zm4.7,3.7a10.944,10.944,0,0,1,2.266,1.653c1.159,1.073,1.38,1.21,1.976,1.21s.818-.136,1.976-1.227c1.806-1.67,2.76-2.078,4.736-2.1a4.429,4.429,0,0,1,2.675.562,6.083,6.083,0,0,1,3.373,6.576l-.187.954H127.57l-1.482-1.67c-1.67-1.857-2.1-2.164-2.9-2.01-.664.136-.869.358-2.556,2.794a6.461,6.461,0,0,1-1.448,1.789c-.051-.068-.63-.9-1.278-1.84-1.431-2.1-1.874-2.59-2.47-2.726-.784-.17-1.295.187-2.845,1.942l-1.5,1.7-1.993.017h-1.993l-.119-.784a13.85,13.85,0,0,1-.034-1.925,6.086,6.086,0,0,1,4.515-5.3A7.3,7.3,0,0,1,115.473-465.887Zm.988,10.631c1.584,2.351,2.01,2.794,2.743,2.794.818,0,1.244-.324,2.1-1.584.46-.681,1.176-1.721,1.6-2.317l.767-1.09,1.158,1.261,1.141,1.261,1.806.085,1.806.085-4.941,4.941-4.941,4.941-4.941-4.941-4.941-4.941,1.38-.085,1.4-.085,1.124-1.227a11.92,11.92,0,0,1,1.21-1.244A22.532,22.532,0,0,1,116.462-455.256Z" transform="translate(-90.566 476.995)" fill="#347053"/>
  <path id="Path_553" data-name="Path 553" d="M83.377-282.72a2.152,2.152,0,0,0-.852.511c-.307.341-.324.7-.375,5.06a28.138,28.138,0,0,0,.153,5.179c.409.971.477.988,5.741.988a38.5,38.5,0,0,0,5.162-.17c.767-.426.835-.886.835-5.844,0-4.447-.017-4.7-.341-5.111a2.3,2.3,0,0,0-.988-.63A68.284,68.284,0,0,0,83.377-282.72Zm7.258,5.775v2.556H85.524v-2.436a14.589,14.589,0,0,1,.119-2.556A14.594,14.594,0,0,1,88.2-279.5h2.436Z" transform="translate(-74.961 321.921)" fill="#347053"/>
  <path id="Path_554" data-name="Path 554" d="M176.24-277.744a1.8,1.8,0,0,0-1.005,1.874,2.342,2.342,0,0,0,.528.869l.409.409h22.914l.477-.46a1.9,1.9,0,0,0,.29-2.13c-.426-.8-.613-.818-12.2-.818C178.694-277.983,176.683-277.949,176.24-277.744Z" transform="translate(-152.167 317.866)" fill="#347053"/>
  <path id="Path_555" data-name="Path 555" d="M176.24-237.744a1.8,1.8,0,0,0-1.005,1.874,2.342,2.342,0,0,0,.528.869l.409.409h22.914l.477-.46a1.9,1.9,0,0,0,.29-2.13c-.426-.8-.613-.818-12.2-.818C178.694-237.983,176.683-237.949,176.24-237.744Z" transform="translate(-152.167 284.681)" fill="#347053"/>
  <path id="Path_556" data-name="Path 556" d="M82.579-182.421l-.579.579v9.609l.579.579.579.579h9.609l.579-.579.579-.579v-9.609l-.579-.579L92.767-183H83.159Zm7.939,5.384v2.556H85.407v-5.111h5.111Z" transform="translate(-74.845 239.051)" fill="#347053"/>
  <path id="Path_557" data-name="Path 557" d="M176.062-177.506a1.288,1.288,0,0,0-.562,1.21,1.288,1.288,0,0,0,.562,1.21l.562.494,11.415-.034,11.432-.051.409-.477a1.676,1.676,0,0,0,.409-1.141,1.676,1.676,0,0,0-.409-1.141l-.409-.477-11.432-.051L176.624-178Z" transform="translate(-152.415 234.903)" fill="#347053"/>
  <path id="Path_558" data-name="Path 558" d="M176.062-137.506a1.288,1.288,0,0,0-.562,1.21,1.288,1.288,0,0,0,.562,1.21l.545.494h16.015l.545-.494a1.288,1.288,0,0,0,.562-1.21,1.288,1.288,0,0,0-.562-1.21l-.545-.494H176.607Z" transform="translate(-152.415 201.718)" fill="#347053"/>
  <path id="Path_559" data-name="Path 559" d="M365.553-109.963a30.466,30.466,0,0,0-2.283,2.556,23.81,23.81,0,0,1-2.215,2.453,2.623,2.623,0,0,1-.7-.494,8.84,8.84,0,0,0-.937-.681,1.667,1.667,0,0,0-2.215,2.3,14.129,14.129,0,0,0,1.738,1.67c1.653,1.4,2.3,1.653,3.067,1.261a61.112,61.112,0,0,0,5.895-6.934A1.793,1.793,0,0,0,365.553-109.963Z" transform="translate(-302.977 178.553)" fill="#347053"/>
  <path id="Path_560" data-name="Path 560" d="M405.954-302.682a1.5,1.5,0,0,0-.954,1.5,1.664,1.664,0,0,0,3.254.477,1.635,1.635,0,0,0-.869-1.976A1.176,1.176,0,0,0,405.954-302.682Z" transform="translate(-342.815 338.545)" fill="#347053"/>
</svg>
