<svg xmlns="http://www.w3.org/2000/svg" width="96.457" height="86.725" viewBox="0 0 96.457 86.725">
  <g id="baby" transform="translate(-0.187 485.789)">
    <path id="Path_441" data-name="Path 441" d="M20.806-485.452A22.491,22.491,0,0,0,9.7-479.435C-3-467.212-2.979-444.521,9.734-425.942a65.094,65.094,0,0,0,15.844,15.919,89.665,89.665,0,0,0,15.787,8.563,42.8,42.8,0,0,0,7.073,2.4c1.245,0,8.488-2.829,13.071-5.112,19.183-9.563,31.914-25.879,34.763-44.59a49.407,49.407,0,0,0-.094-12.826q-1.952-11.062-9-17.843a23.4,23.4,0,0,0-10.016-5.791c-1.716-.453-2.131-.49-5.715-.49a22.352,22.352,0,0,0-5.9.415,33.669,33.669,0,0,0-15.655,7.79l-1.471,1.358-1.075-1.037a33.354,33.354,0,0,0-15.919-8.092A34.194,34.194,0,0,0,20.806-485.452Zm10.129,3.376a32.3,32.3,0,0,1,12.694,5.923,12.866,12.866,0,0,1,2.546,2.452,20.722,20.722,0,0,1-1.584,2.075c-2.716,3.32-2.924,3.772-2.188,4.715a1.517,1.517,0,0,0,1.981.434,38.255,38.255,0,0,0,3.074-3.565c1.434-1.773,3.188-3.772,3.886-4.433a30.513,30.513,0,0,1,14.712-7.62,29.461,29.461,0,0,1,10.3,0c9.223,2.49,15.938,11.958,17.013,23.974a48.523,48.523,0,0,1-2.961,19.183A60.289,60.289,0,0,1,85.333-428.9c-1.471,2.226-3.848,5.281-3.64,4.7.566-1.584.773-6.243.434-10.525a14.251,14.251,0,0,1-.038-2.678,7.421,7.421,0,0,1,1.434-1.83,24.574,24.574,0,0,0,6.809-13.185,29.047,29.047,0,0,0-.3-7.752c-1.7-8.035-6.6-13.675-13.486-15.467a20.118,20.118,0,0,0-8.148-.226,18.486,18.486,0,0,0-12.9,10.129,15.429,15.429,0,0,0-1.679,8.111,15.206,15.206,0,0,0,.773,5.979c.094.283-.038.34-.83.34a11.316,11.316,0,0,0-6.583,2.546c-.811.792-.849.792-1.622.622a11.173,11.173,0,0,0-2.4-.094c-1.358.057-3.018.472-10.94,2.754-8.865,2.565-9.337,2.678-9.582,2.339-2.037-2.9-2.924-3.659-4.81-4.055a7.988,7.988,0,0,0-4.565.622c-3.093,1.547-4.244,5.677-2.81,10.167a10.442,10.442,0,0,0,7.394,7,19.149,19.149,0,0,0,6.922-.453A60.408,60.408,0,0,1,31.1-431.13c.3,0,.226.189-.566,1.264-3.6,4.98-4.791,8.243-4.81,13.2a13.248,13.248,0,0,1-.151,2.641,65.655,65.655,0,0,1-6.564-5.791A53.088,53.088,0,0,1,4.7-444.748c-3.037-12.336-.6-24.238,6.47-31.613a19.809,19.809,0,0,1,10.487-6A33.174,33.174,0,0,1,30.935-482.076Zm44.948,9.544a15.146,15.146,0,0,1,10.11,9.978,18.026,18.026,0,0,1,1.169,7.281,11.8,11.8,0,0,1-.509,4.6,20.691,20.691,0,0,1-5.338,9.016,20,20,0,0,0-1.754,2,1.061,1.061,0,0,1-.17.4c-.132.207-.264.189-.736-.151-1.415-1-2.584-1.32-9.846-2.66-4-.736-7.375-1.358-7.526-1.377-.207-.019-.358.358-.547,1.434a5.543,5.543,0,0,0-.151,1.6c.075.057,3.414.717,7.45,1.471a64.086,64.086,0,0,1,8.073,1.754,5.928,5.928,0,0,1,2.546,3.018c.358.924.415,1.434.415,3.98a21.114,21.114,0,0,1-.226,3.923,38.9,38.9,0,0,1-2.7,6.941l-1.132,2.3-2.113,1.7a75.942,75.942,0,0,1-22.238,12.279l-2.207.755-1.566-.547a79.037,79.037,0,0,1-15.278-7.111c-2.282-1.377-2.207-1.264-2.622-4.112a19.31,19.31,0,0,1,1.434-9.563,63.917,63.917,0,0,1,7.809-10.77c1.622-1.905,1.905-2.32,1.905-2.886a1.571,1.571,0,0,0-1.528-1.584c-.641,0-1.283.566-3.282,2.867l-.943,1.094-2.641.4a78.512,78.512,0,0,0-8.488,1.7c-2.263.547-2.546.585-3.754.4a7.288,7.288,0,0,1-6.338-6.338,6.565,6.565,0,0,1,.528-4.074,3.568,3.568,0,0,1,2.452-1.264c1.377-.151,2.188.358,3.414,2.226,1.169,1.773,1.905,2.433,2.716,2.433.321,0,5.017-1.264,10.449-2.829,8.054-2.32,10.072-2.829,11.034-2.829a4.29,4.29,0,0,1,1.377.151,2.431,2.431,0,0,1,.245,1.151c.113,2.584,1.6,5.489,4.319,8.337l1,1.037-.207,1.7a13.714,13.714,0,0,1-.585,2.622c-.905,2.32-3.98,5.979-6.7,7.96-1.811,1.339-2.037,2.6-.566,3.32a1.105,1.105,0,0,0,1.339.038,28.039,28.039,0,0,0,5.376-4.659c2.32-2.716,3.829-5.432,4.093-7.375.075-.49.189-.887.264-.887a4.478,4.478,0,0,1,.962.641c3.225,2.452,9.544,6.13,10.827,6.281a1.489,1.489,0,0,0,1.716-1.169c.226-.905-.283-1.452-2.471-2.6a58.447,58.447,0,0,1-11.317-7.7c-3.452-3.225-5.376-6.771-4.81-8.865.792-2.924,6.262-3.923,12.637-2.32,2.169.547,2.452.566,3.093.057a1.187,1.187,0,0,0,.49-1.132c0-1.264-.811-1.716-4.338-2.358-2.414-.453-2.358-.415-2.942-2.188-.49-1.434-.528-1.811-.528-4.489-.019-3.357.207-4.414,1.415-6.922a15.113,15.113,0,0,1,9.45-7.96c.754-.208,1.584-.415,1.848-.472A27.348,27.348,0,0,1,75.883-472.531Z" transform="translate(0 0)" fill="#347053"/>
    <path id="Path_442" data-name="Path 442" d="M400.565-338.324c-.849.849-.736,1.49.49,2.716.811.811.868,1.547.189,2.3-.509.547-.509.528-2.584.17a1.029,1.029,0,0,0-1.169.377,1.733,1.733,0,0,0-.283,2.037,3.714,3.714,0,0,0,2.924,1.094,4.754,4.754,0,0,0,3.414-8.073C402.319-338.984,401.414-339.173,400.565-338.324Z" transform="translate(-321.966 -119.231)" fill="#347053"/>
  </g>
</svg>
