<svg xmlns="http://www.w3.org/2000/svg" width="93" height="93.021" viewBox="0 0 93 93.021">
  <g id="old-man" transform="translate(0 512)">
    <path id="Path_474" data-name="Path 474" d="M18.2-511.637a11.079,11.079,0,0,0-8.121,12.954,11.391,11.391,0,0,0,1.889,4.288c.345.454.545.836.436.872a32.027,32.027,0,0,0-4.36,2.725A21.021,21.021,0,0,0,.2-477.226c-.127.908-.2,6.359-.2,15.116,0,13.39,0,13.735.363,14.426.527,1.017,1.453,1.453,3.089,1.453.763,0,1.272.073,1.272.182s-1.017,4.015-2.271,8.684-2.344,9.03-2.4,9.684a8.234,8.234,0,0,0,4.506,7.812,7.872,7.872,0,0,0,9.338-1.562c1.381-1.363,1.871-2.416,2.743-5.687.363-1.417.69-2.562.709-2.544.036.036.382,1.272.8,2.743.89,3.216,1.381,4.251,2.634,5.505a8.008,8.008,0,0,0,11.482,0,7.819,7.819,0,0,0,2.38-6.268c-.055-.727-1.2-5.305-2.834-11.41L29.069-449.3l.036-8.067.055-8.067,7.267,1.98c4,1.072,7.394,1.962,7.576,1.962.291,0,.309.509.363,6.686l.055,6.7.527.672c.709.945,1.435,1.2,3.27,1.2h1.544l.055,12.681.054,12.7.527.672c.927,1.217.945,1.217,8.83,1.163,6.849-.054,7.067-.073,7.576-.436a3.864,3.864,0,0,0,.818-.908c.236-.4.8-4.215,2.144-14.244l1.817-13.717,1.671-7.54c.908-4.142,1.69-7.576,1.726-7.631a17.02,17.02,0,0,1,1.889,1.744l1.835,1.835-.636.981a8.256,8.256,0,0,0-1.363,4.815c-.073,1.78-.036,2.089.309,2.762a2.855,2.855,0,0,0,2.38,1.49,2.868,2.868,0,0,0,2.362-1.453,4.442,4.442,0,0,0,.363-2.18,4.442,4.442,0,0,1,.345-2.144,3.077,3.077,0,0,1,2.362-1.49,2.873,2.873,0,0,1,2.38,1.453c.363.69.363,1.036.363,17.623s0,16.933.363,17.623a2.868,2.868,0,0,0,2.362,1.453,2.868,2.868,0,0,0,2.362-1.453c.363-.727.363-.927.327-18.223-.055-19.513.036-18.1-1.344-20.239l-.618-.963.618-.963a8.259,8.259,0,0,0,.527-8.1c-.418-.872-1.944-2.489-10.992-11.555-5.777-5.8-10.5-10.592-10.5-10.647a4.131,4.131,0,0,1,.908-.69,11.92,11.92,0,0,0,4.524-6.7,15.169,15.169,0,0,0,0-4.8,14.136,14.136,0,0,0-.927-2.489,11.15,11.15,0,0,0-9.865-6.2,11.321,11.321,0,0,0-10.756,8.412,12.908,12.908,0,0,0,.018,5.341,12.491,12.491,0,0,0,1.8,3.852c.309.454.472.836.382.872a25.854,25.854,0,0,0-4.851,3.143,20.781,20.781,0,0,0-6.686,10.356,9.906,9.906,0,0,1-.527,1.69c-.109.127-13.971-3.525-14.535-3.852a42.673,42.673,0,0,1-2.653-4.306l-2.4-4.161,1.2-.636a11.136,11.136,0,0,0,4.4-4.578,10.764,10.764,0,0,0,.908-7.667A11.072,11.072,0,0,0,18.2-511.637Zm4.978,5.614a5.378,5.378,0,0,1,3.234,5.105,5.1,5.1,0,0,1-1.581,3.961,5.166,5.166,0,0,1-3.942,1.581,5.166,5.166,0,0,1-3.942-1.581,5.074,5.074,0,0,1-1.581-4.052,4.329,4.329,0,0,1,.418-2.271,6.183,6.183,0,0,1,3.743-3.107A7.091,7.091,0,0,1,23.183-506.023ZM67.695-506a6.366,6.366,0,0,1,2.653,2.58,4.448,4.448,0,0,1,.418,2.507,4.569,4.569,0,0,1-1.526,3.979,5.592,5.592,0,0,1-9.52-4,4.276,4.276,0,0,1,.618-2.489,5.684,5.684,0,0,1,3.252-2.852A6.381,6.381,0,0,1,67.695-506Zm7.921,27.561c6.25,6.286,11.5,11.664,11.664,11.991a2.678,2.678,0,0,1-1.163,3.506,2.521,2.521,0,0,1-2.507.018c-.363-.2-5.087-4.778-10.483-10.192s-10.029-9.956-10.3-10.1a2.749,2.749,0,0,0-3.779,1.835c-.327,1.417-.182,1.6,5.741,7.54,3.579,3.6,5.523,5.668,5.523,5.9-.018.2-.8,3.924-1.78,8.267l-1.762,7.9-8.5.055-8.485.036v-11.1l1-.981a8.18,8.18,0,0,0,.073-11.573l-.908-.908.218-1.108a16.01,16.01,0,0,1,6.068-9.5,18.078,18.078,0,0,1,5.886-2.616c.854-.182,1.69-.345,1.835-.345C64.1-489.835,69.348-484.711,75.616-478.443ZM22.765-483.8c2.616,4.578,3.47,5.941,3.924,6.2.309.2,4.6,1.435,9.5,2.78,4.924,1.344,9.248,2.525,9.593,2.634a2.7,2.7,0,0,1,1.017,4.687c-1,.945-1.344.872-13.1-2.344-5.886-1.6-10.992-3.016-11.337-3.143-1.2-.418-1.962-1.344-3.434-4.215-1.235-2.38-1.49-2.762-2.126-3.125a2.625,2.625,0,0,0-3.688.963c-.654,1.126-.472,1.908,1.163,5.051,2.289,4.4,3.924,5.832,8.03,7.013l1.308.381v15.243H5.432l.055-12.681.055-12.663.509-1.6a15.475,15.475,0,0,1,10.12-10.447,7.909,7.909,0,0,1,2.58-.563l.654-.018Zm-8.993,40.551.763,2.871-1.817,6.849c-1,3.761-1.98,7.176-2.18,7.594a2.774,2.774,0,0,1-2.362,1.508,2.8,2.8,0,0,1-2.38-1.508,4.117,4.117,0,0,1-.345-1.126c0-.2,1.108-4.6,2.489-9.774l2.507-9.411,1.272.055,1.272.055ZM26.78-436.8c2.689,10.029,2.707,10.174,1.944,11.264a3,3,0,0,1-2.126,1.108,2.922,2.922,0,0,1-2.416-1.508c-.309-.672-5.469-19.6-5.469-20.094,0-.127.945-.2,2.78-.2h2.762Zm38.989-9.229c0,.309-2.725,20.748-2.816,21.184-.091.418-.109.418-3.906.418H55.231v-21.8H60.5C64.079-446.231,65.769-446.177,65.769-446.031Z" fill="#347053"/>
  </g>
</svg>
