<svg id="body-scan-_1_" xmlns="http://www.w3.org/2000/svg" width="99.676" height="100.087" viewBox="0 0 99.676 100.087">
  <path id="Path_541" data-name="Path 541" d="M48.748-511.633a10.59,10.59,0,0,0-7.586,7.45,35.907,35.907,0,0,0,0,9.385,10.447,10.447,0,0,0,2.874,4.81l1.33,1.31v3.363l-20.081.039-20.1.059-1.036.587a5.546,5.546,0,0,0,.352,9.952c.8.371,1.29.411,6.022.469l5.123.059V-477.1H11.011c-5.2,0-5.612-.078-6.452-1.349A2.493,2.493,0,0,1,5.5-482.03c.606-.332,1.388-.352,11.849-.352h11.2v5.279H18.558l.059,1.408.059,1.427,9.639.059,9.62.039v8.408c0,7.841-.02,8.427-.332,8.525-.2.059-.919.391-1.6.7l-1.232.587L31.893-458.8l-2.855-2.855H12.3l.059,1.408.059,1.427,7.723.059,7.743.039,2.483,2.5,2.5,2.522-.411,1.251a7.417,7.417,0,0,0,4.3,9.19l1.173.43v20.081h2.933v-10.07c0-9.424.02-10.089.352-10.187a7.562,7.562,0,0,0,5.025-4.614l.352-.939H61.4v8.017h2.933v-8.114c0-7.567.02-8.134.352-8.232a13.951,13.951,0,0,0,1.506-.665l1.173-.587L70.2-455.3l2.835,2.835H90.923V-455.4H74.205l-2.522-2.522-2.5-2.5.293-.587A8.226,8.226,0,0,0,70-462.791a7.242,7.242,0,0,0-4.008-7.684,7.539,7.539,0,0,0-1.408-.567c-.176,0-.254-.45-.254-1.564v-1.545l16.287-.059,16.268-.059,1-.528a5.3,5.3,0,0,0,3.011-4.947,5.088,5.088,0,0,0-1.623-3.969c-1.506-1.545-1.857-1.6-9.913-1.6H82.32v2.933h6.843c7.45,0,7.528.02,8.388,1.095a2.931,2.931,0,0,1,.02,2.972c-.743,1.232-.606,1.212-12.807,1.212H73.716v-5.279h5.67v-2.933H56.9v-3.441l1.369-1.408c2.542-2.581,3.226-4.83,3.07-10.109-.1-3.578-.313-4.5-1.447-6.57a12.125,12.125,0,0,0-4.2-3.93A10.543,10.543,0,0,0,48.748-511.633Zm5.514,3.422a7.716,7.716,0,0,1,3.617,3.871c.391,1.036.782,4.165.528,4.165a16.912,16.912,0,0,1-1.6-1.955l-1.486-1.955H44.192l.2-.508a7.579,7.579,0,0,1,2.288-2.874A7.355,7.355,0,0,1,54.262-508.211Zm1.721,9.835c2.385,3.148,2.4,3.148,1.29,4.888a6.962,6.962,0,0,1-6.237,3.363,5.019,5.019,0,0,1-2.933-.587,7.964,7.964,0,0,1-3.656-3.559c-.508-1.036-.547-1.31-.606-4.008l-.078-2.874H53.87Zm-4.947,11.2a12.959,12.959,0,0,0,2.112-.156l.821-.137v1.545c0,1.486-.02,1.564-.587,2.033a3.5,3.5,0,0,1-4.341.215l-.743-.469v-3.3l.743.137A13.239,13.239,0,0,0,51.035-487.173Zm-4.341,5.4a7.508,7.508,0,0,0,3.7,1.662,6.491,6.491,0,0,0,5.123-1.76l.469-.508h14.8v5.279H61.4v2.933c0,2.64-.039,2.952-.332,3.07a7.72,7.72,0,0,0-4.79,3.93,5.262,5.262,0,0,0-.645,3.265,5.291,5.291,0,0,0,.547,3.07,8.339,8.339,0,0,0,4.047,3.7l1.193.43-.059,2.561-.059,2.561-7.371.059-7.391.039-.117-.528a7.614,7.614,0,0,0-1.936-3.246,7.584,7.584,0,0,0-3.3-1.9c-.274,0-.313-1.056-.313-9.972V-477.1H31.483v-5.279H45.991Zm17.793,13.785a4.395,4.395,0,0,1,1.408,7.117,4.3,4.3,0,0,1-5.866.254,4.426,4.426,0,0,1-1.154-5.26A4.465,4.465,0,0,1,64.488-467.992ZM41.181-454.05a4.643,4.643,0,0,1,2.522,4.712,4.689,4.689,0,0,1-2.327,3.109A4.352,4.352,0,0,1,35-450.081a5.531,5.531,0,0,1,1.349-3.246A4.784,4.784,0,0,1,41.181-454.05Z" transform="translate(-1.219 511.884)" fill="#347053"/>
  <path id="Path_542" data-name="Path 542" d="M219-317.089v3.911h2.933V-321H219Z" transform="translate(-176.418 358.323)" fill="#347053"/>
  <path id="Path_543" data-name="Path 543" d="M219-264.534v1.466h2.933V-266H219Z" transform="translate(-176.418 314.077)" fill="#347053"/>
  <path id="Path_544" data-name="Path 544" d="M29-475.495v8.505h2.933v-14.078H46.011V-484H29Z" transform="translate(-23.568 489.452)" fill="#347053"/>
  <path id="Path_545" data-name="Path 545" d="M396-482.534v1.466h14.273v14.078h2.933V-484H396Z" transform="translate(-318.81 489.452)" fill="#347053"/>
  <path id="Path_546" data-name="Path 546" d="M249-128.118v13.882h2.933V-142H249Z" transform="translate(-200.552 214.322)" fill="#347053"/>
  <path id="Path_547" data-name="Path 547" d="M285.268-129.458c0,2.268-.039,2.561-.332,2.659-.2.059-.9.371-1.564.684a7.363,7.363,0,0,0-3.344,3.461,5.47,5.47,0,0,0-.528,2.972,5.613,5.613,0,0,0,.547,3.031,7.226,7.226,0,0,0,4.262,3.871l.86.293.059,3.05.059,3.05H288.2v-3.031c0-2.718.039-3.05.352-3.168a7.4,7.4,0,0,0,5.318-5.885,7.253,7.253,0,0,0-.587-4.3l-.411-.9,2.014-2.014L296.9-127.7h10.461v-2.933H295.729l-2.444,2.444-2.444,2.444-.958-.489a4.514,4.514,0,0,0-1.33-.489c-.332,0-.352-.215-.352-2.64V-132h-2.933Zm3.246,5.846a4.415,4.415,0,0,1,2.425,4.927,4.433,4.433,0,0,1-7.469,1.994,4.667,4.667,0,0,1-.88-4.614A4.5,4.5,0,0,1,288.514-123.612Z" transform="translate(-225.089 206.277)" fill="#347053"/>
  <path id="Path_548" data-name="Path 548" d="M29-108.4v8.6H46.011v-2.933H31.933V-117H29Z" transform="translate(-23.568 194.21)" fill="#347053"/>
  <path id="Path_549" data-name="Path 549" d="M410.154-110l-.059,7.1-7.1.059-7.1.039.059,1.427.059,1.408h17.011v-17.011l-1.408-.059-1.427-.059Z" transform="translate(-318.729 194.291)" fill="#347053"/>
  <path id="Path_550" data-name="Path 550" d="M189-37.089v3.911h2.933V-41H189Z" transform="translate(-152.284 133.07)" fill="#347053"/>
</svg>
