<svg xmlns="http://www.w3.org/2000/svg" width="88.061" height="91.868"><defs><filter id="a" x="13.867" y="35.532" width="41.737" height="15.399" filterUnits="userSpaceOnUse"><feOffset dy="3"/><feGaussianBlur stdDeviation="2" result="blur"/><feFlood flood-opacity=".322"/><feComposite operator="in" in2="blur"/><feComposite in="SourceGraphic"/></filter><filter id="b" x="13.867" y="46.577" width="31.167" height="15.399" filterUnits="userSpaceOnUse"><feOffset dy="3"/><feGaussianBlur stdDeviation="2" result="blur-2"/><feFlood flood-opacity=".322"/><feComposite operator="in" in2="blur-2"/><feComposite in="SourceGraphic"/></filter><filter id="c" x="0" y="0" width="88.061" height="91.868" filterUnits="userSpaceOnUse"><feOffset dy="3"/><feGaussianBlur stdDeviation="2" result="blur-3"/><feFlood flood-opacity=".322"/><feComposite operator="in" in2="blur-3"/><feComposite in="SourceGraphic"/></filter><filter id="d" x="47.05" y="54.599" width="33.088" height="26.17" filterUnits="userSpaceOnUse"><feOffset dy="3"/><feGaussianBlur stdDeviation="2" result="blur-4"/><feFlood flood-opacity=".322"/><feComposite operator="in" in2="blur-4"/><feComposite in="SourceGraphic"/></filter></defs><g data-name="calendar (2)"><g filter="url(#a)"><path data-name="Path 97" d="M21.565 41.934h26.339a1.7 1.7 0 0 0 0-3.4H21.565a1.7 1.7 0 0 0 0 3.4Zm0 0" fill="#fff"/></g><g filter="url(#b)"><path data-name="Path 98" d="M37.334 49.575H21.565a1.7 1.7 0 1 0 0 3.4h15.769a1.7 1.7 0 1 0 0-3.4Zm0 0" fill="#fff"/></g><g filter="url(#c)"><path data-name="Path 99" d="M66.836 45.8V16.441a8.5 8.5 0 0 0-8.5-8.5h-6.963V4.7a1.7 1.7 0 0 0-3.4 0v3.245H24.864V4.7a1.7 1.7 0 0 0-3.4 0v3.245h-6.966a8.5 8.5 0 0 0-8.5 8.5v46.03a8.5 8.5 0 0 0 8.5 8.5h31.455A18.695 18.695 0 1 0 66.836 45.8Zm-52.32-34.457h6.964v3.246a1.7 1.7 0 0 0 3.4 0v-3.246h23.11v3.246a1.7 1.7 0 0 0 3.4 0v-3.246h6.967a5.113 5.113 0 0 1 5.1 5.1v4.112H9.418v-4.114a5.1 5.1 0 0 1 5.098-5.098Zm0 56.229a5.112 5.112 0 0 1-5.1-5.1V23.935h54.02v21.547h-.051a18.721 18.721 0 0 0-18.384 22.091Zm48.871 11.895A15.293 15.293 0 1 1 78.68 64.174a15.294 15.294 0 0 1-15.293 15.293Zm0 0" fill="#fff"/></g><g filter="url(#d)"><path data-name="Path 100" d="m71.255 58.072-10.093 9.635-5.217-5.234a1.697 1.697 0 1 0-2.4 2.4l6.406 6.406a1.671 1.671 0 0 0 1.207.493 1.644 1.644 0 0 0 1.172-.476l11.283-10.79a1.691 1.691 0 0 0 .051-2.4 1.728 1.728 0 0 0-2.409-.034Zm0 0" fill="#fff"/></g></g></svg>