<svg xmlns="http://www.w3.org/2000/svg" width="24.1" height="24.1"><path data-name="Path 171" d="M12.05 0A12.05 12.05 0 1 0 24.1 12.05 12.05 12.05 0 0 0 12.05 0Zm0 23.3A11.247 11.247 0 1 1 23.3 12.05 11.247 11.247 0 0 1 12.05 23.3Zm0 0" fill="#fff"/><path data-name="Path 172" d="M12.05 2.41a9.64 9.64 0 1 0 9.64 9.64 9.64 9.64 0 0 0-9.64-9.64Zm.4 18.467v-1.2a.4.4 0 0 0-.8 0v1.2a8.847 8.847 0 0 1-8.425-8.425h1.2a.4.4 0 0 0 0-.8h-1.2a8.847 8.847 0 0 1 8.425-8.425v1.2a.4.4 0 0 0 .8 0v-1.2a8.847 8.847 0 0 1 8.425 8.425h-1.2a.4.4 0 0 0 0 .8h1.2a8.847 8.847 0 0 1-8.423 8.425Zm0 0" fill="#fff"/><path data-name="Path 173" d="M17.272 11.648h-4.091a1.205 1.205 0 0 0-1.131-.8 1.187 1.187 0 0 0-.517.12L7.115 6.55a.402.402 0 0 0-.568.568l4.418 4.418a1.2 1.2 0 1 0 2.215.919h4.091a.4.4 0 0 0 0-.8Zm-5.222.8a.4.4 0 1 1 .4-.4.4.4 0 0 1-.4.4Zm0 0" fill="#fff"/></svg>