<svg xmlns="http://www.w3.org/2000/svg" xmlns:xlink="http://www.w3.org/1999/xlink" version="1.1" width="1000" height="1000" viewBox="0 0 1000 1000" xml:space="preserve">
<desc>Created with Fabric.js 3.5.0</desc>
<defs>
</defs>
<rect x="0" y="0" width="100%" height="100%" fill="#ffffff"/>
<g transform="matrix(4.6296 0 0 4.6296 499.984 499.984)" id="59209">
<g style="" vector-effect="non-scaling-stroke">
		<g transform="matrix(1 0 0 1 -490 -490)">
<rect style="stroke: none; stroke-width: 1; stroke-dasharray: none; stroke-linecap: butt; stroke-dashoffset: 0; stroke-linejoin: miter; stroke-miterlimit: 4; is-custom-font: none; font-file-url: none; fill: rgb(255,255,255); fill-opacity: 0; fill-rule: nonzero; opacity: 1;" x="-50" y="-50" rx="0" ry="0" width="100" height="100"/>
</g>
		<g transform="matrix(1 0 0 1 0 0)" id="abb3e1d5-5729-42cc-afdd-75845ff939a2">
<rect style="stroke: none; stroke-width: 1; stroke-dasharray: none; stroke-linecap: butt; stroke-dashoffset: 0; stroke-linejoin: miter; stroke-miterlimit: 4; is-custom-font: none; font-file-url: none; fill: rgb(255,255,255); fill-rule: nonzero; opacity: 1; visibility: hidden;" vector-effect="non-scaling-stroke" x="-540" y="-540" rx="0" ry="0" width="1080" height="1080"/>
</g>
		<g transform="matrix(1 0 0 1 -0.4762 -20.0754)">
<path style="stroke: none; stroke-width: 1; stroke-dasharray: none; stroke-linecap: butt; stroke-dashoffset: 0; stroke-linejoin: miter; stroke-miterlimit: 4; is-custom-font: none; font-file-url: none; fill: rgb(255,129,0); fill-rule: nonzero; opacity: 1;" vector-effect="non-scaling-stroke" transform=" translate(-41.1138, -27.3747)" d="M 41.557 52.752 C 29.844 52.37 27.035 42.341 26.433 39.1 C 25.30545399503551 38.83869823274433 24.300788582093855 38.2005522594257 23.585 37.291000000000004 C 22.767093521938428 36.16395063874621 22.38810020994408 34.777389741205916 22.519000000000002 33.391000000000005 C 22.331385933816026 31.88164654745836 22.79214128350345 30.36347947254191 23.787 29.213000000000005 C 24.064730285067 28.928464817706377 24.384032020081527 28.687724122035448 24.734 28.49900000000001 C 22.55695309523874 24.984154629595423 21.48471491535134 20.896899735307333 21.655999999999995 16.76600000000002 C 23.012 7.077 30.82 6.134 33.266 6.08 C 34.391662207422485 4.773330446195063 35.79801023941796 3.737883633138591 37.379999999999995 3.051 C 40.345616163948876 1.8541965427005036 43.62369686241908 1.6713777993280776 46.70399999999999 2.5310000000000006 C 52.75899999999999 4.112 56.8 7.144 58.71199999999999 11.543000000000001 C 61.438999999999986 17.795 59.04699999999999 24.992 57.67299999999999 28.223 C 58.19693072109327 28.39322123301032 58.679795178858 28.670408587467648 59.09099999999999 29.036999999999995 C 60.224729283371886 30.187809494683748 60.76036023404416 31.79950455522381 60.54099999999999 33.39999999999999 C 60.67311911313816 34.786345386395716 60.29439610226374 36.173218383964034 59.476 37.3 C 58.759576384025664 38.209321368632786 57.75469011734087 38.847383585702914 56.626999999999995 39.108999999999995 C 56.025 42.340999999999994 53.223 52.36999999999999 41.556999999999995 52.751999999999995 Z M 26.9 30.582 C 26.43920773947574 30.560474608469935 25.988433834270776 30.721029138849712 25.645 31.029 C 25.165574804485985 31.70166243996302 24.97443665439447 32.53784685175696 25.114 33.352 C 25.11947818475032 33.43875289953895 25.11646385434611 33.52583355566053 25.105 33.611999999999995 C 25.034512113367043 34.35726843439142 25.226960854483057 35.10371483835243 25.649 35.721999999999994 C 26.181122114340116 36.31614427663436 26.93017782172371 36.67084630553978 27.727 36.705999999999996 C 28.339012138924147 36.77861550625201 28.815929100443633 37.270984243232284 28.869 37.885 C 28.912 38.367999999999995 30.064 49.778 41.557 50.153999999999996 C 52.986000000000004 49.776999999999994 54.143 38.367999999999995 54.186 37.882 C 54.23996804695224 37.26876007385214 54.71666806745556 36.77745015779926 55.328 36.705 C 56.1249056197775 36.67018281002737 56.874085330086636 36.31542206173854 57.406000000000006 35.721 C 57.83008046041811 35.09950305839239 58.022600543717324 34.348887071852616 57.95 33.599999999999994 C 57.93920235490991 33.51645998123419 57.936189407573686 33.43209745581995 57.941 33.34799999999999 C 58.08234029068611 32.506227579936755 57.870347165966955 31.643422797589984 57.355000000000004 30.962999999999994 C 56.94945634264728 30.664267305976548 56.44489025924831 30.53222128840618 55.94500000000001 30.593999999999994 C 55.454829477548614 30.679905472873667 54.95862927584526 30.478448392062553 54.66707075851242 30.075161245824795 C 54.375512241179585 29.671874099587036 54.339762586612125 29.137531926651285 54.57500000000001 28.698999999999995 C 54.62300000000001 28.607999999999993 59.38000000000001 19.578999999999994 56.32300000000001 12.561999999999994 C 54.74000000000001 8.935999999999995 51.284000000000006 6.404999999999994 46.04900000000001 5.037999999999994 C 43.532553556347935 4.3263013883211565 40.85173979628925 4.463364493515557 38.42100000000001 5.427999999999993 C 37.03778714445442 6.02364840216302 35.83209660973487 6.9668428833236264 34.92100000000001 8.165999999999997 C 34.654419206700844 8.528939208158816 34.217529203753685 8.726146501155796 33.769000000000005 8.685999999999993 C 33.43300000000001 8.658999999999994 25.480000000000004 8.143999999999993 24.234000000000005 17.033999999999992 C 22.988000000000007 25.923999999999992 23.874000000000006 24.10599999999999 27.971000000000004 28.391999999999992 C 28.336048055835693 28.773894686993973 28.43367841531936 29.338727819391387 28.218000000000004 29.82099999999999 C 28.018537250715454 30.31715699453336 27.521355192307976 30.627592621246322 26.988000000000003 30.58899999999999 Z" stroke-linecap="round"/>
</g>
		<g transform="matrix(1 0 0 1 -0.2592 -25.5787)">
<path style="stroke: none; stroke-width: 1; stroke-dasharray: none; stroke-linecap: butt; stroke-dashoffset: 0; stroke-linejoin: miter; stroke-miterlimit: 4; is-custom-font: none; font-file-url: none; fill: rgb(255,129,0); fill-rule: nonzero; opacity: 1;" vector-effect="non-scaling-stroke" transform=" translate(-40.4108, -19.3112)" d="M 54.8 28.053 C 54.10334253402193 28.053646653686627 53.53000957288168 27.505011112410884 53.5 26.809 C 53.484 26.473000000000003 53.082 18.627000000000002 47.224000000000004 17.872 C 41.809384380165774 18.558159525459512 36.35193947195074 16.97593478151282 32.144000000000005 13.5 C 30.488000000000007 14.746 26.672000000000004 18.531 27.406000000000006 26.606 C 27.416656222850822 27.28605151104169 26.901327036771548 27.85936949168499 26.22399166924287 27.921016978659907 C 25.546656301714194 27.982664465634826 24.93629125719157 27.511801227126092 24.824000000000005 26.841 C 23.747 15 31.354 10.886 31.678 10.717 C 32.171978405293814 10.459199325356217 32.77531726160633 10.544873442952595 33.178 10.93 C 36.92383510326056 14.322861036806 41.96320472009996 15.91318383980133 46.978 15.284999999999997 C 47.09699515422606 15.265740027483368 47.217925597412396 15.261373094812749 47.337999999999994 15.272 C 53.937999999999995 15.959 55.95799999999999 23.053 56.10099999999999 26.701 C 56.12806693829621 27.416152124872635 55.57202173797834 28.01868341910775 54.85699999999999 28.049 Z" stroke-linecap="round"/>
</g>
		<g transform="matrix(1 0 0 1 0 28.9445)">
<path style="stroke: none; stroke-width: 1; stroke-dasharray: none; stroke-linecap: butt; stroke-dashoffset: 0; stroke-linejoin: miter; stroke-miterlimit: 4; is-custom-font: none; font-file-url: none; fill: rgb(255,129,0); fill-rule: nonzero; opacity: 1;" vector-effect="non-scaling-stroke" transform=" translate(-45.69, -63.0845)" d="M 82.171 79.6 L 9.21 79.6 C 8.492029825219971 79.6 7.910000000000003 79.01797017478003 7.910000000000001 78.3 L 7.910000000000001 63.82 C 7.929292836204344 54.291883834147654 15.655865885247504 46.576493158974245 25.18399999999999 46.571 L 27.678 46.571 C 28.395970174780032 46.571 28.978 47.15302982521997 28.978 47.870999999999995 C 28.978 48.58897017478003 28.395970174780032 49.171 27.678 49.171 L 25.184 49.171 C 17.091412651069916 49.175937060290735 10.52828755762054 55.72743412972446 10.509 63.82000000000001 L 10.509 77 L 80.872 77 L 80.872 63.82 C 80.86263196104075 55.73235967724439 74.30864032275561 49.17836803895925 66.221 49.169 L 63.548 49.169 C 62.83002982521997 49.169 62.248000000000005 48.58697017478003 62.248000000000005 47.869 C 62.248000000000005 47.151029825219965 62.83002982521997 46.568999999999996 63.548 46.568999999999996 L 66.221 46.568999999999996 C 75.74265809095346 46.582222185774874 83.45788177466866 54.29834044003721 83.47 63.82000000000001 L 83.47 78.3 C 83.47000021230176 79.01757983172801 82.88857961942628 79.59944801551408 82.17099999999999 79.6 Z" stroke-linecap="round"/>
</g>
		<g transform="matrix(1 0 0 1 11.5041 26.7697)">
<path style="stroke: none; stroke-width: 1; stroke-dasharray: none; stroke-linecap: butt; stroke-dashoffset: 0; stroke-linejoin: miter; stroke-miterlimit: 4; is-custom-font: none; font-file-url: none; fill: rgb(255,129,0); fill-rule: nonzero; opacity: 1;" vector-effect="non-scaling-stroke" transform=" translate(-47.8041, -61.9097)" d="M 40.641 80.6 C 40.263007433387884 80.59949314343173 39.903953148275775 80.43449132349168 39.65738980439703 80.1479862541248 C 39.41082646051829 79.8614811847579 39.301173015530736 79.48184754261952 39.357 79.10799999999999 L 44.613 44.32299999999999 C 44.66983600611203 43.951044245181215 44.885045690603484 43.62196036410716 45.203020784356966 43.42078070587592 C 45.52099587811045 43.21960104764468 45.91054057913731 43.16606288384013 46.271 43.273999999999994 L 55.342 46.007999999999996 C 55.7073362969549 46.118560160699914 56.00562383565016 46.384091864917615 56.15774679579159 46.73416723395194 C 56.30986975593302 47.08424260298627 56.30045513317804 47.48348426735012 56.132 47.82599999999999 L 52.527 55.059999999999995 L 54.618 57.407 C 54.99827927506026 57.83734541727537 55.05112634412082 58.46622553909595 54.748000000000005 58.95399999999999 L 41.748000000000005 79.98499999999999 C 41.510540240311755 80.36801763626605 41.09165409251404 80.60073216282034 40.641000000000005 80.59999999999998 Z M 46.958 46.193 L 42.873 73.223 L 52.033 58.417 L 50 56.138 C 49.650286353889804 55.74183467953561 49.575180050187676 55.17339854941103 49.81 54.699999999999996 L 53.119 48.05799999999999 Z" stroke-linecap="round"/>
</g>
		<g transform="matrix(1 0 0 1 -11.6588 26.7708)">
<path style="stroke: none; stroke-width: 1; stroke-dasharray: none; stroke-linecap: butt; stroke-dashoffset: 0; stroke-linejoin: miter; stroke-miterlimit: 4; is-custom-font: none; font-file-url: none; fill: rgb(255,129,0); fill-rule: nonzero; opacity: 1;" vector-effect="non-scaling-stroke" transform=" translate(-29.9713, -61.9108)" d="M 37.138 80.6 C 36.68785917473342 80.59982469441371 36.26984331034965 80.3667950360785 36.033 79.984 L 23.027 58.955 C 22.723873655879185 58.467225539095956 22.776720724939736 57.83834541727538 23.157 57.408 L 25.248 55.061 L 21.643 47.827 C 21.47454486682196 47.484484267350126 21.465130244066977 47.08524260298628 21.617253204208406 46.73516723395195 C 21.769376164349836 46.38509186491762 22.0676637030451 46.11956016069992 22.433 46.009 L 31.5 43.276 C 31.860326909887636 43.16840395141005 32.24959201618062 43.22211002532991 32.56732242324954 43.423256191301725 C 32.885052830318465 43.624402357273546 33.10011521408578 43.95327898526874 33.157 44.325 L 38.419 79.11 C 38.474112491315935 79.48301668370814 38.3645503469542 79.8615848128777 38.11873257901508 80.14750868034787 C 37.872914811075965 80.43343254781803 37.51506325312187 80.5985384361743 37.138 80.6 Z M 25.746 58.413 L 34.906 73.219 L 30.820999999999998 46.190999999999995 L 24.659999999999997 48.04899999999999 L 27.967999999999996 54.690999999999995 C 28.204556374056395 55.166097215432465 28.128555964399755 55.73728779425816 27.775999999999996 56.13399999999999 Z" stroke-linecap="round"/>
</g>
		<g transform="matrix(1 0 0 1 -0.0789 19.695)">
<path style="stroke: none; stroke-width: 1; stroke-dasharray: none; stroke-linecap: butt; stroke-dashoffset: 0; stroke-linejoin: miter; stroke-miterlimit: 4; is-custom-font: none; font-file-url: none; fill: rgb(255,129,0); fill-rule: nonzero; opacity: 1;" vector-effect="non-scaling-stroke" transform=" translate(-39.1211, -52.515)" d="M 39.221 54.068 C 36.413356222301964 54.06595566727543 33.60834793656525 53.8959855223421 30.820999999999998 53.559 C 30.34141974560034 53.52679773225583 29.91874385864685 53.232600507935004 29.72199393314374 52.79405327755676 C 29.525244007640634 52.35550604717852 29.586531314252962 51.84418346968149 29.881348000568078 51.46455558881908 C 30.176164686883197 51.08492770795668 30.65639414809614 50.89895304088311 31.13 50.980999999999995 C 36.43800763260788 51.63374599490214 41.8059923673921 51.63374599490214 47.113999999999976 50.980999999999995 C 47.585386784749424 50.90005076771803 48.063151895170044 51.08448105413808 48.357877730601004 51.461170529665296 C 48.652603566031964 51.8378600051925 48.71668319764508 52.34596219186024 48.524711233111276 52.78403187110827 C 48.33273926857746 53.2221015503563 47.91572485115423 53.519377528103185 47.439 53.55799999999999 C 44.71371385648913 53.89986664249976 41.96964386410917 54.07020204855062 39.223 54.068 Z" stroke-linecap="round"/>
</g>
		<g transform="matrix(1 0 0 1 8.5743 5.5374)">
<path style="stroke: none; stroke-width: 1; stroke-dasharray: none; stroke-linecap: butt; stroke-dashoffset: 0; stroke-linejoin: miter; stroke-miterlimit: 4; is-custom-font: none; font-file-url: none; fill: rgb(255,129,0); fill-rule: nonzero; opacity: 1;" vector-effect="non-scaling-stroke" transform=" translate(-44.1342, -42.4473)" d="M 45.162 47.577 C 44.752109418536 47.57527162200067 44.36704107177888 47.38032845511496 44.123 47.050999999999995 C 42.193 44.44199999999999 41.843999999999994 39.269999999999996 41.811 38.69 C 41.77061000808531 37.974598287398614 42.31671486113409 37.36140438606375 43.032 37.318999999999996 C 43.743378986688604 37.28743275866513 44.35026337724804 37.82866006603539 44.4 38.538999999999994 C 44.479 39.904999999999994 44.96 43.821 46.207 45.50699999999999 C 46.49644401774185 45.90070719429801 46.540658268173885 46.4234725010775 46.32145047024473 46.86020026018563 C 46.102242672315576 47.296928019293766 45.65664425892944 47.57384049626307 45.168 47.57699999999999 Z" stroke-linecap="round"/>
</g>
		<g transform="matrix(1 0 0 1 -8.7092 5.5357)">
<path style="stroke: none; stroke-width: 1; stroke-dasharray: none; stroke-linecap: butt; stroke-dashoffset: 0; stroke-linejoin: miter; stroke-miterlimit: 4; is-custom-font: none; font-file-url: none; fill: rgb(255,129,0); fill-rule: nonzero; opacity: 1;" vector-effect="non-scaling-stroke" transform=" translate(-30.8308, -42.4457)" d="M 29.791 47.578 C 29.302355741070564 47.57484049626308 28.856757327684427 47.29792801929378 28.63754952975527 46.86120026018564 C 28.418341731826114 46.42447250107751 28.46255598225815 45.90170719429802 28.752 45.508 C 30 43.819 30.481 39.9 30.56 38.54 C 30.601697498612225 37.82202982521997 31.21752982521997 37.27380250138778 31.9355 37.3155 C 32.65347017478003 37.35719749861223 33.20169749861222 37.973029825219974 33.16 38.691 C 33.128 39.272000000000006 32.769999999999996 44.443000000000005 30.847999999999995 47.05200000000001 C 30.600610133905946 47.385868173201004 30.208521898470785 47.581354819493804 29.792999999999996 47.57800000000001 Z" stroke-linecap="round"/>
</g>
		<g transform="matrix(1 0 0 1 24.177 19.8874)">
<path style="stroke: none; stroke-width: 1; stroke-dasharray: none; stroke-linecap: butt; stroke-dashoffset: 0; stroke-linejoin: miter; stroke-miterlimit: 4; is-custom-font: none; font-file-url: none; fill: rgb(255,129,0); fill-rule: nonzero; opacity: 1;" vector-effect="non-scaling-stroke" transform=" translate(-56.377, -54.0075)" d="M 58.37 61.373 C 57.6669885632321 61.37331642425326 57.09109027402836 60.814695083725624 57.07 60.111999999999995 C 56.827 51.654999999999994 53.611 48.992999999999995 53.58 48.967 C 53.022003165747094 48.52374632450328 52.92151356289285 47.71538305906513 53.354 47.149 C 53.78411764835768 46.58629917094031 54.58727743403707 46.47519540058799 55.153999999999996 46.9 C 55.324999999999996 47.03 59.384 50.182 59.668 60.037 C 59.687619836001396 60.75317365081791 59.12411134307075 61.35022431594681 58.408 61.372 Z" stroke-linecap="round"/>
</g>
		<g transform="matrix(1 0 0 1 26.18 29.7859)">
<path style="stroke: none; stroke-width: 1; stroke-dasharray: none; stroke-linecap: butt; stroke-dashoffset: 0; stroke-linejoin: miter; stroke-miterlimit: 4; is-custom-font: none; font-file-url: none; fill: rgb(255,129,0); fill-rule: nonzero; opacity: 1;" vector-effect="non-scaling-stroke" transform=" translate(-58.3399, -61.1159)" d="M 58.341 66.25 C 56.26439988146402 66.25040447996842 54.3920502973727 64.99980201837313 53.59708955259462 63.0813897503323 C 52.80212880781654 61.16297748229147 53.24112518745616 58.954588553534016 54.709360214783075 57.48606748782266 C 56.177595242109994 56.0175464221113 58.38589861296907 55.57811985913676 60.30446570206473 56.372706884293024 C 62.22303279116039 57.16729390944929 63.47399996060772 59.03939984207173 63.474000000000004 61.11599999999999 C 63.474000053779584 63.951039427245135 61.17603937346556 66.24944779130752 58.341 66.25 Z M 58.341 58.58 C 57.31519284257223 58.57959550187809 56.390168355840224 59.197215540009665 55.99732863946595 60.1448217056121 C 55.604488923091665 61.09242787121454 55.821211415059565 62.18337066257927 56.54642361467376 62.908868941956634 C 57.27163581428796 63.634367221333996 58.36249304555915 63.85151996375006 59.31025407325324 63.45905401333777 C 60.25801510094733 63.06658806292549 60.875999920248795 62.14180723717898 60.876000000000005 61.116 C 60.876000108858605 59.71579630579665 59.74120358534476 58.58055213079424 58.34100000000001 58.58 Z" stroke-linecap="round"/>
</g>
		<g transform="matrix(1 0 0 1 -24.9906 19.9122)">
<path style="stroke: none; stroke-width: 1; stroke-dasharray: none; stroke-linecap: butt; stroke-dashoffset: 0; stroke-linejoin: miter; stroke-miterlimit: 4; is-custom-font: none; font-file-url: none; fill: rgb(255,129,0); fill-rule: nonzero; opacity: 1;" vector-effect="non-scaling-stroke" transform=" translate(-18.5695, -54.0122)" d="M 16.4 61.356 C 15.716834227166402 61.357750223644445 15.148870546778992 60.83041779116167 15.099999999999998 60.149 C 14.388999999999998 50.182 19.880999999999997 47 20.115 46.865 C 20.520582952178216 46.61231384996596 21.032099936605967 46.602509778176405 21.44706774929144 46.83946871122528 C 21.86203556197691 47.07642764427416 22.113550250559083 47.52194544033749 22.102050116119795 47.999664571652644 C 22.090549981680507 48.4773837029678 21.817889154644217 48.91028301987832 21.392 49.127 C 21.192 49.244 17.106 51.767 17.686999999999998 59.966 C 17.73687367576205 60.67979320448893 17.200545477514204 61.299699213630404 16.487 61.353 Z" stroke-linecap="round"/>
</g>
		<g transform="matrix(1 0 0 1 -24.946 30.9992)">
<path style="stroke: none; stroke-width: 1; stroke-dasharray: none; stroke-linecap: butt; stroke-dashoffset: 0; stroke-linejoin: miter; stroke-miterlimit: 4; is-custom-font: none; font-file-url: none; fill: rgb(255,129,0); fill-rule: nonzero; opacity: 1;" vector-effect="non-scaling-stroke" transform=" translate(-19.534, -62.3992)" d="M 14.694 69.051 C 14.286569241151737 69.05257987433589 13.901964515131347 68.86305377258185 13.655000000000001 68.539 C 13.0211202371166 67.7063195810459 12.554218231408752 66.7589329658278 12.28 65.749 C 11.025067052991577 61.65597128091783 13.300017966910197 57.31572179220642 17.38 56.01899999999999 C 19.25896740317618 55.490577616342755 21.271476528158676 55.73957382142116 22.965000000000003 56.709999999999994 C 25.975273418963134 58.44791003759266 27.5909969902653 61.871458502685314 27.019000000000005 65.29999999999998 C 26.962547602276384 65.77557093403846 26.649194010044653 66.18158989853593 26.20345420274244 66.35672016632861 C 25.757714395440228 66.53185043412131 25.251784560168026 66.44772626947417 24.886702261509477 66.13777546415639 C 24.521619962850924 65.82782465883861 24.35651734361498 65.3422497434882 24.457000000000004 64.874 C 24.848907566447092 62.52510962966283 23.75055361333644 60.17802946908592 21.696000000000005 58.974 C 20.603525946044105 58.34334110543304 19.303397330060324 58.178302605953945 18.088 58.516 C 15.379449629640295 59.4217842919128 13.904000848304598 62.33834835317505 14.779000000000003 65.057 C 14.96699168631277 65.7483022726729 15.28723423973223 66.39659817349767 15.722000000000003 66.96600000000001 C 16.019668061019782 67.35893049563403 16.06948533388235 67.88642091538088 15.850642505632038 68.32813175458892 C 15.631799677381721 68.76984259379697 15.18194944018748 69.04977592103126 14.689000000000004 69.051 Z" stroke-linecap="round"/>
</g>
		<g transform="matrix(1 0 0 1 -19.4871 33.6034)">
<path style="stroke: none; stroke-width: 1; stroke-dasharray: none; stroke-linecap: butt; stroke-dashoffset: 0; stroke-linejoin: miter; stroke-miterlimit: 4; is-custom-font: none; font-file-url: none; fill: rgb(255,129,0); fill-rule: nonzero; opacity: 1;" vector-effect="non-scaling-stroke" transform=" translate(-22.4528, -63.1933)" d="M 23.212 64.576 C 23.160205928008054 64.57721646139002 23.108393620937015 64.57454227779927 23.057 64.568 L 21.593999999999998 64.39999999999999 C 21.12389867399645 64.35592121262698 20.714656595682715 64.0604169955822 20.524929777177686 63.62804917699885 C 20.335202958672657 63.1956813584155 20.39482418788771 62.69443577990066 20.680679354700388 62.318636605057144 C 20.96653452151307 61.942837430213636 21.43367554408608 61.7515756044793 21.900999999999996 61.81899999999999 L 23.364999999999995 61.99299999999999 C 24.0384256271971 62.084360581753835 24.527845173877232 62.67899487655131 24.48799947251053 63.35742037087387 C 24.448153771143826 64.03584586519642 23.89249040786681 64.56909971087741 23.212999999999994 64.58099999999999 Z" stroke-linecap="round"/>
</g>
		<g transform="matrix(1 0 0 1 -29.0344 36.0785)">
<path style="stroke: none; stroke-width: 1; stroke-dasharray: none; stroke-linecap: butt; stroke-dashoffset: 0; stroke-linejoin: miter; stroke-miterlimit: 4; is-custom-font: none; font-file-url: none; fill: rgb(255,129,0); fill-rule: nonzero; opacity: 1;" vector-effect="non-scaling-stroke" transform=" translate(-15.1257, -65.1485)" d="M 14.358 66.73 C 13.730570856810596 66.72756662047898 13.194409498403333 66.27734194586917 13.083509630704228 65.65978670914649 C 12.97260976300512 65.04223147242381 13.318620658263736 64.43358730688949 13.906 64.21300000000001 L 15.465 63.638000000000005 C 16.131535101787733 63.40857880339238 16.85947236361658 63.752173172155096 17.10600294860501 64.41257138386779 C 17.352533533593444 65.07296959558047 17.02782222060577 65.80952394566073 16.374 66.07300000000001 L 14.815 66.65 C 14.668695948155198 66.70385351450615 14.513897950618203 66.73095163223692 14.357999999999999 66.73 Z" stroke-linecap="round"/>
</g>
</g>
</g>
</svg>