<svg xmlns="http://www.w3.org/2000/svg" width="75.18" height="75.179"><g data-name="Group 381"><g data-name="24-hours-support"><path data-name="Path 166" d="M35.925 49.586c-1.065.013-2.2.022-3.115.023a126.62 126.62 0 0 0 2.471-3.424 6.492 6.492 0 0 0 1.27-2.7 3.689 3.689 0 0 0-7.27-1.248 1.101 1.101 0 1 0 2.161.425 1.5 1.5 0 0 1 2.964.231 3.454 3.454 0 0 1-.929 2.026 113.48 113.48 0 0 1-3.085 4.231c-.785 1.028-1.2 2.156.025 2.563.145.048 4.1.09 5.536.072a1.1 1.1 0 0 0-.028-2.2Zm6.455-.829c0 .689-.01 1.35-.015 1.945a1.1 1.1 0 0 0 1.092 1.111h.01a1.1 1.1 0 0 0 1.1-1.092c0-.364.009-1.079.016-1.964h.236a1.1 1.1 0 0 0 0-2.2H44.6c.015-2.5.023-5.2-.008-5.57a1.839 1.839 0 0 0-1.218-1.657 1.775 1.775 0 0 0-1.907.7c-.588.718-3.316 5.616-4.139 7.1a1.112 1.112 0 0 0 .963 1.635h4.089Zm.028-6.123c0 1.018-.005 2.442-.014 3.92h-2.23c.842-1.5 1.665-2.941 2.244-3.921Zm8.373 2.9A13.192 13.192 0 1 0 37.59 58.726a13.207 13.207 0 0 0 13.191-13.192Zm-24.181 0a10.989 10.989 0 1 1 10.99 10.989A11 11 0 0 1 26.6 45.534Zm44.567-9.747v-2.564A33.268 33.268 0 0 0 26.845 1.89a1.101 1.101 0 0 0 .734 2.077 31.04 31.04 0 0 1 41.386 29.256v.75a13.847 13.847 0 0 0-2.946-1.487 28.083 28.083 0 0 0-56.14-.238 13.8 13.8 0 0 0-2.956 1.283v-.308a30.819 30.819 0 0 1 9.085-21.935 31.178 31.178 0 0 1 7.055-5.3A1.103 1.103 0 0 0 22 4.056a33.373 33.373 0 0 0-7.549 5.674 33.007 33.007 0 0 0-9.73 23.493v1.895A13.867 13.867 0 0 0 13.349 59.4a3.309 3.309 0 0 0 3.118 2.214h2.151a3.308 3.308 0 0 0 3.3-3.3V32.761a3.308 3.308 0 0 0-3.3-3.3h-2.151a3.309 3.309 0 0 0-3.118 2.214c-.42.016-.836.051-1.246.1a25.882 25.882 0 0 1 51.688.111 13.866 13.866 0 0 0-1.962-.214 3.309 3.309 0 0 0-3.118-2.214h-2.15a3.308 3.308 0 0 0-3.3 3.3v13.966a1.1 1.1 0 0 0 2.2 0V32.761a1.1 1.1 0 0 1 1.1-1.1h2.151a1.1 1.1 0 0 1 1.1 1.1v25.547a1.1 1.1 0 0 1-1.1 1.1h-2.151a1.1 1.1 0 0 1-1.1-1.1v-6.445a1.1 1.1 0 0 0-2.2 0v6.445a3.307 3.307 0 0 0 3.278 3.3v3.3a4.1 4.1 0 0 1-4.1 4.1h-7.658a5.107 5.107 0 0 0-4.981-3.957h-4.867a5.064 5.064 0 1 0 0 10.129H39.8a5.107 5.107 0 0 0 4.985-3.963h7.656a6.308 6.308 0 0 0 6.3-6.3v-3.3A3.308 3.308 0 0 0 61.83 59.4a13.866 13.866 0 0 0 9.338-23.611Zm-55.8-3.026a1.1 1.1 0 0 1 1.1-1.1h2.151a1.1 1.1 0 0 1 1.1 1.1v25.547a1.1 1.1 0 0 1-1.1 1.1h-2.151a1.1 1.1 0 0 1-1.1-1.1Zm-2.2 1.123v23.3a11.673 11.673 0 0 1 0-23.3ZM39.8 72.977h-4.867a2.862 2.862 0 1 1 0-5.723H39.8a2.862 2.862 0 1 1 0 5.723Zm22.216-15.792v-23.3a11.673 11.673 0 0 1 0 23.3Z" fill="#2c704f"/></g></g></svg>