<svg xmlns="http://www.w3.org/2000/svg" width="51.694" height="79"><g data-name="004---Pregnant-Woman" fill="#2c704f"><path d="M10.136 67.193a29.02 29.02 0 0 0-2.224 10.49A1.317 1.317 0 0 0 9.232 79h39.5a1.317 1.317 0 0 0 1.3-1.534c-.108-.658-2.726-16.116-8.02-26.7a20.391 20.391 0 0 1-1.8-8.541 81.27 81.27 0 0 0 8.427 1.224h.1a1.317 1.317 0 0 0 1.277-1c2.121-8.481 1.737-20.223 1.483-27.992-.067-2.067-.132-3.86-.132-5.214a10.007 10.007 0 0 0-2.823-6.952A7.122 7.122 0 0 0 43.4 0H27.886a3.925 3.925 0 0 0-3.38 1.91 24.026 24.026 0 0 1-6.96 7.56 12.175 12.175 0 0 1-2.217 1.157 7.781 7.781 0 0 0-4.943 7.673 9.276 9.276 0 0 0 3.014 6.516 7.219 7.219 0 0 0-.806.344 5.938 5.938 0 0 0-3.2 3.993A20.882 20.882 0 0 0 .012 47.4c0 10.928 5.273 16.749 10.12 19.793Zm16.621-63.92a1.317 1.317 0 0 1 1.128-.64h6.275c-.274 2.55-1.448 7.9-6.5 7.9a34.182 34.182 0 0 1-6.4-.607 29.23 29.23 0 0 0 5.488-6.653ZM13.018 18.212a5.135 5.135 0 0 1 3.28-5.135 14.746 14.746 0 0 0 2.158-1.1 36.434 36.434 0 0 0 9.217 1.185c6.571 0 8.778-6.29 9.151-10.533h2.358a70.17 70.17 0 0 0-1.256 26.532 45.673 45.673 0 0 0-6.173-.76 23.375 23.375 0 0 1-4.981-.689c-1.106-.369-2.238-.833-3.323-1.282a30.311 30.311 0 0 0-5.315-1.825 7.118 7.118 0 0 1-5.115-6.4Zm.753 9.3a5.606 5.606 0 0 1 3.633-.367 1.4 1.4 0 0 0 .333.067 29.625 29.625 0 0 1 4.7 1.658c1.132.466 2.3.949 3.5 1.347a24.836 24.836 0 0 0 5.617.815c3.751.28 8.005.6 11.126 2.939a1.317 1.317 0 1 0 1.58-2.107 13.938 13.938 0 0 0-3.521-1.874 66.558 66.558 0 0 1 1.139-27.357H43.4a4.608 4.608 0 0 1 3.26 1.5 7.5 7.5 0 0 1 2.072 5.084c0 1.406.059 3.23.132 5.33.238 7.284.592 18.124-1.147 26.161-3.988-.446-17.865-2.392-29.808-8.866a11.626 11.626 0 0 0-5.731-2.742 3.388 3.388 0 0 1 1.593-1.58ZM10.529 31.6h.02a8.841 8.841 0 0 1 5.652 2.248 1.357 1.357 0 0 0 .3.225 81.559 81.559 0 0 0 21.039 7.595 23.346 23.346 0 0 0 2.107 10.27c4.178 8.342 6.7 20.236 7.5 24.429H10.612a26.326 26.326 0 0 1 1.843-7.9A30.368 30.368 0 0 0 25.487 71.3a32.873 32.873 0 0 0 3.647-.2 1.317 1.317 0 1 0-.292-2.618 28.012 28.012 0 0 1-16.356-2.948c-4.49-2.5-9.837-7.674-9.837-18.129 0-6.856 2.672-12.154 7.88-15.8Z"/><path data-name="Shape" d="M13.898 58.244c.748.624 1.543 1.289 2.379 2.005a1.317 1.317 0 0 0 1.712 0c.836-.716 1.631-1.381 2.379-2.005 4.4-3.668 7.3-6.091 7.3-9.846a6.037 6.037 0 0 0-5.927-6.265 6.329 6.329 0 0 0-4.608 1.982 6.329 6.329 0 0 0-4.609-1.982 6.037 6.037 0 0 0-5.926 6.265c0 3.755 2.9 6.178 7.3 9.846Zm-1.374-13.478a4.071 4.071 0 0 1 3.434 2.122 1.317 1.317 0 0 0 1.167.718h.008a1.325 1.325 0 0 0 1.172-.718 4.07 4.07 0 0 1 3.437-2.122 3.4 3.4 0 0 1 3.292 3.631c0 2.523-2.39 4.519-6.35 7.825-.5.415-1.014.845-1.55 1.3-.536-.453-1.053-.883-1.55-1.3-3.961-3.306-6.35-5.3-6.35-7.825a3.4 3.4 0 0 1 3.292-3.631Z"/></g></svg>