<?xml version="1.0" encoding="UTF-8" standalone="no" ?>
<!DOCTYPE svg PUBLIC "-//W3C//DTD SVG 1.1//EN" "http://www.w3.org/Graphics/SVG/1.1/DTD/svg11.dtd">
<svg xmlns="http://www.w3.org/2000/svg" xmlns:xlink="http://www.w3.org/1999/xlink" version="1.1" width="1080" height="1080" viewBox="0 0 1080 1080" xml:space="preserve">
<desc>Created with Fabric.js 5.2.4</desc>
<defs>
</defs>
<g transform="matrix(1 0 0 1 540 540)" id="abb3e1d5-5729-42cc-afdd-75845ff939a2"  >
<rect style="stroke: none; stroke-width: 1; stroke-dasharray: none; stroke-linecap: butt; stroke-dashoffset: 0; stroke-linejoin: miter; stroke-miterlimit: 4; fill: rgb(255,255,255); fill-rule: nonzero; opacity: 1; visibility: hidden;" vector-effect="non-scaling-stroke"  x="-540" y="-540" rx="0" ry="0" width="1080" height="1080" />
</g>
<g transform="matrix(1 0 0 1 540 540)" id="f4b6d9ad-bc2c-4bf0-acb3-ace1b782906c"  >
</g>
<g transform="matrix(1 0 0 1 540 540)" id="d5992788-2cca-46e6-ae34-35ea2a184ca7"  >
<path style="stroke: rgb(0,0,0); stroke-width: 0; stroke-dasharray: none; stroke-linecap: butt; stroke-dashoffset: 0; stroke-linejoin: miter; stroke-miterlimit: 4; fill: rgb(255,129,0); fill-rule: nonzero; opacity: 1;" vector-effect="non-scaling-stroke"  transform=" translate(-37.59, -37.59)" d="M 35.925 49.586 C 34.86 49.599 33.724999999999994 49.608 32.809999999999995 49.609 C 33.65264127650183 48.48148074439571 34.47642245735105 47.33998873175803 35.28100000000001 46.18499999999998 C 35.908220244700814 45.395809781399024 36.34303692415117 44.47139636839433 36.550999999999995 43.485 C 36.84852343134375 41.5002846418655 35.50486421475432 39.64183019732871 33.52690458403472 39.302284995246445 C 31.548944953315115 38.962739793164175 29.66241425822574 40.26668570815831 29.280999999999995 42.237 C 29.16363949066095 42.83374367219218 29.552256327807825 43.41263949066096 30.148999999999997 43.53 C 30.74574367219217 43.647360509339045 31.324639490660953 43.258743672192175 31.441999999999997 42.662 C 31.60003554085542 41.92801148272674 32.2764050976254 41.4239276505677 33.024944410323094 41.48226522858158 C 33.77348372302079 41.54060280659547 34.363589067828066 42.14338964221752 34.406 42.893 C 34.32872144706252 43.65243643245605 34.002038720248 44.36487906380825 33.477 44.919 C 32.48134618515756 46.35287381457594 31.45273909438207 47.763582599363964 30.39199999999999 49.14999999999999 C 29.606999999999996 50.178 29.191999999999997 51.306 30.416999999999994 51.713 C 30.561999999999994 51.761 34.516999999999996 51.803000000000004 35.952999999999996 51.785000000000004 C 36.56051322481387 51.77726801350237 37.046731986497626 51.27851322481388 37.038999999999994 50.67100000000001 C 37.03126801350237 50.06348677518613 36.53251322481387 49.57726801350237 35.925 49.585 Z M 42.379999999999995 48.757 C 42.379999999999995 49.446 42.37 50.107 42.364999999999995 50.702 C 42.362069651553284 50.99425783921402 42.475570222248926 51.275666542018065 42.68044806174493 51.48410910582765 C 42.88532590124095 51.69255166963724 43.16473509361069 51.81088907192993 43.456999999999994 51.812999999999995 L 43.46699999999999 51.812999999999995 C 44.071402694420634 51.81301598441332 44.5626043442504 51.32538671021868 44.56699999999999 50.721 C 44.56699999999999 50.357 44.57599999999999 49.641999999999996 44.58299999999999 48.757 L 44.81899999999999 48.757 C 45.42651322481386 48.757 45.91899999999999 48.26451322481387 45.91899999999999 47.657 C 45.91899999999999 47.049486775186125 45.42651322481386 46.556999999999995 44.81899999999999 46.556999999999995 L 44.6 46.556999999999995 C 44.615 44.056999999999995 44.623000000000005 41.35699999999999 44.592 40.986999999999995 C 44.561627380752334 40.2380590239712 44.07974796975801 39.582497296534754 43.373999999999995 39.33 C 42.65444758604243 39.14056769727843 41.89311632877453 39.420028567801516 41.467 40.03 C 40.879 40.748000000000005 38.150999999999996 45.646 37.327999999999996 47.13 C 37.14578042180559 47.47178274507395 37.15453102156858 47.883756887311684 37.35109908122826 48.21749393564354 C 37.54766714088794 48.551230983975394 37.90372878142509 48.758642109536964 38.291 48.765 L 42.379999999999995 48.765 Z M 42.407999999999994 42.634 C 42.407999999999994 43.652 42.40299999999999 45.076 42.39399999999999 46.554 L 40.163999999999994 46.554 C 41.00599999999999 45.054 41.82899999999999 43.613 42.407999999999994 42.633 Z M 50.78099999999999 45.534 C 50.7809999846699 40.198243068186635 47.56676416188981 35.387897911217756 42.637128842707696 33.346085565465444 C 37.70749352352558 31.304273219713124 32.033300682177774 32.43310804058554 28.260493782496564 36.20620095398063 C 24.487686882815353 39.97929386737571 23.359282205263995 45.653572265312924 25.401468243008956 50.58305278790695 C 27.44365428075392 55.51253331050098 32.254243083516734 58.72640446914281 37.59 58.726 C 44.87192313729424 58.71718278892742 50.77273480526075 52.815923784772004 50.781000000000006 45.534000000000006 Z M 26.59999999999999 45.534 C 26.60000002512843 39.46507306438754 31.519739764178695 34.545184124770415 37.58866669699962 34.54500005055468 C 43.65759362982054 34.544815976338946 48.57763180621893 39.464406469554774 48.57799997977867 45.53333339399955 C 48.57836815333842 51.60226031844432 43.658926910484006 56.52244772709659 37.58999999999998 56.522999999999996 C 31.52306572942237 56.51748763389739 26.606064432530307 51.60093374385672 26.6 45.534 Z M 71.16699999999999 35.787 L 71.16699999999999 33.223 C 71.15246606494259 22.437582490951414 65.91025694920035 12.328478865884591 57.10330057093812 6.102488066730899 C 48.296344192675896 -0.12350273242279286 37.017637627598134 -1.6936972217716857 26.844999999999978 1.8900000000000077 C 26.27145228730072 2.092688503187902 25.970811496812097 2.7219522873007223 26.1735 3.2955000000000014 C 26.3761885031879 3.86904771269928 27.005452287300724 4.169688503187902 27.579 3.9669999999999996 C 37.07782610869047 0.6089007768187509 47.61561770484828 2.06990212193994 55.842555996235305 7.885571832779811 C 64.06949428762232 13.70124154361968 68.9620697357486 23.14805487610868 68.965 33.22300000000002 L 68.965 33.973 C 68.04578557082097 33.361672114546536 67.05676388775689 32.862461237860764 66.019 32.486 C 65.62598565092804 17.310713425588062 53.24470577333801 5.194666072068063 38.0644672603278 5.130310946202446 C 22.884228747317593 5.0659558203368285 10.400666175172773 17.076591123571166 9.879000000000005 32.24800000000002 C 8.846944314858082 32.55876231097732 7.8548489676644255 32.9893639112647 6.923000000000001 33.531000000000006 L 6.923000000000005 33.223 C 6.900459152636695 24.991463837048542 10.171836064610762 17.09298804572755 16.00799999999999 11.288000000000018 C 18.09650878632299 9.195799982719041 20.471960387566725 7.4112651157322595 23.063000000000002 5.988000000000007 C 23.577846437977193 5.685576370816502 23.758561094604232 5.028373541792542 23.47072486344837 4.505231868609927 C 23.18288863229251 3.982090195427312 22.53102370445109 3.7829785145865698 22 4.056 C 19.227438019794953 5.579947106986207 16.685663156847767 7.49040287230113 14.450999999999969 9.730000000000036 C 8.200315393914128 15.947288631978342 4.696668468739425 24.406813525414016 4.7209999999999965 33.222999999999985 L 4.721 35.118 C 0.45131398113439225 38.86335774720241 -1.1028185361841123 44.83372654601248 0.7988085854627016 50.18552415470834 C 2.7004357071095155 55.5373217634042 7.673334404407002 59.18847363940286 13.349 59.4 C 13.813516147815303 60.72464824226207 15.0632676702015 61.61206000318671 16.467 61.614 L 18.618 61.614 C 20.43871490097294 61.609602118691384 21.913602118691387 60.13471490097294 21.918 58.314 L 21.918 32.761 C 21.913602118691387 30.94028509902706 20.43871490097294 29.465397881308615 18.618 29.461000000000002 L 16.467 29.461000000000002 C 15.063267670201498 29.462939996813287 13.8135161478153 30.35035175773793 13.348999999999998 31.675 C 12.928999999999998 31.691 12.512999999999998 31.726 12.102999999999998 31.775000000000002 C 12.876713340841826 18.04688391554977 24.24970281864846 7.319923937307159 37.999573060505796 7.349451788971873 C 51.74944330236312 7.378979640636587 63.07625579277058 18.15468745238933 63.791 31.88599999999998 C 63.14291332555417 31.76815413926512 62.487252891938 31.696639698493527 61.82899999999999 31.672000000000004 C 61.36448385218469 30.347351757737933 60.11473232979849 29.45993999681329 58.71099999999999 29.458000000000006 L 56.56099999999999 29.458000000000006 C 54.740285099027055 29.46239788130862 53.26539788130861 30.93728509902706 53.260999999999996 32.758 L 53.260999999999996 46.724000000000004 C 53.260999999999996 47.331513224813875 53.753486775186126 47.824000000000005 54.361 47.824000000000005 C 54.96851322481387 47.824000000000005 55.461 47.331513224813875 55.461 46.724000000000004 L 55.461 32.761 C 55.461 32.469261861176506 55.576892524401956 32.18947255698764 55.783182540694796 31.9831825406948 C 55.989472556987636 31.776892524401962 56.2692618611765 31.661 56.561 31.661 L 58.712 31.661 C 59.0037381388235 31.661 59.28352744301237 31.77689252440196 59.48981745930521 31.9831825406948 C 59.69610747559805 32.18947255698764 59.812000000000005 32.469261861176506 59.812000000000005 32.761 L 59.812000000000005 58.30800000000001 C 59.812000000000005 58.599738138823504 59.69610747559805 58.87952744301237 59.48981745930521 59.08581745930521 C 59.28352744301237 59.29210747559805 59.0037381388235 59.40800000000001 58.712 59.40800000000001 L 56.56100000000001 59.40800000000001 C 56.26926186117651 59.40800000000001 55.98947255698764 59.29210747559805 55.7831825406948 59.08581745930521 C 55.57689252440196 58.87952744301237 55.461000000000006 58.599738138823504 55.461000000000006 58.30800000000001 L 55.461000000000006 51.86300000000001 C 55.461000000000006 51.255486775186135 54.968513224813876 50.763000000000005 54.361000000000004 50.763000000000005 C 53.75348677518613 50.763000000000005 53.261 51.255486775186135 53.261 51.86300000000001 L 53.261 58.30800000000001 C 53.26476672379042 60.1204108333477 54.72665490704395 61.59211034669018 56.539 61.608000000000004 L 56.539 64.908 C 56.539 67.17236747430626 54.70336747430625 69.008 52.439 69.008 L 44.781 69.008 C 44.245203762934324 66.68970360617679 42.17940538603828 65.0485945563118 39.79999999999999 65.051 L 34.933 65.051 C 32.13595388448194 65.051 29.868499999999997 67.31845388448195 29.868499999999997 70.1155 C 29.868499999999997 72.91254611551805 32.13595388448194 75.18 34.933 75.18 L 39.8 75.18 C 42.1826872528256 75.18362943069985 44.25126527071686 73.53914102851269 44.785 71.21700000000001 L 52.440999999999995 71.21700000000001 C 55.91856661349324 71.21259243244434 58.73659243244431 68.39456661349327 58.74099999999999 64.91700000000002 L 58.74099999999999 61.61700000000002 C 60.13494223699109 61.602683304062566 61.3703180202495 60.71604422621086 61.83 59.4 C 67.32771247484911 59.19503022163968 72.18426562533185 55.75915496646027 74.20759338366474 50.64319954752706 C 76.23092114199765 45.52724412859385 75.03828648628942 39.69895365448211 71.16799999999999 35.789 Z M 15.36699999999999 32.760999999999996 C 15.36699999999999 32.4692618611765 15.482892524401949 32.18947255698763 15.689182540694787 31.98318254069479 C 15.895472556987626 31.776892524401955 16.17526186117649 31.660999999999994 16.46699999999999 31.660999999999994 L 18.61799999999999 31.660999999999994 C 18.90973813882349 31.660999999999994 19.189527443012356 31.77689252440195 19.395817459305196 31.98318254069479 C 19.602107475598032 32.18947255698763 19.717999999999993 32.4692618611765 19.717999999999993 32.760999999999996 L 19.717999999999993 58.30799999999999 C 19.717999999999993 58.59973813882349 19.602107475598032 58.87952744301236 19.395817459305196 59.0858174593052 C 19.189527443012356 59.29210747559804 18.909738138823492 59.407999999999994 18.61799999999999 59.407999999999994 L 16.46699999999999 59.407999999999994 C 15.859486775186118 59.407999999999994 15.366999999999992 58.915513224813864 15.366999999999992 58.30799999999999 Z M 13.166999999999991 33.88399999999999 L 13.166999999999991 57.184 C 7.016709814232486 56.79734306310969 2.2264131347811897 51.69643238956773 2.2264131347811897 45.534 C 2.2264131347811897 39.371567610432265 7.016709814232482 34.270656936890305 13.166999999999986 33.884 Z M 39.8 72.977 L 34.933 72.977 C 33.89793395366152 72.99635040940439 32.93310410728005 72.45522327338037 32.40990443060646 71.56191579162757 C 31.88670475393287 70.66860830987477 31.88670475393287 69.56239169012524 32.40990443060646 68.66908420837244 C 32.93310410728005 67.77577672661964 33.89793395366152 67.23464959059562 34.933 67.254 L 39.8 67.254 C 40.835066046338476 67.23464959059562 41.799895892719945 67.77577672661964 42.32309556939354 68.66908420837244 C 42.84629524606712 69.56239169012524 42.84629524606713 70.66860830987477 42.32309556939354 71.56191579162757 C 41.799895892719945 72.45522327338037 40.835066046338476 72.99635040940439 39.8 72.977 Z M 62.016 57.185 L 62.016 33.885000000000005 C 68.16629018576751 34.27165693689031 72.9565868652188 39.37256761043227 72.9565868652188 45.535 C 72.9565868652188 51.69743238956774 68.16629018576751 56.7983430631097 62.016000000000005 57.185 Z" stroke-linecap="round" />
</g>
</svg>