<svg xmlns="http://www.w3.org/2000/svg" width="41.67" height="46.309" viewBox="0 0 41.67 46.309">
  <g id="Page-1" transform="translate(-0.054 0.014)">
    <g id="_021---Brain-Profile" data-name="021---Brain-Profile" transform="translate(0.054 -0.014)">
      <path id="Shape" d="M37.6,21.368a4.692,4.692,0,0,0,1.086,2.509c2.424,2.615,3.117,3.516,3.032,4.448a2.238,2.238,0,0,1-1.125,1.52,5.614,5.614,0,0,1-.8.463c-.332.17-.887.454-.926.658a1.319,1.319,0,0,0,.085.775c.115.242.231.45.335.632.3.532.755,1.338.042,1.938-.166.147-.451.372-.711.571A1.946,1.946,0,0,1,38.862,36a1.1,1.1,0,0,1-.453.75,5.743,5.743,0,0,1-.54.333c-.452.259-.629.38-.69.617a1.64,1.64,0,0,0,.065.874,4.37,4.37,0,0,1-.123,2.752,2.855,2.855,0,0,1-3.357,2.041,62.581,62.581,0,0,1-6.491-1.947,8.066,8.066,0,0,0-2.807,4.3,2.325,2.325,0,0,1-2.194,1.573H6.711A2.315,2.315,0,0,1,4.64,43.949a21.16,21.16,0,0,0,1.775-6.773,13.075,13.075,0,0,0-1-6.776,16.854,16.854,0,0,0-2.039-3.234C1.846,25.1.115,22.767.059,18.788a23.164,23.164,0,0,1,.8-6.554A12.792,12.792,0,0,1,5.466,5.6C11.546.814,16.784-.063,26.223,2.114c2.562.591,5.463,1.493,7.553,3.7a14.652,14.652,0,0,1,3.087,5.048,20.363,20.363,0,0,1,.694,2.524l.062.267a10.51,10.51,0,0,0,.681,1.809,4.638,4.638,0,0,1,.635,2.315A2.951,2.951,0,0,1,37.813,19.5c-.378.346-.626.59-.628.812a1.43,1.43,0,0,0,.148.358,2.41,2.41,0,0,1,.266.7ZM13.756,23.357a.772.772,0,0,1,.965-.512,5.9,5.9,0,0,0,1.332.245,5.686,5.686,0,0,0,2.557-.386.813.813,0,0,1,.866.215A3.3,3.3,0,0,0,24.8,19.056a.772.772,0,1,1,1.323-.794,4.8,4.8,0,0,1,.441.992,1.164,1.164,0,0,0,1.1-1.136V18.1a.763.763,0,0,1,.772-.762.779.779,0,0,1,.772.781,2.683,2.683,0,0,1-2.392,2.662,4.846,4.846,0,0,1-.07.772,4.717,4.717,0,0,0,5.335-6.458,3.142,3.142,0,0,1-.575.458.772.772,0,0,1-.8-1.323,1.63,1.63,0,0,0,.7-.866,1.6,1.6,0,0,0,.09-.53,1.629,1.629,0,0,0-1.62-1.63,1.6,1.6,0,0,0-1.3.654.772.772,0,1,1-1.238-.921A3.117,3.117,0,0,1,29.532,9.7a2.346,2.346,0,0,0-2.288-1.857,2.283,2.283,0,0,0-.281.032c.058.159.119.317.161.481a.772.772,0,0,1-1.493.386,3.768,3.768,0,0,0-.4-.957,3.81,3.81,0,0,0-3.256-1.86,3.745,3.745,0,0,0-2.043.617,3.137,3.137,0,0,1,.181,1.011.772.772,0,1,1-1.543,0,1.623,1.623,0,0,0-3.246,0,.772.772,0,0,1-1.543,0c0-.06.015-.116.018-.175a5.009,5.009,0,0,0-4.57,3.863,3.14,3.14,0,0,1,1,.5A.772.772,0,1,1,9.3,12.976a1.627,1.627,0,0,0-2.387,2.1,1.656,1.656,0,0,0,.732.675.772.772,0,0,1-.656,1.4,3.175,3.175,0,0,1-.577-.36,3.3,3.3,0,0,0,.657,3.3l.014.015a3.335,3.335,0,0,0,3.94.722,3.122,3.122,0,0,0,.374-.231,2.629,2.629,0,0,1-.206-2.715.772.772,0,0,1,1.381.689,1.147,1.147,0,0,0,.372,1.455,1.163,1.163,0,0,0,1.675-.427A.772.772,0,1,1,16,20.288a2.657,2.657,0,0,1-3.372,1.3,4.63,4.63,0,0,1-.9.617,4.759,4.759,0,0,1-3.565.329,4.919,4.919,0,0,0,3.178,1.949.772.772,0,0,1-.121,1.534.747.747,0,0,1-.123-.01,6.347,6.347,0,0,1-1.368-.4,6.893,6.893,0,0,0-.575,1.326.772.772,0,0,0-.04.248.833.833,0,0,0,.505.765.87.87,0,0,0,1-.269,4.938,4.938,0,0,1,2.259-1.5c1.667-.558,2.311-1.057,2.584-1.6a7.323,7.323,0,0,1-1.183-.248.772.772,0,0,1-.512-.968Zm-.833,9.337c-.057-.326-.127-.657-.2-.991a11.644,11.644,0,0,1-.35-3.575,3.215,3.215,0,0,0-.592.54,2.474,2.474,0,0,1-1.374.823,17.425,17.425,0,0,0,.323,1.894c.077.352.146.7.207,1.043.849,4.732-.435,9.311-1.867,13.324h1.863c1.436-3.947,2.808-8.484,1.994-13.053Zm23.85-14.335c.309-.286.6-.556.638-.793a4.994,4.994,0,0,0-.515-1.471A11.754,11.754,0,0,1,36.121,14l-.062-.269a19.323,19.323,0,0,0-.643-2.338,13.135,13.135,0,0,0-2.762-4.52c-1.8-1.909-4.321-2.7-6.777-3.262-10.067-2.32-14.45-.743-19.46,3.2a11.132,11.132,0,0,0-4.069,5.843A21.605,21.605,0,0,0,1.6,18.766c.049,3.479,1.487,5.423,3.009,7.485a18.269,18.269,0,0,1,2.213,3.536,14.613,14.613,0,0,1,1.123,7.577,22.582,22.582,0,0,1-1.929,7.284.772.772,0,0,0,.694,1.1h.718c1.436-3.946,2.808-8.483,1.994-13.054-.057-.328-.127-.66-.2-1a16.288,16.288,0,0,1-.373-2.423,2.37,2.37,0,0,1-1.288-2.1,2.3,2.3,0,0,1,.117-.73,8.339,8.339,0,0,1,.681-1.57A6.507,6.507,0,0,1,5.8,20.954a4.774,4.774,0,0,1-.427-5.546A3.155,3.155,0,0,1,7.66,11.182a6.565,6.565,0,0,1,6.414-5.36c.077,0,.146.01.22.012A3.139,3.139,0,0,1,19.1,5.241a5.3,5.3,0,0,1,2.88-.857,5.355,5.355,0,0,1,4.212,2.074A3.844,3.844,0,0,1,31.1,9.912,3.119,3.119,0,0,1,32.969,13.5a6.263,6.263,0,0,1-6.713,9.535,4.834,4.834,0,0,1-7.577,1.279,7.413,7.413,0,0,1-1.611.314c-.333,1.235-1.216,2.043-2.957,2.733a7.675,7.675,0,0,0,.132,4.033c.073.35.146.694.206,1.039.842,4.73-.442,9.31-1.874,13.322h9.7a.782.782,0,0,0,.735-.534,11.373,11.373,0,0,1,2.533-4.4l-.576-.2c-.57-.2-1-.352-1.216-.42-3.3-1.039-4.952-2.542-4.906-4.469a.752.752,0,0,1,.789-.753.772.772,0,0,1,.754.789c-.019.8.63,1.955,3.828,2.962.226.071.672.228,1.263.435.553.194,1.235.435,1.987.694h0a63.92,63.92,0,0,0,6.611,2,1.367,1.367,0,0,0,1.585-1.036,2.837,2.837,0,0,0,.077-1.89,3.1,3.1,0,0,1-.059-1.6,2.546,2.546,0,0,1,1.42-1.58l.164-.095a2.826,2.826,0,0,0-.3-.479.772.772,0,0,1,.148-1.095c.185-.137.625-.468.941-.721-.039-.073-.084-.154-.124-.225-.118-.209-.254-.451-.386-.727a2.855,2.855,0,0,1-.208-1.725c.179-.947,1.08-1.408,1.741-1.745a4.5,4.5,0,0,0,.583-.329,4.281,4.281,0,0,0,.51-.418c-.013-.446-1.711-2.277-2.624-3.261a6.173,6.173,0,0,1-1.477-3.3,1.95,1.95,0,0,0-.117-.258,2.27,2.27,0,0,1-.316-1.074,2.7,2.7,0,0,1,1.132-1.938Z" transform="translate(-0.054 -0.986)" fill="#fff"/>
      <path id="Shape-2" data-name="Shape" d="M25.428,18.3a.772.772,0,1,1,1.515-.29,3.079,3.079,0,0,0,1.278,1.959,3.151,3.151,0,0,0,4.062-.459.772.772,0,0,1,1.145,1.035,4.647,4.647,0,0,1-2.469,1.425,2.3,2.3,0,0,0,1.878.969.772.772,0,1,1,0,1.543,3.827,3.827,0,0,1-3.6-2.475,4.656,4.656,0,0,1-3.81-3.7Z" transform="translate(-11.525 -4.728)" fill="#fff"/>
      <path id="Shape-3" data-name="Shape" d="M21.255,14.162a.772.772,0,0,1,.772-.772,3.554,3.554,0,0,1,3.549,3.549.772.772,0,0,1-1.543,0,2.006,2.006,0,0,0-2.006-2.006A.772.772,0,0,1,21.255,14.162Z" transform="translate(-0.266 -3.819)" fill="#fff"/>
    </g>
  </g>
</svg>
