<svg xmlns="http://www.w3.org/2000/svg" width="33.101" height="46.308" viewBox="0 0 33.101 46.308">
  <g id="heart_1_" data-name="heart (1)" transform="translate(-0.002)">
    <path id="Path_366" data-name="Path 366" d="M335.027,300.83l0,.006a.892.892,0,1,0,0-.006Zm0,0" transform="translate(-304.651 -272.459)" fill="#fff"/>
    <path id="Path_367" data-name="Path 367" d="M32.871,31.007a.9.9,0,1,0-1.786.283,17.128,17.128,0,0,1,.165,3.892,10.22,10.22,0,0,1-4.172,7.533l-.612.447a6.949,6.949,0,0,1-5.7,1.152l-2.4-.566a22.5,22.5,0,0,1-11.9-7.238,13.026,13.026,0,0,1-2.429-3.935.9.9,0,0,0,.033-.385c0-.039-.45-3.945,5.059-6.453A12.76,12.76,0,0,0,15.3,19.807c4.142.572,5.568,1.738,5.674,1.829a.848.848,0,0,0,.833.236l.224-.049a6.407,6.407,0,0,1,7.109,3.669.9.9,0,1,0,1.652-.738,8.286,8.286,0,0,0-3.3-3.717.094.094,0,0,1,0-.009,6.04,6.04,0,0,0,.275-1.806c0-.123,0-.246-.012-.367h.627a.9.9,0,0,0,0-1.809H27.358A6.046,6.046,0,0,0,26.4,15.4l.409-.409a.9.9,0,0,0-1.279-1.279l-.473.473a6.007,6.007,0,0,0-2.489-.946,6.91,6.91,0,0,1,4.691-1.347.9.9,0,0,0,.935-.9V7.544a.9.9,0,0,0-.83-.9,21.82,21.82,0,0,0-4.042.124,9.137,9.137,0,0,0-3.965-4.106L20,1.705A.9.9,0,0,0,18.494.7l-.916,1.368a6.463,6.463,0,0,0-1.885-.073V.9a.9.9,0,0,0-1.809,0V2.451A7.757,7.757,0,0,0,11.5,4.01,9.785,9.785,0,0,0,10.02,5.787a2.057,2.057,0,0,0-1.834-1.13H5.731A2.058,2.058,0,0,0,3.675,6.713v9.246a9.519,9.519,0,0,0-1.314,1.247A10.923,10.923,0,0,0,0,24.518,13.538,13.538,0,0,0,1.5,30.831c.136.365.259.718.378,1.059A15.55,15.55,0,0,0,5.1,37.681a24.316,24.316,0,0,0,12.861,7.827l2.4.566a8.758,8.758,0,0,0,7.178-1.451l.612-.447a12.025,12.025,0,0,0,4.91-8.864,18.918,18.918,0,0,0-.183-4.3ZM21.834,20.018a8.843,8.843,0,0,0-1.957-.978,10.076,10.076,0,0,1,1.177-4,4.316,4.316,0,0,1,.669-.053,4.234,4.234,0,0,1,4.1,5.291,8.121,8.121,0,0,0-3.988-.262Zm4.551-11.6V10.09a8.1,8.1,0,0,0-5.5,2.23A10.443,10.443,0,0,0,18.113,18.5a25.191,25.191,0,0,0-3.108-.556q-.412-.382-.821-.722c0-.022,0-.043,0-.066a7.554,7.554,0,0,1,2.333-5.813C19.463,8.63,24.426,8.4,26.385,8.416Zm-10-4.651a4.751,4.751,0,0,1,1.334.194h0a6.634,6.634,0,0,1,3.706,3.123A13.059,13.059,0,0,0,15.3,10.01a8.992,8.992,0,0,0-2.863,5.943A10.693,10.693,0,0,0,10.241,14.9V9.666a.99.99,0,0,0,.041-.112c1-3.462,3.45-5.789,6.1-5.789ZM5.484,6.713a.247.247,0,0,1,.247-.247H8.186a.247.247,0,0,1,.247.247v7.793a6.832,6.832,0,0,0-.9-.02,6.388,6.388,0,0,0-2.046.431ZM3.722,18.4a5.5,5.5,0,0,1,3.888-2.1c1.8-.081,3.87.9,6.005,2.832A11.083,11.083,0,0,1,8.39,24.09a10.217,10.217,0,0,0-5.569,5.228l-.031.076c-1.143-2.533-1.758-7.928.932-11Zm0,0" transform="translate(0 0)" fill="#fff"/>
    <path id="Path_368" data-name="Path 368" d="M111.918,400.073a.9.9,0,0,0-1.155,1.392,20.84,20.84,0,0,0,8.474,4.221.9.9,0,1,0,.416-1.76A19.026,19.026,0,0,1,111.918,400.073Zm0,0" transform="translate(-100.446 -363.698)" fill="#fff"/>
    <path id="Path_369" data-name="Path 369" d="M84.715,374.425a.911.911,0,1,0,1.3.115l-.018-.022A.907.907,0,0,0,84.715,374.425Zm0,0" transform="translate(-76.766 -340.36)" fill="#fff"/>
  </g>
</svg>
