<svg xmlns="http://www.w3.org/2000/svg" width="49.58" height="49.602" viewBox="0 0 49.58 49.602">
  <g id="Group_480" data-name="Group 480" transform="translate(-1179 -1159.199)">
    <path id="Path_415" data-name="Path 415" d="M7.777-511.6a8.933,8.933,0,0,0-7.054,6.559L.5-504.23v34.638l.223.815a8.959,8.959,0,0,0,6.443,6.433l.805.223H25.29c16.194,0,17.358-.01,17.979-.175a9.048,9.048,0,0,0,6.588-6.491l.223-.805V-504.23l-.223-.815a9.034,9.034,0,0,0-6.4-6.443l-.747-.213-17.125-.019C11.871-511.73,8.32-511.711,7.777-511.6ZM42.5-508.693a6.158,6.158,0,0,1,4.57,4.57c.126.572.146,3.1.146,17.212,0,18.338.039,17.222-.65,18.619a6.228,6.228,0,0,1-4.065,3.163c-1,.213-33.425.213-34.425,0a6.158,6.158,0,0,1-4.57-4.57c-.213-1-.213-33.425,0-34.425a6.184,6.184,0,0,1,4.531-4.57C8.98-508.9,41.532-508.9,42.5-508.693Z" transform="translate(1178.5 1670.922)" fill="#9fa1a1"/>
    <path id="Path_416" data-name="Path 416" d="M72.875-431.815a4.662,4.662,0,0,0-3.347,2.474l-.252.514-1.911.039c-2.125.039-2.377.1-2.736.689a1.32,1.32,0,0,0-.116,1.368c.349.776.524.834,2.785.834h1.95l.262.553a4.578,4.578,0,0,0,6.588,1.863,5.067,5.067,0,0,0,1.6-1.8l.281-.563L89.33-425.9c12.827-.058,11.7.019,12.089-.844a1.432,1.432,0,0,0-.621-1.843c-.3-.165-.951-.175-11.585-.2l-11.265-.019-.233-.514a5.743,5.743,0,0,0-2.018-2.047,5.812,5.812,0,0,0-2.1-.534C73.447-431.893,73.117-431.854,72.875-431.815Zm1.669,3.153a1.523,1.523,0,0,1,.7,1.358,1.625,1.625,0,0,1-2.756,1.184,1.44,1.44,0,0,1-.5-1.2A1.618,1.618,0,0,1,74.544-428.662Z" transform="translate(1120.825 1598.846)" fill="#9fa1a1"/>
    <path id="Path_417" data-name="Path 417" d="M91.24-302.778a4.663,4.663,0,0,0-2.872,2.358l-.281.592-11.323.019c-11.274.029-11.333.029-11.595.233a1.366,1.366,0,0,0-.669,1.2,1.366,1.366,0,0,0,.669,1.2c.262.2.32.2,11.595.233l11.323.019.281.592a4.975,4.975,0,0,0,1.853,1.95,4.9,4.9,0,0,0,3.241.456,4.942,4.942,0,0,0,3.066-2.455l.243-.534,1.979-.029c2.164-.029,2.222-.049,2.707-.7a1.394,1.394,0,0,0,0-1.475c-.485-.65-.543-.669-2.707-.7l-1.979-.029-.243-.534a5.472,5.472,0,0,0-1.853-1.979A4.74,4.74,0,0,0,91.24-302.778Zm2.164,3.085a1.524,1.524,0,0,1,.66,1.32,1.551,1.551,0,0,1-.65,1.32,1.658,1.658,0,0,1-2.581-.931,1.713,1.713,0,0,1,.931-1.9A1.8,1.8,0,0,1,93.4-299.693Z" transform="translate(1120.71 1482.384)" fill="#9fa1a1"/>
    <path id="Path_418" data-name="Path 418" d="M79-174.444a4.771,4.771,0,0,0-3.3,2.455l-.32.64H70.329c-4.9,0-5.065.01-5.375.194a1.635,1.635,0,0,0-.66,1.4,1.68,1.68,0,0,0,.757,1.1c.291.165.728.175,5.375.2l5.045.029.126.33a4.86,4.86,0,0,0,1.543,1.882,4.542,4.542,0,0,0,4.774.291,5.225,5.225,0,0,0,1.941-2.018l.223-.485,8.16-.029c7.646-.029,8.179-.039,8.48-.2a1.68,1.68,0,0,0,.757-1.1,1.635,1.635,0,0,0-.66-1.4c-.31-.194-.456-.194-8.49-.194H84.145l-.3-.6A4.631,4.631,0,0,0,79-174.444Zm1.29,2.94a1.461,1.461,0,0,1,.951.883,1.457,1.457,0,0,1-.01,1.4,1.61,1.61,0,0,1-2.523.534,1.5,1.5,0,0,1-.582-1.252,1.586,1.586,0,0,1,1.135-1.552A1.161,1.161,0,0,1,80.294-171.5Z" transform="translate(1120.906 1366.42)" fill="#9fa1a1"/>
  </g>
</svg>
