<svg id="kidneys" xmlns="http://www.w3.org/2000/svg" width="46.309" height="46.309" viewBox="0 0 46.309 46.309">
  <g id="Group_422" data-name="Group 422" transform="translate(0)">
    <g id="Group_421" data-name="Group 421" transform="translate(0)">
      <path id="Path_340" data-name="Path 340" d="M283.633,108.629l-.255-.424a8.7,8.7,0,0,0-6.53-4.148,7.636,7.636,0,0,0-.9-.058,7.466,7.466,0,0,0-5.933,12,7.357,7.357,0,0,0-1.19,2.28l-2.421,2.422a8.329,8.329,0,0,0-.913,1.095v-2.861H264v6.722h.046a8.3,8.3,0,0,0-.046.854V140.6h1.494V126.514a6.678,6.678,0,0,1,1.969-4.753l1.031-1.031a7.332,7.332,0,0,0,.346,2.023l-.32.32a5.189,5.189,0,0,0-1.532,3.7V140.6h1.494V126.77a3.7,3.7,0,0,1,1.022-2.554,7.477,7.477,0,0,0,6.447,3.685,7.606,7.606,0,0,0,.886-.056,8.7,8.7,0,0,0,6.541-4.149l.255-.424a14.23,14.23,0,0,0,0-14.642ZM282.352,122.5l-.255.424a7.207,7.207,0,0,1-5.425,3.433,6.051,6.051,0,0,1-.721.048,5.952,5.952,0,0,1-5.975-5.915,5.833,5.833,0,0,1,1.082-3.384,7.44,7.44,0,0,0,4.893,1.83v-1.494a5.974,5.974,0,1,1,.733-11.9,7.2,7.2,0,0,1,5.414,3.431l.255.424a12.734,12.734,0,0,1,0,13.1Z" transform="translate(-239.352 -94.29)" fill="#fff"/>
      <path id="Path_341" data-name="Path 341" d="M397.12,139.18l-.255-.426a5.691,5.691,0,0,0-4.276-2.712A5.055,5.055,0,0,0,392,136v1.494a3.58,3.58,0,0,1,.426.033,4.2,4.2,0,0,1,3.158,2l.255.426a9.742,9.742,0,0,1,.985,2.241l1.433-.426A11.207,11.207,0,0,0,397.12,139.18Z" transform="translate(-355.401 -123.302)" fill="#fff"/>
      <path id="Path_342" data-name="Path 342" d="M448.416,214.864l-1.48.211a9.816,9.816,0,0,1,.1,1.389h1.494A11.461,11.461,0,0,0,448.416,214.864Z" transform="translate(-405.208 -194.803)" fill="#fff"/>
      <path id="Path_343" data-name="Path 343" d="M106.988,140.481a2.994,2.994,0,0,1-.967,2.2l1.011,1.1A4.48,4.48,0,0,0,104,136v1.494A2.991,2.991,0,0,1,106.988,140.481Z" transform="translate(-94.29 -123.302)" fill="#fff"/>
      <path id="Path_344" data-name="Path 344" d="M105.194,213.328a2.949,2.949,0,0,1-1.194.249v1.494a4.437,4.437,0,0,0,1.793-.375Z" transform="translate(-94.29 -193.411)" fill="#fff"/>
      <rect id="Rectangle_126" data-name="Rectangle 126" width="1" height="22" transform="translate(25.154 0.154)" fill="#fff"/>
      <path id="Path_345" data-name="Path 345" d="M20.167,27.509a8.329,8.329,0,0,0-.913-1.095l-2.421-2.421a7.376,7.376,0,0,0-1.19-2.281,7.466,7.466,0,0,0-5.933-12,7.631,7.631,0,0,0-.887.056,8.7,8.7,0,0,0-6.541,4.149l-.255.424a14.232,14.232,0,0,0,0,14.642l.255.424a8.694,8.694,0,0,0,6.53,4.148,7.636,7.636,0,0,0,.9.058,7.477,7.477,0,0,0,6.447-3.685,3.7,3.7,0,0,1,1.023,2.554V46.309h1.494V32.48a5.2,5.2,0,0,0-1.532-3.7l-.32-.32a7.306,7.306,0,0,0,.346-2.023L18.2,27.47a6.681,6.681,0,0,1,1.969,4.753V46.309H21.66V32.224a8.313,8.313,0,0,0-.046-.854h.046V0H20.167ZM8.977,32.069a7.2,7.2,0,0,1-5.414-3.431l-.255-.425a12.733,12.733,0,0,1,0-13.1l.255-.424a7.207,7.207,0,0,1,5.425-3.433A6.054,6.054,0,0,1,9.71,11.2a5.975,5.975,0,0,1,0,11.951v1.494A7.44,7.44,0,0,0,14.6,22.817,5.845,5.845,0,0,1,15.685,26.2,5.971,5.971,0,0,1,8.977,32.069Z" transform="translate(0)" fill="#fff"/>
    </g>
  </g>
</svg>
