<svg xmlns="http://www.w3.org/2000/svg" width="26.348" height="26.289" viewBox="0 0 26.348 26.289">
  <g id="call-answer" transform="translate(0 -0.394)">
    <g id="Group_463" data-name="Group 463" transform="translate(0 0.394)">
      <g id="Group_462" data-name="Group 462" transform="translate(0 0)">
        <path id="Path_423" data-name="Path 423" d="M25.757,21.186l-4.069-4.069a2.122,2.122,0,0,0-2.991.056l-2.05,2.05-.4-.225a20.4,20.4,0,0,1-4.931-3.566,20.514,20.514,0,0,1-3.574-4.94c-.076-.137-.149-.27-.221-.4L8.893,8.723l.676-.677a2.12,2.12,0,0,0,.055-2.992L5.555.984a2.119,2.119,0,0,0-2.991.056L1.417,2.194l.031.031A6.632,6.632,0,0,0,.5,3.892a6.911,6.911,0,0,0-.42,1.691c-.537,4.454,1.5,8.525,7.022,14.049,7.636,7.635,13.789,7.059,14.055,7.03a6.875,6.875,0,0,0,1.7-.426,6.609,6.609,0,0,0,1.661-.941l.025.022L25.7,24.18A2.124,2.124,0,0,0,25.757,21.186Z" transform="translate(0 -0.394)" fill="#2c704f"/>
      </g>
    </g>
  </g>
</svg>
