<svg id="mail_1_" data-name="mail (1)" xmlns="http://www.w3.org/2000/svg" width="28.754" height="21.903" viewBox="0 0 28.754 21.903">
  <g id="Group_454" data-name="Group 454" transform="translate(1.445 0)">
    <g id="Group_453" data-name="Group 453">
      <path id="Path_419" data-name="Path 419" d="M50.5,61H26.8a2.5,2.5,0,0,0-1.083.253L38.6,74.13l2.886-2.774h0l10.1-10.1A2.5,2.5,0,0,0,50.5,61Z" transform="translate(-25.721 -61)" fill="#2c704f"/>
    </g>
  </g>
  <g id="Group_456" data-name="Group 456" transform="translate(18.994 1.445)">
    <g id="Group_455" data-name="Group 455">
      <path id="Path_420" data-name="Path 420" d="M347.72,86.728l-9.507,9.507,9.507,9.507a2.5,2.5,0,0,0,.253-1.083V87.81A2.5,2.5,0,0,0,347.72,86.728Z" transform="translate(-338.213 -86.728)" fill="#2c704f"/>
    </g>
  </g>
  <g id="Group_458" data-name="Group 458" transform="translate(0 1.445)">
    <g id="Group_457" data-name="Group 457">
      <path id="Path_421" data-name="Path 421" d="M.253,86.721A2.5,2.5,0,0,0,0,87.8v16.848a2.5,2.5,0,0,0,.253,1.082L9.76,96.228Z" transform="translate(0 -86.721)" fill="#2c704f"/>
    </g>
  </g>
  <g id="Group_460" data-name="Group 460" transform="translate(1.444 12.143)">
    <g id="Group_459" data-name="Group 459">
      <path id="Path_422" data-name="Path 422" d="M42.073,277.211l-2.886,2.774a.842.842,0,0,1-1.191,0l-2.774-2.774-9.507,9.507a2.5,2.5,0,0,0,1.083.253H50.5a2.5,2.5,0,0,0,1.083-.253Z" transform="translate(-25.714 -277.211)" fill="#2c704f"/>
    </g>
  </g>
</svg>
