<svg id="calendar_1_" data-name="calendar (1)" xmlns="http://www.w3.org/2000/svg" width="14.423" height="14.423" viewBox="0 0 14.423 14.423">
  <g id="Group_220" data-name="Group 220">
    <g id="Group_219" data-name="Group 219">
      <path id="Path_170" data-name="Path 170" d="M12.733,1.127h-.676V0H10.93V1.127H3.493V0H2.366V1.127H1.69A1.692,1.692,0,0,0,0,2.817v9.916a1.692,1.692,0,0,0,1.69,1.69H12.733a1.692,1.692,0,0,0,1.69-1.69V2.817A1.692,1.692,0,0,0,12.733,1.127ZM13.3,12.733a.564.564,0,0,1-.563.563H1.69a.564.564,0,0,1-.563-.563V5.3H13.3Zm0-8.564H1.127V2.817a.564.564,0,0,1,.563-.563h.676V3.38H3.493V2.254H10.93V3.38h1.127V2.254h.676a.564.564,0,0,1,.563.563Z" fill="#2c704f"/>
    </g>
  </g>
  <g id="Group_222" data-name="Group 222" transform="translate(2 6.999)">
    <g id="Group_221" data-name="Group 221" transform="translate(0 0)">
      <rect id="Rectangle_87" data-name="Rectangle 87" width="1" height="1" transform="translate(0 0.001)" fill="#2c704f"/>
    </g>
  </g>
  <g id="Group_224" data-name="Group 224" transform="translate(4 6.999)">
    <g id="Group_223" data-name="Group 223" transform="translate(0 0)">
      <rect id="Rectangle_88" data-name="Rectangle 88" width="1" height="1" transform="translate(0 0.001)" fill="#2c704f"/>
    </g>
  </g>
  <g id="Group_226" data-name="Group 226" transform="translate(7 6.999)">
    <g id="Group_225" data-name="Group 225" transform="translate(0 0)">
      <rect id="Rectangle_89" data-name="Rectangle 89" width="1" height="1" transform="translate(0 0.001)" fill="#2c704f"/>
    </g>
  </g>
  <g id="Group_228" data-name="Group 228" transform="translate(9 6.999)">
    <g id="Group_227" data-name="Group 227" transform="translate(0 0)">
      <rect id="Rectangle_90" data-name="Rectangle 90" width="1" height="1" transform="translate(0 0.001)" fill="#2c704f"/>
    </g>
  </g>
  <g id="Group_230" data-name="Group 230" transform="translate(11 6.999)">
    <g id="Group_229" data-name="Group 229" transform="translate(0 0)">
      <rect id="Rectangle_91" data-name="Rectangle 91" width="1" height="1" transform="translate(0 0.001)" fill="#2c704f"/>
    </g>
  </g>
  <g id="Group_232" data-name="Group 232" transform="translate(2 9)">
    <g id="Group_231" data-name="Group 231" transform="translate(0)">
      <rect id="Rectangle_92" data-name="Rectangle 92" width="1" height="1" fill="#2c704f"/>
    </g>
  </g>
  <g id="Group_234" data-name="Group 234" transform="translate(4 9)">
    <g id="Group_233" data-name="Group 233" transform="translate(0)">
      <rect id="Rectangle_93" data-name="Rectangle 93" width="1" height="1" fill="#2c704f"/>
    </g>
  </g>
  <g id="Group_236" data-name="Group 236" transform="translate(7 9)">
    <g id="Group_235" data-name="Group 235" transform="translate(0)">
      <rect id="Rectangle_94" data-name="Rectangle 94" width="1" height="1" fill="#2c704f"/>
    </g>
  </g>
  <g id="Group_238" data-name="Group 238" transform="translate(9 9)">
    <g id="Group_237" data-name="Group 237">
      <rect id="Rectangle_95" data-name="Rectangle 95" width="1" height="1" fill="#2c704f"/>
    </g>
  </g>
  <g id="Group_240" data-name="Group 240" transform="translate(2 11)">
    <g id="Group_239" data-name="Group 239" transform="translate(0)">
      <rect id="Rectangle_96" data-name="Rectangle 96" width="1" height="1" fill="#2c704f"/>
    </g>
  </g>
  <g id="Group_242" data-name="Group 242" transform="translate(4 11)">
    <g id="Group_241" data-name="Group 241" transform="translate(0)">
      <rect id="Rectangle_97" data-name="Rectangle 97" width="1" height="1" fill="#2c704f"/>
    </g>
  </g>
  <g id="Group_244" data-name="Group 244" transform="translate(7 11)">
    <g id="Group_243" data-name="Group 243" transform="translate(0)">
      <rect id="Rectangle_98" data-name="Rectangle 98" width="1" height="1" fill="#2c704f"/>
    </g>
  </g>
  <g id="Group_246" data-name="Group 246" transform="translate(9 11)">
    <g id="Group_245" data-name="Group 245">
      <rect id="Rectangle_99" data-name="Rectangle 99" width="1" height="1" fill="#2c704f"/>
    </g>
  </g>
  <g id="Group_248" data-name="Group 248" transform="translate(11 9)">
    <g id="Group_247" data-name="Group 247" transform="translate(0)">
      <rect id="Rectangle_100" data-name="Rectangle 100" width="1" height="1" fill="#2c704f"/>
    </g>
  </g>
</svg>
