<svg id="phone_6_" data-name="phone (6)" xmlns="http://www.w3.org/2000/svg" width="29.621" height="29.619" viewBox="0 0 29.621 29.619">
  <g id="Group_268" data-name="Group 268" transform="translate(0 0)">
    <g id="Group_267" data-name="Group 267">
      <path id="Path_180" data-name="Path 180" d="M29.844,23.868l-6-4a1.75,1.75,0,0,0-2.343.381L19.759,22.5a.746.746,0,0,1-.957.2l-.332-.183A20.077,20.077,0,0,1,13.238,18.4a20.158,20.158,0,0,1-4.11-5.232l-.182-.332a.747.747,0,0,1,.2-.961l2.244-1.746a1.751,1.751,0,0,0,.381-2.343l-4-6a1.741,1.741,0,0,0-2.347-.528L2.916,2.773A3.536,3.536,0,0,0,1.3,4.866C.4,8.155,1.08,13.832,9.443,22.2c6.652,6.652,11.6,8.441,15.009,8.441a8.745,8.745,0,0,0,2.32-.3,3.533,3.533,0,0,0,2.093-1.613l1.508-2.506A1.741,1.741,0,0,0,29.844,23.868Zm-.323,1.841-1.5,2.507a2.551,2.551,0,0,1-1.506,1.167c-3.037.834-8.342.143-16.371-7.885S1.422,8.164,2.256,5.127A2.555,2.555,0,0,1,3.424,3.62l2.507-1.5a.755.755,0,0,1,1.018.229L9.121,5.605l1.823,2.734a.76.76,0,0,1-.165,1.017L8.535,11.1a1.728,1.728,0,0,0-.458,2.217l.178.324A20.94,20.94,0,0,0,12.534,19.1a20.962,20.962,0,0,0,5.459,4.278l.324.179a1.728,1.728,0,0,0,2.217-.458l1.746-2.244a.76.76,0,0,1,1.017-.165l5.995,4A.755.755,0,0,1,29.521,25.709Z" transform="translate(-1 -1.018)" fill="#fff"/>
      <path id="Path_181" data-name="Path 181" d="M283.122,70.311a8.4,8.4,0,0,1,8.391,8.391.494.494,0,0,0,.987,0,9.389,9.389,0,0,0-9.379-9.379.494.494,0,0,0,0,.987Z" transform="translate(-266.337 -65.373)" fill="#fff"/>
      <path id="Path_182" data-name="Path 182" d="M283.122,121.511a5.436,5.436,0,0,1,5.43,5.43.494.494,0,1,0,.987,0,6.424,6.424,0,0,0-6.417-6.417.494.494,0,0,0,0,.987Z" transform="translate(-266.337 -113.611)" fill="#fff"/>
      <path id="Path_183" data-name="Path 183" d="M283.122,172.711a2.471,2.471,0,0,1,2.468,2.468.494.494,0,1,0,.987,0,3.459,3.459,0,0,0-3.455-3.455.494.494,0,0,0,0,.987Z" transform="translate(-266.337 -161.849)" fill="#fff"/>
    </g>
  </g>
</svg>
