<svg id="facebook_2_" data-name="facebook (2)" xmlns="http://www.w3.org/2000/svg" width="19.606" height="19.606" viewBox="0 0 19.606 19.606">
  <g id="Group_109" data-name="Group 109">
    <path id="Path_101" data-name="Path 101" d="M17.309,0H2.3A2.3,2.3,0,0,0,0,2.3V17.309a2.3,2.3,0,0,0,2.3,2.3H17.309a2.3,2.3,0,0,0,2.3-2.3V2.3A2.3,2.3,0,0,0,17.309,0Zm.766,17.309a.767.767,0,0,1-.766.766H12.943V11.833H15.31L15.7,9.459H12.943V7.812a1.129,1.129,0,0,1,1.149-1.149h1.57V4.289h-1.57a3.522,3.522,0,0,0-3.522,3.53v1.64h-2.3v2.374h2.3v6.242H2.3a.767.767,0,0,1-.766-.766V2.3A.767.767,0,0,1,2.3,1.532H17.309a.767.767,0,0,1,.766.766Z" fill="#fff"/>
  </g>
</svg>
