<svg xmlns="http://www.w3.org/2000/svg" width="19.606" height="19.606" viewBox="0 0 19.606 19.606">
  <path id="instagram_3_" data-name="instagram (3)" d="M10,19.608H9.8c-1.537,0-2.957-.035-4.338-.119a5.8,5.8,0,0,1-3.342-1.265,5.365,5.365,0,0,1-1.8-2.91,12.9,12.9,0,0,1-.3-3.08C.013,11.517,0,10.669,0,9.806s.012-1.714.022-2.43a12.9,12.9,0,0,1,.3-3.08,5.365,5.365,0,0,1,1.8-2.91A5.8,5.8,0,0,1,5.464.121C6.845.037,8.265,0,9.8,0s2.957.035,4.338.119a5.8,5.8,0,0,1,3.342,1.265,5.364,5.364,0,0,1,1.8,2.91,12.9,12.9,0,0,1,.3,3.08c.01.716.02,1.564.022,2.426v0c0,.863-.012,1.711-.022,2.426a12.891,12.891,0,0,1-.3,3.08,5.364,5.364,0,0,1-1.8,2.91,5.8,5.8,0,0,1-3.342,1.265c-1.322.08-2.681.12-4.146.12Zm-.2-1.532c1.512,0,2.9-.035,4.249-.117a4.219,4.219,0,0,0,2.467-.923,3.867,3.867,0,0,0,1.287-2.1,11.733,11.733,0,0,0,.248-2.722c.01-.711.02-1.553.022-2.407s-.012-1.7-.022-2.407A11.735,11.735,0,0,0,17.8,4.675a3.867,3.867,0,0,0-1.287-2.1A4.22,4.22,0,0,0,14.05,1.65C12.7,1.568,11.313,1.53,9.8,1.533s-2.9.035-4.248.117a4.22,4.22,0,0,0-2.467.923A3.867,3.867,0,0,0,1.8,4.675,11.735,11.735,0,0,0,1.554,7.4c-.01.712-.02,1.554-.022,2.409s.012,1.694.022,2.405A11.734,11.734,0,0,0,1.8,14.934a3.867,3.867,0,0,0,1.287,2.1,4.22,4.22,0,0,0,2.467.923C6.9,18.041,8.294,18.079,9.8,18.076Zm-.036-3.484A4.787,4.787,0,1,1,14.551,9.8,4.792,4.792,0,0,1,9.765,14.591Zm0-8.042A3.255,3.255,0,1,0,13.02,9.8,3.259,3.259,0,0,0,9.765,6.55Zm5.323-3.064a1.149,1.149,0,1,0,1.149,1.149A1.149,1.149,0,0,0,15.088,3.486Zm0,0" transform="translate(0 -0.001)" fill="#fff"/>
</svg>
