<svg xmlns="http://www.w3.org/2000/svg" width="32.355" height="32.355" viewBox="0 0 32.355 32.355">
  <path id="linkedin_1_" data-name="linkedin (1)" d="M10.111,26.731H5.688V12.449h4.424ZM10.553,7.9A2.591,2.591,0,1,0,7.963,10.49,2.591,2.591,0,0,0,10.553,7.9ZM26.668,18.874c0-3.834-.81-6.677-5.288-6.677a4.59,4.59,0,0,0-4.186,2.2h0V12.449h-4.3V26.731h4.3V19.64c0-1.857.473-3.656,2.775-3.656,2.271,0,2.344,2.124,2.344,3.774v6.973h4.36Zm5.687,9.69V3.792A3.8,3.8,0,0,0,28.563,0H3.792A3.8,3.8,0,0,0,0,3.792V28.563a3.8,3.8,0,0,0,3.792,3.792H28.563A3.8,3.8,0,0,0,32.355,28.563ZM28.563,2.528a1.265,1.265,0,0,1,1.264,1.264V28.563a1.265,1.265,0,0,1-1.264,1.264H3.792a1.265,1.265,0,0,1-1.264-1.264V3.792A1.265,1.265,0,0,1,3.792,2.528Zm0,0" fill="#fff"/>
</svg>
