<svg id="whatsapp_2_" data-name="whatsapp (2)" xmlns="http://www.w3.org/2000/svg" width="19.588" height="19.606" viewBox="0 0 19.588 19.606">
  <path id="Path_102" data-name="Path 102" d="M16.693,2.847a9.8,9.8,0,0,0-13.81,0A9.618,9.618,0,0,0,0,9.712v0a9.668,9.668,0,0,0,1.193,4.589l-1.166,5.3,5.362-1.22a9.814,9.814,0,0,0,4.4,1.046h0a9.767,9.767,0,0,0,6.91-2.845,9.612,9.612,0,0,0-.01-13.74ZM9.793,17.9h0a8.271,8.271,0,0,1-3.932-1L5.6,16.768l-3.565.811.774-3.519L2.665,13.8A8.18,8.18,0,0,1,1.53,9.716,8.261,8.261,0,0,1,15.613,3.931a8.135,8.135,0,0,1,2.444,5.788A8.235,8.235,0,0,1,9.793,17.9Zm0,0" transform="translate(0)" fill="#fff"/>
  <path id="Path_103" data-name="Path 103" d="M140.678,141.863h-.429a.824.824,0,0,0-.6.279,2.5,2.5,0,0,0-.784,1.862,4.336,4.336,0,0,0,.915,2.309,9.182,9.182,0,0,0,3.827,3.37c1.892.744,2.278.6,2.688.559a2.262,2.262,0,0,0,1.512-1.061,1.861,1.861,0,0,0,.131-1.062c-.056-.093-.206-.149-.429-.26s-1.322-.661-1.527-.736-.355-.112-.5.112-.589.74-.72.889-.261.168-.485.056a6.194,6.194,0,0,1-1.794-1.112,6.864,6.864,0,0,1-1.259-1.57c-.131-.223-.014-.344.1-.456s.237-.237.349-.367a1.51,1.51,0,0,0,.219-.372.41.41,0,0,0-.019-.391c-.056-.112-.486-1.216-.685-1.657h0c-.168-.372-.345-.384-.5-.391Zm0,0" transform="translate(-133.549 -136.431)" fill="#fff"/>
</svg>
