<svg version="1.1" id="Layer_1" xmlns="http://www.w3.org/2000/svg" xmlns:xlink="http://www.w3.org/1999/xlink" x="0px" y="0px"
	 width="100%" viewBox="0 0 54 116" enable-background="new 0 0 54 116" xml:space="preserve">
<path fill="#000000" opacity="1.000000" stroke="none" 
	d="
M1.246954,43.246635 
	C1.000000,29.850811 1.051573,16.701206 0.945556,3.552871 
	C0.929264,1.532246 1.202399,0.914959 3.441454,0.932244 
	C19.752134,1.058159 36.065449,1.099971 52.374695,0.901827 
	C55.100536,0.868710 55.036945,1.866035 55.034386,3.868632 
	C54.987381,40.653011 54.975323,77.437523 55.059799,114.221771 
	C55.065002,116.487991 54.729439,117.099327 52.284683,117.076820 
	C36.140842,116.928162 19.993795,116.900696 3.850869,117.092552 
	C0.982419,117.126648 0.959508,116.003586 0.965730,113.857635 
	C1.023643,93.884331 1.000000,73.910789 1.000000,53.468658 
	C2.789586,51.056316 4.710440,50.750454 5.154621,53.744205 
	C6.618129,63.608120 12.615044,70.770561 18.725163,77.994774 
	C21.377436,81.130653 23.841230,84.464714 26.255836,88.266747 
	C26.867601,89.182915 27.155630,89.848503 27.570683,90.836502 
	C27.786917,91.368263 27.873449,91.578979 28.087673,92.101974 
	C28.300564,92.619766 28.385765,92.825287 28.596699,93.336586 
	C28.802675,93.845924 28.882921,94.049477 29.072067,94.560883 
	C29.391762,95.484688 29.527447,96.121170 29.780624,97.062897 
	C29.926121,97.586594 29.985634,97.796448 30.137510,98.321724 
	C30.357285,99.062027 30.475149,99.489555 30.675522,100.245674 
	C31.180099,101.833916 31.243027,103.186241 31.705727,104.429222 
	C32.532055,106.649040 34.246521,107.442642 35.886723,105.714149 
	C43.007957,98.209526 49.481895,90.288231 49.654640,78.815643 
	C49.421429,75.427132 49.536137,72.381104 49.510452,68.986160 
	C49.641315,63.250118 46.890774,58.985619 43.683670,55.157143 
	C33.610359,43.132122 25.715271,29.961098 21.308157,14.816447 
	C20.998354,13.751835 20.914833,12.214685 19.533630,12.067217 
	C18.183203,11.923034 17.774446,13.384610 17.158669,14.330915 
	C11.752432,22.639011 7.915555,31.625145 5.516510,41.238964 
	C4.992628,43.338345 4.639106,45.968937 1.246954,43.246635 
z"/>
<path fill="#9B4609" opacity="1.000000" stroke="none" 
	d="
M27.127663,98.799652 
	C26.996880,98.429169 27.085253,98.475159 27.062260,98.519348 
	C26.509077,97.598030 26.527781,96.512444 26.052402,95.214539 
	C25.742931,94.961830 25.944342,94.974663 25.937923,95.075363 
	C25.618422,94.618729 25.514778,93.986092 25.055470,93.186310 
	C24.819214,92.976250 24.996935,93.006668 24.981722,93.095528 
	C24.407305,92.415108 24.536936,91.502434 24.228970,90.380470 
	C20.542130,83.799141 15.657105,78.492233 11.203245,72.909821 
	C6.666156,67.223091 3.269295,61.270134 2.770339,53.891258 
	C2.745842,53.528988 2.141447,53.205933 1.403541,52.932308 
	C1.000000,49.969406 1.000000,46.938812 1.000000,43.454109 
	C3.204486,43.409481 2.766616,41.712677 3.040695,40.505268 
	C5.778091,28.446117 10.369101,17.271257 18.544100,7.770175 
	C19.288309,6.905245 19.691181,5.566375 21.002094,5.717903 
	C22.896759,5.936904 22.066181,7.803856 22.337069,8.822864 
	C26.790987,25.577513 34.400654,40.571510 45.990269,53.605618 
	C49.306355,57.335011 51.812183,61.894436 52.934151,67.298935 
	C52.371433,71.195312 52.516361,74.753021 52.686508,78.691818 
	C53.734528,83.989380 51.254433,88.130112 49.255772,92.128128 
	C45.624966,99.390984 40.571331,105.723045 34.435570,111.133270 
	C33.312885,112.123207 32.371197,113.546440 30.639826,112.838493 
	C28.771843,112.074692 29.338724,110.791855 29.774376,109.171585 
	C30.446314,106.672523 27.218090,104.675751 28.244656,101.605453 
	C27.588434,100.712105 27.510790,99.904480 27.127663,98.799652 
z"/>
<path fill="#976443" opacity="1.000000" stroke="none" 
	d="
M52.891163,78.649742 
	C51.901741,75.542389 51.800999,71.972473 52.618828,68.015167 
	C53.821484,71.171135 52.592022,74.703484 52.891163,78.649742 
z"/>
<path fill="#D3B09C" opacity="1.000000" stroke="none" 
	d="
M24.052404,90.459991 
	C24.405167,90.923462 24.788776,91.723671 25.069447,92.854126 
	C23.976027,92.645996 24.116165,91.689354 24.052404,90.459991 
z"/>
<path fill="#D3B09C" opacity="1.000000" stroke="none" 
	d="
M25.842766,95.353996 
	C27.486635,95.167793 27.153034,96.630402 27.228653,98.147209 
	C25.973604,97.896927 25.845539,96.865356 25.842766,95.353996 
z"/>
<path fill="#D3B09C" opacity="1.000000" stroke="none" 
	d="
M24.879478,93.311195 
	C25.908796,92.876205 26.130703,93.659447 26.132095,94.819519 
	C25.151758,94.957260 24.906759,94.391800 24.879478,93.311195 
z"/>
<path fill="#D3B09C" opacity="1.000000" stroke="none" 
	d="
M26.992588,98.855110 
	C28.036961,98.726898 28.057453,99.629784 28.179707,100.886337 
	C27.188086,100.969597 26.945133,100.207634 26.992588,98.855110 
z"/>
</svg>