<svg xmlns="http://www.w3.org/2000/svg" xmlns:xlink="http://www.w3.org/1999/xlink" width="1080" zoomAndPan="magnify" viewBox="0 0 810 809.999993" height="1080" preserveAspectRatio="xMidYMid meet" version="1.0"><defs><clipPath id="dba66ace3f"><path d="M 167.421875 185.835938 L 642.921875 185.835938 L 642.921875 623 L 167.421875 623 Z M 167.421875 185.835938 " clip-rule="nonzero"/></clipPath></defs><rect x="-81" width="972" fill="#ffffff" y="-80.999999" height="971.999992" fill-opacity="1"/><rect x="-81" width="972" fill="#ff8200" y="-80.999999" height="971.999992" fill-opacity="1"/><g clip-path="url(#dba66ace3f)"><path fill="#000000" d="M 642.132812 414.445312 C 642.265625 413.945312 642.34375 413.433594 642.375 412.917969 C 642.40625 412.398438 642.386719 411.882812 642.316406 411.371094 C 642.246094 410.855469 642.125 410.355469 641.957031 409.863281 C 641.785156 409.375 641.570312 408.90625 641.308594 408.457031 C 641.042969 408.007812 640.742188 407.589844 640.394531 407.203125 C 640.050781 406.816406 639.671875 406.464844 639.257812 406.152344 C 638.84375 405.839844 638.402344 405.570312 637.933594 405.34375 C 637.46875 405.117188 636.984375 404.9375 636.480469 404.804688 C 635.976562 404.675781 635.46875 404.59375 634.949219 404.5625 C 634.429688 404.535156 633.914062 404.554688 633.398438 404.625 C 632.882812 404.695312 632.382812 404.816406 631.890625 404.988281 C 631.402344 405.15625 630.929688 405.371094 630.484375 405.636719 C 630.035156 405.898438 629.617188 406.203125 629.230469 406.546875 C 628.839844 406.890625 628.488281 407.269531 628.175781 407.683594 C 627.863281 408.097656 627.59375 408.539062 627.367188 409.003906 C 627.140625 409.472656 626.960938 409.957031 626.832031 410.457031 C 626.5625 411.488281 626.207031 412.488281 625.753906 413.453125 C 625.300781 414.417969 624.765625 415.335938 624.144531 416.203125 C 623.527344 417.070312 622.832031 417.875 622.0625 418.613281 C 621.292969 419.351562 620.464844 420.015625 619.574219 420.601562 C 618.679688 421.1875 617.742188 421.6875 616.761719 422.101562 C 615.777344 422.515625 614.765625 422.835938 613.722656 423.066406 C 612.679688 423.292969 611.625 423.421875 610.558594 423.457031 C 609.492188 423.488281 608.429688 423.425781 607.375 423.265625 C 602.691406 420.695312 597.777344 418.703125 592.625 417.285156 C 587.476562 415.867188 582.230469 415.066406 576.894531 414.875 C 579.347656 411.574219 581.53125 408.105469 583.445312 404.46875 C 584.007812 403.378906 584.476562 402.253906 584.847656 401.085938 C 585.21875 399.917969 585.488281 398.726562 585.652344 397.511719 C 585.820312 396.300781 585.878906 395.082031 585.835938 393.855469 C 585.792969 392.632812 585.644531 391.421875 585.394531 390.222656 C 585.144531 389.023438 584.792969 387.855469 584.339844 386.71875 C 583.886719 385.578125 583.339844 384.488281 582.699219 383.441406 C 582.0625 382.398438 581.335938 381.414062 580.527344 380.492188 C 579.71875 379.574219 578.835938 378.726562 577.882812 377.957031 C 577.332031 377.511719 576.757812 377.09375 576.164062 376.707031 C 575.570312 376.316406 574.960938 375.957031 574.332031 375.625 C 573.703125 375.292969 573.058594 374.996094 572.402344 374.726562 C 571.746094 374.457031 571.074219 374.222656 570.394531 374.019531 C 569.714844 373.816406 569.027344 373.644531 568.328125 373.507812 C 567.632812 373.371094 566.929688 373.269531 566.222656 373.199219 C 565.515625 373.128906 564.808594 373.09375 564.097656 373.09375 C 563.386719 373.09375 562.679688 373.128906 561.972656 373.195312 C 561.265625 373.261719 560.5625 373.367188 559.867188 373.5 C 559.167969 373.636719 558.480469 373.804688 557.800781 374.007812 C 557.117188 374.210938 556.449219 374.445312 555.792969 374.714844 C 555.132812 374.980469 554.492188 375.28125 553.863281 375.609375 C 553.234375 375.9375 552.621094 376.296875 552.027344 376.6875 C 551.433594 377.074219 550.859375 377.492188 550.304688 377.933594 C 549.75 378.378906 549.222656 378.851562 548.710938 379.34375 C 548.203125 379.839844 547.722656 380.359375 547.265625 380.902344 C 540.589844 388.914062 518.289062 402.242188 494.617188 398.289062 C 473.363281 394.746094 456.601562 378.375 444.75 349.605469 C 445.992188 347.6875 446.9375 345.632812 447.585938 343.445312 C 448.234375 341.253906 448.5625 339.015625 448.566406 336.730469 L 448.566406 312.597656 C 448.566406 310.121094 448.1875 307.699219 447.425781 305.339844 C 446.664062 302.980469 445.558594 300.792969 444.109375 298.78125 C 445.558594 296.769531 446.664062 294.582031 447.425781 292.222656 C 448.1875 289.863281 448.566406 287.441406 448.566406 284.964844 L 448.566406 260.832031 C 448.5625 258.398438 448.191406 256.023438 447.457031 253.703125 C 446.71875 251.386719 445.652344 249.230469 444.253906 247.238281 C 445.652344 245.246094 446.71875 243.089844 447.457031 240.773438 C 448.191406 238.453125 448.5625 236.078125 448.566406 233.644531 L 448.566406 209.511719 C 448.566406 208.738281 448.527344 207.964844 448.449219 207.191406 C 448.375 206.417969 448.257812 205.652344 448.105469 204.894531 C 447.953125 204.132812 447.765625 203.382812 447.539062 202.640625 C 447.3125 201.898438 447.050781 201.167969 446.753906 200.453125 C 446.457031 199.734375 446.125 199.035156 445.757812 198.351562 C 445.390625 197.667969 444.992188 197.003906 444.5625 196.359375 C 444.128906 195.714844 443.667969 195.09375 443.175781 194.492188 C 442.679688 193.894531 442.160156 193.320312 441.609375 192.769531 C 441.0625 192.222656 440.488281 191.703125 439.886719 191.210938 C 439.285156 190.71875 438.664062 190.257812 438.019531 189.824219 C 437.371094 189.394531 436.707031 188.996094 436.023438 188.628906 C 435.335938 188.265625 434.636719 187.933594 433.917969 187.636719 C 433.203125 187.339844 432.472656 187.078125 431.726562 186.851562 C 430.984375 186.625 430.234375 186.4375 429.472656 186.285156 C 428.710938 186.132812 427.941406 186.019531 427.167969 185.941406 C 426.398438 185.867188 425.621094 185.828125 424.84375 185.824219 L 385.5 185.824219 C 384.722656 185.828125 383.949219 185.867188 383.175781 185.941406 C 382.402344 186.019531 381.636719 186.132812 380.875 186.285156 C 380.113281 186.4375 379.359375 186.625 378.617188 186.851562 C 377.875 187.078125 377.144531 187.339844 376.425781 187.636719 C 375.710938 187.933594 375.007812 188.265625 374.324219 188.628906 C 373.636719 188.996094 372.972656 189.394531 372.328125 189.824219 C 371.683594 190.257812 371.058594 190.71875 370.457031 191.210938 C 369.859375 191.703125 369.285156 192.222656 368.734375 192.769531 C 368.183594 193.320312 367.664062 193.894531 367.171875 194.492188 C 366.679688 195.09375 366.214844 195.714844 365.785156 196.359375 C 365.351562 197.003906 364.953125 197.667969 364.585938 198.351562 C 364.222656 199.035156 363.890625 199.734375 363.589844 200.453125 C 363.292969 201.167969 363.03125 201.898438 362.804688 202.640625 C 362.582031 203.382812 362.390625 204.132812 362.238281 204.894531 C 362.085938 205.652344 361.972656 206.417969 361.894531 207.191406 C 361.820312 207.964844 361.78125 208.738281 361.777344 209.511719 L 361.777344 233.644531 C 361.78125 236.078125 362.152344 238.453125 362.890625 240.773438 C 363.625 243.089844 364.695312 245.246094 366.09375 247.238281 C 364.695312 249.230469 363.625 251.386719 362.890625 253.703125 C 362.152344 256.023438 361.785156 258.398438 361.777344 260.832031 L 361.777344 284.964844 C 361.777344 287.441406 362.160156 289.863281 362.921875 292.222656 C 363.683594 294.582031 364.785156 296.769531 366.234375 298.78125 C 364.785156 300.792969 363.683594 302.980469 362.921875 305.339844 C 362.160156 307.699219 361.777344 310.121094 361.777344 312.597656 L 361.777344 336.730469 C 361.78125 337.507812 361.820312 338.28125 361.894531 339.050781 C 361.972656 339.824219 362.085938 340.589844 362.238281 341.351562 C 362.390625 342.109375 362.582031 342.863281 362.804688 343.605469 C 363.03125 344.347656 363.292969 345.074219 363.589844 345.792969 C 363.890625 346.507812 364.222656 347.207031 364.585938 347.890625 C 364.953125 348.574219 365.351562 349.238281 365.785156 349.882812 C 366.214844 350.527344 366.679688 351.152344 367.171875 351.75 C 367.664062 352.347656 368.183594 352.921875 368.734375 353.472656 C 369.285156 354.019531 369.859375 354.539062 370.457031 355.03125 C 371.058594 355.523438 371.683594 355.984375 372.328125 356.417969 C 372.972656 356.847656 373.636719 357.246094 374.324219 357.613281 C 375.007812 357.976562 375.710938 358.308594 376.425781 358.605469 C 377.144531 358.902344 377.875 359.164062 378.617188 359.390625 C 379.359375 359.617188 380.113281 359.804688 380.875 359.957031 C 381.636719 360.109375 382.402344 360.222656 383.175781 360.300781 C 383.949219 360.378906 384.722656 360.417969 385.5 360.417969 L 405.171875 360.417969 C 405.691406 360.417969 406.207031 360.367188 406.714844 360.265625 C 407.222656 360.164062 407.71875 360.015625 408.199219 359.816406 C 408.679688 359.617188 409.132812 359.375 409.566406 359.085938 C 409.996094 358.796875 410.398438 358.472656 410.765625 358.105469 C 411.132812 357.738281 411.457031 357.339844 411.746094 356.910156 C 412.035156 356.476562 412.28125 356.023438 412.476562 355.542969 C 412.675781 355.0625 412.828125 354.570312 412.929688 354.0625 C 413.03125 353.554688 413.078125 353.039062 413.078125 352.523438 C 413.078125 352.003906 413.03125 351.488281 412.929688 350.980469 C 412.828125 350.472656 412.675781 349.980469 412.476562 349.5 C 412.28125 349.019531 412.035156 348.566406 411.746094 348.136719 C 411.457031 347.703125 411.132812 347.304688 410.765625 346.9375 C 410.398438 346.574219 409.996094 346.246094 409.566406 345.957031 C 409.132812 345.667969 408.679688 345.425781 408.199219 345.226562 C 407.71875 345.027344 407.222656 344.878906 406.714844 344.777344 C 406.207031 344.675781 405.691406 344.625 405.171875 344.625 L 385.5 344.625 C 384.980469 344.625 384.46875 344.574219 383.957031 344.472656 C 383.449219 344.371094 382.957031 344.222656 382.476562 344.023438 C 381.996094 343.824219 381.539062 343.582031 381.109375 343.292969 C 380.679688 343.003906 380.277344 342.675781 379.910156 342.3125 C 379.542969 341.945312 379.21875 341.546875 378.929688 341.117188 C 378.640625 340.683594 378.394531 340.230469 378.199219 339.75 C 378 339.273438 377.847656 338.777344 377.746094 338.269531 C 377.644531 337.761719 377.59375 337.25 377.59375 336.730469 L 377.59375 312.597656 C 377.597656 311.464844 377.832031 310.378906 378.304688 309.347656 C 378.777344 308.3125 379.4375 307.425781 380.296875 306.675781 L 430.050781 306.675781 C 430.90625 307.425781 431.570312 308.3125 432.042969 309.347656 C 432.511719 310.378906 432.75 311.464844 432.753906 312.597656 L 432.753906 336.730469 C 432.757812 337.820312 432.542969 338.863281 432.113281 339.859375 C 431.679688 340.859375 431.066406 341.730469 430.269531 342.472656 C 429.703125 343.007812 429.222656 343.617188 428.835938 344.292969 C 428.445312 344.96875 428.164062 345.6875 427.988281 346.449219 C 427.816406 347.210938 427.753906 347.980469 427.808594 348.757812 C 427.859375 349.535156 428.027344 350.289062 428.304688 351.019531 C 445.824219 397.101562 472.621094 410.632812 492.011719 413.867188 C 521.300781 418.757812 549.0625 403.4375 559.421875 391 C 559.683594 390.703125 559.96875 390.433594 560.277344 390.191406 C 560.589844 389.949219 560.921875 389.738281 561.273438 389.5625 C 561.625 389.382812 561.988281 389.238281 562.371094 389.128906 C 562.75 389.019531 563.132812 388.949219 563.527344 388.914062 C 563.921875 388.878906 564.3125 388.878906 564.707031 388.921875 C 565.097656 388.960938 565.484375 389.035156 565.863281 389.148438 C 566.238281 389.261719 566.601562 389.410156 566.953125 389.59375 C 567.300781 389.777344 567.632812 389.992188 567.941406 390.234375 C 568.449219 390.632812 568.875 391.105469 569.21875 391.648438 C 569.5625 392.195312 569.804688 392.785156 569.941406 393.414062 C 570.078125 394.042969 570.101562 394.679688 570.015625 395.316406 C 569.929688 395.957031 569.738281 396.5625 569.441406 397.132812 C 558.246094 418.449219 538.53125 427.296875 523.957031 430.96875 C 523.222656 431.15625 522.527344 431.441406 521.875 431.828125 C 521.222656 432.214844 520.636719 432.683594 520.121094 433.238281 C 519.601562 433.792969 519.171875 434.40625 518.832031 435.085938 C 518.492188 435.761719 518.253906 436.472656 518.121094 437.21875 C 517.984375 437.964844 517.957031 438.714844 518.039062 439.46875 C 518.121094 440.222656 518.304688 440.949219 518.597656 441.648438 C 518.886719 442.351562 519.269531 442.996094 519.746094 443.585938 C 520.222656 444.175781 520.773438 444.6875 521.394531 445.117188 C 532.257812 452.617188 542.339844 458.378906 571.375 474.304688 C 576.046875 476.867188 574.625 480.761719 573.796875 482.320312 C 573.136719 483.558594 570.605469 487.414062 565.722656 484.90625 C 553.375 478.738281 540.40625 474.433594 526.820312 472 C 526.234375 471.910156 525.648438 471.882812 525.058594 471.921875 C 524.46875 471.964844 523.890625 472.066406 523.324219 472.238281 C 522.757812 472.40625 522.21875 472.636719 521.707031 472.925781 C 521.191406 473.214844 520.714844 473.558594 520.277344 473.957031 C 519.839844 474.351562 519.453125 474.792969 519.113281 475.273438 C 518.773438 475.757812 518.492188 476.273438 518.269531 476.820312 C 518.046875 477.367188 517.886719 477.929688 517.789062 478.511719 C 517.695312 479.09375 517.664062 479.679688 517.695312 480.269531 C 519.566406 511.742188 518.5625 567.367188 513.671875 602.355469 C 513.007812 607.109375 508.914062 607.203125 507.191406 607.023438 C 505.84375 606.882812 501.464844 606.046875 501.804688 601.234375 C 504.519531 562.644531 499.578125 525.523438 487.445312 492.070312 C 486.082031 487.535156 484.339844 483.148438 482.21875 478.914062 C 479.292969 472.152344 476.054688 465.566406 472.511719 459.164062 C 443.316406 406.46875 367.027344 406.46875 337.835938 459.164062 C 334.289062 465.5625 331.054688 472.144531 328.125 478.914062 C 326.003906 483.148438 324.261719 487.535156 322.902344 492.074219 C 310.765625 525.523438 305.824219 562.644531 308.542969 601.230469 C 308.878906 606.046875 304.503906 606.882812 303.152344 607.023438 C 301.429688 607.207031 297.339844 607.109375 296.671875 602.355469 C 291.785156 567.367188 290.777344 511.742188 292.648438 480.269531 C 292.683594 479.679688 292.652344 479.09375 292.554688 478.511719 C 292.457031 477.929688 292.296875 477.367188 292.074219 476.820312 C 291.851562 476.273438 291.570312 475.757812 291.234375 475.273438 C 290.894531 474.792969 290.503906 474.351562 290.066406 473.957031 C 289.628906 473.558594 289.15625 473.214844 288.640625 472.925781 C 288.125 472.636719 287.585938 472.40625 287.019531 472.238281 C 286.453125 472.066406 285.875 471.964844 285.285156 471.921875 C 284.695312 471.882812 284.109375 471.910156 283.527344 472 C 269.9375 474.433594 256.96875 478.738281 244.621094 484.90625 C 239.738281 487.410156 237.210938 483.558594 236.546875 482.320312 C 235.71875 480.761719 234.296875 476.867188 238.96875 474.304688 C 268.003906 458.378906 278.085938 452.617188 288.949219 445.117188 C 289.574219 444.6875 290.125 444.175781 290.597656 443.585938 C 291.074219 442.996094 291.457031 442.351562 291.75 441.648438 C 292.039062 440.949219 292.226562 440.222656 292.304688 439.46875 C 292.386719 438.714844 292.359375 437.964844 292.226562 437.21875 C 292.089844 436.472656 291.851562 435.761719 291.511719 435.085938 C 291.171875 434.40625 290.742188 433.792969 290.226562 433.238281 C 289.707031 432.683594 289.121094 432.214844 288.46875 431.828125 C 287.816406 431.441406 287.121094 431.15625 286.386719 430.96875 C 271.816406 427.296875 252.097656 418.449219 240.90625 397.132812 C 240.605469 396.5625 240.414062 395.957031 240.328125 395.316406 C 240.242188 394.679688 240.269531 394.042969 240.40625 393.414062 C 240.542969 392.785156 240.78125 392.195312 241.125 391.648438 C 241.46875 391.105469 241.898438 390.632812 242.40625 390.234375 C 242.714844 389.992188 243.042969 389.777344 243.394531 389.59375 C 243.742188 389.410156 244.105469 389.261719 244.484375 389.148438 C 244.863281 389.035156 245.246094 388.960938 245.640625 388.921875 C 246.03125 388.878906 246.425781 388.878906 246.816406 388.914062 C 247.210938 388.949219 247.597656 389.019531 247.976562 389.128906 C 248.355469 389.238281 248.71875 389.382812 249.074219 389.5625 C 249.425781 389.742188 249.753906 389.949219 250.066406 390.191406 C 250.378906 390.433594 250.664062 390.703125 250.921875 391 C 259.015625 400.710938 282.097656 415.742188 309.621094 414.742188 C 325.019531 414.183594 347.253906 408.097656 365.742188 382.292969 C 366.042969 381.871094 366.300781 381.421875 366.515625 380.949219 C 366.730469 380.476562 366.894531 379.988281 367.011719 379.484375 C 367.128906 378.980469 367.195312 378.46875 367.214844 377.949219 C 367.230469 377.429688 367.195312 376.917969 367.109375 376.40625 C 367.027344 375.894531 366.890625 375.394531 366.707031 374.910156 C 366.523438 374.425781 366.296875 373.964844 366.023438 373.523438 C 365.746094 373.082031 365.433594 372.675781 365.078125 372.296875 C 364.722656 371.917969 364.332031 371.578125 363.910156 371.277344 C 363.488281 370.976562 363.039062 370.71875 362.566406 370.503906 C 362.09375 370.289062 361.605469 370.125 361.097656 370.007812 C 360.59375 369.890625 360.082031 369.824219 359.5625 369.808594 C 359.042969 369.789062 358.527344 369.824219 358.015625 369.910156 C 357.503906 369.992188 357.003906 370.128906 356.519531 370.3125 C 356.03125 370.496094 355.570312 370.722656 355.128906 370.996094 C 354.6875 371.269531 354.277344 371.585938 353.898438 371.941406 C 353.519531 372.292969 353.179688 372.683594 352.878906 373.105469 C 341.039062 389.636719 326.289062 398.335938 309.042969 398.960938 C 288.5625 399.730469 269.515625 388.625 263.082031 380.902344 C 262.625 380.359375 262.140625 379.839844 261.632812 379.34375 C 261.125 378.851562 260.59375 378.378906 260.039062 377.9375 C 259.484375 377.492188 258.914062 377.074219 258.316406 376.6875 C 257.722656 376.296875 257.113281 375.9375 256.484375 375.609375 C 255.855469 375.28125 255.210938 374.980469 254.554688 374.714844 C 253.894531 374.445312 253.226562 374.210938 252.546875 374.007812 C 251.863281 373.808594 251.175781 373.636719 250.480469 373.5 C 249.78125 373.367188 249.078125 373.265625 248.371094 373.195312 C 247.664062 373.128906 246.957031 373.09375 246.246094 373.09375 C 245.535156 373.09375 244.828125 373.128906 244.121094 373.199219 C 243.414062 373.269531 242.710938 373.371094 242.015625 373.507812 C 241.320312 373.644531 240.628906 373.816406 239.949219 374.019531 C 239.269531 374.222656 238.601562 374.457031 237.941406 374.726562 C 237.285156 374.996094 236.644531 375.292969 236.015625 375.625 C 235.386719 375.957031 234.773438 376.316406 234.183594 376.707031 C 233.589844 377.09375 233.015625 377.511719 232.460938 377.957031 C 231.507812 378.726562 230.625 379.574219 229.816406 380.492188 C 229.007812 381.414062 228.285156 382.398438 227.644531 383.441406 C 227.003906 384.488281 226.457031 385.578125 226.007812 386.714844 C 225.554688 387.855469 225.203125 389.023438 224.949219 390.222656 C 224.699219 391.421875 224.550781 392.632812 224.507812 393.855469 C 224.464844 395.082031 224.527344 396.300781 224.691406 397.511719 C 224.859375 398.726562 225.125 399.917969 225.496094 401.085938 C 225.867188 402.253906 226.335938 403.378906 226.898438 404.46875 C 228.816406 408.105469 231 411.574219 233.453125 414.875 C 228.113281 415.066406 222.871094 415.867188 217.71875 417.285156 C 212.570312 418.703125 207.652344 420.695312 202.972656 423.265625 C 201.917969 423.425781 200.855469 423.488281 199.789062 423.457031 C 198.722656 423.421875 197.667969 423.292969 196.625 423.066406 C 195.582031 422.839844 194.566406 422.515625 193.585938 422.101562 C 192.601562 421.6875 191.664062 421.1875 190.773438 420.601562 C 189.882812 420.015625 189.050781 419.351562 188.28125 418.613281 C 187.515625 417.875 186.820312 417.070312 186.199219 416.203125 C 185.578125 415.335938 185.042969 414.421875 184.589844 413.453125 C 184.140625 412.488281 183.78125 411.488281 183.515625 410.457031 C 183.382812 409.957031 183.203125 409.472656 182.976562 409.003906 C 182.75 408.539062 182.480469 408.097656 182.167969 407.683594 C 181.855469 407.269531 181.503906 406.890625 181.117188 406.546875 C 180.726562 406.203125 180.308594 405.898438 179.863281 405.636719 C 179.414062 405.375 178.945312 405.160156 178.453125 404.988281 C 177.964844 404.820312 177.460938 404.699219 176.945312 404.628906 C 176.433594 404.554688 175.914062 404.535156 175.398438 404.566406 C 174.878906 404.597656 174.367188 404.679688 173.867188 404.808594 C 173.363281 404.941406 172.878906 405.117188 172.410156 405.34375 C 171.945312 405.570312 171.503906 405.839844 171.089844 406.152344 C 170.675781 406.46875 170.296875 406.816406 169.949219 407.207031 C 169.605469 407.59375 169.300781 408.011719 169.039062 408.457031 C 168.777344 408.90625 168.5625 409.375 168.390625 409.863281 C 168.222656 410.355469 168.101562 410.855469 168.03125 411.371094 C 167.957031 411.882812 167.9375 412.398438 167.96875 412.917969 C 168 413.433594 168.082031 413.945312 168.214844 414.445312 C 168.835938 416.8125 169.707031 419.082031 170.828125 421.253906 C 171.953125 423.429688 173.296875 425.453125 174.867188 427.332031 C 176.4375 429.210938 178.191406 430.894531 180.132812 432.390625 C 182.070312 433.882812 184.152344 435.144531 186.371094 436.179688 C 181.792969 441.082031 178.003906 446.53125 175.003906 452.527344 C 174.769531 452.992188 174.585938 453.472656 174.445312 453.972656 C 174.308594 454.472656 174.222656 454.980469 174.183594 455.5 C 174.144531 456.015625 174.160156 456.53125 174.222656 457.046875 C 174.289062 457.5625 174.402344 458.066406 174.566406 458.558594 C 174.730469 459.050781 174.941406 459.519531 175.195312 459.972656 C 175.453125 460.421875 175.753906 460.84375 176.09375 461.238281 C 176.433594 461.628906 176.808594 461.984375 177.21875 462.300781 C 177.628906 462.621094 178.066406 462.894531 178.53125 463.128906 C 178.996094 463.359375 179.476562 463.546875 179.976562 463.683594 C 180.480469 463.820312 180.988281 463.90625 181.507812 463.945312 C 182.023438 463.980469 182.542969 463.96875 183.058594 463.902344 C 183.574219 463.835938 184.078125 463.722656 184.570312 463.558594 C 185.0625 463.394531 185.535156 463.183594 185.988281 462.929688 C 186.4375 462.671875 186.859375 462.371094 187.253906 462.03125 C 187.644531 461.691406 188 461.316406 188.316406 460.90625 C 188.636719 460.5 188.910156 460.0625 189.144531 459.597656 C 200.757812 436.4375 226.578125 425.59375 252.253906 432.921875 C 256.730469 435.984375 261.449219 438.605469 266.414062 440.789062 C 258.648438 445.417969 248.304688 451.167969 231.355469 460.464844 C 218.980469 467.253906 217.574219 480.328125 222.585938 489.730469 C 227.5 498.964844 239.429688 505.332031 251.855469 498.949219 C 259.703125 495.015625 267.875 491.949219 276.375 489.746094 C 275.929688 502.214844 275.835938 517.003906 276.136719 532.328125 C 272.175781 552.144531 260.410156 567.089844 244.5625 572.375 C 244.070312 572.539062 243.597656 572.75 243.148438 573.003906 C 242.695312 573.261719 242.273438 573.558594 241.882812 573.898438 C 241.488281 574.238281 241.132812 574.613281 240.816406 575.023438 C 240.496094 575.433594 240.222656 575.871094 239.988281 576.335938 C 239.757812 576.800781 239.574219 577.28125 239.433594 577.78125 C 239.296875 578.28125 239.210938 578.789062 239.175781 579.308594 C 239.136719 579.824219 239.152344 580.339844 239.21875 580.855469 C 239.28125 581.371094 239.398438 581.875 239.5625 582.367188 C 239.726562 582.859375 239.9375 583.328125 240.195312 583.78125 C 240.453125 584.230469 240.753906 584.652344 241.09375 585.042969 C 241.433594 585.433594 241.808594 585.789062 242.21875 586.105469 C 242.628906 586.425781 243.066406 586.699219 243.53125 586.929688 C 243.996094 587.160156 244.480469 587.34375 244.980469 587.480469 C 245.484375 587.617188 245.992188 587.703125 246.511719 587.742188 C 247.027344 587.777344 247.546875 587.761719 248.0625 587.695312 C 248.578125 587.632812 249.082031 587.515625 249.574219 587.351562 C 255.125 585.457031 260.285156 582.796875 265.042969 579.367188 C 269.800781 575.941406 273.957031 571.890625 277.507812 567.226562 C 278.328125 580.75 279.484375 593.617188 281.011719 604.535156 C 282.878906 617.917969 294.386719 623.820312 304.804688 622.726562 C 315.214844 621.636719 325.261719 613.523438 324.316406 600.125 C 322.960938 581.449219 323.582031 562.835938 326.179688 544.292969 C 330.222656 553.128906 335.769531 560.894531 342.820312 567.589844 C 343.195312 567.945312 343.601562 568.265625 344.039062 568.542969 C 344.476562 568.820312 344.9375 569.054688 345.421875 569.242188 C 345.90625 569.429688 346.40625 569.566406 346.917969 569.65625 C 347.425781 569.746094 347.941406 569.785156 348.460938 569.777344 C 348.980469 569.765625 349.492188 569.703125 350 569.589844 C 350.507812 569.476562 351 569.316406 351.472656 569.105469 C 351.949219 568.898438 352.398438 568.644531 352.824219 568.347656 C 353.25 568.050781 353.640625 567.714844 354 567.339844 C 354.359375 566.964844 354.675781 566.558594 354.957031 566.121094 C 355.234375 565.683594 355.46875 565.222656 355.65625 564.742188 C 355.84375 564.257812 355.984375 563.761719 356.074219 563.25 C 356.164062 562.738281 356.203125 562.226562 356.191406 561.707031 C 356.179688 561.1875 356.117188 560.675781 356.003906 560.171875 C 355.890625 559.664062 355.730469 559.171875 355.523438 558.699219 C 355.3125 558.226562 355.058594 557.773438 354.761719 557.351562 C 354.460938 556.925781 354.125 556.535156 353.75 556.175781 C 348.671875 551.347656 344.570312 545.792969 341.457031 539.515625 C 358.335938 542.476562 374.488281 530.871094 382.398438 515.132812 C 382.632812 514.667969 382.816406 514.1875 382.957031 513.6875 C 383.09375 513.1875 383.183594 512.675781 383.222656 512.160156 C 383.257812 511.644531 383.246094 511.125 383.179688 510.613281 C 383.117188 510.097656 383.003906 509.59375 382.839844 509.101562 C 382.675781 508.609375 382.46875 508.136719 382.210938 507.6875 C 381.953125 507.234375 381.65625 506.8125 381.316406 506.421875 C 380.976562 506.027344 380.601562 505.671875 380.191406 505.355469 C 379.78125 505.035156 379.34375 504.761719 378.878906 504.527344 C 378.417969 504.292969 377.933594 504.109375 377.433594 503.972656 C 376.933594 503.835938 376.421875 503.746094 375.90625 503.710938 C 375.386719 503.671875 374.871094 503.683594 374.355469 503.75 C 373.839844 503.8125 373.335938 503.929688 372.839844 504.089844 C 372.347656 504.253906 371.875 504.464844 371.425781 504.722656 C 370.972656 504.976562 370.550781 505.277344 370.160156 505.617188 C 369.765625 505.957031 369.410156 506.328125 369.089844 506.738281 C 368.773438 507.148438 368.496094 507.585938 368.265625 508.050781 C 361.570312 521.371094 346.777344 529.980469 335.765625 519.480469 C 335.050781 511.769531 335.796875 504.207031 338.007812 496.785156 C 341.789062 486.441406 346.34375 476.445312 351.671875 466.804688 C 374.839844 424.984375 435.503906 424.984375 458.671875 466.804688 C 464.003906 476.445312 468.558594 486.441406 472.335938 496.785156 C 474.546875 504.207031 475.292969 511.769531 474.582031 519.480469 C 463.605469 529.941406 448.800781 521.417969 442.082031 508.050781 C 441.847656 507.585938 441.574219 507.148438 441.253906 506.738281 C 440.9375 506.328125 440.578125 505.953125 440.1875 505.617188 C 439.792969 505.277344 439.371094 504.976562 438.921875 504.722656 C 438.46875 504.464844 437.996094 504.253906 437.503906 504.089844 C 437.011719 503.929688 436.507812 503.8125 435.992188 503.75 C 435.476562 503.683594 434.960938 503.671875 434.441406 503.710938 C 433.921875 503.746094 433.414062 503.835938 432.914062 503.972656 C 432.410156 504.109375 431.929688 504.292969 431.464844 504.527344 C 431 504.761719 430.5625 505.035156 430.152344 505.355469 C 429.742188 505.671875 429.367188 506.027344 429.027344 506.421875 C 428.6875 506.8125 428.390625 507.234375 428.132812 507.6875 C 427.878906 508.136719 427.667969 508.609375 427.503906 509.101562 C 427.339844 509.59375 427.226562 510.097656 427.164062 510.613281 C 427.101562 511.125 427.085938 511.644531 427.125 512.160156 C 427.164062 512.675781 427.25 513.1875 427.390625 513.6875 C 427.527344 514.1875 427.714844 514.667969 427.945312 515.132812 C 435.839844 530.835938 452.003906 542.476562 468.890625 539.515625 C 465.773438 545.792969 461.675781 551.347656 456.59375 556.175781 C 456.21875 556.535156 455.882812 556.925781 455.585938 557.351562 C 455.285156 557.773438 455.035156 558.226562 454.824219 558.699219 C 454.613281 559.171875 454.453125 559.664062 454.339844 560.167969 C 454.230469 560.675781 454.167969 561.1875 454.15625 561.707031 C 454.144531 562.226562 454.183594 562.738281 454.273438 563.25 C 454.363281 563.761719 454.5 564.257812 454.6875 564.742188 C 454.878906 565.222656 455.109375 565.683594 455.390625 566.121094 C 455.667969 566.558594 455.988281 566.964844 456.347656 567.339844 C 456.703125 567.714844 457.097656 568.050781 457.523438 568.347656 C 457.945312 568.644531 458.398438 568.898438 458.871094 569.109375 C 459.347656 569.316406 459.839844 569.476562 460.34375 569.589844 C 460.851562 569.703125 461.363281 569.765625 461.882812 569.777344 C 462.402344 569.785156 462.917969 569.746094 463.429688 569.65625 C 463.941406 569.570312 464.4375 569.429688 464.921875 569.242188 C 465.40625 569.054688 465.867188 568.820312 466.304688 568.542969 C 466.742188 568.265625 467.148438 567.945312 467.523438 567.589844 C 474.574219 560.894531 480.121094 553.128906 484.167969 544.292969 C 486.761719 562.835938 487.382812 581.449219 486.027344 600.125 C 485.074219 613.660156 495.722656 622.855469 507.984375 622.855469 C 517.679688 622.855469 527.609375 616.875 529.332031 604.535156 C 530.859375 593.617188 532.015625 580.75 532.835938 567.226562 C 536.386719 571.894531 540.542969 575.941406 545.300781 579.367188 C 550.0625 582.796875 555.21875 585.457031 560.773438 587.351562 C 561.265625 587.515625 561.769531 587.628906 562.285156 587.695312 C 562.796875 587.757812 563.3125 587.773438 563.832031 587.734375 C 564.347656 587.699219 564.859375 587.613281 565.359375 587.476562 C 565.859375 587.339844 566.339844 587.152344 566.804688 586.921875 C 567.269531 586.691406 567.707031 586.414062 568.117188 586.097656 C 568.527344 585.78125 568.902344 585.425781 569.242188 585.035156 C 569.582031 584.644531 569.878906 584.222656 570.136719 583.773438 C 570.394531 583.324219 570.605469 582.851562 570.769531 582.359375 C 570.933594 581.871094 571.046875 581.367188 571.113281 580.851562 C 571.179688 580.339844 571.191406 579.824219 571.15625 579.308594 C 571.121094 578.789062 571.035156 578.28125 570.898438 577.78125 C 570.761719 577.28125 570.578125 576.800781 570.34375 576.335938 C 570.113281 575.875 569.839844 575.4375 569.523438 575.027344 C 569.203125 574.617188 568.851562 574.242188 568.457031 573.902344 C 568.066406 573.5625 567.644531 573.265625 567.195312 573.007812 C 566.746094 572.75 566.273438 572.539062 565.78125 572.375 C 549.933594 567.089844 538.167969 552.144531 534.207031 532.328125 C 534.507812 517.003906 534.414062 502.214844 533.972656 489.746094 C 542.46875 491.949219 550.640625 495.015625 558.488281 498.949219 C 570.917969 505.332031 582.84375 498.964844 587.761719 489.730469 C 592.769531 480.328125 591.363281 467.253906 578.988281 460.464844 C 562.039062 451.167969 551.695312 445.417969 543.929688 440.789062 C 548.894531 438.605469 553.617188 435.984375 558.09375 432.921875 C 583.773438 425.597656 609.589844 436.4375 621.203125 459.597656 C 621.433594 460.0625 621.710938 460.496094 622.027344 460.90625 C 622.347656 461.316406 622.703125 461.691406 623.09375 462.03125 C 623.488281 462.371094 623.910156 462.667969 624.359375 462.921875 C 624.8125 463.179688 625.28125 463.390625 625.777344 463.554688 C 626.269531 463.71875 626.773438 463.832031 627.289062 463.894531 C 627.800781 463.960938 628.320312 463.972656 628.835938 463.9375 C 629.355469 463.898438 629.863281 463.8125 630.363281 463.675781 C 630.867188 463.539062 631.347656 463.355469 631.8125 463.121094 C 632.277344 462.890625 632.714844 462.613281 633.125 462.296875 C 633.535156 461.976562 633.910156 461.625 634.25 461.230469 C 634.589844 460.839844 634.886719 460.417969 635.144531 459.96875 C 635.398438 459.515625 635.609375 459.046875 635.773438 458.554688 C 635.9375 458.0625 636.050781 457.558594 636.117188 457.042969 C 636.183594 456.53125 636.195312 456.015625 636.160156 455.496094 C 636.121094 454.980469 636.035156 454.472656 635.898438 453.972656 C 635.757812 453.472656 635.574219 452.992188 635.34375 452.527344 C 632.34375 446.53125 628.554688 441.082031 623.972656 436.179688 C 626.191406 435.144531 628.273438 433.882812 630.214844 432.386719 C 632.15625 430.894531 633.910156 429.210938 635.476562 427.332031 C 637.046875 425.453125 638.394531 423.429688 639.515625 421.253906 C 640.636719 419.082031 641.511719 416.8125 642.132812 414.445312 Z M 377.59375 260.832031 C 377.589844 260.144531 377.675781 259.46875 377.851562 258.804688 C 378.027344 258.140625 378.285156 257.507812 378.625 256.914062 C 378.96875 256.316406 379.378906 255.773438 379.863281 255.285156 C 380.347656 254.796875 380.886719 254.378906 381.480469 254.03125 C 381.773438 253.855469 382.054688 253.664062 382.324219 253.453125 C 382.59375 253.242188 382.847656 253.015625 383.085938 252.773438 C 383.324219 252.527344 383.546875 252.269531 383.753906 252 C 383.960938 251.726562 384.148438 251.441406 384.316406 251.144531 C 384.484375 250.847656 384.632812 250.542969 384.761719 250.226562 C 384.894531 249.910156 385 249.589844 385.089844 249.257812 C 385.175781 248.929688 385.242188 248.59375 385.285156 248.257812 C 385.328125 247.917969 385.351562 247.578125 385.351562 247.238281 C 385.351562 246.894531 385.328125 246.558594 385.285156 246.21875 C 385.242188 245.878906 385.175781 245.546875 385.089844 245.214844 C 385 244.886719 384.890625 244.5625 384.761719 244.25 C 384.632812 243.933594 384.484375 243.625 384.316406 243.328125 C 384.148438 243.035156 383.960938 242.75 383.753906 242.476562 C 383.546875 242.203125 383.324219 241.945312 383.085938 241.703125 C 382.847656 241.460938 382.59375 241.234375 382.324219 241.023438 C 382.054688 240.8125 381.773438 240.621094 381.480469 240.445312 C 380.886719 240.097656 380.347656 239.679688 379.863281 239.191406 C 379.378906 238.703125 378.964844 238.160156 378.625 237.5625 C 378.285156 236.96875 378.027344 236.335938 377.851562 235.671875 C 377.675781 235.007812 377.589844 234.332031 377.59375 233.644531 L 377.59375 209.511719 C 377.59375 208.992188 377.644531 208.480469 377.746094 207.972656 C 377.847656 207.464844 378 206.972656 378.199219 206.492188 C 378.394531 206.011719 378.640625 205.558594 378.929688 205.128906 C 379.21875 204.695312 379.542969 204.296875 379.910156 203.933594 C 380.277344 203.566406 380.679688 203.238281 381.109375 202.949219 C 381.539062 202.664062 381.996094 202.417969 382.476562 202.21875 C 382.957031 202.023438 383.449219 201.871094 383.957031 201.769531 C 384.46875 201.667969 384.980469 201.617188 385.5 201.617188 L 424.84375 201.617188 C 425.363281 201.617188 425.878906 201.667969 426.386719 201.769531 C 426.894531 201.871094 427.390625 202.023438 427.871094 202.21875 C 428.347656 202.417969 428.804688 202.664062 429.234375 202.949219 C 429.667969 203.238281 430.066406 203.566406 430.433594 203.933594 C 430.800781 204.296875 431.128906 204.695312 431.417969 205.128906 C 431.707031 205.558594 431.949219 206.011719 432.148438 206.492188 C 432.347656 206.972656 432.496094 207.464844 432.597656 207.972656 C 432.699219 208.480469 432.75 208.992188 432.753906 209.511719 L 432.753906 233.644531 C 432.757812 234.722656 432.546875 235.753906 432.121094 236.746094 C 431.695312 237.738281 431.089844 238.601562 430.308594 239.34375 L 407.691406 239.34375 C 407.171875 239.34375 406.660156 239.394531 406.148438 239.496094 C 405.640625 239.597656 405.144531 239.746094 404.667969 239.945312 C 404.1875 240.140625 403.730469 240.386719 403.300781 240.671875 C 402.867188 240.960938 402.46875 241.289062 402.101562 241.65625 C 401.734375 242.023438 401.40625 242.421875 401.117188 242.851562 C 400.828125 243.28125 400.585938 243.738281 400.386719 244.21875 C 400.1875 244.695312 400.039062 245.191406 399.9375 245.699219 C 399.835938 246.207031 399.785156 246.71875 399.785156 247.238281 C 399.785156 247.757812 399.835938 248.269531 399.9375 248.777344 C 400.039062 249.285156 400.1875 249.78125 400.386719 250.257812 C 400.585938 250.738281 400.828125 251.195312 401.117188 251.625 C 401.40625 252.054688 401.734375 252.453125 402.101562 252.820312 C 402.46875 253.1875 402.867188 253.515625 403.300781 253.804688 C 403.730469 254.089844 404.1875 254.335938 404.667969 254.53125 C 405.144531 254.730469 405.640625 254.882812 406.148438 254.980469 C 406.660156 255.082031 407.171875 255.132812 407.691406 255.132812 L 430.308594 255.132812 C 431.089844 255.875 431.695312 256.742188 432.121094 257.730469 C 432.542969 258.722656 432.753906 259.753906 432.753906 260.832031 L 432.753906 284.964844 C 432.75 286.097656 432.511719 287.183594 432.042969 288.214844 C 431.570312 289.25 430.90625 290.140625 430.050781 290.886719 L 380.296875 290.886719 C 379.4375 290.140625 378.777344 289.25 378.304688 288.214844 C 377.832031 287.183594 377.597656 286.097656 377.59375 284.964844 Z M 377.59375 260.832031 " fill-opacity="1" fill-rule="nonzero"/></g></svg>