<svg xmlns="http://www.w3.org/2000/svg" xmlns:xlink="http://www.w3.org/1999/xlink" width="1080" zoomAndPan="magnify" viewBox="0 0 810 809.999993" height="1080" preserveAspectRatio="xMidYMid meet" version="1.0"><defs><clipPath id="d63180ef1e"><path d="M 251 187.59375 L 581.816406 187.59375 L 581.816406 622.59375 L 251 622.59375 Z M 251 187.59375 " clip-rule="nonzero"/></clipPath><clipPath id="b20619212e"><path d="M 227.816406 440 L 316 440 L 316 527 L 227.816406 527 Z M 227.816406 440 " clip-rule="nonzero"/></clipPath><clipPath id="47b1498c31"><path d="M 227.816406 403 L 316 403 L 316 436 L 227.816406 436 Z M 227.816406 403 " clip-rule="nonzero"/></clipPath></defs><rect x="-81" width="972" fill="#ffffff" y="-80.999999" height="971.999992" fill-opacity="1"/><rect x="-81" width="972" fill="#ff8200" y="-80.999999" height="971.999992" fill-opacity="1"/><g clip-path="url(#d63180ef1e)"><path fill="#000000" d="M 499.585938 508.800781 L 496.886719 497.398438 C 547.484375 469.15625 581.71875 415.039062 581.71875 352.910156 C 581.71875 261.609375 507.8125 187.59375 416.652344 187.59375 C 325.484375 187.59375 251.578125 261.609375 251.578125 352.910156 C 251.578125 368.839844 253.835938 384.242188 258.035156 398.816406 L 303.964844 398.816406 C 312.722656 398.816406 319.847656 405.953125 319.847656 414.722656 L 319.847656 486.8125 C 325.140625 490.65625 330.671875 494.195312 336.414062 497.398438 L 333.710938 508.800781 C 328.957031 506.25 324.332031 503.492188 319.847656 500.53125 L 319.847656 512.421875 L 332.851562 512.421875 L 310.898438 605.058594 L 310.898438 622.621094 L 522.398438 622.621094 L 522.398438 605.058594 L 500.445312 512.421875 L 560.710938 512.421875 C 566.976562 512.421875 572.058594 507.335938 572.058594 501.0625 L 572.058594 436.445312 C 555.554688 467.113281 530.265625 492.363281 499.585938 508.800781 Z M 436.5 221.589844 L 451.25 221.589844 L 451.25 236.359375 L 436.5 236.359375 Z M 409.277344 221.589844 L 424.023438 221.589844 L 424.023438 236.359375 L 409.277344 236.359375 Z M 382.050781 221.589844 L 396.796875 221.589844 L 396.796875 236.359375 L 382.050781 236.359375 Z M 321.929688 352.910156 C 321.929688 300.515625 364.335938 258.046875 416.652344 258.046875 C 468.964844 258.046875 511.371094 300.515625 511.371094 352.910156 C 511.371094 381.15625 499.027344 406.507812 479.464844 423.886719 L 476.421875 411.042969 C 491.015625 395.996094 500.027344 375.492188 500.027344 352.90625 C 500.027344 306.867188 462.625 269.40625 416.652344 269.40625 C 370.675781 269.40625 333.273438 306.867188 333.273438 352.90625 C 333.273438 375.492188 342.285156 395.996094 356.878906 411.042969 L 353.835938 423.886719 C 334.273438 406.507812 321.929688 381.15625 321.929688 352.910156 Z M 350.289062 352.90625 C 350.289062 316.261719 380.058594 286.449219 416.652344 286.449219 C 453.246094 286.449219 483.011719 316.261719 483.011719 352.90625 C 483.011719 361.203125 481.46875 369.144531 478.683594 376.476562 L 354.613281 376.476562 C 351.828125 369.144531 350.289062 361.203125 350.289062 352.90625 Z M 326.628906 592.171875 L 368.210938 392.003906 L 465.085938 392.003906 L 506.667969 592.171875 Z M 326.628906 592.171875 " fill-opacity="1" fill-rule="nonzero"/></g><path fill="#000000" d="M 401.707031 420.554688 C 402.511719 421.789062 403.726562 422.910156 405.257812 423.859375 C 406.800781 424.816406 408.664062 425.589844 410.753906 426.132812 C 412.851562 426.675781 415.167969 426.976562 417.605469 426.976562 C 420.039062 426.976562 422.355469 426.675781 424.449219 426.132812 C 426.535156 425.589844 428.394531 424.816406 429.929688 423.859375 C 431.457031 422.910156 432.660156 421.789062 433.457031 420.554688 C 434.246094 419.335938 434.632812 418.003906 434.539062 416.617188 C 434.445312 415.253906 433.886719 413.964844 432.957031 412.804688 C 432.042969 411.652344 430.765625 410.625 429.222656 409.769531 C 427.691406 408.917969 425.890625 408.234375 423.910156 407.765625 C 421.941406 407.296875 419.789062 407.035156 417.535156 407.035156 C 415.277344 407.035156 413.125 407.296875 411.160156 407.765625 C 409.183594 408.234375 407.390625 408.917969 405.863281 409.769531 C 404.328125 410.625 403.054688 411.652344 402.148438 412.804688 C 401.230469 413.964844 400.679688 415.253906 400.597656 416.617188 C 400.511719 418 400.910156 419.332031 401.707031 420.554688 Z M 401.707031 420.554688 " fill-opacity="1" fill-rule="nonzero"/><path fill="#000000" d="M 413.414062 557.28125 C 413.371094 557.40625 413.34375 557.535156 413.300781 557.660156 C 413.34375 557.535156 413.371094 557.40625 413.414062 557.28125 Z M 413.414062 557.28125 " fill-opacity="1" fill-rule="nonzero"/><path fill="#000000" d="M 412.371094 559.667969 C 412.304688 559.785156 412.25 559.90625 412.179688 560.019531 C 412.25 559.90625 412.304688 559.785156 412.371094 559.667969 Z M 412.371094 559.667969 " fill-opacity="1" fill-rule="nonzero"/><path fill="#000000" d="M 443.367188 563.964844 C 443.714844 563.6875 444.042969 563.394531 444.355469 563.089844 C 444.902344 562.550781 445.386719 561.964844 445.820312 561.347656 C 445.382812 561.96875 444.898438 562.558594 444.347656 563.097656 C 444.039062 563.398438 443.710938 563.691406 443.367188 563.964844 Z M 443.367188 563.964844 " fill-opacity="1" fill-rule="nonzero"/><path fill="#000000" d="M 447.167969 558.859375 C 447.617188 557.703125 447.878906 556.464844 447.929688 555.179688 C 447.878906 556.46875 447.613281 557.707031 447.164062 558.871094 C 447.164062 558.867188 447.164062 558.863281 447.167969 558.859375 Z M 447.167969 558.859375 " fill-opacity="1" fill-rule="nonzero"/><path fill="#000000" d="M 411.808594 560.570312 C 411.683594 560.753906 411.566406 560.941406 411.433594 561.117188 C 411.566406 560.941406 411.683594 560.75 411.808594 560.570312 Z M 411.808594 560.570312 " fill-opacity="1" fill-rule="nonzero"/><path fill="#000000" d="M 406.191406 565.417969 C 407.457031 564.792969 408.617188 564.003906 409.628906 563.089844 C 409.925781 562.824219 410.199219 562.542969 410.46875 562.257812 C 410.199219 562.542969 409.917969 562.828125 409.621094 563.097656 C 408.609375 564.007812 407.457031 564.792969 406.191406 565.417969 Z M 406.191406 565.417969 " fill-opacity="1" fill-rule="nonzero"/><path fill="#000000" d="M 411.148438 561.460938 C 410.964844 561.691406 410.78125 561.925781 410.578125 562.148438 C 410.78125 561.925781 410.964844 561.691406 411.148438 561.460938 Z M 411.148438 561.460938 " fill-opacity="1" fill-rule="nonzero"/><path fill="#000000" d="M 447.015625 559.199219 C 446.894531 559.476562 446.777344 559.753906 446.640625 560.023438 C 446.777344 559.753906 446.894531 559.476562 447.015625 559.199219 Z M 447.015625 559.199219 " fill-opacity="1" fill-rule="nonzero"/><path fill="#000000" d="M 446.378906 560.464844 C 446.25 560.6875 446.128906 560.910156 445.988281 561.121094 C 446.128906 560.910156 446.25 560.6875 446.378906 560.464844 Z M 446.378906 560.464844 " fill-opacity="1" fill-rule="nonzero"/><path fill="#000000" d="M 413.929688 554.589844 C 413.914062 554.765625 413.914062 554.949219 413.894531 555.125 C 413.914062 554.949219 413.914062 554.765625 413.929688 554.589844 Z M 413.929688 554.589844 " fill-opacity="1" fill-rule="nonzero"/><path fill="#000000" d="M 413.746094 555.945312 C 413.71875 556.101562 413.703125 556.257812 413.664062 556.410156 C 413.703125 556.257812 413.71875 556.101562 413.746094 555.945312 Z M 413.746094 555.945312 " fill-opacity="1" fill-rule="nonzero"/><path fill="#000000" d="M 443.234375 564.058594 C 442.929688 564.296875 442.617188 564.527344 442.289062 564.742188 C 442.617188 564.527344 442.929688 564.296875 443.234375 564.058594 Z M 443.234375 564.058594 " fill-opacity="1" fill-rule="nonzero"/><path fill="#000000" d="M 412.804688 558.859375 C 412.832031 558.800781 412.851562 558.738281 412.878906 558.683594 C 412.851562 558.738281 412.832031 558.800781 412.804688 558.859375 Z M 412.804688 558.859375 " fill-opacity="1" fill-rule="nonzero"/><path fill="#000000" d="M 441.851562 564.996094 C 441.609375 565.140625 441.375 565.289062 441.121094 565.417969 C 441.375 565.289062 441.609375 565.140625 441.851562 564.996094 Z M 441.851562 564.996094 " fill-opacity="1" fill-rule="nonzero"/><path fill="#000000" d="M 447.90625 553.792969 L 439.066406 442.085938 C 439.203125 442.246094 439.339844 442.414062 439.476562 442.589844 C 439.613281 442.765625 439.75 442.945312 439.890625 443.136719 C 440.027344 443.324219 440.167969 443.519531 440.308594 443.726562 C 440.449219 443.929688 440.59375 444.140625 440.734375 444.363281 C 441.414062 445.425781 442.089844 446.671875 442.742188 448.121094 C 443.398438 449.582031 444.035156 451.261719 444.617188 453.175781 C 445.210938 455.113281 445.757812 457.304688 446.230469 459.78125 C 446.710938 462.300781 447.121094 465.117188 447.433594 468.277344 C 447.519531 469.15625 447.601562 470.0625 447.675781 471 C 447.75 471.941406 447.816406 472.914062 447.871094 473.914062 C 447.929688 474.917969 447.980469 475.957031 448.019531 477.023438 C 448.058594 478.097656 448.089844 479.207031 448.109375 480.347656 C 448.121094 481.109375 448.34375 481.84375 448.742188 482.527344 C 449.140625 483.210938 449.710938 483.839844 450.414062 484.378906 C 451.121094 484.917969 451.957031 485.367188 452.882812 485.695312 C 453.816406 486.023438 454.835938 486.226562 455.898438 486.273438 C 455.933594 486.273438 455.972656 486.277344 456.011719 486.277344 C 456.046875 486.277344 456.085938 486.28125 456.125 486.28125 C 456.160156 486.28125 456.199219 486.28125 456.238281 486.28125 C 456.277344 486.28125 456.316406 486.28125 456.355469 486.28125 C 457.363281 486.28125 458.308594 486.136719 459.160156 485.867188 C 460.011719 485.601562 460.761719 485.21875 461.382812 484.738281 C 462.003906 484.257812 462.488281 483.691406 462.808594 483.054688 C 463.128906 482.421875 463.28125 481.726562 463.234375 480.988281 C 463.15625 479.796875 463.066406 478.636719 462.972656 477.507812 C 462.878906 476.386719 462.773438 475.296875 462.664062 474.238281 C 462.554688 473.183594 462.4375 472.160156 462.3125 471.164062 C 462.191406 470.175781 462.058594 469.214844 461.921875 468.277344 C 461.21875 463.539062 460.351562 459.449219 459.347656 455.898438 C 458.367188 452.433594 457.253906 449.460938 456.042969 446.894531 C 454.847656 444.375 453.546875 442.230469 452.175781 440.398438 C 450.820312 438.589844 449.386719 437.074219 447.902344 435.785156 C 447.167969 435.148438 446.414062 434.574219 445.652344 434.054688 C 444.890625 433.539062 444.125 433.074219 443.359375 432.664062 C 442.589844 432.253906 441.828125 431.894531 441.070312 431.585938 C 440.316406 431.273438 439.570312 431.011719 438.847656 430.792969 C 438.140625 430.578125 437.460938 430.40625 436.816406 430.269531 C 436.171875 430.128906 435.5625 430.027344 434.992188 429.949219 C 434.425781 429.871094 433.902344 429.824219 433.433594 429.789062 C 433.144531 429.769531 432.886719 429.761719 432.640625 429.753906 C 432.40625 429.746094 432.179688 429.742188 431.96875 429.738281 L 416.664062 429.742188 L 401.339844 429.738281 C 401.128906 429.738281 400.898438 429.742188 400.660156 429.75 C 400.425781 429.757812 400.179688 429.769531 399.910156 429.785156 C 399.441406 429.816406 398.914062 429.867188 398.339844 429.945312 C 397.769531 430.023438 397.15625 430.125 396.507812 430.265625 C 395.855469 430.402344 395.171875 430.578125 394.460938 430.792969 C 393.363281 431.125 392.230469 431.550781 391.089844 432.085938 C 389.949219 432.628906 388.796875 433.277344 387.65625 434.054688 C 386.515625 434.835938 385.382812 435.738281 384.289062 436.789062 C 383.191406 437.84375 382.125 439.042969 381.125 440.402344 C 380.101562 441.777344 379.117188 443.320312 378.1875 445.066406 C 377.246094 446.835938 376.359375 448.8125 375.53125 451.035156 C 374.695312 453.292969 373.925781 455.8125 373.234375 458.632812 C 372.527344 461.507812 371.902344 464.707031 371.375 468.277344 C 371.238281 469.210938 371.109375 470.171875 370.984375 471.164062 C 370.863281 472.160156 370.746094 473.183594 370.636719 474.234375 C 370.527344 475.296875 370.425781 476.386719 370.332031 477.507812 C 370.238281 478.636719 370.148438 479.796875 370.070312 480.988281 C 370.027344 481.726562 370.179688 482.421875 370.496094 483.054688 C 370.816406 483.691406 371.304688 484.257812 371.925781 484.738281 C 372.546875 485.214844 373.300781 485.601562 374.152344 485.867188 C 375.003906 486.132812 375.953125 486.28125 376.960938 486.28125 C 376.996094 486.28125 377.035156 486.28125 377.070312 486.28125 C 377.109375 486.28125 377.144531 486.28125 377.183594 486.28125 C 377.222656 486.277344 377.257812 486.277344 377.296875 486.277344 C 377.339844 486.277344 377.378906 486.273438 377.417969 486.269531 C 378.480469 486.226562 379.496094 486.019531 380.421875 485.695312 C 381.347656 485.367188 382.183594 484.914062 382.890625 484.375 C 383.589844 483.835938 384.164062 483.210938 384.558594 482.527344 C 384.957031 481.84375 385.179688 481.109375 385.195312 480.347656 C 385.214844 479.207031 385.242188 478.097656 385.28125 477.019531 C 385.320312 475.953125 385.371094 474.917969 385.425781 473.910156 C 385.480469 472.914062 385.546875 471.941406 385.617188 471 C 385.691406 470.0625 385.769531 469.15625 385.859375 468.273438 C 386.230469 464.460938 386.75 461.140625 387.371094 458.253906 C 387.976562 455.417969 388.683594 452.980469 389.445312 450.886719 C 390.195312 448.824219 391 447.085938 391.816406 445.625 C 392.625 444.179688 393.445312 443 394.238281 442.050781 L 385.394531 553.789062 C 385.257812 555.574219 385.523438 557.285156 386.132812 558.855469 C 386.746094 560.4375 387.710938 561.871094 388.945312 563.085938 C 390.191406 564.308594 391.710938 565.300781 393.429688 565.988281 C 395.152344 566.679688 397.074219 567.0625 399.113281 567.0625 C 401.152344 567.0625 403.109375 566.679688 404.898438 565.988281 C 405.34375 565.816406 405.773438 565.625 406.195312 565.417969 C 407.460938 564.792969 408.613281 564.007812 409.625 563.09375 C 409.921875 562.828125 410.203125 562.542969 410.472656 562.253906 C 410.507812 562.21875 410.550781 562.183594 410.582031 562.144531 C 410.785156 561.925781 410.96875 561.691406 411.15625 561.457031 C 411.246094 561.34375 411.351562 561.234375 411.4375 561.117188 C 411.574219 560.941406 411.6875 560.75 411.8125 560.566406 C 411.9375 560.386719 412.070312 560.207031 412.183594 560.019531 C 412.253906 559.90625 412.308594 559.785156 412.375 559.667969 C 412.527344 559.402344 412.679688 559.136719 412.8125 558.859375 C 412.839844 558.800781 412.859375 558.738281 412.882812 558.683594 C 413.039062 558.347656 413.183594 558.007812 413.304688 557.660156 C 413.347656 557.535156 413.378906 557.40625 413.417969 557.28125 C 413.507812 556.996094 413.601562 556.707031 413.671875 556.410156 C 413.707031 556.257812 413.722656 556.101562 413.753906 555.945312 C 413.808594 555.671875 413.867188 555.402344 413.898438 555.125 C 413.921875 554.949219 413.921875 554.765625 413.933594 554.589844 C 413.953125 554.324219 413.980469 554.0625 413.984375 553.792969 L 414.496094 478.015625 L 418.824219 478.015625 L 419.339844 553.792969 C 419.339844 553.8125 419.339844 553.832031 419.339844 553.851562 C 419.339844 553.871094 419.339844 553.890625 419.339844 553.910156 C 419.339844 553.929688 419.339844 553.949219 419.34375 553.96875 C 419.34375 553.988281 419.34375 554.007812 419.34375 554.027344 C 419.347656 554.214844 419.375 554.398438 419.386719 554.582031 C 419.40625 554.796875 419.414062 555.011719 419.441406 555.222656 C 419.472656 555.453125 419.519531 555.679688 419.5625 555.910156 C 419.597656 556.105469 419.628906 556.304688 419.675781 556.496094 C 419.730469 556.730469 419.804688 556.957031 419.875 557.183594 C 419.933594 557.367188 419.980469 557.554688 420.046875 557.738281 C 420.125 557.960938 420.226562 558.183594 420.320312 558.402344 C 420.386719 558.554688 420.4375 558.710938 420.507812 558.859375 C 420.519531 558.882812 420.535156 558.90625 420.546875 558.929688 C 420.558594 558.957031 420.566406 558.988281 420.582031 559.015625 C 420.671875 559.203125 420.785156 559.378906 420.886719 559.5625 C 420.980469 559.734375 421.070312 559.914062 421.175781 560.082031 C 421.296875 560.285156 421.4375 560.476562 421.574219 560.667969 C 421.6875 560.835938 421.796875 561.007812 421.917969 561.167969 C 422.066406 561.363281 422.234375 561.550781 422.394531 561.742188 C 422.519531 561.890625 422.636719 562.039062 422.769531 562.183594 C 422.9375 562.367188 423.121094 562.539062 423.300781 562.714844 C 423.429688 562.839844 423.546875 562.972656 423.679688 563.089844 C 423.695312 563.101562 423.710938 563.113281 423.726562 563.128906 C 423.742188 563.140625 423.753906 563.15625 423.769531 563.171875 C 423.953125 563.335938 424.152344 563.484375 424.347656 563.640625 C 424.492188 563.757812 424.628906 563.878906 424.777344 563.988281 C 425.007812 564.160156 425.253906 564.316406 425.496094 564.476562 C 425.636719 564.570312 425.773438 564.671875 425.917969 564.757812 C 426.175781 564.917969 426.449219 565.058594 426.71875 565.203125 C 426.859375 565.277344 426.996094 565.363281 427.140625 565.433594 C 427.441406 565.582031 427.753906 565.710938 428.070312 565.84375 C 428.183594 565.890625 428.296875 565.949219 428.414062 565.992188 C 428.417969 565.996094 428.425781 565.996094 428.429688 566 C 428.445312 566.003906 428.457031 566.011719 428.472656 566.015625 C 428.765625 566.128906 429.074219 566.21875 429.378906 566.316406 C 429.519531 566.363281 429.65625 566.417969 429.800781 566.457031 C 430.113281 566.546875 430.4375 566.613281 430.757812 566.683594 C 430.914062 566.71875 431.066406 566.761719 431.222656 566.792969 C 431.566406 566.855469 431.914062 566.898438 432.265625 566.9375 C 432.40625 566.957031 432.546875 566.984375 432.691406 566.996094 C 433.1875 567.042969 433.6875 567.066406 434.195312 567.066406 C 436.234375 567.066406 438.152344 566.683594 439.878906 565.992188 C 440.308594 565.820312 440.726562 565.632812 441.128906 565.421875 C 441.378906 565.292969 441.617188 565.144531 441.855469 565 C 442 564.914062 442.152344 564.835938 442.292969 564.746094 C 442.625 564.53125 442.9375 564.300781 443.242188 564.0625 C 443.28125 564.03125 443.332031 564 443.371094 563.96875 C 443.714844 563.691406 444.042969 563.402344 444.355469 563.097656 C 444.902344 562.558594 445.390625 561.96875 445.824219 561.347656 C 445.878906 561.269531 445.945312 561.199219 445.996094 561.121094 C 446.136719 560.910156 446.257812 560.6875 446.382812 560.46875 C 446.46875 560.320312 446.566406 560.175781 446.644531 560.023438 C 446.785156 559.757812 446.902344 559.476562 447.019531 559.199219 C 447.066406 559.089844 447.125 558.984375 447.167969 558.871094 C 447.621094 557.710938 447.882812 556.46875 447.933594 555.183594 C 447.9375 555.167969 447.9375 555.152344 447.941406 555.136719 C 447.953125 554.800781 447.9375 554.457031 447.917969 554.117188 C 447.90625 554.007812 447.914062 553.902344 447.90625 553.792969 Z M 447.90625 553.792969 " fill-opacity="1" fill-rule="nonzero"/><path fill="#000000" d="M 447.914062 554.117188 C 447.929688 554.457031 447.945312 554.800781 447.933594 555.136719 C 447.945312 554.796875 447.929688 554.457031 447.914062 554.117188 Z M 447.914062 554.117188 " fill-opacity="1" fill-rule="nonzero"/><g clip-path="url(#b20619212e)"><path fill="#000000" d="M 239.308594 526.058594 L 303.96875 526.058594 C 310.234375 526.058594 315.3125 520.972656 315.3125 514.695312 L 315.3125 440.285156 L 227.964844 440.285156 L 227.964844 514.695312 C 227.964844 520.972656 233.042969 526.058594 239.308594 526.058594 Z M 239.308594 526.058594 " fill-opacity="1" fill-rule="nonzero"/></g><g clip-path="url(#47b1498c31)"><path fill="#000000" d="M 315.3125 435.738281 L 315.3125 414.722656 C 315.3125 408.449219 310.234375 403.363281 303.96875 403.363281 L 239.308594 403.363281 C 233.042969 403.363281 227.964844 408.449219 227.964844 414.722656 L 227.964844 435.738281 Z M 301.324219 413.964844 C 304.347656 413.964844 306.804688 416.425781 306.804688 419.457031 C 306.804688 422.488281 304.347656 424.949219 301.324219 424.949219 C 298.292969 424.949219 295.839844 422.488281 295.839844 419.457031 C 295.839844 416.425781 298.292969 413.964844 301.324219 413.964844 Z M 284.96875 413.964844 C 287.996094 413.964844 290.449219 416.425781 290.449219 419.457031 C 290.449219 422.488281 287.996094 424.949219 284.96875 424.949219 C 281.941406 424.949219 279.484375 422.488281 279.484375 419.457031 C 279.484375 416.425781 281.941406 413.964844 284.96875 413.964844 Z M 268.613281 413.964844 C 271.640625 413.964844 274.09375 416.425781 274.09375 419.457031 C 274.09375 422.488281 271.640625 424.949219 268.613281 424.949219 C 265.585938 424.949219 263.128906 422.488281 263.128906 419.457031 C 263.128906 416.425781 265.585938 413.964844 268.613281 413.964844 Z M 268.613281 413.964844 " fill-opacity="1" fill-rule="nonzero"/></g></svg>