<svg xmlns="http://www.w3.org/2000/svg" xmlns:xlink="http://www.w3.org/1999/xlink" width="1080" zoomAndPan="magnify" viewBox="0 0 810 809.999993" height="1080" preserveAspectRatio="xMidYMid meet" version="1.0"><defs><clipPath id="b83b1c44d2"><path d="M 162.382812 174 L 647 174 L 647 634 L 162.382812 634 Z M 162.382812 174 " clip-rule="nonzero"/></clipPath></defs><rect x="-81" width="972" fill="#ffffff" y="-80.999999" height="971.999992" fill-opacity="1"/><rect x="-81" width="972" fill="#ff8200" y="-80.999999" height="971.999992" fill-opacity="1"/><g clip-path="url(#b83b1c44d2)"><path fill="#000000" d="M 229.347656 290.648438 C 227.773438 289.859375 226.121094 288.382812 224.421875 286.054688 C 224.421875 286.054688 224.042969 285.472656 223.300781 284.355469 C 222.546875 283.269531 221.382812 281.617188 220.136719 279.351562 C 217.554688 274.839844 213.527344 268.324219 209.242188 259.515625 C 204.757812 250.800781 200.066406 239.773438 195.152344 226.875 C 193.925781 223.652344 192.886719 220.238281 191.65625 216.761719 C 191.058594 215 190.476562 213.238281 189.847656 211.429688 C 189.328125 209.605469 188.792969 207.75 188.210938 205.890625 C 187.1875 202.132812 185.910156 198.292969 184.953125 194.265625 C 184.351562 191.78125 183.738281 189.1875 183.09375 186.542969 C 183.394531 186.417969 182.683594 186.605469 181.300781 187.0625 C 180.761719 187.21875 180.164062 187.441406 179.519531 187.628906 C 178.464844 187.976562 177.441406 188.367188 176.417969 188.777344 C 174.371094 189.675781 172.96875 190.507812 172.578125 191.625 C 171.585938 193.699219 171.949219 198.355469 172.84375 202.132812 C 173.929688 206.144531 174.921875 210.109375 176.417969 214.007812 C 179.109375 221.765625 182.589844 229.046875 185.847656 236.140625 C 192.492188 250.675781 197.355469 263.796875 202.488281 274.207031 C 207.511719 284.714844 212.535156 292.378906 216.40625 297.160156 C 218.328125 299.597656 219.949219 301.28125 221.066406 302.398438 C 222.121094 303.578125 222.796875 304.097656 222.796875 304.097656 C 222.894531 304.222656 222.988281 304.316406 223.113281 304.441406 C 224.011719 300.589844 225.882812 295.855469 229.347656 290.648438 Z M 556.683594 378.722656 C 556.828125 376.769531 557.234375 374.867188 557.109375 372.917969 C 556.953125 369.046875 556.953125 365.207031 556.339844 361.386719 C 555.347656 353.757812 553.550781 346.441406 550.9375 339.601562 C 545.726562 325.929688 536.816406 314.761719 526.457031 307.101562 C 521.214844 303.324219 515.65625 300.429688 510.085938 298.117188 C 507.25 297.191406 504.496094 296.011719 501.691406 295.414062 C 500.277344 295.019531 498.90625 294.675781 497.535156 294.296875 C 496.121094 294.027344 494.71875 293.746094 493.347656 293.496094 C 471.230469 289.152344 452.839844 287.910156 440.261719 287.910156 C 433.949219 287.816406 429.101562 288.191406 425.777344 288.257812 C 422.488281 288.507812 420.757812 288.695312 420.757812 288.695312 C 417.464844 289.058594 414.617188 289.089844 412.285156 289.308594 C 409.957031 289.53125 408.035156 289.625 406.539062 289.59375 C 405.988281 289.5625 405.578125 289.53125 405.140625 289.46875 C 405.089844 297.488281 405.058594 307.542969 404.996094 319.261719 C 405.058594 334.878906 404.585938 353.535156 404.460938 374.160156 C 404.335938 384.480469 404.242188 395.300781 404.117188 406.46875 C 403.847656 417.683594 403.566406 429.246094 403.3125 441.09375 C 402.382812 488.457031 401.265625 531.558594 400.949219 562.859375 C 400.714844 594.164062 400.589844 613.605469 400.589844 613.605469 C 400.527344 616.40625 400.335938 618.65625 400.085938 620.496094 C 401.863281 620.214844 403.894531 619.835938 406.164062 619.410156 C 406.289062 619.378906 406.414062 619.347656 406.507812 619.347656 C 406.164062 617.082031 405.707031 614.332031 405.707031 610.886719 C 405.707031 610.886719 405.738281 610.414062 405.738281 609.484375 C 405.769531 608.558594 405.957031 607.0625 406.195312 605.300781 C 406.632812 602.011719 407.265625 597.152344 408.097656 590.90625 C 408.617188 584.601562 409.421875 576.9375 409.578125 567.941406 C 409.800781 563.457031 409.734375 558.644531 409.734375 553.5625 C 409.765625 548.453125 409.609375 543.085938 409.484375 537.378906 C 409.3125 526.003906 409.089844 513.074219 413.058594 499.71875 C 413.4375 498.035156 414.269531 496.398438 414.882812 494.75 C 415.417969 493.019531 416.472656 491.460938 417.402344 489.824219 L 418.144531 488.613281 L 419.070312 487.527344 L 420.945312 485.324219 C 421.621094 484.648438 422.457031 484.113281 423.179688 483.46875 C 423.953125 482.871094 424.691406 482.226562 425.558594 481.800781 C 432.171875 477.824219 439.398438 476.1875 446.101562 473.152344 C 459.753906 467.566406 473.246094 459.417969 487.492188 451.535156 C 501.660156 443.625 516.351562 435.382812 529.417969 424.527344 C 535.980469 419.195312 541.730469 413.0625 546.355469 406.34375 C 550.96875 399.644531 554.417969 392.234375 555.820312 384.511719 C 556.023438 383.550781 556.339844 382.589844 556.433594 381.632812 Z M 582.867188 355.15625 C 582.867188 350.753906 582.992188 346.253906 582.867188 342.007812 C 582.835938 337.757812 582.125 333.605469 581.199219 329.609375 C 579.214844 321.558594 575.355469 314.289062 570.367188 308.125 C 565.359375 301.988281 559.34375 296.90625 552.984375 292.722656 C 546.65625 288.476562 539.980469 285.15625 533.367188 282.308594 C 520.097656 276.664062 506.96875 273.25 494.875 270.796875 C 482.832031 268.261719 471.542969 267.242188 461.769531 265.902344 C 451.882812 264.660156 443.425781 263.574219 436.453125 262.679688 C 432.972656 262.222656 429.902344 261.875 427.179688 261.46875 C 424.503906 261.042969 422.300781 260.726562 420.535156 260.507812 C 416.960938 260.050781 415.136719 260.019531 415.136719 260.019531 C 411.65625 259.800781 408.742188 259.863281 406.730469 260.257812 C 405.832031 260.445312 405.234375 260.632812 404.683594 260.855469 C 404.996094 262.804688 405.234375 265.289062 405.234375 268.515625 C 405.234375 268.515625 405.234375 274.523438 405.171875 285.1875 C 405.359375 285.125 405.484375 285.03125 405.675781 284.96875 C 407.152344 284.417969 409.058594 283.851562 411.46875 283.238281 C 413.859375 282.671875 416.773438 282.4375 420.222656 282.089844 C 420.222656 282.089844 421.589844 281.996094 424.347656 281.773438 C 427.085938 281.710938 431.179688 281.617188 436.609375 281.523438 C 447.457031 281.710938 463.65625 282.46875 484.644531 286.148438 C 487.304688 286.527344 489.980469 287.109375 492.765625 287.675781 C 495.554688 288.289062 498.371094 288.695312 501.332031 289.59375 C 507.28125 291.023438 513.296875 293.496094 519.355469 296.53125 C 531.386719 302.789062 542.988281 313.1875 550.71875 327.441406 C 554.605469 334.503906 557.550781 342.414062 559.410156 350.878906 C 561.25 359.308594 562.257812 368.246094 561.519531 377.667969 C 560.808594 386.996094 557.945312 396.636719 552.6875 405.195312 C 547.492188 413.785156 540.390625 421.351562 532.363281 428.066406 C 516.191406 441.375 498.84375 450.421875 483.179688 459.355469 C 475.324219 463.808594 467.734375 468.179688 460.097656 472.003906 C 458.226562 472.960938 456.304688 473.921875 454.445312 474.847656 C 452.558594 475.777344 450.605469 476.5 448.699219 477.335938 C 444.921875 479.035156 441.113281 480.433594 437.507812 481.769531 C 433.871094 483.125 430.582031 484.585938 427.699219 486.378906 C 426.992188 486.851562 426.390625 487.433594 425.746094 487.90625 L 424.785156 488.675781 C 424.503906 488.960938 424.234375 489.273438 423.984375 489.605469 L 422.425781 491.429688 C 421.96875 492.089844 421.621094 492.828125 421.210938 493.535156 C 418.113281 499.214844 416.664062 505.917969 415.78125 512.144531 C 414.238281 524.761719 415.105469 536.542969 415.386719 547.113281 C 416.160156 568.320312 415.042969 584.472656 413.957031 595.234375 C 413.339844 600.566406 412.867188 604.59375 412.539062 607.285156 C 412.285156 609.644531 412.347656 610.917969 412.347656 610.917969 C 412.347656 613.605469 412.539062 615.996094 412.601562 618.199219 C 414.394531 617.886719 416.316406 617.570312 418.363281 617.242188 C 418.488281 615.070312 418.679688 612.617188 418.976562 609.800781 C 418.976562 609.800781 419.199219 607.898438 419.605469 604.183594 C 419.796875 602.359375 420.109375 600.0625 420.503906 597.375 C 420.914062 594.667969 421.246094 591.570312 422.015625 588.09375 C 422.644531 584.601562 423.480469 580.589844 424.046875 576.75 C 424.691406 572.769531 424.785156 568.289062 424.785156 563.410156 C 424.722656 558.519531 424.410156 553.25 424.503906 547.460938 C 424.597656 541.75 425.007812 535.425781 426.769531 529.199219 C 428.359375 522.9375 431.210938 516.363281 435.964844 510.839844 C 440.671875 505.257812 447.0625 501.136719 453.582031 497.675781 C 460.128906 494.136719 466.949219 491.003906 473.71875 487.246094 C 480.535156 483.5 487.554688 479.648438 494.71875 475.683594 C 501.914062 471.71875 509.0625 467.347656 516.492188 463.035156 C 523.890625 458.664062 531.355469 454.257812 538.3125 448.894531 C 552.308594 438.324219 565.203125 424.84375 573.089844 408.136719 C 580.726562 391.273438 582.519531 372.789062 582.867188 355.15625 Z M 598.910156 370.746094 C 601.238281 359.121094 602.011719 346.976562 600.152344 335.164062 C 598.042969 321.589844 592.359375 308.957031 583.953125 298.574219 C 575.417969 288.289062 564.621094 280.171875 553.109375 273.625 C 541.570312 267.050781 529.402344 261.875 517.277344 257.078125 C 511.25 254.625 505.234375 252.738281 499.285156 250.597656 C 493.253906 248.851562 487.242188 247.121094 481.257812 245.625 C 457.265625 239.964844 433.730469 237.902344 411.75 238.09375 C 406.242188 238.1875 400.855469 238.1875 395.550781 238.660156 C 390.230469 239.003906 385.035156 239.304688 379.917969 239.773438 C 369.777344 240.796875 360.066406 242.277344 350.855469 244.023438 C 314.015625 251.023438 285.503906 262.457031 268.171875 273.21875 C 254.726562 281.554688 236.464844 295.191406 232.214844 311.113281 C 230.464844 317.671875 231.898438 326.199219 230.90625 333.117188 C 230.339844 337.144531 229.285156 341.914062 228.324219 347.621094 C 227.332031 353.300781 226.183594 359.8125 225.835938 367.097656 C 225.773438 368.890625 225.695312 370.777344 225.601562 372.695312 C 225.632812 374.632812 225.882812 376.582031 226.027344 378.625 C 226.214844 380.640625 226.308594 382.75 226.6875 384.855469 C 226.90625 386.996094 227.394531 389.101562 227.898438 391.273438 C 229.914062 399.925781 234.117188 409.191406 239.707031 418.613281 C 245.453125 427.972656 252.804688 437.519531 262 446.363281 C 271.179688 455.25 282.371094 462.878906 295.628906 469.484375 C 322.0625 482.636719 347.878906 491.710938 366.269531 508.921875 C 370.800781 513.5625 374.125 518.816406 376.5 524.054688 C 378.863281 529.292969 380.421875 534.46875 381.570312 539.421875 C 383.742188 549.347656 384.453125 558.363281 384.765625 566.273438 C 385.316406 582.144531 384.609375 593.898438 384.453125 601.761719 C 384.230469 609.546875 384.136719 613.480469 384.136719 613.480469 C 384.011719 617.050781 383.554688 619.773438 382.847656 621.847656 C 383.269531 621.847656 383.648438 621.847656 384.105469 621.882812 C 384.105469 621.882812 384.261719 621.882812 385.191406 621.914062 C 386.136719 621.882812 387.835938 621.976562 391.0625 621.691406 C 392.023438 621.613281 393.109375 621.488281 394.324219 621.332031 C 394.039062 619.378906 393.882812 616.800781 393.945312 613.511719 C 393.945312 613.511719 394.355469 598.570312 395.1875 569.53125 C 395.835938 540.507812 397.613281 497.390625 398.699219 440.996094 C 399 426.886719 399.34375 413.625 399.472656 401.199219 C 399.503906 388.789062 399.535156 377.195312 399.566406 366.46875 C 399.597656 345.042969 399.644531 326.984375 399.34375 312.496094 C 398.839844 283.425781 398.605469 268.515625 398.605469 268.515625 C 398.589844 266.53125 398.636719 264.878906 398.761719 263.386719 C 398.511719 262.585938 398.417969 261.5 398.792969 260.050781 C 398.9375 259.421875 399.21875 258.808594 399.597656 258.210938 C 400.179688 256.386719 400.949219 255.550781 401.800781 255.550781 C 401.957031 255.550781 402.132812 255.617188 402.289062 255.679688 C 403.15625 255.113281 404.117188 254.625 405.089844 254.339844 C 408.175781 253.351562 411.65625 253.160156 415.546875 253.382812 C 415.546875 253.382812 417.121094 253.476562 420.15625 253.871094 C 423.210938 254.183594 427.636719 255.113281 433.320312 255.867188 C 444.953125 257.535156 462.304688 259.988281 485.226562 263.246094 C 496.765625 265.226562 509.613281 268.074219 523.386719 272.824219 C 530.25 275.230469 537.382812 278.125 544.515625 281.839844 C 551.632812 285.535156 558.777344 290.113281 565.453125 295.917969 C 572.003906 301.800781 578.113281 309.050781 582.125 317.859375 C 586.3125 326.542969 587.984375 336.894531 587.621094 346.914062 C 587.621094 356.855469 587.210938 367.191406 586.0625 377.855469 C 584.628906 388.535156 581.96875 399.484375 577.277344 410.054688 C 567.136719 431.007812 550.96875 446.457031 534.28125 457.546875 C 532.171875 458.914062 530.09375 460.28125 528.046875 461.652344 C 525.96875 462.972656 523.859375 464.152344 521.828125 465.394531 C 517.6875 467.847656 513.640625 470.257812 509.675781 472.617188 C 501.789062 477.429688 493.949219 481.738281 486.46875 485.890625 C 478.960938 490.046875 471.796875 494.167969 464.726562 497.722656 C 457.707031 501.292969 451.09375 504.644531 445.757812 508.828125 C 434.863281 517.070312 431.460938 529.96875 430.46875 540.792969 C 429.777344 551.882812 431.148438 562.058594 430.675781 571.136719 C 430.582031 575.570312 429.777344 579.976562 429.195312 583.53125 C 428.597656 587.070312 427.984375 590.230469 427.542969 593.109375 C 426.832031 598.851562 426.21875 603.160156 426 606.101562 C 425.714844 609.011719 425.589844 610.476562 425.589844 610.476562 C 425.367188 612.648438 425.101562 614.628906 424.882812 616.40625 C 425.683594 616.34375 426.40625 616.25 427.242188 616.1875 C 427.730469 616.15625 428.234375 616.125 428.722656 616.09375 L 429.132812 616.0625 C 429.445312 616.0625 429.257812 616.0625 429.351562 616.09375 C 429.414062 616.1875 429.507812 616.125 429.507812 615.558594 C 429.507812 613.542969 429.507812 610.949219 429.507812 607.847656 C 429.507812 606.007812 429.746094 604.089844 429.871094 601.949219 C 429.996094 599.84375 430.15625 597.609375 430.4375 595.265625 C 431.335938 585.890625 433.414062 574.609375 434.152344 561.964844 C 434.21875 560.375 434.28125 558.738281 434.34375 557.121094 C 434.375 555.390625 434.40625 553.628906 434.4375 551.847656 C 434.5 548.230469 434.59375 544.472656 434.988281 540.445312 C 435.429688 536.417969 436.136719 531.980469 438.152344 527.546875 C 440.089844 523.0625 443.457031 519.113281 447.0625 516.171875 C 454.382812 510.289062 462.273438 506.308594 470.914062 502.410156 C 475.195312 500.269531 479.574219 498.601562 484.042969 496.886719 C 488.453125 495.125 492.957031 493.363281 497.488281 491.585938 C 499.726562 490.660156 502.101562 489.824219 504.304688 488.800781 C 506.480469 487.78125 508.683594 486.726562 510.886719 485.671875 C 515.390625 483.628906 519.75 481.234375 523.921875 478.390625 C 532.410156 472.835938 540.578125 466.199219 548.261719 458.632812 C 563.566406 443.484375 577.339844 425.09375 587.433594 404.078125 C 592.421875 393.539062 596.453125 382.371094 598.910156 370.746094 Z M 636.566406 202.636719 C 636.722656 201.894531 636.976562 201.140625 637.101562 200.433594 C 637.007812 200.433594 636.722656 200.339844 636.238281 200.246094 C 635.355469 199.992188 635.355469 199.992188 632.914062 199.285156 C 631.058594 198.703125 629.246094 198.167969 627.8125 197.949219 C 626.398438 197.726562 625.957031 197.820312 625.277344 198.230469 L 624.886719 198.578125 L 624.445312 199.191406 C 624.160156 199.695312 623.785156 200.308594 623.5 201.046875 C 622.824219 202.511719 622.367188 203.878906 621.832031 205.703125 C 621.3125 207.496094 620.808594 209.242188 620.304688 210.972656 C 619.265625 214.449219 618.273438 217.878906 617.28125 221.199219 C 616.320312 224.515625 615.40625 227.773438 614.511719 230.933594 C 614.070312 232.460938 613.644531 233.9375 613.234375 235.402344 C 612.839844 236.914062 612.464844 238.375 612.101562 239.804688 C 610.730469 245.816406 609.457031 251.398438 608.277344 256.511719 C 605.820312 266.925781 602.8125 275.515625 599.710938 281.335938 C 599.003906 282.796875 598.246094 284.070312 597.507812 285.15625 C 596.832031 286.242188 596.296875 287.203125 595.679688 287.910156 C 594.53125 289.339844 593.949219 290.113281 593.949219 290.113281 C 592.941406 291.199219 591.917969 291.984375 590.925781 292.597656 C 592.753906 294.832031 594.40625 297.191406 595.996094 299.628906 C 596.199219 299.332031 596.328125 299.078125 596.546875 298.796875 C 596.546875 298.796875 596.957031 298.214844 597.792969 297.191406 C 598.65625 296.214844 599.742188 294.515625 601.113281 292.28125 C 603.898438 287.816406 607.316406 280.753906 611.1875 271.296875 C 612.210938 268.9375 613.203125 266.46875 614.382812 263.828125 C 615.535156 261.261719 616.714844 258.589844 617.957031 255.804688 C 620.351562 250.410156 623.074219 244.636719 625.3125 238.34375 C 626.492188 235.214844 627.703125 231.988281 628.914062 228.730469 C 630.019531 225.382812 631.089844 221.953125 632.191406 218.476562 C 632.726562 216.714844 633.292969 214.96875 633.84375 213.175781 C 634.316406 211.382812 634.804688 209.574219 635.261719 207.75 C 635.703125 206.050781 636.109375 204.367188 636.566406 202.636719 Z M 190.164062 176.035156 C 190.164062 175.972656 190.132812 175.910156 190.132812 175.816406 C 191.65625 181.855469 193.199219 187.691406 194.632812 193.324219 C 195.972656 197.554688 197.246094 201.675781 198.476562 205.609375 C 199.65625 209.574219 201.183594 213.238281 202.441406 216.792969 C 203.105469 218.570312 203.75 220.332031 204.347656 222.015625 C 205.054688 223.683594 205.765625 225.320312 206.425781 226.90625 C 207.796875 230.070312 209.085938 233.105469 210.328125 235.984375 C 211.699219 238.785156 212.992188 241.472656 214.234375 243.992188 C 216.59375 249.070312 219.144531 253.382812 221.320312 257.1875 C 222.40625 259.09375 223.398438 260.855469 224.324219 262.519531 C 225.378906 264.078125 226.339844 265.542969 227.207031 266.863281 C 228.953125 269.535156 230.433594 271.707031 231.582031 273.46875 C 232.667969 275.230469 233.722656 276.347656 234.339844 277.167969 C 234.9375 277.96875 235.21875 278.363281 235.21875 278.363281 C 235.992188 279.382812 236.527344 280.359375 236.984375 281.289062 C 237.628906 280.625 238.414062 279.824219 239.3125 278.894531 C 242.855469 275.640625 248.304688 270.890625 256.191406 265.808594 C 271.886719 255.519531 297.328125 244.148438 332.355469 236.363281 C 349.832031 232.507812 369.8125 229.171875 392.023438 228.246094 C 414.207031 227.003906 438.8125 227.710938 464.996094 232.238281 C 468.285156 232.695312 471.574219 233.484375 474.867188 234.191406 C 478.203125 234.929688 481.558594 235.652344 484.910156 236.394531 C 488.265625 237.351562 491.617188 238.3125 495.003906 239.273438 C 498.386719 240.261719 501.820312 241.144531 505.203125 242.464844 C 508.558594 243.675781 511.972656 244.886719 515.421875 246.128906 C 518.886719 247.339844 522.207031 248.820312 525.625 250.15625 C 529.039062 251.589844 532.457031 253.066406 535.917969 254.53125 C 539.335938 256.167969 542.847656 257.628906 546.292969 259.390625 C 558.699219 265.589844 571.292969 273.09375 582.410156 283.425781 C 582.835938 282.734375 583.371094 281.996094 584.109375 281.191406 C 584.109375 281.191406 584.425781 280.847656 585.132812 280.078125 C 585.875 279.414062 586.738281 278.0625 587.984375 276.378906 C 590.40625 272.855469 593.351562 266.738281 596.234375 257.816406 C 597.664062 253.351562 599.066406 248.207031 600.609375 242.371094 C 601.394531 239.429688 602.261719 236.332031 603.222656 233.042969 C 604.246094 229.847656 605.332031 226.5 606.449219 223.007812 C 608.621094 216.179688 610.953125 208.800781 613.488281 200.875 C 614.257812 198.625 615.109375 196.40625 616.839844 193.828125 C 617.769531 192.488281 619.074219 191.011719 620.808594 190.066406 C 622.445312 188.996094 624.414062 188.652344 626.332031 188.558594 C 627.199219 188.589844 628.191406 188.621094 628.882812 188.746094 C 629.59375 188.871094 630.363281 188.996094 630.960938 189.15625 C 632.285156 189.484375 633.433594 189.800781 634.550781 190.144531 C 635.765625 190.507812 636.976562 190.886719 638.1875 191.230469 C 641.824219 192.316406 644.015625 193.699219 645.195312 195.429688 C 647.902344 199.253906 645.539062 204.742188 643.792969 211.964844 C 642.816406 216.304688 641.351562 220.394531 640.234375 224.390625 C 638.03125 232.429688 635.230469 239.648438 632.914062 246.460938 C 630.425781 253.128906 627.828125 259.21875 625.65625 264.753906 C 623.546875 269.992188 621.800781 274.933594 620.132812 279.476562 C 616.808594 288.445312 613.960938 295.445312 611.316406 299.945312 C 610.195312 302.242188 609.046875 303.875 608.308594 304.992188 C 607.597656 306.109375 607.222656 306.644531 607.222656 306.644531 C 606.703125 307.351562 606.230469 307.996094 605.710938 308.53125 C 605.144531 309.019531 604.59375 309.460938 604.058594 309.804688 C 603.410156 310.230469 602.8125 310.515625 602.230469 310.703125 C 605.585938 317.921875 608.085938 325.648438 609.238281 333.734375 C 610.417969 341.550781 610.667969 349.382812 610.164062 356.980469 C 609.519531 364.578125 608.246094 371.988281 606.449219 379.144531 C 602.6875 393.351562 597.175781 406.546875 590.46875 418.550781 C 583.859375 430.554688 576.253906 441.5 567.972656 451.347656 C 559.722656 461.210938 550.9375 470.050781 541.570312 477.632812 C 532.234375 485.199219 522.363281 491.773438 512.066406 496.210938 C 507.046875 498.871094 502.101562 500.617188 497.269531 502.628906 C 492.515625 504.546875 487.855469 506.4375 483.304688 508.292969 C 482.1875 508.734375 481.070312 509.171875 479.953125 509.660156 C 478.898438 510.164062 477.84375 510.652344 476.789062 511.15625 C 474.710938 512.175781 472.664062 513.167969 470.617188 514.160156 C 466.492188 515.984375 462.695312 518.34375 459.171875 520.546875 C 455.691406 522.8125 452.714844 525.25 450.636719 527.796875 C 448.558594 530.347656 447.457031 533.160156 446.75 536.449219 C 446.070312 539.707031 445.851562 543.292969 445.757812 546.863281 C 445.664062 550.402344 445.695312 553.988281 445.695312 557.402344 C 445.597656 564.683594 445.113281 571.324219 444.449219 577.222656 C 443.207031 589.050781 442.042969 598.441406 441.945312 605.519531 C 441.851562 609.109375 442.074219 612.019531 442.105469 614.472656 C 442.75 619.472656 443.238281 625.011719 438.878906 628.457031 C 432.484375 633.503906 418.488281 629.949219 410.664062 630.628906 C 398.792969 631.679688 388.105469 635.21875 376.109375 631.996094 C 364.128906 628.738281 371.335938 607.410156 371.953125 598.394531 C 372.597656 589.113281 373.839844 575.695312 373.210938 559.542969 C 372.816406 551.488281 371.890625 542.710938 369.210938 533.964844 C 366.457031 525.21875 361.953125 516.816406 353.484375 510.933594 C 351.34375 509.378906 349.203125 507.773438 347.03125 506.136719 C 344.761719 504.609375 342.324219 503.273438 339.960938 501.765625 C 338.78125 501.039062 337.566406 500.300781 336.386719 499.5625 C 335.113281 498.933594 333.867188 498.257812 332.578125 497.578125 C 330.027344 496.242188 327.460938 494.875 324.847656 493.535156 C 314.234375 488.394531 302.886719 483.40625 291.441406 477.664062 C 288.605469 476.125 285.789062 474.628906 283.015625 473.117188 C 280.167969 471.65625 277.570312 469.800781 274.863281 468.179688 C 269.429688 464.988281 264.441406 460.992188 259.78125 456.996094 C 250.476562 448.925781 242.605469 439.976562 235.992188 430.804688 C 229.347656 421.617188 224.136719 412.039062 220.390625 402.425781 C 219.476562 400.019531 218.707031 397.597656 217.933594 395.207031 C 217.382812 392.785156 216.59375 390.378906 216.25 388.019531 C 215.320312 383.296875 215.019531 378.691406 214.515625 374.285156 C 214.34375 372.113281 214.484375 369.945312 214.453125 367.867188 C 214.515625 365.789062 214.34375 363.683594 214.613281 361.765625 C 214.988281 357.910156 215.148438 354.132812 215.699219 350.847656 C 216.59375 344.242188 217.382812 338.546875 218.027344 333.890625 C 218.515625 329.390625 219.050781 325.851562 219.113281 323.507812 C 219.210938 321.210938 219.273438 319.96875 219.273438 319.96875 C 219.398438 318.976562 219.507812 318.113281 219.601562 317.246094 C 218.894531 317.089844 218.121094 316.871094 217.289062 316.492188 C 216.074219 315.785156 214.738281 314.761719 213.335938 313.425781 C 213.335938 313.425781 211.117188 311.160156 207.480469 306.332031 C 203.84375 301.5 199.199219 293.933594 194.507812 283.632812 C 189.644531 273.375 185.078125 260.257812 179.125 245.359375 C 176.167969 238.15625 172.292969 229.914062 168.910156 220.898438 C 168.105469 218.601562 167.304688 216.242188 166.484375 213.882812 C 165.617188 211.507812 165.097656 208.863281 164.390625 206.300781 C 164.074219 204.996094 163.699219 203.753906 163.414062 202.382812 C 163.210938 200.9375 162.988281 199.503906 162.894531 198.042969 C 162.738281 195.132812 162.484375 191.78125 164.25 187.722656 C 165.335938 185.300781 167.445312 183.222656 169.285156 182.074219 C 171.144531 180.992188 172.859375 180.21875 174.308594 179.714844 C 178.230469 178.332031 181.722656 177.121094 184.449219 176.160156 C 186.132812 175.5625 187.582031 175.042969 188.714844 174.636719 C 188.980469 174.542969 189.265625 174.429688 189.515625 174.351562 C 189.644531 174.242188 189.707031 174.320312 189.753906 174.476562 L 189.816406 174.792969 C 189.910156 175.074219 189.972656 175.328125 190.035156 175.53125 C 190.066406 175.65625 190.066406 175.722656 190.097656 175.816406 C 190.132812 175.910156 190.132812 175.972656 190.164062 176.035156 " fill-opacity="1" fill-rule="nonzero"/></g><path fill="#000000" d="M 547.238281 355.09375 C 548.640625 355.0625 550.292969 365.601562 548.859375 378.816406 C 548.058594 385.40625 546.5 391.398438 544.199219 395.363281 C 543.097656 397.28125 541.695312 398.933594 540.707031 399.644531 C 539.683594 400.320312 538.988281 400.570312 538.738281 400.351562 C 538.4375 400.097656 538.597656 399.359375 539.148438 398.242188 C 539.617188 397.09375 540.074219 395.804688 540.675781 393.839844 C 541.855469 390.0625 542.753906 384.480469 543.523438 378.1875 C 544.863281 365.632812 545.664062 355.09375 547.238281 355.09375 " fill-opacity="1" fill-rule="nonzero"/><path fill="#000000" d="M 540.910156 353.425781 C 540.910156 354.527344 540.972656 355.628906 540.910156 356.761719 C 540.800781 357.910156 540.707031 359.058594 540.609375 360.207031 C 540.515625 361.386719 540.265625 362.347656 540.074219 363.429688 L 539.777344 365.050781 L 539.304688 366.90625 C 538.5625 369.441406 537.195312 371.644531 535.855469 373.421875 C 534.472656 375.214844 533.289062 376.707031 532.296875 378.25 L 531.527344 379.554688 L 531.511719 379.648438 L 531.386719 379.980469 L 531.085938 380.640625 C 530.738281 381.535156 530.285156 382.496094 530.0625 383.265625 L 529.683594 384.480469 C 529.652344 384.792969 529.621094 385.042969 529.527344 385.328125 C 529.589844 385.660156 529.621094 386.003906 530.140625 386.996094 C 530.582031 387.859375 530.960938 389.039062 531.355469 390.0625 C 531.527344 390.992188 531.761719 391.886719 531.953125 392.753906 C 532.328125 394.75 532.535156 396.605469 532.535156 398.429688 C 532.566406 402.066406 532.015625 405.382812 531.085938 408.324219 C 529.371094 414.242188 525.402344 418.296875 522.113281 419.542969 C 520.476562 420.21875 519.042969 420.40625 518.238281 420.328125 C 517.375 420.296875 516.902344 420.21875 516.871094 420.011719 C 516.710938 419.574219 518.789062 419.257812 521.121094 417.683594 C 523.578125 416.082031 526.300781 412.605469 527.417969 407.304688 C 527.984375 404.722656 528.285156 401.71875 528.046875 398.589844 C 527.984375 397.03125 527.703125 395.425781 527.355469 393.933594 C 527.101562 393.066406 526.867188 392.171875 526.613281 391.273438 C 526.300781 390.597656 526.144531 390 525.65625 389.167969 C 525.277344 388.472656 524.535156 387.058594 524.472656 385.40625 C 524.535156 384.730469 524.601562 384.054688 524.695312 383.363281 L 525.136719 381.757812 C 525.464844 380.609375 525.890625 379.742188 526.222656 378.722656 L 526.519531 377.996094 L 526.679688 377.605469 L 526.710938 377.511719 L 526.867188 377.164062 L 526.960938 377.007812 L 527.703125 375.621094 C 530.1875 371.5 533.257812 368.765625 534.15625 365.382812 L 534.472656 364.078125 L 534.800781 362.472656 C 534.960938 361.417969 535.273438 360.300781 535.304688 359.339844 C 535.398438 358.382812 535.496094 357.421875 535.605469 356.460938 C 535.636719 355.519531 535.605469 354.527344 535.636719 353.570312 C 535.527344 349.699219 534.960938 346.003906 533.902344 342.542969 C 531.792969 335.714844 528.347656 329.925781 525.121094 325.363281 C 518.523438 316.191406 513.578125 310.953125 514.210938 310.386719 C 514.664062 309.949219 520.476562 314.117188 528.109375 323.035156 C 531.890625 327.535156 535.980469 333.449219 538.628906 341.046875 C 539.949219 344.804688 540.707031 349.023438 540.910156 353.425781 " fill-opacity="1" fill-rule="nonzero"/><path fill="#000000" d="M 517.625 334.296875 C 518.855469 336.925781 519.324219 338.421875 519.011719 338.578125 C 518.679688 338.78125 517.578125 337.632812 515.847656 335.429688 C 514.210938 333.152344 511.597656 330.128906 508.273438 326.542969 C 506.449219 324.890625 504.730469 322.847656 502.386719 321.117188 C 501.300781 320.21875 500.148438 319.292969 498.96875 318.332031 C 497.695312 317.46875 496.417969 316.617188 495.066406 315.722656 C 489.664062 312.277344 483.304688 309.113281 476.21875 306.878906 C 469.121094 304.664062 462.082031 303.484375 455.628906 302.824219 C 449.140625 302.273438 443.269531 302.175781 438.308594 302.398438 C 428.484375 302.824219 422.1875 303.78125 422.078125 302.949219 C 422.078125 302.273438 427.855469 300.039062 437.980469 298.605469 C 443.066406 297.867188 449.171875 297.550781 455.972656 297.867188 C 462.792969 298.277344 470.269531 299.410156 477.84375 301.738281 C 485.414062 304.128906 492.199219 307.667969 497.851562 311.601562 C 499.222656 312.621094 500.558594 313.644531 501.882812 314.605469 C 503.125 315.660156 504.242188 316.773438 505.394531 317.796875 C 507.691406 319.78125 509.421875 322.109375 511.109375 324.027344 C 514.273438 328.148438 516.523438 331.65625 517.625 334.296875 " fill-opacity="1" fill-rule="nonzero"/><path fill="#000000" d="M 512.554688 404.203125 C 512.585938 406.738281 512.003906 409.222656 511.011719 411.550781 C 510.792969 412.164062 510.414062 412.792969 510.085938 413.40625 C 509.738281 414.050781 509.453125 414.367188 509.125 414.871094 C 508.210938 416.066406 507.25 417.136719 506.132812 417.875 C 503.929688 419.511719 501.613281 420.4375 499.726562 421.460938 C 499.316406 421.710938 498.78125 421.964844 498.449219 422.183594 C 498.167969 422.40625 497.914062 422.515625 497.570312 422.796875 L 496.984375 423.425781 L 496.671875 423.757812 L 496.671875 423.789062 L 496.640625 423.789062 C 496.496094 424.136719 496.277344 424.417969 496.121094 424.78125 C 495.472656 426.273438 495.394531 428.382812 495.003906 430.773438 C 494.875 431.417969 494.78125 431.984375 494.625 432.660156 C 494.371094 433.398438 494.105469 434.203125 493.820312 434.800781 L 493.445312 435.507812 L 493.207031 435.855469 L 493.128906 436.042969 L 493.082031 436.105469 L 493.050781 436.167969 L 492.859375 436.46875 L 492.828125 436.5 L 491.492188 437.898438 C 489.757812 439.816406 487.398438 440.933594 485.257812 441.738281 C 480.785156 443.011719 477.101562 443.074219 473.90625 444.003906 C 470.882812 444.773438 468.035156 446.550781 465.703125 448.21875 C 460.964844 451.664062 457.546875 455.28125 455.0625 457.640625 C 452.589844 460 451.125 461.242188 450.828125 460.992188 C 450.542969 460.769531 451.472656 459.070312 453.488281 456.273438 C 455.503906 453.488281 458.507812 449.398438 463.359375 445.214844 C 465.828125 443.167969 468.679688 441.027344 472.535156 439.722656 C 476.25 438.480469 480.359375 438.152344 483.652344 437.003906 C 485.226562 436.339844 486.769531 435.632812 487.824219 434.296875 L 488.609375 433.429688 L 488.671875 433.335938 L 488.863281 432.976562 L 489.289062 432.25 C 489.382812 431.859375 489.414062 431.605469 489.539062 431.324219 L 489.792969 429.988281 C 490.121094 428.035156 490.089844 425.582031 491.128906 422.796875 C 491.398438 422.089844 491.835938 421.414062 492.214844 420.753906 L 492.292969 420.625 C 492.292969 420.625 492.292969 420.625 492.292969 420.59375 L 492.515625 420.328125 L 492.703125 420.140625 L 492.988281 419.824219 L 493.570312 419.195312 C 494.074219 418.707031 494.8125 418.171875 495.441406 417.683594 C 496.089844 417.277344 496.609375 417.007812 497.207031 416.695312 C 499.441406 415.515625 501.457031 414.679688 502.9375 413.59375 C 503.707031 413.09375 504.210938 412.414062 504.730469 411.878906 C 505.015625 411.425781 505.457031 410.890625 505.613281 410.527344 C 505.769531 410.152344 505.992188 409.867188 506.195312 409.410156 C 507.722656 406.09375 507.878906 402.003906 506.289062 399.832031 C 504.890625 397.660156 501.394531 397.316406 498.339844 398.210938 C 497.300781 398.621094 495.992188 399.359375 495.035156 400.382812 C 494.074219 401.371094 493.285156 402.585938 492.609375 403.828125 C 490.058594 408.875 489.128906 413.894531 488.105469 417.136719 C 487.179688 420.46875 486.34375 422.246094 485.996094 422.152344 C 485.601562 422.027344 485.777344 420.1875 486.058594 416.757812 C 486.4375 413.34375 486.691406 408.292969 489.191406 402.175781 C 490.5 399.171875 492.609375 395.710938 497.207031 393.902344 C 497.695312 393.695312 498.105469 393.632812 498.542969 393.507812 L 499.222656 393.320312 L 499.503906 393.257812 L 499.648438 393.257812 L 499.835938 393.226562 L 500.214844 393.191406 L 501.882812 393.066406 C 502.417969 393.066406 503.03125 393.128906 503.597656 393.191406 C 505.945312 393.414062 508.621094 394.625 510.257812 396.859375 C 511.941406 399.042969 512.554688 401.71875 512.554688 404.203125 " fill-opacity="1" fill-rule="nonzero"/><path fill="#000000" d="M 508.273438 356.589844 C 508.933594 359.625 509.0625 362.628906 508.714844 365.445312 C 508.007812 371.15625 505.363281 375.699219 502.714844 378.816406 C 499.992188 381.945312 497.238281 383.863281 495.253906 384.917969 C 493.253906 385.972656 492.027344 386.257812 491.835938 385.972656 C 491.335938 385.203125 495.554688 382.558594 499.679688 376.519531 C 501.613281 373.484375 503.472656 369.566406 503.753906 364.957031 C 503.929688 362.660156 503.722656 360.238281 503.125 357.847656 L 502.652344 356.117188 C 502.449219 355.519531 502.132812 354.8125 501.882812 354.132812 C 501.425781 353.050781 500.8125 351.871094 500.054688 350.722656 C 493.914062 341.457031 485.539062 334.566406 479.367188 330.539062 C 476.269531 328.527344 473.464844 327.25 471.609375 326.636719 C 470.710938 326.230469 469.8125 326.070312 469.246094 325.867188 C 468.695312 325.648438 468.410156 325.457031 468.410156 325.300781 C 468.441406 324.988281 469.5625 324.4375 471.90625 324.5625 C 474.332031 324.625 477.558594 325.457031 481.195312 327.21875 C 488.484375 330.757812 497.632812 337.335938 504.652344 347.875 C 505.519531 349.226562 506.257812 350.625 506.902344 352.214844 C 507.15625 352.890625 507.40625 353.503906 507.628906 354.261719 C 507.847656 355.03125 508.039062 355.832031 508.273438 356.589844 " fill-opacity="1" fill-rule="nonzero"/><path fill="#000000" d="M 479.210938 409.347656 C 480.171875 412.070312 479.792969 414.492188 479.179688 416.820312 C 479.023438 417.496094 478.867188 417.875 478.675781 418.394531 L 478.457031 419.085938 L 478.378906 419.289062 L 478.265625 419.542969 L 478.265625 419.574219 L 478.234375 419.636719 L 478.15625 419.730469 L 477.96875 420.078125 C 477.355469 421.097656 476.789062 422.089844 476.1875 423.113281 C 474.773438 424.90625 473.339844 426.730469 471.640625 428.226562 C 464.996094 434.546875 457.769531 438.152344 452.984375 443.292969 C 448.085938 448.34375 444.640625 454.023438 441.441406 458.664062 C 439.898438 461.023438 438.339844 463.097656 436.972656 464.890625 C 435.554688 466.667969 434.152344 468.179688 433.066406 469.328125 C 430.691406 471.40625 429.257812 472.425781 428.972656 472.160156 C 428.722656 471.90625 429.652344 470.414062 431.554688 467.882812 C 432.359375 466.605469 433.351562 465.019531 434.5 463.191406 C 435.585938 461.273438 436.863281 459.136719 438.214844 456.679688 C 440.957031 451.820312 444.121094 445.75 449.363281 439.914062 C 450.070312 439.140625 450.574219 438.511719 451.472656 437.648438 C 452.179688 437.003906 452.90625 436.40625 453.613281 435.757812 C 455.109375 434.515625 456.871094 433.148438 458.445312 431.953125 C 461.703125 429.53125 464.996094 427.109375 467.90625 424.324219 C 470.835938 421.585938 473.277344 418.582031 474.140625 415.261719 C 474.582031 413.785156 474.742188 412.039062 474.363281 411.078125 C 474.03125 410.054688 473.339844 409.316406 471.96875 408.84375 C 469.308594 407.886719 465.671875 408.105469 462.792969 408.515625 C 461.058594 408.8125 459.941406 409.066406 458.761719 409.617188 C 457.613281 410.117188 456.683594 410.78125 456.054688 411.644531 C 454.667969 413.34375 454.195312 415.859375 453.644531 417.9375 C 453.140625 420.109375 452.683594 422.027344 452.179688 423.570312 C 451.125 426.621094 450.070312 428.128906 449.753906 428.003906 C 449.363281 427.847656 449.753906 426.148438 450.132812 423.082031 C 450.324219 421.585938 450.449219 419.699219 450.667969 417.464844 C 451 415.261719 451.0625 412.445312 452.90625 409.472656 C 454.699219 406.421875 458.699219 404.816406 461.863281 404.140625 C 463.75 403.734375 465.421875 403.542969 467.386719 403.449219 C 469.308594 403.355469 471.355469 403.449219 473.589844 404.140625 C 475.730469 404.722656 478.3125 406.644531 479.210938 409.347656 " fill-opacity="1" fill-rule="nonzero"/><path fill="#000000" d="M 444.671875 418.363281 C 444.921875 422.578125 444.054688 426.148438 443.160156 429.40625 C 442.246094 432.628906 441.050781 435.507812 439.933594 438.085938 C 435.273438 448.3125 431.179688 453.863281 430.582031 453.550781 C 429.839844 453.171875 432.769531 446.945312 436.390625 436.6875 C 437.253906 434.140625 438.183594 431.324219 438.84375 428.257812 C 439.492188 425.25 440.058594 421.933594 439.742188 418.832031 C 439.710938 417.96875 439.460938 417.464844 439.363281 416.851562 C 439.398438 416.632812 439.066406 416.128906 438.878906 415.703125 L 438.5625 415.074219 L 438.53125 415.027344 L 438.46875 414.980469 C 437.789062 414.175781 436.484375 413.53125 434.925781 413.25 C 431.777344 412.699219 427.824219 413.3125 424.976562 415.011719 C 424.015625 415.609375 423.210938 416.347656 422.835938 417.039062 L 422.707031 417.246094 C 422.582031 417.339844 422.363281 418.125 422.300781 418.863281 C 422.1875 419.636719 422.1875 420.53125 422.1875 421.398438 C 422.1875 423.175781 422.363281 425 422.519531 426.824219 C 422.675781 428.695312 422.898438 430.425781 422.960938 432.472656 C 422.960938 434.578125 422.769531 436.089844 422.675781 437.867188 C 422.15625 444.710938 421.277344 450.859375 419.953125 455.910156 C 419.417969 458.472656 418.519531 460.707031 417.875 462.644531 C 417.089844 464.5625 416.378906 466.261719 415.71875 467.503906 C 414.269531 469.957031 413.308594 471.230469 412.996094 471.105469 C 412.679688 470.949219 412.996094 469.390625 413.859375 466.667969 C 414.207031 465.332031 414.617188 463.695312 415.136719 461.792969 C 415.449219 459.84375 416.066406 457.671875 416.347656 455.1875 C 417.152344 450.261719 417.625 444.316406 417.828125 437.617188 C 417.84375 435.980469 417.984375 434.042969 417.90625 432.597656 C 417.828125 431.070312 417.558594 429.183594 417.339844 427.359375 C 417.152344 425.519531 416.914062 423.570312 416.851562 421.523438 C 416.851562 420.46875 416.820312 419.414062 416.992188 418.234375 C 417.152344 417.070312 417.246094 415.890625 418.207031 414.335938 C 419.230469 412.574219 420.660156 411.363281 422.15625 410.402344 C 426.582031 407.886719 431.273438 407.273438 435.949219 408.074219 C 438.214844 408.546875 440.703125 409.535156 442.496094 411.738281 L 442.65625 411.976562 L 442.75 412.070312 C 442.75 412.070312 442.75 412.070312 442.78125 412.101562 L 442.78125 412.132812 C 442.875 412.257812 443 412.480469 443 412.511719 L 443.160156 412.824219 L 443.457031 413.46875 C 443.648438 413.925781 443.867188 414.207031 444.023438 414.902344 C 444.371094 416.128906 444.703125 417.402344 444.671875 418.363281 " fill-opacity="1" fill-rule="nonzero"/><path fill="#000000" d="M 190.132812 175.816406 C 190.097656 175.722656 190.066406 175.625 190.035156 175.53125 C 190.035156 175.46875 190.003906 175.390625 190.003906 175.296875 C 190.035156 175.5 190.097656 175.65625 190.132812 175.816406 " fill-opacity="1" fill-rule="nonzero"/></svg>