<svg xmlns="http://www.w3.org/2000/svg" xmlns:xlink="http://www.w3.org/1999/xlink" width="1080" zoomAndPan="magnify" viewBox="0 0 810 809.999993" height="1080" preserveAspectRatio="xMidYMid meet" version="1.0"><defs><clipPath id="6f65f042e2"><path d="M 192.609375 192.609375 L 617.109375 192.609375 L 617.109375 617.109375 L 192.609375 617.109375 Z M 192.609375 192.609375 " clip-rule="nonzero"/></clipPath></defs><rect x="-81" width="972" fill="#ffffff" y="-80.999999" height="971.999992" fill-opacity="1"/><rect x="-81" width="972" fill="#ff8200" y="-80.999999" height="971.999992" fill-opacity="1"/><g clip-path="url(#6f65f042e2)"><path fill="#000000" d="M 404.738281 596.226562 C 298.992188 596.226562 213.265625 510.480469 213.265625 404.738281 C 213.265625 298.992188 298.992188 213.246094 404.738281 213.246094 C 510.480469 213.246094 596.207031 298.992188 596.207031 404.738281 C 596.207031 510.480469 510.480469 596.226562 404.738281 596.226562 Z M 404.738281 192.378906 C 287.460938 192.378906 192.378906 287.460938 192.378906 404.738281 C 192.378906 522.015625 287.460938 617.09375 404.738281 617.09375 C 522.015625 617.09375 617.09375 522.015625 617.09375 404.738281 C 617.09375 287.460938 522.015625 192.378906 404.738281 192.378906 " fill-opacity="1" fill-rule="nonzero"/></g><path fill="#000000" d="M 378.125 356.1875 C 363.527344 327.136719 349.03125 298.246094 334.476562 269.273438 C 332.4375 265.242188 327.238281 257.945312 317.15625 263.550781 C 289.414062 278.992188 270.746094 301.753906 256.390625 330.324219 C 245.121094 352.78125 238.972656 376.429688 238.972656 401.492188 C 238.972656 409.859375 246.472656 410.925781 250.160156 410.703125 C 283.589844 408.75 316.695312 406.8125 349.960938 404.859375 C 350.746094 383.40625 360.222656 367.359375 378.125 356.1875 " fill-opacity="1" fill-rule="nonzero"/><path fill="#000000" d="M 433.203125 452.214844 C 414.050781 462.277344 395.441406 462.09375 376.511719 451.550781 C 358.972656 478.203125 341.570312 504.636719 324.214844 531.027344 C 321.429688 535.257812 312.199219 542.355469 327.4375 550.824219 C 372.863281 576.003906 433.667969 577.035156 481.46875 551.386719 C 493.203125 545.097656 489.515625 537.78125 487.4375 534.613281 C 469.394531 507.175781 451.308594 479.734375 433.203125 452.214844 " fill-opacity="1" fill-rule="nonzero"/><path fill="#000000" d="M 546.609375 318.285156 C 533.0625 295.886719 515.359375 277.921875 493.484375 264.09375 C 482.617188 257.199219 477.398438 265.445312 475.90625 268.367188 C 460.765625 298.507812 446.996094 325.949219 432.015625 355.785156 C 433.003906 356.449219 433.566406 356.835938 434.152344 357.195312 C 434.714844 357.582031 435.320312 357.921875 435.886719 358.324219 C 450.722656 368.648438 459.292969 382.699219 460.339844 400.847656 C 460.582031 404.878906 462.175781 405.421875 465.5625 405.605469 C 487.882812 406.773438 510.21875 408.164062 532.539062 409.453125 C 542.074219 410.019531 548.585938 410.605469 558.425781 411.148438 C 561.386719 411.328125 570.359375 412.335938 570.359375 396.691406 C 570.339844 368.566406 561.265625 342.558594 546.609375 318.285156 " fill-opacity="1" fill-rule="nonzero"/><path fill="#000000" d="M 390.078125 439.191406 C 409.132812 447.277344 431.109375 438.425781 439.191406 419.375 C 447.277344 400.339844 438.40625 378.367188 419.375 370.28125 C 400.339844 362.195312 378.367188 371.046875 370.28125 390.101562 C 362.195312 409.132812 371.046875 431.109375 390.078125 439.191406 " fill-opacity="1" fill-rule="nonzero"/></svg>