<svg xmlns="http://www.w3.org/2000/svg" xmlns:xlink="http://www.w3.org/1999/xlink" width="1080" zoomAndPan="magnify" viewBox="0 0 810 809.999993" height="1080" preserveAspectRatio="xMidYMid meet" version="1.0"><defs><clipPath id="50ba67de79"><path d="M 313 539 L 566 539 L 566 615.28125 L 313 615.28125 Z M 313 539 " clip-rule="nonzero"/></clipPath><clipPath id="a23b3bc703"><path d="M 490 210 L 615.542969 210 L 615.542969 511 L 490 511 Z M 490 210 " clip-rule="nonzero"/></clipPath></defs><rect x="-81" width="972" fill="#ffffff" y="-80.999999" height="971.999992" fill-opacity="1"/><rect x="-81" width="972" fill="#ff8200" y="-80.999999" height="971.999992" fill-opacity="1"/><path fill="#231f20" d="M 327.523438 444.136719 C 318.171875 444.164062 308.945312 443.097656 299.847656 440.941406 C 290.75 438.785156 282.03125 435.59375 273.691406 431.367188 C 265.640625 427.285156 258.140625 422.363281 251.195312 416.597656 C 244.25 410.832031 238.03125 404.371094 232.539062 397.207031 C 231.417969 395.738281 230.328125 394.242188 229.269531 392.722656 C 228.214844 391.199219 227.199219 389.65625 226.214844 388.089844 C 225.230469 386.519531 224.285156 384.929688 223.375 383.316406 C 222.46875 381.707031 221.597656 380.074219 220.761719 378.421875 C 219.929688 376.769531 219.136719 375.097656 218.382812 373.40625 C 217.625 371.71875 216.910156 370.011719 216.234375 368.289062 C 215.558594 366.566406 214.921875 364.828125 214.328125 363.078125 C 213.734375 361.324219 213.179688 359.558594 212.667969 357.78125 C 212.152344 356.003906 211.683594 354.214844 211.253906 352.414062 C 210.824219 350.617188 210.4375 348.808594 210.089844 346.988281 C 209.746094 345.171875 209.441406 343.347656 209.183594 341.515625 C 208.921875 339.683594 208.703125 337.847656 208.53125 336.003906 C 208.355469 334.164062 208.222656 332.316406 208.132812 330.46875 C 208.046875 328.621094 208 326.773438 207.996094 324.921875 C 207.992188 323.070312 208.035156 321.222656 208.117188 319.375 C 208.199219 317.527344 208.328125 315.679688 208.496094 313.839844 C 208.664062 311.996094 208.875 310.15625 209.132812 308.324219 C 209.386719 306.492188 209.683594 304.667969 210.023438 302.847656 C 210.363281 301.03125 210.742188 299.21875 211.167969 297.417969 C 211.589844 295.617188 212.058594 293.828125 212.566406 292.046875 C 213.070312 290.269531 213.621094 288.5 214.210938 286.746094 C 214.800781 284.992188 215.429688 283.253906 216.101562 281.527344 C 216.769531 279.804688 217.480469 278.097656 218.230469 276.40625 C 218.980469 274.710938 219.769531 273.039062 220.597656 271.382812 C 221.425781 269.730469 222.289062 268.09375 223.195312 266.480469 C 224.097656 264.863281 225.039062 263.269531 226.019531 261.699219 C 226.996094 260.128906 228.011719 258.582031 229.0625 257.058594 C 230.109375 255.53125 231.195312 254.035156 232.316406 252.558594 C 233.4375 251.085938 234.589844 249.640625 235.777344 248.21875 C 236.964844 246.796875 238.183594 245.40625 239.4375 244.042969 C 240.6875 242.679688 241.972656 241.347656 243.285156 240.042969 C 244.601562 238.738281 245.945312 237.464844 247.316406 236.222656 C 248.691406 234.980469 250.09375 233.773438 251.523438 232.597656 C 252.953125 231.421875 254.410156 230.277344 255.890625 229.167969 C 257.375 228.058594 258.882812 226.988281 260.414062 225.949219 C 261.949219 224.910156 263.503906 223.90625 265.085938 222.941406 C 266.664062 221.972656 268.265625 221.042969 269.886719 220.152344 C 271.511719 219.257812 273.152344 218.40625 274.816406 217.589844 C 276.480469 216.773438 278.160156 215.996094 279.859375 215.257812 C 281.558594 214.519531 283.273438 213.824219 285.003906 213.164062 C 286.734375 212.507812 288.480469 211.886719 290.242188 211.3125 C 292 210.734375 293.773438 210.199219 295.558594 209.703125 C 297.34375 209.207031 299.140625 208.753906 300.945312 208.34375 C 302.75 207.933594 304.566406 207.5625 306.390625 207.234375 C 308.210938 206.910156 310.042969 206.625 311.878906 206.382812 C 313.714844 206.140625 315.554688 205.941406 317.402344 205.78125 C 319.25 205.625 321.097656 205.511719 322.949219 205.441406 C 324.800781 205.371094 326.652344 205.34375 328.503906 205.359375 C 330.355469 205.375 332.207031 205.429688 334.054688 205.53125 C 335.90625 205.632812 337.753906 205.777344 339.59375 205.964844 C 341.4375 206.152344 343.277344 206.378906 345.109375 206.652344 C 346.941406 206.925781 348.765625 207.238281 350.582031 207.597656 C 352.402344 207.953125 354.210938 208.351562 356.007812 208.792969 C 357.808594 209.234375 359.597656 209.714844 361.371094 210.238281 C 363.148438 210.761719 364.914062 211.328125 366.664062 211.933594 C 368.414062 212.539062 370.148438 213.183594 371.871094 213.871094 C 373.589844 214.558594 375.292969 215.285156 376.980469 216.050781 C 378.667969 216.816406 380.335938 217.617188 381.984375 218.460938 C 383.632812 219.304688 385.261719 220.183594 386.871094 221.105469 C 388.476562 222.023438 390.0625 222.976562 391.625 223.96875 C 393.191406 224.960938 394.730469 225.988281 396.246094 227.054688 C 397.761719 228.117188 399.253906 229.214844 400.714844 230.347656 C 402.179688 231.480469 403.617188 232.648438 405.027344 233.847656 C 406.441406 235.046875 407.820312 236.277344 409.175781 237.542969 C 410.527344 238.804688 411.851562 240.101562 413.144531 241.425781 C 414.4375 242.75 415.695312 244.105469 416.925781 245.488281 C 418.15625 246.871094 419.351562 248.285156 420.515625 249.722656 C 421.679688 251.164062 422.8125 252.628906 423.90625 254.121094 C 425.003906 255.613281 426.0625 257.128906 427.089844 258.667969 C 428.113281 260.210938 429.101562 261.773438 430.054688 263.359375 C 431.007812 264.949219 431.921875 266.554688 432.800781 268.1875 C 433.675781 269.816406 434.515625 271.464844 435.316406 273.132812 C 436.117188 274.800781 436.878906 276.488281 437.601562 278.191406 C 438.324219 279.894531 439.007812 281.613281 439.648438 283.351562 C 440.289062 285.085938 440.890625 286.835938 441.453125 288.597656 C 442.011719 290.359375 442.53125 292.136719 443.011719 293.925781 C 443.488281 295.710938 443.925781 297.507812 444.320312 299.316406 C 444.714844 301.125 445.066406 302.941406 445.375 304.765625 C 445.6875 306.589844 445.953125 308.417969 446.179688 310.253906 C 446.402344 312.09375 446.585938 313.933594 446.722656 315.777344 C 446.863281 317.621094 446.960938 319.46875 447.011719 321.320312 C 447.066406 323.167969 447.074219 325.019531 447.042969 326.867188 C 447.007812 328.71875 446.933594 330.566406 446.8125 332.414062 C 446.695312 334.257812 446.53125 336.101562 446.328125 337.941406 C 446.121094 339.78125 445.875 341.613281 445.585938 343.441406 C 445.296875 345.265625 444.960938 347.085938 444.585938 348.898438 C 444.210938 350.710938 443.796875 352.511719 443.335938 354.304688 C 442.878906 356.097656 442.378906 357.878906 441.835938 359.648438 C 441.292969 361.417969 440.710938 363.171875 440.089844 364.914062 C 439.464844 366.65625 438.800781 368.382812 438.097656 370.097656 C 437.394531 371.808594 436.648438 373.5 435.867188 375.179688 C 435.085938 376.855469 434.261719 378.511719 433.402344 380.152344 C 432.542969 381.789062 431.644531 383.410156 430.710938 385.003906 C 429.777344 386.601562 428.804688 388.175781 427.796875 389.730469 C 426.785156 391.28125 425.742188 392.808594 424.664062 394.3125 C 423.582031 395.816406 422.46875 397.292969 421.320312 398.746094 C 415.8125 405.6875 409.617188 411.949219 402.726562 417.527344 C 395.835938 423.105469 388.417969 427.867188 380.476562 431.808594 C 372.25 435.890625 363.664062 438.96875 354.71875 441.050781 C 345.773438 443.132812 336.707031 444.164062 327.523438 444.136719 Z M 327.523438 211.539062 C 264.988281 211.539062 214.113281 262.359375 214.113281 324.824219 C 214.09375 330.992188 214.582031 337.121094 215.574219 343.207031 C 216.5625 349.296875 218.046875 355.261719 220.023438 361.105469 C 222 366.949219 224.441406 372.59375 227.351562 378.035156 C 230.257812 383.476562 233.59375 388.644531 237.351562 393.535156 C 259.015625 421.851562 291.882812 438.089844 327.523438 438.089844 C 329.378906 438.089844 331.234375 438.042969 333.085938 437.953125 C 334.941406 437.863281 336.792969 437.726562 338.640625 437.546875 C 340.488281 437.367188 342.328125 437.140625 344.164062 436.867188 C 346 436.597656 347.828125 436.28125 349.652344 435.917969 C 351.472656 435.558594 353.28125 435.152344 355.082031 434.703125 C 356.882812 434.25 358.671875 433.757812 360.449219 433.21875 C 362.226562 432.683594 363.988281 432.101562 365.734375 431.476562 C 367.484375 430.851562 369.214844 430.1875 370.929688 429.476562 C 372.644531 428.765625 374.339844 428.015625 376.019531 427.222656 C 377.699219 426.433594 379.355469 425.597656 380.992188 424.726562 C 382.628906 423.851562 384.242188 422.9375 385.835938 421.984375 C 387.429688 421.03125 388.996094 420.042969 390.539062 419.011719 C 392.082031 417.980469 393.601562 416.914062 395.09375 415.808594 C 396.582031 414.707031 398.046875 413.566406 399.480469 412.390625 C 400.917969 411.214844 402.320312 410.003906 403.695312 408.757812 C 405.074219 407.515625 406.417969 406.234375 407.730469 404.925781 C 409.042969 403.613281 410.320312 402.273438 411.570312 400.898438 C 412.816406 399.523438 414.027344 398.121094 415.203125 396.6875 C 416.382812 395.253906 417.523438 393.792969 418.628906 392.304688 C 419.734375 390.816406 420.804688 389.300781 421.835938 387.757812 C 422.867188 386.21875 423.859375 384.652344 424.8125 383.0625 C 425.769531 381.472656 426.683594 379.859375 427.558594 378.222656 C 428.433594 376.589844 429.269531 374.933594 430.0625 373.257812 C 430.855469 371.582031 431.605469 369.886719 432.316406 368.175781 C 433.027344 366.460938 433.695312 364.734375 434.320312 362.988281 C 434.945312 361.242188 435.527344 359.480469 436.066406 357.707031 C 436.605469 355.933594 437.101562 354.148438 437.550781 352.347656 C 438.003906 350.550781 438.410156 348.742188 438.769531 346.921875 C 439.132812 345.105469 439.449219 343.277344 439.722656 341.445312 C 439.992188 339.613281 440.222656 337.773438 440.402344 335.925781 C 440.585938 334.082031 440.71875 332.234375 440.8125 330.382812 C 440.902344 328.53125 440.949219 326.675781 440.949219 324.824219 C 440.949219 262.359375 390.066406 211.539062 327.523438 211.539062 Z M 327.523438 211.539062 " fill-opacity="1" fill-rule="nonzero"/><path fill="#231f20" d="M 327.523438 415.074219 C 322.5 415.089844 317.511719 414.6875 312.554688 413.867188 C 307.597656 413.046875 302.746094 411.816406 298 410.179688 C 293.25 408.539062 288.675781 406.515625 284.269531 404.109375 C 279.863281 401.699219 275.6875 398.941406 271.746094 395.828125 C 267.667969 392.628906 263.890625 389.105469 260.417969 385.253906 C 256.945312 381.40625 253.824219 377.289062 251.058594 372.90625 C 248.292969 368.519531 245.921875 363.933594 243.949219 359.140625 C 241.972656 354.351562 240.421875 349.425781 239.292969 344.367188 C 238.097656 339.023438 237.414062 333.613281 237.234375 328.136719 C 237.183594 327.140625 237.160156 326.054688 237.160156 324.824219 C 237.15625 323.34375 237.1875 321.863281 237.257812 320.386719 C 237.324219 318.90625 237.429688 317.433594 237.570312 315.960938 C 237.710938 314.484375 237.890625 313.015625 238.101562 311.554688 C 238.316406 310.089844 238.566406 308.628906 238.851562 307.179688 C 239.136719 305.726562 239.457031 304.28125 239.8125 302.84375 C 240.167969 301.410156 240.5625 299.980469 240.988281 298.566406 C 241.414062 297.148438 241.875 295.742188 242.371094 294.347656 C 242.867188 292.953125 243.398438 291.570312 243.960938 290.203125 C 244.523438 288.835938 245.121094 287.480469 245.753906 286.140625 C 246.382812 284.800781 247.046875 283.480469 247.742188 282.171875 C 248.4375 280.867188 249.167969 279.578125 249.925781 278.308594 C 250.683594 277.035156 251.472656 275.785156 252.296875 274.554688 C 253.117188 273.320312 253.96875 272.109375 254.847656 270.917969 C 255.726562 269.730469 256.636719 268.5625 257.574219 267.414062 C 258.511719 266.269531 259.480469 265.148438 260.472656 264.050781 C 261.464844 262.953125 262.484375 261.878906 263.53125 260.832031 C 264.578125 259.785156 265.648438 258.761719 266.746094 257.765625 C 267.839844 256.769531 268.960938 255.804688 270.105469 254.863281 C 271.25 253.921875 272.417969 253.011719 273.605469 252.128906 C 274.792969 251.246094 276.003906 250.390625 277.234375 249.566406 C 278.46875 248.746094 279.71875 247.953125 280.988281 247.191406 C 282.257812 246.429688 283.546875 245.699219 284.851562 245 C 286.15625 244.300781 287.480469 243.632812 288.820312 243 C 290.160156 242.367188 291.511719 241.765625 292.878906 241.199219 C 294.25 240.628906 295.628906 240.097656 297.023438 239.597656 C 298.421875 239.097656 299.828125 238.632812 301.242188 238.203125 C 302.660156 237.773438 304.089844 237.378906 305.527344 237.015625 C 306.964844 236.65625 308.410156 236.332031 309.863281 236.042969 C 311.316406 235.753906 312.773438 235.5 314.238281 235.28125 C 315.707031 235.066406 317.175781 234.882812 318.648438 234.738281 C 320.125 234.59375 321.601562 234.484375 323.082031 234.410156 C 324.5625 234.339844 326.042969 234.300781 327.523438 234.300781 C 329.003906 234.300781 330.484375 234.339844 331.964844 234.410156 C 333.445312 234.484375 334.921875 234.59375 336.398438 234.738281 C 337.871094 234.882812 339.34375 235.066406 340.808594 235.28125 C 342.273438 235.5 343.734375 235.753906 345.1875 236.042969 C 346.640625 236.332031 348.085938 236.65625 349.519531 237.015625 C 350.957031 237.378906 352.386719 237.773438 353.804688 238.203125 C 355.222656 238.632812 356.628906 239.097656 358.023438 239.597656 C 359.417969 240.097656 360.796875 240.628906 362.167969 241.199219 C 363.535156 241.765625 364.890625 242.367188 366.226562 243 C 367.566406 243.632812 368.890625 244.300781 370.195312 245 C 371.5 245.699219 372.789062 246.429688 374.058594 247.191406 C 375.328125 247.953125 376.582031 248.746094 377.8125 249.566406 C 379.042969 250.390625 380.253906 251.246094 381.441406 252.128906 C 382.628906 253.011719 383.796875 253.921875 384.941406 254.863281 C 386.085938 255.804688 387.207031 256.769531 388.300781 257.765625 C 389.398438 258.761719 390.46875 259.785156 391.515625 260.832031 C 392.5625 261.878906 393.582031 262.953125 394.574219 264.050781 C 395.570312 265.148438 396.535156 266.269531 397.472656 267.414062 C 398.410156 268.5625 399.320312 269.730469 400.199219 270.917969 C 401.082031 272.109375 401.929688 273.320312 402.753906 274.554688 C 403.574219 275.785156 404.363281 277.035156 405.121094 278.308594 C 405.882812 279.578125 406.609375 280.867188 407.304688 282.171875 C 408 283.480469 408.664062 284.800781 409.292969 286.140625 C 409.925781 287.480469 410.523438 288.835938 411.085938 290.203125 C 411.648438 291.570312 412.179688 292.953125 412.675781 294.347656 C 413.171875 295.742188 413.632812 297.148438 414.058594 298.566406 C 414.484375 299.980469 414.878906 301.410156 415.234375 302.84375 C 415.589844 304.28125 415.910156 305.726562 416.195312 307.179688 C 416.480469 308.628906 416.730469 310.089844 416.945312 311.554688 C 417.15625 313.015625 417.335938 314.484375 417.476562 315.960938 C 417.617188 317.433594 417.722656 318.90625 417.789062 320.386719 C 417.859375 321.863281 417.890625 323.34375 417.886719 324.824219 C 417.886719 326.433594 417.835938 328.148438 417.742188 329.921875 C 417.441406 335.414062 416.640625 340.832031 415.335938 346.175781 C 414.148438 351.007812 412.578125 355.707031 410.617188 360.28125 C 408.652344 364.851562 406.332031 369.234375 403.648438 373.421875 C 400.964844 377.613281 397.957031 381.554688 394.625 385.25 C 391.292969 388.945312 387.679688 392.34375 383.789062 395.445312 C 379.828125 398.617188 375.628906 401.433594 371.1875 403.886719 C 366.746094 406.34375 362.132812 408.410156 357.339844 410.082031 C 352.546875 411.75 347.648438 413.007812 342.644531 413.84375 C 337.636719 414.683594 332.597656 415.09375 327.523438 415.074219 Z M 327.523438 240.621094 C 281.035156 240.621094 243.214844 278.394531 243.214844 324.824219 C 243.214844 325.964844 243.234375 326.960938 243.28125 327.867188 C 243.28125 327.886719 243.28125 327.902344 243.28125 327.917969 C 243.445312 333.023438 244.085938 338.070312 245.199219 343.058594 C 246.253906 347.777344 247.703125 352.371094 249.546875 356.84375 C 251.386719 361.3125 253.601562 365.59375 256.179688 369.683594 C 258.761719 373.777344 261.671875 377.617188 264.914062 381.207031 C 268.15625 384.800781 271.679688 388.089844 275.484375 391.074219 C 276.992188 392.257812 278.535156 393.386719 280.117188 394.464844 C 281.703125 395.542969 283.320312 396.5625 284.972656 397.53125 C 286.625 398.496094 288.308594 399.40625 290.023438 400.261719 C 291.738281 401.113281 293.480469 401.90625 295.25 402.640625 C 297.019531 403.371094 298.8125 404.046875 300.625 404.65625 C 302.441406 405.269531 304.273438 405.816406 306.125 406.304688 C 307.980469 406.792969 309.847656 407.214844 311.726562 407.574219 C 313.609375 407.933594 315.5 408.230469 317.402344 408.460938 C 319.304688 408.691406 321.210938 408.855469 323.125 408.957031 C 325.035156 409.058594 326.949219 409.09375 328.867188 409.066406 C 330.78125 409.035156 332.691406 408.941406 334.601562 408.78125 C 336.511719 408.621094 338.410156 408.398438 340.304688 408.105469 C 342.199219 407.816406 344.078125 407.464844 345.949219 407.046875 C 347.816406 406.628906 349.671875 406.148438 351.507812 405.605469 C 353.34375 405.0625 355.160156 404.457031 356.957031 403.789062 C 358.75 403.121094 360.519531 402.394531 362.265625 401.605469 C 364.011719 400.820312 365.730469 399.972656 367.417969 399.066406 C 369.105469 398.164062 370.757812 397.203125 372.382812 396.183594 C 374.003906 395.167969 375.589844 394.09375 377.136719 392.96875 C 378.6875 391.84375 380.195312 390.667969 381.664062 389.4375 C 383.132812 388.210938 384.558594 386.933594 385.9375 385.609375 C 387.320312 384.285156 388.65625 382.914062 389.941406 381.496094 C 391.230469 380.078125 392.46875 378.621094 393.65625 377.121094 C 394.84375 375.621094 395.980469 374.082031 397.0625 372.503906 C 398.144531 370.925781 399.175781 369.3125 400.148438 367.664062 C 401.121094 366.015625 402.035156 364.335938 402.894531 362.628906 C 403.75 360.917969 404.550781 359.179688 405.289062 357.414062 C 406.03125 355.648438 406.707031 353.863281 407.324219 352.050781 C 407.945312 350.238281 408.5 348.410156 408.992188 346.5625 C 409.484375 344.710938 409.914062 342.847656 410.277344 340.972656 C 410.644531 339.09375 410.945312 337.207031 411.179688 335.308594 C 411.417969 333.410156 411.589844 331.503906 411.695312 329.59375 C 411.785156 327.929688 411.828125 326.324219 411.828125 324.824219 C 411.832031 323.445312 411.796875 322.066406 411.730469 320.691406 C 411.664062 319.316406 411.5625 317.941406 411.425781 316.570312 C 411.292969 315.199219 411.121094 313.832031 410.921875 312.46875 C 410.71875 311.105469 410.484375 309.746094 410.214844 308.394531 C 409.945312 307.042969 409.644531 305.699219 409.308594 304.363281 C 408.972656 303.023438 408.605469 301.695312 408.207031 300.378906 C 407.804688 299.058594 407.371094 297.75 406.90625 296.453125 C 406.445312 295.15625 405.945312 293.871094 405.417969 292.597656 C 404.890625 291.324219 404.332031 290.0625 403.742188 288.816406 C 403.152344 287.570312 402.53125 286.339844 401.882812 285.125 C 401.230469 283.910156 400.550781 282.710938 399.84375 281.527344 C 399.132812 280.347656 398.394531 279.183594 397.628906 278.035156 C 396.863281 276.890625 396.070312 275.765625 395.246094 274.65625 C 394.425781 273.550781 393.574219 272.464844 392.699219 271.398438 C 391.824219 270.332031 390.925781 269.289062 389.996094 268.269531 C 389.070312 267.246094 388.121094 266.25 387.144531 265.277344 C 386.167969 264.300781 385.167969 263.351562 384.148438 262.425781 C 383.125 261.5 382.078125 260.601562 381.011719 259.726562 C 379.945312 258.851562 378.859375 258.003906 377.75 257.183594 C 376.640625 256.363281 375.515625 255.570312 374.367188 254.804688 C 373.21875 254.039062 372.054688 253.300781 370.871094 252.59375 C 369.6875 251.882812 368.488281 251.207031 367.269531 250.554688 C 366.050781 249.90625 364.820312 249.285156 363.574219 248.699219 C 362.324219 248.109375 361.0625 247.550781 359.789062 247.023438 C 358.515625 246.496094 357.226562 246 355.929688 245.535156 C 354.628906 245.074219 353.320312 244.640625 352 244.242188 C 350.679688 243.839844 349.347656 243.472656 348.007812 243.140625 C 346.671875 242.804688 345.324219 242.503906 343.972656 242.234375 C 342.617188 241.964844 341.257812 241.730469 339.894531 241.527344 C 338.527344 241.328125 337.160156 241.160156 335.785156 241.023438 C 334.414062 240.890625 333.039062 240.789062 331.660156 240.722656 C 330.28125 240.652344 328.902344 240.621094 327.523438 240.621094 Z M 327.523438 240.621094 " fill-opacity="1" fill-rule="nonzero"/><path fill="#231f20" d="M 414.714844 329.757812 C 414.429688 335.066406 413.652344 340.300781 412.394531 345.460938 L 396.902344 345.460938 L 384.9375 365.488281 C 384.585938 366.070312 384.167969 366.597656 383.679688 367.074219 C 383.191406 367.546875 382.652344 367.953125 382.058594 368.289062 C 381.46875 368.625 380.84375 368.878906 380.183594 369.050781 C 379.527344 369.222656 378.855469 369.308594 378.175781 369.308594 C 377.730469 369.3125 377.289062 369.269531 376.851562 369.183594 C 376.066406 369.050781 375.324219 368.804688 374.613281 368.445312 C 373.90625 368.085938 373.269531 367.628906 372.699219 367.078125 C 372.128906 366.523438 371.65625 365.902344 371.277344 365.203125 C 370.894531 364.507812 370.628906 363.769531 370.472656 362.992188 L 363.085938 325.886719 L 356.832031 339.929688 C 356.523438 340.625 356.121094 341.257812 355.628906 341.835938 C 355.136719 342.414062 354.570312 342.90625 353.933594 343.320312 C 353.296875 343.734375 352.613281 344.050781 351.882812 344.265625 C 351.15625 344.480469 350.410156 344.585938 349.652344 344.585938 L 317.042969 344.585938 C 316.402344 344.585938 315.769531 344.507812 315.144531 344.355469 C 314.523438 344.199219 313.929688 343.96875 313.363281 343.667969 C 312.796875 343.367188 312.273438 343.003906 311.796875 342.574219 C 311.320312 342.144531 310.902344 341.664062 310.542969 341.132812 L 305.914062 334.332031 L 290.929688 364.910156 C 290.5625 365.652344 290.089844 366.320312 289.511719 366.914062 C 288.933594 367.507812 288.28125 367.996094 287.546875 368.382812 C 286.816406 368.769531 286.042969 369.035156 285.226562 369.179688 C 284.410156 369.320312 283.589844 369.335938 282.769531 369.222656 C 281.949219 369.105469 281.167969 368.867188 280.421875 368.507812 C 279.675781 368.144531 279.003906 367.675781 278.40625 367.105469 C 277.808594 366.53125 277.316406 365.878906 276.921875 365.148438 C 276.53125 364.421875 276.261719 363.648438 276.113281 362.835938 L 269.320312 325.117188 L 262.390625 339.300781 C 262.066406 339.964844 261.660156 340.570312 261.167969 341.117188 C 260.675781 341.664062 260.121094 342.132812 259.496094 342.523438 C 258.871094 342.914062 258.203125 343.210938 257.496094 343.414062 C 256.789062 343.617188 256.066406 343.71875 255.328125 343.71875 L 242.246094 343.71875 C 241.089844 338.546875 240.425781 333.3125 240.253906 328.015625 L 250.421875 328.015625 L 265.738281 296.667969 C 266.25 295.621094 266.953125 294.730469 267.855469 294 C 268.121094 293.785156 268.394531 293.589844 268.6875 293.410156 C 268.976562 293.234375 269.273438 293.074219 269.585938 292.9375 C 269.894531 292.796875 270.214844 292.679688 270.539062 292.582031 C 270.863281 292.484375 271.195312 292.40625 271.53125 292.351562 C 271.867188 292.296875 272.203125 292.265625 272.542969 292.253906 C 272.882812 292.242188 273.222656 292.253906 273.558594 292.285156 C 273.898438 292.320312 274.234375 292.375 274.5625 292.449219 C 274.894531 292.527344 275.21875 292.625 275.539062 292.742188 C 275.855469 292.859375 276.167969 293 276.46875 293.15625 C 276.769531 293.316406 277.058594 293.492188 277.335938 293.6875 C 277.613281 293.882812 277.875 294.097656 278.125 294.328125 C 278.375 294.558594 278.609375 294.804688 278.828125 295.0625 C 279.046875 295.324219 279.246094 295.597656 279.429688 295.882812 C 279.613281 296.167969 279.773438 296.464844 279.917969 296.773438 C 280.0625 297.082031 280.1875 297.398438 280.289062 297.71875 C 280.390625 298.042969 280.472656 298.371094 280.535156 298.707031 L 287.347656 336.496094 L 297.757812 315.265625 C 297.910156 314.957031 298.082031 314.660156 298.269531 314.375 C 298.460938 314.089844 298.667969 313.820312 298.890625 313.5625 C 299.117188 313.300781 299.359375 313.058594 299.617188 312.832031 C 299.871094 312.605469 300.144531 312.398438 300.425781 312.207031 C 300.710938 312.015625 301.007812 311.84375 301.3125 311.691406 C 301.621094 311.535156 301.9375 311.40625 302.261719 311.292969 C 302.585938 311.179688 302.914062 311.089844 303.25 311.023438 C 303.585938 310.953125 303.925781 310.90625 304.265625 310.882812 C 304.609375 310.859375 304.953125 310.855469 305.292969 310.878906 C 305.636719 310.898438 305.976562 310.941406 306.3125 311.003906 C 306.648438 311.070312 306.980469 311.15625 307.304688 311.265625 C 307.628906 311.371094 307.949219 311.5 308.257812 311.648438 C 308.566406 311.800781 308.863281 311.96875 309.148438 312.15625 C 309.433594 312.34375 309.707031 312.550781 309.96875 312.773438 C 310.226562 313 310.472656 313.238281 310.699219 313.492188 C 310.925781 313.75 311.136719 314.019531 311.332031 314.300781 L 321.214844 328.886719 L 344.554688 328.886719 L 358.769531 296.914062 C 359.109375 296.152344 359.558594 295.460938 360.121094 294.84375 C 360.679688 294.226562 361.320312 293.710938 362.046875 293.296875 C 362.769531 292.882812 363.539062 292.589844 364.355469 292.421875 C 365.175781 292.25 365.996094 292.214844 366.828125 292.304688 C 367.65625 292.398438 368.449219 292.617188 369.210938 292.960938 C 369.96875 293.304688 370.65625 293.757812 371.273438 294.320312 C 371.886719 294.886719 372.398438 295.53125 372.808594 296.253906 C 373.21875 296.980469 373.507812 297.753906 373.671875 298.570312 L 381.914062 339.929688 L 385.703125 333.582031 C 386.050781 333 386.46875 332.46875 386.957031 331.996094 C 387.441406 331.519531 387.980469 331.117188 388.570312 330.78125 C 389.164062 330.445312 389.785156 330.191406 390.445312 330.019531 C 391.101562 329.847656 391.769531 329.757812 392.449219 329.757812 Z M 414.714844 329.757812 " fill-opacity="1" fill-rule="nonzero"/><path fill="#231f20" d="M 362.175781 570.335938 L 291.714844 570.335938 C 289.757812 570.335938 287.804688 570.238281 285.855469 570.046875 C 283.90625 569.855469 281.972656 569.570312 280.050781 569.1875 C 278.128906 568.808594 276.230469 568.332031 274.359375 567.765625 C 272.484375 567.195312 270.640625 566.539062 268.832031 565.789062 C 267.023438 565.042969 265.253906 564.207031 263.527344 563.285156 C 261.800781 562.363281 260.125 561.359375 258.496094 560.273438 C 256.867188 559.183594 255.296875 558.019531 253.78125 556.78125 C 252.265625 555.539062 250.816406 554.226562 249.433594 552.84375 C 248.046875 551.460938 246.734375 550.015625 245.492188 548.503906 C 244.25 546.988281 243.085938 545.421875 241.996094 543.792969 C 240.910156 542.167969 239.902344 540.492188 238.980469 538.765625 C 238.058594 537.042969 237.222656 535.277344 236.472656 533.46875 C 235.722656 531.664062 235.0625 529.824219 234.496094 527.949219 C 233.925781 526.078125 233.449219 524.183594 233.070312 522.265625 C 232.6875 520.347656 232.398438 518.414062 232.207031 516.46875 C 232.015625 514.523438 231.921875 512.570312 231.921875 510.613281 L 231.921875 395.371094 C 231.921875 395.054688 231.96875 394.746094 232.066406 394.445312 C 232.164062 394.144531 232.304688 393.867188 232.488281 393.609375 C 232.671875 393.351562 232.890625 393.128906 233.148438 392.941406 C 233.402344 392.753906 233.679688 392.609375 233.976562 392.507812 C 234.277344 392.40625 234.585938 392.351562 234.902344 392.347656 C 235.21875 392.34375 235.527344 392.386719 235.832031 392.480469 C 236.132812 392.570312 236.414062 392.707031 236.675781 392.886719 C 236.933594 393.066406 237.160156 393.285156 237.355469 393.535156 C 259.015625 421.847656 291.882812 438.089844 327.523438 438.089844 C 331.796875 438.097656 336.054688 437.867188 340.300781 437.394531 C 344.546875 436.921875 348.753906 436.210938 352.917969 435.261719 C 357.085938 434.3125 361.183594 433.132812 365.214844 431.71875 C 369.246094 430.304688 373.183594 428.667969 377.027344 426.804688 C 380.871094 424.945312 384.597656 422.875 388.207031 420.589844 C 391.816406 418.308594 395.285156 415.828125 398.613281 413.148438 C 401.941406 410.472656 405.105469 407.617188 408.109375 404.582031 C 411.109375 401.546875 413.933594 398.351562 416.570312 394.996094 C 416.765625 394.75 416.992188 394.539062 417.253906 394.363281 C 417.515625 394.1875 417.796875 394.054688 418.097656 393.96875 C 418.402344 393.878906 418.707031 393.839844 419.023438 393.847656 C 419.335938 393.855469 419.644531 393.910156 419.941406 394.015625 C 420.238281 394.117188 420.511719 394.261719 420.761719 394.453125 C 421.015625 394.640625 421.230469 394.863281 421.414062 395.117188 C 421.597656 395.375 421.734375 395.652344 421.832031 395.949219 C 421.925781 396.25 421.972656 396.554688 421.972656 396.871094 L 421.972656 510.613281 C 421.972656 543.542969 395.148438 570.335938 362.175781 570.335938 Z M 237.972656 403.800781 L 237.972656 510.613281 C 237.972656 512.371094 238.058594 514.125 238.234375 515.875 C 238.40625 517.625 238.664062 519.363281 239.007812 521.085938 C 239.351562 522.808594 239.777344 524.511719 240.289062 526.195312 C 240.796875 527.878906 241.390625 529.53125 242.0625 531.15625 C 242.738281 532.78125 243.488281 534.367188 244.320312 535.917969 C 245.148438 537.46875 246.050781 538.972656 247.03125 540.433594 C 248.007812 541.898438 249.054688 543.308594 250.171875 544.664062 C 251.289062 546.023438 252.46875 547.324219 253.714844 548.570312 C 254.957031 549.8125 256.261719 550.992188 257.621094 552.105469 C 258.984375 553.222656 260.394531 554.265625 261.859375 555.242188 C 263.320312 556.21875 264.828125 557.121094 266.382812 557.953125 C 267.933594 558.78125 269.523438 559.53125 271.148438 560.203125 C 272.777344 560.875 274.429688 561.46875 276.117188 561.976562 C 277.800781 562.488281 279.503906 562.914062 281.230469 563.257812 C 282.957031 563.601562 284.695312 563.859375 286.449219 564.03125 C 288.199219 564.203125 289.957031 564.289062 291.714844 564.289062 L 362.175781 564.289062 C 391.808594 564.289062 415.917969 540.210938 415.917969 510.613281 L 415.917969 405.097656 C 410.890625 410.609375 405.394531 415.605469 399.4375 420.097656 C 393.480469 424.585938 387.160156 428.492188 380.476562 431.808594 C 376.335938 433.847656 372.09375 435.640625 367.742188 437.191406 C 363.394531 438.738281 358.96875 440.03125 354.472656 441.070312 C 349.972656 442.109375 345.429688 442.882812 340.839844 443.394531 C 336.253906 443.90625 331.648438 444.15625 327.03125 444.136719 C 322.417969 444.117188 317.816406 443.832031 313.230469 443.28125 C 308.648438 442.730469 304.109375 441.917969 299.621094 440.84375 C 295.128906 439.769531 290.71875 438.4375 286.382812 436.855469 C 282.046875 435.269531 277.816406 433.441406 273.691406 431.367188 C 266.921875 427.9375 260.535156 423.90625 254.53125 419.269531 C 248.523438 414.632812 243.003906 409.476562 237.972656 403.800781 Z M 237.972656 403.800781 " fill-opacity="1" fill-rule="nonzero"/><g clip-path="url(#50ba67de79)"><path fill="#231f20" d="M 565.371094 539.398438 L 565.371094 571.375 C 565.371094 572.8125 565.296875 574.25 565.15625 575.679688 C 565.011719 577.109375 564.800781 578.53125 564.519531 579.9375 C 564.238281 581.347656 563.886719 582.742188 563.46875 584.117188 C 563.050781 585.492188 562.5625 586.84375 562.011719 588.171875 C 561.460938 589.5 560.84375 590.796875 560.167969 592.066406 C 559.488281 593.332031 558.746094 594.566406 557.949219 595.761719 C 557.148438 596.957031 556.289062 598.109375 555.378906 599.21875 C 554.464844 600.332031 553.5 601.394531 552.480469 602.410156 C 551.460938 603.429688 550.398438 604.390625 549.285156 605.304688 C 548.171875 606.214844 547.019531 607.070312 545.820312 607.871094 C 544.625 608.671875 543.390625 609.410156 542.121094 610.085938 C 540.851562 610.765625 539.554688 611.378906 538.222656 611.929688 C 536.894531 612.480469 535.542969 612.964844 534.164062 613.382812 C 532.785156 613.804688 531.390625 614.152344 529.980469 614.433594 C 528.570312 614.714844 527.148438 614.929688 525.714844 615.070312 C 524.28125 615.210938 522.847656 615.285156 521.40625 615.285156 L 357.808594 615.285156 C 356.371094 615.285156 354.933594 615.210938 353.503906 615.070312 C 352.070312 614.929688 350.648438 614.714844 349.234375 614.433594 C 347.824219 614.152344 346.429688 613.804688 345.054688 613.382812 C 343.675781 612.964844 342.320312 612.480469 340.992188 611.929688 C 339.664062 611.378906 338.363281 610.765625 337.09375 610.085938 C 335.824219 609.410156 334.59375 608.671875 333.394531 607.871094 C 332.199219 607.070312 331.042969 606.214844 329.933594 605.304688 C 328.820312 604.390625 327.753906 603.429688 326.734375 602.410156 C 325.71875 601.394531 324.753906 600.332031 323.839844 599.21875 C 322.925781 598.109375 322.070312 596.957031 321.269531 595.761719 C 320.46875 594.566406 319.730469 593.332031 319.050781 592.066406 C 318.371094 590.796875 317.757812 589.5 317.203125 588.171875 C 316.652344 586.84375 316.167969 585.492188 315.75 584.117188 C 315.332031 582.742188 314.980469 581.347656 314.699219 579.9375 C 314.414062 578.53125 314.203125 577.109375 314.0625 575.679688 C 313.917969 574.25 313.847656 572.8125 313.84375 571.375 L 313.84375 567.3125 L 340.046875 567.3125 L 340.046875 571.375 C 340.046875 571.957031 340.074219 572.535156 340.132812 573.113281 C 340.191406 573.691406 340.277344 574.265625 340.390625 574.835938 C 340.503906 575.40625 340.644531 575.96875 340.816406 576.523438 C 340.984375 577.082031 341.179688 577.625 341.402344 578.164062 C 341.625 578.699219 341.875 579.222656 342.148438 579.734375 C 342.421875 580.25 342.722656 580.746094 343.042969 581.230469 C 343.367188 581.710938 343.714844 582.175781 344.082031 582.625 C 344.453125 583.074219 344.84375 583.503906 345.253906 583.914062 C 345.664062 584.328125 346.09375 584.714844 346.546875 585.085938 C 346.996094 585.453125 347.460938 585.800781 347.945312 586.121094 C 348.429688 586.445312 348.925781 586.742188 349.4375 587.015625 C 349.953125 587.289062 350.476562 587.539062 351.015625 587.761719 C 351.550781 587.984375 352.097656 588.179688 352.65625 588.347656 C 353.210938 588.519531 353.773438 588.660156 354.34375 588.773438 C 354.914062 588.886719 355.492188 588.972656 356.070312 589.027344 C 356.648438 589.085938 357.226562 589.117188 357.808594 589.117188 L 521.40625 589.117188 C 521.988281 589.117188 522.570312 589.085938 523.148438 589.027344 C 523.726562 588.972656 524.300781 588.886719 524.871094 588.773438 C 525.441406 588.660156 526.003906 588.515625 526.5625 588.347656 C 527.117188 588.179688 527.664062 587.984375 528.203125 587.761719 C 528.738281 587.539062 529.265625 587.289062 529.777344 587.015625 C 530.289062 586.742188 530.789062 586.445312 531.273438 586.121094 C 531.753906 585.800781 532.222656 585.453125 532.671875 585.085938 C 533.121094 584.714844 533.550781 584.328125 533.960938 583.914062 C 534.375 583.503906 534.765625 583.074219 535.132812 582.625 C 535.503906 582.175781 535.847656 581.710938 536.171875 581.230469 C 536.496094 580.746094 536.792969 580.25 537.066406 579.734375 C 537.34375 579.222656 537.589844 578.699219 537.8125 578.164062 C 538.035156 577.625 538.234375 577.082031 538.402344 576.523438 C 538.570312 575.96875 538.710938 575.40625 538.828125 574.835938 C 538.941406 574.265625 539.027344 573.691406 539.082031 573.113281 C 539.140625 572.535156 539.171875 571.957031 539.171875 571.375 L 539.171875 539.398438 Z M 565.371094 539.398438 " fill-opacity="1" fill-rule="nonzero"/></g><path fill="#231f20" d="M 568.863281 542.421875 L 533.929688 542.421875 C 533.527344 542.421875 533.144531 542.347656 532.773438 542.191406 C 532.402344 542.039062 532.074219 541.820312 531.789062 541.539062 C 531.503906 541.253906 531.285156 540.925781 531.132812 540.554688 C 530.980469 540.1875 530.902344 539.800781 530.902344 539.398438 L 530.902344 506.253906 C 530.902344 506.027344 530.929688 505.804688 530.976562 505.585938 C 531.027344 505.363281 531.101562 505.152344 531.199219 504.949219 C 531.296875 504.746094 531.414062 504.554688 531.554688 504.378906 C 531.695312 504.199219 531.851562 504.042969 532.027344 503.898438 C 532.203125 503.757812 532.394531 503.636719 532.597656 503.539062 C 532.800781 503.4375 533.011719 503.363281 533.230469 503.3125 C 533.449219 503.257812 533.671875 503.230469 533.898438 503.230469 C 534.125 503.226562 534.347656 503.25 534.570312 503.296875 C 537.910156 504.019531 541.289062 504.378906 544.707031 504.382812 L 561.582031 504.382812 C 563.875 504.382812 566.15625 504.21875 568.421875 503.890625 C 568.640625 503.859375 568.855469 503.851562 569.070312 503.863281 C 569.289062 503.878906 569.5 503.917969 569.710938 503.976562 C 569.917969 504.039062 570.117188 504.121094 570.308594 504.226562 C 570.5 504.328125 570.679688 504.453125 570.84375 504.59375 C 571.007812 504.734375 571.15625 504.894531 571.285156 505.066406 C 571.417969 505.242188 571.527344 505.425781 571.617188 505.625 C 571.707031 505.820312 571.777344 506.027344 571.824219 506.238281 C 571.867188 506.449219 571.890625 506.664062 571.890625 506.882812 L 571.890625 539.398438 C 571.890625 539.800781 571.816406 540.1875 571.660156 540.554688 C 571.507812 540.925781 571.289062 541.253906 571.003906 541.539062 C 570.722656 541.820312 570.394531 542.039062 570.023438 542.191406 C 569.652344 542.347656 569.265625 542.421875 568.863281 542.421875 Z M 536.957031 536.375 L 565.835938 536.375 L 565.835938 510.261719 C 564.433594 510.371094 563.011719 510.429688 561.582031 510.429688 L 544.707031 510.429688 C 542.109375 510.429688 539.527344 510.242188 536.957031 509.867188 Z M 536.957031 536.375 " fill-opacity="1" fill-rule="nonzero"/><g clip-path="url(#a23b3bc703)"><path fill="#231f20" d="M 561.582031 510.429688 L 544.707031 510.429688 C 540.859375 510.425781 537.054688 510.019531 533.292969 509.207031 C 531.800781 508.886719 530.324219 508.5 528.863281 508.054688 C 527.402344 507.605469 525.964844 507.097656 524.546875 506.527344 C 523.128906 505.957031 521.742188 505.328125 520.378906 504.640625 C 519.015625 503.953125 517.683594 503.207031 516.382812 502.40625 C 515.082031 501.605469 513.816406 500.753906 512.589844 499.84375 C 511.363281 498.9375 510.175781 497.980469 509.03125 496.972656 C 507.882812 495.964844 506.78125 494.910156 505.726562 493.808594 C 504.667969 492.703125 503.660156 491.5625 502.703125 490.375 C 501.742188 489.1875 500.835938 487.960938 499.980469 486.695312 C 499.125 485.433594 498.324219 484.136719 497.582031 482.804688 C 496.835938 481.472656 496.148438 480.109375 495.519531 478.722656 C 494.890625 477.332031 494.324219 475.917969 493.8125 474.476562 C 493.304688 473.039062 492.855469 471.582031 492.472656 470.105469 C 492.085938 468.628906 491.765625 467.140625 491.507812 465.636719 C 491.25 464.132812 491.054688 462.621094 490.921875 461.101562 C 490.792969 459.582031 490.726562 458.058594 490.726562 456.535156 L 490.726562 264.636719 C 490.726562 234.910156 514.941406 210.726562 544.707031 210.726562 L 561.582031 210.726562 C 563.347656 210.726562 565.113281 210.8125 566.871094 210.984375 C 568.632812 211.15625 570.378906 211.414062 572.113281 211.757812 C 573.847656 212.101562 575.558594 212.53125 577.253906 213.042969 C 578.945312 213.554688 580.605469 214.148438 582.242188 214.824219 C 583.875 215.5 585.46875 216.253906 587.03125 217.085938 C 588.589844 217.917969 590.105469 218.824219 591.574219 219.804688 C 593.042969 220.785156 594.464844 221.835938 595.828125 222.957031 C 597.195312 224.078125 598.503906 225.261719 599.753906 226.511719 C 601.003906 227.757812 602.191406 229.066406 603.3125 230.429688 C 604.433594 231.796875 605.488281 233.210938 606.46875 234.679688 C 607.449219 236.148438 608.359375 237.660156 609.191406 239.21875 C 610.023438 240.777344 610.78125 242.371094 611.457031 244.003906 C 612.132812 245.632812 612.726562 247.296875 613.238281 248.984375 C 613.753906 250.675781 614.179688 252.386719 614.527344 254.117188 C 614.871094 255.851562 615.128906 257.59375 615.300781 259.351562 C 615.472656 261.109375 615.558594 262.871094 615.558594 264.636719 L 615.558594 456.535156 C 615.558594 458.136719 615.488281 459.738281 615.34375 461.335938 C 615.199219 462.933594 614.984375 464.523438 614.699219 466.101562 C 614.414062 467.679688 614.058594 469.242188 613.632812 470.789062 C 613.210938 472.335938 612.714844 473.859375 612.15625 475.363281 C 611.59375 476.863281 610.964844 478.339844 610.273438 479.785156 C 609.578125 481.234375 608.824219 482.648438 608.003906 484.027344 C 607.183594 485.40625 606.304688 486.746094 605.367188 488.046875 C 604.425781 489.347656 603.429688 490.605469 602.378906 491.816406 C 601.328125 493.027344 600.222656 494.191406 599.070312 495.304688 C 597.914062 496.417969 596.710938 497.480469 595.460938 498.488281 C 594.210938 499.492188 592.917969 500.441406 591.582031 501.332031 C 590.246094 502.226562 588.875 503.054688 587.464844 503.824219 C 586.058594 504.59375 584.617188 505.296875 583.144531 505.9375 C 581.671875 506.578125 580.171875 507.152344 578.648438 507.660156 C 577.125 508.167969 575.582031 508.605469 574.019531 508.976562 C 572.457031 509.34375 570.882812 509.644531 569.292969 509.875 C 566.734375 510.246094 564.164062 510.429688 561.582031 510.429688 Z M 544.707031 216.773438 C 543.136719 216.773438 541.574219 216.851562 540.011719 217.007812 C 538.449219 217.164062 536.898438 217.394531 535.363281 217.703125 C 533.824219 218.007812 532.304688 218.390625 530.800781 218.847656 C 529.300781 219.300781 527.824219 219.832031 526.375 220.429688 C 524.925781 221.03125 523.511719 221.703125 522.125 222.441406 C 520.742188 223.179688 519.398438 223.984375 518.09375 224.855469 C 516.789062 225.726562 515.53125 226.660156 514.320312 227.652344 C 513.105469 228.648438 511.945312 229.699219 510.835938 230.808594 C 509.726562 231.917969 508.671875 233.074219 507.679688 234.285156 C 506.683594 235.5 505.75 236.753906 504.875 238.058594 C 504.003906 239.359375 503.199219 240.703125 502.457031 242.085938 C 501.71875 243.464844 501.046875 244.882812 500.445312 246.328125 C 499.84375 247.777344 499.316406 249.25 498.859375 250.75 C 498.402344 252.25 498.019531 253.765625 497.710938 255.304688 C 497.40625 256.839844 497.175781 258.386719 497.019531 259.949219 C 496.863281 261.507812 496.785156 263.070312 496.78125 264.636719 L 496.78125 456.535156 C 496.785156 457.886719 496.839844 459.242188 496.957031 460.589844 C 497.074219 461.9375 497.246094 463.28125 497.472656 464.617188 C 497.703125 465.949219 497.988281 467.273438 498.332031 468.582031 C 498.671875 469.894531 499.070312 471.1875 499.523438 472.464844 C 499.972656 473.742188 500.480469 474.996094 501.039062 476.230469 C 501.597656 477.464844 502.207031 478.671875 502.867188 479.855469 C 503.527344 481.035156 504.238281 482.1875 504.996094 483.3125 C 505.757812 484.433594 506.5625 485.519531 507.414062 486.574219 C 508.265625 487.628906 509.160156 488.644531 510.097656 489.621094 C 511.035156 490.601562 512.011719 491.535156 513.03125 492.433594 C 514.046875 493.328125 515.101562 494.175781 516.191406 494.984375 C 517.28125 495.789062 518.402344 496.546875 519.554688 497.257812 C 520.710938 497.96875 521.890625 498.628906 523.101562 499.238281 C 524.3125 499.851562 525.546875 500.410156 526.804688 500.914062 C 528.0625 501.421875 529.339844 501.871094 530.636719 502.269531 C 531.929688 502.667969 533.242188 503.011719 534.566406 503.296875 C 537.90625 504.019531 541.289062 504.378906 544.707031 504.382812 L 561.578125 504.382812 C 563.871094 504.382812 566.152344 504.21875 568.421875 503.890625 C 591.847656 500.546875 609.503906 480.1875 609.503906 456.535156 L 609.503906 264.636719 C 609.503906 263.070312 609.425781 261.503906 609.273438 259.945312 C 609.121094 258.386719 608.890625 256.835938 608.585938 255.296875 C 608.28125 253.761719 607.898438 252.242188 607.445312 250.742188 C 606.988281 249.242188 606.460938 247.765625 605.859375 246.316406 C 605.261719 244.867188 604.589844 243.453125 603.851562 242.070312 C 603.109375 240.6875 602.304688 239.34375 601.433594 238.039062 C 600.5625 236.738281 599.628906 235.480469 598.632812 234.265625 C 597.636719 233.054688 596.582031 231.894531 595.472656 230.785156 C 594.363281 229.675781 593.203125 228.625 591.988281 227.632812 C 590.773438 226.636719 589.515625 225.703125 588.210938 224.832031 C 586.90625 223.960938 585.558594 223.15625 584.175781 222.417969 C 582.789062 221.679688 581.371094 221.011719 579.921875 220.410156 C 578.472656 219.8125 576.996094 219.285156 575.492188 218.828125 C 573.992188 218.375 572.46875 217.996094 570.929688 217.691406 C 569.390625 217.382812 567.839844 217.15625 566.277344 217 C 564.714844 216.847656 563.148438 216.773438 561.578125 216.773438 Z M 544.707031 216.773438 " fill-opacity="1" fill-rule="nonzero"/></g><path fill="#231f20" d="M 563.328125 318.996094 L 563.328125 406.816406 C 563.324219 407.421875 563.261719 408.023438 563.136719 408.621094 C 563.015625 409.214844 562.835938 409.792969 562.601562 410.355469 C 562.367188 410.914062 562.078125 411.449219 561.738281 411.953125 C 561.398438 412.457031 561.011719 412.921875 560.578125 413.351562 C 560.148438 413.777344 559.675781 414.160156 559.171875 414.496094 C 558.664062 414.832031 558.128906 415.117188 557.566406 415.351562 C 557.003906 415.582031 556.421875 415.757812 555.828125 415.875 C 555.230469 415.992188 554.625 416.050781 554.019531 416.050781 C 553.410156 416.050781 552.804688 415.992188 552.210938 415.875 C 551.613281 415.757812 551.03125 415.582031 550.46875 415.351562 C 549.90625 415.117188 549.371094 414.832031 548.863281 414.496094 C 548.359375 414.160156 547.886719 413.777344 547.457031 413.351562 C 547.023438 412.921875 546.636719 412.457031 546.296875 411.953125 C 545.957031 411.449219 545.671875 410.914062 545.433594 410.355469 C 545.199219 409.792969 545.019531 409.214844 544.898438 408.621094 C 544.773438 408.023438 544.710938 407.421875 544.707031 406.816406 L 544.707031 318.996094 C 544.703125 318.382812 544.757812 317.777344 544.875 317.171875 C 544.992188 316.570312 545.164062 315.988281 545.398438 315.417969 C 545.628906 314.851562 545.914062 314.3125 546.253906 313.800781 C 546.59375 313.289062 546.980469 312.816406 547.410156 312.378906 C 547.84375 311.945312 548.316406 311.558594 548.824219 311.214844 C 549.335938 310.875 549.875 310.585938 550.441406 310.347656 C 551.007812 310.113281 551.589844 309.933594 552.195312 309.816406 C 552.796875 309.695312 553.402344 309.636719 554.019531 309.636719 C 554.632812 309.636719 555.238281 309.695312 555.839844 309.816406 C 556.445312 309.933594 557.027344 310.113281 557.59375 310.347656 C 558.160156 310.585938 558.699219 310.875 559.210938 311.214844 C 559.71875 311.558594 560.191406 311.945312 560.625 312.378906 C 561.054688 312.816406 561.441406 313.289062 561.78125 313.800781 C 562.121094 314.3125 562.40625 314.851562 562.636719 315.417969 C 562.871094 315.988281 563.042969 316.570312 563.160156 317.171875 C 563.277344 317.777344 563.332031 318.382812 563.328125 318.996094 Z M 563.328125 318.996094 " fill-opacity="1" fill-rule="nonzero"/></svg>