<svg xmlns="http://www.w3.org/2000/svg" xmlns:xlink="http://www.w3.org/1999/xlink" width="1080" zoomAndPan="magnify" viewBox="0 0 810 809.999993" height="1080" preserveAspectRatio="xMidYMid meet" version="1.0"><defs><clipPath id="b8eb4cb43a"><path d="M 245 222 L 559 222 L 559 593.875 L 245 593.875 Z M 245 222 " clip-rule="nonzero"/></clipPath></defs><rect x="-81" width="972" fill="#ffffff" y="-80.999999" height="971.999992" fill-opacity="1"/><rect x="-81" width="972" fill="#ff8200" y="-80.999999" height="971.999992" fill-opacity="1"/><g clip-path="url(#b8eb4cb43a)"><path fill="#000000" d="M 245.691406 411.390625 C 246.855469 415.449219 249.753906 422.113281 258.457031 425.878906 L 254.976562 438.914062 C 254.976562 439.203125 254.976562 439.496094 254.976562 439.496094 C 254.6875 442.972656 257.007812 445.289062 258.167969 446.449219 C 258.75 447.027344 259.328125 447.605469 260.199219 447.894531 L 264.261719 449.34375 L 260.78125 452.53125 C 260.488281 452.820312 260.199219 453.109375 259.910156 453.402344 C 258.457031 455.429688 258.167969 458.328125 259.039062 460.644531 L 261.359375 467.308594 C 262.8125 471.074219 262.519531 477.449219 261.941406 481.503906 L 260.78125 487.585938 C 259.039062 496.277344 262.8125 504.679688 270.0625 509.316406 C 277.605469 514.242188 289.210938 516.558594 303.71875 516.269531 C 321.417969 515.691406 343.464844 522.351562 352.167969 542.054688 C 358.261719 555.671875 357.101562 573.632812 355.359375 586.378906 C 354.78125 589.566406 357.101562 592.464844 360.292969 593.042969 C 363.484375 593.625 366.386719 591.304688 366.964844 588.117188 C 368.996094 573.921875 370.15625 553.351562 362.902344 537.417969 C 351.878906 512.503906 324.898438 504.101562 303.429688 504.679688 C 288.050781 504.96875 280.21875 502.074219 276.15625 499.464844 C 272.964844 497.4375 271.222656 493.382812 271.804688 489.617188 L 272.964844 483.53125 C 274.125 478.027344 274.125 469.335938 272.09375 463.25 L 270.644531 458.90625 L 276.738281 453.113281 C 277.027344 452.820312 277.316406 452.53125 277.605469 452.242188 C 279.636719 449.054688 279.347656 445 276.738281 442.101562 C 276.15625 441.523438 275.578125 440.941406 274.707031 440.652344 L 267.164062 437.757812 L 270.644531 424.71875 C 285.441406 408.496094 309.230469 400.09375 333.019531 402.699219 C 355.941406 405.308594 374.800781 417.1875 384.953125 435.726562 C 394.527344 453.113281 393.65625 480.34375 393.078125 506.417969 C 392.207031 537.128906 391.335938 568.707031 405.84375 590.148438 C 407.003906 591.886719 408.746094 592.753906 410.773438 592.753906 C 411.9375 592.753906 413.097656 592.464844 413.964844 591.886719 C 416.578125 590.148438 417.449219 586.378906 415.417969 583.773438 C 402.941406 565.519531 403.8125 535.679688 404.683594 507 C 405.554688 479.1875 406.421875 450.503906 395.398438 430.222656 C 383.214844 409.074219 361.164062 394.878906 334.472656 391.691406 C 308.070312 388.792969 281.378906 397.777344 263.972656 415.449219 C 260.199219 414 257.878906 411.972656 257.007812 408.496094 C 256.429688 405.886719 257.007812 402.992188 258.457031 400.382812 L 264.839844 389.953125 C 265.421875 390.242188 266.003906 390.242188 266.582031 390.242188 C 267.742188 390.242188 268.613281 389.953125 269.773438 389.375 C 272.386719 387.636719 273.253906 384.160156 271.515625 381.261719 C 271.222656 380.972656 271.222656 380.683594 270.933594 380.394531 L 283.121094 360.402344 C 283.121094 360.402344 283.410156 360.402344 283.410156 360.402344 C 296.175781 351.132812 307.199219 345.625 317.0625 342.730469 C 341.726562 335.777344 365.804688 340.121094 381.761719 354.316406 L 383.214844 355.476562 C 400.910156 371.121094 433.984375 400.09375 458.9375 373.441406 C 467.058594 364.75 469.378906 354.027344 471.992188 343.597656 C 472.28125 341.859375 472.863281 340.121094 473.152344 338.671875 C 473.734375 336.066406 475.761719 334.039062 478.085938 332.878906 C 480.695312 332.011719 483.308594 332.300781 485.628906 333.75 C 487.660156 335.195312 488.820312 337.515625 488.820312 340.410156 C 488.820312 341.28125 488.820312 342.148438 488.238281 343.308594 C 486.496094 348.8125 485.628906 354.609375 485.046875 360.113281 C 482.144531 385.316406 472.863281 415.449219 445.878906 416.316406 C 444.140625 416.316406 442.398438 417.1875 441.527344 418.636719 C 440.367188 420.082031 440.078125 421.820312 440.367188 423.558594 C 446.171875 447.894531 446.460938 467.019531 447.039062 487.585938 C 447.621094 515.980469 448.492188 545.53125 463.578125 589.566406 C 464.449219 591.886719 466.769531 593.625 469.089844 593.625 C 469.671875 593.625 470.25 593.625 470.832031 593.332031 C 473.734375 592.175781 475.472656 588.988281 474.3125 586.089844 C 459.804688 543.792969 458.9375 515.398438 458.355469 487.585938 C 457.777344 469.046875 457.484375 449.925781 452.84375 427.617188 C 476.34375 423.269531 491.71875 400.09375 496.070312 361.851562 C 496.652344 356.636719 497.234375 351.710938 498.683594 347.65625 C 499.261719 345.625 499.84375 343.308594 499.84375 341.28125 C 499.84375 334.90625 496.652344 328.824219 491.71875 325.347656 C 486.496094 321.582031 479.535156 320.710938 473.441406 323.027344 C 467.351562 325.347656 462.707031 330.5625 461.257812 336.933594 C 460.96875 338.671875 460.386719 340.410156 460.097656 342.148438 C 458.066406 351.421875 456.035156 360.402344 449.941406 366.777344 C 433.984375 383.871094 411.644531 367.066406 390.175781 348.234375 L 388.726562 347.074219 C 369.867188 330.273438 341.433594 325.058594 313.292969 332.878906 C 304.007812 335.488281 293.855469 340.410156 282.25 347.945312 C 275.867188 313.46875 307.78125 269.429688 334.472656 253.785156 C 369.578125 232.058594 420.347656 228.292969 464.160156 243.066406 C 500.425781 255.234375 527.117188 278.414062 539.011719 308.253906 C 553.808594 345.335938 547.714844 389.664062 523.054688 424.140625 C 497.8125 459.484375 485.917969 494.539062 486.207031 531.042969 C 486.496094 550.167969 490.269531 569.867188 497.523438 589.566406 C 498.394531 591.886719 500.714844 593.332031 503.035156 593.332031 C 503.617188 593.332031 504.484375 593.332031 505.066406 593.042969 C 507.96875 591.886719 509.707031 588.699219 508.546875 585.511719 C 501.875 566.96875 498.101562 548.71875 498.101562 531.042969 C 497.523438 496.859375 508.835938 464.121094 532.628906 431.09375 C 559.609375 393.429688 565.992188 344.757812 549.746094 304.199219 C 536.398438 271.167969 507.386719 245.675781 467.929688 232.347656 C 420.929688 216.125 366.386719 220.179688 329.25 242.488281 C 297.335938 261.320312 260.78125 313.757812 272.964844 354.898438 L 248.59375 394.589844 C 245.402344 399.804688 244.242188 405.886719 245.691406 411.390625 Z M 245.691406 411.390625 " fill-opacity="1" fill-rule="nonzero"/></g><path fill="#000000" d="M 428.472656 473.679688 C 425.28125 473.679688 422.671875 476.289062 422.671875 479.476562 C 422.671875 482.664062 425.28125 485.269531 428.472656 485.269531 C 431.664062 485.269531 434.273438 482.664062 434.273438 479.476562 C 434.273438 476 431.664062 473.390625 428.472656 473.679688 Z M 428.472656 473.679688 " fill-opacity="1" fill-rule="nonzero"/><path fill="#000000" d="M 427.890625 508.445312 C 431.082031 508.445312 433.695312 505.839844 433.984375 502.941406 C 433.984375 499.753906 431.664062 497.148438 428.472656 496.859375 C 425.28125 496.859375 422.671875 499.175781 422.378906 502.363281 C 422.089844 505.550781 424.699219 508.15625 427.890625 508.445312 Z M 427.890625 508.445312 " fill-opacity="1" fill-rule="nonzero"/><path fill="#000000" d="M 426.152344 450.503906 C 422.960938 450.792969 420.640625 453.980469 421.21875 457.167969 C 421.507812 460.066406 424.121094 462.09375 427.023438 462.09375 C 427.3125 462.09375 427.601562 462.09375 427.890625 462.09375 C 431.082031 461.804688 433.40625 458.617188 432.824219 455.429688 C 432.246094 452.242188 429.34375 449.925781 426.152344 450.503906 Z M 426.152344 450.503906 " fill-opacity="1" fill-rule="nonzero"/><path fill="#000000" d="M 421.507812 439.496094 C 422.089844 439.496094 422.960938 439.496094 423.539062 439.203125 C 426.441406 438.046875 428.183594 434.859375 427.023438 431.671875 C 425.863281 428.773438 422.671875 427.035156 419.480469 428.195312 C 416.578125 429.355469 414.835938 432.542969 415.996094 435.726562 C 416.867188 438.046875 419.1875 439.496094 421.507812 439.496094 Z M 421.507812 439.496094 " fill-opacity="1" fill-rule="nonzero"/><path fill="#000000" d="M 428.183594 531.625 C 431.664062 531.625 433.984375 528.726562 433.984375 525.539062 C 433.984375 522.351562 431.082031 519.746094 427.890625 520.035156 C 424.699219 520.324219 422.089844 522.933594 422.378906 526.121094 C 422.378906 529.015625 424.992188 531.625 428.183594 531.625 Z M 428.183594 531.625 " fill-opacity="1" fill-rule="nonzero"/><path fill="#000000" d="M 407.292969 408.496094 C 404.683594 410.234375 404.101562 414 405.84375 416.605469 C 407.003906 418.34375 408.746094 419.214844 410.484375 419.214844 C 411.644531 419.214844 412.804688 418.925781 413.675781 418.34375 C 416.289062 416.605469 416.867188 412.839844 415.128906 410.234375 C 413.675781 407.335938 409.90625 406.757812 407.292969 408.496094 Z M 407.292969 408.496094 " fill-opacity="1" fill-rule="nonzero"/><path fill="#000000" d="M 350.429688 371.121094 C 349.558594 374.308594 351.300781 377.496094 354.199219 378.363281 C 354.78125 378.65625 355.359375 378.65625 355.941406 378.65625 C 358.550781 378.65625 360.582031 376.917969 361.453125 374.597656 C 362.324219 371.410156 360.582031 368.226562 357.683594 367.355469 C 354.492188 366.195312 351.300781 367.933594 350.429688 371.121094 Z M 350.429688 371.121094 " fill-opacity="1" fill-rule="nonzero"/><path fill="#000000" d="M 429.921875 554.511719 C 430.214844 554.511719 430.214844 554.511719 430.503906 554.511719 C 433.695312 554.222656 436.015625 551.324219 435.4375 548.136719 C 435.144531 544.953125 432.246094 542.632812 429.054688 542.921875 C 425.863281 543.214844 423.539062 546.109375 423.832031 549.296875 C 424.410156 552.484375 427.023438 554.511719 429.921875 554.511719 Z M 429.921875 554.511719 " fill-opacity="1" fill-rule="nonzero"/><path fill="#000000" d="M 309.230469 363.589844 C 306.039062 363.878906 303.71875 367.066406 304.296875 370.253906 C 304.589844 373.148438 307.199219 375.179688 310.101562 375.179688 C 310.390625 375.179688 310.679688 375.179688 310.972656 375.179688 C 314.164062 374.886719 316.484375 371.703125 315.902344 368.804688 C 315.324219 365.328125 312.421875 363.007812 309.230469 363.589844 Z M 309.230469 363.589844 " fill-opacity="1" fill-rule="nonzero"/><path fill="#000000" d="M 285.441406 369.09375 C 282.539062 370.253906 280.796875 373.441406 281.960938 376.625 C 282.828125 378.945312 285.152344 380.394531 287.472656 380.394531 C 288.050781 380.394531 288.632812 380.394531 289.503906 380.101562 C 292.402344 378.945312 294.144531 375.757812 292.984375 372.570312 C 291.824219 369.671875 288.34375 368.226562 285.441406 369.09375 Z M 285.441406 369.09375 " fill-opacity="1" fill-rule="nonzero"/><path fill="#000000" d="M 327.21875 368.226562 C 326.929688 371.410156 329.539062 374.308594 332.730469 374.308594 L 333.019531 374.308594 C 335.921875 374.308594 338.535156 371.992188 338.824219 368.804688 C 339.113281 365.617188 336.503906 362.71875 333.3125 362.71875 C 330.121094 362.71875 327.507812 365.039062 327.21875 368.226562 Z M 327.21875 368.226562 " fill-opacity="1" fill-rule="nonzero"/><path fill="#000000" d="M 391.335938 391.691406 C 389.015625 394.007812 389.304688 397.777344 391.625 399.804688 C 392.789062 400.960938 394.238281 401.253906 395.6875 401.253906 C 397.140625 401.253906 398.878906 400.671875 400.039062 399.515625 C 402.363281 397.195312 402.070312 393.429688 399.75 391.402344 C 397.429688 389.375 393.65625 389.375 391.335938 391.691406 Z M 391.335938 391.691406 " fill-opacity="1" fill-rule="nonzero"/><path fill="#000000" d="M 380.023438 376.917969 C 377.121094 375.46875 373.640625 376.335938 372.1875 378.945312 C 370.449219 381.839844 371.609375 385.316406 374.21875 386.765625 C 375.089844 387.347656 376.25 387.636719 377.121094 387.636719 C 379.152344 387.636719 381.183594 386.476562 382.050781 384.738281 C 383.792969 381.839844 382.921875 378.363281 380.023438 376.917969 Z M 380.023438 376.917969 " fill-opacity="1" fill-rule="nonzero"/></svg>