<svg xmlns="http://www.w3.org/2000/svg" xmlns:xlink="http://www.w3.org/1999/xlink" width="1080" zoomAndPan="magnify" viewBox="0 0 810 809.999993" height="1080" preserveAspectRatio="xMidYMid meet" version="1.0"><defs><clipPath id="c472bd9584"><path d="M 224.164062 195.03125 L 585.664062 195.03125 L 585.664062 615.03125 L 224.164062 615.03125 Z M 224.164062 195.03125 " clip-rule="nonzero"/></clipPath></defs><rect x="-81" width="972" fill="#ffffff" y="-80.999999" height="971.999992" fill-opacity="1"/><rect x="-81" width="972" fill="#ff8200" y="-80.999999" height="971.999992" fill-opacity="1"/><g clip-path="url(#c472bd9584)"><path fill="#000000" d="M 583.1875 361.570312 C 582.894531 362.214844 583.1875 363.03125 583.417969 363.554688 C 584.816406 366.414062 585.515625 369.445312 585.515625 372.597656 C 585.515625 377.378906 582.835938 382.921875 576.65625 391.203125 C 575.78125 392.371094 575.257812 394.121094 576.074219 395.40625 C 578.347656 398.90625 579.511719 402.871094 579.511719 406.894531 C 579.511719 413.136719 575.199219 419.847656 569.953125 427.371094 C 569.136719 428.597656 568.027344 430.171875 567.445312 431.046875 C 566.6875 442.480469 556.484375 451.753906 543.484375 453.214844 C 543.195312 463.128906 535.671875 471.878906 524.539062 474.972656 C 523.546875 475.261719 522.730469 475.789062 522.265625 476.488281 C 518.066406 482.789062 509.265625 493.347656 497.957031 493.347656 C 496.148438 493.347656 494.339844 493.171875 492.476562 492.878906 C 485.070312 498.714844 473.996094 500.636719 464.433594 497.605469 C 463.734375 497.371094 462.917969 497.546875 462.335938 497.953125 C 456.621094 502.328125 448.984375 504.78125 440.882812 504.78125 L 437.910156 504.78125 C 435.519531 504.78125 431.90625 504.722656 429.457031 504.894531 C 429.574219 515.046875 429.515625 526.480469 422.984375 534.121094 C 421.878906 535.464844 421.761719 535.753906 422.925781 539.839844 C 423.625 542.40625 424.558594 545.613281 424.558594 549.578125 L 424.558594 556.171875 L 411.441406 556.171875 L 411.441406 549.578125 C 411.441406 547.480469 410.859375 545.496094 410.277344 543.453125 C 408.9375 538.789062 407.1875 532.429688 413.015625 525.605469 C 416.457031 521.578125 416.398438 512.070312 416.339844 504.488281 L 416.339844 501.046875 C 416.339844 498.886719 417.214844 496.789062 418.789062 495.214844 C 422.402344 491.65625 428.464844 491.539062 438.085938 491.597656 L 440.941406 491.597656 C 446.070312 491.597656 450.96875 490.078125 454.347656 487.511719 C 458.253906 484.480469 463.675781 483.546875 468.398438 485.0625 C 474.460938 486.988281 481.921875 485.355469 485.828125 481.15625 L 488.628906 478.121094 L 492.535156 479.347656 C 494.398438 479.929688 496.148438 480.164062 497.957031 480.164062 C 501.6875 480.164062 506.816406 475.964844 511.363281 469.136719 C 513.578125 465.871094 517.019531 463.421875 520.984375 462.3125 C 526.578125 460.738281 530.367188 456.828125 530.367188 452.511719 C 530.367188 447.378906 533.691406 440.261719 539.929688 440.261719 C 547.742188 440.261719 554.386719 435.421875 554.386719 429.703125 C 554.386719 426.789062 556.019531 424.453125 559.167969 419.847656 C 561.324219 416.753906 566.394531 409.464844 566.394531 406.839844 C 566.394531 405.320312 565.929688 403.921875 565.054688 402.519531 C 561.324219 396.746094 561.730469 389.164062 566.164062 383.269531 C 572.050781 375.394531 572.402344 372.769531 572.402344 372.539062 C 572.402344 371.429688 572.109375 370.320312 571.585938 369.214844 C 569.601562 365.011719 569.371094 360.519531 571.058594 356.496094 C 571.933594 354.339844 572.402344 352.0625 572.402344 349.730469 C 572.402344 347.570312 571.992188 345.414062 571.175781 343.371094 C 569.894531 340.105469 569.894531 336.546875 571.175781 333.28125 C 571.992188 331.238281 572.402344 329.078125 572.402344 326.921875 C 572.402344 322.253906 570.652344 317.996094 567.503906 314.789062 L 564.878906 312.164062 L 565.8125 308.546875 C 566.222656 306.855469 566.453125 305.394531 566.453125 304.113281 C 566.453125 301.195312 565.753906 298.394531 564.355469 295.828125 C 562.316406 292.097656 562.316406 287.605469 564.355469 283.871094 C 565.753906 281.304688 566.453125 278.503906 566.453125 275.589844 C 566.453125 270.921875 564.707031 266.605469 561.558594 263.453125 L 558.933594 260.828125 L 559.867188 257.214844 C 560.273438 255.464844 560.507812 254.0625 560.507812 252.78125 C 560.507812 249.746094 559.691406 246.65625 558.175781 243.972656 L 555.84375 239.945312 L 558.875 236.445312 C 559.925781 235.222656 560.507812 233.003906 560.507812 229.972656 C 560.507812 226.589844 557.242188 223.144531 552.171875 221.164062 L 549.140625 219.996094 L 548.207031 216.90625 C 546.925781 212.589844 540.511719 208.039062 531.011719 208.039062 C 522.03125 208.039062 515.621094 212.238281 513.988281 216.378906 C 512.0625 221.164062 507.75 224.605469 502.328125 225.597656 C 497.605469 226.414062 493.582031 228.511719 491.367188 231.3125 C 487.519531 236.039062 481.75 238.3125 476.269531 237.144531 C 469.332031 235.6875 461.695312 237.320312 457.207031 241.054688 C 453.359375 244.261719 447.878906 245.136719 442.515625 243.445312 C 436.570312 241.578125 429.515625 242.105469 424.269531 244.789062 C 419.664062 247.121094 414.414062 247.121094 409.867188 244.789062 C 403.457031 241.519531 394.128906 241.578125 387.890625 245.019531 C 382.761719 247.820312 376.230469 246.65625 372.265625 242.339844 C 369.117188 238.839844 363.289062 236.679688 357.050781 236.679688 C 355.59375 236.679688 353.785156 236.796875 352.039062 236.855469 C 345.859375 237.203125 343.058594 237.320312 340.554688 234.988281 L 338.511719 233.0625 L 338.453125 230.144531 C 338.453125 225.128906 331.285156 219.589844 321.023438 219.589844 C 319.972656 219.589844 317.585938 219.820312 313.210938 221.453125 C 306.273438 224.019531 298.519531 220.988281 295.546875 214.628906 C 293.742188 210.722656 289.601562 208.214844 284.996094 208.214844 C 278.699219 208.214844 273.570312 212.9375 273.570312 218.769531 C 273.570312 218.769531 273.628906 219.0625 273.6875 219.414062 L 273.976562 224.429688 L 269.199219 226.003906 C 264.882812 227.40625 260.746094 231.664062 261.734375 237.613281 C 261.851562 238.253906 262.085938 238.953125 262.375 239.714844 L 264.359375 244.03125 L 260.917969 247.238281 C 259.34375 248.695312 258.121094 250.386719 257.1875 252.253906 C 255.730469 255.230469 255.265625 258.144531 255.789062 261.121094 C 256.664062 266.3125 254.566406 271.503906 250.308594 274.597656 C 246.054688 277.6875 243.605469 282.355469 243.605469 287.3125 C 243.605469 289.355469 244.070312 291.394531 244.945312 293.4375 C 246.460938 296.820312 246.460938 300.671875 244.945312 304.054688 C 244.070312 306.039062 243.605469 308.078125 243.605469 310.179688 C 243.605469 312.570312 244.1875 314.964844 245.355469 317.121094 C 247.800781 321.730469 247.800781 327.15625 245.355469 331.761719 C 244.1875 333.980469 243.605469 336.3125 243.605469 338.703125 C 243.605469 341.214844 244.246094 343.664062 245.527344 345.9375 C 248.445312 351.128906 247.394531 357.371094 242.90625 361.394531 C 239.464844 364.488281 237.601562 368.570312 237.601562 372.945312 C 237.601562 374.988281 238.066406 376.972656 238.941406 378.953125 C 240.457031 382.394531 240.457031 386.363281 238.941406 389.746094 C 238.066406 391.730469 237.601562 393.714844 237.601562 395.753906 C 237.601562 400.714844 239.875 404.214844 241.855469 406.253906 C 246.402344 411.15625 247.570312 417.980469 244.886719 423.988281 C 244.011719 425.914062 243.605469 427.894531 243.605469 429.996094 C 243.605469 436.003906 247.160156 441.488281 252.933594 444.289062 C 259.460938 447.496094 263.132812 454.613281 261.851562 461.671875 C 261.386719 464.121094 261.617188 466.570312 262.433594 469.078125 C 264.242188 474.621094 269.3125 478.996094 275.320312 480.164062 C 280.855469 481.214844 286.511719 479.871094 290.652344 476.429688 C 294.382812 473.339844 296.539062 468.90625 296.539062 464.238281 L 296.539062 457.644531 L 303.125 457.644531 C 312.746094 457.644531 320.558594 450.355469 320.558594 441.371094 C 320.558594 436.355469 318.109375 431.746094 313.851562 428.65625 C 309.539062 425.503906 307.441406 420.371094 308.375 415.296875 C 308.488281 414.480469 308.605469 413.664062 308.605469 412.847656 C 308.605469 408.472656 306.742188 404.386719 303.359375 401.355469 C 298.988281 397.328125 297.878906 390.972656 300.738281 385.78125 C 301.960938 383.503906 302.601562 381.113281 302.601562 378.605469 C 302.601562 374.230469 300.738281 370.144531 297.355469 367.113281 C 292.984375 363.089844 291.875 356.730469 294.671875 351.597656 C 295.898438 349.320312 296.539062 346.929688 296.539062 344.421875 C 296.539062 341.15625 295.488281 338.003906 293.449219 335.261719 C 289.894531 330.480469 289.835938 324.0625 293.449219 319.339844 C 295.488281 316.65625 296.539062 313.445312 296.539062 310.179688 C 296.539062 306.914062 295.488281 303.761719 293.449219 301.019531 C 289.835938 296.238281 289.835938 289.820312 293.449219 285.097656 C 295.488281 282.414062 296.539062 279.203125 296.539062 275.9375 C 296.539062 271.738281 297.414062 264.503906 303.300781 263.339844 C 308.839844 262.347656 314.320312 264.738281 317 269.40625 C 319.625 273.953125 325.746094 276.171875 330.933594 274.421875 C 337.113281 272.320312 343.933594 274.945312 346.847656 280.546875 C 349.53125 285.679688 356.585938 287.953125 362.066406 285.386719 C 367.71875 282.761719 374.25 284.046875 378.445312 288.539062 C 382.234375 292.621094 389.230469 293.320312 393.835938 290.113281 C 398.792969 286.671875 405.261719 286.671875 410.21875 290.113281 C 414.183594 292.855469 419.835938 292.855469 423.800781 290.113281 C 428.757812 286.730469 435.34375 286.730469 440.242188 290.113281 C 444.847656 293.261719 451.785156 292.5625 455.632812 288.539062 C 459.828125 284.046875 466.417969 282.761719 472.070312 285.386719 C 476.503906 287.429688 481.632812 286.613281 486.472656 283.054688 C 487.519531 282.296875 488.804688 280.953125 490.320312 279.554688 C 495.273438 274.769531 500.871094 269.347656 507.050781 269.347656 C 508.625 269.347656 510.488281 269.289062 512.296875 269.171875 C 518.769531 268.878906 521.214844 268.820312 523.546875 271.097656 L 525.589844 273.019531 L 525.648438 275.878906 C 525.648438 278.796875 526.347656 281.539062 527.6875 284.105469 C 529.726562 287.894531 529.726562 292.445312 527.6875 296.238281 C 526.347656 298.746094 525.648438 301.546875 525.648438 304.40625 C 525.648438 307.320312 526.347656 310.0625 527.6875 312.628906 C 529.726562 316.421875 529.726562 320.972656 527.6875 324.761719 C 526.347656 327.269531 525.648438 330.070312 525.648438 332.929688 C 525.648438 337.011719 527.046875 340.863281 529.496094 343.894531 C 532.527344 347.570312 533.574219 352.296875 532.292969 356.847656 C 531.828125 358.421875 531.652344 359.9375 531.652344 361.511719 C 531.652344 364.664062 532.46875 367.753906 533.984375 370.378906 C 536.605469 374.871094 536.488281 380.414062 533.691406 384.671875 C 533.632812 385.078125 533.632812 385.546875 533.632812 385.953125 C 533.515625 388.230469 533.167969 395.113281 526.40625 396.511719 C 525.0625 396.863281 520.867188 399.253906 519.46875 401.878906 C 518.941406 402.8125 519 403.453125 519.234375 404.15625 L 521.097656 409.519531 L 515.621094 412.378906 C 504.308594 418.214844 501.6875 422.589844 501.628906 423.464844 C 501.628906 429.003906 491.71875 436.589844 486.0625 436.589844 C 482.914062 436.589844 479.882812 437.347656 477.320312 438.804688 L 474.054688 440.671875 L 470.789062 438.804688 C 465.425781 435.769531 457.789062 435.886719 452.71875 439.15625 C 447.355469 442.597656 440.707031 442.597656 435.34375 439.15625 C 429.105469 435.1875 418.964844 436.179688 414.242188 441.136719 C 409.578125 446.039062 401.941406 447.144531 396.050781 443.878906 C 394.128906 442.828125 392.144531 442.304688 390.046875 442.304688 C 382.0625 442.304688 375.589844 449.945312 375.589844 459.339844 C 375.589844 462.195312 376.230469 464.996094 377.570312 467.679688 L 379.902344 472.519531 L 375.589844 475.789062 C 368.070312 481.445312 363.582031 491.011719 363.582031 501.394531 C 363.582031 509.445312 366.261719 517.03125 371.21875 522.804688 C 377.046875 529.628906 375.007812 537.269531 373.492188 542.871094 C 372.792969 545.4375 372.207031 547.828125 372.207031 549.929688 L 372.207031 556.519531 L 359.09375 556.519531 L 359.09375 549.929688 C 359.09375 546.078125 360.023438 542.578125 360.839844 539.488281 C 362.179688 534.355469 362.414062 532.664062 361.25 531.320312 C 354.3125 523.214844 350.464844 512.539062 350.464844 501.394531 C 350.464844 488.796875 355.417969 476.894531 363.871094 468.613281 C 362.941406 465.578125 362.472656 462.488281 362.472656 459.339844 C 362.472656 442.714844 374.832031 429.179688 390.046875 429.179688 C 394.421875 429.179688 398.617188 430.289062 402.464844 432.445312 C 403.164062 432.855469 404.214844 432.679688 404.738281 432.097656 C 409.984375 426.613281 417.738281 423.464844 426.074219 423.464844 C 432.023438 423.464844 437.734375 425.097656 442.457031 428.128906 C 443.449219 428.769531 444.671875 428.769531 445.664062 428.128906 C 453.765625 422.9375 465.019531 422.0625 474.054688 425.796875 C 477.609375 424.339844 481.515625 423.519531 485.480469 423.464844 C 486.355469 423.054688 487.8125 421.828125 488.746094 420.894531 C 489.96875 414.65625 495.742188 408.589844 505.941406 402.753906 C 506.058594 400.246094 506.757812 397.679688 508.097656 395.289062 C 511.128906 389.921875 516.609375 386.421875 520.515625 384.730469 C 520.632812 382.6875 520.925781 379.886719 522.730469 377.4375 C 519.933594 372.363281 518.476562 366.996094 518.476562 361.511719 C 518.476562 358.769531 518.882812 355.972656 519.640625 353.230469 C 519.699219 353.113281 519.757812 352.761719 519.351562 352.296875 C 514.921875 346.929688 512.472656 340.046875 512.472656 332.929688 C 512.472656 327.914062 513.695312 322.894531 516.085938 318.519531 C 513.695312 314.378906 512.472656 309.421875 512.472656 304.40625 C 512.472656 299.386719 513.695312 294.371094 516.085938 289.996094 C 514.746094 287.664062 513.753906 285.039062 513.171875 282.238281 C 513.054688 282.238281 512.9375 282.238281 512.820312 282.238281 C 510.839844 282.296875 508.796875 282.414062 507.050781 282.414062 C 505.710938 282.820312 501.453125 286.964844 499.414062 288.945312 C 497.429688 290.8125 495.796875 292.445312 494.167969 293.613281 C 485.421875 299.972656 475.335938 301.3125 466.535156 297.230469 C 466.007812 296.996094 465.542969 297.054688 465.191406 297.40625 C 457.089844 306.097656 442.574219 307.554688 432.78125 300.847656 C 432.371094 300.554688 431.613281 300.554688 431.207031 300.847656 C 422.867188 306.5625 411.09375 306.5625 402.757812 300.789062 C 402.289062 300.4375 401.765625 300.4375 401.242188 300.789062 C 391.445312 307.554688 376.871094 306.039062 368.769531 297.347656 C 368.476562 296.996094 368.011719 296.9375 367.546875 297.171875 C 364.222656 298.746094 360.664062 299.503906 356.933594 299.503906 C 347.664062 299.503906 339.269531 294.546875 335.074219 286.496094 C 325.804688 290.347656 315.484375 287.195312 309.074219 280.605469 C 308.316406 284.980469 306.507812 289.121094 303.710938 292.796875 C 307.5 297.929688 309.480469 303.878906 309.480469 310.003906 C 309.480469 316.128906 307.5 322.019531 303.710938 327.039062 C 307.5 332.171875 309.480469 338.121094 309.480469 344.246094 C 309.480469 349.03125 308.316406 353.578125 305.984375 357.78125 C 312.105469 362.855469 315.484375 370.378906 315.484375 378.488281 C 315.484375 383.269531 314.320312 387.820312 311.988281 392.019531 C 318.109375 397.097656 321.492188 404.621094 321.492188 412.730469 C 321.492188 414.363281 321.316406 415.9375 321.082031 417.511719 C 329.070312 423.519531 333.5 432.039062 333.5 441.3125 C 333.5 455.605469 322.890625 467.503906 308.839844 470.1875 C 307.5 476.488281 304 482.203125 298.8125 486.464844 C 291.640625 492.414062 282.082031 494.804688 272.636719 492.9375 C 262.027344 490.894531 253.050781 483.078125 249.785156 473.046875 C 248.269531 468.4375 247.917969 463.769531 248.792969 459.164062 C 249.027344 457.9375 248.269531 456.597656 247.042969 456.011719 C 236.726562 450.996094 230.3125 440.964844 230.3125 429.878906 C 230.3125 425.972656 231.128906 422.179688 232.703125 418.5625 C 233.226562 417.339844 232.996094 416.113281 232.0625 415.121094 C 227.050781 409.753906 224.308594 402.8125 224.308594 395.636719 C 224.308594 391.730469 225.125 387.9375 226.757812 384.261719 C 225.125 380.53125 224.308594 376.679688 224.308594 372.828125 C 224.308594 364.839844 227.632812 357.371094 233.636719 351.769531 C 231.421875 347.628906 230.3125 343.195312 230.3125 338.589844 C 230.3125 333.980469 231.421875 329.605469 233.578125 325.464844 C 233.929688 324.761719 233.929688 323.828125 233.578125 323.128906 C 231.421875 318.988281 230.3125 314.613281 230.3125 310.003906 C 230.3125 306.039062 231.1875 302.1875 232.820312 298.453125 C 231.128906 294.953125 230.3125 291.105469 230.3125 287.136719 C 230.3125 277.921875 234.746094 269.40625 242.4375 263.804688 C 242.789062 263.570312 242.789062 263.394531 242.730469 263.164062 C 241.738281 257.445312 242.613281 251.730469 245.296875 246.246094 C 246.285156 244.261719 247.453125 242.394531 248.851562 240.644531 C 248.792969 240.296875 248.675781 239.945312 248.617188 239.597656 C 246.988281 229.738281 251.882812 220.171875 260.511719 215.269531 C 262.203125 203.78125 272.460938 194.855469 284.820312 194.855469 C 294.5 194.855469 303.300781 200.339844 307.265625 208.855469 C 307.324219 208.914062 307.90625 209.144531 308.488281 208.914062 C 313.269531 207.164062 317.410156 206.230469 320.847656 206.230469 C 335.132812 206.230469 346.90625 213.464844 350.347656 223.613281 C 350.582031 223.613281 350.871094 223.613281 351.105469 223.554688 C 353.085938 223.4375 355.128906 223.320312 356.816406 223.320312 C 366.789062 223.320312 376.113281 227.054688 381.769531 233.355469 C 390.980469 227.8125 405.378906 227.695312 415.582031 232.945312 C 416.398438 233.355469 417.273438 233.355469 418.089844 232.945312 C 426.367188 228.746094 436.976562 227.929688 446.1875 230.789062 C 447.355469 231.195312 448.34375 231.019531 448.578125 230.789062 C 456.15625 224.488281 467.875 221.863281 478.71875 224.195312 C 479.359375 224.3125 480.234375 223.789062 480.933594 222.972656 C 485.1875 217.664062 491.894531 213.988281 499.820312 212.589844 C 500.695312 212.414062 501.394531 212.003906 501.628906 211.480469 C 505.535156 201.5625 517.308594 194.855469 530.835938 194.855469 C 543.777344 194.855469 555.027344 200.980469 559.460938 210.078125 C 568.144531 214.394531 573.449219 221.804688 573.449219 229.972656 C 573.449219 234.40625 572.691406 238.078125 571.175781 241.230469 C 572.691406 244.90625 573.449219 248.871094 573.449219 252.839844 C 573.449219 254.179688 573.332031 255.578125 573.101562 257.039062 C 577.179688 262.289062 579.398438 268.820312 579.398438 275.703125 C 579.398438 280.664062 578.171875 285.621094 575.839844 289.996094 C 578.171875 294.371094 579.398438 299.328125 579.398438 304.289062 C 579.398438 305.6875 579.28125 307.03125 579.046875 308.488281 C 583.128906 313.738281 585.34375 320.269531 585.34375 327.15625 C 585.34375 331.003906 584.585938 334.796875 583.1875 338.414062 C 584.644531 342.378906 585.34375 346.171875 585.34375 350.019531 C 585.515625 353.871094 584.703125 357.839844 583.1875 361.570312 Z M 398.324219 557.339844 L 398.324219 497.078125 C 398.324219 473.628906 424.675781 470.714844 436.625 470.480469 L 475.21875 466.339844 L 475.976562 466.222656 C 476.734375 465.929688 556.484375 447.320312 556.484375 375.453125 C 556.484375 313.15625 549.839844 275.472656 544.300781 254.820312 C 542.378906 247.589844 537.304688 241.695312 530.425781 238.664062 C 523.664062 235.6875 516.027344 235.980469 509.5 239.363281 C 491.132812 248.988281 460.410156 260.421875 417.972656 260.421875 C 368.128906 260.421875 324.578125 244.378906 303.125 234.8125 C 297.703125 232.421875 291.523438 232.421875 286.160156 234.8125 C 280.855469 237.203125 276.835938 241.753906 275.027344 247.296875 C 264.417969 280.605469 243.839844 365.597656 280.855469 434.371094 L 283.945312 440.144531 L 295.488281 433.90625 L 292.398438 428.128906 C 257.769531 363.789062 277.476562 282.996094 287.5625 251.261719 C 288.203125 249.28125 289.601562 247.644531 291.523438 246.769531 C 293.507812 245.894531 295.78125 245.894531 297.761719 246.769531 C 320.207031 256.746094 365.679688 273.488281 417.972656 273.488281 C 463.035156 273.488281 495.914062 261.238281 515.5625 250.914062 C 518.535156 249.339844 522.03125 249.222656 525.121094 250.5625 C 528.328125 251.964844 530.660156 254.703125 531.535156 258.089844 C 536.898438 277.980469 543.253906 314.4375 543.253906 375.28125 C 543.253906 434.953125 479.183594 451.636719 473.296875 453.039062 L 435.695312 457.121094 C 411.210938 457.53125 385.09375 468.203125 385.09375 496.847656 L 385.09375 557.105469 C 377.457031 559.847656 371.976562 567.078125 371.976562 575.65625 L 371.976562 615.089844 L 385.09375 615.089844 L 385.09375 575.597656 C 385.09375 571.980469 388.066406 569.003906 391.679688 569.003906 C 395.292969 569.003906 398.265625 571.980469 398.265625 575.597656 L 398.265625 615.089844 L 411.382812 615.089844 L 411.382812 575.65625 C 411.5 567.3125 405.960938 560.019531 398.324219 557.339844 Z M 420.886719 370.554688 L 451.957031 401.644531 L 442.691406 410.921875 L 411.617188 379.828125 C 406.136719 383.445312 399.839844 385.253906 393.488281 385.253906 C 385.09375 385.253906 376.699219 382.046875 370.285156 375.628906 C 357.460938 362.796875 357.460938 341.972656 370.285156 329.136719 C 383.109375 316.363281 403.921875 316.304688 416.746094 329.136719 C 427.882812 340.453125 429.28125 357.839844 420.886719 370.554688 Z M 407.417969 338.53125 C 403.574219 334.679688 398.558594 332.753906 393.488281 332.753906 C 388.414062 332.753906 383.402344 334.679688 379.554688 338.53125 C 371.859375 346.230469 371.859375 358.714844 379.554688 366.414062 C 387.25 374.113281 399.726562 374.113281 407.417969 366.414062 C 415.058594 358.714844 415.058594 346.230469 407.417969 338.53125 Z M 407.417969 338.53125 " fill-opacity="1" fill-rule="nonzero"/></g></svg>