<svg xmlns="http://www.w3.org/2000/svg" xmlns:xlink="http://www.w3.org/1999/xlink" width="1080" zoomAndPan="magnify" viewBox="0 0 810 809.999993" height="1080" preserveAspectRatio="xMidYMid meet" version="1.0"><defs><clipPath id="8adade6951"><path d="M 208 214.238281 L 602 214.238281 L 602 595.988281 L 208 595.988281 Z M 208 214.238281 " clip-rule="nonzero"/></clipPath></defs><rect x="-81" width="972" fill="#ffffff" y="-80.999999" height="971.999992" fill-opacity="1"/><rect x="-81" width="972" fill="#ff8200" y="-80.999999" height="971.999992" fill-opacity="1"/><g clip-path="url(#8adade6951)"><path fill="#231f20" d="M 467.5625 504.609375 L 463.078125 510.386719 C 463.683594 509.226562 464.433594 508.140625 465.316406 507.164062 C 466.09375 506.316406 466.835938 505.460938 467.5625 504.609375 Z M 592.480469 563.660156 C 590.597656 575.605469 582.691406 585.214844 571.335938 589.367188 C 559.980469 593.515625 547.742188 591.265625 538.609375 583.347656 C 518.773438 566.152344 495.457031 555.335938 469.316406 551.203125 C 459.609375 549.667969 451.195312 544.402344 445.566406 536.367188 C 439.75 528.0625 437.839844 517.632812 439.992188 507.726562 L 446.585938 477.359375 C 449.511719 463.871094 449.054688 450.265625 445.296875 437.496094 L 458.820312 447.808594 C 459.503906 448.328125 459.714844 449.257812 459.324219 450.023438 C 457.824219 452.921875 455.09375 458.890625 453.671875 466.222656 L 453.652344 466.355469 L 453.652344 472.714844 C 453.652344 474.25 455.816406 474.601562 456.296875 473.136719 C 457.363281 469.910156 460.386719 461.855469 463.234375 457.855469 C 463.683594 459.617188 464.113281 462.246094 463.699219 464.957031 C 463.5 466.246094 465.058594 467.046875 465.992188 466.136719 C 466.160156 465.96875 470.023438 462.101562 469.449219 455.53125 C 469.238281 453.132812 470.597656 449.769531 473.292969 446.054688 C 475.25 443.359375 476.453125 440.21875 476.78125 436.972656 L 477.261719 432.070312 C 479.429688 435.636719 482.71875 442.246094 483.949219 451.027344 C 486.445312 468.882812 479.304688 487.660156 463.304688 505.34375 C 460.84375 508.0625 459.28125 511.457031 458.777344 515.164062 L 457.933594 521.457031 L 467.214844 509.488281 C 465.847656 516.746094 464.441406 529.078125 468.199219 538.355469 L 470.75 544.675781 L 470.8125 537.859375 C 470.824219 536.019531 471.078125 531.398438 471.96875 528.320312 C 474.195312 530.730469 478.378906 535.609375 479.871094 539.675781 L 481.816406 544.984375 L 482.496094 539.367188 C 482.539062 539.027344 483.320312 531.953125 480.164062 520.835938 L 499.074219 540.832031 L 484.109375 508.890625 L 484.058594 508.796875 C 484.015625 508.71875 479.648438 500.75 487.84375 491.019531 C 495.1875 482.292969 500.640625 464.066406 502.125 455.917969 C 504.191406 458.941406 506.886719 464.054688 504.925781 468.035156 C 501.921875 474.15625 494.613281 486.339844 493.179688 488.722656 C 492.816406 489.328125 492.933594 490.097656 493.457031 490.574219 C 493.980469 491.042969 494.765625 491.074219 495.328125 490.652344 L 499.046875 487.835938 L 492.351562 505.703125 C 492.078125 506.421875 492.402344 507.214844 493.097656 507.542969 C 493.796875 507.875 494.613281 507.617188 495 506.949219 L 500.609375 497.160156 C 499.929688 502.351562 499.578125 508.980469 501.222656 513.355469 C 501.464844 513.96875 502.082031 514.355469 502.738281 514.296875 C 503.390625 514.234375 503.9375 513.734375 504.046875 513.082031 L 507.941406 490.894531 C 508.167969 489.613281 508.480469 488.328125 508.863281 487.082031 L 514.507812 469.105469 C 515.804688 471.46875 517.660156 475.363281 518.890625 480.238281 C 521.503906 490.625 520.234375 500.492188 515.113281 509.597656 C 514.746094 510.246094 514.9375 511.078125 515.542969 511.515625 C 516.167969 511.964844 517.035156 511.867188 517.535156 511.28125 L 525.03125 502.578125 C 524.328125 512.199219 521.886719 535.636719 514.40625 547.140625 C 513.75 548.144531 514.609375 549.433594 515.789062 549.222656 C 516.3125 549.121094 520.476562 548.066406 525.304688 538.402344 C 525.433594 546.003906 525.988281 558.410156 528.046875 565.117188 C 528.21875 565.683594 528.746094 566.078125 529.34375 566.078125 L 530.289062 566.078125 C 531.03125 566.078125 531.644531 565.472656 531.644531 564.722656 L 531.957031 509.582031 C 535.921875 516.882812 542.464844 532.945312 542.464844 559.4375 C 542.464844 561 544.671875 561.324219 545.125 559.824219 L 547.648438 551.414062 C 550.292969 556.492188 554.164062 564.78125 554.238281 568.746094 C 554.238281 568.84375 554.238281 568.949219 554.238281 569.042969 C 554.179688 570.492188 554.15625 571.222656 555.035156 571.628906 L 555.867188 572 L 556.53125 571.378906 C 556.917969 571.023438 557.074219 570.878906 557.085938 567.957031 C 557.089844 566.601562 557.046875 564.410156 556.800781 561.621094 C 556.382812 556.914062 555.328125 549.808594 552.644531 542.65625 C 551.886719 540.644531 551.101562 538.625 550.335938 536.671875 C 548.792969 532.742188 546.789062 527.621094 546.253906 525.164062 C 547.742188 526.398438 551.050781 529.769531 558.308594 538.84375 C 559.273438 540.058594 561.191406 538.960938 560.636719 537.511719 L 558.648438 532.324219 C 562.0625 533.964844 567.640625 535.9375 573.359375 534.960938 C 574.765625 534.722656 574.894531 532.746094 573.535156 532.324219 C 573.273438 532.242188 547.6875 524.035156 535.117188 496.835938 L 521.894531 465.480469 L 540.5 474.214844 C 542.621094 475.210938 544.175781 477.171875 544.671875 479.464844 L 545.117188 481.5 C 545.539062 483.464844 545.167969 485.511719 544.074219 487.195312 L 541.71875 490.859375 C 541.28125 491.535156 541.316406 492.445312 541.878906 493.019531 C 542.496094 493.671875 543.476562 493.722656 544.164062 493.175781 L 549.273438 489.066406 L 551.902344 494.078125 C 552.289062 494.820312 553.152344 495.230469 553.953125 494.964844 C 554.828125 494.6875 555.300781 493.816406 555.082031 492.941406 C 554.449219 490.378906 553.605469 486.503906 553.042969 482.085938 C 556.582031 486.011719 563.207031 494.035156 565.84375 501.617188 C 566.101562 502.375 566.835938 502.910156 567.628906 502.816406 C 568.511719 502.710938 569.136719 501.96875 569.109375 501.089844 C 568.914062 496.207031 566.511719 483.277344 548.535156 468.78125 L 563.804688 462.546875 C 564.675781 462.1875 565.121094 461.261719 564.859375 460.351562 C 564.589844 459.441406 563.722656 458.902344 562.78125 459.070312 L 555.992188 460.308594 C 555.722656 460.359375 555.554688 460.207031 555.484375 460.113281 C 555.410156 460.015625 555.308594 459.820312 555.421875 459.574219 L 558.515625 452.960938 C 558.933594 452.085938 558.605469 451.074219 557.753906 450.59375 C 556.980469 450.164062 555.996094 450.394531 555.4375 451.074219 C 551.964844 455.265625 546.320312 460.375 539.039062 461.023438 C 533.621094 461.511719 528.074219 459.382812 522.558594 454.714844 L 502.917969 435.914062 C 508.886719 437.320312 519.601562 439.238281 533.316406 439.082031 C 533.449219 439.082031 533.582031 439.082031 533.710938 439.082031 C 551.523438 439.082031 572.394531 452.050781 577.363281 455.3125 C 577.988281 455.726562 578.832031 455.597656 579.308594 455.003906 C 579.792969 454.40625 579.738281 453.535156 579.183594 453.011719 L 569.808594 444.140625 C 573.839844 443.628906 580.792969 442.164062 584.652344 437.96875 L 587.269531 435.121094 L 583.449219 435.703125 C 583.214844 435.742188 560.285156 439.148438 549.613281 432.441406 C 549.542969 432.382812 549.445312 432.308594 549.324219 432.222656 C 549.296875 432.207031 549.230469 432.15625 549.246094 432.03125 C 549.257812 431.90625 549.347656 431.878906 549.375 431.863281 C 559.363281 428.289062 575.957031 420.925781 574.933594 411.761719 L 574.84375 410.984375 C 574.773438 410.347656 574.058594 410.007812 573.519531 410.347656 L 569.347656 412.976562 L 564.367188 411.414062 C 563.839844 411.238281 559.988281 410.289062 553.714844 415.214844 C 556.683594 410.589844 561.179688 404.5 567.566406 398.121094 L 568.015625 397.878906 C 568.652344 397.550781 568.636719 396.640625 567.996094 396.328125 L 567.070312 395.882812 C 566.691406 395.746094 564.011719 394.925781 560.050781 398.089844 C 561.734375 392.410156 563.367188 384.117188 560.773438 378.722656 L 560.191406 377.324219 C 559.863281 376.53125 558.707031 376.648438 558.539062 377.484375 L 558.199219 379.1875 C 558.183594 379.363281 556.542969 396.496094 541.339844 419.425781 C 536.5625 426.625 529.554688 430.136719 520.496094 429.871094 C 505.84375 429.441406 490.492188 419.117188 485.683594 411.792969 C 487.523438 408.863281 495.28125 397.421875 504.820312 396.152344 C 509.292969 395.554688 513.648438 397.339844 517.714844 401.410156 L 527.695312 412.003906 C 528.269531 412.605469 529.285156 412.140625 529.195312 411.3125 L 529.058594 410.074219 C 529.066406 409.691406 529.109375 401.796875 521.574219 395.445312 C 523.902344 395.328125 526.992188 395.140625 530.121094 394.855469 C 541.878906 393.777344 544.285156 392.308594 545.097656 391 L 545.242188 390.878906 C 545.808594 390.390625 545.53125 389.457031 544.78125 389.355469 L 534.351562 388.023438 C 540.734375 384.636719 552.027344 377.664062 553.421875 370.15625 L 553.761719 369.230469 C 554.03125 368.488281 553.253906 367.796875 552.546875 368.160156 L 551.261719 368.832031 C 551.195312 368.882812 546.945312 372.144531 542.734375 374.480469 C 545.191406 370.824219 547.742188 365.835938 545.871094 362.945312 L 545.726562 362.660156 C 545.503906 362.199219 544.929688 362.046875 544.492188 362.316406 L 543.660156 362.851562 C 543.550781 362.980469 532.820312 376.667969 523.394531 382.808594 C 517.324219 386.769531 510.191406 386.8125 506.40625 386.472656 C 505.738281 386.414062 505.101562 386.101562 504.710938 385.5625 C 504.347656 385.058594 504.207031 384.441406 504.316406 383.820312 C 505.386719 378.042969 508.726562 364.117188 516.65625 359.660156 C 527.011719 353.839844 540.328125 359.441406 540.457031 359.492188 L 541.90625 360.210938 C 542.683594 360.597656 543.488281 359.726562 543.035156 358.984375 L 542.183594 357.59375 C 542.050781 357.34375 539.234375 352.46875 530.371094 352.050781 C 534.488281 349.003906 540.3125 343.628906 541.542969 336.871094 L 541.652344 336.578125 C 541.953125 335.78125 541.054688 335.078125 540.355469 335.550781 L 523.46875 346.992188 C 524.058594 337.589844 525.476562 324.441406 527.382812 322.082031 C 527.96875 321.847656 528.121094 321.097656 527.683594 320.664062 L 527.289062 320.265625 C 526.875 319.859375 526.035156 319.480469 525.019531 319.773438 C 523.707031 320.144531 519.71875 321.28125 513.660156 347.007812 C 513.410156 348.085938 512.980469 349.105469 512.386719 350.039062 L 511.328125 351.703125 C 511.042969 346.773438 511.203125 339.765625 513.511719 336.871094 L 514.886719 335.492188 C 515.542969 334.835938 514.863281 333.75 513.992188 334.054688 L 511.875 334.792969 C 511.589844 334.921875 504.949219 338.214844 505.769531 354.808594 C 505.84375 356.355469 505.453125 357.824219 504.621094 359.085938 L 503.921875 360.15625 L 492.371094 340.152344 C 500.875 325.914062 507.902344 310.648438 504.054688 303.808594 L 502.214844 300.535156 L 501.535156 304.222656 C 501.515625 304.332031 499.605469 314.476562 495.546875 318.527344 C 495.433594 318.636719 495.328125 318.628906 495.246094 318.609375 C 495.09375 318.570312 495.066406 318.445312 495.058594 318.414062 C 494.167969 314.851562 492.253906 306.050781 493.542969 301.199219 C 493.914062 299.800781 492.132812 298.859375 491.199219 299.96875 C 490.960938 300.25 485.390625 307.039062 486.8125 324.457031 C 487.007812 326.898438 486.332031 329.367188 484.902344 331.421875 L 480.460938 337.792969 C 482.558594 323.699219 484.175781 307.246094 481.042969 303.589844 C 480.339844 302.765625 479.003906 303.054688 478.707031 304.09375 L 475.882812 313.902344 L 472.179688 305.699219 C 471.660156 304.550781 471.609375 303.265625 472.035156 302.101562 C 473.144531 299.027344 474.554688 293.101562 471.449219 287.917969 C 470.730469 286.726562 468.890625 287.257812 468.925781 288.65625 C 468.925781 288.695312 469.003906 292.507812 467.980469 295.605469 C 466.277344 291.875 463.027344 285.859375 458.375 281.917969 C 457.226562 280.949219 455.589844 282.28125 456.304688 283.601562 C 456.492188 283.957031 475.367188 319.523438 470.300781 348.390625 L 470.292969 348.472656 C 470.050781 350.597656 469.046875 353.6875 467.789062 353.949219 C 467.394531 354.035156 465.199219 354.050781 460.691406 346.25 C 459.652344 344.433594 459.417969 342.257812 460.074219 340.277344 L 463.902344 328.652344 C 464.1875 327.785156 463.742188 326.855469 462.882812 326.523438 C 462.082031 326.21875 461.179688 326.621094 460.75 327.363281 C 459.714844 329.175781 458.867188 330.628906 458.167969 331.785156 C 459.847656 323.605469 461.515625 309.953125 452.269531 305.941406 L 445.71875 303.097656 L 450.769531 308.148438 C 450.796875 308.183594 453.683594 311.121094 453.195312 315.140625 C 452.066406 311.824219 449.867188 307.179688 445.71875 303.261719 L 445.71875 303.253906 C 444.644531 302.234375 442.9375 303.441406 443.550781 304.804688 C 444.683594 307.320312 445.800781 311.628906 444.570312 312.914062 C 443.796875 313.710938 441.699219 313.511719 438.8125 312.34375 C 437.753906 311.921875 436.679688 312.898438 437 313.992188 C 437.066406 314.207031 438.664062 319.386719 446.425781 323.363281 C 448.46875 324.421875 449.738281 326.605469 449.640625 328.953125 C 449.375 335.90625 450.371094 349.453125 460.101562 362.011719 C 461.847656 364.269531 462.816406 367.144531 462.816406 370.105469 L 462.816406 378.832031 C 462.910156 380.292969 462.613281 383.222656 461.464844 383.675781 C 461.027344 383.851562 458.492188 384.28125 451.300781 375.609375 L 451.144531 375.441406 C 451.070312 375.386719 443.644531 368.925781 435.890625 357.246094 C 434.238281 354.761719 432.5 351.910156 430.765625 348.734375 L 430.257812 345.417969 L 430.257812 286.640625 C 430.257812 276.578125 435.375 267.4375 443.957031 262.179688 C 452.488281 256.949219 462.890625 256.542969 471.785156 261.078125 C 497.398438 274.144531 533.988281 300.652344 562.84375 352.667969 C 607.0625 432.386719 598.304688 526.78125 592.480469 563.660156 Z M 442.042969 428.507812 C 441.945312 428.289062 441.851562 428.0625 441.75 427.84375 C 436.847656 416.78125 433.855469 405.082031 432.847656 393.074219 L 432.324219 386.71875 C 438.882812 393.609375 446.6875 401.035156 455.855469 408.617188 C 459.476562 411.601562 462.199219 415.554688 463.742188 420.039062 C 465.570312 425.371094 467.34375 432.847656 465.417969 438.195312 C 465.351562 438.378906 465.199219 438.441406 465.109375 438.457031 C 465.023438 438.480469 464.855469 438.496094 464.703125 438.347656 L 461.652344 435.457031 C 459.957031 433.855469 458.035156 432.609375 455.929688 431.761719 C 454.941406 431.363281 454.007812 430.902344 453.160156 430.394531 C 451.839844 429.589844 450.429688 431.277344 451.433594 432.449219 L 458.007812 440.046875 L 445.027344 436.613281 C 444.183594 433.867188 443.191406 431.164062 442.042969 428.507812 Z M 556.640625 421 C 558.320312 417.710938 560.910156 414.0625 563.792969 414.0625 C 563.832031 414.0625 563.875 414.0625 563.917969 414.0625 L 567.429688 414.195312 Z M 494.871094 364.242188 C 496.054688 367.0625 496.28125 370.175781 495.523438 373.019531 L 490.921875 390.140625 C 490.25 392.640625 488.878906 394.875 486.949219 396.601562 L 481.328125 401.644531 C 480.0625 402.773438 478.160156 402.773438 476.902344 401.636719 L 474.726562 399.671875 C 473.960938 398.980469 473.5625 397.953125 473.648438 396.925781 L 476.050781 369.792969 C 476.394531 365.972656 477.730469 362.304688 479.925781 359.183594 C 483.417969 354.210938 487.558594 348.078125 491.460938 341.652344 L 491.328125 343.308594 C 491.300781 343.738281 490.542969 353.925781 494.871094 364.242188 Z M 377.203125 393.074219 C 376.203125 405.082031 373.207031 416.78125 368.300781 427.84375 C 368.203125 428.0625 368.105469 428.289062 368.007812 428.507812 C 366.863281 431.164062 365.867188 433.867188 365.027344 436.613281 L 352.046875 440.046875 L 358.621094 432.449219 C 359.628906 431.277344 358.214844 429.589844 356.894531 430.394531 C 356.039062 430.902344 355.109375 431.363281 354.128906 431.761719 C 352.023438 432.609375 350.09375 433.855469 348.402344 435.457031 L 345.355469 438.347656 C 345.203125 438.496094 345.03125 438.480469 344.941406 438.457031 C 344.859375 438.441406 344.707031 438.378906 344.636719 438.195312 C 342.707031 432.847656 344.480469 425.371094 346.3125 420.039062 C 347.855469 415.554688 350.578125 411.601562 354.199219 408.617188 C 363.371094 401.035156 371.171875 393.609375 377.734375 386.71875 Z M 342.496094 504.609375 C 343.21875 505.460938 343.964844 506.316406 344.742188 507.164062 C 345.625 508.140625 346.375 509.226562 346.972656 510.386719 Z M 370.066406 507.726562 C 372.214844 517.632812 370.308594 528.0625 364.492188 536.367188 C 358.863281 544.402344 350.445312 549.667969 340.734375 551.203125 C 314.59375 555.335938 291.28125 566.152344 271.445312 583.347656 C 262.3125 591.265625 250.078125 593.515625 238.71875 589.367188 C 227.359375 585.214844 219.453125 575.605469 217.570312 563.660156 C 211.75 526.78125 202.992188 432.386719 247.214844 352.667969 C 276.070312 300.652344 312.65625 274.144531 338.269531 261.078125 C 347.164062 256.542969 357.566406 256.949219 366.101562 262.179688 C 374.679688 267.4375 379.800781 276.578125 379.800781 286.640625 L 379.800781 345.417969 L 379.285156 348.734375 C 377.558594 351.910156 375.8125 354.761719 374.164062 357.246094 C 366.40625 368.925781 358.988281 375.386719 358.914062 375.441406 L 358.753906 375.609375 C 351.558594 384.28125 349.027344 383.851562 348.589844 383.675781 C 347.441406 383.222656 347.144531 380.292969 347.238281 378.832031 L 347.242188 378.742188 L 347.242188 370.105469 C 347.242188 367.144531 348.203125 364.269531 349.957031 362.011719 C 359.683594 349.453125 360.679688 335.90625 360.414062 328.953125 C 360.324219 326.605469 361.585938 324.421875 363.632812 323.363281 C 371.390625 319.386719 372.992188 314.207031 373.054688 313.992188 C 373.378906 312.898438 372.300781 311.921875 371.246094 312.34375 C 368.355469 313.511719 366.253906 313.710938 365.488281 312.914062 C 364.257812 311.628906 365.371094 307.320312 366.503906 304.804688 C 367.117188 303.441406 365.414062 302.234375 364.335938 303.253906 L 364.335938 303.261719 C 360.1875 307.179688 357.996094 311.824219 356.867188 315.140625 C 356.375 311.121094 359.253906 308.183594 359.289062 308.148438 L 364.335938 303.097656 L 357.785156 305.941406 C 348.535156 309.953125 350.207031 323.605469 351.890625 331.785156 C 351.191406 330.628906 350.335938 329.175781 349.300781 327.363281 C 348.878906 326.621094 347.972656 326.21875 347.171875 326.523438 C 346.308594 326.855469 345.871094 327.785156 346.15625 328.652344 L 349.984375 340.277344 C 350.636719 342.257812 350.40625 344.433594 349.359375 346.25 C 344.859375 354.050781 342.65625 354.035156 342.261719 353.949219 C 341.003906 353.6875 340.003906 350.597656 339.765625 348.472656 L 339.75 348.390625 C 334.6875 319.523438 353.5625 283.957031 353.753906 283.601562 C 354.460938 282.28125 352.824219 280.949219 351.683594 281.917969 C 347.027344 285.859375 343.78125 291.875 342.078125 295.605469 C 341.046875 292.507812 341.128906 288.695312 341.128906 288.65625 C 341.164062 287.257812 339.324219 286.726562 338.609375 287.917969 C 335.503906 293.101562 336.90625 299.027344 338.023438 302.101562 C 338.445312 303.265625 338.394531 304.550781 337.875 305.699219 L 334.171875 313.902344 L 331.34375 304.09375 C 331.046875 303.054688 329.714844 302.765625 329.011719 303.589844 C 325.878906 307.246094 327.496094 323.699219 329.589844 337.792969 L 325.148438 331.421875 C 323.722656 329.367188 323.046875 326.898438 323.246094 324.457031 C 324.667969 307.039062 319.097656 300.25 318.855469 299.96875 C 317.921875 298.859375 316.136719 299.800781 316.511719 301.199219 C 317.800781 306.050781 315.882812 314.851562 315 318.414062 C 314.988281 318.445312 314.957031 318.570312 314.808594 318.609375 C 314.730469 318.628906 314.621094 318.636719 314.511719 318.527344 C 310.445312 314.476562 308.539062 304.332031 308.519531 304.222656 L 307.84375 300.535156 L 306.003906 303.808594 C 302.152344 310.648438 309.179688 325.914062 317.6875 340.152344 L 306.132812 360.15625 L 305.429688 359.085938 C 304.601562 357.824219 304.207031 356.355469 304.285156 354.808594 C 305.105469 338.214844 298.464844 334.921875 298.183594 334.792969 L 296.0625 334.054688 C 295.195312 333.75 294.515625 334.835938 295.167969 335.492188 L 296.542969 336.871094 C 298.851562 339.765625 299.011719 346.773438 298.730469 351.703125 L 297.664062 350.039062 C 297.074219 349.105469 296.644531 348.085938 296.390625 347.007812 C 290.335938 321.28125 286.347656 320.144531 285.035156 319.773438 C 284.015625 319.480469 283.175781 319.859375 282.769531 320.265625 L 282.375 320.664062 C 281.933594 321.097656 282.089844 321.847656 282.671875 322.082031 C 284.578125 324.441406 285.996094 337.589844 286.585938 346.992188 L 269.703125 335.550781 C 269.003906 335.078125 268.105469 335.78125 268.40625 336.578125 L 268.515625 336.871094 C 269.742188 343.628906 275.5625 349.003906 279.6875 352.050781 C 270.824219 352.46875 268.003906 357.34375 267.871094 357.59375 L 267.023438 358.984375 C 266.570312 359.726562 267.371094 360.597656 268.148438 360.210938 L 269.59375 359.492188 C 269.726562 359.441406 283.039062 353.839844 293.398438 359.660156 C 301.328125 364.117188 304.667969 378.042969 305.734375 383.820312 C 305.847656 384.441406 305.710938 385.058594 305.34375 385.5625 C 304.953125 386.101562 304.320312 386.414062 303.648438 386.472656 C 299.863281 386.8125 292.730469 386.769531 286.65625 382.808594 C 277.230469 376.667969 266.5 362.980469 266.394531 362.851562 L 265.5625 362.316406 C 265.128906 362.046875 264.554688 362.199219 264.324219 362.660156 L 264.183594 362.945312 C 262.3125 365.835938 264.863281 370.824219 267.320312 374.480469 C 263.113281 372.144531 258.855469 368.882812 258.796875 368.832031 L 257.507812 368.160156 C 256.804688 367.796875 256.019531 368.488281 256.296875 369.230469 L 256.632812 370.15625 C 258.03125 377.664062 269.320312 384.636719 275.707031 388.023438 L 265.273438 389.355469 C 264.523438 389.457031 264.246094 390.390625 264.8125 390.878906 L 264.960938 391 C 265.765625 392.308594 268.179688 393.777344 279.9375 394.855469 C 283.066406 395.140625 286.15625 395.328125 288.476562 395.445312 C 280.945312 401.796875 280.988281 409.691406 280.992188 410.074219 L 280.863281 411.3125 C 280.773438 412.140625 281.785156 412.605469 282.355469 412.003906 L 292.335938 401.410156 C 296.40625 397.339844 300.761719 395.554688 305.234375 396.152344 C 314.769531 397.421875 322.53125 408.863281 324.375 411.792969 C 319.5625 419.117188 304.210938 429.441406 289.558594 429.871094 C 280.5 430.136719 273.488281 426.625 268.71875 419.425781 C 253.511719 396.496094 251.871094 379.363281 251.855469 379.1875 L 251.511719 377.484375 C 251.347656 376.648438 250.195312 376.53125 249.863281 377.324219 L 249.277344 378.722656 C 246.691406 384.117188 248.316406 392.410156 250 398.089844 C 246.042969 394.925781 243.363281 395.746094 242.980469 395.882812 L 242.0625 396.328125 C 241.421875 396.640625 241.40625 397.550781 242.035156 397.878906 L 242.492188 398.121094 C 248.871094 404.5 253.371094 410.589844 256.339844 415.214844 C 250.066406 410.289062 246.21875 411.238281 245.683594 411.414062 L 240.703125 412.976562 L 236.535156 410.347656 C 235.992188 410.007812 235.28125 410.347656 235.210938 410.984375 L 235.125 411.761719 C 234.097656 420.925781 250.695312 428.289062 260.675781 431.863281 C 260.707031 431.878906 260.796875 431.90625 260.8125 432.03125 C 260.828125 432.15625 260.757812 432.207031 260.730469 432.222656 C 260.609375 432.308594 260.511719 432.382812 260.441406 432.441406 C 249.769531 439.148438 226.839844 435.742188 226.605469 435.703125 L 222.785156 435.121094 L 225.402344 437.96875 C 229.261719 442.164062 236.21875 443.628906 240.242188 444.140625 L 230.875 453.011719 C 230.316406 453.535156 230.257812 454.40625 230.746094 455.003906 C 231.222656 455.597656 232.0625 455.726562 232.695312 455.3125 C 237.664062 452.050781 258.53125 439.082031 276.34375 439.082031 C 276.476562 439.082031 276.605469 439.082031 276.738281 439.082031 C 290.453125 439.238281 301.164062 437.320312 307.140625 435.914062 L 287.496094 454.714844 C 281.972656 459.382812 276.433594 461.511719 271.019531 461.023438 C 263.738281 460.375 258.089844 455.265625 254.617188 451.074219 C 254.054688 450.394531 253.074219 450.164062 252.304688 450.59375 C 251.449219 451.074219 251.125 452.085938 251.535156 452.960938 L 254.628906 459.574219 C 254.75 459.820312 254.644531 460.015625 254.570312 460.113281 C 254.5 460.207031 254.332031 460.359375 254.0625 460.308594 L 247.265625 459.070312 C 246.332031 458.902344 245.464844 459.441406 245.199219 460.351562 C 244.933594 461.261719 245.378906 462.1875 246.257812 462.546875 L 261.519531 468.78125 C 243.542969 483.277344 241.144531 496.207031 240.949219 501.089844 C 240.914062 501.96875 241.539062 502.710938 242.417969 502.816406 C 243.222656 502.910156 243.953125 502.375 244.214844 501.617188 C 246.847656 494.035156 253.476562 486.011719 257.007812 482.085938 C 256.453125 486.503906 255.605469 490.378906 254.96875 492.941406 C 254.75 493.816406 255.230469 494.6875 256.101562 494.964844 C 256.902344 495.230469 257.765625 494.820312 258.15625 494.078125 L 260.78125 489.066406 L 265.890625 493.175781 C 266.574219 493.722656 267.5625 493.671875 268.179688 493.019531 C 268.738281 492.445312 268.773438 491.535156 268.335938 490.859375 L 265.976562 487.195312 C 264.890625 485.511719 264.519531 483.464844 264.941406 481.5 L 265.378906 479.464844 C 265.875 477.171875 267.4375 475.210938 269.554688 474.214844 L 288.15625 465.480469 L 274.941406 496.835938 C 262.367188 524.035156 236.78125 532.242188 236.523438 532.324219 C 235.160156 532.746094 235.289062 534.722656 236.695312 534.960938 C 242.417969 535.9375 247.992188 533.964844 251.40625 532.324219 L 249.421875 537.511719 C 248.867188 538.960938 250.78125 540.058594 251.75 538.84375 C 259.007812 529.769531 262.308594 526.398438 263.804688 525.164062 C 263.257812 527.621094 261.261719 532.742188 259.722656 536.671875 C 258.960938 538.625 258.167969 540.644531 257.414062 542.65625 C 254.726562 549.808594 253.667969 556.914062 253.253906 561.621094 C 253.007812 564.410156 252.964844 566.601562 252.96875 567.957031 C 252.980469 570.878906 253.140625 571.023438 253.523438 571.378906 L 254.1875 572 L 255.019531 571.628906 C 255.898438 571.222656 255.875 570.492188 255.816406 569.042969 C 255.816406 568.949219 255.816406 568.84375 255.816406 568.746094 C 255.890625 564.78125 259.765625 556.492188 262.398438 551.414062 L 264.929688 559.824219 C 265.378906 561.324219 267.585938 561 267.585938 559.4375 C 267.585938 532.945312 274.128906 516.882812 278.097656 509.582031 L 278.410156 564.722656 C 278.414062 565.472656 279.019531 566.078125 279.769531 566.078125 L 280.710938 566.078125 C 281.304688 566.078125 281.835938 565.683594 282.007812 565.117188 C 284.074219 558.410156 284.617188 546.003906 284.753906 538.402344 C 289.574219 548.066406 293.738281 549.121094 294.269531 549.222656 C 295.441406 549.433594 296.304688 548.144531 295.652344 547.140625 C 288.164062 535.636719 285.726562 512.199219 285.027344 502.578125 L 292.519531 511.28125 C 293.023438 511.867188 293.886719 511.964844 294.515625 511.515625 C 295.121094 511.078125 295.308594 510.246094 294.945312 509.597656 C 289.820312 500.492188 288.546875 490.625 291.167969 480.238281 C 292.394531 475.363281 294.25 471.46875 295.550781 469.105469 L 301.1875 487.082031 C 301.578125 488.328125 301.886719 489.613281 302.113281 490.894531 L 306.007812 513.082031 C 306.121094 513.734375 306.660156 514.234375 307.316406 514.296875 C 307.96875 514.355469 308.59375 513.96875 308.832031 513.355469 C 310.480469 508.980469 310.128906 502.351562 309.445312 497.160156 L 315.050781 506.949219 C 315.4375 507.617188 316.257812 507.875 316.953125 507.542969 C 317.652344 507.214844 317.976562 506.421875 317.707031 505.703125 L 311.007812 487.835938 L 314.726562 490.652344 C 315.289062 491.074219 316.074219 491.042969 316.597656 490.574219 C 317.121094 490.097656 317.238281 489.328125 316.875 488.722656 C 315.441406 486.339844 308.132812 474.15625 305.125 468.035156 C 303.167969 464.054688 305.863281 458.941406 307.925781 455.917969 C 309.414062 464.066406 314.863281 482.292969 322.214844 491.019531 C 330.410156 500.75 326.039062 508.71875 325.996094 508.796875 L 325.945312 508.890625 L 310.976562 540.832031 L 329.886719 520.835938 C 326.734375 531.953125 327.519531 539.027344 327.5625 539.367188 L 328.238281 544.984375 L 330.183594 539.675781 C 331.675781 535.609375 335.859375 530.730469 338.085938 528.320312 C 338.976562 531.398438 339.226562 536.019531 339.246094 537.859375 L 339.304688 544.675781 L 341.859375 538.355469 C 345.613281 529.078125 344.210938 516.746094 342.839844 509.488281 L 352.125 521.457031 L 351.277344 515.164062 C 350.777344 511.457031 349.214844 508.0625 346.75 505.34375 C 330.746094 487.660156 323.605469 468.882812 326.109375 451.027344 C 327.335938 442.246094 330.625 435.636719 332.792969 432.070312 L 333.277344 436.972656 C 333.601562 440.21875 334.804688 443.359375 336.761719 446.054688 C 339.453125 449.769531 340.820312 453.132812 340.605469 455.53125 C 340.03125 462.101562 343.898438 465.96875 344.0625 466.136719 C 344.996094 467.046875 346.554688 466.246094 346.355469 464.957031 C 345.941406 462.246094 346.375 459.617188 346.824219 457.855469 C 349.671875 461.855469 352.695312 469.910156 353.757812 473.136719 C 354.242188 474.601562 356.40625 474.25 356.40625 472.714844 L 356.40625 466.355469 L 356.378906 466.222656 C 354.960938 458.890625 352.230469 452.921875 350.730469 450.023438 C 350.335938 449.257812 350.554688 448.328125 351.234375 447.808594 L 364.761719 437.496094 C 361.003906 450.265625 360.542969 463.871094 363.472656 477.359375 Z M 330.132812 359.183594 C 332.324219 362.304688 333.664062 365.972656 334 369.792969 L 336.402344 396.925781 C 336.496094 397.953125 336.09375 398.980469 335.328125 399.671875 L 333.152344 401.636719 C 331.894531 402.773438 329.988281 402.773438 328.726562 401.644531 L 323.105469 396.601562 C 321.179688 394.875 319.808594 392.640625 319.136719 390.140625 L 314.535156 373.019531 C 313.773438 370.175781 314.003906 367.0625 315.1875 364.242188 C 319.507812 353.925781 318.757812 343.738281 318.722656 343.308594 L 318.59375 341.652344 C 322.492188 348.078125 326.632812 354.210938 330.132812 359.183594 Z M 242.625 414.195312 L 246.136719 414.0625 C 246.179688 414.0625 246.222656 414.0625 246.265625 414.0625 C 249.144531 414.0625 251.730469 417.710938 253.414062 421 Z M 599.722656 459.195312 C 595.234375 418.347656 584.152344 381.765625 566.800781 350.46875 C 553.769531 326.976562 538.070312 306.558594 520.148438 289.785156 C 505.953125 276.492188 490.375 265.480469 473.84375 257.046875 C 463.539062 251.785156 451.476562 252.257812 441.589844 258.320312 C 431.664062 264.410156 425.730469 274.992188 425.730469 286.640625 L 425.730469 335.070312 C 423.019531 328.292969 419.898438 318.382812 419.089844 307.105469 L 419.089844 216.714844 C 419.089844 215.527344 418.222656 214.46875 417.050781 214.359375 C 415.699219 214.230469 414.566406 215.292969 414.566406 216.621094 L 414.566406 307.265625 L 414.570312 307.347656 C 413.777344 330.511719 431.503906 355.398438 431.910156 356.089844 L 431.910156 356.082031 C 432.507812 357.035156 433.105469 357.957031 433.6875 358.828125 C 441.269531 370.234375 448.367188 376.632812 449.285156 377.425781 C 455.261719 384.613281 459.453125 387.40625 462.46875 386.199219 C 465.757812 384.890625 465.574219 379.515625 465.535156 378.699219 L 465.535156 370.105469 C 465.535156 366.550781 464.363281 363.082031 462.242188 360.34375 C 453.042969 348.464844 452.105469 335.644531 452.355469 329.058594 C 452.488281 325.660156 450.648438 322.484375 447.664062 320.953125 C 444.414062 319.285156 442.421875 317.414062 441.226562 315.929688 C 443.617188 316.386719 445.363281 316.007812 446.535156 314.789062 C 447.667969 313.59375 447.925781 311.820312 447.769531 310.019531 C 449.707031 313.085938 450.714844 316.066406 451.199219 317.953125 C 451.390625 318.660156 451.914062 319.261719 452.617188 319.46875 C 453.671875 319.773438 454.746094 319.234375 455.144531 318.265625 C 455.707031 316.910156 455.945312 315.621094 455.972656 314.425781 C 457.910156 321.113281 455.617188 330.910156 454.679688 334.902344 C 454.082031 337.449219 453.957031 337.980469 454.730469 338.59375 C 455.0625 338.855469 455.511719 338.964844 455.929688 338.886719 C 456.402344 338.789062 456.882812 338.695312 458.53125 336.277344 L 457.496094 339.433594 C 456.601562 342.152344 456.90625 345.128906 458.339844 347.613281 C 462.242188 354.367188 465.421875 357.21875 468.347656 356.605469 C 472.023438 355.84375 472.878906 349.714844 472.984375 348.824219 C 476.472656 328.855469 469.214844 306.429688 463.816406 293.367188 C 464.753906 295.082031 465.445312 296.574219 465.867188 297.550781 C 466.238281 298.402344 467.074219 298.949219 468 298.949219 L 468.007812 298.949219 C 468.925781 298.949219 469.761719 298.425781 470.125 297.585938 C 470.285156 297.207031 470.433594 296.824219 470.5625 296.425781 C 470.394531 298.308594 469.914062 299.984375 469.476562 301.179688 C 468.816406 303.011719 468.894531 305.015625 469.703125 306.816406 L 473.773438 315.824219 C 474.253906 316.894531 475.441406 317.566406 476.621094 317.207031 C 477.425781 316.96875 478.023438 316.292969 478.257812 315.480469 L 479.996094 309.445312 C 480.433594 315.167969 479.539062 326.050781 477.425781 339.6875 C 477.28125 340.632812 477.71875 341.617188 478.585938 342.039062 C 479.550781 342.519531 480.695312 342.222656 481.300781 341.347656 L 487.128906 332.972656 C 488.921875 330.40625 489.765625 327.304688 489.519531 324.238281 C 488.929688 317.050781 489.597656 311.8125 490.53125 308.207031 C 490.847656 312.160156 491.722656 316.246094 492.40625 318.992188 C 492.589844 319.734375 493.011719 320.40625 493.644531 320.820312 C 494.882812 321.652344 496.46875 321.441406 497.460938 320.449219 C 499.425781 318.492188 500.917969 315.46875 501.996094 312.589844 C 499.644531 323.53125 488.832031 341.800781 477.703125 357.621094 C 475.234375 361.132812 473.726562 365.253906 473.351562 369.550781 L 470.949219 396.683594 C 470.78125 398.554688 471.515625 400.425781 472.90625 401.6875 L 475.082031 403.648438 C 477.367188 405.71875 480.847656 405.722656 483.140625 403.667969 L 488.761719 398.628906 C 491.078125 396.550781 492.734375 393.84375 493.542969 390.839844 L 498.144531 373.71875 C 499.0625 370.300781 498.785156 366.566406 497.371094 363.191406 C 495.117188 357.800781 494.335938 352.355469 494.089844 348.558594 L 501.851562 361.992188 C 502.183594 362.578125 502.738281 363.03125 503.398438 363.175781 C 504.359375 363.382812 505.3125 362.980469 505.835938 362.1875 L 506.894531 360.578125 C 508.039062 358.839844 508.589844 356.796875 508.480469 354.679688 C 508.378906 352.558594 508.402344 350.691406 508.519531 349.039062 C 508.566406 352.746094 508.953125 355.707031 508.988281 355.972656 L 509.484375 359.667969 L 514.683594 351.496094 C 515.4375 350.308594 515.984375 349.003906 516.304688 347.628906 C 519.289062 334.964844 521.691406 328.652344 523.328125 325.503906 C 521.4375 333.640625 520.695312 347.699219 520.59375 349.6875 L 520.453125 352.507812 L 537.546875 340.203125 C 533.914062 347.394531 524.953125 352.355469 524.851562 352.414062 L 518.773438 355.726562 C 517.617188 356.140625 516.457031 356.660156 515.332031 357.292969 C 506.71875 362.128906 503.0625 375.675781 501.652344 383.332031 C 501.265625 385.402344 502.226562 387.59375 504.234375 388.640625 C 504.832031 388.957031 505.488281 389.125 506.152344 389.179688 C 510.292969 389.554688 518.117188 389.496094 524.878906 385.089844 C 532.042969 380.417969 539.65625 371.910156 543.421875 367.4375 C 542.402344 370.324219 539.714844 374.308594 537.472656 376.960938 L 534.605469 380.355469 L 538.878906 379.144531 C 541.8125 378.3125 545.597656 376.054688 548.503906 374.125 C 543.820312 380.082031 533.398438 385.6875 528.90625 387.6875 L 524.175781 389.800781 L 538.003906 391.097656 C 536.082031 391.453125 533.402344 391.832031 529.660156 392.167969 C 523.519531 392.722656 517.601562 392.890625 517.535156 392.894531 L 512.917969 393.019531 L 516.871094 395.417969 C 522.1875 398.628906 524.523438 402.730469 525.542969 405.769531 L 519.667969 399.515625 C 514.9375 394.78125 509.820312 392.742188 504.453125 393.457031 C 492.234375 395.089844 483.289062 410.472656 482.90625 411.121094 L 482.515625 411.804688 L 482.914062 412.484375 C 487.605469 420.550781 504.152344 432.105469 520.417969 432.585938 C 530.339844 432.882812 538.347656 428.847656 543.601562 420.933594 C 553.144531 406.53125 557.460938 394.507812 559.390625 387.164062 C 558.976562 394.675781 555.410156 403.171875 555.367188 403.285156 L 550.738281 414.179688 L 557.710938 404.617188 C 559.324219 402.402344 560.761719 400.96875 561.976562 400.039062 C 550.960938 412.15625 546.726562 422.132812 546.535156 422.601562 L 542.953125 431.1875 L 548.835938 423.984375 C 551.441406 420.785156 553.757812 418.601562 555.730469 417.109375 C 553.757812 420.144531 552.605469 423.378906 552.382812 424.042969 L 551.148438 427.675781 L 571.816406 414.632812 C 569.859375 419.316406 561.546875 424.609375 548.582031 429.265625 C 547.625 429.605469 546.847656 430.371094 546.609375 431.363281 C 546.320312 432.550781 546.78125 433.765625 547.765625 434.453125 C 547.832031 434.492188 547.875 434.53125 547.875 434.53125 L 547.972656 434.621094 L 548.078125 434.683594 C 556.378906 439.964844 570.8125 439.636719 578.585938 438.980469 C 573.367188 441.449219 566.730469 441.683594 566.640625 441.691406 L 563.375 441.785156 L 569.144531 447.25 C 559.9375 442.296875 546.296875 436.367188 533.714844 436.367188 C 533.570312 436.367188 533.433594 436.367188 533.289062 436.367188 C 512.746094 436.585938 498.691406 431.957031 498.550781 431.90625 C 497.175781 431.449219 496.125 433.175781 497.175781 434.179688 L 520.710938 456.710938 L 520.777344 456.761719 C 526.882812 461.941406 533.105469 464.285156 539.277344 463.730469 C 545.152344 463.207031 550.023438 460.183594 553.707031 456.828125 L 553.007812 458.328125 C 552.5625 459.28125 552.539062 460.410156 553.050781 461.335938 C 553.574219 462.285156 554.484375 462.882812 555.488281 463.003906 L 547.527344 466.257812 C 546.644531 466.621094 545.960938 467.386719 545.808594 468.328125 C 545.648438 469.289062 546.011719 470.238281 546.769531 470.847656 C 556.902344 479 561.84375 486.53125 564.234375 492.257812 C 560.929688 486.925781 556.828125 482.160156 554.136719 479.253906 C 553.417969 478.480469 552.25 478.292969 551.316406 478.832031 C 550.511719 479.296875 550.09375 480.238281 550.207031 481.164062 C 550.429688 483.214844 550.71875 485.175781 551.042969 486.964844 C 550.597656 486.574219 550.015625 486.335938 549.382812 486.3125 C 548.726562 486.285156 548.078125 486.535156 547.570312 486.953125 L 547.082031 487.339844 C 548 485.34375 548.238281 483.113281 547.765625 480.929688 L 547.328125 478.890625 C 546.652344 475.757812 544.554688 473.121094 541.652344 471.757812 L 523.15625 463.070312 C 520.871094 461.992188 518.457031 464.308594 519.441406 466.640625 L 532.617188 497.914062 L 532.640625 497.960938 C 539.46875 512.746094 549.988281 522.003906 557.605469 527.160156 C 560.644531 529.214844 563.445312 530.796875 565.804688 531.976562 C 560.765625 530.839844 556.863281 528.230469 556.808594 528.195312 C 555.707031 527.445312 554.304688 528.558594 554.773438 529.804688 L 555.097656 530.640625 C 547.375 521.5 545.753906 521.253906 544.386719 522.046875 C 542.292969 523.253906 543.542969 526.761719 547.804688 537.664062 C 548.566406 539.609375 549.351562 541.617188 550.09375 543.609375 C 551.902344 548.402344 552.964844 553.25 553.582031 557.476562 C 551.304688 552.269531 548.667969 547.5625 548.480469 547.222656 C 547.890625 546.171875 546.339844 546.347656 545.996094 547.496094 L 544.957031 550.957031 C 543.734375 528.660156 537.894531 514.761719 534.257812 508.121094 C 533.660156 507.035156 532.457031 506.511719 531.265625 506.816406 C 530.0625 507.121094 529.246094 508.160156 529.242188 509.394531 L 528.984375 555.1875 C 527.835938 544.832031 527.980469 532.148438 527.988281 531.976562 C 528.003906 530.460938 525.90625 530.058594 525.359375 531.472656 C 523.472656 536.398438 521.640625 539.726562 520.066406 541.976562 C 525.289062 529.183594 527.144531 510.917969 527.738281 502.699219 C 527.828125 501.566406 527.214844 500.539062 526.191406 500.0625 C 525.15625 499.589844 523.671875 499.984375 522.9375 500.84375 L 520.863281 503.257812 C 523.882812 494.011719 523.039062 485.53125 521.496094 479.472656 C 519.304688 470.871094 515.382812 465.28125 515.214844 465.050781 C 514.566406 464.140625 513.148438 464.367188 512.8125 465.4375 L 506.273438 486.269531 C 505.855469 487.625 505.507812 489.019531 505.269531 490.421875 L 502.761719 504.726562 C 502.808594 499.554688 503.792969 494.085938 504.246094 491.863281 C 504.398438 491.097656 504.039062 490.28125 503.324219 489.953125 C 502.542969 489.605469 501.636719 489.902344 501.214844 490.640625 L 500.292969 492.246094 L 502.855469 485.410156 C 503.125 484.703125 502.925781 483.871094 502.3125 483.421875 C 501.714844 482.992188 500.929688 482.996094 500.347656 483.4375 L 498.777344 484.628906 C 501.59375 479.84375 505.386719 473.265625 507.367188 469.230469 C 511.121094 461.589844 502.546875 451.9375 502.175781 451.53125 C 501.316406 450.578125 499.722656 451.253906 499.816406 452.542969 C 500.023438 455.414062 494.378906 479.035156 485.761719 489.269531 C 476.625 500.113281 481.199219 509.21875 481.671875 510.085938 L 489.457031 526.710938 L 473.414062 509.746094 L 475.722656 515.980469 C 478.503906 523.496094 479.464844 529.664062 479.765625 533.722656 C 476.726562 529.148438 472.671875 525.109375 472.449219 524.878906 L 471.175781 523.621094 L 470.300781 525.1875 C 469.640625 526.382812 469.179688 528.042969 468.851562 529.757812 C 467.390625 517.828125 471.167969 504.347656 471.210938 504.179688 L 473.101562 497.550781 C 486.832031 478.378906 488.222656 461.714844 486.613281 450.5 C 484.582031 436.285156 477.625 427.707031 477.324219 427.347656 C 476.558594 426.417969 475.046875 426.882812 474.929688 428.082031 L 474.074219 436.703125 C 473.800781 439.46875 472.765625 442.152344 471.09375 444.457031 C 468.917969 447.460938 466.398438 451.859375 466.742188 455.769531 C 466.878906 457.351562 466.703125 458.734375 466.390625 459.894531 C 465.992188 456.914062 465.105469 454.773438 465.042969 454.636719 L 464.324219 452.921875 L 462.910156 454.132812 C 460.816406 455.925781 458.683594 459.96875 457 463.785156 C 458.429688 458.152344 460.507812 453.652344 461.730469 451.285156 C 462.738281 449.339844 462.199219 446.972656 460.464844 445.648438 L 456.164062 442.371094 L 460.144531 443.417969 C 461.871094 443.878906 463.144531 441.828125 461.980469 440.484375 L 458.195312 436.105469 C 458.75 436.511719 459.28125 436.949219 459.78125 437.429688 L 462.765625 440.253906 C 463.390625 440.851562 464.214844 441.21875 465.082031 441.1875 C 466.414062 441.152344 467.535156 440.320312 467.96875 439.121094 C 470.167969 433.023438 468.28125 424.902344 466.3125 419.15625 C 464.609375 414.195312 461.585938 409.824219 457.582031 406.515625 C 447.472656 398.152344 439.050781 390.003906 432.144531 382.558594 L 432.113281 382.53125 C 432.0625 382.480469 432.011719 382.421875 431.960938 382.371094 L 431.960938 382.363281 L 426.953125 376.785156 L 426.953125 376.796875 C 426.792969 376.617188 426.640625 376.433594 426.480469 376.246094 L 426.445312 376.207031 L 426.4375 376.203125 C 416.878906 365.144531 410.992188 356.238281 408.121094 351.496094 C 407.46875 350.417969 406.316406 349.6875 405.050781 349.683594 C 405.042969 349.683594 405.035156 349.6875 405.027344 349.6875 C 405.019531 349.6875 405.011719 349.683594 405.003906 349.683594 C 403.738281 349.6875 402.589844 350.417969 401.9375 351.496094 C 399.0625 356.238281 393.179688 365.144531 383.617188 376.203125 L 383.617188 376.207031 L 383.578125 376.246094 C 383.417969 376.433594 383.261719 376.617188 383.097656 376.796875 L 383.101562 376.785156 L 378.09375 382.363281 L 378.09375 382.371094 C 378.046875 382.421875 377.992188 382.480469 377.945312 382.53125 L 377.914062 382.558594 C 371.003906 390.003906 362.582031 398.152344 352.46875 406.515625 C 348.464844 409.824219 345.449219 414.195312 343.746094 419.15625 C 341.773438 424.902344 339.882812 433.023438 342.085938 439.121094 C 342.519531 440.320312 343.644531 441.152344 344.976562 441.1875 C 345.839844 441.21875 346.664062 440.851562 347.289062 440.253906 L 350.269531 437.429688 C 350.78125 436.949219 351.308594 436.511719 351.863281 436.105469 L 348.078125 440.484375 C 346.910156 441.828125 348.183594 443.878906 349.90625 443.417969 L 353.886719 442.371094 L 349.589844 445.648438 C 347.851562 446.972656 347.320312 449.339844 348.324219 451.285156 C 349.546875 453.652344 351.628906 458.152344 353.050781 463.785156 C 351.367188 459.96875 349.238281 455.925781 347.140625 454.132812 L 345.730469 452.921875 L 345.007812 454.636719 C 344.953125 454.773438 344.0625 456.914062 343.664062 459.894531 C 343.347656 458.734375 343.171875 457.351562 343.3125 455.769531 C 343.65625 451.859375 341.136719 447.460938 338.960938 444.457031 C 337.285156 442.152344 336.257812 439.46875 335.980469 436.703125 L 335.128906 428.082031 C 335.007812 426.882812 333.496094 426.417969 332.726562 427.347656 C 332.429688 427.707031 325.46875 436.285156 323.4375 450.5 C 321.835938 461.714844 323.21875 478.378906 336.957031 497.550781 L 338.84375 504.179688 C 338.890625 504.347656 342.664062 517.828125 341.199219 529.757812 C 340.875 528.042969 340.414062 526.382812 339.753906 525.1875 L 338.886719 523.621094 L 337.609375 524.878906 C 337.378906 525.109375 333.324219 529.148438 330.289062 533.722656 C 330.589844 529.664062 331.550781 523.496094 334.332031 515.980469 L 336.640625 509.746094 L 320.59375 526.710938 L 328.386719 510.085938 C 328.855469 509.21875 333.429688 500.113281 324.289062 489.269531 C 315.671875 479.035156 310.035156 455.414062 310.238281 452.542969 C 310.328125 451.253906 308.742188 450.578125 307.875 451.53125 C 307.507812 451.9375 298.929688 461.589844 302.6875 469.230469 C 304.671875 473.265625 308.460938 479.84375 311.277344 484.628906 L 309.707031 483.4375 C 309.125 482.996094 308.332031 482.992188 307.742188 483.421875 C 307.128906 483.871094 306.933594 484.703125 307.203125 485.410156 L 309.761719 492.246094 L 308.84375 490.640625 C 308.417969 489.902344 307.515625 489.605469 306.730469 489.953125 C 306.015625 490.28125 305.660156 491.097656 305.8125 491.863281 C 306.261719 494.085938 307.246094 499.554688 307.296875 504.726562 L 304.789062 490.421875 C 304.542969 489.019531 304.203125 487.625 303.777344 486.269531 L 297.242188 465.4375 C 296.910156 464.367188 295.492188 464.140625 294.84375 465.050781 C 294.675781 465.28125 290.746094 470.871094 288.558594 479.472656 C 287.019531 485.53125 286.171875 494.011719 289.191406 503.257812 L 287.121094 500.84375 C 286.382812 499.984375 284.898438 499.589844 283.867188 500.0625 C 282.835938 500.539062 282.230469 501.566406 282.308594 502.699219 C 282.90625 510.917969 284.765625 529.183594 289.984375 541.976562 C 288.414062 539.726562 286.582031 536.398438 284.691406 531.472656 C 284.148438 530.058594 282.046875 530.460938 282.070312 531.976562 C 282.070312 532.148438 282.214844 544.832031 281.074219 555.1875 L 280.8125 509.394531 C 280.804688 508.160156 279.992188 507.121094 278.796875 506.816406 C 277.597656 506.511719 276.394531 507.035156 275.800781 508.121094 C 272.160156 514.761719 266.320312 528.660156 265.097656 550.957031 L 264.0625 547.496094 C 263.714844 546.347656 262.160156 546.171875 261.574219 547.222656 C 261.382812 547.5625 258.753906 552.269531 256.472656 557.476562 C 257.089844 553.25 258.15625 548.402344 259.953125 543.609375 C 260.703125 541.617188 261.492188 539.609375 262.253906 537.664062 C 266.511719 526.761719 267.761719 523.253906 265.667969 522.046875 C 264.300781 521.253906 262.679688 521.5 254.957031 530.640625 L 255.277344 529.804688 C 255.753906 528.558594 254.34375 527.445312 253.246094 528.195312 C 253.191406 528.230469 249.289062 530.839844 244.253906 531.976562 C 246.609375 530.796875 249.417969 529.214844 252.449219 527.160156 C 260.070312 522.003906 270.585938 512.746094 277.417969 497.960938 L 277.4375 497.914062 L 290.613281 466.640625 C 291.597656 464.308594 289.1875 461.992188 286.898438 463.070312 L 268.398438 471.757812 C 265.5 473.121094 263.402344 475.757812 262.726562 478.890625 L 262.285156 480.929688 C 261.816406 483.113281 262.058594 485.34375 262.96875 487.339844 L 262.488281 486.953125 C 261.972656 486.535156 261.332031 486.285156 260.671875 486.3125 C 260.039062 486.335938 259.460938 486.574219 259.011719 486.964844 C 259.332031 485.175781 259.625 483.214844 259.851562 481.164062 C 259.957031 480.238281 259.542969 479.296875 258.738281 478.832031 C 257.800781 478.292969 256.640625 478.480469 255.921875 479.253906 C 253.222656 482.160156 249.128906 486.925781 245.820312 492.257812 C 248.207031 486.53125 253.152344 479 263.285156 470.847656 C 264.042969 470.238281 264.40625 469.289062 264.25 468.328125 C 264.09375 467.386719 263.414062 466.621094 262.53125 466.257812 L 254.570312 463.003906 C 255.574219 462.882812 256.484375 462.285156 257.003906 461.335938 C 257.511719 460.410156 257.492188 459.28125 257.046875 458.328125 L 256.347656 456.828125 C 260.03125 460.183594 264.898438 463.207031 270.777344 463.730469 C 276.949219 464.285156 283.175781 461.941406 289.28125 456.761719 L 289.34375 456.710938 L 312.878906 434.179688 C 313.925781 433.175781 312.882812 431.449219 311.507812 431.90625 C 311.367188 431.957031 297.308594 436.585938 276.765625 436.367188 C 276.625 436.367188 276.480469 436.367188 276.339844 436.367188 C 263.757812 436.367188 250.117188 442.296875 240.914062 447.25 L 246.683594 441.785156 L 243.414062 441.691406 C 243.328125 441.683594 236.6875 441.449219 231.46875 438.980469 C 239.242188 439.636719 253.683594 439.964844 261.980469 434.683594 L 262.085938 434.621094 L 262.179688 434.53125 C 262.179688 434.53125 262.222656 434.492188 262.285156 434.453125 C 263.269531 433.765625 263.734375 432.550781 263.445312 431.363281 C 263.203125 430.371094 262.425781 429.605469 261.472656 429.265625 C 248.511719 424.609375 240.195312 419.316406 238.238281 414.632812 L 258.902344 427.675781 L 257.671875 424.042969 C 257.445312 423.378906 256.296875 420.144531 254.328125 417.109375 C 256.300781 418.601562 258.609375 420.785156 261.21875 423.984375 L 267.101562 431.1875 L 263.523438 422.601562 C 263.332031 422.132812 259.097656 412.15625 248.082031 400.039062 C 249.292969 400.96875 250.730469 402.402344 252.347656 404.617188 L 259.316406 414.179688 L 254.695312 403.285156 C 254.644531 403.171875 251.082031 394.675781 250.664062 387.164062 C 252.59375 394.507812 256.910156 406.53125 266.453125 420.933594 C 271.707031 428.847656 279.714844 432.882812 289.636719 432.585938 C 305.910156 432.105469 322.449219 420.550781 327.144531 412.484375 L 327.539062 411.804688 L 327.144531 411.121094 C 326.769531 410.472656 317.820312 395.089844 305.597656 393.457031 C 300.238281 392.742188 295.121094 394.78125 290.386719 399.515625 L 284.511719 405.769531 C 285.535156 402.730469 287.867188 398.628906 293.179688 395.417969 L 297.132812 393.019531 L 292.515625 392.894531 C 292.457031 392.890625 286.535156 392.722656 280.394531 392.167969 C 276.65625 391.832031 273.972656 391.453125 272.054688 391.097656 L 285.878906 389.800781 L 281.148438 387.6875 C 276.660156 385.6875 266.238281 380.082031 261.554688 374.125 C 264.457031 376.054688 268.246094 378.3125 271.179688 379.144531 L 275.449219 380.355469 L 272.582031 376.960938 C 270.34375 374.308594 267.65625 370.324219 266.632812 367.4375 C 270.398438 371.910156 278.015625 380.417969 285.175781 385.089844 C 291.9375 389.496094 299.761719 389.554688 303.902344 389.179688 C 304.570312 389.125 305.222656 388.957031 305.816406 388.640625 C 307.828125 387.59375 308.789062 385.402344 308.40625 383.332031 C 306.992188 375.675781 303.339844 362.128906 294.726562 357.292969 C 293.597656 356.660156 292.445312 356.140625 291.277344 355.726562 L 285.207031 352.414062 C 285.101562 352.355469 276.144531 347.394531 272.507812 340.203125 L 289.597656 352.507812 L 289.457031 349.6875 C 289.363281 347.699219 288.617188 333.640625 286.726562 325.503906 C 288.363281 328.652344 290.765625 334.964844 293.75 347.628906 C 294.070312 349.003906 294.621094 350.308594 295.371094 351.496094 L 300.570312 359.667969 L 301.066406 355.972656 C 301.101562 355.707031 301.488281 352.746094 301.539062 349.039062 C 301.652344 350.691406 301.675781 352.558594 301.570312 354.679688 C 301.464844 356.796875 302.015625 358.839844 303.160156 360.578125 L 304.21875 362.1875 C 304.742188 362.980469 305.695312 363.382812 306.65625 363.175781 C 307.316406 363.03125 307.867188 362.578125 308.207031 361.992188 L 315.964844 348.558594 C 315.71875 352.355469 314.9375 357.800781 312.679688 363.191406 C 311.269531 366.566406 310.996094 370.300781 311.914062 373.71875 L 316.511719 390.839844 C 317.320312 393.84375 318.980469 396.550781 321.292969 398.628906 L 326.914062 403.667969 C 329.210938 405.722656 332.683594 405.71875 334.972656 403.648438 L 337.144531 401.6875 C 338.539062 400.425781 339.277344 398.554688 339.109375 396.683594 L 336.707031 369.550781 C 336.328125 365.253906 334.820312 361.132812 332.351562 357.621094 C 321.222656 341.800781 310.410156 323.53125 308.058594 312.589844 C 309.136719 315.46875 310.628906 318.492188 312.597656 320.449219 C 313.589844 321.441406 315.171875 321.652344 316.410156 320.820312 C 317.046875 320.40625 317.46875 319.734375 317.652344 318.992188 C 318.332031 316.246094 319.203125 312.160156 319.527344 308.207031 C 320.453125 311.8125 321.125 317.050781 320.539062 324.238281 C 320.289062 327.304688 321.132812 330.40625 322.921875 332.972656 L 328.753906 341.347656 C 329.359375 342.222656 330.5 342.519531 331.472656 342.039062 C 332.335938 341.617188 332.773438 340.632812 332.625 339.6875 C 330.515625 326.050781 329.621094 315.167969 330.0625 309.445312 L 331.800781 315.480469 C 332.035156 316.292969 332.628906 316.96875 333.433594 317.207031 C 334.617188 317.566406 335.796875 316.894531 336.285156 315.824219 L 340.347656 306.816406 C 341.160156 305.015625 341.242188 303.011719 340.574219 301.179688 C 340.144531 299.984375 339.65625 298.308594 339.492188 296.425781 C 339.621094 296.824219 339.769531 297.207031 339.929688 297.585938 C 340.289062 298.425781 341.136719 298.949219 342.046875 298.949219 L 342.050781 298.949219 C 342.976562 298.949219 343.8125 298.402344 344.183594 297.550781 C 344.609375 296.574219 345.304688 295.082031 346.238281 293.367188 C 340.839844 306.429688 333.582031 328.855469 337.070312 348.824219 C 337.175781 349.714844 338.03125 355.84375 341.707031 356.605469 C 344.636719 357.21875 347.816406 354.367188 351.714844 347.613281 C 353.144531 345.128906 353.453125 342.152344 352.5625 339.433594 L 351.523438 336.277344 C 353.167969 338.695312 353.652344 338.789062 354.121094 338.886719 C 354.546875 338.964844 354.988281 338.855469 355.324219 338.59375 C 356.09375 337.980469 355.96875 337.449219 355.371094 334.902344 C 354.4375 330.910156 352.140625 321.113281 354.082031 314.425781 C 354.109375 315.621094 354.347656 316.910156 354.90625 318.265625 C 355.308594 319.234375 356.382812 319.773438 357.433594 319.46875 C 358.140625 319.261719 358.667969 318.660156 358.851562 317.953125 C 359.34375 316.066406 360.347656 313.085938 362.28125 310.019531 C 362.132812 311.820312 362.382812 313.59375 363.523438 314.789062 C 364.691406 316.007812 366.4375 316.386719 368.824219 315.929688 C 367.632812 317.414062 365.636719 319.285156 362.394531 320.953125 C 359.410156 322.484375 357.566406 325.660156 357.699219 329.058594 C 357.953125 335.644531 357.011719 348.464844 347.808594 360.34375 C 345.691406 363.082031 344.523438 366.550781 344.523438 370.105469 L 344.523438 378.699219 C 344.476562 379.515625 344.292969 384.890625 347.585938 386.199219 C 350.605469 387.40625 354.796875 384.613281 360.773438 377.425781 C 361.683594 376.632812 368.78125 370.234375 376.375 358.828125 C 376.953125 357.957031 377.546875 357.035156 378.144531 356.082031 L 378.144531 356.089844 C 378.550781 355.398438 396.28125 330.511719 395.480469 307.347656 L 395.488281 307.265625 L 395.488281 216.621094 C 395.488281 215.292969 394.351562 214.230469 393.003906 214.359375 C 391.824219 214.46875 390.964844 215.527344 390.964844 216.714844 L 390.964844 307.105469 C 390.152344 318.382812 387.039062 328.292969 384.328125 335.070312 L 384.328125 286.640625 C 384.328125 274.992188 378.394531 264.410156 368.464844 258.320312 C 358.578125 252.257812 346.519531 251.785156 336.214844 257.046875 C 319.679688 265.480469 304.101562 276.492188 289.90625 289.785156 C 271.984375 306.558594 256.285156 326.976562 243.257812 350.46875 C 225.898438 381.765625 214.820312 418.347656 210.328125 459.195312 C 206.613281 492.96875 207.574219 529.339844 213.101562 564.367188 C 215.246094 577.957031 224.242188 588.894531 237.167969 593.621094 C 241.4375 595.179688 245.820312 595.945312 250.148438 595.945312 C 258.910156 595.945312 267.449219 592.800781 274.40625 586.773438 C 293.597656 570.144531 316.148438 559.675781 341.441406 555.675781 C 352.53125 553.921875 362.128906 547.847656 368.464844 538.582031 C 374.792969 529.328125 376.96875 518.195312 374.589844 507.238281 L 367.894531 476.398438 C 364.46875 460.621094 365.945312 444.6875 372.164062 430.304688 C 372.253906 430.09375 372.34375 429.890625 372.4375 429.679688 C 377.550781 418.15625 380.671875 405.964844 381.714844 393.449219 L 382.722656 381.320312 C 394.25 368.480469 401.152344 358.042969 404.324219 352.796875 C 404.542969 352.441406 404.886719 352.394531 405.027344 352.394531 C 405.167969 352.394531 405.515625 352.441406 405.734375 352.796875 C 408.902344 358.042969 415.808594 368.480469 427.332031 381.320312 L 428.34375 393.449219 C 429.382812 405.964844 432.507812 418.15625 437.617188 429.679688 C 437.710938 429.890625 437.796875 430.09375 437.890625 430.304688 C 444.109375 444.6875 445.585938 460.621094 442.160156 476.398438 L 435.46875 507.238281 C 433.089844 518.195312 435.257812 529.328125 441.589844 538.582031 C 447.925781 547.847656 457.527344 553.921875 468.613281 555.675781 C 493.910156 559.675781 516.457031 570.144531 535.648438 586.773438 C 542.605469 592.800781 551.144531 595.945312 559.90625 595.945312 C 564.234375 595.945312 568.613281 595.179688 572.886719 593.621094 C 585.8125 588.894531 594.8125 577.957031 596.960938 564.367188 C 602.484375 529.339844 603.4375 492.96875 599.722656 459.195312 " fill-opacity="1" fill-rule="nonzero"/></g></svg>