<svg xmlns="http://www.w3.org/2000/svg" xmlns:xlink="http://www.w3.org/1999/xlink" width="1080" zoomAndPan="magnify" viewBox="0 0 810 809.999993" height="1080" preserveAspectRatio="xMidYMid meet" version="1.0"><defs><clipPath id="325971eb9f"><path d="M 204.714844 265 L 380 265 L 380 441 L 204.714844 441 Z M 204.714844 265 " clip-rule="nonzero"/></clipPath></defs><rect x="-81" width="972" fill="#ffffff" y="-80.999999" height="971.999992" fill-opacity="1"/><rect x="-81" width="972" fill="#ff8200" y="-80.999999" height="971.999992" fill-opacity="1"/><path fill="#100f0d" d="M 376.1875 513.269531 C 369.503906 513.269531 362.621094 512.390625 355.660156 510.609375 C 344.917969 507.835938 332.875 503.128906 320.832031 497.015625 C 313.382812 493.222656 308.742188 485.726562 308.742188 477.441406 L 308.742188 450.644531 C 308.742188 448.699219 310.316406 447.109375 312.28125 447.109375 C 314.226562 447.109375 315.800781 448.699219 315.800781 450.644531 L 315.800781 477.441406 C 315.800781 483.050781 318.964844 488.128906 324.046875 490.722656 C 335.617188 496.609375 347.15625 501.121094 357.429688 503.761719 C 377.179688 508.839844 396.230469 505.953125 411.066406 495.605469 C 425.070312 485.839844 433.800781 470.515625 435.636719 452.429688 C 438.523438 424.160156 423.871094 398.355469 423.722656 398.097656 C 422.699219 396.425781 397.433594 354.53125 395.664062 298.496094 C 395.613281 296.546875 397.140625 294.925781 399.089844 294.863281 C 399.121094 294.863281 399.167969 294.84375 399.203125 294.84375 C 401.101562 294.84375 402.675781 296.371094 402.738281 298.285156 C 404.445312 352.359375 429.550781 394.089844 429.808594 394.496094 C 430.492188 395.695312 445.792969 422.554688 442.679688 453.144531 C 440.617188 473.304688 430.832031 490.449219 415.105469 501.394531 C 403.84375 509.261719 390.453125 513.269531 376.1875 513.269531 " fill-opacity="1" fill-rule="nonzero"/><path fill="#100f0d" d="M 246.375 597.914062 C 244.429688 597.914062 242.835938 596.324219 242.835938 594.378906 L 242.835938 542.414062 C 242.835938 516.058594 259.292969 500.113281 269.113281 492.960938 C 273.183594 489.992188 275.621094 485.304688 275.621094 480.425781 L 275.621094 450.644531 C 275.621094 448.699219 277.210938 447.109375 279.15625 447.109375 C 281.105469 447.109375 282.695312 448.699219 282.695312 450.644531 L 282.695312 480.425781 C 282.695312 487.542969 279.171875 494.371094 273.28125 498.671875 C 264.550781 505.027344 249.914062 519.1875 249.914062 542.414062 L 249.914062 594.378906 C 249.914062 596.324219 248.324219 597.914062 246.375 597.914062 " fill-opacity="1" fill-rule="nonzero"/><path fill="#100f0d" d="M 426.773438 609.121094 C 387.402344 609.121094 348.179688 593.128906 318.949219 562.703125 C 314.339844 557.871094 309.863281 552.777344 305.660156 547.523438 C 303.273438 544.554688 299.867188 544.261719 297.464844 544.976562 C 295.0625 545.691406 292.351562 547.796875 291.976562 551.59375 C 290.859375 563.15625 290.90625 577.671875 290.9375 589.351562 L 290.9375 594.378906 C 290.9375 596.324219 289.347656 597.914062 287.402344 597.914062 C 285.453125 597.914062 283.863281 596.324219 283.863281 594.378906 L 283.863281 589.367188 C 283.832031 577.542969 283.796875 562.816406 284.949219 550.914062 C 285.535156 544.828125 289.558594 539.949219 295.449219 538.195312 C 301.324219 536.445312 307.347656 538.324219 311.175781 543.109375 C 315.25 548.203125 319.582031 553.132812 324.0625 557.804688 C 369.046875 604.664062 438.898438 615.609375 493.929688 584.386719 C 567.558594 542.640625 584.339844 449.21875 584.5 448.277344 C 597.746094 381.601562 571.03125 338.296875 544.15625 321.445312 C 534.191406 315.199219 522.394531 312.085938 510.921875 312.652344 C 493.816406 313.53125 482.730469 322.273438 477.945312 338.667969 C 476.160156 344.75 470.949219 349.015625 464.636719 349.519531 C 458.402344 350.023438 452.625 346.699219 449.933594 341.039062 C 443.132812 326.8125 439.953125 314.730469 438.605469 297.976562 C 438.441406 296.03125 439.902344 294.328125 441.851562 294.164062 C 443.765625 294.003906 445.503906 295.460938 445.648438 297.40625 C 446.929688 313.222656 449.917969 324.605469 456.3125 338.003906 C 458.03125 341.621094 461.453125 342.707031 464.066406 342.480469 C 466.746094 342.269531 469.992188 340.632812 471.144531 336.691406 C 475.085938 323.230469 485.117188 306.894531 510.5625 305.613281 C 523.464844 304.949219 536.742188 308.453125 547.90625 315.460938 C 576.695312 333.511719 605.371094 379.460938 591.449219 449.558594 C 591.300781 450.433594 574 547.117188 497.433594 590.535156 C 475.363281 603.039062 451.035156 609.121094 426.773438 609.121094 " fill-opacity="1" fill-rule="nonzero"/><path fill="#100f0d" d="M 328.589844 408.753906 C 327.875 408.753906 327.144531 408.542969 326.527344 408.085938 L 309.683594 396.003906 C 308.09375 394.867188 307.734375 392.664062 308.871094 391.074219 C 310.007812 389.484375 312.214844 389.125 313.804688 390.261719 L 322.585938 396.554688 L 319.746094 386.140625 C 318.445312 381.339844 319.242188 376.183594 321.9375 372.015625 C 324.628906 367.832031 328.980469 364.960938 333.898438 364.164062 L 344.558594 362.414062 L 335.179688 357.03125 C 330.863281 354.5625 327.777344 350.363281 326.722656 345.496094 C 325.667969 340.648438 326.722656 335.539062 329.628906 331.5 L 335.925781 322.726562 L 325.507812 325.5625 C 320.703125 326.863281 315.542969 326.066406 311.355469 323.375 C 307.183594 320.683594 304.3125 316.320312 303.515625 311.421875 L 301.746094 300.765625 L 296.390625 310.140625 C 293.910156 314.453125 289.707031 317.535156 284.835938 318.589844 C 279.984375 319.644531 274.871094 318.589844 270.832031 315.6875 L 262.050781 309.394531 L 264.890625 319.804688 C 266.191406 324.605469 265.394531 329.765625 262.703125 333.933594 C 260.007812 338.117188 255.65625 340.988281 250.742188 341.785156 L 240.078125 343.535156 L 249.457031 348.902344 C 253.777344 351.386719 256.859375 355.585938 257.914062 360.433594 C 258.96875 365.300781 257.914062 370.410156 255.007812 374.449219 L 242.917969 391.285156 C 241.765625 392.875 239.558594 393.246094 237.984375 392.09375 C 236.394531 390.960938 236.019531 388.753906 237.171875 387.164062 L 249.265625 370.328125 C 251.03125 367.878906 251.632812 364.894531 251 361.945312 C 250.351562 358.992188 248.566406 356.542969 245.9375 355.035156 L 227.9375 344.734375 C 226.640625 343.988281 225.960938 342.511719 226.21875 341.039062 C 226.496094 339.5625 227.648438 338.425781 229.125 338.183594 L 249.589844 334.808594 C 252.574219 334.324219 255.121094 332.652344 256.761719 330.121094 C 258.382812 327.574219 258.855469 324.574219 258.058594 321.65625 L 252.625 301.65625 C 252.234375 300.214844 252.800781 298.671875 254.019531 297.828125 C 255.253906 296.96875 256.890625 296.988281 258.109375 297.863281 L 274.953125 309.945312 C 277.40625 311.695312 280.390625 312.328125 283.34375 311.679688 C 286.296875 311.046875 288.75 309.246094 290.257812 306.621094 L 300.5625 288.632812 C 301.308594 287.335938 302.785156 286.65625 304.261719 286.914062 C 305.738281 287.191406 306.875 288.339844 307.121094 289.816406 L 310.480469 310.269531 C 310.980469 313.253906 312.636719 315.800781 315.183594 317.421875 C 317.734375 319.058594 320.734375 319.53125 323.65625 318.734375 L 343.667969 313.300781 C 345.109375 312.914062 346.652344 313.480469 347.496094 314.714844 C 348.355469 315.929688 348.339844 317.566406 347.464844 318.785156 L 335.375 335.621094 C 333.605469 338.070312 332.988281 341.054688 333.636719 344.003906 C 334.269531 346.957031 336.070312 349.40625 338.699219 350.898438 L 356.699219 361.214844 C 357.996094 361.960938 358.679688 363.4375 358.417969 364.910156 C 358.144531 366.371094 356.992188 367.523438 355.515625 367.765625 L 335.03125 371.125 C 332.0625 371.609375 329.515625 373.296875 327.875 375.828125 C 326.253906 378.375 325.78125 381.375 326.578125 384.292969 L 332.015625 404.292969 C 332.402344 405.734375 331.835938 407.277344 330.601562 408.121094 C 330.003906 408.542969 329.304688 408.753906 328.589844 408.753906 " fill-opacity="1" fill-rule="nonzero"/><path fill="#100f0d" d="M 287.5 383.140625 C 287.304688 383.140625 287.09375 383.109375 286.882812 383.078125 C 285.40625 382.800781 284.253906 381.648438 284.007812 380.175781 L 282.582031 371.464844 C 282.4375 370.523438 281.835938 370.019531 281.496094 369.792969 C 281.152344 369.582031 280.4375 369.257812 279.515625 369.5 L 270.996094 371.804688 C 269.566406 372.210938 268.023438 371.644531 267.164062 370.410156 C 266.320312 369.195312 266.335938 367.554688 267.195312 366.339844 L 272.359375 359.171875 C 272.910156 358.40625 272.84375 357.613281 272.746094 357.222656 C 272.664062 356.820312 272.40625 356.089844 271.578125 355.617188 L 263.917969 351.222656 C 262.230469 350.265625 261.648438 348.09375 262.605469 346.40625 C 263.578125 344.71875 265.734375 344.117188 267.441406 345.09375 L 275.082031 349.488281 C 277.421875 350.816406 279.09375 353.089844 279.660156 355.714844 C 280.164062 358.035156 279.789062 360.433594 278.621094 362.460938 C 280.925781 362.089844 283.328125 362.578125 285.308594 363.859375 C 287.304688 365.140625 288.730469 367.117188 289.347656 369.371094 C 290.726562 367.457031 292.757812 366.128906 295.0625 365.625 C 297.367188 365.121094 299.785156 365.496094 301.828125 366.664062 C 301.4375 364.34375 301.925781 361.960938 303.207031 359.964844 C 304.667969 357.710938 307.023438 356.167969 309.683594 355.730469 L 318.382812 354.304688 C 320.3125 353.980469 322.132812 355.277344 322.457031 357.207031 C 322.765625 359.136719 321.464844 360.953125 319.535156 361.261719 L 310.820312 362.707031 C 309.894531 362.851562 309.375 363.453125 309.164062 363.792969 C 308.9375 364.132812 308.613281 364.847656 308.855469 365.769531 L 311.160156 374.285156 C 311.550781 375.714844 311 377.253906 309.765625 378.097656 C 308.53125 378.957031 306.910156 378.941406 305.691406 378.066406 L 298.519531 372.925781 C 297.753906 372.371094 296.960938 372.4375 296.570312 372.535156 C 296.164062 372.617188 295.433594 372.875 294.964844 373.703125 L 290.566406 381.359375 C 289.933594 382.460938 288.75 383.140625 287.5 383.140625 " fill-opacity="1" fill-rule="nonzero"/><path fill="#100f0d" d="M 480.765625 403.707031 C 474.375 403.707031 469.164062 408.898438 469.164062 415.289062 C 469.164062 421.679688 474.375 426.867188 480.765625 426.867188 C 487.160156 426.867188 492.355469 421.679688 492.355469 415.289062 C 492.355469 408.898438 487.160156 403.707031 480.765625 403.707031 Z M 480.765625 433.941406 C 470.476562 433.941406 462.105469 425.570312 462.105469 415.289062 C 462.105469 405.003906 470.476562 396.636719 480.765625 396.636719 C 491.054688 396.636719 499.429688 405.003906 499.429688 415.289062 C 499.429688 425.570312 491.054688 433.941406 480.765625 433.941406 " fill-opacity="1" fill-rule="nonzero"/><path fill="#100f0d" d="M 541.347656 476.433594 C 540.390625 476.433594 539.433594 476.0625 538.738281 475.296875 L 501.960938 435.171875 C 500.648438 433.730469 500.746094 431.492188 502.171875 430.175781 C 503.617188 428.863281 505.855469 428.960938 507.171875 430.40625 L 543.945312 470.515625 C 545.261719 471.957031 545.164062 474.195312 543.734375 475.507812 C 543.054688 476.125 542.191406 476.433594 541.347656 476.433594 " fill-opacity="1" fill-rule="nonzero"/><path fill="#100f0d" d="M 545.488281 428.554688 C 545.226562 428.554688 544.96875 428.523438 544.691406 428.457031 L 509.507812 420.316406 C 507.609375 419.863281 506.425781 417.964844 506.863281 416.066406 C 507.300781 414.167969 509.199219 412.984375 511.097656 413.421875 L 546.28125 421.582031 C 548.179688 422.019531 549.382812 423.917969 548.929688 425.8125 C 548.554688 427.453125 547.09375 428.554688 545.488281 428.554688 " fill-opacity="1" fill-rule="nonzero"/><path fill="#100f0d" d="M 502.820312 483.101562 C 501.28125 483.101562 499.867188 482.078125 499.429688 480.539062 L 489.109375 444.222656 C 488.574219 442.359375 489.675781 440.394531 491.542969 439.859375 C 493.425781 439.339844 495.390625 440.429688 495.910156 442.308594 L 506.230469 478.609375 C 506.765625 480.472656 505.679688 482.433594 503.796875 482.953125 C 503.472656 483.050781 503.148438 483.101562 502.820312 483.101562 " fill-opacity="1" fill-rule="nonzero"/><g clip-path="url(#325971eb9f)"><path fill="#100f0d" d="M 221.738281 272.15625 C 216.351562 272.15625 211.953125 276.550781 211.953125 281.933594 L 211.953125 423.15625 C 211.953125 428.539062 216.351562 432.933594 221.738281 432.933594 L 363.042969 432.933594 C 368.449219 432.933594 372.828125 428.539062 372.828125 423.15625 L 372.828125 281.933594 C 372.828125 276.550781 368.449219 272.15625 363.042969 272.15625 Z M 363.042969 440.007812 L 221.738281 440.007812 C 212.457031 440.007812 204.894531 432.449219 204.894531 423.15625 L 204.894531 281.933594 C 204.894531 272.640625 212.457031 265.082031 221.738281 265.082031 L 363.042969 265.082031 C 372.34375 265.082031 379.90625 272.640625 379.90625 281.933594 L 379.90625 423.15625 C 379.90625 432.449219 372.34375 440.007812 363.042969 440.007812 " fill-opacity="1" fill-rule="nonzero"/></g><path fill="#100f0d" d="M 469.164062 407.601562 C 468.289062 407.601562 467.425781 407.277344 466.746094 406.628906 C 426.773438 369.097656 416.078125 306.296875 414.148438 260.21875 C 412.753906 227 385.699219 200.984375 352.558594 200.984375 C 318.578125 200.984375 290.921875 228.605469 290.921875 262.570312 L 290.921875 268.621094 C 290.921875 270.566406 289.332031 272.15625 287.386719 272.15625 C 285.4375 272.15625 283.847656 270.566406 283.847656 268.621094 L 283.847656 262.570312 C 283.847656 224.714844 314.683594 193.914062 352.558594 193.914062 C 389.496094 193.914062 419.648438 222.898438 421.207031 259.925781 C 423.089844 304.675781 433.347656 365.578125 471.582031 401.484375 C 473.011719 402.816406 473.074219 405.054688 471.742188 406.480469 C 471.046875 407.210938 470.105469 407.601562 469.164062 407.601562 " fill-opacity="1" fill-rule="nonzero"/></svg>