<svg xmlns="http://www.w3.org/2000/svg" xmlns:xlink="http://www.w3.org/1999/xlink" width="1080" zoomAndPan="magnify" viewBox="0 0 810 809.999993" height="1080" preserveAspectRatio="xMidYMid meet" version="1.0"><rect x="-81" width="972" fill="#ffffff" y="-80.999999" height="971.999992" fill-opacity="1"/><rect x="-81" width="972" fill="#ff8200" y="-80.999999" height="971.999992" fill-opacity="1"/><path fill="#000000" d="M 318.007812 366.289062 C 314.867188 370.71875 312.402344 374.210938 307.429688 374.210938 L 306.273438 374.210938 L 305.046875 373.882812 C 302.96875 373.292969 298.011719 371.070312 296.886719 363.304688 C 296.015625 357.320312 297.667969 348.050781 302.839844 339.636719 C 275.863281 334.757812 272.746094 330.308594 271.296875 328.230469 C 267.835938 323.273438 268.613281 319.328125 269.890625 316.886719 C 272.863281 311.171875 279.417969 311.171875 283.75 311.171875 C 285.566406 311.171875 287.761719 311.230469 290.371094 311.289062 C 293.902344 311.386719 298.1875 311.503906 303.261719 311.503906 C 303.261719 311.503906 306.957031 311.480469 308.753906 311.457031 C 295.507812 288.4375 297.539062 282.085938 298.257812 279.78125 C 299.226562 276.785156 301.386719 274.410156 304.242188 273.265625 L 305.742188 272.664062 L 307.84375 272.570312 C 313.957031 272.570312 317.441406 277.28125 323.203125 285.082031 C 326.660156 289.757812 331.0625 295.542969 336.484375 301.234375 C 340.058594 294.480469 344.945312 288.269531 350.320312 281.554688 C 362.609375 266.183594 353.246094 211.03125 292.980469 223.164062 C 256.820312 230.449219 209.28125 259.171875 219.246094 345.195312 C 224.429688 389.960938 239.835938 413.214844 264.292969 424.066406 C 286.84375 434.050781 318.042969 433.863281 334.25 421.339844 C 362.265625 399.699219 346.082031 374.789062 336.53125 348.867188 C 328.230469 351.960938 321.726562 361.085938 318.007812 366.289062 Z M 318.007812 366.289062 " fill-opacity="1" fill-rule="nonzero"/><path fill="#000000" d="M 491.402344 366.289062 C 494.542969 370.71875 497.007812 374.210938 501.980469 374.210938 L 503.160156 374.210938 L 504.386719 373.882812 C 506.441406 373.292969 511.398438 371.070312 512.519531 363.304688 C 513.394531 357.320312 511.765625 348.050781 506.570312 339.636719 C 533.546875 334.757812 536.664062 330.308594 538.113281 328.230469 C 541.597656 323.273438 540.816406 319.328125 539.542969 316.886719 C 536.566406 311.171875 529.992188 311.171875 525.660156 311.171875 C 523.84375 311.171875 521.644531 311.230469 519.0625 311.289062 C 515.53125 311.386719 511.222656 311.503906 506.144531 311.503906 C 506.144531 311.503906 502.476562 311.480469 500.65625 311.457031 C 513.890625 288.449219 511.882812 282.097656 511.152344 279.792969 C 510.207031 276.796875 508.011719 274.421875 505.15625 273.265625 L 503.691406 272.664062 L 501.566406 272.570312 C 495.472656 272.570312 491.992188 277.28125 486.207031 285.082031 C 482.75 289.757812 478.34375 295.542969 472.925781 301.234375 C 469.375 294.480469 464.460938 288.269531 459.089844 281.554688 C 446.800781 266.183594 456.164062 211.03125 516.429688 223.164062 C 552.585938 230.449219 600.128906 259.171875 590.164062 345.195312 C 584.992188 389.960938 569.574219 413.214844 545.113281 424.066406 C 522.566406 434.050781 491.367188 433.863281 475.15625 421.339844 C 447.144531 399.699219 463.351562 374.789062 472.878906 348.867188 C 481.214844 351.960938 487.683594 361.085938 491.402344 366.289062 Z M 491.402344 366.289062 " fill-opacity="1" fill-rule="nonzero"/><path fill="#000000" d="M 486.078125 319.257812 C 486.078125 319.257812 509.015625 283.796875 502.074219 281.011719 C 497.8125 279.3125 488.722656 300.84375 468.523438 316.660156 C 458.382812 324.605469 444.984375 329.554688 428.894531 332.894531 L 428.894531 269.195312 L 411.667969 269.195312 L 411.667969 435.078125 C 416.558594 435.246094 422.414062 435.632812 428.894531 436.4375 L 428.894531 349.304688 C 440.144531 344.0625 456.683594 337.957031 470.070312 339.609375 C 489.277344 341.949219 499.832031 366.503906 502.074219 365.867188 C 506.9375 364.484375 504.859375 343.613281 489.546875 333.875 C 489.546875 333.875 527.679688 328.574219 531.28125 323.4375 C 536.15625 316.484375 522.96875 321.347656 486.078125 319.257812 Z M 486.078125 319.257812 " fill-opacity="1" fill-rule="nonzero"/><path fill="#000000" d="M 380.539062 332.882812 C 364.449219 329.542969 351.050781 324.59375 340.910156 316.648438 C 320.710938 300.832031 311.609375 279.3125 307.335938 281 C 300.394531 283.785156 323.332031 319.246094 323.332031 319.246094 C 286.453125 321.347656 273.253906 316.484375 278.140625 323.4375 C 281.71875 328.574219 319.847656 333.875 319.847656 333.875 C 304.5625 343.613281 302.460938 364.484375 307.324219 365.867188 C 309.554688 366.515625 320.121094 341.960938 339.328125 339.609375 C 352.75 337.957031 369.253906 344.074219 380.527344 349.304688 L 380.527344 436.4375 C 387.007812 435.632812 392.839844 435.234375 397.726562 435.078125 L 397.726562 269.195312 L 380.527344 269.195312 L 380.527344 332.882812 Z M 380.539062 332.882812 " fill-opacity="1" fill-rule="nonzero"/><path fill="#000000" d="M 492.394531 494.835938 C 492.074219 448.609375 428.964844 443.261719 404.703125 443.261719 C 380.46875 443.261719 317.347656 448.609375 317.015625 494.835938 C 316.78125 531.5625 362.644531 553.460938 390.3125 559.941406 L 390.3125 599.207031 L 419.105469 599.207031 L 419.105469 559.941406 C 446.789062 553.460938 492.640625 531.5625 492.394531 494.835938 Z M 461.214844 514.730469 C 444.640625 531.421875 413.699219 540.429688 404.703125 540.429688 C 395.710938 540.429688 364.792969 531.421875 348.21875 514.730469 C 342.066406 508.542969 339.019531 502.402344 338.738281 496.042969 L 470.671875 496.042969 C 470.398438 502.402344 467.378906 508.53125 461.214844 514.730469 Z M 461.214844 514.730469 " fill-opacity="1" fill-rule="nonzero"/></svg>