<svg id="play_Button" data-name="play Button" xmlns="http://www.w3.org/2000/svg" width="87.139" height="87.181" viewBox="0 0 87.139 87.181">
  <path id="Path_424" data-name="Path 424" d="M41.1-511.6c-.324.034-1.331.154-2.218.239a43.674,43.674,0,0,0-16.889,5.732A44.206,44.206,0,0,0,6.571-490.211,44.127,44.127,0,0,0,.8-473.323a68.41,68.41,0,0,0,0,10.577,43.559,43.559,0,0,0,13.989,26.971,42.648,42.648,0,0,0,15.729,9.195,39.4,39.4,0,0,0,13.647,2.115,37.271,37.271,0,0,0,9.041-.853,43.82,43.82,0,0,0,28.557-20.539,44.128,44.128,0,0,0,5.766-16.889,68.41,68.41,0,0,0,0-10.577,44.128,44.128,0,0,0-5.766-16.889,44.206,44.206,0,0,0-15.422-15.422,44.174,44.174,0,0,0-16.718-5.732A77.845,77.845,0,0,0,41.1-511.6Zm9.041,2.883c.989.154,2.832.529,4.094.836A41.291,41.291,0,0,1,84-478.184a34.992,34.992,0,0,1,1.177,10.15A34.991,34.991,0,0,1,84-457.884a41.235,41.235,0,0,1-21.665,26.7A37.43,37.43,0,0,1,54.32-428.2a34.991,34.991,0,0,1-10.15,1.177,34.991,34.991,0,0,1-10.15-1.177A41.327,41.327,0,0,1,4.336-457.884a34.991,34.991,0,0,1-1.177-10.15,34.992,34.992,0,0,1,1.177-10.15A41.236,41.236,0,0,1,26-504.882a41.183,41.183,0,0,1,15.012-4.162A69.528,69.528,0,0,1,50.14-508.721Z" transform="translate(-0.6 511.646)" fill="#2c704f"/>
  <path id="Path_425" data-name="Path 425" d="M295.372-469.539a1.369,1.369,0,0,0-.017,1.774,13.411,13.411,0,0,0,4.4,1.194,1.326,1.326,0,0,0,.9-1.194c0-.716-.546-1.109-2.3-1.621C296.345-469.966,295.833-470,295.372-469.539Z" transform="translate(-244.808 476.985)" fill="#2c704f"/>
  <path id="Path_426" data-name="Path 426" d="M350.328-448.621a1.346,1.346,0,0,0-.239,1.433,7.107,7.107,0,0,0,1.672,1.228,32.41,32.41,0,0,1,4.725,3.429,35.388,35.388,0,0,1,8.1,9.98c.768,1.552,1.194,2.013,1.877,2.013a1.2,1.2,0,0,0,1.262-1.143,18.2,18.2,0,0,0-2.32-4.521,39.081,39.081,0,0,0-10.219-10.56C351.983-448.98,351.045-449.338,350.328-448.621Z" transform="translate(-290.382 459.649)" fill="#2c704f"/>
  <path id="Path_427" data-name="Path 427" d="M176.851-367.333a3.007,3.007,0,0,0-1.757,1.587c-.358.819-.358,33.743,0,34.562a2.85,2.85,0,0,0,3.207,1.638c.512-.137,28.694-15.371,30.587-16.531a2.9,2.9,0,0,0,.87-3.838c-.341-.563-.751-.887-2.03-1.586-2.184-1.211-2.542-1.348-3.088-1.092a1.251,1.251,0,0,0-.682,1.535c.119.341.6.7,1.859,1.4a5.871,5.871,0,0,1,1.706,1.194c0,.273-29.751,16.582-29.973,16.445-.171-.119-.171-32.771,0-32.89.068-.034,4.964,2.559,10.867,5.783,7.591,4.145,10.9,5.868,11.293,5.885a1.061,1.061,0,0,0,.887-.444c.478-.614.444-.989-.1-1.586-.375-.375-17.588-9.894-21.171-11.7A2.822,2.822,0,0,0,176.851-367.333Z" transform="translate(-145.103 392.077)" fill="#2c704f"/>
  <path id="Path_428" data-name="Path 428" d="M58.532-170.659c-.563.529-.461,1.075.512,2.883a37.89,37.89,0,0,0,16.8,16c1.757.819,2.405.9,2.866.392A1.389,1.389,0,0,0,78.8-153a12.659,12.659,0,0,0-2.115-1.228,34.327,34.327,0,0,1-8.82-6.158,35.273,35.273,0,0,1-6.551-8.564C60.545-170.505,60.1-171,59.453-171A1.56,1.56,0,0,0,58.532-170.659Z" transform="translate(-48.365 229.112)" fill="#2c704f"/>
</svg>
