<?xml version="1.0" encoding="UTF-8" standalone="no"?>
<svg
   width="92.793"
   height="75.477"
   viewBox="0 0 92.793 75.477"
   version="1.1"
   id="svg8"
   sodipodi:docname="appointment.svg"
   inkscape:version="1.1-beta1 (77e7b44db3, 2021-03-28)"
   xmlns:inkscape="http://www.inkscape.org/namespaces/inkscape"
   xmlns:sodipodi="http://sodipodi.sourceforge.net/DTD/sodipodi-0.dtd"
   xmlns="http://www.w3.org/2000/svg"
   xmlns:svg="http://www.w3.org/2000/svg">
  <defs
     id="defs12" />
  <sodipodi:namedview
     id="namedview10"
     pagecolor="#ffffff"
     bordercolor="#666666"
     borderopacity="1.0"
     objecttolerance="10.0"
     gridtolerance="10.0"
     guidetolerance="10.0"
     inkscape:pageshadow="2"
     inkscape:pageopacity="0.0"
     inkscape:pagecheckerboard="0"
     showgrid="false"
     inkscape:zoom="6.8895163"
     inkscape:cx="46.374809"
     inkscape:cy="37.811073"
     inkscape:window-width="1366"
     inkscape:window-height="705"
     inkscape:window-x="-8"
     inkscape:window-y="-8"
     inkscape:window-maximized="1"
     inkscape:current-layer="svg8" />
  <g
     id="calendar_2_"
     data-name="calendar (2)"
     transform="translate(0 0)"
     style="fill:#ffffff;fill-opacity:1">
    <path
       id="Path_97"
       data-name="Path 97"
       d="M1.606,3.212H26.5A1.606,1.606,0,0,0,26.5,0H1.606a1.606,1.606,0,0,0,0,3.212Zm0,0"
       transform="translate(0 25.716)"
       fill="#2c704f"
       style="fill:#ffffff;fill-opacity:1" />
    <path
       id="Path_480"
       data-name="Path 480"
       d="M1.3,3.212H21.481a1.478,1.478,0,0,0,1.3-1.606A1.478,1.478,0,0,0,21.481,0H1.3A1.478,1.478,0,0,0,0,1.606,1.478,1.478,0,0,0,1.3,3.212Zm0,0"
       transform="translate(13.824 36.111)"
       fill="#2c704f"
       style="fill:#ffffff;fill-opacity:1" />
    <path
       id="Path_98"
       data-name="Path 98"
       d="M16.507,0H1.606a1.606,1.606,0,1,0,0,3.212h14.9a1.606,1.606,0,1,0,0-3.212Zm0,0"
       transform="translate(25.515 46.549)"
       fill="#2c704f"
       style="fill:#ffffff;fill-opacity:1" />
    <path
       id="Subtraction_1"
       data-name="Subtraction 1"
       d="M54.226,75.477A17.677,17.677,0,0,1,37.774,64.232H8.052c-.1,0-.2,0-.3-.006V61.012c.12.007.22.011.315.011H36.876A17.691,17.691,0,0,1,54.25,40.145H54.3V19.785H3.25v.184H0v-.184L.021,12.7a8.03,8.03,0,0,1,8.03-8.027h6.582V1.607a1.606,1.606,0,1,1,3.212,0V4.675H39.687V1.607a1.6,1.6,0,1,1,3.21,0V4.675H49.48a8.03,8.03,0,0,1,8.03,8.027v27.75a17.712,17.712,0,0,1,13.3,11.225A17.486,17.486,0,0,1,71.9,57.811,17.677,17.677,0,0,1,54.226,75.477Zm.024-32.119A14.453,14.453,0,1,0,68.7,57.811,14.47,14.47,0,0,0,54.25,43.357ZM8.068,7.885A4.827,4.827,0,0,0,3.25,12.7v3.887H54.314V12.7A4.844,4.844,0,0,0,49.5,7.885H42.913v3.066a1.6,1.6,0,1,1-3.21,0V7.885H17.862v3.066a1.6,1.6,0,1,1-3.209,0V7.885Z"
       transform="translate(20.895 0)"
       fill="#2c704f"
       style="fill:#ffffff;fill-opacity:1" />
    <path
       id="Path_100"
       data-name="Path 100"
       d="M17.2.448,7.663,9.553,2.733,4.607A1.6,1.6,0,0,0,.469,6.871l6.053,6.054a1.579,1.579,0,0,0,1.141.466,1.553,1.553,0,0,0,1.108-.45l10.663-10.2A1.6,1.6,0,0,0,19.482.48,1.633,1.633,0,0,0,17.2.448Zm0,0"
       transform="translate(65.379 51.597)"
       fill="#2c704f"
       style="fill:#ffffff;fill-opacity:1" />
  </g>
</svg>
