<svg id="hospitalisation" xmlns="http://www.w3.org/2000/svg" width="82.068" height="67" viewBox="0 0 82.068 67">
  <path id="Path_481" data-name="Path 481" d="M4.869-464.824A5.8,5.8,0,0,0,2.288-462.9c-.994,1.395-1.01,1.635-1.01,11.653v9.024l-.481.609a3.64,3.64,0,0,0-.641,1.154c-.1.337-.16,7.934-.16,20.629,0,22.28-.064,20.853,1.026,21.527.481.289,1.475.3,32.394.3,31.7,0,31.9,0,32.426-.321.978-.593.994-.737.994-7.982v-6.54l3.671-3.318c2.02-1.827,3.975-3.655,4.344-4.055a6.408,6.408,0,0,0,1.587-5.225c-.1-.85-.449-1.667-2.148-5.1-2.613-5.241-2.645-5.482-1.106-8.094.593-1.01.657-1.058,1.138-.978a8,8,0,0,0,3.735-.737,7.453,7.453,0,0,0,3.11-2.981c.85-1.667.9-2.18.9-8.527,0-6.524-.016-6.6-1.106-7.325-.5-.337-.721-.369-2.677-.369H76.133V-462.6H78.7c2.517,0,2.581-.016,2.965-.4a1.076,1.076,0,0,0,.064-1.587L81.406-465H17.964l-.337.433a1.034,1.034,0,0,0-.256.93c.224,1.042-2.2.962,28.467,1.01l27.89.032v3.045H71.645c-2.26,0-2.645.1-3.366.882l-.4.433v6.588c0,6.572,0,6.6.385,7.534a8,8,0,0,0,2.436,3.142l.737.529-.689,1.218a6.2,6.2,0,0,0-.769,5.145,51.563,51.563,0,0,0,2.164,4.7c1.8,3.622,1.907,3.895,1.907,4.793,0,1.8-.289,2.2-3.863,5.434-1.747,1.587-3.206,2.885-3.254,2.885s-.1-5.306-.1-11.8c0-8.88-.048-11.973-.192-12.47A3.9,3.9,0,0,0,64.5-442.7a14.739,14.739,0,0,0-2.581-.176H59.944l-.1-.449c-.048-.24-.16-.689-.24-.994-.24-.946-.16-1.827.353-4.135.641-2.853.513-3.622-.705-4.36-.673-.417-1.378-.4-3.446.064-2.565.593-3.158.625-4.44.273-.93-.256-1.2-.273-1.6-.112a1.177,1.177,0,0,0-.208,2.036,11.275,11.275,0,0,0,3.334.785,25.662,25.662,0,0,0,2.805-.465,17.249,17.249,0,0,1,2.148-.4,14.515,14.515,0,0,1-.369,2.18c-.513,2.436-.545,3.318-.144,4.953.256,1.058.289,2.02.289,8.639,0,6.732-.032,7.582-.3,8.752l-.3,1.3-1.218-.866a13.844,13.844,0,0,0-4.264-2.2c-1.891-.609-3.013-.737-6.684-.737H41.511v-.609a1.2,1.2,0,0,1,.417-1.01,12.413,12.413,0,0,0,2.725-4.777c.256-.914.337-1.01,1.09-1.443a6.646,6.646,0,0,0,3.126-4.376,4.992,4.992,0,0,0-.641-3.574,4.607,4.607,0,0,0-2.484-1.779l-.513-.1-.064-3.542c-.064-3.142-.112-3.655-.4-4.392a6.8,6.8,0,0,0-2.324-2.981c-1.667-1.154-1.6-1.138-8.463-1.2a64.782,64.782,0,0,0-7.133.128,6.3,6.3,0,0,0-4.921,4.408l-.272.8-2.452.1a21.774,21.774,0,0,0-3.013.288c-1.635.529-2.452.529-4.761.016a25.632,25.632,0,0,0-2.773-.481,2.5,2.5,0,0,0-1.939,1.154c-.4.673-.369,1.411.256,4.312l.465,2.18-.3,1.3-.289,1.314H3.667l.048-8.944.048-8.944.4-.593a3.258,3.258,0,0,1,.978-.9c.545-.321.85-.337,4.36-.337,3.558,0,3.783-.016,4.183-.337a1.2,1.2,0,0,0,.1-1.747c-.3-.3-.529-.321-4.36-.3A41.674,41.674,0,0,0,4.869-464.824Zm74.79,9.361v1.683H70.2v-3.366h9.457Zm-39.19-.128a4.433,4.433,0,0,1,1.939,2.052,8.877,8.877,0,0,1,.337,3.126,8.049,8.049,0,0,1-.914-.561c-1.6-1.074-1.956-1.122-8.415-1.122-6.428,0-6.684.032-8.447,1.106l-.93.561v-1.09a4.02,4.02,0,0,1,1.891-3.815,6.788,6.788,0,0,1,1.2-.545c.289-.064,3.254-.112,6.6-.1C39.651-455.944,39.844-455.928,40.469-455.591Zm39.158,7.133c-.064,3.382-.224,3.911-1.507,5.1a4.172,4.172,0,0,1-3.206,1.282,4.621,4.621,0,0,1-4.28-2.629c-.321-.593-.353-.93-.4-3.671l-.064-3h9.521Zm-68.218-1.715c2.276.481,2.9.5,4.456.064a16.264,16.264,0,0,1,3.494-.417l2.276-.1v4.312l-.833.224a4.276,4.276,0,0,0-2.757,2.789,5.737,5.737,0,0,0,1.907,6.011,6.721,6.721,0,0,0,1.427,1.074c.321.08.465.321.8,1.395a11.109,11.109,0,0,0,2.26,4.087c.609.673.721.9.721,1.459v.657h-3.4a22.512,22.512,0,0,0-4.889.3,16.075,16.075,0,0,0-6.46,3.029l-.625.529-.16-.609c-.1-.337-.24-.93-.321-1.33-.1-.433-.176-3.622-.176-7.95,0-6.62.032-7.373.321-8.8a15.7,15.7,0,0,0,.321-2.18,40.886,40.886,0,0,0-.882-4.761c-.08-.3-.032-.353.272-.272C9.373-450.606,10.383-450.4,11.409-450.173Zm28.739.994a5,5,0,0,1,2.581,4.232c.1.914.192,1.25.481,1.539a1.015,1.015,0,0,0,1.571-.048c.4-.4.433-.417.817-.16a1.976,1.976,0,0,1,.914,1.859,3.918,3.918,0,0,1-2.693,3.51c-.866.224-1.026.433-1.282,1.731a9.687,9.687,0,0,1-3.863,5.883,9.321,9.321,0,0,1-14.41-5.77c-.289-1.314-.641-1.827-1.234-1.827a3.869,3.869,0,0,1-2.2-1.715c-.866-1.346-.785-2.9.192-3.622l.433-.321.5.433c1.09.9,2.084.24,2.084-1.395A4.659,4.659,0,0,1,26.6-449.1l1.01-.529,5.947.048C39.315-449.532,39.523-449.516,40.148-449.18ZM6.76-433.472c.048,6.315.08,7.133.353,8.127.433,1.555.192,2.949-.866,5.145a15.855,15.855,0,0,0-1.6,5.37l-.16,1.346-1.042,1.058L2.4-411.384v-14.233c0-14.009,0-14.217.321-14.538.289-.289.529-.321,2.164-.321H6.712Zm57.351-6.684c.321.321.321.529.321,13.288V-413.9l-.673.561-.673.561-.417-.321c-.385-.272-.449-.449-.529-1.539a14.936,14.936,0,0,0-1.555-5.4c-1.218-2.517-1.314-3.382-.737-6.411.192-1.026.24-2.6.256-7.662v-6.363h1.843C63.582-440.476,63.823-440.444,64.111-440.156ZM29.169-427.365a11.651,11.651,0,0,0,9.024-.224c.449-.208.833-.385.866-.385a7.69,7.69,0,0,1,.048,1.266c0,1.427-.144,1.7-1.01,1.859-.289.048-2.613.08-5.193.048-5.562-.064-5.225.064-5.322-1.923-.048-1.058-.016-1.282.16-1.2C27.87-427.878,28.511-427.621,29.169-427.365Zm-3.863,2.132a2.674,2.674,0,0,0,.962,1.747c1.106,1.106,1.459,1.154,7.63,1.09,5.129-.048,5.129-.048,5.85-.449a3.433,3.433,0,0,0,1.731-2.565l.08-.833,3.783.08c4.28.08,4.825.176,7.149,1.314a12.672,12.672,0,0,1,5.931,5.931,11.144,11.144,0,0,1,1.138,3.4,7.788,7.788,0,0,1-1.314-.673,28.554,28.554,0,0,0-9.361-3.158c-1.058-.16-4.248-.208-14.217-.208H21.811l-.353.353a1.248,1.248,0,0,0-.064,1.651c.289.321.465.321,11.685.321,12.326,0,14.971.112,17.583.705a24.4,24.4,0,0,1,11.268,6.075c1.907,1.875,2.5,3.639,2.5,7.6v2.452H2.369l.064-3.013c.1-3.286.272-4.135,1.25-5.626,1.6-2.5,6.411-5.69,10.419-6.908.833-.256,1.956-.593,2.484-.753,1.09-.321,1.394-.785,1.106-1.6-.289-.833-.8-.914-2.629-.449a27.178,27.178,0,0,0-7.085,2.9,3.7,3.7,0,0,1-.705.385c-.176,0,.112-1.17.609-2.452a13.524,13.524,0,0,1,5.883-6.668c2.629-1.362,3.7-1.587,8.03-1.6l3.3-.016Z" transform="translate(0.004 465)" fill="#fff"/>
  <path id="Path_482" data-name="Path 482" d="M169.822-333.639a1.481,1.481,0,0,0-.545,2.436,1.428,1.428,0,0,0,2.356-.994A1.481,1.481,0,0,0,169.822-333.639Z" transform="translate(-141.771 354.749)" fill="#fff"/>
  <path id="Path_483" data-name="Path 483" d="M231.043-333.463a1.359,1.359,0,0,0-.4,2.164,1.386,1.386,0,0,0,2.468-.85A1.443,1.443,0,0,0,231.043-333.463Z" transform="translate(-193.359 354.685)" fill="#fff"/>
  <path id="Path_484" data-name="Path 484" d="M186.439-291.631a1.174,1.174,0,0,0,.657,1.972,25.034,25.034,0,0,0,2.757.032c2.244-.048,2.372-.064,2.661-.433a1.239,1.239,0,0,0-.016-1.619c-.289-.288-.529-.321-3.013-.321C186.872-292,186.776-291.984,186.439-291.631Z" transform="translate(-156.272 319.73)" fill="#fff"/>
</svg>
