<?xml version="1.0" encoding="UTF-8" standalone="no"?>
<svg
   id="healthcare-_1_"
   width="66.958"
   height="72.957"
   viewBox="0 0 66.958 72.957"
   version="1.1"
   sodipodi:docname="service.svg"
   inkscape:version="1.1-beta1 (77e7b44db3, 2021-03-28)"
   xmlns:inkscape="http://www.inkscape.org/namespaces/inkscape"
   xmlns:sodipodi="http://sodipodi.sourceforge.net/DTD/sodipodi-0.dtd"
   xmlns="http://www.w3.org/2000/svg"
   xmlns:svg="http://www.w3.org/2000/svg">
  <defs
     id="defs8" />
  <sodipodi:namedview
     id="namedview6"
     pagecolor="#ffffff"
     bordercolor="#666666"
     borderopacity="1.0"
     objecttolerance="10.0"
     gridtolerance="10.0"
     guidetolerance="10.0"
     inkscape:pageshadow="2"
     inkscape:pageopacity="0.0"
     inkscape:pagecheckerboard="0"
     showgrid="false"
     inkscape:zoom="7.127486"
     inkscape:cx="33.462009"
     inkscape:cy="36.548651"
     inkscape:window-width="1366"
     inkscape:window-height="705"
     inkscape:window-x="-8"
     inkscape:window-y="-8"
     inkscape:window-maximized="1"
     inkscape:current-layer="healthcare-_1_" />
  <path
     id="Path_485"
     data-name="Path 485"
     d="M186.614-511.735a10.225,10.225,0,0,0-5.5,3.107,9.581,9.581,0,0,0-2.252,3.62,10.392,10.392,0,0,0,1.411,9.648c.342.485,2.095,2.323,3.891,4.1,2.85,2.836,3.321,3.249,3.705,3.249a1.02,1.02,0,0,0,1.083-.983c0-.4-.385-.841-3.349-3.834a50.951,50.951,0,0,1-3.862-4.19,8.181,8.181,0,0,1,1.112-10.3,8.147,8.147,0,0,1,9.605-1.553,8.467,8.467,0,0,1,3.42,3.335c.6,1.154.969,1.568,1.4,1.568.6,0,.884-.271,1.411-1.325a8.12,8.12,0,0,1,1.553-2.052,8.2,8.2,0,0,1,13.325,2.451,8.392,8.392,0,0,1-.171,7.2c-.413.841-1.2,1.682-8.223,8.722l-7.767,7.81-2.779-2.765a31.431,31.431,0,0,0-3.093-2.822,1.1,1.1,0,0,0-1.3,1.354,43.89,43.89,0,0,0,3.42,3.634c2.522,2.494,3.42,3.306,3.677,3.306s2.252-1.91,8.836-8.522c8.194-8.209,8.508-8.551,9.092-9.677a10.555,10.555,0,0,0-1.112-11.387A11,11,0,0,0,208-511.749a10.527,10.527,0,0,0-9.947,3.52l-.67.827-.9-1A10.45,10.45,0,0,0,186.614-511.735Z"
     transform="translate(-155.845 511.94)"
     fill="#2c704f"
     style="fill:#ffffff;fill-opacity:1" />
  <path
     id="Path_486"
     data-name="Path 486"
     d="M264.62-449.794c-.57.214-.627.47-.67,2.437l-.043,1.91-1.938.043c-2.636.057-2.48-.142-2.48,3.264v2.636l.4.342c.385.328.5.342,2.252.342h1.838v1.9c0,2.636-.157,2.522,3.264,2.522,2.565,0,2.594,0,2.936-.356.342-.328.356-.413.356-2.209v-1.853h1.853c1.8,0,1.881-.014,2.209-.356.356-.342.356-.371.356-2.964,0-3.406.128-3.235-2.494-3.235h-1.924v-1.781c0-1.91-.114-2.366-.67-2.622A24.8,24.8,0,0,0,264.62-449.794Zm3.777,4.019c.1,2.565-.014,2.451,2.494,2.508l1.924.057v2.252h-1.881c-2.579,0-2.537-.043-2.537,2.522v1.9h-2.252l-.057-1.938c-.057-2.537,0-2.48-2.551-2.48H261.7v-2.252l1.867-.057c1.838-.043,1.867-.043,2.209-.442s.342-.5.342-2.252v-1.853l1.112.043,1.1.043Z"
     transform="translate(-225.5 458.764)"
     fill="#2c704f"
     style="fill:#ffffff;fill-opacity:1" />
  <path
     id="Path_487"
     data-name="Path 487"
     d="M83.306-277.315c-.727.142-.513.014-8.565,4.674-3.406,1.967-6.242,3.577-6.285,3.577s-.214-.257-.356-.57a4.331,4.331,0,0,0-.869-1.14c-1.112-1.026-1.226-1.04-5.686-1.126-3.335-.071-4.062-.128-4.418-.314A29.872,29.872,0,0,0,52-273.852a14.569,14.569,0,0,0-5.985.285,17.217,17.217,0,0,0-8.75,6.67,8.219,8.219,0,0,1-1,1.254,11.311,11.311,0,0,1-1.226-1.14c-1.539-1.539-1.61-1.539-3.278.143l-1.268,1.268-.741-.7c-.627-.6-.841-.713-1.3-.713-.513,0-.7.157-3.99,3.463-3.15,3.15-3.463,3.506-3.463,3.948s.242.727,2.323,2.807c2.494,2.508,2.679,2.622,3.435,2.024a.871.871,0,0,0,.371-.8c0-.47-.171-.684-1.739-2.28l-1.739-1.753,2.408-2.423,2.423-2.423,9.449,9.449,9.434,9.434-2.423,2.423-2.423,2.423-6.228-6.228c-4.275-4.261-6.37-6.256-6.641-6.327a1.015,1.015,0,0,0-1.211,1.012c-.043.542-.043.556,6.769,7.368,5.9,5.9,6.869,6.812,7.24,6.812s.941-.513,3.948-3.52c4.275-4.275,4.119-3.862,2.294-5.757l-1.24-1.283,1.24-1.24c1.71-1.724,1.71-1.724.157-3.306l-1.254-1.283h6.484l.342-.356a.969.969,0,0,0,.029-1.468c-.328-.314-.413-.314-4.674-.314H45.441l-3.777-3.777-3.777-3.777.271-.456a21.439,21.439,0,0,1,2.921-3.691,11.979,11.979,0,0,1,7.938-3.791,16.344,16.344,0,0,1,7.282,1.61l1.169.484H61a33.733,33.733,0,0,1,4.019.143,1.766,1.766,0,0,1,1.226,2.38c-.4,1-.071.955-7.952,1.04l-7.111.071-.342.4a.853.853,0,0,0-.043,1.3l.3.385,7.368-.043,7.382-.043.684-.428a6.2,6.2,0,0,0,1.283-1.183c.527-.684,1.04-1.012,6.769-4.318,8.978-5.187,8.85-5.116,9.463-5.116a1.789,1.789,0,0,1,1.4,2.636c-.371.584-18.6,14.85-19.724,15.434-1.226.627-2,.741-5.1.741-2.594,0-2.665.014-2.964.328a1.007,1.007,0,0,0,.057,1.482l.356.356,3.235-.057c3.506-.071,4.218-.2,5.7-1.069,1.226-.713,19.268-14.864,19.98-15.691a3.865,3.865,0,0,0,.955-2.893A3.992,3.992,0,0,0,83.306-277.315ZM46.681-250.651l-.741.755-6.983-6.983-6.983-6.983.741-.741.755-.755,6.983,6.983,6.983,6.983Z"
     transform="translate(-21 310.811)"
     fill="#2c704f"
     style="fill:#ffffff;fill-opacity:1" />
</svg>
