<svg xmlns="http://www.w3.org/2000/svg" width="73.212" height="92.377" viewBox="0 0 73.212 92.377">
  <g id="badge_1_" data-name="badge (1)" transform="translate(-53.264 511.663)">
    <path id="Path_389" data-name="Path 389" d="M88.19-511.543a9.185,9.185,0,0,0-2.762,1.372,5.155,5.155,0,0,1-2.708.975,10.684,10.684,0,0,1-1.824-.289,6.734,6.734,0,0,0-4.875.56,8.327,8.327,0,0,0-3.358,3.142,4.851,4.851,0,0,1-3.485,1.842,7.287,7.287,0,0,0-6.229,5.579,5.083,5.083,0,0,1-3.033,3.954,7.9,7.9,0,0,0-3.015,3.178c-.506,1.047-.524,1.156-.542,3.882,0,3.124-.09,3.43-1.174,4.73-2.239,2.672-2.51,5.417-.867,8.739a5.153,5.153,0,0,1,.361,4.658c-1.029,2.925-.108,5.9,2.528,8.215,1.372,1.21,1.7,1.914,1.95,4.243.361,3.485,1.968,5.453,5.417,6.626,1.083.379,2.185,1.137,2.185,1.5,0,.126-1.715,4.369-3.81,9.425-3.593,8.667-3.81,9.244-3.737,10.129a3.1,3.1,0,0,0,1.914,2.618c1.083.487,1.444.415,6.428-1.119,3.105-.957,4.189-1.228,4.369-1.065.126.108,1.137,1.914,2.257,4.008a41.216,41.216,0,0,0,2.492,4.351,3.1,3.1,0,0,0,4.586-.018c.343-.379,1.751-3.557,4.442-10.057,2.185-5.236,4.008-9.569,4.062-9.623a.135.135,0,0,1,.217,0c.054.054,1.878,4.387,4.044,9.623,2.708,6.518,4.117,9.678,4.46,10.057a3.1,3.1,0,0,0,4.586.018,41.217,41.217,0,0,0,2.492-4.351c1.119-2.094,2.131-3.9,2.275-4.026.181-.144,1.21.108,4.369,1.083,4.983,1.535,5.326,1.607,6.41,1.119a3.1,3.1,0,0,0,1.914-2.618c.072-.885-.144-1.462-3.737-10.129-2.094-5.055-3.81-9.3-3.81-9.425,0-.361,1.1-1.119,2.185-1.5a7.841,7.841,0,0,0,3.394-1.986,6.692,6.692,0,0,0,2.022-4.64c.253-2.329.578-3.033,1.95-4.243,2.672-2.329,3.5-5.092,2.51-8.215a5.119,5.119,0,0,1,.4-4.676c1.625-3.3,1.354-6.067-.885-8.721-1.119-1.318-1.3-2.04-1.174-4.622a6.726,6.726,0,0,0-.253-3.25,7.5,7.5,0,0,0-2.636-3.467c-.451-.289-1.192-.758-1.643-1.029a5.111,5.111,0,0,1-2.058-3.34,7.241,7.241,0,0,0-6.229-5.615,4.887,4.887,0,0,1-3.485-1.842,8.327,8.327,0,0,0-3.358-3.142,6.734,6.734,0,0,0-4.875-.56,10.684,10.684,0,0,1-1.824.289,5.338,5.338,0,0,1-2.762-1.011,7.028,7.028,0,0,0-3.99-1.444A9.725,9.725,0,0,0,88.19-511.543Zm3.142,2.8A6.646,6.646,0,0,1,92.7-508a7.355,7.355,0,0,0,6.373,1.228,4.551,4.551,0,0,1,2.492-.09,4.786,4.786,0,0,1,2.907,2.149,7.061,7.061,0,0,0,4.8,3.268c3.358.668,4.261,1.408,4.965,4.081a7.309,7.309,0,0,0,3.81,5.055,5.209,5.209,0,0,1,2.347,2.365c.289.614.325,1.156.289,3.34-.036,2.419,0,2.672.415,3.593A9.858,9.858,0,0,0,122.3-481.1c1.21,1.481,1.408,1.986,1.408,3.412a4.356,4.356,0,0,1-.758,2.708,7.35,7.35,0,0,0-.506,6.392,5.327,5.327,0,0,1-.054,3.557,5.388,5.388,0,0,1-1.119,1.444c-2.419,2.167-2.943,3.142-3.3,6.03-.361,2.853-1.192,4.062-3.268,4.694a7.483,7.483,0,0,0-4.839,4.153,4.977,4.977,0,0,1-2.329,2.8c-.831.451-1.119.506-2.925.542a7.1,7.1,0,0,0-5.8,2.257,9.972,9.972,0,0,1-1.824,1.372,5.325,5.325,0,0,1-4.008-.325,6.14,6.14,0,0,0-3.105-.578,6.14,6.14,0,0,0-3.105.578,5.325,5.325,0,0,1-4.008.325,9.972,9.972,0,0,1-1.824-1.372,7.1,7.1,0,0,0-5.8-2.257c-1.806-.036-2.094-.09-2.925-.542a4.977,4.977,0,0,1-2.329-2.8,7.483,7.483,0,0,0-4.839-4.153c-2.076-.632-2.907-1.824-3.25-4.676-.361-2.889-.885-3.846-3.322-6.067a5.587,5.587,0,0,1-1.119-1.444,5.387,5.387,0,0,1-.054-3.539,7.35,7.35,0,0,0-.506-6.392,4.356,4.356,0,0,1-.758-2.708c0-1.426.2-1.932,1.408-3.412a9.858,9.858,0,0,0,1.192-1.914c.415-.921.451-1.174.415-3.593-.036-2.185,0-2.726.289-3.34a5.209,5.209,0,0,1,2.347-2.365,7.363,7.363,0,0,0,3.81-5.037,4.733,4.733,0,0,1,1.661-2.907c.722-.614,1.156-.776,2.853-1.065a7.406,7.406,0,0,0,5.254-3.394,4.786,4.786,0,0,1,2.907-2.149,4.551,4.551,0,0,1,2.492.09A7.355,7.355,0,0,0,87.034-508,4.533,4.533,0,0,1,91.331-508.744ZM68.8-445.208a7.8,7.8,0,0,0,2.961,2.094,7.523,7.523,0,0,0,3.033.433c2.347.054,2.925.271,4.64,1.86a10.506,10.506,0,0,0,2.112,1.481,5.278,5.278,0,0,0,2.871.469c1.571,0,1.824.036,1.751.271-.632,1.7-6.717,16.232-6.879,16.412a.516.516,0,0,1-.487.144,32.452,32.452,0,0,1-2.311-4.026,41.356,41.356,0,0,0-2.636-4.514,3.259,3.259,0,0,0-2.654-.9c-.325.054-2.419.686-4.694,1.39a31.041,31.041,0,0,1-4.387,1.156c-.181-.054-.253-.253-.2-.506.126-.614,6.536-16.015,6.662-16.015C68.654-445.461,68.744-445.353,68.8-445.208Zm45.716,7.547c1.769,4.3,3.268,8,3.3,8.215.054.253-.018.451-.181.506a29.834,29.834,0,0,1-4.369-1.156c-2.257-.7-4.369-1.318-4.694-1.372a3.167,3.167,0,0,0-2.69.885,37.661,37.661,0,0,0-2.636,4.532,30.383,30.383,0,0,1-2.329,4.008.5.5,0,0,1-.469-.144c-.162-.181-6.247-14.715-6.879-16.412-.072-.235.181-.271,1.751-.271a5.185,5.185,0,0,0,2.925-.506,10.8,10.8,0,0,0,2.185-1.535c1.625-1.517,2.131-1.715,4.514-1.769a7.523,7.523,0,0,0,3.033-.433,7.8,7.8,0,0,0,2.961-2.094c.054-.144.144-.253.217-.253S112.727-441.94,114.514-437.661Z" transform="translate(0)" fill="#fff"/>
    <path id="Path_390" data-name="Path 390" d="M130.1-458.463a27.419,27.419,0,0,0-19.446,13.83,28.276,28.276,0,0,0-3,9.335c-.036.849.018,1.029.4,1.336a1.413,1.413,0,0,0,1.787.018,5.065,5.065,0,0,0,.65-2.04,24.392,24.392,0,0,1,18.976-19.59,20.658,20.658,0,0,1,5.055-.343c3.322,0,3.755.036,5.561.506A24.535,24.535,0,0,1,156.262-442.5a28.441,28.441,0,0,1,2.112,6.518,5.065,5.065,0,0,0,.65,2.04,1.413,1.413,0,0,0,1.787-.018c.524-.415.524-1.137.072-3.322a27.25,27.25,0,0,0-21.034-20.98A42.929,42.929,0,0,0,130.1-458.463Z" transform="translate(-44.564 -43.439)" fill="#fff"/>
    <path id="Path_391" data-name="Path 391" d="M167.792-417.5c-1.083.325-1.426.939-3.34,6.229-1.011,2.781-1.9,5.128-1.968,5.2s-2.456.217-5.272.325c-2.817.09-5.4.217-5.724.271a2.927,2.927,0,0,0-2.04,1.914,2.081,2.081,0,0,0,.108,1.535c.271.7.776,1.156,4.712,4.225,2.419,1.9,4.405,3.5,4.405,3.557,0,.072-.65,2.4-1.444,5.182a55.3,55.3,0,0,0-1.444,5.778,2.5,2.5,0,0,0,3.232,2.383c.361-.126,2.636-1.553,5.019-3.16,2.4-1.607,4.46-2.925,4.568-2.925s2.167,1.318,4.568,2.925c2.383,1.607,4.658,3.033,5.019,3.16a2.5,2.5,0,0,0,3.232-2.383,55.3,55.3,0,0,0-1.444-5.778c-.794-2.78-1.444-5.11-1.444-5.164,0-.072,1.986-1.679,4.387-3.557,4.676-3.647,4.929-3.918,4.893-5.326a2.611,2.611,0,0,0-1.228-2c-.451-.343-.867-.4-4.5-.524-2.2-.072-4.785-.2-5.724-.271l-1.7-.126-1.824-4.983c-1.011-2.744-1.968-5.2-2.131-5.453A2.621,2.621,0,0,0,167.792-417.5Zm2.708,7.962a50.975,50.975,0,0,0,2.131,5.326c.686.885,1.029.957,6.644,1.156,2.925.108,5.38.217,5.471.253a51.551,51.551,0,0,1-4.1,3.358,49.559,49.559,0,0,0-4.532,3.828,2.558,2.558,0,0,0-.289,1.174,52.017,52.017,0,0,0,1.426,5.651c.776,2.726,1.39,4.983,1.372,5.019-.036.036-2.022-1.246-4.424-2.853-2.419-1.625-4.658-3.015-4.983-3.124a1.977,1.977,0,0,0-1.21,0,57.134,57.134,0,0,0-4.983,3.105c-2.4,1.607-4.405,2.907-4.442,2.871-.018-.036.6-2.293,1.372-5.019a50.7,50.7,0,0,0,1.426-5.687,2.559,2.559,0,0,0-.325-1.21,58.728,58.728,0,0,0-4.532-3.792,51.589,51.589,0,0,1-4.062-3.34c.09-.018,2.546-.126,5.471-.235,5.615-.2,5.958-.271,6.644-1.156a50.975,50.975,0,0,0,2.131-5.326c.975-2.69,1.824-4.893,1.9-4.893S169.525-412.224,170.5-409.534Z" transform="translate(-78.735 -77.074)" fill="#fff"/>
    <path id="Path_392" data-name="Path 392" d="M108.2-299.484c-.6.524-.614,1.21-.072,3.665a25.964,25.964,0,0,0,7.312,13.162,26.587,26.587,0,0,0,13.9,7.511,31.969,31.969,0,0,0,10.328,0,26.462,26.462,0,0,0,13.9-7.511,25.588,25.588,0,0,0,7.276-13.108c.632-2.817.632-3.015.036-3.629-.632-.632-1.1-.668-1.715-.126-.379.343-.506.74-.74,2.094a24.381,24.381,0,0,1-6.373,12.53,24.559,24.559,0,0,1-12.368,6.951,17.523,17.523,0,0,1-5.182.487,17.523,17.523,0,0,1-5.182-.487,24.361,24.361,0,0,1-11.682-6.265,24.674,24.674,0,0,1-7.078-13.253c-.217-1.318-.361-1.715-.722-2.058A1.056,1.056,0,0,0,108.2-299.484Z" transform="translate(-44.635 -173.529)" fill="#fff"/>
  </g>
</svg>
