<svg xmlns="http://www.w3.org/2000/svg" width="93.477" height="79.55" viewBox="0 0 93.477 79.55">
  <g id="heart-shape-outline-with-lifeline" transform="translate(-0.28 473.813)">
    <path id="Path_382" data-name="Path 382" d="M26.35-473.664A26.91,26.91,0,0,0,2.658-452.256a42.538,42.538,0,0,0-.073,10.1A49.056,49.056,0,0,0,4.7-435.123c.347.822.639,1.534.639,1.571a10.03,10.03,0,0,1-1.662.073c-1.991,0-2.74.292-3.178,1.224a1.823,1.823,0,0,0,.475,2.32l.566.475H13.472c8.841,0,12.074-.055,12.421-.219.329-.146,1.041-1.151,2.265-3.215l1.808-2.977.986,1.516c.548.84,2.21,3.4,3.708,5.717,1.48,2.3,2.923,4.42,3.16,4.694a2.011,2.011,0,0,0,3.2-.347c.146-.274,1.881-4.914,3.872-10.284,1.973-5.37,3.653-9.827,3.726-9.919.073-.073,1.279,2.923,2.667,6.667s2.63,7.033,2.758,7.307c.548,1.078.4,1.059,8.439,1.059h7.38l.621-.621a1.84,1.84,0,0,0,.311-2.429c-.6-.913-1-.968-7.507-.968h-6.01l-2.7-7.27c-4-10.7-4.11-11.015-4.621-11.489a1.61,1.61,0,0,0-1.242-.42c-1.534,0-1.406-.256-5.845,11.763-2.192,5.991-4.055,10.887-4.11,10.887s-1.735-2.521-3.726-5.589-3.818-5.7-4.037-5.863a2.2,2.2,0,0,0-2.247.091A32.121,32.121,0,0,0,26-437.242l-2.265,3.763-6.868-.037L10-433.57l-.859-1.735a26.813,26.813,0,0,1-2.63-15.124A22.239,22.239,0,0,1,12.924-463a22.569,22.569,0,0,1,24.568-5,22.687,22.687,0,0,1,7.672,5.224c2.7,2.63,2.959,2.63,5.553.018a29.075,29.075,0,0,1,3.233-2.795,22.514,22.514,0,0,1,12.969-4.092,22.648,22.648,0,0,1,22.376,18.6,28.893,28.893,0,0,1,.091,7.526,47.255,47.255,0,0,1-2.046,7.16c-2.959,6.959-10.978,15.946-22.814,25.554-3.781,3.069-11,8.384-15.015,11.033l-1.589,1.041-2.85-1.936a170.786,170.786,0,0,1-23.655-19.015c-1.662-1.626-3.215-3.087-3.471-3.251a2.029,2.029,0,0,0-2.192.055,2.3,2.3,0,0,0-.822,2.155c.237.986,7.434,7.818,13.243,12.567,4.384,3.6,9.663,7.526,14.887,11.069,3.872,2.63,4.475,2.959,5.206,2.795.639-.146,4.64-2.74,8.658-5.626,19.106-13.681,31.18-26.3,34.742-36.313a52.345,52.345,0,0,0,1.918-7.909,27.182,27.182,0,0,0-4.475-17.9,31.253,31.253,0,0,0-6.1-6.411,26.793,26.793,0,0,0-27.8-2.557,26.053,26.053,0,0,0-6.466,4.457,2.378,2.378,0,0,1-.712.566,7.181,7.181,0,0,1-1.3-.968,26.6,26.6,0,0,0-15.581-6.685A18.4,18.4,0,0,0,26.35-473.664Z" transform="translate(0 0)" fill="#fff"/>
  </g>
</svg>
