<svg xmlns="http://www.w3.org/2000/svg" width="95.906" height="95.945" viewBox="0 0 95.906 95.945">
  <g id="hospital-bed-_2_" transform="translate(0 511.946)">
    <path id="Path_393" data-name="Path 393" d="M154.781-511.656a18.448,18.448,0,0,0-9.506,4.95,17.735,17.735,0,0,0-5.475,13.219c.037,8.4,5.494,15.281,13.912,17.569a21.828,21.828,0,0,0,8.681,0A18.577,18.577,0,0,0,175.687-489.1a13.927,13.927,0,0,0,.412-4.669c-.019-3.675-.3-5.025-1.744-7.969A18.239,18.239,0,0,0,154.781-511.656Zm6.994,2.981a15.675,15.675,0,0,1,10.913,10.219c.581,1.706.6,1.894.619,4.688a11.934,11.934,0,0,1-.431,4.313,15.74,15.74,0,0,1-11.738,10.894,14.911,14.911,0,0,1-9.937-1.312,14.69,14.69,0,0,1-6.844-6.6,15.511,15.511,0,0,1,3.731-19.031,17.349,17.349,0,0,1,7.35-3.45A21.9,21.9,0,0,1,161.774-508.675Z" transform="translate(-113.587)" fill="#fff"/>
    <path id="Path_394" data-name="Path 394" d="M188.075-470.569c-1.219.825-1.481,1.444-1.481,3.619V-465h-1.725c-2.081,0-3.019.356-3.825,1.425-.544.694-.544.731-.544,3.169s0,2.475.544,3.169c.806,1.069,1.744,1.425,3.825,1.425h1.725v1.95c0,2.175.262,2.794,1.481,3.619.581.394.863.431,2.869.431,2.569,0,3.244-.206,4.05-1.275.469-.619.506-.825.563-2.7l.075-2.025h1.706c3.394-.019,4.425-1.087,4.425-4.594s-1.031-4.575-4.425-4.594h-1.706l-.075-2.025c-.056-1.875-.094-2.081-.562-2.7-.806-1.069-1.481-1.275-4.05-1.275C188.938-471,188.656-470.962,188.075-470.569Zm4.744,5.006c.075,3.413-.094,3.244,3.394,3.375l2.663.094.056,1.313c.094,2.269.244,2.156-2.7,2.156-2.437,0-2.55.019-2.981.469-.45.431-.469.544-.469,3v2.531h-3.375v-2.25c0-2.531-.244-3.487-.975-3.656-.244-.056-1.481-.112-2.775-.15l-2.344-.038v-3.375l2.344-.038c1.294-.038,2.531-.094,2.775-.15.731-.169.975-1.125.975-3.656v-2.25h3.337Z" transform="translate(-146.656 -33.268)" fill="#fff"/>
    <path id="Path_395" data-name="Path 395" d="M4.256-368.458a5.564,5.564,0,0,0-2.925,1.781C.037-365.215,0-364.9,0-356.721v7.2l.469.45a1.544,1.544,0,0,0,.938.469,1.544,1.544,0,0,0,.938-.469l.469-.45v-7.05c0-5.587.056-7.181.262-7.669a2.576,2.576,0,0,1,4.538-.225c.338.563.356,1.313.45,15.9.094,15.037.094,15.319.469,15.6.337.244,2.569.281,17.963.3H44.062v5.25H2.812v-8.306c0-8.1-.019-8.325-.375-8.719a1.471,1.471,0,0,0-2.063,0C0-344.046,0-343.84,0-334.9c0,5.025.056,9.281.113,9.45.262.656,1.088.844,3.825.844H6.562v5.813c0,5.063-.038,5.813-.281,5.813a6.828,6.828,0,0,0-2.906,1.631,6.668,6.668,0,0,0-1.987,6.619,6.792,6.792,0,0,0,11.625,2.981,5.833,5.833,0,0,0,1.762-4.856c-.131-3.169-1.838-5.344-5.063-6.431-.3-.113-.337-.394-.337-2.288v-2.156H87.75v2.156c0,1.894-.037,2.175-.319,2.269a7.526,7.526,0,0,0-4.5,3.788,5.074,5.074,0,0,0-.525,2.944,4.976,4.976,0,0,0,.544,2.962,7.7,7.7,0,0,0,3.45,3.281,5.074,5.074,0,0,0,2.756.506,4.843,4.843,0,0,0,2.944-.619,7.156,7.156,0,0,0,3.319-3.413,5.228,5.228,0,0,0,.488-2.719,5.074,5.074,0,0,0-.506-2.756,9.487,9.487,0,0,0-1.388-2.025,6.707,6.707,0,0,0-3.15-1.875c-.262,0-.3-.675-.3-5.794v-5.794l2.137-.075c1.781-.038,2.194-.112,2.531-.413l.394-.356v-14.944c0-16.556.038-15.9-1.238-17.4a5.431,5.431,0,0,0-7.894-.263,6.772,6.772,0,0,0-1.088,1.519l-.337.75-6.638.056-6.656.056-.356.45a1.449,1.449,0,0,0,.019,1.894c.356.356.619.375,6.938.375h6.563v25.5H46.856l.056-10.556c.056-10.312.056-10.556.45-11.4a6.25,6.25,0,0,1,2.85-2.925l1.069-.525,7.725-.094c7.444-.094,7.744-.113,8.006-.469a1.325,1.325,0,0,0-.469-2.062c-.431-.225-1.706-.281-7.237-.281-3.694,0-7.256.094-7.931.188a8.776,8.776,0,0,0-7.106,6.712,10,10,0,0,0-.206,1.538v.563H27.187v-.619a6.459,6.459,0,0,0-1.406-3.094c-.806-.956-1.8-1.406-5.812-2.663-2.062-.637-4.95-1.519-6.412-1.988l-2.644-.825-.075-4.275c-.075-4.856-.187-5.325-1.65-6.788A5.412,5.412,0,0,0,4.256-368.458Zm87.188,11.925a2.585,2.585,0,0,1,1.012.881c.337.563.356,1.219.356,14.4v13.837H87.75l.038-13.95c.056-13.65.056-13.95.431-14.362A2.517,2.517,0,0,1,91.444-356.533Zm-74.606,5.419c3.169.994,5.962,1.912,6.244,2.063a2.87,2.87,0,0,1,1.294,1.931v.394h-13.5v-3.094a22.454,22.454,0,0,1,.113-3.094C11.062-352.915,13.687-352.108,16.837-351.115ZM44.062-339.7v4.219H10.875v-8.437H44.062Zm43.688,17.25v2.156l-39.131-.038-39.15-.056L9.412-322.5l-.056-2.1H87.75ZM9.956-309.865a3.517,3.517,0,0,1,2.006,3.263,3.369,3.369,0,0,1-.3,2.006A4.056,4.056,0,0,1,3.994-306a4.226,4.226,0,0,1,2.569-4.144A4.585,4.585,0,0,1,9.956-309.865ZM90.863-310a4.4,4.4,0,0,1,2.156,2.55,4.05,4.05,0,0,1-6.469,4.181,4,4,0,0,1,2.512-7.069A4.812,4.812,0,0,1,90.863-310Z" transform="translate(0 -116.479)" fill="#fff"/>
  </g>
</svg>
